G04 PROTEUS GERBER X2 FILE*
%TF.GenerationSoftware,Labcenter,Proteus,8.13-SP0-Build31525*%
%TF.CreationDate,2022-07-18T16:51:56+00:00*%
%TF.FileFunction,Plated,1,2,PTH*%
%TF.FilePolarity,Positive*%
%TF.Part,Single*%
%TF.SameCoordinates,{ef34fe09-6a13-4269-aa04-aafbd3ed972e}*%
%FSLAX45Y45*%
%MOMM*%
G01*
%TA.AperFunction,ViaDrill*%
%ADD29C,0.381000*%
%TA.AperFunction,ComponentDrill*%
%ADD72C,1.016000*%
%TA.AperFunction,ComponentDrill*%
%ADD73C,0.762000*%
%TD.AperFunction*%
D29*
X+1905000Y+1206500D03*
X-1778000Y-508000D03*
X-3556000Y-508000D03*
X-3556000Y-4889500D03*
X-3302000Y-254000D03*
X-3302000Y-5016500D03*
X-1968500Y-254000D03*
X-1968500Y+0D03*
X-1905000Y-3556000D03*
X-1079500Y-1270000D03*
X-3937000Y-1270000D03*
X-3873500Y-1016000D03*
X-3429000Y-381000D03*
X-3175000Y-889000D03*
X-4953000Y-5143500D03*
X-889000Y-5143500D03*
X-2032000Y+1524000D03*
X-63500Y+1524000D03*
X-2032000Y+825500D03*
X-127000Y+698500D03*
X-2159000Y+571500D03*
X+825500Y+571500D03*
X-4064000Y-5270500D03*
X-2794000Y-4953000D03*
X+381000Y-5270500D03*
X-2794000Y-3873500D03*
X+635000Y-5270500D03*
X+889000Y-254000D03*
X+1270000Y+4318000D03*
X-4000500Y+1905000D03*
X+444500Y-1905000D03*
X+825500Y+825500D03*
X-2286000Y+1270000D03*
X+1905000Y-1524000D03*
X-3810000Y-1778000D03*
X+2540000Y-2794000D03*
X+2540000Y+2286000D03*
X+698500Y-2286000D03*
X-3810000Y-2032000D03*
X+444500Y+2032000D03*
X-254000Y+2032000D03*
X+1016000Y+3556000D03*
X+2286000Y+3683000D03*
X+3683000Y-3111500D03*
X+3683000Y-3492500D03*
X+3810000Y-3556000D03*
X+3810000Y-3238500D03*
X+3619500Y-254000D03*
X+3619500Y-508000D03*
X+2921000Y-5143500D03*
X+2159000Y-5143500D03*
X+3492500Y-2984500D03*
X+3492500Y-4000500D03*
X+1206500Y-1270000D03*
X+1778000Y+1460500D03*
X-889000Y+698500D03*
X-317500Y+698500D03*
X+5016500Y-4381500D03*
X+1905000Y-3937000D03*
X+1460500Y+127000D03*
X-698500Y+3810000D03*
X+1651000Y+1905000D03*
D72*
X-2921000Y+4953000D03*
X-2667000Y+4953000D03*
X-2413000Y+4953000D03*
X-2159000Y+4953000D03*
X-1905000Y+4953000D03*
X-1651000Y+4953000D03*
X-1397000Y+4953000D03*
X-1143000Y+4953000D03*
X-889000Y+4953000D03*
X-635000Y+4953000D03*
X-381000Y+4953000D03*
X-127000Y+4953000D03*
X+127000Y+4953000D03*
X+381000Y+4953000D03*
X+635000Y+4953000D03*
X+889000Y+4953000D03*
X+1143000Y+4953000D03*
X+1397000Y+4953000D03*
X+1651000Y+4953000D03*
X+1905000Y+4953000D03*
X+2159000Y+4953000D03*
X+2413000Y+4953000D03*
X+2667000Y+4953000D03*
X+2921000Y+4953000D03*
X+3175000Y+4953000D03*
X+3429000Y+4953000D03*
X+3683000Y+4953000D03*
X+3937000Y+4953000D03*
X+4191000Y+4953000D03*
X+4445000Y+4953000D03*
X+4699000Y+4953000D03*
X+4953000Y+4953000D03*
X-4953000Y+4953000D03*
X-4699000Y+4953000D03*
X-4445000Y+4953000D03*
X-4191000Y+4953000D03*
X-3937000Y+4953000D03*
X-3683000Y+4953000D03*
X-3429000Y+4953000D03*
X-3175000Y+4953000D03*
X-4953000Y-5461000D03*
X-4699000Y-5461000D03*
X-4445000Y-5461000D03*
X-4191000Y-5461000D03*
X-3937000Y-5461000D03*
X-3683000Y-5461000D03*
X-3429000Y-5461000D03*
X-3175000Y-5461000D03*
X-2921000Y-5461000D03*
X-2667000Y-5461000D03*
X-2413000Y-5461000D03*
X-2159000Y-5461000D03*
X-1905000Y-5461000D03*
X-1651000Y-5461000D03*
X-1397000Y-5461000D03*
X-1143000Y-5461000D03*
X-889000Y-5461000D03*
X-635000Y-5461000D03*
X-381000Y-5461000D03*
X-127000Y-5461000D03*
X+127000Y-5461000D03*
X+381000Y-5461000D03*
X+635000Y-5461000D03*
X+889000Y-5461000D03*
X+1143000Y-5461000D03*
X+1397000Y-5461000D03*
X+1651000Y-5461000D03*
X+1905000Y-5461000D03*
X+2159000Y-5461000D03*
X+2413000Y-5461000D03*
X+2667000Y-5461000D03*
X+2921000Y-5461000D03*
X+3175000Y-5461000D03*
X+3429000Y-5461000D03*
X+3683000Y-5461000D03*
X+3937000Y-5461000D03*
X+4191000Y-5461000D03*
X+4445000Y-5461000D03*
X+4699000Y-5461000D03*
X+4953000Y-5461000D03*
X-5207000Y+4699000D03*
X-5207000Y+4445000D03*
X-5207000Y+4191000D03*
X-5207000Y+3937000D03*
X-5207000Y+3683000D03*
X-5207000Y+3429000D03*
X-5207000Y+3175000D03*
X-5207000Y+2921000D03*
X-5207000Y+2667000D03*
X-5207000Y+2413000D03*
X-5207000Y+2159000D03*
X-5207000Y+1905000D03*
X-5207000Y+1651000D03*
X-5207000Y+1397000D03*
X-5207000Y+1143000D03*
X-5207000Y+889000D03*
X-5207000Y+635000D03*
X-5207000Y+381000D03*
X-5207000Y+127000D03*
X-5207000Y-127000D03*
X-5207000Y-381000D03*
X-5207000Y-635000D03*
X-5207000Y-889000D03*
X-5207000Y-1143000D03*
X-5207000Y-1397000D03*
X-5207000Y-1651000D03*
X-5207000Y-1905000D03*
X-5207000Y-2159000D03*
X-5207000Y-2413000D03*
X-5207000Y-2667000D03*
X-5207000Y-2921000D03*
X-5207000Y-3175000D03*
X-5207000Y-3429000D03*
X-5207000Y-3683000D03*
X-5207000Y-3937000D03*
X-5207000Y-4191000D03*
X-5207000Y-4445000D03*
X-5207000Y-4699000D03*
X-5207000Y-4953000D03*
X-5207000Y-5207000D03*
X+5207000Y+4699000D03*
X+5207000Y+4445000D03*
X+5207000Y+4191000D03*
X+5207000Y+3937000D03*
X+5207000Y+3683000D03*
X+5207000Y+3429000D03*
X+5207000Y+3175000D03*
X+5207000Y+2921000D03*
X+5207000Y+2667000D03*
X+5207000Y+2413000D03*
X+5207000Y+2159000D03*
X+5207000Y+1905000D03*
X+5207000Y+1651000D03*
X+5207000Y+1397000D03*
X+5207000Y+1143000D03*
X+5207000Y+889000D03*
X+5207000Y+635000D03*
X+5207000Y+381000D03*
X+5207000Y+127000D03*
X+5207000Y-127000D03*
X+5207000Y-381000D03*
X+5207000Y-635000D03*
X+5207000Y-889000D03*
X+5207000Y-1143000D03*
X+5207000Y-1397000D03*
X+5207000Y-1651000D03*
X+5207000Y-1905000D03*
X+5207000Y-2159000D03*
X+5207000Y-2413000D03*
X+5207000Y-2667000D03*
X+5207000Y-2921000D03*
X+5207000Y-3175000D03*
X+5207000Y-3429000D03*
X+5207000Y-3683000D03*
X+5207000Y-3937000D03*
X+5207000Y-4191000D03*
X+5207000Y-4445000D03*
X+5207000Y-4699000D03*
X+5207000Y-4953000D03*
X+5207000Y-5207000D03*
D73*
X-3810000Y+3937000D03*
X-3810000Y+3683000D03*
X-3810000Y+3429000D03*
X-3810000Y+3175000D03*
X-3810000Y+2921000D03*
X-3810000Y+2667000D03*
X-3810000Y+2413000D03*
X-3810000Y+2159000D03*
X-3810000Y+1905000D03*
X-3810000Y+1651000D03*
X-3810000Y+1397000D03*
X-3810000Y+1143000D03*
X-2286000Y+1143000D03*
X-2286000Y+1397000D03*
X-2286000Y+1651000D03*
X-2286000Y+1905000D03*
X-2286000Y+2159000D03*
X-2286000Y+2413000D03*
X-2286000Y+2667000D03*
X-2286000Y+2921000D03*
X-2286000Y+3175000D03*
X-2286000Y+3429000D03*
X-2286000Y+3683000D03*
X-2286000Y+3937000D03*
X-3810000Y+381000D03*
X-3810000Y+127000D03*
X-3810000Y-127000D03*
X-3810000Y-381000D03*
X-3810000Y-635000D03*
X-3810000Y-889000D03*
X-3810000Y-1143000D03*
X-3810000Y-1397000D03*
X-3810000Y-1651000D03*
X-3810000Y-1905000D03*
X-3810000Y-2159000D03*
X-3810000Y-2413000D03*
X-2286000Y-2413000D03*
X-2286000Y-2159000D03*
X-2286000Y-1905000D03*
X-2286000Y-1651000D03*
X-2286000Y-1397000D03*
X-2286000Y-1143000D03*
X-2286000Y-889000D03*
X-2286000Y-635000D03*
X-2286000Y-381000D03*
X-2286000Y-127000D03*
X-2286000Y+127000D03*
X-2286000Y+381000D03*
X-1270000Y+3937000D03*
X-1270000Y+3683000D03*
X-1270000Y+3429000D03*
X-1270000Y+3175000D03*
X-1270000Y+2921000D03*
X-1270000Y+2667000D03*
X-1270000Y+2413000D03*
X-1270000Y+2159000D03*
X-1270000Y+1905000D03*
X-1270000Y+1651000D03*
X-1270000Y+1397000D03*
X-1270000Y+1143000D03*
X+254000Y+1143000D03*
X+254000Y+1397000D03*
X+254000Y+1651000D03*
X+254000Y+1905000D03*
X+254000Y+2159000D03*
X+254000Y+2413000D03*
X+254000Y+2667000D03*
X+254000Y+2921000D03*
X+254000Y+3175000D03*
X+254000Y+3429000D03*
X+254000Y+3683000D03*
X+254000Y+3937000D03*
X-1270000Y+381000D03*
X-1270000Y+127000D03*
X-1270000Y-127000D03*
X-1270000Y-381000D03*
X-1270000Y-635000D03*
X-1270000Y-889000D03*
X-1270000Y-1143000D03*
X-1270000Y-1397000D03*
X-1270000Y-1651000D03*
X-1270000Y-1905000D03*
X-1270000Y-2159000D03*
X-1270000Y-2413000D03*
X+254000Y-2413000D03*
X+254000Y-2159000D03*
X+254000Y-1905000D03*
X+254000Y-1651000D03*
X+254000Y-1397000D03*
X+254000Y-1143000D03*
X+254000Y-889000D03*
X+254000Y-635000D03*
X+254000Y-381000D03*
X+254000Y-127000D03*
X+254000Y+127000D03*
X+254000Y+381000D03*
X+1270000Y+3937000D03*
X+1270000Y+3683000D03*
X+1270000Y+3429000D03*
X+1270000Y+3175000D03*
X+1270000Y+2921000D03*
X+1270000Y+2667000D03*
X+1270000Y+2413000D03*
X+2032000Y+2413000D03*
X+2032000Y+2667000D03*
X+2032000Y+2921000D03*
X+2032000Y+3175000D03*
X+2032000Y+3429000D03*
X+2032000Y+3683000D03*
X+2032000Y+3937000D03*
X+1270000Y+1905000D03*
X+1270000Y+1651000D03*
X+1270000Y+1397000D03*
X+1270000Y+1143000D03*
X+1270000Y+889000D03*
X+1270000Y+635000D03*
X+1270000Y+381000D03*
X+2032000Y+381000D03*
X+2032000Y+635000D03*
X+2032000Y+889000D03*
X+2032000Y+1143000D03*
X+2032000Y+1397000D03*
X+2032000Y+1651000D03*
X+2032000Y+1905000D03*
X+1270000Y-127000D03*
X+1270000Y-381000D03*
X+1270000Y-635000D03*
X+1270000Y-889000D03*
X+1270000Y-1143000D03*
X+1270000Y-1397000D03*
X+1270000Y-1651000D03*
X+2032000Y-1651000D03*
X+2032000Y-1397000D03*
X+2032000Y-1143000D03*
X+2032000Y-889000D03*
X+2032000Y-635000D03*
X+2032000Y-381000D03*
X+2032000Y-127000D03*
X+1270000Y-2159000D03*
X+1270000Y-2413000D03*
X+1270000Y-2667000D03*
X+1270000Y-2921000D03*
X+1270000Y-3175000D03*
X+1270000Y-3429000D03*
X+1270000Y-3683000D03*
X+2032000Y-3683000D03*
X+2032000Y-3429000D03*
X+2032000Y-3175000D03*
X+2032000Y-2921000D03*
X+2032000Y-2667000D03*
X+2032000Y-2413000D03*
X+2032000Y-2159000D03*
X+3048000Y+3937000D03*
X+3048000Y+3683000D03*
X+3048000Y+3429000D03*
X+3048000Y+3175000D03*
X+3048000Y+2921000D03*
X+3048000Y+2667000D03*
X+3048000Y+2413000D03*
X+3048000Y+2159000D03*
X+3048000Y+1905000D03*
X+3048000Y+1651000D03*
X+3810000Y+1651000D03*
X+3810000Y+1905000D03*
X+3810000Y+2159000D03*
X+3810000Y+2413000D03*
X+3810000Y+2667000D03*
X+3810000Y+2921000D03*
X+3810000Y+3175000D03*
X+3810000Y+3429000D03*
X+3810000Y+3683000D03*
X+3810000Y+3937000D03*
X+3048000Y+1143000D03*
X+3048000Y+889000D03*
X+3048000Y+635000D03*
X+3048000Y+381000D03*
X+3048000Y+127000D03*
X+3048000Y-127000D03*
X+3048000Y-381000D03*
X+3048000Y-635000D03*
X+3048000Y-889000D03*
X+3048000Y-1143000D03*
X+3810000Y-1143000D03*
X+3810000Y-889000D03*
X+3810000Y-635000D03*
X+3810000Y-381000D03*
X+3810000Y-127000D03*
X+3810000Y+127000D03*
X+3810000Y+381000D03*
X+3810000Y+635000D03*
X+3810000Y+889000D03*
X+3810000Y+1143000D03*
M02*
