G04 PROTEUS GERBER X2 FILE*
%TF.GenerationSoftware,Labcenter,Proteus,8.13-SP0-Build31525*%
%TF.CreationDate,2022-07-19T01:12:19+00:00*%
%TF.FileFunction,AssemblyDrawing,Top*%
%TF.FilePolarity,Positive*%
%TF.Part,Single*%
%TF.SameCoordinates,{d59f61b6-e7c8-4c59-9098-5d1a923f3759}*%
%FSLAX45Y45*%
%MOMM*%
G01*
%TA.AperFunction,Profile*%
%ADD15C,0.203200*%
%TA.AperFunction,Material*%
%ADD16C,0.203200*%
%ADD20C,0.812800*%
%ADD21C,0.177800*%
%ADD22C,0.154510*%
%ADD23C,0.123610*%
%ADD24C,0.142630*%
%ADD25C,0.508000*%
%ADD26C,0.151490*%
%ADD27C,0.155530*%
%ADD28C,0.231730*%
%ADD29C,0.449130*%
%ADD72C,0.256870*%
%ADD73C,0.255610*%
%ADD30C,0.523910*%
%TD.AperFunction*%
D15*
X-5461000Y-5715000D02*
X+5461000Y-5715000D01*
X+5461000Y+5207000D01*
X-5461000Y+5207000D01*
X-5461000Y-5715000D01*
D16*
X-3058160Y+4815840D02*
X-1005840Y+4815840D01*
X-1005840Y+5090160D01*
X-3058160Y+5090160D01*
X-3058160Y+4815840D01*
D20*
X-2921000Y+4953000D02*
X-2921000Y+4953000D01*
D21*
X-2263140Y+4935220D02*
X-2263140Y+4917440D01*
X-2243138Y+4899660D01*
X-2163128Y+4899660D01*
X-2143125Y+4917440D01*
X-2143125Y+5006340D01*
X-2083118Y+4953000D02*
X-1983105Y+4953000D01*
X-1943100Y+4899660D02*
X-1943100Y+4970780D01*
X-1903095Y+5006340D01*
X-1863090Y+5006340D01*
X-1823085Y+4970780D01*
X-1823085Y+4899660D01*
X-1943100Y+4935220D02*
X-1823085Y+4935220D01*
X-1663065Y+4917440D02*
X-1683068Y+4899660D01*
X-1743075Y+4899660D01*
X-1783080Y+4935220D01*
X-1783080Y+4970780D01*
X-1743075Y+5006340D01*
X-1683068Y+5006340D01*
X-1663065Y+4988560D01*
D16*
X-1026160Y+4815840D02*
X+1026160Y+4815840D01*
X+1026160Y+5090160D01*
X-1026160Y+5090160D01*
X-1026160Y+4815840D01*
D20*
X-889000Y+4953000D02*
X-889000Y+4953000D01*
D21*
X-471170Y+4935220D02*
X-471170Y+4917440D01*
X-451168Y+4899660D01*
X-371158Y+4899660D01*
X-351155Y+4917440D01*
X-351155Y+5006340D01*
X-291148Y+4953000D02*
X-191135Y+4953000D01*
X-151130Y+4899660D02*
X-151130Y+4970780D01*
X-111125Y+5006340D01*
X-71120Y+5006340D01*
X-31115Y+4970780D01*
X-31115Y+4899660D01*
X-151130Y+4935220D02*
X-31115Y+4935220D01*
X+128905Y+4917440D02*
X+108902Y+4899660D01*
X+48895Y+4899660D01*
X+8890Y+4935220D01*
X+8890Y+4970780D01*
X+48895Y+5006340D01*
X+108902Y+5006340D01*
X+128905Y+4988560D01*
X+188912Y+4953000D02*
X+288925Y+4953000D01*
X+328930Y+4899660D02*
X+328930Y+4970780D01*
X+368935Y+5006340D01*
X+408940Y+5006340D01*
X+448945Y+4970780D01*
X+448945Y+4899660D01*
X+328930Y+4935220D02*
X+448945Y+4935220D01*
X+488950Y+5006340D02*
X+608965Y+5006340D01*
X+548957Y+5006340D02*
X+548957Y+4899660D01*
D16*
X+1005840Y+4815840D02*
X+3058160Y+4815840D01*
X+3058160Y+5090160D01*
X+1005840Y+5090160D01*
X+1005840Y+4815840D01*
D20*
X+1143000Y+4953000D02*
X+1143000Y+4953000D01*
D21*
X+1800860Y+4935220D02*
X+1800860Y+4917440D01*
X+1820862Y+4899660D01*
X+1900872Y+4899660D01*
X+1920875Y+4917440D01*
X+1920875Y+5006340D01*
X+1980882Y+4953000D02*
X+2080895Y+4953000D01*
X+2120900Y+4899660D02*
X+2120900Y+4970780D01*
X+2160905Y+5006340D01*
X+2200910Y+5006340D01*
X+2240915Y+4970780D01*
X+2240915Y+4899660D01*
X+2120900Y+4935220D02*
X+2240915Y+4935220D01*
X+2280920Y+5006340D02*
X+2400935Y+5006340D01*
X+2340927Y+5006340D02*
X+2340927Y+4899660D01*
D16*
X+3037840Y+4815840D02*
X+5090160Y+4815840D01*
X+5090160Y+5090160D01*
X+3037840Y+5090160D01*
X+3037840Y+4815840D01*
D20*
X+3175000Y+4953000D02*
X+3175000Y+4953000D01*
D21*
X+3832860Y+4935220D02*
X+3832860Y+4917440D01*
X+3852862Y+4899660D01*
X+3932872Y+4899660D01*
X+3952875Y+4917440D01*
X+3952875Y+5006340D01*
X+4012882Y+4953000D02*
X+4112895Y+4953000D01*
X+4152900Y+4899660D02*
X+4152900Y+5006340D01*
X+4252912Y+5006340D01*
X+4272915Y+4988560D01*
X+4272915Y+4970780D01*
X+4252912Y+4953000D01*
X+4272915Y+4935220D01*
X+4272915Y+4917440D01*
X+4252912Y+4899660D01*
X+4152900Y+4899660D01*
X+4152900Y+4953000D02*
X+4252912Y+4953000D01*
X+4332922Y+5006340D02*
X+4412932Y+5006340D01*
X+4372927Y+5006340D02*
X+4372927Y+4899660D01*
X+4332922Y+4899660D02*
X+4412932Y+4899660D01*
D16*
X-5090160Y+4815840D02*
X-3037840Y+4815840D01*
X-3037840Y+5090160D01*
X-5090160Y+5090160D01*
X-5090160Y+4815840D01*
D20*
X-4953000Y+4953000D02*
X-4953000Y+4953000D01*
D21*
X-4615180Y+4935220D02*
X-4615180Y+4917440D01*
X-4595178Y+4899660D01*
X-4515168Y+4899660D01*
X-4495165Y+4917440D01*
X-4495165Y+5006340D01*
X-4435158Y+4953000D02*
X-4335145Y+4953000D01*
X-4275138Y+5006340D02*
X-4195128Y+5006340D01*
X-4235133Y+5006340D02*
X-4235133Y+4899660D01*
X-4275138Y+4899660D02*
X-4195128Y+4899660D01*
X-4135120Y+4899660D02*
X-4135120Y+5006340D01*
X-4015105Y+4899660D01*
X-4015105Y+5006340D01*
X-3955098Y+4953000D02*
X-3855085Y+4953000D01*
X-3815080Y+4970780D02*
X-3775075Y+5006340D01*
X-3735070Y+5006340D01*
X-3695065Y+4970780D01*
X-3695065Y+4935220D01*
X-3735070Y+4899660D01*
X-3775075Y+4899660D01*
X-3815080Y+4935220D01*
X-3815080Y+4970780D01*
X-3655060Y+5006340D02*
X-3655060Y+4917440D01*
X-3635058Y+4899660D01*
X-3555048Y+4899660D01*
X-3535045Y+4917440D01*
X-3535045Y+5006340D01*
X-3495040Y+5006340D02*
X-3375025Y+5006340D01*
X-3435033Y+5006340D02*
X-3435033Y+4899660D01*
D16*
X-5090160Y-5598160D02*
X-3037840Y-5598160D01*
X-3037840Y-5323840D01*
X-5090160Y-5323840D01*
X-5090160Y-5598160D01*
D20*
X-4953000Y-5461000D02*
X-4953000Y-5461000D01*
D21*
X-4695190Y-5478780D02*
X-4695190Y-5496560D01*
X-4675188Y-5514340D01*
X-4595178Y-5514340D01*
X-4575175Y-5496560D01*
X-4575175Y-5407660D01*
X-4515168Y-5461000D02*
X-4415155Y-5461000D01*
X-4375150Y-5514340D02*
X-4375150Y-5407660D01*
X-4275138Y-5407660D01*
X-4255135Y-5425440D01*
X-4255135Y-5443220D01*
X-4275138Y-5461000D01*
X-4255135Y-5478780D01*
X-4255135Y-5496560D01*
X-4275138Y-5514340D01*
X-4375150Y-5514340D01*
X-4375150Y-5461000D02*
X-4275138Y-5461000D01*
X-4215130Y-5514340D02*
X-4215130Y-5443220D01*
X-4175125Y-5407660D01*
X-4135120Y-5407660D01*
X-4095115Y-5443220D01*
X-4095115Y-5514340D01*
X-4215130Y-5478780D02*
X-4095115Y-5478780D01*
X-3955098Y-5407660D02*
X-4015105Y-5407660D01*
X-4015105Y-5514340D01*
X-3955098Y-5514340D01*
X-3895090Y-5496560D02*
X-3895090Y-5425440D01*
X-3875088Y-5407660D01*
X-3795078Y-5407660D01*
X-3775075Y-5425440D01*
X-3775075Y-5496560D01*
X-3795078Y-5514340D01*
X-3875088Y-5514340D01*
X-3895090Y-5496560D01*
X-3895090Y-5514340D02*
X-3775075Y-5407660D01*
X-3715068Y-5461000D02*
X-3615055Y-5461000D01*
X-3555048Y-5407660D02*
X-3455035Y-5407660D01*
X-3455035Y-5425440D01*
X-3555048Y-5514340D01*
X-3375025Y-5407660D02*
X-3315018Y-5407660D01*
X-3315018Y-5514340D01*
X-3375025Y-5514340D01*
D16*
X-3058160Y-5598160D02*
X-1005840Y-5598160D01*
X-1005840Y-5323840D01*
X-3058160Y-5323840D01*
X-3058160Y-5598160D01*
D20*
X-2921000Y-5461000D02*
X-2921000Y-5461000D01*
D21*
X-2743200Y-5478780D02*
X-2743200Y-5496560D01*
X-2723198Y-5514340D01*
X-2643188Y-5514340D01*
X-2623185Y-5496560D01*
X-2623185Y-5407660D01*
X-2563178Y-5461000D02*
X-2463165Y-5461000D01*
X-2423160Y-5514340D02*
X-2423160Y-5407660D01*
X-2323148Y-5407660D01*
X-2303145Y-5425440D01*
X-2303145Y-5443220D01*
X-2323148Y-5461000D01*
X-2303145Y-5478780D01*
X-2303145Y-5496560D01*
X-2323148Y-5514340D01*
X-2423160Y-5514340D01*
X-2423160Y-5461000D02*
X-2323148Y-5461000D01*
X-2263140Y-5514340D02*
X-2263140Y-5443220D01*
X-2223135Y-5407660D01*
X-2183130Y-5407660D01*
X-2143125Y-5443220D01*
X-2143125Y-5514340D01*
X-2263140Y-5478780D02*
X-2143125Y-5478780D01*
X-2003108Y-5407660D02*
X-2063115Y-5407660D01*
X-2063115Y-5514340D01*
X-2003108Y-5514340D01*
X-1903095Y-5461000D02*
X-1923098Y-5443220D01*
X-1923098Y-5425440D01*
X-1903095Y-5407660D01*
X-1843088Y-5407660D01*
X-1823085Y-5425440D01*
X-1823085Y-5443220D01*
X-1843088Y-5461000D01*
X-1903095Y-5461000D01*
X-1923098Y-5478780D01*
X-1923098Y-5496560D01*
X-1903095Y-5514340D01*
X-1843088Y-5514340D01*
X-1823085Y-5496560D01*
X-1823085Y-5478780D01*
X-1843088Y-5461000D01*
X-1763078Y-5461000D02*
X-1663065Y-5461000D01*
X-1583055Y-5443220D02*
X-1543050Y-5407660D01*
X-1543050Y-5514340D01*
X-1343025Y-5407660D02*
X-1443038Y-5407660D01*
X-1443038Y-5443220D01*
X-1363028Y-5443220D01*
X-1343025Y-5461000D01*
X-1343025Y-5496560D01*
X-1363028Y-5514340D01*
X-1423035Y-5514340D01*
X-1443038Y-5496560D01*
X-1263015Y-5407660D02*
X-1203008Y-5407660D01*
X-1203008Y-5514340D01*
X-1263015Y-5514340D01*
D16*
X-1026160Y-5598160D02*
X+1026160Y-5598160D01*
X+1026160Y-5323840D01*
X-1026160Y-5323840D01*
X-1026160Y-5598160D01*
D20*
X-889000Y-5461000D02*
X-889000Y-5461000D01*
D21*
X-231140Y-5478780D02*
X-231140Y-5496560D01*
X-211138Y-5514340D01*
X-131128Y-5514340D01*
X-111125Y-5496560D01*
X-111125Y-5407660D01*
X-51118Y-5461000D02*
X+48895Y-5461000D01*
X+88900Y-5514340D02*
X+88900Y-5407660D01*
X+188912Y-5407660D01*
X+208915Y-5425440D01*
X+208915Y-5443220D01*
X+188912Y-5461000D01*
X+208915Y-5478780D01*
X+208915Y-5496560D01*
X+188912Y-5514340D01*
X+88900Y-5514340D01*
X+88900Y-5461000D02*
X+188912Y-5461000D01*
X+248920Y-5514340D02*
X+248920Y-5407660D01*
X+328930Y-5407660D01*
X+368935Y-5443220D01*
X+368935Y-5478780D01*
X+328930Y-5514340D01*
X+248920Y-5514340D01*
D16*
X+1005840Y-5598160D02*
X+3058160Y-5598160D01*
X+3058160Y-5323840D01*
X+1005840Y-5323840D01*
X+1005840Y-5598160D01*
D20*
X+1143000Y-5461000D02*
X+1143000Y-5461000D01*
D21*
X+1400810Y-5478780D02*
X+1400810Y-5496560D01*
X+1420812Y-5514340D01*
X+1500822Y-5514340D01*
X+1520825Y-5496560D01*
X+1520825Y-5407660D01*
X+1580832Y-5461000D02*
X+1680845Y-5461000D01*
X+1720850Y-5514340D02*
X+1720850Y-5407660D01*
X+1820862Y-5407660D01*
X+1840865Y-5425440D01*
X+1840865Y-5443220D01*
X+1820862Y-5461000D01*
X+1840865Y-5478780D01*
X+1840865Y-5496560D01*
X+1820862Y-5514340D01*
X+1720850Y-5514340D01*
X+1720850Y-5461000D02*
X+1820862Y-5461000D01*
X+1880870Y-5407660D02*
X+1880870Y-5496560D01*
X+1900872Y-5514340D01*
X+1980882Y-5514340D01*
X+2000885Y-5496560D01*
X+2000885Y-5407660D01*
X+2140902Y-5407660D02*
X+2080895Y-5407660D01*
X+2080895Y-5514340D01*
X+2140902Y-5514340D01*
X+2200910Y-5496560D02*
X+2200910Y-5425440D01*
X+2220912Y-5407660D01*
X+2300922Y-5407660D01*
X+2320925Y-5425440D01*
X+2320925Y-5496560D01*
X+2300922Y-5514340D01*
X+2220912Y-5514340D01*
X+2200910Y-5496560D01*
X+2200910Y-5514340D02*
X+2320925Y-5407660D01*
X+2380932Y-5461000D02*
X+2480945Y-5461000D01*
X+2540952Y-5407660D02*
X+2640965Y-5407660D01*
X+2640965Y-5425440D01*
X+2540952Y-5514340D01*
X+2720975Y-5407660D02*
X+2780982Y-5407660D01*
X+2780982Y-5514340D01*
X+2720975Y-5514340D01*
D16*
X+3037840Y-5598160D02*
X+5090160Y-5598160D01*
X+5090160Y-5323840D01*
X+3037840Y-5323840D01*
X+3037840Y-5598160D01*
D20*
X+3175000Y-5461000D02*
X+3175000Y-5461000D01*
D21*
X+3352800Y-5478780D02*
X+3352800Y-5496560D01*
X+3372802Y-5514340D01*
X+3452812Y-5514340D01*
X+3472815Y-5496560D01*
X+3472815Y-5407660D01*
X+3532822Y-5461000D02*
X+3632835Y-5461000D01*
X+3672840Y-5514340D02*
X+3672840Y-5407660D01*
X+3772852Y-5407660D01*
X+3792855Y-5425440D01*
X+3792855Y-5443220D01*
X+3772852Y-5461000D01*
X+3792855Y-5478780D01*
X+3792855Y-5496560D01*
X+3772852Y-5514340D01*
X+3672840Y-5514340D01*
X+3672840Y-5461000D02*
X+3772852Y-5461000D01*
X+3832860Y-5407660D02*
X+3832860Y-5496560D01*
X+3852862Y-5514340D01*
X+3932872Y-5514340D01*
X+3952875Y-5496560D01*
X+3952875Y-5407660D01*
X+4092892Y-5407660D02*
X+4032885Y-5407660D01*
X+4032885Y-5514340D01*
X+4092892Y-5514340D01*
X+4192905Y-5461000D02*
X+4172902Y-5443220D01*
X+4172902Y-5425440D01*
X+4192905Y-5407660D01*
X+4252912Y-5407660D01*
X+4272915Y-5425440D01*
X+4272915Y-5443220D01*
X+4252912Y-5461000D01*
X+4192905Y-5461000D01*
X+4172902Y-5478780D01*
X+4172902Y-5496560D01*
X+4192905Y-5514340D01*
X+4252912Y-5514340D01*
X+4272915Y-5496560D01*
X+4272915Y-5478780D01*
X+4252912Y-5461000D01*
X+4332922Y-5461000D02*
X+4432935Y-5461000D01*
X+4512945Y-5443220D02*
X+4552950Y-5407660D01*
X+4552950Y-5514340D01*
X+4752975Y-5407660D02*
X+4652962Y-5407660D01*
X+4652962Y-5443220D01*
X+4732972Y-5443220D01*
X+4752975Y-5461000D01*
X+4752975Y-5496560D01*
X+4732972Y-5514340D01*
X+4672965Y-5514340D01*
X+4652962Y-5496560D01*
X+4832985Y-5407660D02*
X+4892992Y-5407660D01*
X+4892992Y-5514340D01*
X+4832985Y-5514340D01*
D16*
X-5344160Y+2783840D02*
X-5069840Y+2783840D01*
X-5069840Y+4836160D01*
X-5344160Y+4836160D01*
X-5344160Y+2783840D01*
D20*
X-5207000Y+4699000D02*
X-5207000Y+4699000D01*
D21*
X-5189220Y+2921000D02*
X-5171440Y+2921000D01*
X-5153660Y+2941002D01*
X-5153660Y+3021012D01*
X-5171440Y+3041015D01*
X-5260340Y+3041015D01*
X-5207000Y+3101022D02*
X-5207000Y+3201035D01*
X-5171440Y+3241040D02*
X-5153660Y+3261042D01*
X-5153660Y+3341052D01*
X-5171440Y+3361055D01*
X-5189220Y+3361055D01*
X-5207000Y+3341052D01*
X-5207000Y+3261042D01*
X-5224780Y+3241040D01*
X-5242560Y+3241040D01*
X-5260340Y+3261042D01*
X-5260340Y+3341052D01*
X-5242560Y+3361055D01*
X-5171440Y+3521075D02*
X-5153660Y+3501072D01*
X-5153660Y+3441065D01*
X-5189220Y+3401060D01*
X-5224780Y+3401060D01*
X-5260340Y+3441065D01*
X-5260340Y+3501072D01*
X-5242560Y+3521075D01*
X-5207000Y+3581082D02*
X-5207000Y+3681095D01*
X-5171440Y+3721100D02*
X-5153660Y+3741102D01*
X-5153660Y+3821112D01*
X-5171440Y+3841115D01*
X-5189220Y+3841115D01*
X-5207000Y+3821112D01*
X-5207000Y+3741102D01*
X-5224780Y+3721100D01*
X-5242560Y+3721100D01*
X-5260340Y+3741102D01*
X-5260340Y+3821112D01*
X-5242560Y+3841115D01*
X-5153660Y+3881120D02*
X-5260340Y+3881120D01*
X-5260340Y+3961130D01*
X-5224780Y+4001135D01*
X-5189220Y+4001135D01*
X-5153660Y+3961130D01*
X-5153660Y+3881120D01*
X-5207000Y+4061142D02*
X-5207000Y+4161155D01*
X-5171440Y+4201160D02*
X-5153660Y+4221162D01*
X-5153660Y+4301172D01*
X-5171440Y+4321175D01*
X-5189220Y+4321175D01*
X-5207000Y+4301172D01*
X-5207000Y+4221162D01*
X-5224780Y+4201160D01*
X-5242560Y+4201160D01*
X-5260340Y+4221162D01*
X-5260340Y+4301172D01*
X-5242560Y+4321175D01*
X-5171440Y+4361180D02*
X-5153660Y+4381182D01*
X-5153660Y+4461192D01*
X-5171440Y+4481195D01*
X-5189220Y+4481195D01*
X-5207000Y+4461192D01*
X-5207000Y+4381182D01*
X-5224780Y+4361180D01*
X-5242560Y+4361180D01*
X-5260340Y+4381182D01*
X-5260340Y+4461192D01*
X-5242560Y+4481195D01*
D16*
X-5344160Y+751840D02*
X-5069840Y+751840D01*
X-5069840Y+2804160D01*
X-5344160Y+2804160D01*
X-5344160Y+751840D01*
D20*
X-5207000Y+2667000D02*
X-5207000Y+2667000D01*
D21*
X-5189220Y+1129030D02*
X-5171440Y+1129030D01*
X-5153660Y+1149032D01*
X-5153660Y+1229042D01*
X-5171440Y+1249045D01*
X-5260340Y+1249045D01*
X-5207000Y+1309052D02*
X-5207000Y+1409065D01*
X-5153660Y+1449070D02*
X-5260340Y+1449070D01*
X-5260340Y+1549082D01*
X-5242560Y+1569085D01*
X-5224780Y+1569085D01*
X-5207000Y+1549082D01*
X-5207000Y+1449070D01*
X-5207000Y+1549082D02*
X-5189220Y+1569085D01*
X-5153660Y+1569085D01*
X-5153660Y+1609090D02*
X-5260340Y+1609090D01*
X-5260340Y+1709102D01*
X-5242560Y+1729105D01*
X-5224780Y+1729105D01*
X-5207000Y+1709102D01*
X-5207000Y+1609090D01*
X-5207000Y+1789112D02*
X-5207000Y+1889125D01*
X-5153660Y+1929130D02*
X-5260340Y+1929130D01*
X-5260340Y+2029142D01*
X-5242560Y+2049145D01*
X-5224780Y+2049145D01*
X-5207000Y+2029142D01*
X-5207000Y+1929130D01*
X-5207000Y+2029142D02*
X-5189220Y+2049145D01*
X-5153660Y+2049145D01*
X-5171440Y+2089150D02*
X-5153660Y+2109152D01*
X-5153660Y+2189162D01*
X-5171440Y+2209165D01*
X-5189220Y+2209165D01*
X-5207000Y+2189162D01*
X-5207000Y+2109152D01*
X-5224780Y+2089150D01*
X-5242560Y+2089150D01*
X-5260340Y+2109152D01*
X-5260340Y+2189162D01*
X-5242560Y+2209165D01*
D16*
X-5344160Y-1280160D02*
X-5069840Y-1280160D01*
X-5069840Y+772160D01*
X-5344160Y+772160D01*
X-5344160Y-1280160D01*
D20*
X-5207000Y+635000D02*
X-5207000Y+635000D01*
D21*
X-5189220Y-1143000D02*
X-5171440Y-1143000D01*
X-5153660Y-1122998D01*
X-5153660Y-1042988D01*
X-5171440Y-1022985D01*
X-5260340Y-1022985D01*
X-5207000Y-962978D02*
X-5207000Y-862965D01*
X-5153660Y-822960D02*
X-5260340Y-822960D01*
X-5260340Y-722948D01*
X-5242560Y-702945D01*
X-5224780Y-702945D01*
X-5207000Y-722948D01*
X-5207000Y-822960D01*
X-5207000Y-722948D02*
X-5189220Y-702945D01*
X-5153660Y-702945D01*
X-5153660Y-662940D02*
X-5224780Y-662940D01*
X-5260340Y-622935D01*
X-5260340Y-582930D01*
X-5224780Y-542925D01*
X-5153660Y-542925D01*
X-5189220Y-662940D02*
X-5189220Y-542925D01*
X-5207000Y-482918D02*
X-5207000Y-382905D01*
X-5153660Y-342900D02*
X-5260340Y-342900D01*
X-5260340Y-242888D01*
X-5242560Y-222885D01*
X-5224780Y-222885D01*
X-5207000Y-242888D01*
X-5207000Y-342900D01*
X-5207000Y-242888D02*
X-5189220Y-222885D01*
X-5153660Y-222885D01*
X-5153660Y-182880D02*
X-5260340Y-182880D01*
X-5260340Y-82868D01*
X-5242560Y-62865D01*
X-5224780Y-62865D01*
X-5207000Y-82868D01*
X-5189220Y-62865D01*
X-5171440Y-62865D01*
X-5153660Y-82868D01*
X-5153660Y-182880D01*
X-5207000Y-182880D02*
X-5207000Y-82868D01*
X-5207000Y-2858D02*
X-5207000Y+97155D01*
X-5153660Y+137160D02*
X-5260340Y+137160D01*
X-5260340Y+237172D01*
X-5242560Y+257175D01*
X-5224780Y+257175D01*
X-5207000Y+237172D01*
X-5207000Y+137160D01*
X-5207000Y+237172D02*
X-5189220Y+257175D01*
X-5153660Y+257175D01*
X-5171440Y+417195D02*
X-5153660Y+397192D01*
X-5153660Y+337185D01*
X-5189220Y+297180D01*
X-5224780Y+297180D01*
X-5260340Y+337185D01*
X-5260340Y+397192D01*
X-5242560Y+417195D01*
D16*
X-5344160Y-3312160D02*
X-5069840Y-3312160D01*
X-5069840Y-1259840D01*
X-5344160Y-1259840D01*
X-5344160Y-3312160D01*
D20*
X-5207000Y-1397000D02*
X-5207000Y-1397000D01*
D22*
X-5191548Y-3209284D02*
X-5176096Y-3209284D01*
X-5160645Y-3191901D01*
X-5160645Y-3122369D01*
X-5176096Y-3104986D01*
X-5253354Y-3104986D01*
X-5207000Y-3052837D02*
X-5207000Y-2965922D01*
X-5160645Y-2931156D02*
X-5253354Y-2931156D01*
X-5253354Y-2844241D01*
X-5237903Y-2826858D01*
X-5222451Y-2826858D01*
X-5207000Y-2844241D01*
X-5207000Y-2931156D01*
X-5207000Y-2844241D02*
X-5191548Y-2826858D01*
X-5160645Y-2826858D01*
X-5160645Y-2792092D02*
X-5253354Y-2792092D01*
X-5253354Y-2722560D01*
X-5222451Y-2687794D01*
X-5191548Y-2687794D01*
X-5160645Y-2722560D01*
X-5160645Y-2792092D01*
X-5207000Y-2635645D02*
X-5207000Y-2548730D01*
X-5160645Y-2513964D02*
X-5253354Y-2513964D01*
X-5207000Y-2461815D01*
X-5253354Y-2409666D01*
X-5160645Y-2409666D01*
X-5160645Y-2270602D02*
X-5160645Y-2374900D01*
X-5253354Y-2374900D01*
X-5253354Y-2270602D01*
X-5207000Y-2374900D02*
X-5207000Y-2305368D01*
X-5160645Y-2235836D02*
X-5253354Y-2235836D01*
X-5207000Y-2183687D01*
X-5253354Y-2131538D01*
X-5160645Y-2131538D01*
X-5207000Y-2079389D02*
X-5207000Y-1992474D01*
X-5176096Y-1853410D02*
X-5160645Y-1870793D01*
X-5160645Y-1922942D01*
X-5191548Y-1957708D01*
X-5222451Y-1957708D01*
X-5253354Y-1922942D01*
X-5253354Y-1870793D01*
X-5237903Y-1853410D01*
X-5160645Y-1818644D02*
X-5253354Y-1818644D01*
X-5253354Y-1714346D02*
X-5160645Y-1714346D01*
X-5207000Y-1818644D02*
X-5207000Y-1714346D01*
X-5253354Y-1679580D02*
X-5160645Y-1679580D01*
X-5253354Y-1575282D02*
X-5207000Y-1627431D01*
X-5160645Y-1575282D01*
X-5207000Y-1679580D02*
X-5207000Y-1627431D01*
D16*
X-5344160Y-5344160D02*
X-5069840Y-5344160D01*
X-5069840Y-3291840D01*
X-5344160Y-3291840D01*
X-5344160Y-5344160D01*
D20*
X-5207000Y-3429000D02*
X-5207000Y-3429000D01*
D21*
X-5189220Y-5126990D02*
X-5171440Y-5126990D01*
X-5153660Y-5106988D01*
X-5153660Y-5026978D01*
X-5171440Y-5006975D01*
X-5260340Y-5006975D01*
X-5207000Y-4946968D02*
X-5207000Y-4846955D01*
X-5171440Y-4686935D02*
X-5153660Y-4706938D01*
X-5153660Y-4766945D01*
X-5189220Y-4806950D01*
X-5224780Y-4806950D01*
X-5260340Y-4766945D01*
X-5260340Y-4706938D01*
X-5242560Y-4686935D01*
X-5153660Y-4646930D02*
X-5260340Y-4646930D01*
X-5260340Y-4526915D02*
X-5153660Y-4526915D01*
X-5207000Y-4646930D02*
X-5207000Y-4526915D01*
X-5260340Y-4486910D02*
X-5153660Y-4486910D01*
X-5260340Y-4366895D02*
X-5207000Y-4426903D01*
X-5153660Y-4366895D01*
X-5207000Y-4486910D02*
X-5207000Y-4426903D01*
X-5207000Y-4306888D02*
X-5207000Y-4206875D01*
X-5153660Y-4166870D02*
X-5224780Y-4166870D01*
X-5260340Y-4126865D01*
X-5260340Y-4086860D01*
X-5224780Y-4046855D01*
X-5153660Y-4046855D01*
X-5189220Y-4166870D02*
X-5189220Y-4046855D01*
X-5260340Y-4006850D02*
X-5153660Y-4006850D01*
X-5153660Y-3886835D01*
X-5260340Y-3846830D02*
X-5171440Y-3846830D01*
X-5153660Y-3826828D01*
X-5153660Y-3746818D01*
X-5171440Y-3726815D01*
X-5260340Y-3726815D01*
D16*
X+5069840Y+2783840D02*
X+5344160Y+2783840D01*
X+5344160Y+4836160D01*
X+5069840Y+4836160D01*
X+5069840Y+2783840D01*
D20*
X+5207000Y+4699000D02*
X+5207000Y+4699000D01*
D21*
X+5224780Y+3081020D02*
X+5242560Y+3081020D01*
X+5260340Y+3101022D01*
X+5260340Y+3181032D01*
X+5242560Y+3201035D01*
X+5153660Y+3201035D01*
X+5207000Y+3261042D02*
X+5207000Y+3361055D01*
X+5260340Y+3401060D02*
X+5189220Y+3401060D01*
X+5153660Y+3441065D01*
X+5153660Y+3481070D01*
X+5189220Y+3521075D01*
X+5260340Y+3521075D01*
X+5224780Y+3401060D02*
X+5224780Y+3521075D01*
X+5153660Y+3561080D02*
X+5260340Y+3561080D01*
X+5260340Y+3681095D01*
X+5153660Y+3721100D02*
X+5242560Y+3721100D01*
X+5260340Y+3741102D01*
X+5260340Y+3821112D01*
X+5242560Y+3841115D01*
X+5153660Y+3841115D01*
X+5207000Y+3901122D02*
X+5207000Y+4001135D01*
X+5260340Y+4041140D02*
X+5153660Y+4041140D01*
X+5153660Y+4141152D01*
X+5171440Y+4161155D01*
X+5189220Y+4161155D01*
X+5207000Y+4141152D01*
X+5207000Y+4041140D01*
X+5207000Y+4141152D02*
X+5224780Y+4161155D01*
X+5260340Y+4161155D01*
X+5153660Y+4201160D02*
X+5153660Y+4321175D01*
X+5153660Y+4261167D02*
X+5260340Y+4261167D01*
D16*
X+5069840Y+751840D02*
X+5344160Y+751840D01*
X+5344160Y+2804160D01*
X+5069840Y+2804160D01*
X+5069840Y+751840D01*
D20*
X+5207000Y+2667000D02*
X+5207000Y+2667000D01*
D23*
X+5219361Y+854718D02*
X+5231723Y+854718D01*
X+5244084Y+868624D01*
X+5244084Y+924249D01*
X+5231723Y+938156D01*
X+5169916Y+938156D01*
X+5207000Y+979875D02*
X+5207000Y+1049407D01*
X+5244084Y+1077220D02*
X+5169916Y+1077220D01*
X+5169916Y+1146751D01*
X+5182277Y+1160658D01*
X+5194639Y+1160658D01*
X+5207000Y+1146751D01*
X+5207000Y+1077220D01*
X+5207000Y+1146751D02*
X+5219361Y+1160658D01*
X+5244084Y+1160658D01*
X+5169916Y+1202377D02*
X+5169916Y+1258002D01*
X+5169916Y+1230190D02*
X+5244084Y+1230190D01*
X+5244084Y+1202377D02*
X+5244084Y+1258002D01*
X+5207000Y+1313628D02*
X+5207000Y+1383160D01*
X+5244084Y+1410973D02*
X+5169916Y+1410973D01*
X+5169916Y+1480504D01*
X+5182277Y+1494411D01*
X+5194639Y+1494411D01*
X+5207000Y+1480504D01*
X+5207000Y+1410973D01*
X+5207000Y+1480504D02*
X+5219361Y+1494411D01*
X+5244084Y+1494411D01*
X+5244084Y+1522224D02*
X+5169916Y+1522224D01*
X+5169916Y+1605662D01*
X+5207000Y+1522224D02*
X+5207000Y+1577849D01*
X+5207000Y+1647381D02*
X+5207000Y+1716913D01*
X+5244084Y+1744726D02*
X+5169916Y+1744726D01*
X+5169916Y+1814257D01*
X+5182277Y+1828164D01*
X+5194639Y+1828164D01*
X+5207000Y+1814257D01*
X+5207000Y+1744726D01*
X+5207000Y+1814257D02*
X+5219361Y+1828164D01*
X+5244084Y+1828164D01*
X+5244084Y+1855977D02*
X+5194639Y+1855977D01*
X+5169916Y+1883789D01*
X+5169916Y+1911602D01*
X+5194639Y+1939415D01*
X+5244084Y+1939415D01*
X+5219361Y+1855977D02*
X+5219361Y+1939415D01*
X+5169916Y+1967228D02*
X+5244084Y+1967228D01*
X+5244084Y+2050666D01*
X+5207000Y+2092385D02*
X+5207000Y+2161917D01*
X+5244084Y+2189730D02*
X+5169916Y+2189730D01*
X+5169916Y+2259261D01*
X+5182277Y+2273168D01*
X+5194639Y+2273168D01*
X+5207000Y+2259261D01*
X+5207000Y+2189730D01*
X+5207000Y+2259261D02*
X+5219361Y+2273168D01*
X+5244084Y+2273168D01*
X+5244084Y+2300981D02*
X+5194639Y+2300981D01*
X+5169916Y+2328793D01*
X+5169916Y+2356606D01*
X+5194639Y+2384419D01*
X+5244084Y+2384419D01*
X+5219361Y+2300981D02*
X+5219361Y+2384419D01*
X+5244084Y+2412232D02*
X+5169916Y+2412232D01*
X+5169916Y+2495670D02*
X+5244084Y+2495670D01*
X+5207000Y+2412232D02*
X+5207000Y+2495670D01*
D16*
X+5069840Y-1280160D02*
X+5344160Y-1280160D01*
X+5344160Y+772160D01*
X+5069840Y+772160D01*
X+5069840Y-1280160D01*
D20*
X+5207000Y+635000D02*
X+5207000Y+635000D01*
D24*
X+5221263Y-1177285D02*
X+5235526Y-1177285D01*
X+5249789Y-1161240D01*
X+5249789Y-1097056D01*
X+5235526Y-1081010D01*
X+5164211Y-1081010D01*
X+5207000Y-1032873D02*
X+5207000Y-952643D01*
X+5235526Y-920551D02*
X+5249789Y-904506D01*
X+5249789Y-840322D01*
X+5235526Y-824276D01*
X+5221263Y-824276D01*
X+5207000Y-840322D01*
X+5207000Y-904506D01*
X+5192737Y-920551D01*
X+5178474Y-920551D01*
X+5164211Y-904506D01*
X+5164211Y-840322D01*
X+5178474Y-824276D01*
X+5164211Y-776139D02*
X+5164211Y-711955D01*
X+5164211Y-744047D02*
X+5249789Y-744047D01*
X+5249789Y-776139D02*
X+5249789Y-711955D01*
X+5221263Y-599634D02*
X+5221263Y-567542D01*
X+5249789Y-567542D01*
X+5249789Y-631726D01*
X+5221263Y-663817D01*
X+5192737Y-663817D01*
X+5164211Y-631726D01*
X+5164211Y-583588D01*
X+5178474Y-567542D01*
X+5207000Y-519405D02*
X+5207000Y-439175D01*
X+5249789Y-407083D02*
X+5164211Y-407083D01*
X+5164211Y-342900D01*
X+5192737Y-310808D01*
X+5221263Y-310808D01*
X+5249789Y-342900D01*
X+5249789Y-407083D01*
X+5249789Y-182441D02*
X+5249789Y-278716D01*
X+5164211Y-278716D01*
X+5164211Y-182441D01*
X+5207000Y-278716D02*
X+5207000Y-214533D01*
X+5164211Y-150349D02*
X+5207000Y-150349D01*
X+5249789Y-102212D01*
X+5207000Y-54074D01*
X+5164211Y-54074D01*
X+5207000Y-5937D02*
X+5207000Y+74293D01*
X+5249789Y+106385D02*
X+5164211Y+106385D01*
X+5164211Y+186614D01*
X+5178474Y+202660D01*
X+5192737Y+202660D01*
X+5207000Y+186614D01*
X+5207000Y+106385D01*
X+5207000Y+186614D02*
X+5221263Y+202660D01*
X+5249789Y+202660D01*
X+5192737Y+234752D02*
X+5164211Y+266843D01*
X+5164211Y+298935D01*
X+5192737Y+331027D01*
X+5221263Y+331027D01*
X+5249789Y+298935D01*
X+5249789Y+266843D01*
X+5221263Y+234752D01*
X+5192737Y+234752D01*
X+5249789Y+363119D02*
X+5164211Y+363119D01*
X+5207000Y+411256D01*
X+5164211Y+459394D01*
X+5249789Y+459394D01*
D16*
X+5069840Y-3312160D02*
X+5344160Y-3312160D01*
X+5344160Y-1259840D01*
X+5069840Y-1259840D01*
X+5069840Y-3312160D01*
D20*
X+5207000Y-1397000D02*
X+5207000Y-1397000D01*
D21*
X+5224780Y-3094990D02*
X+5242560Y-3094990D01*
X+5260340Y-3074988D01*
X+5260340Y-2994978D01*
X+5242560Y-2974975D01*
X+5153660Y-2974975D01*
X+5207000Y-2914968D02*
X+5207000Y-2814955D01*
X+5260340Y-2774950D02*
X+5153660Y-2774950D01*
X+5153660Y-2674938D01*
X+5171440Y-2654935D01*
X+5189220Y-2654935D01*
X+5207000Y-2674938D01*
X+5207000Y-2774950D01*
X+5207000Y-2674938D02*
X+5224780Y-2654935D01*
X+5260340Y-2654935D01*
X+5260340Y-2614930D02*
X+5189220Y-2614930D01*
X+5153660Y-2574925D01*
X+5153660Y-2534920D01*
X+5189220Y-2494915D01*
X+5260340Y-2494915D01*
X+5224780Y-2614930D02*
X+5224780Y-2494915D01*
X+5260340Y-2454910D02*
X+5153660Y-2454910D01*
X+5207000Y-2394903D01*
X+5153660Y-2334895D01*
X+5260340Y-2334895D01*
X+5207000Y-2274888D02*
X+5207000Y-2174875D01*
X+5242560Y-2134870D02*
X+5260340Y-2114868D01*
X+5260340Y-2034858D01*
X+5242560Y-2014855D01*
X+5224780Y-2014855D01*
X+5207000Y-2034858D01*
X+5207000Y-2114868D01*
X+5189220Y-2134870D01*
X+5171440Y-2134870D01*
X+5153660Y-2114868D01*
X+5153660Y-2034858D01*
X+5171440Y-2014855D01*
X+5260340Y-1854835D02*
X+5260340Y-1974850D01*
X+5153660Y-1974850D01*
X+5153660Y-1854835D01*
X+5207000Y-1974850D02*
X+5207000Y-1894840D01*
X+5153660Y-1814830D02*
X+5260340Y-1814830D01*
X+5260340Y-1694815D01*
D16*
X+5069840Y-5344160D02*
X+5344160Y-5344160D01*
X+5344160Y-3291840D01*
X+5069840Y-3291840D01*
X+5069840Y-5344160D01*
D20*
X+5207000Y-3429000D02*
X+5207000Y-3429000D01*
D21*
X+5224780Y-4806950D02*
X+5242560Y-4806950D01*
X+5260340Y-4786948D01*
X+5260340Y-4706938D01*
X+5242560Y-4686935D01*
X+5153660Y-4686935D01*
X+5207000Y-4626928D02*
X+5207000Y-4526915D01*
X+5153660Y-4486910D02*
X+5207000Y-4486910D01*
X+5260340Y-4426903D01*
X+5207000Y-4366895D01*
X+5153660Y-4366895D01*
X+5242560Y-4206875D02*
X+5260340Y-4226878D01*
X+5260340Y-4286885D01*
X+5224780Y-4326890D01*
X+5189220Y-4326890D01*
X+5153660Y-4286885D01*
X+5153660Y-4226878D01*
X+5171440Y-4206875D01*
X+5242560Y-4046855D02*
X+5260340Y-4066858D01*
X+5260340Y-4126865D01*
X+5224780Y-4166870D01*
X+5189220Y-4166870D01*
X+5153660Y-4126865D01*
X+5153660Y-4066858D01*
X+5171440Y-4046855D01*
D16*
X-1788160Y-1915160D02*
X-1513840Y-1915160D01*
X-1513840Y+137160D01*
X-1788160Y+137160D01*
X-1788160Y-1915160D01*
D20*
X-1651000Y-1778000D02*
X-1651000Y-1778000D01*
D24*
X-1636737Y-1634485D02*
X-1622474Y-1634485D01*
X-1608211Y-1618440D01*
X-1608211Y-1554256D01*
X-1622474Y-1538210D01*
X-1693789Y-1538210D01*
X-1651000Y-1490073D02*
X-1651000Y-1409843D01*
X-1608211Y-1377751D02*
X-1693789Y-1377751D01*
X-1651000Y-1329614D01*
X-1693789Y-1281476D01*
X-1608211Y-1281476D01*
X-1622474Y-1153109D02*
X-1608211Y-1169155D01*
X-1608211Y-1217293D01*
X-1636737Y-1249384D01*
X-1665263Y-1249384D01*
X-1693789Y-1217293D01*
X-1693789Y-1169155D01*
X-1679526Y-1153109D01*
X-1693789Y-1121017D02*
X-1622474Y-1121017D01*
X-1608211Y-1104972D01*
X-1608211Y-1040788D01*
X-1622474Y-1024742D01*
X-1693789Y-1024742D01*
X-1651000Y-976605D02*
X-1651000Y-896375D01*
X-1651000Y-832192D02*
X-1665263Y-848238D01*
X-1679526Y-848238D01*
X-1693789Y-832192D01*
X-1693789Y-784054D01*
X-1679526Y-768008D01*
X-1665263Y-768008D01*
X-1651000Y-784054D01*
X-1651000Y-832192D01*
X-1636737Y-848238D01*
X-1622474Y-848238D01*
X-1608211Y-832192D01*
X-1608211Y-784054D01*
X-1622474Y-768008D01*
X-1636737Y-768008D01*
X-1651000Y-784054D01*
X-1679526Y-719871D02*
X-1693789Y-703825D01*
X-1693789Y-655687D01*
X-1679526Y-639641D01*
X-1665263Y-639641D01*
X-1651000Y-655687D01*
X-1651000Y-703825D01*
X-1636737Y-719871D01*
X-1608211Y-719871D01*
X-1608211Y-639641D01*
X-1679526Y-511274D02*
X-1693789Y-527320D01*
X-1693789Y-575458D01*
X-1679526Y-591504D01*
X-1622474Y-591504D01*
X-1608211Y-575458D01*
X-1608211Y-527320D01*
X-1622474Y-511274D01*
X-1636737Y-511274D01*
X-1651000Y-527320D01*
X-1651000Y-591504D01*
X-1679526Y-382907D02*
X-1693789Y-398953D01*
X-1693789Y-447091D01*
X-1679526Y-463137D01*
X-1622474Y-463137D01*
X-1608211Y-447091D01*
X-1608211Y-398953D01*
X-1622474Y-382907D01*
X-1636737Y-382907D01*
X-1651000Y-398953D01*
X-1651000Y-463137D01*
X-1651000Y-334770D02*
X-1651000Y-254540D01*
X-1693789Y-222448D02*
X-1608211Y-222448D01*
X-1608211Y-126173D01*
X-1622474Y-94081D02*
X-1679526Y-94081D01*
X-1693789Y-78036D01*
X-1693789Y-13852D01*
X-1679526Y+2194D01*
X-1622474Y+2194D01*
X-1608211Y-13852D01*
X-1608211Y-78036D01*
X-1622474Y-94081D01*
X-1608211Y-94081D02*
X-1693789Y+2194D01*
D16*
X-4836160Y-1915160D02*
X-4561840Y-1915160D01*
X-4561840Y+137160D01*
X-4836160Y+137160D01*
X-4836160Y-1915160D01*
D20*
X-4699000Y-1778000D02*
X-4699000Y-1778000D01*
D24*
X-4684737Y-1634485D02*
X-4670474Y-1634485D01*
X-4656211Y-1618440D01*
X-4656211Y-1554256D01*
X-4670474Y-1538210D01*
X-4741789Y-1538210D01*
X-4699000Y-1490073D02*
X-4699000Y-1409843D01*
X-4656211Y-1377751D02*
X-4741789Y-1377751D01*
X-4699000Y-1329614D01*
X-4741789Y-1281476D01*
X-4656211Y-1281476D01*
X-4670474Y-1153109D02*
X-4656211Y-1169155D01*
X-4656211Y-1217293D01*
X-4684737Y-1249384D01*
X-4713263Y-1249384D01*
X-4741789Y-1217293D01*
X-4741789Y-1169155D01*
X-4727526Y-1153109D01*
X-4741789Y-1121017D02*
X-4670474Y-1121017D01*
X-4656211Y-1104972D01*
X-4656211Y-1040788D01*
X-4670474Y-1024742D01*
X-4741789Y-1024742D01*
X-4699000Y-976605D02*
X-4699000Y-896375D01*
X-4699000Y-832192D02*
X-4713263Y-848238D01*
X-4727526Y-848238D01*
X-4741789Y-832192D01*
X-4741789Y-784054D01*
X-4727526Y-768008D01*
X-4713263Y-768008D01*
X-4699000Y-784054D01*
X-4699000Y-832192D01*
X-4684737Y-848238D01*
X-4670474Y-848238D01*
X-4656211Y-832192D01*
X-4656211Y-784054D01*
X-4670474Y-768008D01*
X-4684737Y-768008D01*
X-4699000Y-784054D01*
X-4727526Y-719871D02*
X-4741789Y-703825D01*
X-4741789Y-655687D01*
X-4727526Y-639641D01*
X-4713263Y-639641D01*
X-4699000Y-655687D01*
X-4699000Y-703825D01*
X-4684737Y-719871D01*
X-4656211Y-719871D01*
X-4656211Y-639641D01*
X-4727526Y-511274D02*
X-4741789Y-527320D01*
X-4741789Y-575458D01*
X-4727526Y-591504D01*
X-4670474Y-591504D01*
X-4656211Y-575458D01*
X-4656211Y-527320D01*
X-4670474Y-511274D01*
X-4684737Y-511274D01*
X-4699000Y-527320D01*
X-4699000Y-591504D01*
X-4727526Y-382907D02*
X-4741789Y-398953D01*
X-4741789Y-447091D01*
X-4727526Y-463137D01*
X-4670474Y-463137D01*
X-4656211Y-447091D01*
X-4656211Y-398953D01*
X-4670474Y-382907D01*
X-4684737Y-382907D01*
X-4699000Y-398953D01*
X-4699000Y-463137D01*
X-4699000Y-334770D02*
X-4699000Y-254540D01*
X-4656211Y-222448D02*
X-4741789Y-222448D01*
X-4741789Y-142219D01*
X-4727526Y-126173D01*
X-4713263Y-126173D01*
X-4699000Y-142219D01*
X-4699000Y-222448D01*
X-4699000Y-142219D02*
X-4684737Y-126173D01*
X-4656211Y-126173D01*
X-4670474Y-94081D02*
X-4727526Y-94081D01*
X-4741789Y-78036D01*
X-4741789Y-13852D01*
X-4727526Y+2194D01*
X-4670474Y+2194D01*
X-4656211Y-13852D01*
X-4656211Y-78036D01*
X-4670474Y-94081D01*
X-4656211Y-94081D02*
X-4741789Y+2194D01*
D16*
X-4836160Y+116840D02*
X-4561840Y+116840D01*
X-4561840Y+2169160D01*
X-4836160Y+2169160D01*
X-4836160Y+116840D01*
D20*
X-4699000Y+254000D02*
X-4699000Y+254000D01*
D24*
X-4684737Y+397515D02*
X-4670474Y+397515D01*
X-4656211Y+413560D01*
X-4656211Y+477744D01*
X-4670474Y+493790D01*
X-4741789Y+493790D01*
X-4699000Y+541927D02*
X-4699000Y+622157D01*
X-4656211Y+654249D02*
X-4741789Y+654249D01*
X-4699000Y+702386D01*
X-4741789Y+750524D01*
X-4656211Y+750524D01*
X-4670474Y+878891D02*
X-4656211Y+862845D01*
X-4656211Y+814707D01*
X-4684737Y+782616D01*
X-4713263Y+782616D01*
X-4741789Y+814707D01*
X-4741789Y+862845D01*
X-4727526Y+878891D01*
X-4741789Y+910983D02*
X-4670474Y+910983D01*
X-4656211Y+927028D01*
X-4656211Y+991212D01*
X-4670474Y+1007258D01*
X-4741789Y+1007258D01*
X-4699000Y+1055395D02*
X-4699000Y+1135625D01*
X-4699000Y+1199808D02*
X-4713263Y+1183762D01*
X-4727526Y+1183762D01*
X-4741789Y+1199808D01*
X-4741789Y+1247946D01*
X-4727526Y+1263992D01*
X-4713263Y+1263992D01*
X-4699000Y+1247946D01*
X-4699000Y+1199808D01*
X-4684737Y+1183762D01*
X-4670474Y+1183762D01*
X-4656211Y+1199808D01*
X-4656211Y+1247946D01*
X-4670474Y+1263992D01*
X-4684737Y+1263992D01*
X-4699000Y+1247946D01*
X-4727526Y+1312129D02*
X-4741789Y+1328175D01*
X-4741789Y+1376313D01*
X-4727526Y+1392359D01*
X-4713263Y+1392359D01*
X-4699000Y+1376313D01*
X-4699000Y+1328175D01*
X-4684737Y+1312129D01*
X-4656211Y+1312129D01*
X-4656211Y+1392359D01*
X-4727526Y+1520726D02*
X-4741789Y+1504680D01*
X-4741789Y+1456542D01*
X-4727526Y+1440496D01*
X-4670474Y+1440496D01*
X-4656211Y+1456542D01*
X-4656211Y+1504680D01*
X-4670474Y+1520726D01*
X-4684737Y+1520726D01*
X-4699000Y+1504680D01*
X-4699000Y+1440496D01*
X-4727526Y+1649093D02*
X-4741789Y+1633047D01*
X-4741789Y+1584909D01*
X-4727526Y+1568863D01*
X-4670474Y+1568863D01*
X-4656211Y+1584909D01*
X-4656211Y+1633047D01*
X-4670474Y+1649093D01*
X-4684737Y+1649093D01*
X-4699000Y+1633047D01*
X-4699000Y+1568863D01*
X-4699000Y+1697230D02*
X-4699000Y+1777460D01*
X-4656211Y+1809552D02*
X-4741789Y+1809552D01*
X-4741789Y+1889781D01*
X-4727526Y+1905827D01*
X-4713263Y+1905827D01*
X-4699000Y+1889781D01*
X-4699000Y+1809552D01*
X-4699000Y+1889781D02*
X-4684737Y+1905827D01*
X-4656211Y+1905827D01*
X-4713263Y+1970010D02*
X-4741789Y+2002102D01*
X-4656211Y+2002102D01*
D16*
X-1788160Y+116840D02*
X-1513840Y+116840D01*
X-1513840Y+2169160D01*
X-1788160Y+2169160D01*
X-1788160Y+116840D01*
D20*
X-1651000Y+254000D02*
X-1651000Y+254000D01*
D24*
X-1636737Y+397515D02*
X-1622474Y+397515D01*
X-1608211Y+413560D01*
X-1608211Y+477744D01*
X-1622474Y+493790D01*
X-1693789Y+493790D01*
X-1651000Y+541927D02*
X-1651000Y+622157D01*
X-1608211Y+654249D02*
X-1693789Y+654249D01*
X-1651000Y+702386D01*
X-1693789Y+750524D01*
X-1608211Y+750524D01*
X-1622474Y+878891D02*
X-1608211Y+862845D01*
X-1608211Y+814707D01*
X-1636737Y+782616D01*
X-1665263Y+782616D01*
X-1693789Y+814707D01*
X-1693789Y+862845D01*
X-1679526Y+878891D01*
X-1693789Y+910983D02*
X-1622474Y+910983D01*
X-1608211Y+927028D01*
X-1608211Y+991212D01*
X-1622474Y+1007258D01*
X-1693789Y+1007258D01*
X-1651000Y+1055395D02*
X-1651000Y+1135625D01*
X-1651000Y+1199808D02*
X-1665263Y+1183762D01*
X-1679526Y+1183762D01*
X-1693789Y+1199808D01*
X-1693789Y+1247946D01*
X-1679526Y+1263992D01*
X-1665263Y+1263992D01*
X-1651000Y+1247946D01*
X-1651000Y+1199808D01*
X-1636737Y+1183762D01*
X-1622474Y+1183762D01*
X-1608211Y+1199808D01*
X-1608211Y+1247946D01*
X-1622474Y+1263992D01*
X-1636737Y+1263992D01*
X-1651000Y+1247946D01*
X-1679526Y+1312129D02*
X-1693789Y+1328175D01*
X-1693789Y+1376313D01*
X-1679526Y+1392359D01*
X-1665263Y+1392359D01*
X-1651000Y+1376313D01*
X-1651000Y+1328175D01*
X-1636737Y+1312129D01*
X-1608211Y+1312129D01*
X-1608211Y+1392359D01*
X-1679526Y+1520726D02*
X-1693789Y+1504680D01*
X-1693789Y+1456542D01*
X-1679526Y+1440496D01*
X-1622474Y+1440496D01*
X-1608211Y+1456542D01*
X-1608211Y+1504680D01*
X-1622474Y+1520726D01*
X-1636737Y+1520726D01*
X-1651000Y+1504680D01*
X-1651000Y+1440496D01*
X-1679526Y+1649093D02*
X-1693789Y+1633047D01*
X-1693789Y+1584909D01*
X-1679526Y+1568863D01*
X-1622474Y+1568863D01*
X-1608211Y+1584909D01*
X-1608211Y+1633047D01*
X-1622474Y+1649093D01*
X-1636737Y+1649093D01*
X-1651000Y+1633047D01*
X-1651000Y+1568863D01*
X-1651000Y+1697230D02*
X-1651000Y+1777460D01*
X-1693789Y+1809552D02*
X-1608211Y+1809552D01*
X-1608211Y+1905827D01*
X-1665263Y+1970010D02*
X-1693789Y+2002102D01*
X-1608211Y+2002102D01*
D16*
X-3746500Y+2402840D02*
X-2857500Y+2402840D01*
X-2857500Y+4455160D01*
X-3746500Y+4455160D01*
X-3746500Y+2402840D01*
D25*
X-3683000Y+4318000D02*
X-3683000Y+4318000D01*
D26*
X-3256552Y+2529662D02*
X-3347448Y+2529662D01*
X-3302000Y+2580790D01*
X-3347448Y+2631919D01*
X-3256552Y+2631919D01*
X-3256552Y+2768262D02*
X-3256552Y+2666005D01*
X-3347448Y+2666005D01*
X-3347448Y+2768262D01*
X-3302000Y+2666005D02*
X-3302000Y+2734176D01*
X-3256552Y+2802348D02*
X-3347448Y+2802348D01*
X-3302000Y+2853476D01*
X-3347448Y+2904605D01*
X-3256552Y+2904605D01*
X-3302000Y+2955733D02*
X-3302000Y+3040948D01*
X-3256552Y+3075034D02*
X-3317149Y+3075034D01*
X-3347448Y+3109119D01*
X-3347448Y+3143205D01*
X-3317149Y+3177291D01*
X-3256552Y+3177291D01*
X-3286851Y+3075034D02*
X-3286851Y+3177291D01*
X-3256552Y+3211377D02*
X-3347448Y+3211377D01*
X-3347448Y+3279548D01*
X-3317149Y+3313634D01*
X-3286851Y+3313634D01*
X-3256552Y+3279548D01*
X-3256552Y+3211377D01*
X-3256552Y+3347720D02*
X-3347448Y+3347720D01*
X-3347448Y+3415891D01*
X-3317149Y+3449977D01*
X-3286851Y+3449977D01*
X-3256552Y+3415891D01*
X-3256552Y+3347720D01*
X-3256552Y+3484063D02*
X-3347448Y+3484063D01*
X-3347448Y+3569277D01*
X-3332299Y+3586320D01*
X-3317149Y+3586320D01*
X-3302000Y+3569277D01*
X-3302000Y+3484063D01*
X-3302000Y+3569277D02*
X-3286851Y+3586320D01*
X-3256552Y+3586320D01*
X-3302000Y+3637448D02*
X-3302000Y+3722663D01*
X-3271701Y+3756749D02*
X-3256552Y+3773791D01*
X-3256552Y+3841963D01*
X-3271701Y+3859006D01*
X-3286851Y+3859006D01*
X-3302000Y+3841963D01*
X-3302000Y+3773791D01*
X-3317149Y+3756749D01*
X-3332299Y+3756749D01*
X-3347448Y+3773791D01*
X-3347448Y+3841963D01*
X-3332299Y+3859006D01*
X-3256552Y+3995349D02*
X-3256552Y+3893092D01*
X-3347448Y+3893092D01*
X-3347448Y+3995349D01*
X-3302000Y+3893092D02*
X-3302000Y+3961263D01*
X-3347448Y+4029435D02*
X-3256552Y+4029435D01*
X-3256552Y+4131692D01*
D16*
X-3746500Y+370840D02*
X-2857500Y+370840D01*
X-2857500Y+2169160D01*
X-3746500Y+2169160D01*
X-3746500Y+370840D01*
D25*
X-3683000Y+2032000D02*
X-3683000Y+2032000D01*
D27*
X-3255340Y+488830D02*
X-3348659Y+488830D01*
X-3302000Y+541321D01*
X-3348659Y+593813D01*
X-3255340Y+593813D01*
X-3255340Y+733791D02*
X-3255340Y+628808D01*
X-3348659Y+628808D01*
X-3348659Y+733791D01*
X-3302000Y+628808D02*
X-3302000Y+698797D01*
X-3255340Y+768786D02*
X-3348659Y+768786D01*
X-3302000Y+821277D01*
X-3348659Y+873769D01*
X-3255340Y+873769D01*
X-3302000Y+926261D02*
X-3302000Y+1013747D01*
X-3270893Y+1153725D02*
X-3255340Y+1136228D01*
X-3255340Y+1083736D01*
X-3286446Y+1048742D01*
X-3317553Y+1048742D01*
X-3348659Y+1083736D01*
X-3348659Y+1136228D01*
X-3333106Y+1153725D01*
X-3255340Y+1293703D02*
X-3255340Y+1188720D01*
X-3348659Y+1188720D01*
X-3348659Y+1293703D01*
X-3302000Y+1188720D02*
X-3302000Y+1258709D01*
X-3302000Y+1346195D02*
X-3302000Y+1433681D01*
X-3255340Y+1468676D02*
X-3317553Y+1468676D01*
X-3348659Y+1503670D01*
X-3348659Y+1538665D01*
X-3317553Y+1573659D01*
X-3255340Y+1573659D01*
X-3286446Y+1468676D02*
X-3286446Y+1573659D01*
X-3255340Y+1608654D02*
X-3348659Y+1608654D01*
X-3255340Y+1713637D01*
X-3348659Y+1713637D01*
X-3255340Y+1748632D02*
X-3348659Y+1748632D01*
X-3348659Y+1818621D01*
X-3317553Y+1853615D01*
X-3286446Y+1853615D01*
X-3255340Y+1818621D01*
X-3255340Y+1748632D01*
D16*
X-3746500Y-2423160D02*
X-2857500Y-2423160D01*
X-2857500Y+137160D01*
X-3746500Y+137160D01*
X-3746500Y-2423160D01*
D25*
X-3683000Y+0D02*
X-3683000Y+0D01*
D28*
X-3232480Y-2267070D02*
X-3371519Y-2267070D01*
X-3302000Y-2188861D01*
X-3371519Y-2110652D01*
X-3232480Y-2110652D01*
X-3232480Y-1902094D02*
X-3232480Y-2058512D01*
X-3371519Y-2058512D01*
X-3371519Y-1902094D01*
X-3302000Y-2058512D02*
X-3302000Y-1954233D01*
X-3232480Y-1849954D02*
X-3371519Y-1849954D01*
X-3302000Y-1771745D01*
X-3371519Y-1693536D01*
X-3232480Y-1693536D01*
X-3302000Y-1615327D02*
X-3302000Y-1484978D01*
X-3232480Y-1432838D02*
X-3371519Y-1432838D01*
X-3371519Y-1302490D01*
X-3348346Y-1276420D01*
X-3325173Y-1276420D01*
X-3302000Y-1302490D01*
X-3302000Y-1432838D01*
X-3302000Y-1302490D02*
X-3278826Y-1276420D01*
X-3232480Y-1276420D01*
X-3325173Y-1224280D02*
X-3371519Y-1172141D01*
X-3371519Y-1120001D01*
X-3325173Y-1067862D01*
X-3278826Y-1067862D01*
X-3232480Y-1120001D01*
X-3232480Y-1172141D01*
X-3278826Y-1224280D01*
X-3325173Y-1224280D01*
X-3232480Y-1015722D02*
X-3371519Y-1015722D01*
X-3302000Y-937513D01*
X-3371519Y-859304D01*
X-3232480Y-859304D01*
X-3302000Y-781095D02*
X-3302000Y-650746D01*
X-3325173Y-598606D02*
X-3371519Y-546467D01*
X-3371519Y-494327D01*
X-3325173Y-442188D01*
X-3278826Y-442188D01*
X-3232480Y-494327D01*
X-3232480Y-546467D01*
X-3278826Y-598606D01*
X-3325173Y-598606D01*
X-3232480Y-233630D02*
X-3232480Y-390048D01*
X-3371519Y-390048D01*
X-3371519Y-233630D01*
X-3302000Y-390048D02*
X-3302000Y-285769D01*
D16*
X-3746500Y-5217160D02*
X-2857500Y-5217160D01*
X-2857500Y-2656840D01*
X-3746500Y-2656840D01*
X-3746500Y-5217160D01*
D25*
X-3683000Y-2794000D02*
X-3683000Y-2794000D01*
D28*
X-3232480Y-5061070D02*
X-3371519Y-5061070D01*
X-3302000Y-4982861D01*
X-3371519Y-4904652D01*
X-3232480Y-4904652D01*
X-3232480Y-4696094D02*
X-3232480Y-4852512D01*
X-3371519Y-4852512D01*
X-3371519Y-4696094D01*
X-3302000Y-4852512D02*
X-3302000Y-4748233D01*
X-3232480Y-4643954D02*
X-3371519Y-4643954D01*
X-3302000Y-4565745D01*
X-3371519Y-4487536D01*
X-3232480Y-4487536D01*
X-3302000Y-4409327D02*
X-3302000Y-4278978D01*
X-3232480Y-4226838D02*
X-3371519Y-4226838D01*
X-3371519Y-4096490D01*
X-3348346Y-4070420D01*
X-3325173Y-4070420D01*
X-3302000Y-4096490D01*
X-3302000Y-4226838D01*
X-3302000Y-4096490D02*
X-3278826Y-4070420D01*
X-3232480Y-4070420D01*
X-3232480Y-4018280D02*
X-3325173Y-4018280D01*
X-3371519Y-3966141D01*
X-3371519Y-3914001D01*
X-3325173Y-3861862D01*
X-3232480Y-3861862D01*
X-3278826Y-4018280D02*
X-3278826Y-3861862D01*
X-3232480Y-3809722D02*
X-3371519Y-3809722D01*
X-3302000Y-3731513D01*
X-3371519Y-3653304D01*
X-3232480Y-3653304D01*
X-3302000Y-3575095D02*
X-3302000Y-3444746D01*
X-3325173Y-3392606D02*
X-3371519Y-3340467D01*
X-3371519Y-3288327D01*
X-3325173Y-3236188D01*
X-3278826Y-3236188D01*
X-3232480Y-3288327D01*
X-3232480Y-3340467D01*
X-3278826Y-3392606D01*
X-3325173Y-3392606D01*
X-3232480Y-3027630D02*
X-3232480Y-3184048D01*
X-3371519Y-3184048D01*
X-3371519Y-3027630D01*
X-3302000Y-3184048D02*
X-3302000Y-3079769D01*
D16*
X-1079500Y+370840D02*
X+571500Y+370840D01*
X+571500Y+3947160D01*
X-1079500Y+3947160D01*
X-1079500Y+370840D01*
D25*
X-1016000Y+3810000D02*
X-1016000Y+3810000D01*
D29*
X-119259Y+662943D02*
X-388740Y+662943D01*
X-254000Y+814526D01*
X-388740Y+966109D01*
X-119259Y+966109D01*
X-119259Y+1370331D02*
X-119259Y+1067165D01*
X-388740Y+1067165D01*
X-388740Y+1370331D01*
X-254000Y+1067165D02*
X-254000Y+1269276D01*
X-119259Y+1471387D02*
X-388740Y+1471387D01*
X-254000Y+1622970D01*
X-388740Y+1774553D01*
X-119259Y+1774553D01*
X-254000Y+1926136D02*
X-254000Y+2178775D01*
X-119259Y+2279831D02*
X-388740Y+2279831D01*
X-388740Y+2532469D01*
X-343827Y+2582997D01*
X-298913Y+2582997D01*
X-254000Y+2532469D01*
X-254000Y+2279831D01*
X-254000Y+2532469D02*
X-209086Y+2582997D01*
X-119259Y+2582997D01*
X-298913Y+2684053D02*
X-388740Y+2785108D01*
X-388740Y+2886164D01*
X-298913Y+2987219D01*
X-209086Y+2987219D01*
X-119259Y+2886164D01*
X-119259Y+2785108D01*
X-209086Y+2684053D01*
X-298913Y+2684053D01*
X-119259Y+3088275D02*
X-388740Y+3088275D01*
X-254000Y+3239858D01*
X-388740Y+3391441D01*
X-119259Y+3391441D01*
D16*
X-1079500Y-3947160D02*
X+571500Y-3947160D01*
X+571500Y-370840D01*
X-1079500Y-370840D01*
X-1079500Y-3947160D01*
D25*
X-1016000Y-508000D02*
X-1016000Y-508000D01*
D29*
X-119259Y-3655057D02*
X-388740Y-3655057D01*
X-254000Y-3503474D01*
X-388740Y-3351891D01*
X-119259Y-3351891D01*
X-119259Y-2947669D02*
X-119259Y-3250835D01*
X-388740Y-3250835D01*
X-388740Y-2947669D01*
X-254000Y-3250835D02*
X-254000Y-3048724D01*
X-119259Y-2846613D02*
X-388740Y-2846613D01*
X-254000Y-2695030D01*
X-388740Y-2543447D01*
X-119259Y-2543447D01*
X-254000Y-2391864D02*
X-254000Y-2139225D01*
X-119259Y-2038169D02*
X-388740Y-2038169D01*
X-388740Y-1785531D01*
X-343827Y-1735003D01*
X-298913Y-1735003D01*
X-254000Y-1785531D01*
X-254000Y-2038169D01*
X-254000Y-1785531D02*
X-209086Y-1735003D01*
X-119259Y-1735003D01*
X-119259Y-1633947D02*
X-298913Y-1633947D01*
X-388740Y-1532892D01*
X-388740Y-1431836D01*
X-298913Y-1330781D01*
X-119259Y-1330781D01*
X-209086Y-1633947D02*
X-209086Y-1330781D01*
X-119259Y-1229725D02*
X-388740Y-1229725D01*
X-254000Y-1078142D01*
X-388740Y-926559D01*
X-119259Y-926559D01*
D16*
X+1460500Y+1386840D02*
X+2349500Y+1386840D01*
X+2349500Y+3947160D01*
X+1460500Y+3947160D01*
X+1460500Y+1386840D01*
D25*
X+1524000Y+3810000D02*
X+1524000Y+3810000D01*
D72*
X+1982062Y+1545388D02*
X+1827938Y+1545388D01*
X+1905000Y+1632082D01*
X+1827938Y+1718776D01*
X+1982062Y+1718776D01*
X+1982062Y+1949961D02*
X+1982062Y+1776573D01*
X+1827938Y+1776573D01*
X+1827938Y+1949961D01*
X+1905000Y+1776573D02*
X+1905000Y+1892165D01*
X+1982062Y+2007758D02*
X+1827938Y+2007758D01*
X+1905000Y+2094452D01*
X+1827938Y+2181146D01*
X+1982062Y+2181146D01*
X+1905000Y+2267841D02*
X+1905000Y+2412331D01*
X+1982062Y+2470128D02*
X+1827938Y+2470128D01*
X+1827938Y+2614618D01*
X+1853625Y+2643516D01*
X+1879313Y+2643516D01*
X+1905000Y+2614618D01*
X+1905000Y+2470128D01*
X+1905000Y+2614618D02*
X+1930687Y+2643516D01*
X+1982062Y+2643516D01*
X+1879313Y+2701313D02*
X+1827938Y+2759109D01*
X+1827938Y+2816905D01*
X+1879313Y+2874701D01*
X+1930687Y+2874701D01*
X+1982062Y+2816905D01*
X+1982062Y+2759109D01*
X+1930687Y+2701313D01*
X+1879313Y+2701313D01*
X+1982062Y+2932498D02*
X+1827938Y+2932498D01*
X+1905000Y+3019192D01*
X+1827938Y+3105886D01*
X+1982062Y+3105886D01*
X+1905000Y+3192581D02*
X+1905000Y+3337071D01*
X+1982062Y+3394868D02*
X+1827938Y+3394868D01*
X+1827938Y+3510460D01*
X+1879313Y+3568256D01*
X+1930687Y+3568256D01*
X+1982062Y+3510460D01*
X+1982062Y+3394868D01*
D16*
X+1460500Y-1407160D02*
X+2349500Y-1407160D01*
X+2349500Y+1153160D01*
X+1460500Y+1153160D01*
X+1460500Y-1407160D01*
D25*
X+1524000Y+1016000D02*
X+1524000Y+1016000D01*
D72*
X+1982062Y-1248612D02*
X+1827938Y-1248612D01*
X+1905000Y-1161918D01*
X+1827938Y-1075224D01*
X+1982062Y-1075224D01*
X+1982062Y-844039D02*
X+1982062Y-1017427D01*
X+1827938Y-1017427D01*
X+1827938Y-844039D01*
X+1905000Y-1017427D02*
X+1905000Y-901835D01*
X+1982062Y-786242D02*
X+1827938Y-786242D01*
X+1905000Y-699548D01*
X+1827938Y-612854D01*
X+1982062Y-612854D01*
X+1905000Y-526159D02*
X+1905000Y-381669D01*
X+1982062Y-323872D02*
X+1827938Y-323872D01*
X+1827938Y-179382D01*
X+1853625Y-150484D01*
X+1879313Y-150484D01*
X+1905000Y-179382D01*
X+1905000Y-323872D01*
X+1905000Y-179382D02*
X+1930687Y-150484D01*
X+1982062Y-150484D01*
X+1982062Y-92687D02*
X+1879313Y-92687D01*
X+1827938Y-34891D01*
X+1827938Y+22905D01*
X+1879313Y+80701D01*
X+1982062Y+80701D01*
X+1930687Y-92687D02*
X+1930687Y+80701D01*
X+1982062Y+138498D02*
X+1827938Y+138498D01*
X+1905000Y+225192D01*
X+1827938Y+311886D01*
X+1982062Y+311886D01*
X+1905000Y+398581D02*
X+1905000Y+543071D01*
X+1982062Y+600868D02*
X+1827938Y+600868D01*
X+1827938Y+716460D01*
X+1879313Y+774256D01*
X+1930687Y+774256D01*
X+1982062Y+716460D01*
X+1982062Y+600868D01*
D16*
X+1460500Y-3820160D02*
X+2349500Y-3820160D01*
X+2349500Y-1767840D01*
X+1460500Y-1767840D01*
X+1460500Y-3820160D01*
D25*
X+1524000Y-1905000D02*
X+1524000Y-1905000D01*
D73*
X+1981684Y-3680455D02*
X+1828317Y-3680455D01*
X+1828317Y-3565430D01*
X+1879439Y-3507918D01*
X+1930562Y-3507918D01*
X+1981684Y-3565430D01*
X+1981684Y-3680455D01*
X+1981684Y-3277868D02*
X+1981684Y-3450405D01*
X+1828317Y-3450405D01*
X+1828317Y-3277868D01*
X+1905000Y-3450405D02*
X+1905000Y-3335380D01*
X+1828317Y-3220355D02*
X+1905000Y-3220355D01*
X+1981684Y-3134087D01*
X+1905000Y-3047818D01*
X+1828317Y-3047818D01*
X+1905000Y-2961549D02*
X+1905000Y-2817768D01*
X+1956123Y-2760255D02*
X+1981684Y-2731499D01*
X+1981684Y-2616474D01*
X+1956123Y-2587718D01*
X+1930562Y-2587718D01*
X+1905000Y-2616474D01*
X+1905000Y-2731499D01*
X+1879439Y-2760255D01*
X+1853878Y-2760255D01*
X+1828317Y-2731499D01*
X+1828317Y-2616474D01*
X+1853878Y-2587718D01*
X+1981684Y-2357668D02*
X+1981684Y-2530205D01*
X+1828317Y-2530205D01*
X+1828317Y-2357668D01*
X+1905000Y-2530205D02*
X+1905000Y-2415180D01*
X+1828317Y-2300155D02*
X+1981684Y-2300155D01*
X+1981684Y-2127618D01*
D16*
X+3238500Y+1386840D02*
X+4127500Y+1386840D01*
X+4127500Y+3947160D01*
X+3238500Y+3947160D01*
X+3238500Y+1386840D01*
D25*
X+3302000Y+3810000D02*
X+3302000Y+3810000D01*
D30*
X+3840175Y+1642670D02*
X+3525825Y+1642670D01*
X+3525825Y+1878432D01*
X+3630608Y+1996313D01*
X+3735392Y+1996313D01*
X+3840175Y+1878432D01*
X+3840175Y+1642670D01*
X+3840175Y+2467838D02*
X+3840175Y+2114195D01*
X+3525825Y+2114195D01*
X+3525825Y+2467838D01*
X+3683000Y+2114195D02*
X+3683000Y+2349957D01*
X+3525825Y+2585720D02*
X+3683000Y+2585720D01*
X+3840175Y+2762541D01*
X+3683000Y+2939363D01*
X+3525825Y+2939363D01*
X+3787783Y+3057245D02*
X+3578217Y+3057245D01*
X+3525825Y+3116185D01*
X+3525825Y+3351948D01*
X+3578217Y+3410888D01*
X+3787783Y+3410888D01*
X+3840175Y+3351948D01*
X+3840175Y+3116185D01*
X+3787783Y+3057245D01*
X+3840175Y+3057245D02*
X+3525825Y+3410888D01*
D16*
X+3238500Y-1407160D02*
X+4127500Y-1407160D01*
X+4127500Y+1153160D01*
X+3238500Y+1153160D01*
X+3238500Y-1407160D01*
D25*
X+3302000Y+1016000D02*
X+3302000Y+1016000D01*
D30*
X+3840175Y-1151330D02*
X+3525825Y-1151330D01*
X+3525825Y-915568D01*
X+3630608Y-797687D01*
X+3735392Y-797687D01*
X+3840175Y-915568D01*
X+3840175Y-1151330D01*
X+3840175Y-326162D02*
X+3840175Y-679805D01*
X+3525825Y-679805D01*
X+3525825Y-326162D01*
X+3683000Y-679805D02*
X+3683000Y-444043D01*
X+3525825Y-208280D02*
X+3683000Y-208280D01*
X+3840175Y-31459D01*
X+3683000Y+145363D01*
X+3525825Y+145363D01*
X+3630608Y+381126D02*
X+3525825Y+499007D01*
X+3840175Y+499007D01*
D16*
X+3238500Y-4201160D02*
X+4127500Y-4201160D01*
X+4127500Y-1640840D01*
X+3238500Y-1640840D01*
X+3238500Y-4201160D01*
D25*
X+3302000Y-1778000D02*
X+3302000Y-1778000D01*
D30*
X+3840175Y-3945330D02*
X+3525825Y-3945330D01*
X+3525825Y-3709568D01*
X+3630608Y-3591687D01*
X+3735392Y-3591687D01*
X+3840175Y-3709568D01*
X+3840175Y-3945330D01*
X+3840175Y-3120162D02*
X+3840175Y-3473805D01*
X+3525825Y-3473805D01*
X+3525825Y-3120162D01*
X+3683000Y-3473805D02*
X+3683000Y-3238043D01*
X+3525825Y-3002280D02*
X+3683000Y-3002280D01*
X+3840175Y-2825459D01*
X+3683000Y-2648637D01*
X+3525825Y-2648637D01*
X+3578217Y-2471815D02*
X+3525825Y-2412874D01*
X+3525825Y-2236052D01*
X+3578217Y-2177112D01*
X+3630608Y-2177112D01*
X+3683000Y-2236052D01*
X+3683000Y-2412874D01*
X+3735392Y-2471815D01*
X+3840175Y-2471815D01*
X+3840175Y-2177112D01*
D16*
X+4434840Y-4201160D02*
X+4709160Y-4201160D01*
X+4709160Y-2148840D01*
X+4434840Y-2148840D01*
X+4434840Y-4201160D01*
D20*
X+4572000Y-2286000D02*
X+4572000Y-2286000D01*
D21*
X+4625340Y-3743960D02*
X+4518660Y-3743960D01*
X+4518660Y-3663950D01*
X+4554220Y-3623945D01*
X+4589780Y-3623945D01*
X+4625340Y-3663950D01*
X+4625340Y-3743960D01*
X+4625340Y-3463925D02*
X+4625340Y-3583940D01*
X+4518660Y-3583940D01*
X+4518660Y-3463925D01*
X+4572000Y-3583940D02*
X+4572000Y-3503930D01*
X+4518660Y-3423920D02*
X+4572000Y-3423920D01*
X+4625340Y-3363913D01*
X+4572000Y-3303905D01*
X+4518660Y-3303905D01*
X+4572000Y-3243898D02*
X+4572000Y-3143885D01*
X+4589780Y-3103880D02*
X+4607560Y-3103880D01*
X+4625340Y-3083878D01*
X+4625340Y-3003868D01*
X+4607560Y-2983865D01*
X+4518660Y-2983865D01*
X+4607560Y-2943860D02*
X+4536440Y-2943860D01*
X+4518660Y-2923858D01*
X+4518660Y-2843848D01*
X+4536440Y-2823845D01*
X+4607560Y-2823845D01*
X+4625340Y-2843848D01*
X+4625340Y-2923858D01*
X+4607560Y-2943860D01*
X+4625340Y-2943860D02*
X+4518660Y-2823845D01*
M02*
