G04 PROTEUS GERBER X2 FILE*
%TF.GenerationSoftware,Labcenter,Proteus,8.13-SP0-Build31525*%
%TF.CreationDate,2022-07-19T01:12:19+00:00*%
%TF.FileFunction,Copper,L2,Bot*%
%TF.FilePolarity,Positive*%
%TF.Part,Single*%
%TF.SameCoordinates,{d59f61b6-e7c8-4c59-9098-5d1a923f3759}*%
%FSLAX45Y45*%
%MOMM*%
G01*
%TA.AperFunction,Conductor*%
%ADD10C,0.254000*%
%TA.AperFunction,ViaPad*%
%ADD11C,0.762000*%
%TA.AperFunction,ComponentPad*%
%ADD12R,2.032000X2.032000*%
%TA.AperFunction,ComponentPad*%
%ADD13R,1.270000X1.270000*%
%ADD14C,1.270000*%
%TA.AperFunction,Profile*%
%ADD15C,0.203200*%
%TD.AperFunction*%
D10*
X-1270000Y+2794000D02*
X-1346200Y+2717800D01*
X-1346200Y+1346200D01*
X-1270000Y+1270000D01*
X-1016000Y+1270000D01*
X+1333500Y+1905000D02*
X+1333500Y+3111500D01*
X+1397000Y+3175000D01*
X+2159000Y+3175000D01*
X+2286000Y+3048000D01*
X-1016000Y+1143000D02*
X-1016000Y+1016000D01*
X+508000Y+508000D02*
X+825500Y+508000D01*
X+889000Y+571500D01*
X+889000Y+1206500D01*
X+952500Y+1270000D01*
X+1714500Y+1270000D01*
X+1778000Y+1333500D01*
X+1778000Y+2095500D01*
X+1841500Y+2159000D01*
X+2349500Y+2159000D01*
X+2413000Y+2222500D01*
X+2413000Y+2413000D01*
X+2286000Y+2540000D01*
X+508000Y+762000D02*
X+762000Y+762000D01*
X+825500Y+825500D01*
X+825500Y+1270000D01*
X+889000Y+1333500D01*
X+1651000Y+1333500D01*
X+1714500Y+1397000D01*
X+1714500Y+2222500D01*
X+1778000Y+2286000D01*
X+2286000Y+2286000D01*
X+1270000Y+1143000D02*
X+1841500Y+1143000D01*
X+1905000Y+1206500D01*
X+1905000Y+1651000D01*
X+2286000Y+2032000D01*
X+1270000Y+889000D02*
X+2032000Y+889000D01*
X+2095500Y+952500D01*
X+2095500Y+1587500D01*
X+2286000Y+1778000D01*
X+635000Y+889000D02*
X+635000Y+1143000D01*
X+508000Y+1270000D01*
X-508000Y+381000D02*
X-571500Y+317500D01*
X-571500Y-1206500D01*
X-508000Y-1270000D01*
X-508000Y-2984500D01*
X-571500Y-3048000D01*
X-1016000Y-3048000D01*
X+1968500Y+381000D02*
X+2158999Y+381000D01*
X+2286000Y+508000D01*
X+2286000Y+508001D01*
X+1143000Y-2794000D02*
X+1790700Y-2794000D01*
X+1854200Y-2730500D01*
X+1854200Y+139700D01*
X+1968500Y+254000D01*
X+2286000Y+254000D01*
X-889000Y-3302000D02*
X-1016000Y-3302000D01*
X-444500Y-127000D02*
X-444500Y-3492500D01*
X-508000Y-3556000D01*
X-1016000Y-3556000D01*
X+1968500Y-127000D02*
X+2159000Y-127000D01*
X+2286000Y+0D01*
X+508000Y-3810000D02*
X+2476500Y-3810000D01*
X+2540000Y-3746500D01*
X+2540000Y-508000D01*
X+2286000Y-254000D01*
X+2286000Y-508000D02*
X+2476500Y-698500D01*
X+2476500Y-3492500D01*
X+2413000Y-3556000D01*
X+508000Y-3556000D01*
X+2286000Y-762000D02*
X+2413000Y-889000D01*
X+2413000Y-3238500D01*
X+2349500Y-3302000D01*
X+508000Y-3302000D01*
X+2286000Y-1016000D02*
X+1905000Y-1397000D01*
X+1905000Y-2984500D01*
X+1841500Y-3048000D01*
X+1282700Y-3048000D01*
X+1079500Y-3251200D01*
X+711200Y-3251200D01*
X+508000Y-3048000D01*
X+1270000Y-1651000D02*
X+1270000Y-2413000D01*
X+1206500Y-2476500D01*
X+825500Y-2476500D01*
X+508000Y-2794000D01*
X+2032000Y-1651000D02*
X+2032000Y-1524000D01*
X+2286000Y-1270000D01*
X-889000Y-1905000D02*
X-889000Y-1778000D01*
X-825500Y-1714500D01*
X-825500Y+1460500D01*
X-889000Y+1524000D01*
X-1016000Y+1524000D01*
X-1016000Y-2794000D02*
X-889000Y-2667000D01*
X-889000Y-1905000D01*
X+508000Y-2286000D02*
X+381000Y-2159000D01*
X+381000Y-1968500D01*
X+444500Y-1905000D01*
X+635000Y-1905000D01*
X+698500Y-1841500D01*
X+698500Y+0D01*
X+381000Y+317500D01*
X+381000Y+1905000D01*
X+508000Y+2032000D01*
X-2413000Y-4318000D02*
X-2413000Y-5461000D01*
X+508000Y-2286000D02*
X+381000Y-2413000D01*
X+381000Y-4318000D01*
X-635000Y-2286000D02*
X-635000Y-2921000D01*
X-2159000Y-2921000D02*
X-2159000Y-5461000D01*
X-190500Y-2286000D02*
X-190500Y-1778000D01*
X-635000Y-2286000D02*
X-711200Y-2209800D01*
X-711200Y-1206500D01*
X-698500Y-1193800D01*
X-698500Y+2476500D01*
X-762000Y+2540000D01*
X-1016000Y-762000D02*
X-1206500Y-952500D01*
X-1206500Y-2794000D01*
X-1905000Y-3492500D01*
X-1905000Y-5461000D01*
X-1016000Y-762000D02*
X-889000Y-635000D01*
X-889000Y+1333500D01*
X-952500Y+1397000D01*
X-1079500Y+1397000D01*
X-1143000Y+1460500D01*
X-1143000Y+1587500D01*
X-1079500Y+1651000D01*
X-952500Y+1651000D01*
X-889000Y+1714500D01*
X-889000Y+1841500D01*
X-952500Y+1905000D01*
X-1079500Y+1905000D01*
X-1143000Y+1968500D01*
X-1143000Y+3429000D01*
X-1016000Y+3556000D01*
X-63500Y-1016000D02*
X-63500Y+2730501D01*
X+508000Y+3302000D01*
X+508000Y+3302001D01*
X-63500Y-1016000D02*
X-63500Y-1143000D01*
X-1016000Y-5080000D02*
X-317500Y-4381500D01*
X-317500Y-1397000D01*
X-63500Y-1143000D01*
X-1651000Y-5080000D02*
X-1651000Y-5461000D01*
X-1447801Y-508000D02*
X-1447801Y+4114801D01*
X-1524000Y+4191000D01*
X-3556000Y+4191000D01*
X-3683000Y+4318000D01*
X-1447801Y-508000D02*
X-1447801Y-2400301D01*
X-2032000Y-2984500D01*
X-2032000Y-4572000D01*
X-1397000Y-4572000D02*
X-1397000Y-5461000D01*
X-1143000Y-5461000D02*
X-1143000Y-4381500D01*
X-381000Y-3619500D01*
X-381000Y-508000D01*
X-317500Y-444500D01*
X-317500Y+889000D01*
X-571500Y+1143000D01*
X-571500Y+4381500D01*
X-635000Y+4445000D01*
X-3810000Y+4445000D01*
X-3873500Y+4381500D01*
X-3873500Y+4254500D01*
X-3683000Y+4064000D01*
X-1270000Y+2667000D02*
X-1270000Y+1841500D01*
X-1206500Y+1778000D01*
X-1016000Y+1778000D01*
X-1841500Y-2540000D02*
X-1841500Y+2667000D01*
X-4699000Y-2540000D02*
X-4699000Y-5461000D01*
X-1079500Y-2921000D02*
X-825500Y-2921000D01*
X-762000Y-2857500D01*
X-762000Y+1968500D01*
X-825500Y+2032000D01*
X-1016000Y+2032000D01*
X-1016000Y-2286000D02*
X-1143000Y-2413000D01*
X-1143000Y-2857500D01*
X-1079500Y-2921000D01*
X-1143000Y-2984500D01*
X-1143000Y-3175000D01*
X-1460500Y-3492500D01*
X-1460500Y-4445000D01*
X-4191000Y-2413000D02*
X-4191000Y-5461000D01*
X-444500Y+2286000D02*
X-254000Y+2095500D01*
X-254000Y-1016000D01*
X-889000Y+2286000D02*
X-1016000Y+2286000D01*
X-635000Y-1651000D02*
X-635000Y-2032000D01*
X-3365500Y-2286000D02*
X-3479800Y-2400300D01*
X-3479800Y-5194300D01*
X-3556000Y-5270500D01*
X-3937000Y-5270500D01*
X-3937000Y-5461000D01*
X-1968500Y-2286000D02*
X-1968500Y+2540000D01*
X-635000Y-1524000D02*
X-635000Y+2730500D01*
X-698500Y+2794000D01*
X-1016000Y+2794000D01*
X-63500Y-4699000D02*
X-63500Y-1524000D01*
X-2667000Y-1778000D02*
X-2667000Y-3111500D01*
X-2730500Y-3175000D01*
X-3365500Y-3175000D01*
X-3429000Y-3238500D01*
X-3429000Y-5461000D01*
X-2667000Y-1778000D02*
X-2667000Y+3048000D01*
X-2413000Y-2032000D02*
X-2413000Y-3365500D01*
X-2476500Y-3429000D01*
X-3048000Y-3429000D01*
X-3111500Y-3492500D01*
X-3111500Y-5080000D01*
X-3175000Y-5143500D01*
X-3175000Y-5461000D01*
X-2413000Y-1905000D02*
X-2413000Y+3683000D01*
X-889000Y+3683000D02*
X-889000Y+3429000D01*
X-1016000Y+3302000D01*
X-2413000Y-1905000D02*
X-2413000Y-2032000D01*
X+190500Y-1333500D02*
X+190500Y+2730501D01*
X+508000Y+3048000D01*
X+508000Y+3048001D01*
X+190500Y-1460500D02*
X+190500Y-1333500D01*
X+190500Y-1460500D02*
X+190500Y-4508500D01*
X+63500Y-4635500D01*
X+508000Y-1524000D02*
X+317500Y-1333499D01*
X+317500Y-635000D01*
X+254000Y-571500D01*
X+254000Y+2540001D01*
X+508000Y+2794000D01*
X+508000Y+2794001D01*
X+508000Y-1523999D02*
X+508000Y-1524000D01*
X+254000Y-1777999D01*
X+254000Y-4826000D01*
X+3302000Y+762000D02*
X+3479800Y+584200D01*
X+3479800Y-1968500D01*
X+3429000Y-2019300D01*
X+3429000Y-2032000D01*
X+3175000Y-3429000D02*
X+3175000Y-3238500D01*
X+3238500Y-3175000D01*
X+3429000Y-3175000D01*
X+3492500Y-3111500D01*
X+3492500Y-2095500D01*
X+3429000Y-2032000D01*
X+3302000Y-2032000D01*
X+3302000Y+762000D02*
X+3429000Y+889000D01*
X+3429000Y+1905000D01*
X+3302000Y+3556000D02*
X+3302000Y+3644900D01*
X+3340100Y+3683000D01*
X+3365500Y+3683000D01*
X+2667000Y-3429000D02*
X+2603500Y-3492500D01*
X+2603500Y-4889500D01*
X+2540000Y-4953000D01*
X+254000Y-4953000D01*
X+3302000Y+3302000D02*
X+2984500Y+2984500D01*
X+2984500Y+762000D01*
X+2857500Y+635000D01*
X+3302000Y+508000D02*
X+3429000Y+381000D01*
X+3429000Y-1841500D01*
X+3365500Y-1905000D01*
X+3238500Y-1905000D01*
X+3175000Y-1968500D01*
X+3175000Y-2286000D01*
X+3302000Y-2286000D01*
X-190500Y-2667000D02*
X-190500Y-4826000D01*
X-635000Y-5270500D01*
X-635000Y-5461000D01*
X+2603500Y+2984500D02*
X+2540000Y+2921000D01*
X+1651000Y+2921000D01*
X+1524000Y+3048000D01*
X+3048000Y+381000D02*
X+3048000Y-2286000D01*
X+3302000Y-2540000D01*
X+3302000Y+3048000D02*
X+3048000Y+2794000D01*
X+3048000Y+381000D01*
X+3302000Y+3048000D02*
X+3429000Y+3175000D01*
X+3429000Y+3365500D01*
X+3365500Y+3429000D01*
X+3048000Y+3429000D01*
X+2603500Y+2984500D01*
X+2654300Y+2933700D01*
X+2654300Y-1524000D01*
X+2743200Y-1612900D01*
X+2743200Y-3619500D01*
X+2654300Y-3708400D01*
X+2654300Y-5029200D01*
X+2540000Y-5143500D01*
X-317500Y-5143500D01*
X-381000Y-5207000D01*
X-381000Y-5461000D01*
X+2921000Y-2921000D02*
X+2921000Y-5143500D01*
X+2857500Y-5207000D01*
X-63500Y-5207000D01*
X-127000Y-5270500D01*
X-127000Y-5461000D01*
X+2921000Y+127000D02*
X+2781300Y+266700D01*
X+2781300Y+952500D01*
X+2857500Y+1028700D01*
X+2857500Y+2794000D01*
X+2921000Y-2921000D02*
X+2921000Y-2794000D01*
X+2921000Y+127000D02*
X+2921000Y-2794000D01*
X+3302000Y-3048000D02*
X+3048000Y-3048000D01*
X+2984500Y-3111500D01*
X+2984500Y-5207000D01*
X+2921000Y-5270500D01*
X+127000Y-5270500D01*
X+127000Y-5461000D01*
X+3302000Y-3048000D02*
X+3175000Y-2921000D01*
X+3175000Y-2794000D01*
X+2984500Y-2603500D01*
X+2984500Y-254000D01*
X+2540000Y+0D02*
X+2540000Y+254000D01*
X+2476500Y+2667000D02*
X+1651000Y+2667000D01*
X+1524000Y+2540000D01*
X+2984500Y-254000D02*
X+2984500Y+0D01*
X+2997200Y+12700D01*
X+2997200Y+177800D01*
X+2921000Y+254000D01*
X+2476500Y+2667000D02*
X+2476500Y+1841500D01*
X+2540000Y+1778000D01*
X+2540000Y+254000D01*
X+3302000Y-3302000D02*
X+3492500Y-3302000D01*
X+3556000Y-3238500D01*
X+3556000Y-508000D01*
X+3556000Y+1905000D01*
X+3302000Y+2286000D02*
X+3556000Y+2286000D01*
X+3302000Y+2032000D02*
X+3619500Y+2032000D01*
X+3683000Y+1968500D01*
X+3683000Y-1270000D01*
X+3302000Y-3556000D02*
X+3619500Y-3556000D01*
X+3683000Y-3492500D01*
X+3683000Y-1270000D01*
X+2730500Y-889000D02*
X+2730500Y-1206500D01*
X+2794000Y-1270000D01*
X+2794000Y-3810000D01*
X+2730500Y-889000D02*
X+2730500Y+1778000D01*
X+4064000Y+508000D02*
X+3886200Y+330201D01*
X+3886200Y-2285999D01*
X+4064000Y-2286000D01*
X+4064000Y-2285999D01*
X+4064000Y+508001D02*
X+4064000Y+508000D01*
X+3886200Y+685801D01*
X+3886200Y+3302001D01*
X+4064000Y+3302000D01*
X+4064000Y+3302001D01*
X+4508500Y+508000D02*
X+4508500Y+2603500D01*
X+4064000Y+3048000D01*
X+4572000Y-2540000D02*
X+4711700Y-2540000D01*
X+4711700Y-1968500D01*
X+4489450Y-1746250D01*
X+4489450Y-952500D01*
X+4508500Y-933450D01*
X+4508500Y+508000D01*
X+4381500Y+254000D02*
X+4381500Y+2476500D01*
X+4064000Y+2794000D01*
X+4572000Y-2794000D02*
X+4432300Y-2794000D01*
X+4432300Y-254000D01*
X+4381500Y-203200D01*
X+4381500Y+254000D01*
X+4064000Y-3048000D02*
X+3810000Y-2794000D01*
X+3810000Y-381000D01*
X+3810000Y-254000D01*
X+3810000Y+2667000D02*
X+3810000Y-254000D01*
X+4064000Y+2667000D02*
X+4064000Y+2540000D01*
X+4064000Y-508000D02*
X+4381500Y-825500D01*
X+4381500Y-3302000D01*
X+4572000Y-3302000D01*
X+4064000Y-508000D02*
X+4305300Y-266700D01*
X+4305300Y+2044700D01*
X+4064000Y+2286000D01*
X+4191000Y+0D02*
X+4254500Y+63500D01*
X+4254500Y+1841500D01*
X+4064000Y+2032000D01*
X+4191000Y-762000D02*
X+4064000Y-762000D01*
X+4572000Y-3556000D02*
X+4381500Y-3556000D01*
X+4318000Y-3492500D01*
X+4318000Y-889000D01*
X+4191000Y-762000D01*
X+4064000Y-1016000D02*
X+4254500Y-1206500D01*
X+4254500Y-3746500D01*
X+4318000Y-3810000D01*
X+4572000Y-3810000D01*
X+4635500Y-1016000D02*
X+4635500Y+1778000D01*
X+4000500Y+889000D02*
X+3937000Y+952500D01*
X+3937000Y+1397000D01*
X+4064000Y+1524000D01*
X+4064000Y-1270000D02*
X+4191000Y-1397000D01*
X+4191000Y-3937000D01*
X+4064000Y-4064000D01*
X-3683000Y+2540000D02*
X-3556000Y+2413000D01*
X-3556000Y+1460500D01*
X-3619500Y+1397000D01*
X-3746500Y+1397000D01*
X-3810000Y+1333500D01*
X-3810000Y+635000D01*
X-3683000Y+508000D01*
X-3556000Y-3810000D02*
X-3556000Y-4953000D01*
X-3683000Y-5080000D01*
X-3683000Y-2286000D02*
X-3556000Y-2413000D01*
X-3556000Y-3810000D01*
X-3683000Y+508000D02*
X-3556000Y+381000D01*
X-3556000Y-2159000D01*
X-3683000Y-2286000D01*
X-3683000Y+2540000D02*
X-3556000Y+2667000D01*
X-3556000Y+3683000D01*
X-3683000Y+3810000D01*
X+508000Y+3556001D02*
X+508000Y+3556000D01*
X+698499Y+3556001D01*
X+762000Y+3492500D01*
X+762000Y+1587500D01*
X+825500Y+1524000D01*
X+1524000Y+1524000D01*
X-1270000Y+508000D02*
X-1397000Y+635000D01*
X-1397000Y+2794000D01*
X-1333500Y+2857500D01*
X-1333500Y+3175000D01*
X+1524000Y-3683000D02*
X+825500Y-3683000D01*
X-1016000Y+508000D02*
X-1270000Y+508000D01*
X-1333500Y+444500D01*
X-1333500Y-1524000D01*
X-1016000Y-3683000D02*
X-1270000Y-3683000D01*
X-1016000Y-3810000D02*
X-1016000Y-3683000D01*
X+1524000Y-1270000D02*
X+1270000Y-1016000D01*
X+1270000Y+127000D01*
X-4254500Y+762000D02*
X-4254500Y+4445000D01*
X-4191000Y+4508500D01*
X-3492500Y+4508500D01*
X-3429000Y+4572000D01*
X-3429000Y+4953000D01*
X-4699000Y+508000D02*
X-4445000Y+508000D01*
X-4381500Y+571500D01*
X-4381500Y+4635500D01*
X-4318000Y+4699000D01*
X-3746500Y+4699000D01*
X-3683000Y+4762500D01*
X-3683000Y+4953000D01*
X-3683000Y+3302000D02*
X-4127500Y+2857500D01*
X-4127500Y-2095500D01*
X-4191000Y-2159000D01*
X-5207000Y-2159000D01*
X-3683000Y+3302000D02*
X-3683000Y+3556000D01*
X-3937000Y-2222500D02*
X-3937000Y-190500D01*
X-3937000Y+2921000D02*
X-4000500Y+2857500D01*
X-4000500Y-127000D01*
X-3937000Y-190500D01*
X-3937000Y-2222500D02*
X-3937000Y-2794000D01*
X-3683000Y-3048000D01*
X-3937000Y-2222500D02*
X-4318000Y-2222500D01*
X-4508500Y-2413000D01*
X-5207000Y-2413000D01*
X+3302000Y+1016000D02*
X+3175000Y+889000D01*
X+3175000Y-1651000D01*
X+3302000Y-1778000D01*
X+3302000Y+3810000D02*
X+3429000Y+3810000D01*
X+3492500Y+3746500D01*
X+3492500Y+2476500D01*
X+3429000Y+2413000D01*
X+3238500Y+2413000D01*
X+3175000Y+2349500D01*
X+3175000Y+1333500D01*
X+3302000Y+1206500D01*
X+3302000Y+1016000D01*
X+3302000Y+3810000D02*
X+3302000Y+4191000D01*
X-3937000Y-190500D02*
X-3873500Y-127000D01*
X-3683000Y-127000D01*
X-3683000Y-254000D01*
X-4699000Y-1524000D02*
X-4889500Y-1524000D01*
X-4889500Y+4000500D01*
X-4699000Y+4191000D01*
X-4699000Y+4953000D01*
X-4699000Y-1270000D02*
X-4838700Y-1270000D01*
X-4838700Y+2781300D01*
X-4445000Y+3175000D01*
X-4445000Y+4953000D01*
X-4699000Y-1778000D02*
X-4889500Y-1778000D01*
X-4953000Y-1714500D01*
X-4953000Y+4953000D01*
X-2286000Y-3429000D02*
X-2286000Y+3746501D01*
X-2349500Y+3810001D01*
X-2921000Y+3810000D01*
X-2921000Y+3810001D01*
X+4889500Y-1905000D02*
X+4889500Y+317500D01*
X+4953000Y+381000D01*
X+5207000Y+381000D01*
X+1524000Y-2667000D02*
X+1651000Y-2540000D01*
X+1778000Y-2540000D01*
X+1524000Y-2667000D02*
X+1079500Y-2667000D01*
X+1016000Y-2730500D01*
X+1016000Y-2857500D01*
X+1079500Y-2921000D01*
X+1397000Y-2921000D01*
X+1524000Y-2921000D02*
X+1397000Y-2921000D01*
X+5016500Y+1587500D02*
X+5016500Y+3492501D01*
X+4953000Y+3556001D01*
X+4064000Y+3556000D01*
X+4064000Y+3556001D01*
X+4889500Y+1587500D02*
X+4686300Y+1384300D01*
X+4686300Y-381000D01*
X+4711700Y-406400D01*
X+4711700Y-1574800D01*
X+4635500Y-1651000D01*
X+2159000Y-1651000D02*
X+2159000Y-2031999D01*
X+2286000Y-2159000D01*
X+2286000Y-2158999D01*
X+4889500Y+1587500D02*
X+5016500Y+1587500D01*
X+2413000Y+1143000D02*
X+2413000Y+1460500D01*
X+5016500Y-63500D02*
X+5143500Y-63500D01*
X+5207000Y-127000D01*
X+2413000Y+1143000D02*
X+2413000Y+0D01*
X+2603500Y-190500D01*
X+2603500Y-2349500D01*
X+2667000Y-2413000D01*
X+5016500Y-2032000D02*
X+5016500Y-381000D01*
X+5207000Y-381000D01*
X-2921000Y-3047999D02*
X-2921000Y-3048000D01*
X-3238500Y-2730499D01*
X-3238500Y+317500D01*
X-3683000Y+762000D01*
X+508000Y-2540000D02*
X+635000Y-2413000D01*
X+1079500Y-2413000D01*
X+1143000Y-2349500D01*
X+1143000Y-1460500D01*
X+1206500Y-1397000D01*
X+1778000Y-1397000D01*
X+1778000Y-1270000D02*
X+1778000Y-1397000D01*
X+1778000Y-1270000D02*
X+1778000Y+698501D01*
X+1841500Y+762001D01*
X+2286000Y+762000D01*
X+2286000Y+762001D01*
X-3683000Y+1270000D02*
X-3556000Y+1270000D01*
X-3492500Y+1333500D01*
X-3492500Y+2984500D01*
X-2921000Y+3556000D01*
X+4762500Y+1270000D02*
X+4762500Y-2095500D01*
X+4826000Y-2159000D01*
X+5207000Y-2159000D01*
X-3429000Y+1143000D02*
X-3429000Y+2794000D01*
X-2921000Y+3302000D01*
X-3429000Y+1143000D02*
X-3556000Y+1016000D01*
X-3683000Y+1016000D01*
X+508000Y-2032000D02*
X+1016000Y-2032000D01*
X+1079500Y-1968500D01*
X+1079500Y+952500D01*
X+1143000Y+1016000D01*
X+1524000Y+1016000D01*
X-3238500Y-3937000D02*
X-3238500Y-3365499D01*
X-3175000Y-3301999D01*
X-2921000Y-3302000D01*
X-2921000Y-3301999D01*
X+1397000Y-2032000D02*
X+1397000Y-2476500D01*
X+1333500Y-2540000D01*
X+1016000Y-2540000D01*
X+952500Y-2603500D01*
X+952500Y-3175000D01*
X+3365500Y-2159000D02*
X+3429000Y-2222500D01*
X+3429000Y-2857500D01*
X+3365500Y-2921000D01*
X+63500Y-2794000D02*
X+63500Y-889000D01*
X+63500Y-2794000D02*
X+63500Y-3048000D01*
X+1016000Y+3429000D02*
X+2158999Y+3429000D01*
X+2286000Y+3556000D01*
X+2286000Y+3556001D01*
X-3111500Y+1524000D02*
X-3111500Y-63499D01*
X-2921000Y-254000D01*
X-2921000Y-253999D01*
X+1016000Y+2921000D02*
X+1016000Y+3429000D01*
X+1016000Y+2921000D02*
X+1016000Y+1778000D01*
X+508000Y+1778000D02*
X+635000Y+1778000D01*
X+4381500Y+3429000D02*
X+4559300Y+3251200D01*
X+4559300Y+1016000D01*
X+4584700Y+990600D01*
X+4584700Y-508000D01*
X+4559300Y-533400D01*
X+4559300Y-1117599D01*
X+4572000Y-1117599D01*
X+4572000Y-1143000D01*
X+508000Y+2286000D02*
X+635000Y+2413000D01*
X+635000Y+3365500D01*
X+571500Y+3429000D01*
X+381000Y+3429000D01*
X+317500Y+3492500D01*
X+317500Y+3619500D01*
X+381000Y+3683000D01*
X+1397000Y+3683000D01*
X+1524000Y+3810000D01*
X+508000Y+2286000D02*
X+317500Y+2095500D01*
X+317500Y-190500D01*
X+381000Y-254000D01*
X+2032000Y-1778000D02*
X+2032000Y-3111500D01*
X+1968500Y-3175000D01*
X+1524000Y-3175000D01*
X+4064000Y+3810000D02*
X+3873500Y+3619500D01*
X+3873500Y+3492500D01*
X+3937000Y+3429000D01*
X+4127500Y+3429000D01*
X+4191000Y+3365500D01*
X+4191000Y+3238500D01*
X+4127500Y+3175000D01*
X+4000500Y+3175000D01*
X+3937000Y+3111500D01*
X+3937000Y+1714500D01*
X+4000500Y+1651000D01*
X+4127500Y+1651000D01*
X+4191000Y+1587500D01*
X+4191000Y+1143000D01*
X+4064000Y+1016000D01*
X+4191000Y+889000D01*
X+4191000Y+190500D01*
X+4127500Y+127000D01*
X+4000500Y+127000D01*
X+3937000Y+63500D01*
X+3937000Y-1460500D01*
X+4064000Y-1587500D01*
X+4064000Y-1778000D01*
X-2921000Y-2794000D02*
X-2794000Y-2667000D01*
X-2794000Y-1270000D01*
X+4064000Y-1778000D02*
X+3937000Y-1905000D01*
X+3937000Y-2095500D01*
X+4000500Y-2159000D01*
X+4889500Y-2286000D02*
X+4889500Y-5143500D01*
X+4953000Y-5207000D01*
X+5207000Y-5207000D01*
X-3683000Y+1778000D02*
X-3873500Y+1587500D01*
X-3873500Y+190500D01*
X-3683000Y+0D01*
X-2921000Y+0D02*
X-2794000Y-127000D01*
X-2794000Y-1270000D01*
X-3683000Y+3048000D02*
X-3810000Y+2921000D01*
X-3810000Y+1905000D01*
X-3683000Y+1778000D01*
D11*
X-1270000Y+2794000D03*
X+1333500Y+1905000D03*
X-1016000Y+1143000D03*
X+1270000Y+1143000D03*
X+1270000Y+889000D03*
X+635000Y+889000D03*
X-508000Y+381000D03*
X+1968500Y+381000D03*
X+1143000Y-2794000D03*
X-889000Y-3302000D03*
X-444500Y-127000D03*
X+1968500Y-127000D03*
X+1270000Y-1651000D03*
X+2032000Y-1651000D03*
X-889000Y-1905000D03*
X-2413000Y-4318000D03*
X+381000Y-4318000D03*
X-635000Y-2921000D03*
X-2159000Y-2921000D03*
X-190500Y-1778000D03*
X-190500Y-2286000D03*
X-762000Y+2540000D03*
X-635000Y-2286000D03*
X-63500Y-1143000D03*
X-1016000Y-5080000D03*
X-1651000Y-5080000D03*
X-2032000Y-4572000D03*
X-1397000Y-4572000D03*
X-1447801Y-508000D03*
X-1270000Y+2667000D03*
X-1841500Y+2667000D03*
X-1841500Y-2540000D03*
X-4699000Y-2540000D03*
X-1460500Y-4445000D03*
X-4191000Y-2413000D03*
X-254000Y-1016000D03*
X-444500Y+2286000D03*
X-889000Y+2286000D03*
X-635000Y-2032000D03*
X-635000Y-1651000D03*
X-3365500Y-2286000D03*
X-1968500Y+2540000D03*
X-1968500Y-2286000D03*
X-63500Y-1524000D03*
X-63500Y-4699000D03*
X-635000Y-1524000D03*
X-2667000Y+3048000D03*
X-2667000Y-1778000D03*
X-2413000Y-2032000D03*
X-2413000Y+3683000D03*
X-889000Y+3683000D03*
X+190500Y-1333500D03*
X+63500Y-4635500D03*
X+254000Y-4826000D03*
X+3429000Y+1905000D03*
X+3365500Y+3683000D03*
X+254000Y-4953000D03*
X+2667000Y-3429000D03*
X+3175000Y-3429000D03*
X-190500Y-2667000D03*
X+3175000Y-2286000D03*
X+2857500Y+635000D03*
X+3048000Y+381000D03*
X+2857500Y+2794000D03*
X+2921000Y-2794000D03*
X+2921000Y+127000D03*
X+2921000Y+254000D03*
X+2540000Y+254000D03*
X+2540000Y+0D03*
X+2476500Y+2667000D03*
X+3556000Y+1905000D03*
X+3556000Y+2286000D03*
X+3556000Y-508000D03*
X+3683000Y-1270000D03*
X+2794000Y-3810000D03*
X+2730500Y+1778000D03*
X+2730500Y-889000D03*
X+4508500Y+508000D03*
X+4381500Y+254000D03*
X+3810000Y-254000D03*
X+3810000Y+2667000D03*
X+4064000Y+2667000D03*
X+4191000Y+0D03*
X+4191000Y-762000D03*
X+4635500Y+1778000D03*
X+4635500Y-1016000D03*
X+4000500Y+889000D03*
X+825500Y-3683000D03*
X-1333500Y-1524000D03*
X-3556000Y-3810000D03*
X-1270000Y-3683000D03*
X+1270000Y+127000D03*
X-1333500Y+3175000D03*
X-4254500Y+762000D03*
X+3302000Y+4191000D03*
X-3937000Y+2921000D03*
X-2286000Y-3429000D03*
X+4889500Y-1905000D03*
X+1778000Y-2540000D03*
X+4635500Y-1651000D03*
X+2159000Y-1651000D03*
X+5016500Y+1587500D03*
X+2413000Y+1460500D03*
X+5016500Y-63500D03*
X+2667000Y-2413000D03*
X+2413000Y+1143000D03*
X+5016500Y-2032000D03*
X+1778000Y-1397000D03*
X+4762500Y+1270000D03*
X-3429000Y+1143000D03*
X-3238500Y-3937000D03*
X+952500Y-3175000D03*
X+1397000Y-2032000D03*
X+3365500Y-2921000D03*
X+3365500Y-2159000D03*
X+63500Y-889000D03*
X+63500Y-3048000D03*
X+63500Y-2794000D03*
X+1016000Y+3429000D03*
X+1016000Y+1778000D03*
X+635000Y+1778000D03*
X-3111500Y+1524000D03*
X+4572000Y-1143000D03*
X+4381500Y+3429000D03*
X+381000Y-254000D03*
X+4000500Y-2159000D03*
X+4889500Y-2286000D03*
X+2032000Y-1778000D03*
X-2794000Y-1270000D03*
D12*
X-2921000Y+4953000D03*
X-2667000Y+4953000D03*
X-2413000Y+4953000D03*
X-2159000Y+4953000D03*
X-1905000Y+4953000D03*
X-1651000Y+4953000D03*
X-1397000Y+4953000D03*
X-1143000Y+4953000D03*
X-889000Y+4953000D03*
X-635000Y+4953000D03*
X-381000Y+4953000D03*
X-127000Y+4953000D03*
X+127000Y+4953000D03*
X+381000Y+4953000D03*
X+635000Y+4953000D03*
X+889000Y+4953000D03*
X+1143000Y+4953000D03*
X+1397000Y+4953000D03*
X+1651000Y+4953000D03*
X+1905000Y+4953000D03*
X+2159000Y+4953000D03*
X+2413000Y+4953000D03*
X+2667000Y+4953000D03*
X+2921000Y+4953000D03*
X+3175000Y+4953000D03*
X+3429000Y+4953000D03*
X+3683000Y+4953000D03*
X+3937000Y+4953000D03*
X+4191000Y+4953000D03*
X+4445000Y+4953000D03*
X+4699000Y+4953000D03*
X+4953000Y+4953000D03*
X-4953000Y+4953000D03*
X-4699000Y+4953000D03*
X-4445000Y+4953000D03*
X-4191000Y+4953000D03*
X-3937000Y+4953000D03*
X-3683000Y+4953000D03*
X-3429000Y+4953000D03*
X-3175000Y+4953000D03*
X-4953000Y-5461000D03*
X-4699000Y-5461000D03*
X-4445000Y-5461000D03*
X-4191000Y-5461000D03*
X-3937000Y-5461000D03*
X-3683000Y-5461000D03*
X-3429000Y-5461000D03*
X-3175000Y-5461000D03*
X-2921000Y-5461000D03*
X-2667000Y-5461000D03*
X-2413000Y-5461000D03*
X-2159000Y-5461000D03*
X-1905000Y-5461000D03*
X-1651000Y-5461000D03*
X-1397000Y-5461000D03*
X-1143000Y-5461000D03*
X-889000Y-5461000D03*
X-635000Y-5461000D03*
X-381000Y-5461000D03*
X-127000Y-5461000D03*
X+127000Y-5461000D03*
X+381000Y-5461000D03*
X+635000Y-5461000D03*
X+889000Y-5461000D03*
X+1143000Y-5461000D03*
X+1397000Y-5461000D03*
X+1651000Y-5461000D03*
X+1905000Y-5461000D03*
X+2159000Y-5461000D03*
X+2413000Y-5461000D03*
X+2667000Y-5461000D03*
X+2921000Y-5461000D03*
X+3175000Y-5461000D03*
X+3429000Y-5461000D03*
X+3683000Y-5461000D03*
X+3937000Y-5461000D03*
X+4191000Y-5461000D03*
X+4445000Y-5461000D03*
X+4699000Y-5461000D03*
X+4953000Y-5461000D03*
X-5207000Y+4699000D03*
X-5207000Y+4445000D03*
X-5207000Y+4191000D03*
X-5207000Y+3937000D03*
X-5207000Y+3683000D03*
X-5207000Y+3429000D03*
X-5207000Y+3175000D03*
X-5207000Y+2921000D03*
X-5207000Y+2667000D03*
X-5207000Y+2413000D03*
X-5207000Y+2159000D03*
X-5207000Y+1905000D03*
X-5207000Y+1651000D03*
X-5207000Y+1397000D03*
X-5207000Y+1143000D03*
X-5207000Y+889000D03*
X-5207000Y+635000D03*
X-5207000Y+381000D03*
X-5207000Y+127000D03*
X-5207000Y-127000D03*
X-5207000Y-381000D03*
X-5207000Y-635000D03*
X-5207000Y-889000D03*
X-5207000Y-1143000D03*
X-5207000Y-1397000D03*
X-5207000Y-1651000D03*
X-5207000Y-1905000D03*
X-5207000Y-2159000D03*
X-5207000Y-2413000D03*
X-5207000Y-2667000D03*
X-5207000Y-2921000D03*
X-5207000Y-3175000D03*
X-5207000Y-3429000D03*
X-5207000Y-3683000D03*
X-5207000Y-3937000D03*
X-5207000Y-4191000D03*
X-5207000Y-4445000D03*
X-5207000Y-4699000D03*
X-5207000Y-4953000D03*
X-5207000Y-5207000D03*
X+5207000Y+4699000D03*
X+5207000Y+4445000D03*
X+5207000Y+4191000D03*
X+5207000Y+3937000D03*
X+5207000Y+3683000D03*
X+5207000Y+3429000D03*
X+5207000Y+3175000D03*
X+5207000Y+2921000D03*
X+5207000Y+2667000D03*
X+5207000Y+2413000D03*
X+5207000Y+2159000D03*
X+5207000Y+1905000D03*
X+5207000Y+1651000D03*
X+5207000Y+1397000D03*
X+5207000Y+1143000D03*
X+5207000Y+889000D03*
X+5207000Y+635000D03*
X+5207000Y+381000D03*
X+5207000Y+127000D03*
X+5207000Y-127000D03*
X+5207000Y-381000D03*
X+5207000Y-635000D03*
X+5207000Y-889000D03*
X+5207000Y-1143000D03*
X+5207000Y-1397000D03*
X+5207000Y-1651000D03*
X+5207000Y-1905000D03*
X+5207000Y-2159000D03*
X+5207000Y-2413000D03*
X+5207000Y-2667000D03*
X+5207000Y-2921000D03*
X+5207000Y-3175000D03*
X+5207000Y-3429000D03*
X+5207000Y-3683000D03*
X+5207000Y-3937000D03*
X+5207000Y-4191000D03*
X+5207000Y-4445000D03*
X+5207000Y-4699000D03*
X+5207000Y-4953000D03*
X+5207000Y-5207000D03*
X-1651000Y-1778000D03*
X-1651000Y-1524000D03*
X-1651000Y-1270000D03*
X-1651000Y-1016000D03*
X-1651000Y-762000D03*
X-1651000Y-508000D03*
X-1651000Y-254000D03*
X-1651000Y+0D03*
X-4699000Y-1778000D03*
X-4699000Y-1524000D03*
X-4699000Y-1270000D03*
X-4699000Y-1016000D03*
X-4699000Y-762000D03*
X-4699000Y-508000D03*
X-4699000Y-254000D03*
X-4699000Y+0D03*
X-4699000Y+254000D03*
X-4699000Y+508000D03*
X-4699000Y+762000D03*
X-4699000Y+1016000D03*
X-4699000Y+1270000D03*
X-4699000Y+1524000D03*
X-4699000Y+1778000D03*
X-4699000Y+2032000D03*
X-1651000Y+254000D03*
X-1651000Y+508000D03*
X-1651000Y+762000D03*
X-1651000Y+1016000D03*
X-1651000Y+1270000D03*
X-1651000Y+1524000D03*
X-1651000Y+1778000D03*
X-1651000Y+2032000D03*
D13*
X-3683000Y+4318000D03*
D14*
X-3683000Y+4064000D03*
X-3683000Y+3810000D03*
X-3683000Y+3556000D03*
X-3683000Y+3302000D03*
X-3683000Y+3048000D03*
X-3683000Y+2794000D03*
X-3683000Y+2540000D03*
X-2921000Y+2540000D03*
X-2921000Y+2794000D03*
X-2921000Y+3048000D03*
X-2921000Y+3302000D03*
X-2921000Y+3556000D03*
X-2921000Y+3810000D03*
X-2921000Y+4064000D03*
X-2921000Y+4318000D03*
D13*
X-3683000Y+2032000D03*
D14*
X-3683000Y+1778000D03*
X-3683000Y+1524000D03*
X-3683000Y+1270000D03*
X-3683000Y+1016000D03*
X-3683000Y+762000D03*
X-3683000Y+508000D03*
X-2921000Y+508000D03*
X-2921000Y+762000D03*
X-2921000Y+1016000D03*
X-2921000Y+1270000D03*
X-2921000Y+1524000D03*
X-2921000Y+1778000D03*
X-2921000Y+2032000D03*
D13*
X-3683000Y+0D03*
D14*
X-3683000Y-254000D03*
X-3683000Y-508000D03*
X-3683000Y-762000D03*
X-3683000Y-1016000D03*
X-3683000Y-1270000D03*
X-3683000Y-1524000D03*
X-3683000Y-1778000D03*
X-3683000Y-2032000D03*
X-3683000Y-2286000D03*
X-2921000Y-2286000D03*
X-2921000Y-2032000D03*
X-2921000Y-1778000D03*
X-2921000Y-1524000D03*
X-2921000Y-1270000D03*
X-2921000Y-1016000D03*
X-2921000Y-762000D03*
X-2921000Y-508000D03*
X-2921000Y-254000D03*
X-2921000Y+0D03*
D13*
X-3683000Y-2794000D03*
D14*
X-3683000Y-3048000D03*
X-3683000Y-3302000D03*
X-3683000Y-3556000D03*
X-3683000Y-3810000D03*
X-3683000Y-4064000D03*
X-3683000Y-4318000D03*
X-3683000Y-4572000D03*
X-3683000Y-4826000D03*
X-3683000Y-5080000D03*
X-2921000Y-5080000D03*
X-2921000Y-4826000D03*
X-2921000Y-4572000D03*
X-2921000Y-4318000D03*
X-2921000Y-4064000D03*
X-2921000Y-3810000D03*
X-2921000Y-3556000D03*
X-2921000Y-3302000D03*
X-2921000Y-3048000D03*
X-2921000Y-2794000D03*
D13*
X-1016000Y+3810000D03*
D14*
X-1016000Y+3556000D03*
X-1016000Y+3302000D03*
X-1016000Y+3048000D03*
X-1016000Y+2794000D03*
X-1016000Y+2540000D03*
X-1016000Y+2286000D03*
X-1016000Y+2032000D03*
X-1016000Y+1778000D03*
X-1016000Y+1524000D03*
X-1016000Y+1270000D03*
X-1016000Y+1016000D03*
X-1016000Y+762000D03*
X-1016000Y+508000D03*
X+508000Y+508000D03*
X+508000Y+762000D03*
X+508000Y+1016000D03*
X+508000Y+1270000D03*
X+508000Y+1524000D03*
X+508000Y+1778000D03*
X+508000Y+2032000D03*
X+508000Y+2286000D03*
X+508000Y+2540000D03*
X+508000Y+2794000D03*
X+508000Y+3048000D03*
X+508000Y+3302000D03*
X+508000Y+3556000D03*
X+508000Y+3810000D03*
D13*
X-1016000Y-508000D03*
D14*
X-1016000Y-762000D03*
X-1016000Y-1016000D03*
X-1016000Y-1270000D03*
X-1016000Y-1524000D03*
X-1016000Y-1778000D03*
X-1016000Y-2032000D03*
X-1016000Y-2286000D03*
X-1016000Y-2540000D03*
X-1016000Y-2794000D03*
X-1016000Y-3048000D03*
X-1016000Y-3302000D03*
X-1016000Y-3556000D03*
X-1016000Y-3810000D03*
X+508000Y-3810000D03*
X+508000Y-3556000D03*
X+508000Y-3302000D03*
X+508000Y-3048000D03*
X+508000Y-2794000D03*
X+508000Y-2540000D03*
X+508000Y-2286000D03*
X+508000Y-2032000D03*
X+508000Y-1778000D03*
X+508000Y-1524000D03*
X+508000Y-1270000D03*
X+508000Y-1016000D03*
X+508000Y-762000D03*
X+508000Y-508000D03*
D13*
X+1524000Y+3810000D03*
D14*
X+1524000Y+3556000D03*
X+1524000Y+3302000D03*
X+1524000Y+3048000D03*
X+1524000Y+2794000D03*
X+1524000Y+2540000D03*
X+1524000Y+2286000D03*
X+1524000Y+2032000D03*
X+1524000Y+1778000D03*
X+1524000Y+1524000D03*
X+2286000Y+1524000D03*
X+2286000Y+1778000D03*
X+2286000Y+2032000D03*
X+2286000Y+2286000D03*
X+2286000Y+2540000D03*
X+2286000Y+2794000D03*
X+2286000Y+3048000D03*
X+2286000Y+3302000D03*
X+2286000Y+3556000D03*
X+2286000Y+3810000D03*
D13*
X+1524000Y+1016000D03*
D14*
X+1524000Y+762000D03*
X+1524000Y+508000D03*
X+1524000Y+254000D03*
X+1524000Y+0D03*
X+1524000Y-254000D03*
X+1524000Y-508000D03*
X+1524000Y-762000D03*
X+1524000Y-1016000D03*
X+1524000Y-1270000D03*
X+2286000Y-1270000D03*
X+2286000Y-1016000D03*
X+2286000Y-762000D03*
X+2286000Y-508000D03*
X+2286000Y-254000D03*
X+2286000Y+0D03*
X+2286000Y+254000D03*
X+2286000Y+508000D03*
X+2286000Y+762000D03*
X+2286000Y+1016000D03*
D13*
X+1524000Y-1905000D03*
D14*
X+1524000Y-2159000D03*
X+1524000Y-2413000D03*
X+1524000Y-2667000D03*
X+1524000Y-2921000D03*
X+1524000Y-3175000D03*
X+1524000Y-3429000D03*
X+1524000Y-3683000D03*
X+2286000Y-3683000D03*
X+2286000Y-3429000D03*
X+2286000Y-3175000D03*
X+2286000Y-2921000D03*
X+2286000Y-2667000D03*
X+2286000Y-2413000D03*
X+2286000Y-2159000D03*
X+2286000Y-1905000D03*
D13*
X+3302000Y+3810000D03*
D14*
X+3302000Y+3556000D03*
X+3302000Y+3302000D03*
X+3302000Y+3048000D03*
X+3302000Y+2794000D03*
X+3302000Y+2540000D03*
X+3302000Y+2286000D03*
X+3302000Y+2032000D03*
X+3302000Y+1778000D03*
X+3302000Y+1524000D03*
X+4064000Y+1524000D03*
X+4064000Y+1778000D03*
X+4064000Y+2032000D03*
X+4064000Y+2286000D03*
X+4064000Y+2540000D03*
X+4064000Y+2794000D03*
X+4064000Y+3048000D03*
X+4064000Y+3302000D03*
X+4064000Y+3556000D03*
X+4064000Y+3810000D03*
D13*
X+3302000Y+1016000D03*
D14*
X+3302000Y+762000D03*
X+3302000Y+508000D03*
X+3302000Y+254000D03*
X+3302000Y+0D03*
X+3302000Y-254000D03*
X+3302000Y-508000D03*
X+3302000Y-762000D03*
X+3302000Y-1016000D03*
X+3302000Y-1270000D03*
X+4064000Y-1270000D03*
X+4064000Y-1016000D03*
X+4064000Y-762000D03*
X+4064000Y-508000D03*
X+4064000Y-254000D03*
X+4064000Y+0D03*
X+4064000Y+254000D03*
X+4064000Y+508000D03*
X+4064000Y+762000D03*
X+4064000Y+1016000D03*
D13*
X+3302000Y-1778000D03*
D14*
X+3302000Y-2032000D03*
X+3302000Y-2286000D03*
X+3302000Y-2540000D03*
X+3302000Y-2794000D03*
X+3302000Y-3048000D03*
X+3302000Y-3302000D03*
X+3302000Y-3556000D03*
X+3302000Y-3810000D03*
X+3302000Y-4064000D03*
X+4064000Y-4064000D03*
X+4064000Y-3810000D03*
X+4064000Y-3556000D03*
X+4064000Y-3302000D03*
X+4064000Y-3048000D03*
X+4064000Y-2794000D03*
X+4064000Y-2540000D03*
X+4064000Y-2286000D03*
X+4064000Y-2032000D03*
X+4064000Y-1778000D03*
D12*
X+4572000Y-2286000D03*
X+4572000Y-2540000D03*
X+4572000Y-2794000D03*
X+4572000Y-3048000D03*
X+4572000Y-3302000D03*
X+4572000Y-3556000D03*
X+4572000Y-3810000D03*
X+4572000Y-4064000D03*
D15*
X-5461000Y-5715000D02*
X+5461000Y-5715000D01*
X+5461000Y+5207000D01*
X-5461000Y+5207000D01*
X-5461000Y-5715000D01*
M02*
