G04 PROTEUS GERBER X2 FILE*
%TF.GenerationSoftware,Labcenter,Proteus,8.13-SP0-Build31525*%
%TF.CreationDate,2022-07-19T01:12:19+00:00*%
%TF.FileFunction,Soldermask,Top*%
%TF.FilePolarity,Negative*%
%TF.Part,Single*%
%TF.SameCoordinates,{d59f61b6-e7c8-4c59-9098-5d1a923f3759}*%
%FSLAX45Y45*%
%MOMM*%
G01*
%TA.AperFunction,Material*%
%ADD17C,1.016000*%
%AMPPAD008*
4,1,36,
-1.016000,1.143000,
1.016000,1.143000,
1.041970,1.140470,
1.065980,1.133200,
1.087580,1.121650,
1.106290,1.106290,
1.121650,1.087570,
1.133200,1.065980,
1.140470,1.041970,
1.143000,1.016000,
1.143000,-1.016000,
1.140470,-1.041970,
1.133200,-1.065980,
1.121650,-1.087570,
1.106290,-1.106290,
1.087580,-1.121650,
1.065980,-1.133200,
1.041970,-1.140470,
1.016000,-1.143000,
-1.016000,-1.143000,
-1.041970,-1.140470,
-1.065980,-1.133200,
-1.087580,-1.121650,
-1.106290,-1.106290,
-1.121650,-1.087570,
-1.133200,-1.065980,
-1.140470,-1.041970,
-1.143000,-1.016000,
-1.143000,1.016000,
-1.140470,1.041970,
-1.133200,1.065980,
-1.121650,1.087570,
-1.106290,1.106290,
-1.087580,1.121650,
-1.065980,1.133200,
-1.041970,1.140470,
-1.016000,1.143000,
0*%
%ADD18PPAD008*%
%AMPPAD009*
4,1,36,
1.143000,1.016000,
1.143000,-1.016000,
1.140470,-1.041970,
1.133200,-1.065980,
1.121650,-1.087580,
1.106290,-1.106290,
1.087570,-1.121650,
1.065980,-1.133200,
1.041970,-1.140470,
1.016000,-1.143000,
-1.016000,-1.143000,
-1.041970,-1.140470,
-1.065980,-1.133200,
-1.087570,-1.121650,
-1.106290,-1.106290,
-1.121650,-1.087580,
-1.133200,-1.065980,
-1.140470,-1.041970,
-1.143000,-1.016000,
-1.143000,1.016000,
-1.140470,1.041970,
-1.133200,1.065980,
-1.121650,1.087580,
-1.106290,1.106290,
-1.087570,1.121650,
-1.065980,1.133200,
-1.041970,1.140470,
-1.016000,1.143000,
1.016000,1.143000,
1.041970,1.140470,
1.065980,1.133200,
1.087570,1.121650,
1.106290,1.106290,
1.121650,1.087580,
1.133200,1.065980,
1.140470,1.041970,
1.143000,1.016000,
0*%
%ADD19PPAD009*%
%AMPPAD010*
4,1,36,
0.762000,0.635000,
0.762000,-0.635000,
0.759470,-0.660970,
0.752200,-0.684980,
0.740650,-0.706580,
0.725290,-0.725290,
0.706570,-0.740650,
0.684980,-0.752200,
0.660970,-0.759470,
0.635000,-0.762000,
-0.635000,-0.762000,
-0.660970,-0.759470,
-0.684980,-0.752200,
-0.706570,-0.740650,
-0.725290,-0.725290,
-0.740650,-0.706580,
-0.752200,-0.684980,
-0.759470,-0.660970,
-0.762000,-0.635000,
-0.762000,0.635000,
-0.759470,0.660970,
-0.752200,0.684980,
-0.740650,0.706580,
-0.725290,0.725290,
-0.706570,0.740650,
-0.684980,0.752200,
-0.660970,0.759470,
-0.635000,0.762000,
0.635000,0.762000,
0.660970,0.759470,
0.684980,0.752200,
0.706570,0.740650,
0.725290,0.725290,
0.740650,0.706580,
0.752200,0.684980,
0.759470,0.660970,
0.762000,0.635000,
0*%
%TA.AperFunction,Material*%
%ADD70PPAD010*%
%ADD71C,1.524000*%
%TA.AperFunction,Profile*%
%ADD15C,0.203200*%
%TD.AperFunction*%
D17*
X-1270000Y+2794000D03*
X+1333500Y+1905000D03*
X-1016000Y+1143000D03*
X+1270000Y+1143000D03*
X+1270000Y+889000D03*
X+635000Y+889000D03*
X-508000Y+381000D03*
X+1968500Y+381000D03*
X+1143000Y-2794000D03*
X-889000Y-3302000D03*
X-444500Y-127000D03*
X+1968500Y-127000D03*
X+1270000Y-1651000D03*
X+2032000Y-1651000D03*
X-889000Y-1905000D03*
X-2413000Y-4318000D03*
X+381000Y-4318000D03*
X-635000Y-2921000D03*
X-2159000Y-2921000D03*
X-190500Y-1778000D03*
X-190500Y-2286000D03*
X-762000Y+2540000D03*
X-635000Y-2286000D03*
X-63500Y-1143000D03*
X-1016000Y-5080000D03*
X-1651000Y-5080000D03*
X-2032000Y-4572000D03*
X-1397000Y-4572000D03*
X-1447801Y-508000D03*
X-1270000Y+2667000D03*
X-1841500Y+2667000D03*
X-1841500Y-2540000D03*
X-4699000Y-2540000D03*
X-1460500Y-4445000D03*
X-4191000Y-2413000D03*
X-254000Y-1016000D03*
X-444500Y+2286000D03*
X-889000Y+2286000D03*
X-635000Y-2032000D03*
X-635000Y-1651000D03*
X-3365500Y-2286000D03*
X-1968500Y+2540000D03*
X-1968500Y-2286000D03*
X-63500Y-1524000D03*
X-63500Y-4699000D03*
X-635000Y-1524000D03*
X-2667000Y+3048000D03*
X-2667000Y-1778000D03*
X-2413000Y-2032000D03*
X-2413000Y+3683000D03*
X-889000Y+3683000D03*
X+190500Y-1333500D03*
X+63500Y-4635500D03*
X+254000Y-4826000D03*
X+3429000Y+1905000D03*
X+3365500Y+3683000D03*
X+254000Y-4953000D03*
X+2667000Y-3429000D03*
X+3175000Y-3429000D03*
X-190500Y-2667000D03*
X+3175000Y-2286000D03*
X+2857500Y+635000D03*
X+3048000Y+381000D03*
X+2857500Y+2794000D03*
X+2921000Y-2794000D03*
X+2921000Y+127000D03*
X+2921000Y+254000D03*
X+2540000Y+254000D03*
X+2540000Y+0D03*
X+2476500Y+2667000D03*
X+3556000Y+1905000D03*
X+3556000Y+2286000D03*
X+3556000Y-508000D03*
X+3683000Y-1270000D03*
X+2794000Y-3810000D03*
X+2730500Y+1778000D03*
X+2730500Y-889000D03*
X+4508500Y+508000D03*
X+4381500Y+254000D03*
X+3810000Y-254000D03*
X+3810000Y+2667000D03*
X+4064000Y+2667000D03*
X+4191000Y+0D03*
X+4191000Y-762000D03*
X+4635500Y+1778000D03*
X+4635500Y-1016000D03*
X+4000500Y+889000D03*
X+825500Y-3683000D03*
X-1333500Y-1524000D03*
X-3556000Y-3810000D03*
X-1270000Y-3683000D03*
X+1270000Y+127000D03*
X-1333500Y+3175000D03*
X-4254500Y+762000D03*
X+3302000Y+4191000D03*
X-3937000Y+2921000D03*
X-2286000Y-3429000D03*
X+4889500Y-1905000D03*
X+1778000Y-2540000D03*
X+4635500Y-1651000D03*
X+2159000Y-1651000D03*
X+5016500Y+1587500D03*
X+2413000Y+1460500D03*
X+5016500Y-63500D03*
X+2667000Y-2413000D03*
X+2413000Y+1143000D03*
X+5016500Y-2032000D03*
X+1778000Y-1397000D03*
X+4762500Y+1270000D03*
X-3429000Y+1143000D03*
X-3238500Y-3937000D03*
X+952500Y-3175000D03*
X+1397000Y-2032000D03*
X+3365500Y-2921000D03*
X+3365500Y-2159000D03*
X+63500Y-889000D03*
X+63500Y-3048000D03*
X+63500Y-2794000D03*
X+1016000Y+3429000D03*
X+1016000Y+1778000D03*
X+635000Y+1778000D03*
X-3111500Y+1524000D03*
X+4572000Y-1143000D03*
X+4381500Y+3429000D03*
X+381000Y-254000D03*
X+4000500Y-2159000D03*
X+4889500Y-2286000D03*
X+2032000Y-1778000D03*
X-2794000Y-1270000D03*
D18*
X-2921000Y+4953000D03*
X-2667000Y+4953000D03*
X-2413000Y+4953000D03*
X-2159000Y+4953000D03*
X-1905000Y+4953000D03*
X-1651000Y+4953000D03*
X-1397000Y+4953000D03*
X-1143000Y+4953000D03*
X-889000Y+4953000D03*
X-635000Y+4953000D03*
X-381000Y+4953000D03*
X-127000Y+4953000D03*
X+127000Y+4953000D03*
X+381000Y+4953000D03*
X+635000Y+4953000D03*
X+889000Y+4953000D03*
X+1143000Y+4953000D03*
X+1397000Y+4953000D03*
X+1651000Y+4953000D03*
X+1905000Y+4953000D03*
X+2159000Y+4953000D03*
X+2413000Y+4953000D03*
X+2667000Y+4953000D03*
X+2921000Y+4953000D03*
X+3175000Y+4953000D03*
X+3429000Y+4953000D03*
X+3683000Y+4953000D03*
X+3937000Y+4953000D03*
X+4191000Y+4953000D03*
X+4445000Y+4953000D03*
X+4699000Y+4953000D03*
X+4953000Y+4953000D03*
X-4953000Y+4953000D03*
X-4699000Y+4953000D03*
X-4445000Y+4953000D03*
X-4191000Y+4953000D03*
X-3937000Y+4953000D03*
X-3683000Y+4953000D03*
X-3429000Y+4953000D03*
X-3175000Y+4953000D03*
X-4953000Y-5461000D03*
X-4699000Y-5461000D03*
X-4445000Y-5461000D03*
X-4191000Y-5461000D03*
X-3937000Y-5461000D03*
X-3683000Y-5461000D03*
X-3429000Y-5461000D03*
X-3175000Y-5461000D03*
X-2921000Y-5461000D03*
X-2667000Y-5461000D03*
X-2413000Y-5461000D03*
X-2159000Y-5461000D03*
X-1905000Y-5461000D03*
X-1651000Y-5461000D03*
X-1397000Y-5461000D03*
X-1143000Y-5461000D03*
X-889000Y-5461000D03*
X-635000Y-5461000D03*
X-381000Y-5461000D03*
X-127000Y-5461000D03*
X+127000Y-5461000D03*
X+381000Y-5461000D03*
X+635000Y-5461000D03*
X+889000Y-5461000D03*
X+1143000Y-5461000D03*
X+1397000Y-5461000D03*
X+1651000Y-5461000D03*
X+1905000Y-5461000D03*
X+2159000Y-5461000D03*
X+2413000Y-5461000D03*
X+2667000Y-5461000D03*
X+2921000Y-5461000D03*
X+3175000Y-5461000D03*
X+3429000Y-5461000D03*
X+3683000Y-5461000D03*
X+3937000Y-5461000D03*
X+4191000Y-5461000D03*
X+4445000Y-5461000D03*
X+4699000Y-5461000D03*
X+4953000Y-5461000D03*
D19*
X-5207000Y+4699000D03*
X-5207000Y+4445000D03*
X-5207000Y+4191000D03*
X-5207000Y+3937000D03*
X-5207000Y+3683000D03*
X-5207000Y+3429000D03*
X-5207000Y+3175000D03*
X-5207000Y+2921000D03*
X-5207000Y+2667000D03*
X-5207000Y+2413000D03*
X-5207000Y+2159000D03*
X-5207000Y+1905000D03*
X-5207000Y+1651000D03*
X-5207000Y+1397000D03*
X-5207000Y+1143000D03*
X-5207000Y+889000D03*
X-5207000Y+635000D03*
X-5207000Y+381000D03*
X-5207000Y+127000D03*
X-5207000Y-127000D03*
X-5207000Y-381000D03*
X-5207000Y-635000D03*
X-5207000Y-889000D03*
X-5207000Y-1143000D03*
X-5207000Y-1397000D03*
X-5207000Y-1651000D03*
X-5207000Y-1905000D03*
X-5207000Y-2159000D03*
X-5207000Y-2413000D03*
X-5207000Y-2667000D03*
X-5207000Y-2921000D03*
X-5207000Y-3175000D03*
X-5207000Y-3429000D03*
X-5207000Y-3683000D03*
X-5207000Y-3937000D03*
X-5207000Y-4191000D03*
X-5207000Y-4445000D03*
X-5207000Y-4699000D03*
X-5207000Y-4953000D03*
X-5207000Y-5207000D03*
X+5207000Y+4699000D03*
X+5207000Y+4445000D03*
X+5207000Y+4191000D03*
X+5207000Y+3937000D03*
X+5207000Y+3683000D03*
X+5207000Y+3429000D03*
X+5207000Y+3175000D03*
X+5207000Y+2921000D03*
X+5207000Y+2667000D03*
X+5207000Y+2413000D03*
X+5207000Y+2159000D03*
X+5207000Y+1905000D03*
X+5207000Y+1651000D03*
X+5207000Y+1397000D03*
X+5207000Y+1143000D03*
X+5207000Y+889000D03*
X+5207000Y+635000D03*
X+5207000Y+381000D03*
X+5207000Y+127000D03*
X+5207000Y-127000D03*
X+5207000Y-381000D03*
X+5207000Y-635000D03*
X+5207000Y-889000D03*
X+5207000Y-1143000D03*
X+5207000Y-1397000D03*
X+5207000Y-1651000D03*
X+5207000Y-1905000D03*
X+5207000Y-2159000D03*
X+5207000Y-2413000D03*
X+5207000Y-2667000D03*
X+5207000Y-2921000D03*
X+5207000Y-3175000D03*
X+5207000Y-3429000D03*
X+5207000Y-3683000D03*
X+5207000Y-3937000D03*
X+5207000Y-4191000D03*
X+5207000Y-4445000D03*
X+5207000Y-4699000D03*
X+5207000Y-4953000D03*
X+5207000Y-5207000D03*
X-1651000Y-1778000D03*
X-1651000Y-1524000D03*
X-1651000Y-1270000D03*
X-1651000Y-1016000D03*
X-1651000Y-762000D03*
X-1651000Y-508000D03*
X-1651000Y-254000D03*
X-1651000Y+0D03*
X-4699000Y-1778000D03*
X-4699000Y-1524000D03*
X-4699000Y-1270000D03*
X-4699000Y-1016000D03*
X-4699000Y-762000D03*
X-4699000Y-508000D03*
X-4699000Y-254000D03*
X-4699000Y+0D03*
X-4699000Y+254000D03*
X-4699000Y+508000D03*
X-4699000Y+762000D03*
X-4699000Y+1016000D03*
X-4699000Y+1270000D03*
X-4699000Y+1524000D03*
X-4699000Y+1778000D03*
X-4699000Y+2032000D03*
X-1651000Y+254000D03*
X-1651000Y+508000D03*
X-1651000Y+762000D03*
X-1651000Y+1016000D03*
X-1651000Y+1270000D03*
X-1651000Y+1524000D03*
X-1651000Y+1778000D03*
X-1651000Y+2032000D03*
D70*
X-3683000Y+4318000D03*
D71*
X-3683000Y+4064000D03*
X-3683000Y+3810000D03*
X-3683000Y+3556000D03*
X-3683000Y+3302000D03*
X-3683000Y+3048000D03*
X-3683000Y+2794000D03*
X-3683000Y+2540000D03*
X-2921000Y+2540000D03*
X-2921000Y+2794000D03*
X-2921000Y+3048000D03*
X-2921000Y+3302000D03*
X-2921000Y+3556000D03*
X-2921000Y+3810000D03*
X-2921000Y+4064000D03*
X-2921000Y+4318000D03*
D70*
X-3683000Y+2032000D03*
D71*
X-3683000Y+1778000D03*
X-3683000Y+1524000D03*
X-3683000Y+1270000D03*
X-3683000Y+1016000D03*
X-3683000Y+762000D03*
X-3683000Y+508000D03*
X-2921000Y+508000D03*
X-2921000Y+762000D03*
X-2921000Y+1016000D03*
X-2921000Y+1270000D03*
X-2921000Y+1524000D03*
X-2921000Y+1778000D03*
X-2921000Y+2032000D03*
D70*
X-3683000Y+0D03*
D71*
X-3683000Y-254000D03*
X-3683000Y-508000D03*
X-3683000Y-762000D03*
X-3683000Y-1016000D03*
X-3683000Y-1270000D03*
X-3683000Y-1524000D03*
X-3683000Y-1778000D03*
X-3683000Y-2032000D03*
X-3683000Y-2286000D03*
X-2921000Y-2286000D03*
X-2921000Y-2032000D03*
X-2921000Y-1778000D03*
X-2921000Y-1524000D03*
X-2921000Y-1270000D03*
X-2921000Y-1016000D03*
X-2921000Y-762000D03*
X-2921000Y-508000D03*
X-2921000Y-254000D03*
X-2921000Y+0D03*
D70*
X-3683000Y-2794000D03*
D71*
X-3683000Y-3048000D03*
X-3683000Y-3302000D03*
X-3683000Y-3556000D03*
X-3683000Y-3810000D03*
X-3683000Y-4064000D03*
X-3683000Y-4318000D03*
X-3683000Y-4572000D03*
X-3683000Y-4826000D03*
X-3683000Y-5080000D03*
X-2921000Y-5080000D03*
X-2921000Y-4826000D03*
X-2921000Y-4572000D03*
X-2921000Y-4318000D03*
X-2921000Y-4064000D03*
X-2921000Y-3810000D03*
X-2921000Y-3556000D03*
X-2921000Y-3302000D03*
X-2921000Y-3048000D03*
X-2921000Y-2794000D03*
D70*
X-1016000Y+3810000D03*
D71*
X-1016000Y+3556000D03*
X-1016000Y+3302000D03*
X-1016000Y+3048000D03*
X-1016000Y+2794000D03*
X-1016000Y+2540000D03*
X-1016000Y+2286000D03*
X-1016000Y+2032000D03*
X-1016000Y+1778000D03*
X-1016000Y+1524000D03*
X-1016000Y+1270000D03*
X-1016000Y+1016000D03*
X-1016000Y+762000D03*
X-1016000Y+508000D03*
X+508000Y+508000D03*
X+508000Y+762000D03*
X+508000Y+1016000D03*
X+508000Y+1270000D03*
X+508000Y+1524000D03*
X+508000Y+1778000D03*
X+508000Y+2032000D03*
X+508000Y+2286000D03*
X+508000Y+2540000D03*
X+508000Y+2794000D03*
X+508000Y+3048000D03*
X+508000Y+3302000D03*
X+508000Y+3556000D03*
X+508000Y+3810000D03*
D70*
X-1016000Y-508000D03*
D71*
X-1016000Y-762000D03*
X-1016000Y-1016000D03*
X-1016000Y-1270000D03*
X-1016000Y-1524000D03*
X-1016000Y-1778000D03*
X-1016000Y-2032000D03*
X-1016000Y-2286000D03*
X-1016000Y-2540000D03*
X-1016000Y-2794000D03*
X-1016000Y-3048000D03*
X-1016000Y-3302000D03*
X-1016000Y-3556000D03*
X-1016000Y-3810000D03*
X+508000Y-3810000D03*
X+508000Y-3556000D03*
X+508000Y-3302000D03*
X+508000Y-3048000D03*
X+508000Y-2794000D03*
X+508000Y-2540000D03*
X+508000Y-2286000D03*
X+508000Y-2032000D03*
X+508000Y-1778000D03*
X+508000Y-1524000D03*
X+508000Y-1270000D03*
X+508000Y-1016000D03*
X+508000Y-762000D03*
X+508000Y-508000D03*
D70*
X+1524000Y+3810000D03*
D71*
X+1524000Y+3556000D03*
X+1524000Y+3302000D03*
X+1524000Y+3048000D03*
X+1524000Y+2794000D03*
X+1524000Y+2540000D03*
X+1524000Y+2286000D03*
X+1524000Y+2032000D03*
X+1524000Y+1778000D03*
X+1524000Y+1524000D03*
X+2286000Y+1524000D03*
X+2286000Y+1778000D03*
X+2286000Y+2032000D03*
X+2286000Y+2286000D03*
X+2286000Y+2540000D03*
X+2286000Y+2794000D03*
X+2286000Y+3048000D03*
X+2286000Y+3302000D03*
X+2286000Y+3556000D03*
X+2286000Y+3810000D03*
D70*
X+1524000Y+1016000D03*
D71*
X+1524000Y+762000D03*
X+1524000Y+508000D03*
X+1524000Y+254000D03*
X+1524000Y+0D03*
X+1524000Y-254000D03*
X+1524000Y-508000D03*
X+1524000Y-762000D03*
X+1524000Y-1016000D03*
X+1524000Y-1270000D03*
X+2286000Y-1270000D03*
X+2286000Y-1016000D03*
X+2286000Y-762000D03*
X+2286000Y-508000D03*
X+2286000Y-254000D03*
X+2286000Y+0D03*
X+2286000Y+254000D03*
X+2286000Y+508000D03*
X+2286000Y+762000D03*
X+2286000Y+1016000D03*
D70*
X+1524000Y-1905000D03*
D71*
X+1524000Y-2159000D03*
X+1524000Y-2413000D03*
X+1524000Y-2667000D03*
X+1524000Y-2921000D03*
X+1524000Y-3175000D03*
X+1524000Y-3429000D03*
X+1524000Y-3683000D03*
X+2286000Y-3683000D03*
X+2286000Y-3429000D03*
X+2286000Y-3175000D03*
X+2286000Y-2921000D03*
X+2286000Y-2667000D03*
X+2286000Y-2413000D03*
X+2286000Y-2159000D03*
X+2286000Y-1905000D03*
D70*
X+3302000Y+3810000D03*
D71*
X+3302000Y+3556000D03*
X+3302000Y+3302000D03*
X+3302000Y+3048000D03*
X+3302000Y+2794000D03*
X+3302000Y+2540000D03*
X+3302000Y+2286000D03*
X+3302000Y+2032000D03*
X+3302000Y+1778000D03*
X+3302000Y+1524000D03*
X+4064000Y+1524000D03*
X+4064000Y+1778000D03*
X+4064000Y+2032000D03*
X+4064000Y+2286000D03*
X+4064000Y+2540000D03*
X+4064000Y+2794000D03*
X+4064000Y+3048000D03*
X+4064000Y+3302000D03*
X+4064000Y+3556000D03*
X+4064000Y+3810000D03*
D70*
X+3302000Y+1016000D03*
D71*
X+3302000Y+762000D03*
X+3302000Y+508000D03*
X+3302000Y+254000D03*
X+3302000Y+0D03*
X+3302000Y-254000D03*
X+3302000Y-508000D03*
X+3302000Y-762000D03*
X+3302000Y-1016000D03*
X+3302000Y-1270000D03*
X+4064000Y-1270000D03*
X+4064000Y-1016000D03*
X+4064000Y-762000D03*
X+4064000Y-508000D03*
X+4064000Y-254000D03*
X+4064000Y+0D03*
X+4064000Y+254000D03*
X+4064000Y+508000D03*
X+4064000Y+762000D03*
X+4064000Y+1016000D03*
D70*
X+3302000Y-1778000D03*
D71*
X+3302000Y-2032000D03*
X+3302000Y-2286000D03*
X+3302000Y-2540000D03*
X+3302000Y-2794000D03*
X+3302000Y-3048000D03*
X+3302000Y-3302000D03*
X+3302000Y-3556000D03*
X+3302000Y-3810000D03*
X+3302000Y-4064000D03*
X+4064000Y-4064000D03*
X+4064000Y-3810000D03*
X+4064000Y-3556000D03*
X+4064000Y-3302000D03*
X+4064000Y-3048000D03*
X+4064000Y-2794000D03*
X+4064000Y-2540000D03*
X+4064000Y-2286000D03*
X+4064000Y-2032000D03*
X+4064000Y-1778000D03*
D19*
X+4572000Y-2286000D03*
X+4572000Y-2540000D03*
X+4572000Y-2794000D03*
X+4572000Y-3048000D03*
X+4572000Y-3302000D03*
X+4572000Y-3556000D03*
X+4572000Y-3810000D03*
X+4572000Y-4064000D03*
D15*
X-5461000Y-5715000D02*
X+5461000Y-5715000D01*
X+5461000Y+5207000D01*
X-5461000Y+5207000D01*
X-5461000Y-5715000D01*
M02*
