G04 PROTEUS GERBER X2 FILE*
%TF.GenerationSoftware,Labcenter,Proteus,8.13-SP0-Build31525*%
%TF.CreationDate,2022-07-18T15:56:52+00:00*%
%TF.FileFunction,AssemblyDrawing,Top*%
%TF.FilePolarity,Positive*%
%TF.Part,Single*%
%TF.SameCoordinates,{834004b6-de26-4565-9fcf-6b40b17824ff}*%
%FSLAX45Y45*%
%MOMM*%
G01*
%TA.AperFunction,Profile*%
%ADD15C,0.203200*%
%TA.AperFunction,Material*%
%ADD16C,0.203200*%
%ADD20C,0.812800*%
%ADD21C,0.177800*%
%ADD22C,0.154510*%
%ADD23C,0.123610*%
%ADD24C,0.142630*%
%ADD25C,0.508000*%
%ADD26C,0.192910*%
%ADD27C,0.120560*%
%ADD28C,0.130320*%
%ADD29C,0.200420*%
%ADD72C,0.231730*%
%ADD73C,0.256870*%
%TD.AperFunction*%
D15*
X-5461000Y-5715000D02*
X+5461000Y-5715000D01*
X+5461000Y+5207000D01*
X-5461000Y+5207000D01*
X-5461000Y-5715000D01*
D16*
X-3058160Y+4815840D02*
X-1005840Y+4815840D01*
X-1005840Y+5090160D01*
X-3058160Y+5090160D01*
X-3058160Y+4815840D01*
D20*
X-2921000Y+4953000D02*
X-2921000Y+4953000D01*
D21*
X-2263140Y+4935220D02*
X-2263140Y+4917440D01*
X-2243138Y+4899660D01*
X-2163128Y+4899660D01*
X-2143125Y+4917440D01*
X-2143125Y+5006340D01*
X-2083118Y+4953000D02*
X-1983105Y+4953000D01*
X-1943100Y+4899660D02*
X-1943100Y+4970780D01*
X-1903095Y+5006340D01*
X-1863090Y+5006340D01*
X-1823085Y+4970780D01*
X-1823085Y+4899660D01*
X-1943100Y+4935220D02*
X-1823085Y+4935220D01*
X-1663065Y+4917440D02*
X-1683068Y+4899660D01*
X-1743075Y+4899660D01*
X-1783080Y+4935220D01*
X-1783080Y+4970780D01*
X-1743075Y+5006340D01*
X-1683068Y+5006340D01*
X-1663065Y+4988560D01*
D16*
X-1026160Y+4815840D02*
X+1026160Y+4815840D01*
X+1026160Y+5090160D01*
X-1026160Y+5090160D01*
X-1026160Y+4815840D01*
D20*
X-889000Y+4953000D02*
X-889000Y+4953000D01*
D21*
X-471170Y+4935220D02*
X-471170Y+4917440D01*
X-451168Y+4899660D01*
X-371158Y+4899660D01*
X-351155Y+4917440D01*
X-351155Y+5006340D01*
X-291148Y+4953000D02*
X-191135Y+4953000D01*
X-151130Y+4899660D02*
X-151130Y+4970780D01*
X-111125Y+5006340D01*
X-71120Y+5006340D01*
X-31115Y+4970780D01*
X-31115Y+4899660D01*
X-151130Y+4935220D02*
X-31115Y+4935220D01*
X+128905Y+4917440D02*
X+108902Y+4899660D01*
X+48895Y+4899660D01*
X+8890Y+4935220D01*
X+8890Y+4970780D01*
X+48895Y+5006340D01*
X+108902Y+5006340D01*
X+128905Y+4988560D01*
X+188912Y+4953000D02*
X+288925Y+4953000D01*
X+328930Y+4899660D02*
X+328930Y+4970780D01*
X+368935Y+5006340D01*
X+408940Y+5006340D01*
X+448945Y+4970780D01*
X+448945Y+4899660D01*
X+328930Y+4935220D02*
X+448945Y+4935220D01*
X+488950Y+5006340D02*
X+608965Y+5006340D01*
X+548957Y+5006340D02*
X+548957Y+4899660D01*
D16*
X+1005840Y+4815840D02*
X+3058160Y+4815840D01*
X+3058160Y+5090160D01*
X+1005840Y+5090160D01*
X+1005840Y+4815840D01*
D20*
X+1143000Y+4953000D02*
X+1143000Y+4953000D01*
D21*
X+1800860Y+4935220D02*
X+1800860Y+4917440D01*
X+1820862Y+4899660D01*
X+1900872Y+4899660D01*
X+1920875Y+4917440D01*
X+1920875Y+5006340D01*
X+1980882Y+4953000D02*
X+2080895Y+4953000D01*
X+2120900Y+4899660D02*
X+2120900Y+4970780D01*
X+2160905Y+5006340D01*
X+2200910Y+5006340D01*
X+2240915Y+4970780D01*
X+2240915Y+4899660D01*
X+2120900Y+4935220D02*
X+2240915Y+4935220D01*
X+2280920Y+5006340D02*
X+2400935Y+5006340D01*
X+2340927Y+5006340D02*
X+2340927Y+4899660D01*
D16*
X+3037840Y+4815840D02*
X+5090160Y+4815840D01*
X+5090160Y+5090160D01*
X+3037840Y+5090160D01*
X+3037840Y+4815840D01*
D20*
X+3175000Y+4953000D02*
X+3175000Y+4953000D01*
D21*
X+3832860Y+4935220D02*
X+3832860Y+4917440D01*
X+3852862Y+4899660D01*
X+3932872Y+4899660D01*
X+3952875Y+4917440D01*
X+3952875Y+5006340D01*
X+4012882Y+4953000D02*
X+4112895Y+4953000D01*
X+4152900Y+4899660D02*
X+4152900Y+5006340D01*
X+4252912Y+5006340D01*
X+4272915Y+4988560D01*
X+4272915Y+4970780D01*
X+4252912Y+4953000D01*
X+4272915Y+4935220D01*
X+4272915Y+4917440D01*
X+4252912Y+4899660D01*
X+4152900Y+4899660D01*
X+4152900Y+4953000D02*
X+4252912Y+4953000D01*
X+4332922Y+5006340D02*
X+4412932Y+5006340D01*
X+4372927Y+5006340D02*
X+4372927Y+4899660D01*
X+4332922Y+4899660D02*
X+4412932Y+4899660D01*
D16*
X-5090160Y+4815840D02*
X-3037840Y+4815840D01*
X-3037840Y+5090160D01*
X-5090160Y+5090160D01*
X-5090160Y+4815840D01*
D20*
X-4953000Y+4953000D02*
X-4953000Y+4953000D01*
D21*
X-4615180Y+4935220D02*
X-4615180Y+4917440D01*
X-4595178Y+4899660D01*
X-4515168Y+4899660D01*
X-4495165Y+4917440D01*
X-4495165Y+5006340D01*
X-4435158Y+4953000D02*
X-4335145Y+4953000D01*
X-4275138Y+5006340D02*
X-4195128Y+5006340D01*
X-4235133Y+5006340D02*
X-4235133Y+4899660D01*
X-4275138Y+4899660D02*
X-4195128Y+4899660D01*
X-4135120Y+4899660D02*
X-4135120Y+5006340D01*
X-4015105Y+4899660D01*
X-4015105Y+5006340D01*
X-3955098Y+4953000D02*
X-3855085Y+4953000D01*
X-3815080Y+4970780D02*
X-3775075Y+5006340D01*
X-3735070Y+5006340D01*
X-3695065Y+4970780D01*
X-3695065Y+4935220D01*
X-3735070Y+4899660D01*
X-3775075Y+4899660D01*
X-3815080Y+4935220D01*
X-3815080Y+4970780D01*
X-3655060Y+5006340D02*
X-3655060Y+4917440D01*
X-3635058Y+4899660D01*
X-3555048Y+4899660D01*
X-3535045Y+4917440D01*
X-3535045Y+5006340D01*
X-3495040Y+5006340D02*
X-3375025Y+5006340D01*
X-3435033Y+5006340D02*
X-3435033Y+4899660D01*
D16*
X-5090160Y-5598160D02*
X-3037840Y-5598160D01*
X-3037840Y-5323840D01*
X-5090160Y-5323840D01*
X-5090160Y-5598160D01*
D20*
X-4953000Y-5461000D02*
X-4953000Y-5461000D01*
D21*
X-4695190Y-5478780D02*
X-4695190Y-5496560D01*
X-4675188Y-5514340D01*
X-4595178Y-5514340D01*
X-4575175Y-5496560D01*
X-4575175Y-5407660D01*
X-4515168Y-5461000D02*
X-4415155Y-5461000D01*
X-4375150Y-5514340D02*
X-4375150Y-5407660D01*
X-4275138Y-5407660D01*
X-4255135Y-5425440D01*
X-4255135Y-5443220D01*
X-4275138Y-5461000D01*
X-4255135Y-5478780D01*
X-4255135Y-5496560D01*
X-4275138Y-5514340D01*
X-4375150Y-5514340D01*
X-4375150Y-5461000D02*
X-4275138Y-5461000D01*
X-4215130Y-5514340D02*
X-4215130Y-5443220D01*
X-4175125Y-5407660D01*
X-4135120Y-5407660D01*
X-4095115Y-5443220D01*
X-4095115Y-5514340D01*
X-4215130Y-5478780D02*
X-4095115Y-5478780D01*
X-3955098Y-5407660D02*
X-4015105Y-5407660D01*
X-4015105Y-5514340D01*
X-3955098Y-5514340D01*
X-3895090Y-5496560D02*
X-3895090Y-5425440D01*
X-3875088Y-5407660D01*
X-3795078Y-5407660D01*
X-3775075Y-5425440D01*
X-3775075Y-5496560D01*
X-3795078Y-5514340D01*
X-3875088Y-5514340D01*
X-3895090Y-5496560D01*
X-3895090Y-5514340D02*
X-3775075Y-5407660D01*
X-3715068Y-5461000D02*
X-3615055Y-5461000D01*
X-3555048Y-5407660D02*
X-3455035Y-5407660D01*
X-3455035Y-5425440D01*
X-3555048Y-5514340D01*
X-3375025Y-5407660D02*
X-3315018Y-5407660D01*
X-3315018Y-5514340D01*
X-3375025Y-5514340D01*
D16*
X-3058160Y-5598160D02*
X-1005840Y-5598160D01*
X-1005840Y-5323840D01*
X-3058160Y-5323840D01*
X-3058160Y-5598160D01*
D20*
X-2921000Y-5461000D02*
X-2921000Y-5461000D01*
D21*
X-2743200Y-5478780D02*
X-2743200Y-5496560D01*
X-2723198Y-5514340D01*
X-2643188Y-5514340D01*
X-2623185Y-5496560D01*
X-2623185Y-5407660D01*
X-2563178Y-5461000D02*
X-2463165Y-5461000D01*
X-2423160Y-5514340D02*
X-2423160Y-5407660D01*
X-2323148Y-5407660D01*
X-2303145Y-5425440D01*
X-2303145Y-5443220D01*
X-2323148Y-5461000D01*
X-2303145Y-5478780D01*
X-2303145Y-5496560D01*
X-2323148Y-5514340D01*
X-2423160Y-5514340D01*
X-2423160Y-5461000D02*
X-2323148Y-5461000D01*
X-2263140Y-5514340D02*
X-2263140Y-5443220D01*
X-2223135Y-5407660D01*
X-2183130Y-5407660D01*
X-2143125Y-5443220D01*
X-2143125Y-5514340D01*
X-2263140Y-5478780D02*
X-2143125Y-5478780D01*
X-2003108Y-5407660D02*
X-2063115Y-5407660D01*
X-2063115Y-5514340D01*
X-2003108Y-5514340D01*
X-1903095Y-5461000D02*
X-1923098Y-5443220D01*
X-1923098Y-5425440D01*
X-1903095Y-5407660D01*
X-1843088Y-5407660D01*
X-1823085Y-5425440D01*
X-1823085Y-5443220D01*
X-1843088Y-5461000D01*
X-1903095Y-5461000D01*
X-1923098Y-5478780D01*
X-1923098Y-5496560D01*
X-1903095Y-5514340D01*
X-1843088Y-5514340D01*
X-1823085Y-5496560D01*
X-1823085Y-5478780D01*
X-1843088Y-5461000D01*
X-1763078Y-5461000D02*
X-1663065Y-5461000D01*
X-1583055Y-5443220D02*
X-1543050Y-5407660D01*
X-1543050Y-5514340D01*
X-1343025Y-5407660D02*
X-1443038Y-5407660D01*
X-1443038Y-5443220D01*
X-1363028Y-5443220D01*
X-1343025Y-5461000D01*
X-1343025Y-5496560D01*
X-1363028Y-5514340D01*
X-1423035Y-5514340D01*
X-1443038Y-5496560D01*
X-1263015Y-5407660D02*
X-1203008Y-5407660D01*
X-1203008Y-5514340D01*
X-1263015Y-5514340D01*
D16*
X-1026160Y-5598160D02*
X+1026160Y-5598160D01*
X+1026160Y-5323840D01*
X-1026160Y-5323840D01*
X-1026160Y-5598160D01*
D20*
X-889000Y-5461000D02*
X-889000Y-5461000D01*
D21*
X-231140Y-5478780D02*
X-231140Y-5496560D01*
X-211138Y-5514340D01*
X-131128Y-5514340D01*
X-111125Y-5496560D01*
X-111125Y-5407660D01*
X-51118Y-5461000D02*
X+48895Y-5461000D01*
X+88900Y-5514340D02*
X+88900Y-5407660D01*
X+188912Y-5407660D01*
X+208915Y-5425440D01*
X+208915Y-5443220D01*
X+188912Y-5461000D01*
X+208915Y-5478780D01*
X+208915Y-5496560D01*
X+188912Y-5514340D01*
X+88900Y-5514340D01*
X+88900Y-5461000D02*
X+188912Y-5461000D01*
X+248920Y-5514340D02*
X+248920Y-5407660D01*
X+328930Y-5407660D01*
X+368935Y-5443220D01*
X+368935Y-5478780D01*
X+328930Y-5514340D01*
X+248920Y-5514340D01*
D16*
X+1005840Y-5598160D02*
X+3058160Y-5598160D01*
X+3058160Y-5323840D01*
X+1005840Y-5323840D01*
X+1005840Y-5598160D01*
D20*
X+1143000Y-5461000D02*
X+1143000Y-5461000D01*
D21*
X+1400810Y-5478780D02*
X+1400810Y-5496560D01*
X+1420812Y-5514340D01*
X+1500822Y-5514340D01*
X+1520825Y-5496560D01*
X+1520825Y-5407660D01*
X+1580832Y-5461000D02*
X+1680845Y-5461000D01*
X+1720850Y-5514340D02*
X+1720850Y-5407660D01*
X+1820862Y-5407660D01*
X+1840865Y-5425440D01*
X+1840865Y-5443220D01*
X+1820862Y-5461000D01*
X+1840865Y-5478780D01*
X+1840865Y-5496560D01*
X+1820862Y-5514340D01*
X+1720850Y-5514340D01*
X+1720850Y-5461000D02*
X+1820862Y-5461000D01*
X+1880870Y-5407660D02*
X+1880870Y-5496560D01*
X+1900872Y-5514340D01*
X+1980882Y-5514340D01*
X+2000885Y-5496560D01*
X+2000885Y-5407660D01*
X+2140902Y-5407660D02*
X+2080895Y-5407660D01*
X+2080895Y-5514340D01*
X+2140902Y-5514340D01*
X+2200910Y-5496560D02*
X+2200910Y-5425440D01*
X+2220912Y-5407660D01*
X+2300922Y-5407660D01*
X+2320925Y-5425440D01*
X+2320925Y-5496560D01*
X+2300922Y-5514340D01*
X+2220912Y-5514340D01*
X+2200910Y-5496560D01*
X+2200910Y-5514340D02*
X+2320925Y-5407660D01*
X+2380932Y-5461000D02*
X+2480945Y-5461000D01*
X+2540952Y-5407660D02*
X+2640965Y-5407660D01*
X+2640965Y-5425440D01*
X+2540952Y-5514340D01*
X+2720975Y-5407660D02*
X+2780982Y-5407660D01*
X+2780982Y-5514340D01*
X+2720975Y-5514340D01*
D16*
X+3037840Y-5598160D02*
X+5090160Y-5598160D01*
X+5090160Y-5323840D01*
X+3037840Y-5323840D01*
X+3037840Y-5598160D01*
D20*
X+3175000Y-5461000D02*
X+3175000Y-5461000D01*
D21*
X+3352800Y-5478780D02*
X+3352800Y-5496560D01*
X+3372802Y-5514340D01*
X+3452812Y-5514340D01*
X+3472815Y-5496560D01*
X+3472815Y-5407660D01*
X+3532822Y-5461000D02*
X+3632835Y-5461000D01*
X+3672840Y-5514340D02*
X+3672840Y-5407660D01*
X+3772852Y-5407660D01*
X+3792855Y-5425440D01*
X+3792855Y-5443220D01*
X+3772852Y-5461000D01*
X+3792855Y-5478780D01*
X+3792855Y-5496560D01*
X+3772852Y-5514340D01*
X+3672840Y-5514340D01*
X+3672840Y-5461000D02*
X+3772852Y-5461000D01*
X+3832860Y-5407660D02*
X+3832860Y-5496560D01*
X+3852862Y-5514340D01*
X+3932872Y-5514340D01*
X+3952875Y-5496560D01*
X+3952875Y-5407660D01*
X+4092892Y-5407660D02*
X+4032885Y-5407660D01*
X+4032885Y-5514340D01*
X+4092892Y-5514340D01*
X+4192905Y-5461000D02*
X+4172902Y-5443220D01*
X+4172902Y-5425440D01*
X+4192905Y-5407660D01*
X+4252912Y-5407660D01*
X+4272915Y-5425440D01*
X+4272915Y-5443220D01*
X+4252912Y-5461000D01*
X+4192905Y-5461000D01*
X+4172902Y-5478780D01*
X+4172902Y-5496560D01*
X+4192905Y-5514340D01*
X+4252912Y-5514340D01*
X+4272915Y-5496560D01*
X+4272915Y-5478780D01*
X+4252912Y-5461000D01*
X+4332922Y-5461000D02*
X+4432935Y-5461000D01*
X+4512945Y-5443220D02*
X+4552950Y-5407660D01*
X+4552950Y-5514340D01*
X+4752975Y-5407660D02*
X+4652962Y-5407660D01*
X+4652962Y-5443220D01*
X+4732972Y-5443220D01*
X+4752975Y-5461000D01*
X+4752975Y-5496560D01*
X+4732972Y-5514340D01*
X+4672965Y-5514340D01*
X+4652962Y-5496560D01*
X+4832985Y-5407660D02*
X+4892992Y-5407660D01*
X+4892992Y-5514340D01*
X+4832985Y-5514340D01*
D16*
X-5344160Y+2783840D02*
X-5069840Y+2783840D01*
X-5069840Y+4836160D01*
X-5344160Y+4836160D01*
X-5344160Y+2783840D01*
D20*
X-5207000Y+4699000D02*
X-5207000Y+4699000D01*
D21*
X-5189220Y+2921000D02*
X-5171440Y+2921000D01*
X-5153660Y+2941002D01*
X-5153660Y+3021012D01*
X-5171440Y+3041015D01*
X-5260340Y+3041015D01*
X-5207000Y+3101022D02*
X-5207000Y+3201035D01*
X-5171440Y+3241040D02*
X-5153660Y+3261042D01*
X-5153660Y+3341052D01*
X-5171440Y+3361055D01*
X-5189220Y+3361055D01*
X-5207000Y+3341052D01*
X-5207000Y+3261042D01*
X-5224780Y+3241040D01*
X-5242560Y+3241040D01*
X-5260340Y+3261042D01*
X-5260340Y+3341052D01*
X-5242560Y+3361055D01*
X-5171440Y+3521075D02*
X-5153660Y+3501072D01*
X-5153660Y+3441065D01*
X-5189220Y+3401060D01*
X-5224780Y+3401060D01*
X-5260340Y+3441065D01*
X-5260340Y+3501072D01*
X-5242560Y+3521075D01*
X-5207000Y+3581082D02*
X-5207000Y+3681095D01*
X-5171440Y+3721100D02*
X-5153660Y+3741102D01*
X-5153660Y+3821112D01*
X-5171440Y+3841115D01*
X-5189220Y+3841115D01*
X-5207000Y+3821112D01*
X-5207000Y+3741102D01*
X-5224780Y+3721100D01*
X-5242560Y+3721100D01*
X-5260340Y+3741102D01*
X-5260340Y+3821112D01*
X-5242560Y+3841115D01*
X-5153660Y+3881120D02*
X-5260340Y+3881120D01*
X-5260340Y+3961130D01*
X-5224780Y+4001135D01*
X-5189220Y+4001135D01*
X-5153660Y+3961130D01*
X-5153660Y+3881120D01*
X-5207000Y+4061142D02*
X-5207000Y+4161155D01*
X-5171440Y+4201160D02*
X-5153660Y+4221162D01*
X-5153660Y+4301172D01*
X-5171440Y+4321175D01*
X-5189220Y+4321175D01*
X-5207000Y+4301172D01*
X-5207000Y+4221162D01*
X-5224780Y+4201160D01*
X-5242560Y+4201160D01*
X-5260340Y+4221162D01*
X-5260340Y+4301172D01*
X-5242560Y+4321175D01*
X-5171440Y+4361180D02*
X-5153660Y+4381182D01*
X-5153660Y+4461192D01*
X-5171440Y+4481195D01*
X-5189220Y+4481195D01*
X-5207000Y+4461192D01*
X-5207000Y+4381182D01*
X-5224780Y+4361180D01*
X-5242560Y+4361180D01*
X-5260340Y+4381182D01*
X-5260340Y+4461192D01*
X-5242560Y+4481195D01*
D16*
X-5344160Y+751840D02*
X-5069840Y+751840D01*
X-5069840Y+2804160D01*
X-5344160Y+2804160D01*
X-5344160Y+751840D01*
D20*
X-5207000Y+2667000D02*
X-5207000Y+2667000D01*
D21*
X-5189220Y+1129030D02*
X-5171440Y+1129030D01*
X-5153660Y+1149032D01*
X-5153660Y+1229042D01*
X-5171440Y+1249045D01*
X-5260340Y+1249045D01*
X-5207000Y+1309052D02*
X-5207000Y+1409065D01*
X-5153660Y+1449070D02*
X-5260340Y+1449070D01*
X-5260340Y+1549082D01*
X-5242560Y+1569085D01*
X-5224780Y+1569085D01*
X-5207000Y+1549082D01*
X-5207000Y+1449070D01*
X-5207000Y+1549082D02*
X-5189220Y+1569085D01*
X-5153660Y+1569085D01*
X-5153660Y+1609090D02*
X-5260340Y+1609090D01*
X-5260340Y+1709102D01*
X-5242560Y+1729105D01*
X-5224780Y+1729105D01*
X-5207000Y+1709102D01*
X-5207000Y+1609090D01*
X-5207000Y+1789112D02*
X-5207000Y+1889125D01*
X-5153660Y+1929130D02*
X-5260340Y+1929130D01*
X-5260340Y+2029142D01*
X-5242560Y+2049145D01*
X-5224780Y+2049145D01*
X-5207000Y+2029142D01*
X-5207000Y+1929130D01*
X-5207000Y+2029142D02*
X-5189220Y+2049145D01*
X-5153660Y+2049145D01*
X-5171440Y+2089150D02*
X-5153660Y+2109152D01*
X-5153660Y+2189162D01*
X-5171440Y+2209165D01*
X-5189220Y+2209165D01*
X-5207000Y+2189162D01*
X-5207000Y+2109152D01*
X-5224780Y+2089150D01*
X-5242560Y+2089150D01*
X-5260340Y+2109152D01*
X-5260340Y+2189162D01*
X-5242560Y+2209165D01*
D16*
X-5344160Y-1280160D02*
X-5069840Y-1280160D01*
X-5069840Y+772160D01*
X-5344160Y+772160D01*
X-5344160Y-1280160D01*
D20*
X-5207000Y+635000D02*
X-5207000Y+635000D01*
D21*
X-5189220Y-1143000D02*
X-5171440Y-1143000D01*
X-5153660Y-1122998D01*
X-5153660Y-1042988D01*
X-5171440Y-1022985D01*
X-5260340Y-1022985D01*
X-5207000Y-962978D02*
X-5207000Y-862965D01*
X-5153660Y-822960D02*
X-5260340Y-822960D01*
X-5260340Y-722948D01*
X-5242560Y-702945D01*
X-5224780Y-702945D01*
X-5207000Y-722948D01*
X-5207000Y-822960D01*
X-5207000Y-722948D02*
X-5189220Y-702945D01*
X-5153660Y-702945D01*
X-5153660Y-662940D02*
X-5224780Y-662940D01*
X-5260340Y-622935D01*
X-5260340Y-582930D01*
X-5224780Y-542925D01*
X-5153660Y-542925D01*
X-5189220Y-662940D02*
X-5189220Y-542925D01*
X-5207000Y-482918D02*
X-5207000Y-382905D01*
X-5153660Y-342900D02*
X-5260340Y-342900D01*
X-5260340Y-242888D01*
X-5242560Y-222885D01*
X-5224780Y-222885D01*
X-5207000Y-242888D01*
X-5207000Y-342900D01*
X-5207000Y-242888D02*
X-5189220Y-222885D01*
X-5153660Y-222885D01*
X-5153660Y-182880D02*
X-5260340Y-182880D01*
X-5260340Y-82868D01*
X-5242560Y-62865D01*
X-5224780Y-62865D01*
X-5207000Y-82868D01*
X-5189220Y-62865D01*
X-5171440Y-62865D01*
X-5153660Y-82868D01*
X-5153660Y-182880D01*
X-5207000Y-182880D02*
X-5207000Y-82868D01*
X-5207000Y-2858D02*
X-5207000Y+97155D01*
X-5153660Y+137160D02*
X-5260340Y+137160D01*
X-5260340Y+237172D01*
X-5242560Y+257175D01*
X-5224780Y+257175D01*
X-5207000Y+237172D01*
X-5207000Y+137160D01*
X-5207000Y+237172D02*
X-5189220Y+257175D01*
X-5153660Y+257175D01*
X-5171440Y+417195D02*
X-5153660Y+397192D01*
X-5153660Y+337185D01*
X-5189220Y+297180D01*
X-5224780Y+297180D01*
X-5260340Y+337185D01*
X-5260340Y+397192D01*
X-5242560Y+417195D01*
D16*
X-5344160Y-3312160D02*
X-5069840Y-3312160D01*
X-5069840Y-1259840D01*
X-5344160Y-1259840D01*
X-5344160Y-3312160D01*
D20*
X-5207000Y-1397000D02*
X-5207000Y-1397000D01*
D22*
X-5191548Y-3209284D02*
X-5176096Y-3209284D01*
X-5160645Y-3191901D01*
X-5160645Y-3122369D01*
X-5176096Y-3104986D01*
X-5253354Y-3104986D01*
X-5207000Y-3052837D02*
X-5207000Y-2965922D01*
X-5160645Y-2931156D02*
X-5253354Y-2931156D01*
X-5253354Y-2844241D01*
X-5237903Y-2826858D01*
X-5222451Y-2826858D01*
X-5207000Y-2844241D01*
X-5207000Y-2931156D01*
X-5207000Y-2844241D02*
X-5191548Y-2826858D01*
X-5160645Y-2826858D01*
X-5160645Y-2792092D02*
X-5253354Y-2792092D01*
X-5253354Y-2722560D01*
X-5222451Y-2687794D01*
X-5191548Y-2687794D01*
X-5160645Y-2722560D01*
X-5160645Y-2792092D01*
X-5207000Y-2635645D02*
X-5207000Y-2548730D01*
X-5160645Y-2513964D02*
X-5253354Y-2513964D01*
X-5207000Y-2461815D01*
X-5253354Y-2409666D01*
X-5160645Y-2409666D01*
X-5160645Y-2270602D02*
X-5160645Y-2374900D01*
X-5253354Y-2374900D01*
X-5253354Y-2270602D01*
X-5207000Y-2374900D02*
X-5207000Y-2305368D01*
X-5160645Y-2235836D02*
X-5253354Y-2235836D01*
X-5207000Y-2183687D01*
X-5253354Y-2131538D01*
X-5160645Y-2131538D01*
X-5207000Y-2079389D02*
X-5207000Y-1992474D01*
X-5176096Y-1853410D02*
X-5160645Y-1870793D01*
X-5160645Y-1922942D01*
X-5191548Y-1957708D01*
X-5222451Y-1957708D01*
X-5253354Y-1922942D01*
X-5253354Y-1870793D01*
X-5237903Y-1853410D01*
X-5160645Y-1818644D02*
X-5253354Y-1818644D01*
X-5253354Y-1714346D02*
X-5160645Y-1714346D01*
X-5207000Y-1818644D02*
X-5207000Y-1714346D01*
X-5253354Y-1679580D02*
X-5160645Y-1679580D01*
X-5253354Y-1575282D02*
X-5207000Y-1627431D01*
X-5160645Y-1575282D01*
X-5207000Y-1679580D02*
X-5207000Y-1627431D01*
D16*
X-5344160Y-5344160D02*
X-5069840Y-5344160D01*
X-5069840Y-3291840D01*
X-5344160Y-3291840D01*
X-5344160Y-5344160D01*
D20*
X-5207000Y-3429000D02*
X-5207000Y-3429000D01*
D21*
X-5189220Y-5126990D02*
X-5171440Y-5126990D01*
X-5153660Y-5106988D01*
X-5153660Y-5026978D01*
X-5171440Y-5006975D01*
X-5260340Y-5006975D01*
X-5207000Y-4946968D02*
X-5207000Y-4846955D01*
X-5171440Y-4686935D02*
X-5153660Y-4706938D01*
X-5153660Y-4766945D01*
X-5189220Y-4806950D01*
X-5224780Y-4806950D01*
X-5260340Y-4766945D01*
X-5260340Y-4706938D01*
X-5242560Y-4686935D01*
X-5153660Y-4646930D02*
X-5260340Y-4646930D01*
X-5260340Y-4526915D02*
X-5153660Y-4526915D01*
X-5207000Y-4646930D02*
X-5207000Y-4526915D01*
X-5260340Y-4486910D02*
X-5153660Y-4486910D01*
X-5260340Y-4366895D02*
X-5207000Y-4426903D01*
X-5153660Y-4366895D01*
X-5207000Y-4486910D02*
X-5207000Y-4426903D01*
X-5207000Y-4306888D02*
X-5207000Y-4206875D01*
X-5153660Y-4166870D02*
X-5224780Y-4166870D01*
X-5260340Y-4126865D01*
X-5260340Y-4086860D01*
X-5224780Y-4046855D01*
X-5153660Y-4046855D01*
X-5189220Y-4166870D02*
X-5189220Y-4046855D01*
X-5260340Y-4006850D02*
X-5153660Y-4006850D01*
X-5153660Y-3886835D01*
X-5260340Y-3846830D02*
X-5171440Y-3846830D01*
X-5153660Y-3826828D01*
X-5153660Y-3746818D01*
X-5171440Y-3726815D01*
X-5260340Y-3726815D01*
D16*
X+5069840Y+2783840D02*
X+5344160Y+2783840D01*
X+5344160Y+4836160D01*
X+5069840Y+4836160D01*
X+5069840Y+2783840D01*
D20*
X+5207000Y+4699000D02*
X+5207000Y+4699000D01*
D21*
X+5224780Y+3081020D02*
X+5242560Y+3081020D01*
X+5260340Y+3101022D01*
X+5260340Y+3181032D01*
X+5242560Y+3201035D01*
X+5153660Y+3201035D01*
X+5207000Y+3261042D02*
X+5207000Y+3361055D01*
X+5260340Y+3401060D02*
X+5189220Y+3401060D01*
X+5153660Y+3441065D01*
X+5153660Y+3481070D01*
X+5189220Y+3521075D01*
X+5260340Y+3521075D01*
X+5224780Y+3401060D02*
X+5224780Y+3521075D01*
X+5153660Y+3561080D02*
X+5260340Y+3561080D01*
X+5260340Y+3681095D01*
X+5153660Y+3721100D02*
X+5242560Y+3721100D01*
X+5260340Y+3741102D01*
X+5260340Y+3821112D01*
X+5242560Y+3841115D01*
X+5153660Y+3841115D01*
X+5207000Y+3901122D02*
X+5207000Y+4001135D01*
X+5260340Y+4041140D02*
X+5153660Y+4041140D01*
X+5153660Y+4141152D01*
X+5171440Y+4161155D01*
X+5189220Y+4161155D01*
X+5207000Y+4141152D01*
X+5207000Y+4041140D01*
X+5207000Y+4141152D02*
X+5224780Y+4161155D01*
X+5260340Y+4161155D01*
X+5153660Y+4201160D02*
X+5153660Y+4321175D01*
X+5153660Y+4261167D02*
X+5260340Y+4261167D01*
D16*
X+5069840Y+751840D02*
X+5344160Y+751840D01*
X+5344160Y+2804160D01*
X+5069840Y+2804160D01*
X+5069840Y+751840D01*
D20*
X+5207000Y+2667000D02*
X+5207000Y+2667000D01*
D23*
X+5219361Y+854718D02*
X+5231723Y+854718D01*
X+5244084Y+868624D01*
X+5244084Y+924249D01*
X+5231723Y+938156D01*
X+5169916Y+938156D01*
X+5207000Y+979875D02*
X+5207000Y+1049407D01*
X+5244084Y+1077220D02*
X+5169916Y+1077220D01*
X+5169916Y+1146751D01*
X+5182277Y+1160658D01*
X+5194639Y+1160658D01*
X+5207000Y+1146751D01*
X+5207000Y+1077220D01*
X+5207000Y+1146751D02*
X+5219361Y+1160658D01*
X+5244084Y+1160658D01*
X+5169916Y+1202377D02*
X+5169916Y+1258002D01*
X+5169916Y+1230190D02*
X+5244084Y+1230190D01*
X+5244084Y+1202377D02*
X+5244084Y+1258002D01*
X+5207000Y+1313628D02*
X+5207000Y+1383160D01*
X+5244084Y+1410973D02*
X+5169916Y+1410973D01*
X+5169916Y+1480504D01*
X+5182277Y+1494411D01*
X+5194639Y+1494411D01*
X+5207000Y+1480504D01*
X+5207000Y+1410973D01*
X+5207000Y+1480504D02*
X+5219361Y+1494411D01*
X+5244084Y+1494411D01*
X+5244084Y+1522224D02*
X+5169916Y+1522224D01*
X+5169916Y+1605662D01*
X+5207000Y+1522224D02*
X+5207000Y+1577849D01*
X+5207000Y+1647381D02*
X+5207000Y+1716913D01*
X+5244084Y+1744726D02*
X+5169916Y+1744726D01*
X+5169916Y+1814257D01*
X+5182277Y+1828164D01*
X+5194639Y+1828164D01*
X+5207000Y+1814257D01*
X+5207000Y+1744726D01*
X+5207000Y+1814257D02*
X+5219361Y+1828164D01*
X+5244084Y+1828164D01*
X+5244084Y+1855977D02*
X+5194639Y+1855977D01*
X+5169916Y+1883789D01*
X+5169916Y+1911602D01*
X+5194639Y+1939415D01*
X+5244084Y+1939415D01*
X+5219361Y+1855977D02*
X+5219361Y+1939415D01*
X+5169916Y+1967228D02*
X+5244084Y+1967228D01*
X+5244084Y+2050666D01*
X+5207000Y+2092385D02*
X+5207000Y+2161917D01*
X+5244084Y+2189730D02*
X+5169916Y+2189730D01*
X+5169916Y+2259261D01*
X+5182277Y+2273168D01*
X+5194639Y+2273168D01*
X+5207000Y+2259261D01*
X+5207000Y+2189730D01*
X+5207000Y+2259261D02*
X+5219361Y+2273168D01*
X+5244084Y+2273168D01*
X+5244084Y+2300981D02*
X+5194639Y+2300981D01*
X+5169916Y+2328793D01*
X+5169916Y+2356606D01*
X+5194639Y+2384419D01*
X+5244084Y+2384419D01*
X+5219361Y+2300981D02*
X+5219361Y+2384419D01*
X+5244084Y+2412232D02*
X+5169916Y+2412232D01*
X+5169916Y+2495670D02*
X+5244084Y+2495670D01*
X+5207000Y+2412232D02*
X+5207000Y+2495670D01*
D16*
X+5069840Y-1280160D02*
X+5344160Y-1280160D01*
X+5344160Y+772160D01*
X+5069840Y+772160D01*
X+5069840Y-1280160D01*
D20*
X+5207000Y+635000D02*
X+5207000Y+635000D01*
D24*
X+5221263Y-1177285D02*
X+5235526Y-1177285D01*
X+5249789Y-1161240D01*
X+5249789Y-1097056D01*
X+5235526Y-1081010D01*
X+5164211Y-1081010D01*
X+5207000Y-1032873D02*
X+5207000Y-952643D01*
X+5235526Y-920551D02*
X+5249789Y-904506D01*
X+5249789Y-840322D01*
X+5235526Y-824276D01*
X+5221263Y-824276D01*
X+5207000Y-840322D01*
X+5207000Y-904506D01*
X+5192737Y-920551D01*
X+5178474Y-920551D01*
X+5164211Y-904506D01*
X+5164211Y-840322D01*
X+5178474Y-824276D01*
X+5164211Y-776139D02*
X+5164211Y-711955D01*
X+5164211Y-744047D02*
X+5249789Y-744047D01*
X+5249789Y-776139D02*
X+5249789Y-711955D01*
X+5221263Y-599634D02*
X+5221263Y-567542D01*
X+5249789Y-567542D01*
X+5249789Y-631726D01*
X+5221263Y-663817D01*
X+5192737Y-663817D01*
X+5164211Y-631726D01*
X+5164211Y-583588D01*
X+5178474Y-567542D01*
X+5207000Y-519405D02*
X+5207000Y-439175D01*
X+5249789Y-407083D02*
X+5164211Y-407083D01*
X+5164211Y-342900D01*
X+5192737Y-310808D01*
X+5221263Y-310808D01*
X+5249789Y-342900D01*
X+5249789Y-407083D01*
X+5249789Y-182441D02*
X+5249789Y-278716D01*
X+5164211Y-278716D01*
X+5164211Y-182441D01*
X+5207000Y-278716D02*
X+5207000Y-214533D01*
X+5164211Y-150349D02*
X+5207000Y-150349D01*
X+5249789Y-102212D01*
X+5207000Y-54074D01*
X+5164211Y-54074D01*
X+5207000Y-5937D02*
X+5207000Y+74293D01*
X+5249789Y+106385D02*
X+5164211Y+106385D01*
X+5164211Y+186614D01*
X+5178474Y+202660D01*
X+5192737Y+202660D01*
X+5207000Y+186614D01*
X+5207000Y+106385D01*
X+5207000Y+186614D02*
X+5221263Y+202660D01*
X+5249789Y+202660D01*
X+5192737Y+234752D02*
X+5164211Y+266843D01*
X+5164211Y+298935D01*
X+5192737Y+331027D01*
X+5221263Y+331027D01*
X+5249789Y+298935D01*
X+5249789Y+266843D01*
X+5221263Y+234752D01*
X+5192737Y+234752D01*
X+5249789Y+363119D02*
X+5164211Y+363119D01*
X+5207000Y+411256D01*
X+5164211Y+459394D01*
X+5249789Y+459394D01*
D16*
X+5069840Y-3312160D02*
X+5344160Y-3312160D01*
X+5344160Y-1259840D01*
X+5069840Y-1259840D01*
X+5069840Y-3312160D01*
D20*
X+5207000Y-1397000D02*
X+5207000Y-1397000D01*
D21*
X+5224780Y-3094990D02*
X+5242560Y-3094990D01*
X+5260340Y-3074988D01*
X+5260340Y-2994978D01*
X+5242560Y-2974975D01*
X+5153660Y-2974975D01*
X+5207000Y-2914968D02*
X+5207000Y-2814955D01*
X+5260340Y-2774950D02*
X+5153660Y-2774950D01*
X+5153660Y-2674938D01*
X+5171440Y-2654935D01*
X+5189220Y-2654935D01*
X+5207000Y-2674938D01*
X+5207000Y-2774950D01*
X+5207000Y-2674938D02*
X+5224780Y-2654935D01*
X+5260340Y-2654935D01*
X+5260340Y-2614930D02*
X+5189220Y-2614930D01*
X+5153660Y-2574925D01*
X+5153660Y-2534920D01*
X+5189220Y-2494915D01*
X+5260340Y-2494915D01*
X+5224780Y-2614930D02*
X+5224780Y-2494915D01*
X+5260340Y-2454910D02*
X+5153660Y-2454910D01*
X+5207000Y-2394903D01*
X+5153660Y-2334895D01*
X+5260340Y-2334895D01*
X+5207000Y-2274888D02*
X+5207000Y-2174875D01*
X+5242560Y-2134870D02*
X+5260340Y-2114868D01*
X+5260340Y-2034858D01*
X+5242560Y-2014855D01*
X+5224780Y-2014855D01*
X+5207000Y-2034858D01*
X+5207000Y-2114868D01*
X+5189220Y-2134870D01*
X+5171440Y-2134870D01*
X+5153660Y-2114868D01*
X+5153660Y-2034858D01*
X+5171440Y-2014855D01*
X+5260340Y-1854835D02*
X+5260340Y-1974850D01*
X+5153660Y-1974850D01*
X+5153660Y-1854835D01*
X+5207000Y-1974850D02*
X+5207000Y-1894840D01*
X+5153660Y-1814830D02*
X+5260340Y-1814830D01*
X+5260340Y-1694815D01*
D16*
X+5069840Y-5344160D02*
X+5344160Y-5344160D01*
X+5344160Y-3291840D01*
X+5069840Y-3291840D01*
X+5069840Y-5344160D01*
D20*
X+5207000Y-3429000D02*
X+5207000Y-3429000D01*
D21*
X+5224780Y-4806950D02*
X+5242560Y-4806950D01*
X+5260340Y-4786948D01*
X+5260340Y-4706938D01*
X+5242560Y-4686935D01*
X+5153660Y-4686935D01*
X+5207000Y-4626928D02*
X+5207000Y-4526915D01*
X+5153660Y-4486910D02*
X+5207000Y-4486910D01*
X+5260340Y-4426903D01*
X+5207000Y-4366895D01*
X+5153660Y-4366895D01*
X+5242560Y-4206875D02*
X+5260340Y-4226878D01*
X+5260340Y-4286885D01*
X+5224780Y-4326890D01*
X+5189220Y-4326890D01*
X+5153660Y-4286885D01*
X+5153660Y-4226878D01*
X+5171440Y-4206875D01*
X+5242560Y-4046855D02*
X+5260340Y-4066858D01*
X+5260340Y-4126865D01*
X+5224780Y-4166870D01*
X+5189220Y-4166870D01*
X+5153660Y-4126865D01*
X+5153660Y-4066858D01*
X+5171440Y-4046855D01*
D16*
X-4508500Y+1894840D02*
X-3619500Y+1894840D01*
X-3619500Y+3693160D01*
X-4508500Y+3693160D01*
X-4508500Y+1894840D01*
D25*
X-4445000Y+3556000D02*
X-4445000Y+3556000D01*
D26*
X-4006126Y+2018236D02*
X-4083291Y+2018236D01*
X-4121874Y+2061641D01*
X-4121874Y+2105046D01*
X-4083291Y+2148451D01*
X-4006126Y+2148451D01*
X-4044709Y+2018236D02*
X-4044709Y+2148451D01*
X-4006126Y+2191857D02*
X-4121874Y+2191857D01*
X-4121874Y+2278667D01*
X-4083291Y+2322072D01*
X-4044709Y+2322072D01*
X-4006126Y+2278667D01*
X-4006126Y+2191857D01*
X-4006126Y+2365478D02*
X-4121874Y+2365478D01*
X-4121874Y+2452288D01*
X-4083291Y+2495693D01*
X-4044709Y+2495693D01*
X-4006126Y+2452288D01*
X-4006126Y+2365478D01*
X-4006126Y+2539099D02*
X-4121874Y+2539099D01*
X-4121874Y+2647612D01*
X-4102583Y+2669314D01*
X-4083291Y+2669314D01*
X-4064000Y+2647612D01*
X-4064000Y+2539099D01*
X-4064000Y+2647612D02*
X-4044709Y+2669314D01*
X-4006126Y+2669314D01*
X-4064000Y+2734422D02*
X-4064000Y+2842935D01*
X-4006126Y+2886341D02*
X-4121874Y+2886341D01*
X-4006126Y+3016556D01*
X-4121874Y+3016556D01*
X-4083291Y+3059962D02*
X-4121874Y+3103367D01*
X-4121874Y+3146772D01*
X-4083291Y+3190177D01*
X-4044709Y+3190177D01*
X-4006126Y+3146772D01*
X-4006126Y+3103367D01*
X-4044709Y+3059962D01*
X-4083291Y+3059962D01*
X-4121874Y+3233583D02*
X-4121874Y+3363798D01*
X-4121874Y+3298690D02*
X-4006126Y+3298690D01*
D16*
X-4508500Y-137160D02*
X-3619500Y-137160D01*
X-3619500Y+1661160D01*
X-4508500Y+1661160D01*
X-4508500Y-137160D01*
D25*
X-4445000Y+1524000D02*
X-4445000Y+1524000D01*
D27*
X-4027831Y-24582D02*
X-4076057Y-24582D01*
X-4100170Y+2545D01*
X-4100170Y+29672D01*
X-4076057Y+56799D01*
X-4027831Y+56799D01*
X-4051944Y-24582D02*
X-4051944Y+56799D01*
X-4027831Y+83926D02*
X-4100170Y+83926D01*
X-4100170Y+138180D01*
X-4076057Y+165307D01*
X-4051944Y+165307D01*
X-4027831Y+138180D01*
X-4027831Y+83926D01*
X-4027831Y+192434D02*
X-4100170Y+192434D01*
X-4100170Y+246688D01*
X-4076057Y+273815D01*
X-4051944Y+273815D01*
X-4027831Y+246688D01*
X-4027831Y+192434D01*
X-4027831Y+300942D02*
X-4100170Y+300942D01*
X-4100170Y+368759D01*
X-4088113Y+382323D01*
X-4076057Y+382323D01*
X-4064000Y+368759D01*
X-4064000Y+300942D01*
X-4064000Y+368759D02*
X-4051944Y+382323D01*
X-4027831Y+382323D01*
X-4064000Y+423013D02*
X-4064000Y+490831D01*
X-4039887Y+599339D02*
X-4027831Y+585775D01*
X-4027831Y+545085D01*
X-4051944Y+517958D01*
X-4076057Y+517958D01*
X-4100170Y+545085D01*
X-4100170Y+585775D01*
X-4088113Y+599339D01*
X-4027831Y+626466D02*
X-4100170Y+626466D01*
X-4100170Y+707847D02*
X-4027831Y+707847D01*
X-4064000Y+626466D02*
X-4064000Y+707847D01*
X-4100170Y+734974D02*
X-4027831Y+734974D01*
X-4100170Y+816355D02*
X-4064000Y+775664D01*
X-4027831Y+816355D01*
X-4064000Y+734974D02*
X-4064000Y+775664D01*
X-4064000Y+857045D02*
X-4064000Y+924863D01*
X-4051944Y+951990D02*
X-4039887Y+951990D01*
X-4027831Y+965553D01*
X-4027831Y+1019807D01*
X-4039887Y+1033371D01*
X-4100170Y+1033371D01*
X-4027831Y+1060498D02*
X-4100170Y+1060498D01*
X-4064000Y+1101188D01*
X-4100170Y+1141879D01*
X-4027831Y+1141879D01*
X-4027831Y+1169006D02*
X-4100170Y+1169006D01*
X-4100170Y+1236823D01*
X-4088113Y+1250387D01*
X-4076057Y+1250387D01*
X-4064000Y+1236823D01*
X-4064000Y+1169006D01*
X-4039887Y+1277514D02*
X-4088113Y+1277514D01*
X-4100170Y+1291077D01*
X-4100170Y+1345331D01*
X-4088113Y+1358895D01*
X-4039887Y+1358895D01*
X-4027831Y+1345331D01*
X-4027831Y+1291077D01*
X-4039887Y+1277514D01*
X-4027831Y+1277514D02*
X-4100170Y+1358895D01*
D16*
X-4508500Y-2169160D02*
X-3619500Y-2169160D01*
X-3619500Y-370840D01*
X-4508500Y-370840D01*
X-4508500Y-2169160D01*
D25*
X-4445000Y-508000D02*
X-4445000Y-508000D01*
D27*
X-4027831Y-2056582D02*
X-4076057Y-2056582D01*
X-4100170Y-2029455D01*
X-4100170Y-2002328D01*
X-4076057Y-1975201D01*
X-4027831Y-1975201D01*
X-4051944Y-2056582D02*
X-4051944Y-1975201D01*
X-4027831Y-1948074D02*
X-4100170Y-1948074D01*
X-4100170Y-1893820D01*
X-4076057Y-1866693D01*
X-4051944Y-1866693D01*
X-4027831Y-1893820D01*
X-4027831Y-1948074D01*
X-4027831Y-1839566D02*
X-4100170Y-1839566D01*
X-4100170Y-1785312D01*
X-4076057Y-1758185D01*
X-4051944Y-1758185D01*
X-4027831Y-1785312D01*
X-4027831Y-1839566D01*
X-4027831Y-1731058D02*
X-4100170Y-1731058D01*
X-4100170Y-1663241D01*
X-4088113Y-1649677D01*
X-4076057Y-1649677D01*
X-4064000Y-1663241D01*
X-4064000Y-1731058D01*
X-4064000Y-1663241D02*
X-4051944Y-1649677D01*
X-4027831Y-1649677D01*
X-4064000Y-1608987D02*
X-4064000Y-1541169D01*
X-4039887Y-1432661D02*
X-4027831Y-1446225D01*
X-4027831Y-1486915D01*
X-4051944Y-1514042D01*
X-4076057Y-1514042D01*
X-4100170Y-1486915D01*
X-4100170Y-1446225D01*
X-4088113Y-1432661D01*
X-4027831Y-1405534D02*
X-4100170Y-1405534D01*
X-4100170Y-1324153D02*
X-4027831Y-1324153D01*
X-4064000Y-1405534D02*
X-4064000Y-1324153D01*
X-4100170Y-1297026D02*
X-4027831Y-1297026D01*
X-4100170Y-1215645D02*
X-4064000Y-1256336D01*
X-4027831Y-1215645D01*
X-4064000Y-1297026D02*
X-4064000Y-1256336D01*
X-4064000Y-1174955D02*
X-4064000Y-1107137D01*
X-4051944Y-1080010D02*
X-4039887Y-1080010D01*
X-4027831Y-1066447D01*
X-4027831Y-1012193D01*
X-4039887Y-998629D01*
X-4100170Y-998629D01*
X-4027831Y-971502D02*
X-4100170Y-971502D01*
X-4064000Y-930812D01*
X-4100170Y-890121D01*
X-4027831Y-890121D01*
X-4027831Y-862994D02*
X-4100170Y-862994D01*
X-4100170Y-795177D01*
X-4088113Y-781613D01*
X-4076057Y-781613D01*
X-4064000Y-795177D01*
X-4064000Y-862994D01*
X-4076057Y-727359D02*
X-4100170Y-700232D01*
X-4027831Y-700232D01*
D16*
X-4508500Y-4201160D02*
X-3619500Y-4201160D01*
X-3619500Y-2402840D01*
X-4508500Y-2402840D01*
X-4508500Y-4201160D01*
D25*
X-4445000Y-2540000D02*
X-4445000Y-2540000D01*
D28*
X-4024902Y-4087038D02*
X-4077032Y-4087038D01*
X-4103097Y-4057715D01*
X-4103097Y-4028392D01*
X-4077032Y-3999069D01*
X-4024902Y-3999069D01*
X-4050967Y-4087038D02*
X-4050967Y-3999069D01*
X-4024902Y-3969745D02*
X-4103097Y-3969745D01*
X-4103097Y-3911099D01*
X-4077032Y-3881776D01*
X-4050967Y-3881776D01*
X-4024902Y-3911099D01*
X-4024902Y-3969745D01*
X-4024902Y-3852452D02*
X-4103097Y-3852452D01*
X-4103097Y-3793806D01*
X-4077032Y-3764483D01*
X-4050967Y-3764483D01*
X-4024902Y-3793806D01*
X-4024902Y-3852452D01*
X-4024902Y-3735159D02*
X-4103097Y-3735159D01*
X-4103097Y-3661851D01*
X-4090065Y-3647190D01*
X-4077032Y-3647190D01*
X-4064000Y-3661851D01*
X-4064000Y-3735159D01*
X-4064000Y-3661851D02*
X-4050967Y-3647190D01*
X-4024902Y-3647190D01*
X-4064000Y-3603205D02*
X-4064000Y-3529897D01*
X-4037934Y-3500573D02*
X-4024902Y-3485912D01*
X-4024902Y-3427265D01*
X-4037934Y-3412604D01*
X-4050967Y-3412604D01*
X-4064000Y-3427265D01*
X-4064000Y-3485912D01*
X-4077032Y-3500573D01*
X-4090065Y-3500573D01*
X-4103097Y-3485912D01*
X-4103097Y-3427265D01*
X-4090065Y-3412604D01*
X-4024902Y-3295311D02*
X-4024902Y-3383280D01*
X-4103097Y-3383280D01*
X-4103097Y-3295311D01*
X-4064000Y-3383280D02*
X-4064000Y-3324634D01*
X-4103097Y-3265987D02*
X-4024902Y-3265987D01*
X-4024902Y-3178018D01*
X-4064000Y-3134033D02*
X-4064000Y-3060725D01*
X-4037934Y-3031401D02*
X-4024902Y-3016740D01*
X-4024902Y-2958093D01*
X-4037934Y-2943432D01*
X-4050967Y-2943432D01*
X-4064000Y-2958093D01*
X-4064000Y-3016740D01*
X-4077032Y-3031401D01*
X-4090065Y-3031401D01*
X-4103097Y-3016740D01*
X-4103097Y-2958093D01*
X-4090065Y-2943432D01*
X-4103097Y-2899447D02*
X-4103097Y-2840800D01*
X-4103097Y-2870124D02*
X-4024902Y-2870124D01*
X-4024902Y-2899447D02*
X-4024902Y-2840800D01*
X-4050967Y-2738169D02*
X-4050967Y-2708846D01*
X-4024902Y-2708846D01*
X-4024902Y-2767492D01*
X-4050967Y-2796815D01*
X-4077032Y-2796815D01*
X-4103097Y-2767492D01*
X-4103097Y-2723507D01*
X-4090065Y-2708846D01*
D16*
X-2476500Y+1640840D02*
X-1587500Y+1640840D01*
X-1587500Y+3693160D01*
X-2476500Y+3693160D01*
X-2476500Y+1640840D01*
D25*
X-2413000Y+3556000D02*
X-2413000Y+3556000D01*
D29*
X-1971871Y+1773983D02*
X-2052043Y+1773983D01*
X-2092129Y+1819079D01*
X-2092129Y+1864176D01*
X-2052043Y+1909272D01*
X-1971871Y+1909272D01*
X-2011957Y+1773983D02*
X-2011957Y+1909272D01*
X-1971871Y+1954369D02*
X-2092129Y+1954369D01*
X-2092129Y+2044562D01*
X-2052043Y+2089658D01*
X-2011957Y+2089658D01*
X-1971871Y+2044562D01*
X-1971871Y+1954369D01*
X-1971871Y+2134755D02*
X-2092129Y+2134755D01*
X-2092129Y+2224948D01*
X-2052043Y+2270044D01*
X-2011957Y+2270044D01*
X-1971871Y+2224948D01*
X-1971871Y+2134755D01*
X-1971871Y+2315141D02*
X-2092129Y+2315141D01*
X-2092129Y+2427882D01*
X-2072086Y+2450430D01*
X-2052043Y+2450430D01*
X-2032000Y+2427882D01*
X-2032000Y+2315141D01*
X-2032000Y+2427882D02*
X-2011957Y+2450430D01*
X-1971871Y+2450430D01*
X-2032000Y+2518075D02*
X-2032000Y+2630816D01*
X-1991914Y+2675913D02*
X-1971871Y+2698461D01*
X-1971871Y+2788654D01*
X-1991914Y+2811202D01*
X-2011957Y+2811202D01*
X-2032000Y+2788654D01*
X-2032000Y+2698461D01*
X-2052043Y+2675913D01*
X-2072086Y+2675913D01*
X-2092129Y+2698461D01*
X-2092129Y+2788654D01*
X-2072086Y+2811202D01*
X-1971871Y+2991588D02*
X-1971871Y+2856299D01*
X-2092129Y+2856299D01*
X-2092129Y+2991588D01*
X-2032000Y+2856299D02*
X-2032000Y+2946492D01*
X-2092129Y+3036685D02*
X-1971871Y+3036685D01*
X-1971871Y+3171974D01*
X-1991914Y+3217071D02*
X-2072086Y+3217071D01*
X-2092129Y+3239619D01*
X-2092129Y+3329812D01*
X-2072086Y+3352360D01*
X-1991914Y+3352360D01*
X-1971871Y+3329812D01*
X-1971871Y+3239619D01*
X-1991914Y+3217071D01*
X-1971871Y+3217071D02*
X-2092129Y+3352360D01*
D16*
X-2476500Y-899160D02*
X-1587500Y-899160D01*
X-1587500Y+1153160D01*
X-2476500Y+1153160D01*
X-2476500Y-899160D01*
D25*
X-2413000Y+1016000D02*
X-2413000Y+1016000D01*
D29*
X-1971871Y-766017D02*
X-2052043Y-766017D01*
X-2092129Y-720921D01*
X-2092129Y-675824D01*
X-2052043Y-630728D01*
X-1971871Y-630728D01*
X-2011957Y-766017D02*
X-2011957Y-630728D01*
X-1971871Y-585631D02*
X-2092129Y-585631D01*
X-2092129Y-495438D01*
X-2052043Y-450342D01*
X-2011957Y-450342D01*
X-1971871Y-495438D01*
X-1971871Y-585631D01*
X-1971871Y-405245D02*
X-2092129Y-405245D01*
X-2092129Y-315052D01*
X-2052043Y-269956D01*
X-2011957Y-269956D01*
X-1971871Y-315052D01*
X-1971871Y-405245D01*
X-1971871Y-224859D02*
X-2092129Y-224859D01*
X-2092129Y-112118D01*
X-2072086Y-89570D01*
X-2052043Y-89570D01*
X-2032000Y-112118D01*
X-2032000Y-224859D01*
X-2032000Y-112118D02*
X-2011957Y-89570D01*
X-1971871Y-89570D01*
X-2032000Y-21925D02*
X-2032000Y+90816D01*
X-1991914Y+135913D02*
X-1971871Y+158461D01*
X-1971871Y+248654D01*
X-1991914Y+271202D01*
X-2011957Y+271202D01*
X-2032000Y+248654D01*
X-2032000Y+158461D01*
X-2052043Y+135913D01*
X-2072086Y+135913D01*
X-2092129Y+158461D01*
X-2092129Y+248654D01*
X-2072086Y+271202D01*
X-1971871Y+451588D02*
X-1971871Y+316299D01*
X-2092129Y+316299D01*
X-2092129Y+451588D01*
X-2032000Y+316299D02*
X-2032000Y+406492D01*
X-2092129Y+496685D02*
X-1971871Y+496685D01*
X-1971871Y+631974D01*
X-2052043Y+722167D02*
X-2092129Y+767264D01*
X-1971871Y+767264D01*
D16*
X-2476500Y-3439160D02*
X-1587500Y-3439160D01*
X-1587500Y-1386840D01*
X-2476500Y-1386840D01*
X-2476500Y-3439160D01*
D25*
X-2413000Y-1524000D02*
X-2413000Y-1524000D01*
D29*
X-1971871Y-3306017D02*
X-2052043Y-3306017D01*
X-2092129Y-3260921D01*
X-2092129Y-3215824D01*
X-2052043Y-3170728D01*
X-1971871Y-3170728D01*
X-2011957Y-3306017D02*
X-2011957Y-3170728D01*
X-1971871Y-3125631D02*
X-2092129Y-3125631D01*
X-2092129Y-3035438D01*
X-2052043Y-2990342D01*
X-2011957Y-2990342D01*
X-1971871Y-3035438D01*
X-1971871Y-3125631D01*
X-1971871Y-2945245D02*
X-2092129Y-2945245D01*
X-2092129Y-2855052D01*
X-2052043Y-2809956D01*
X-2011957Y-2809956D01*
X-1971871Y-2855052D01*
X-1971871Y-2945245D01*
X-1971871Y-2764859D02*
X-2092129Y-2764859D01*
X-2092129Y-2652118D01*
X-2072086Y-2629570D01*
X-2052043Y-2629570D01*
X-2032000Y-2652118D01*
X-2032000Y-2764859D01*
X-2032000Y-2652118D02*
X-2011957Y-2629570D01*
X-1971871Y-2629570D01*
X-2032000Y-2561925D02*
X-2032000Y-2449184D01*
X-1991914Y-2404087D02*
X-1971871Y-2381539D01*
X-1971871Y-2291346D01*
X-1991914Y-2268798D01*
X-2011957Y-2268798D01*
X-2032000Y-2291346D01*
X-2032000Y-2381539D01*
X-2052043Y-2404087D01*
X-2072086Y-2404087D01*
X-2092129Y-2381539D01*
X-2092129Y-2291346D01*
X-2072086Y-2268798D01*
X-1971871Y-2088412D02*
X-1971871Y-2223701D01*
X-2092129Y-2223701D01*
X-2092129Y-2088412D01*
X-2032000Y-2223701D02*
X-2032000Y-2133508D01*
X-2092129Y-2043315D02*
X-1971871Y-2043315D01*
X-1971871Y-1908026D01*
X-2072086Y-1840381D02*
X-2092129Y-1817833D01*
X-2092129Y-1750188D01*
X-2072086Y-1727640D01*
X-2052043Y-1727640D01*
X-2032000Y-1750188D01*
X-2032000Y-1817833D01*
X-2011957Y-1840381D01*
X-1971871Y-1840381D01*
X-1971871Y-1727640D01*
D16*
X-444500Y+1640840D02*
X+444500Y+1640840D01*
X+444500Y+3693160D01*
X-444500Y+3693160D01*
X-444500Y+1640840D01*
D25*
X-381000Y+3556000D02*
X-381000Y+3556000D01*
D29*
X+60129Y+1773983D02*
X-20043Y+1773983D01*
X-60129Y+1819079D01*
X-60129Y+1864176D01*
X-20043Y+1909272D01*
X+60129Y+1909272D01*
X+20043Y+1773983D02*
X+20043Y+1909272D01*
X+60129Y+1954369D02*
X-60129Y+1954369D01*
X-60129Y+2044562D01*
X-20043Y+2089658D01*
X+20043Y+2089658D01*
X+60129Y+2044562D01*
X+60129Y+1954369D01*
X+60129Y+2134755D02*
X-60129Y+2134755D01*
X-60129Y+2224948D01*
X-20043Y+2270044D01*
X+20043Y+2270044D01*
X+60129Y+2224948D01*
X+60129Y+2134755D01*
X+60129Y+2315141D02*
X-60129Y+2315141D01*
X-60129Y+2427882D01*
X-40086Y+2450430D01*
X-20043Y+2450430D01*
X+0Y+2427882D01*
X+0Y+2315141D01*
X+0Y+2427882D02*
X+20043Y+2450430D01*
X+60129Y+2450430D01*
X+0Y+2518075D02*
X+0Y+2630816D01*
X+40086Y+2675913D02*
X+60129Y+2698461D01*
X+60129Y+2788654D01*
X+40086Y+2811202D01*
X+20043Y+2811202D01*
X+0Y+2788654D01*
X+0Y+2698461D01*
X-20043Y+2675913D01*
X-40086Y+2675913D01*
X-60129Y+2698461D01*
X-60129Y+2788654D01*
X-40086Y+2811202D01*
X+60129Y+2991588D02*
X+60129Y+2856299D01*
X-60129Y+2856299D01*
X-60129Y+2991588D01*
X+0Y+2856299D02*
X+0Y+2946492D01*
X-60129Y+3036685D02*
X+60129Y+3036685D01*
X+60129Y+3171974D01*
X-40086Y+3239619D02*
X-60129Y+3262167D01*
X-60129Y+3329812D01*
X-40086Y+3352360D01*
X-20043Y+3352360D01*
X+0Y+3329812D01*
X+20043Y+3352360D01*
X+40086Y+3352360D01*
X+60129Y+3329812D01*
X+60129Y+3262167D01*
X+40086Y+3239619D01*
X+0Y+3284715D02*
X+0Y+3329812D01*
D16*
X-444500Y-899160D02*
X+444500Y-899160D01*
X+444500Y+1153160D01*
X-444500Y+1153160D01*
X-444500Y-899160D01*
D25*
X-381000Y+1016000D02*
X-381000Y+1016000D01*
D29*
X+60129Y-766017D02*
X-20043Y-766017D01*
X-60129Y-720921D01*
X-60129Y-675824D01*
X-20043Y-630728D01*
X+60129Y-630728D01*
X+20043Y-766017D02*
X+20043Y-630728D01*
X+60129Y-585631D02*
X-60129Y-585631D01*
X-60129Y-495438D01*
X-20043Y-450342D01*
X+20043Y-450342D01*
X+60129Y-495438D01*
X+60129Y-585631D01*
X+60129Y-405245D02*
X-60129Y-405245D01*
X-60129Y-315052D01*
X-20043Y-269956D01*
X+20043Y-269956D01*
X+60129Y-315052D01*
X+60129Y-405245D01*
X+60129Y-224859D02*
X-60129Y-224859D01*
X-60129Y-112118D01*
X-40086Y-89570D01*
X-20043Y-89570D01*
X+0Y-112118D01*
X+0Y-224859D01*
X+0Y-112118D02*
X+20043Y-89570D01*
X+60129Y-89570D01*
X+0Y-21925D02*
X+0Y+90816D01*
X+40086Y+135913D02*
X+60129Y+158461D01*
X+60129Y+248654D01*
X+40086Y+271202D01*
X+20043Y+271202D01*
X+0Y+248654D01*
X+0Y+158461D01*
X-20043Y+135913D01*
X-40086Y+135913D01*
X-60129Y+158461D01*
X-60129Y+248654D01*
X-40086Y+271202D01*
X+60129Y+451588D02*
X+60129Y+316299D01*
X-60129Y+316299D01*
X-60129Y+451588D01*
X+0Y+316299D02*
X+0Y+406492D01*
X-60129Y+496685D02*
X+60129Y+496685D01*
X+60129Y+631974D01*
X+20043Y+812360D02*
X+20043Y+677071D01*
X-60129Y+767264D01*
X+60129Y+767264D01*
D16*
X-444500Y-3439160D02*
X+444500Y-3439160D01*
X+444500Y-1386840D01*
X-444500Y-1386840D01*
X-444500Y-3439160D01*
D25*
X-381000Y-1524000D02*
X-381000Y-1524000D01*
D29*
X+60129Y-3306017D02*
X-20043Y-3306017D01*
X-60129Y-3260921D01*
X-60129Y-3215824D01*
X-20043Y-3170728D01*
X+60129Y-3170728D01*
X+20043Y-3306017D02*
X+20043Y-3170728D01*
X+60129Y-3125631D02*
X-60129Y-3125631D01*
X-60129Y-3035438D01*
X-20043Y-2990342D01*
X+20043Y-2990342D01*
X+60129Y-3035438D01*
X+60129Y-3125631D01*
X+60129Y-2945245D02*
X-60129Y-2945245D01*
X-60129Y-2855052D01*
X-20043Y-2809956D01*
X+20043Y-2809956D01*
X+60129Y-2855052D01*
X+60129Y-2945245D01*
X+60129Y-2764859D02*
X-60129Y-2764859D01*
X-60129Y-2652118D01*
X-40086Y-2629570D01*
X-20043Y-2629570D01*
X+0Y-2652118D01*
X+0Y-2764859D01*
X+0Y-2652118D02*
X+20043Y-2629570D01*
X+60129Y-2629570D01*
X+0Y-2561925D02*
X+0Y-2449184D01*
X+40086Y-2404087D02*
X+60129Y-2381539D01*
X+60129Y-2291346D01*
X+40086Y-2268798D01*
X+20043Y-2268798D01*
X+0Y-2291346D01*
X+0Y-2381539D01*
X-20043Y-2404087D01*
X-40086Y-2404087D01*
X-60129Y-2381539D01*
X-60129Y-2291346D01*
X-40086Y-2268798D01*
X+60129Y-2088412D02*
X+60129Y-2223701D01*
X-60129Y-2223701D01*
X-60129Y-2088412D01*
X+0Y-2223701D02*
X+0Y-2133508D01*
X-60129Y-2043315D02*
X+60129Y-2043315D01*
X+60129Y-1908026D01*
X-60129Y-1727640D02*
X-60129Y-1840381D01*
X-20043Y-1840381D01*
X-20043Y-1750188D01*
X+0Y-1727640D01*
X+40086Y-1727640D01*
X+60129Y-1750188D01*
X+60129Y-1817833D01*
X+40086Y-1840381D01*
D16*
X+1587500Y+1132840D02*
X+2476500Y+1132840D01*
X+2476500Y+3693160D01*
X+1587500Y+3693160D01*
X+1587500Y+1132840D01*
D25*
X+1651000Y+3556000D02*
X+1651000Y+3556000D01*
D72*
X+2101520Y+1288930D02*
X+2008827Y+1288930D01*
X+1962481Y+1341069D01*
X+1962481Y+1393209D01*
X+2008827Y+1445348D01*
X+2101520Y+1445348D01*
X+2055174Y+1288930D02*
X+2055174Y+1445348D01*
X+2101520Y+1497488D02*
X+1962481Y+1497488D01*
X+1962481Y+1601767D01*
X+2008827Y+1653906D01*
X+2055174Y+1653906D01*
X+2101520Y+1601767D01*
X+2101520Y+1497488D01*
X+2101520Y+1706046D02*
X+1962481Y+1706046D01*
X+1962481Y+1810325D01*
X+2008827Y+1862464D01*
X+2055174Y+1862464D01*
X+2101520Y+1810325D01*
X+2101520Y+1706046D01*
X+2101520Y+1914604D02*
X+1962481Y+1914604D01*
X+1962481Y+2044952D01*
X+1985654Y+2071022D01*
X+2008827Y+2071022D01*
X+2032000Y+2044952D01*
X+2032000Y+1914604D01*
X+2032000Y+2044952D02*
X+2055174Y+2071022D01*
X+2101520Y+2071022D01*
X+2032000Y+2149231D02*
X+2032000Y+2279580D01*
X+2101520Y+2331720D02*
X+1962481Y+2331720D01*
X+2101520Y+2488138D01*
X+1962481Y+2488138D01*
X+2101520Y+2696696D02*
X+2101520Y+2540278D01*
X+1962481Y+2540278D01*
X+1962481Y+2696696D01*
X+2032000Y+2540278D02*
X+2032000Y+2644557D01*
X+1962481Y+2748836D02*
X+2101520Y+2905254D01*
X+2101520Y+2748836D02*
X+1962481Y+2905254D01*
X+1962481Y+2957394D02*
X+1962481Y+3113812D01*
X+1962481Y+3035603D02*
X+2101520Y+3035603D01*
X+2078347Y+3165952D02*
X+1985654Y+3165952D01*
X+1962481Y+3192021D01*
X+1962481Y+3296300D01*
X+1985654Y+3322370D01*
X+2078347Y+3322370D01*
X+2101520Y+3296300D01*
X+2101520Y+3192021D01*
X+2078347Y+3165952D01*
X+2101520Y+3165952D02*
X+1962481Y+3322370D01*
D16*
X+1587500Y-1915160D02*
X+2476500Y-1915160D01*
X+2476500Y+645160D01*
X+1587500Y+645160D01*
X+1587500Y-1915160D01*
D25*
X+1651000Y+508000D02*
X+1651000Y+508000D01*
D72*
X+2101520Y-1759070D02*
X+2008827Y-1759070D01*
X+1962481Y-1706931D01*
X+1962481Y-1654791D01*
X+2008827Y-1602652D01*
X+2101520Y-1602652D01*
X+2055174Y-1759070D02*
X+2055174Y-1602652D01*
X+2101520Y-1550512D02*
X+1962481Y-1550512D01*
X+1962481Y-1446233D01*
X+2008827Y-1394094D01*
X+2055174Y-1394094D01*
X+2101520Y-1446233D01*
X+2101520Y-1550512D01*
X+2101520Y-1341954D02*
X+1962481Y-1341954D01*
X+1962481Y-1237675D01*
X+2008827Y-1185536D01*
X+2055174Y-1185536D01*
X+2101520Y-1237675D01*
X+2101520Y-1341954D01*
X+2101520Y-1133396D02*
X+1962481Y-1133396D01*
X+1962481Y-1003048D01*
X+1985654Y-976978D01*
X+2008827Y-976978D01*
X+2032000Y-1003048D01*
X+2032000Y-1133396D01*
X+2032000Y-1003048D02*
X+2055174Y-976978D01*
X+2101520Y-976978D01*
X+2032000Y-898769D02*
X+2032000Y-768420D01*
X+2101520Y-716280D02*
X+1962481Y-716280D01*
X+2101520Y-559862D01*
X+1962481Y-559862D01*
X+2101520Y-351304D02*
X+2101520Y-507722D01*
X+1962481Y-507722D01*
X+1962481Y-351304D01*
X+2032000Y-507722D02*
X+2032000Y-403443D01*
X+1962481Y-299164D02*
X+2101520Y-142746D01*
X+2101520Y-299164D02*
X+1962481Y-142746D01*
X+1962481Y-90606D02*
X+1962481Y+65812D01*
X+1962481Y-12397D02*
X+2101520Y-12397D01*
X+2008827Y+170091D02*
X+1962481Y+222231D01*
X+2101520Y+222231D01*
D16*
X+3619500Y+1132840D02*
X+4508500Y+1132840D01*
X+4508500Y+3693160D01*
X+3619500Y+3693160D01*
X+3619500Y+1132840D01*
D25*
X+3683000Y+3556000D02*
X+3683000Y+3556000D01*
D73*
X+4141062Y+1291388D02*
X+4038313Y+1291388D01*
X+3986938Y+1349184D01*
X+3986938Y+1406980D01*
X+4038313Y+1464776D01*
X+4141062Y+1464776D01*
X+4089687Y+1291388D02*
X+4089687Y+1464776D01*
X+4141062Y+1522573D02*
X+3986938Y+1522573D01*
X+3986938Y+1638165D01*
X+4038313Y+1695961D01*
X+4089687Y+1695961D01*
X+4141062Y+1638165D01*
X+4141062Y+1522573D01*
X+4141062Y+1753758D02*
X+3986938Y+1753758D01*
X+3986938Y+1869350D01*
X+4038313Y+1927146D01*
X+4089687Y+1927146D01*
X+4141062Y+1869350D01*
X+4141062Y+1753758D01*
X+4141062Y+1984943D02*
X+3986938Y+1984943D01*
X+3986938Y+2129433D01*
X+4012625Y+2158331D01*
X+4038313Y+2158331D01*
X+4064000Y+2129433D01*
X+4064000Y+1984943D01*
X+4064000Y+2129433D02*
X+4089687Y+2158331D01*
X+4141062Y+2158331D01*
X+4064000Y+2245026D02*
X+4064000Y+2389516D01*
X+4115375Y+2620701D02*
X+4141062Y+2591803D01*
X+4141062Y+2505109D01*
X+4089687Y+2447313D01*
X+4038313Y+2447313D01*
X+3986938Y+2505109D01*
X+3986938Y+2591803D01*
X+4012625Y+2620701D01*
X+3986938Y+2678498D02*
X+4115375Y+2678498D01*
X+4141062Y+2707396D01*
X+4141062Y+2822988D01*
X+4115375Y+2851886D01*
X+3986938Y+2851886D01*
X+4141062Y+2909683D02*
X+3986938Y+2909683D01*
X+3986938Y+3054173D01*
X+4012625Y+3083071D01*
X+4038313Y+3083071D01*
X+4064000Y+3054173D01*
X+4064000Y+2909683D01*
X+4064000Y+3054173D02*
X+4089687Y+3083071D01*
X+4141062Y+3083071D01*
X+4115375Y+3140868D02*
X+4012625Y+3140868D01*
X+3986938Y+3169766D01*
X+3986938Y+3285358D01*
X+4012625Y+3314256D01*
X+4115375Y+3314256D01*
X+4141062Y+3285358D01*
X+4141062Y+3169766D01*
X+4115375Y+3140868D01*
X+4141062Y+3140868D02*
X+3986938Y+3314256D01*
D16*
X+3619500Y-1915160D02*
X+4508500Y-1915160D01*
X+4508500Y+645160D01*
X+3619500Y+645160D01*
X+3619500Y-1915160D01*
D25*
X+3683000Y+508000D02*
X+3683000Y+508000D01*
D73*
X+4141062Y-1756612D02*
X+4038313Y-1756612D01*
X+3986938Y-1698816D01*
X+3986938Y-1641020D01*
X+4038313Y-1583224D01*
X+4141062Y-1583224D01*
X+4089687Y-1756612D02*
X+4089687Y-1583224D01*
X+4141062Y-1525427D02*
X+3986938Y-1525427D01*
X+3986938Y-1409835D01*
X+4038313Y-1352039D01*
X+4089687Y-1352039D01*
X+4141062Y-1409835D01*
X+4141062Y-1525427D01*
X+4141062Y-1294242D02*
X+3986938Y-1294242D01*
X+3986938Y-1178650D01*
X+4038313Y-1120854D01*
X+4089687Y-1120854D01*
X+4141062Y-1178650D01*
X+4141062Y-1294242D01*
X+4141062Y-1063057D02*
X+3986938Y-1063057D01*
X+3986938Y-918567D01*
X+4012625Y-889669D01*
X+4038313Y-889669D01*
X+4064000Y-918567D01*
X+4064000Y-1063057D01*
X+4064000Y-918567D02*
X+4089687Y-889669D01*
X+4141062Y-889669D01*
X+4064000Y-802974D02*
X+4064000Y-658484D01*
X+4115375Y-427299D02*
X+4141062Y-456197D01*
X+4141062Y-542891D01*
X+4089687Y-600687D01*
X+4038313Y-600687D01*
X+3986938Y-542891D01*
X+3986938Y-456197D01*
X+4012625Y-427299D01*
X+3986938Y-369502D02*
X+4115375Y-369502D01*
X+4141062Y-340604D01*
X+4141062Y-225012D01*
X+4115375Y-196114D01*
X+3986938Y-196114D01*
X+4141062Y-138317D02*
X+3986938Y-138317D01*
X+3986938Y+6173D01*
X+4012625Y+35071D01*
X+4038313Y+35071D01*
X+4064000Y+6173D01*
X+4064000Y-138317D01*
X+4064000Y+6173D02*
X+4089687Y+35071D01*
X+4141062Y+35071D01*
X+4038313Y+150664D02*
X+3986938Y+208460D01*
X+4141062Y+208460D01*
M02*
