G04 PROTEUS GERBER X2 FILE*
%TF.GenerationSoftware,Labcenter,Proteus,8.13-SP0-Build31525*%
%TF.CreationDate,2022-07-18T16:04:25+00:00*%
%TF.FileFunction,Legend,Top*%
%TF.FilePolarity,Positive*%
%TF.Part,Single*%
%TF.SameCoordinates,{a14ccd22-1d2d-4c41-ae0f-5237a1d864ee}*%
%FSLAX45Y45*%
%MOMM*%
G01*
%TA.AperFunction,Profile*%
%ADD15C,0.203200*%
%TA.AperFunction,Material*%
%ADD16C,0.203200*%
%TD.AperFunction*%
D15*
X-5461000Y-5715000D02*
X+5461000Y-5715000D01*
X+5461000Y+5207000D01*
X-5461000Y+5207000D01*
X-5461000Y-5715000D01*
D16*
X-3048000Y+4826000D02*
X-1016000Y+4826000D01*
X-1016000Y+5080000D01*
X-3048000Y+5080000D01*
X-3048000Y+4826000D01*
X-2286000Y+4643120D02*
X-2286000Y+4627880D01*
X-2270125Y+4612640D01*
X-2206625Y+4612640D01*
X-2190750Y+4627880D01*
X-2190750Y+4704080D01*
X-2143125Y+4658360D02*
X-2063750Y+4658360D01*
X-2032000Y+4612640D02*
X-2032000Y+4673600D01*
X-2000250Y+4704080D01*
X-1968500Y+4704080D01*
X-1936750Y+4673600D01*
X-1936750Y+4612640D01*
X-2032000Y+4643120D02*
X-1936750Y+4643120D01*
X-1809750Y+4627880D02*
X-1825625Y+4612640D01*
X-1873250Y+4612640D01*
X-1905000Y+4643120D01*
X-1905000Y+4673600D01*
X-1873250Y+4704080D01*
X-1825625Y+4704080D01*
X-1809750Y+4688840D01*
X-1016000Y+4826000D02*
X+1016000Y+4826000D01*
X+1016000Y+5080000D01*
X-1016000Y+5080000D01*
X-1016000Y+4826000D01*
X-444500Y+4643120D02*
X-444500Y+4627880D01*
X-428625Y+4612640D01*
X-365125Y+4612640D01*
X-349250Y+4627880D01*
X-349250Y+4704080D01*
X-301625Y+4658360D02*
X-222250Y+4658360D01*
X-190500Y+4612640D02*
X-190500Y+4673600D01*
X-158750Y+4704080D01*
X-127000Y+4704080D01*
X-95250Y+4673600D01*
X-95250Y+4612640D01*
X-190500Y+4643120D02*
X-95250Y+4643120D01*
X+31750Y+4627880D02*
X+15875Y+4612640D01*
X-31750Y+4612640D01*
X-63500Y+4643120D01*
X-63500Y+4673600D01*
X-31750Y+4704080D01*
X+15875Y+4704080D01*
X+31750Y+4688840D01*
X+79375Y+4658360D02*
X+158750Y+4658360D01*
X+190500Y+4612640D02*
X+190500Y+4673600D01*
X+222250Y+4704080D01*
X+254000Y+4704080D01*
X+285750Y+4673600D01*
X+285750Y+4612640D01*
X+190500Y+4643120D02*
X+285750Y+4643120D01*
X+317500Y+4704080D02*
X+412750Y+4704080D01*
X+365125Y+4704080D02*
X+365125Y+4612640D01*
X+1016000Y+4826000D02*
X+3048000Y+4826000D01*
X+3048000Y+5080000D01*
X+1016000Y+5080000D01*
X+1016000Y+4826000D01*
X+1778000Y+4643120D02*
X+1778000Y+4627880D01*
X+1793875Y+4612640D01*
X+1857375Y+4612640D01*
X+1873250Y+4627880D01*
X+1873250Y+4704080D01*
X+1920875Y+4658360D02*
X+2000250Y+4658360D01*
X+2032000Y+4612640D02*
X+2032000Y+4673600D01*
X+2063750Y+4704080D01*
X+2095500Y+4704080D01*
X+2127250Y+4673600D01*
X+2127250Y+4612640D01*
X+2032000Y+4643120D02*
X+2127250Y+4643120D01*
X+2159000Y+4704080D02*
X+2254250Y+4704080D01*
X+2206625Y+4704080D02*
X+2206625Y+4612640D01*
X+3048000Y+4826000D02*
X+5080000Y+4826000D01*
X+5080000Y+5080000D01*
X+3048000Y+5080000D01*
X+3048000Y+4826000D01*
X+3810000Y+4643120D02*
X+3810000Y+4627880D01*
X+3825875Y+4612640D01*
X+3889375Y+4612640D01*
X+3905250Y+4627880D01*
X+3905250Y+4704080D01*
X+3952875Y+4658360D02*
X+4032250Y+4658360D01*
X+4064000Y+4612640D02*
X+4064000Y+4704080D01*
X+4143375Y+4704080D01*
X+4159250Y+4688840D01*
X+4159250Y+4673600D01*
X+4143375Y+4658360D01*
X+4159250Y+4643120D01*
X+4159250Y+4627880D01*
X+4143375Y+4612640D01*
X+4064000Y+4612640D01*
X+4064000Y+4658360D02*
X+4143375Y+4658360D01*
X+4206875Y+4704080D02*
X+4270375Y+4704080D01*
X+4238625Y+4704080D02*
X+4238625Y+4612640D01*
X+4206875Y+4612640D02*
X+4270375Y+4612640D01*
X-5080000Y+4826000D02*
X-3048000Y+4826000D01*
X-3048000Y+5080000D01*
X-5080000Y+5080000D01*
X-5080000Y+4826000D01*
X-4572000Y+4643120D02*
X-4572000Y+4627880D01*
X-4556125Y+4612640D01*
X-4492625Y+4612640D01*
X-4476750Y+4627880D01*
X-4476750Y+4704080D01*
X-4429125Y+4658360D02*
X-4349750Y+4658360D01*
X-4302125Y+4704080D02*
X-4238625Y+4704080D01*
X-4270375Y+4704080D02*
X-4270375Y+4612640D01*
X-4302125Y+4612640D02*
X-4238625Y+4612640D01*
X-4191000Y+4612640D02*
X-4191000Y+4704080D01*
X-4095750Y+4612640D01*
X-4095750Y+4704080D01*
X-4048125Y+4658360D02*
X-3968750Y+4658360D01*
X-3937000Y+4673600D02*
X-3905250Y+4704080D01*
X-3873500Y+4704080D01*
X-3841750Y+4673600D01*
X-3841750Y+4643120D01*
X-3873500Y+4612640D01*
X-3905250Y+4612640D01*
X-3937000Y+4643120D01*
X-3937000Y+4673600D01*
X-3810000Y+4704080D02*
X-3810000Y+4627880D01*
X-3794125Y+4612640D01*
X-3730625Y+4612640D01*
X-3714750Y+4627880D01*
X-3714750Y+4704080D01*
X-3683000Y+4704080D02*
X-3587750Y+4704080D01*
X-3635375Y+4704080D02*
X-3635375Y+4612640D01*
X-5080000Y-5588000D02*
X-3048000Y-5588000D01*
X-3048000Y-5334000D01*
X-5080000Y-5334000D01*
X-5080000Y-5588000D01*
X-4635500Y-5262880D02*
X-4635500Y-5278120D01*
X-4619625Y-5293360D01*
X-4556125Y-5293360D01*
X-4540250Y-5278120D01*
X-4540250Y-5201920D01*
X-4492625Y-5247640D02*
X-4413250Y-5247640D01*
X-4381500Y-5293360D02*
X-4381500Y-5201920D01*
X-4302125Y-5201920D01*
X-4286250Y-5217160D01*
X-4286250Y-5232400D01*
X-4302125Y-5247640D01*
X-4286250Y-5262880D01*
X-4286250Y-5278120D01*
X-4302125Y-5293360D01*
X-4381500Y-5293360D01*
X-4381500Y-5247640D02*
X-4302125Y-5247640D01*
X-4254500Y-5293360D02*
X-4254500Y-5232400D01*
X-4222750Y-5201920D01*
X-4191000Y-5201920D01*
X-4159250Y-5232400D01*
X-4159250Y-5293360D01*
X-4254500Y-5262880D02*
X-4159250Y-5262880D01*
X-4048125Y-5201920D02*
X-4095750Y-5201920D01*
X-4095750Y-5293360D01*
X-4048125Y-5293360D01*
X-4000500Y-5278120D02*
X-4000500Y-5217160D01*
X-3984625Y-5201920D01*
X-3921125Y-5201920D01*
X-3905250Y-5217160D01*
X-3905250Y-5278120D01*
X-3921125Y-5293360D01*
X-3984625Y-5293360D01*
X-4000500Y-5278120D01*
X-4000500Y-5293360D02*
X-3905250Y-5201920D01*
X-3857625Y-5247640D02*
X-3778250Y-5247640D01*
X-3730625Y-5201920D02*
X-3651250Y-5201920D01*
X-3651250Y-5217160D01*
X-3730625Y-5293360D01*
X-3587750Y-5201920D02*
X-3540125Y-5201920D01*
X-3540125Y-5293360D01*
X-3587750Y-5293360D01*
X-3048000Y-5588000D02*
X-1016000Y-5588000D01*
X-1016000Y-5334000D01*
X-3048000Y-5334000D01*
X-3048000Y-5588000D01*
X-2667000Y-5262880D02*
X-2667000Y-5278120D01*
X-2651125Y-5293360D01*
X-2587625Y-5293360D01*
X-2571750Y-5278120D01*
X-2571750Y-5201920D01*
X-2524125Y-5247640D02*
X-2444750Y-5247640D01*
X-2413000Y-5293360D02*
X-2413000Y-5201920D01*
X-2333625Y-5201920D01*
X-2317750Y-5217160D01*
X-2317750Y-5232400D01*
X-2333625Y-5247640D01*
X-2317750Y-5262880D01*
X-2317750Y-5278120D01*
X-2333625Y-5293360D01*
X-2413000Y-5293360D01*
X-2413000Y-5247640D02*
X-2333625Y-5247640D01*
X-2286000Y-5293360D02*
X-2286000Y-5232400D01*
X-2254250Y-5201920D01*
X-2222500Y-5201920D01*
X-2190750Y-5232400D01*
X-2190750Y-5293360D01*
X-2286000Y-5262880D02*
X-2190750Y-5262880D01*
X-2079625Y-5201920D02*
X-2127250Y-5201920D01*
X-2127250Y-5293360D01*
X-2079625Y-5293360D01*
X-2000250Y-5247640D02*
X-2016125Y-5232400D01*
X-2016125Y-5217160D01*
X-2000250Y-5201920D01*
X-1952625Y-5201920D01*
X-1936750Y-5217160D01*
X-1936750Y-5232400D01*
X-1952625Y-5247640D01*
X-2000250Y-5247640D01*
X-2016125Y-5262880D01*
X-2016125Y-5278120D01*
X-2000250Y-5293360D01*
X-1952625Y-5293360D01*
X-1936750Y-5278120D01*
X-1936750Y-5262880D01*
X-1952625Y-5247640D01*
X-1889125Y-5247640D02*
X-1809750Y-5247640D01*
X-1746250Y-5232400D02*
X-1714500Y-5201920D01*
X-1714500Y-5293360D01*
X-1555750Y-5201920D02*
X-1635125Y-5201920D01*
X-1635125Y-5232400D01*
X-1571625Y-5232400D01*
X-1555750Y-5247640D01*
X-1555750Y-5278120D01*
X-1571625Y-5293360D01*
X-1619250Y-5293360D01*
X-1635125Y-5278120D01*
X-1492250Y-5201920D02*
X-1444625Y-5201920D01*
X-1444625Y-5293360D01*
X-1492250Y-5293360D01*
X-1016000Y-5588000D02*
X+1016000Y-5588000D01*
X+1016000Y-5334000D01*
X-1016000Y-5334000D01*
X-1016000Y-5588000D01*
X-254000Y-5262880D02*
X-254000Y-5278120D01*
X-238125Y-5293360D01*
X-174625Y-5293360D01*
X-158750Y-5278120D01*
X-158750Y-5201920D01*
X-111125Y-5247640D02*
X-31750Y-5247640D01*
X+0Y-5293360D02*
X+0Y-5201920D01*
X+79375Y-5201920D01*
X+95250Y-5217160D01*
X+95250Y-5232400D01*
X+79375Y-5247640D01*
X+95250Y-5262880D01*
X+95250Y-5278120D01*
X+79375Y-5293360D01*
X+0Y-5293360D01*
X+0Y-5247640D02*
X+79375Y-5247640D01*
X+127000Y-5293360D02*
X+127000Y-5201920D01*
X+190500Y-5201920D01*
X+222250Y-5232400D01*
X+222250Y-5262880D01*
X+190500Y-5293360D01*
X+127000Y-5293360D01*
X+1016000Y-5588000D02*
X+3048000Y-5588000D01*
X+3048000Y-5334000D01*
X+1016000Y-5334000D01*
X+1016000Y-5588000D01*
X+1460500Y-5262880D02*
X+1460500Y-5278120D01*
X+1476375Y-5293360D01*
X+1539875Y-5293360D01*
X+1555750Y-5278120D01*
X+1555750Y-5201920D01*
X+1603375Y-5247640D02*
X+1682750Y-5247640D01*
X+1714500Y-5293360D02*
X+1714500Y-5201920D01*
X+1793875Y-5201920D01*
X+1809750Y-5217160D01*
X+1809750Y-5232400D01*
X+1793875Y-5247640D01*
X+1809750Y-5262880D01*
X+1809750Y-5278120D01*
X+1793875Y-5293360D01*
X+1714500Y-5293360D01*
X+1714500Y-5247640D02*
X+1793875Y-5247640D01*
X+1841500Y-5201920D02*
X+1841500Y-5278120D01*
X+1857375Y-5293360D01*
X+1920875Y-5293360D01*
X+1936750Y-5278120D01*
X+1936750Y-5201920D01*
X+2047875Y-5201920D02*
X+2000250Y-5201920D01*
X+2000250Y-5293360D01*
X+2047875Y-5293360D01*
X+2095500Y-5278120D02*
X+2095500Y-5217160D01*
X+2111375Y-5201920D01*
X+2174875Y-5201920D01*
X+2190750Y-5217160D01*
X+2190750Y-5278120D01*
X+2174875Y-5293360D01*
X+2111375Y-5293360D01*
X+2095500Y-5278120D01*
X+2095500Y-5293360D02*
X+2190750Y-5201920D01*
X+2238375Y-5247640D02*
X+2317750Y-5247640D01*
X+2365375Y-5201920D02*
X+2444750Y-5201920D01*
X+2444750Y-5217160D01*
X+2365375Y-5293360D01*
X+2508250Y-5201920D02*
X+2555875Y-5201920D01*
X+2555875Y-5293360D01*
X+2508250Y-5293360D01*
X+3048000Y-5588000D02*
X+5080000Y-5588000D01*
X+5080000Y-5334000D01*
X+3048000Y-5334000D01*
X+3048000Y-5588000D01*
X+3429000Y-5262880D02*
X+3429000Y-5278120D01*
X+3444875Y-5293360D01*
X+3508375Y-5293360D01*
X+3524250Y-5278120D01*
X+3524250Y-5201920D01*
X+3571875Y-5247640D02*
X+3651250Y-5247640D01*
X+3683000Y-5293360D02*
X+3683000Y-5201920D01*
X+3762375Y-5201920D01*
X+3778250Y-5217160D01*
X+3778250Y-5232400D01*
X+3762375Y-5247640D01*
X+3778250Y-5262880D01*
X+3778250Y-5278120D01*
X+3762375Y-5293360D01*
X+3683000Y-5293360D01*
X+3683000Y-5247640D02*
X+3762375Y-5247640D01*
X+3810000Y-5201920D02*
X+3810000Y-5278120D01*
X+3825875Y-5293360D01*
X+3889375Y-5293360D01*
X+3905250Y-5278120D01*
X+3905250Y-5201920D01*
X+4016375Y-5201920D02*
X+3968750Y-5201920D01*
X+3968750Y-5293360D01*
X+4016375Y-5293360D01*
X+4095750Y-5247640D02*
X+4079875Y-5232400D01*
X+4079875Y-5217160D01*
X+4095750Y-5201920D01*
X+4143375Y-5201920D01*
X+4159250Y-5217160D01*
X+4159250Y-5232400D01*
X+4143375Y-5247640D01*
X+4095750Y-5247640D01*
X+4079875Y-5262880D01*
X+4079875Y-5278120D01*
X+4095750Y-5293360D01*
X+4143375Y-5293360D01*
X+4159250Y-5278120D01*
X+4159250Y-5262880D01*
X+4143375Y-5247640D01*
X+4206875Y-5247640D02*
X+4286250Y-5247640D01*
X+4349750Y-5232400D02*
X+4381500Y-5201920D01*
X+4381500Y-5293360D01*
X+4540250Y-5201920D02*
X+4460875Y-5201920D01*
X+4460875Y-5232400D01*
X+4524375Y-5232400D01*
X+4540250Y-5247640D01*
X+4540250Y-5278120D01*
X+4524375Y-5293360D01*
X+4476750Y-5293360D01*
X+4460875Y-5278120D01*
X+4603750Y-5201920D02*
X+4651375Y-5201920D01*
X+4651375Y-5293360D01*
X+4603750Y-5293360D01*
X-5334000Y+2794000D02*
X-5080000Y+2794000D01*
X-5080000Y+4826000D01*
X-5334000Y+4826000D01*
X-5334000Y+2794000D01*
X-4978400Y+3175000D02*
X-4963160Y+3175000D01*
X-4947920Y+3190875D01*
X-4947920Y+3254375D01*
X-4963160Y+3270250D01*
X-5039360Y+3270250D01*
X-4993640Y+3317875D02*
X-4993640Y+3397250D01*
X-4963160Y+3429000D02*
X-4947920Y+3444875D01*
X-4947920Y+3508375D01*
X-4963160Y+3524250D01*
X-4978400Y+3524250D01*
X-4993640Y+3508375D01*
X-4993640Y+3444875D01*
X-5008880Y+3429000D01*
X-5024120Y+3429000D01*
X-5039360Y+3444875D01*
X-5039360Y+3508375D01*
X-5024120Y+3524250D01*
X-4963160Y+3651250D02*
X-4947920Y+3635375D01*
X-4947920Y+3587750D01*
X-4978400Y+3556000D01*
X-5008880Y+3556000D01*
X-5039360Y+3587750D01*
X-5039360Y+3635375D01*
X-5024120Y+3651250D01*
X-4993640Y+3698875D02*
X-4993640Y+3778250D01*
X-4963160Y+3810000D02*
X-4947920Y+3825875D01*
X-4947920Y+3889375D01*
X-4963160Y+3905250D01*
X-4978400Y+3905250D01*
X-4993640Y+3889375D01*
X-4993640Y+3825875D01*
X-5008880Y+3810000D01*
X-5024120Y+3810000D01*
X-5039360Y+3825875D01*
X-5039360Y+3889375D01*
X-5024120Y+3905250D01*
X-4947920Y+3937000D02*
X-5039360Y+3937000D01*
X-5039360Y+4000500D01*
X-5008880Y+4032250D01*
X-4978400Y+4032250D01*
X-4947920Y+4000500D01*
X-4947920Y+3937000D01*
X-4993640Y+4079875D02*
X-4993640Y+4159250D01*
X-4963160Y+4191000D02*
X-4947920Y+4206875D01*
X-4947920Y+4270375D01*
X-4963160Y+4286250D01*
X-4978400Y+4286250D01*
X-4993640Y+4270375D01*
X-4993640Y+4206875D01*
X-5008880Y+4191000D01*
X-5024120Y+4191000D01*
X-5039360Y+4206875D01*
X-5039360Y+4270375D01*
X-5024120Y+4286250D01*
X-4963160Y+4318000D02*
X-4947920Y+4333875D01*
X-4947920Y+4397375D01*
X-4963160Y+4413250D01*
X-4978400Y+4413250D01*
X-4993640Y+4397375D01*
X-4993640Y+4333875D01*
X-5008880Y+4318000D01*
X-5024120Y+4318000D01*
X-5039360Y+4333875D01*
X-5039360Y+4397375D01*
X-5024120Y+4413250D01*
X-5334000Y+762000D02*
X-5080000Y+762000D01*
X-5080000Y+2794000D01*
X-5334000Y+2794000D01*
X-5334000Y+762000D01*
X-4978400Y+1333500D02*
X-4963160Y+1333500D01*
X-4947920Y+1349375D01*
X-4947920Y+1412875D01*
X-4963160Y+1428750D01*
X-5039360Y+1428750D01*
X-4993640Y+1476375D02*
X-4993640Y+1555750D01*
X-4947920Y+1587500D02*
X-5039360Y+1587500D01*
X-5039360Y+1666875D01*
X-5024120Y+1682750D01*
X-5008880Y+1682750D01*
X-4993640Y+1666875D01*
X-4993640Y+1587500D01*
X-4993640Y+1666875D02*
X-4978400Y+1682750D01*
X-4947920Y+1682750D01*
X-4947920Y+1714500D02*
X-5039360Y+1714500D01*
X-5039360Y+1793875D01*
X-5024120Y+1809750D01*
X-5008880Y+1809750D01*
X-4993640Y+1793875D01*
X-4993640Y+1714500D01*
X-4993640Y+1857375D02*
X-4993640Y+1936750D01*
X-4947920Y+1968500D02*
X-5039360Y+1968500D01*
X-5039360Y+2047875D01*
X-5024120Y+2063750D01*
X-5008880Y+2063750D01*
X-4993640Y+2047875D01*
X-4993640Y+1968500D01*
X-4993640Y+2047875D02*
X-4978400Y+2063750D01*
X-4947920Y+2063750D01*
X-4963160Y+2095500D02*
X-4947920Y+2111375D01*
X-4947920Y+2174875D01*
X-4963160Y+2190750D01*
X-4978400Y+2190750D01*
X-4993640Y+2174875D01*
X-4993640Y+2111375D01*
X-5008880Y+2095500D01*
X-5024120Y+2095500D01*
X-5039360Y+2111375D01*
X-5039360Y+2174875D01*
X-5024120Y+2190750D01*
X-5334000Y-1270000D02*
X-5080000Y-1270000D01*
X-5080000Y+762000D01*
X-5334000Y+762000D01*
X-5334000Y-1270000D01*
X-4978400Y-889000D02*
X-4963160Y-889000D01*
X-4947920Y-873125D01*
X-4947920Y-809625D01*
X-4963160Y-793750D01*
X-5039360Y-793750D01*
X-4993640Y-746125D02*
X-4993640Y-666750D01*
X-4947920Y-635000D02*
X-5039360Y-635000D01*
X-5039360Y-555625D01*
X-5024120Y-539750D01*
X-5008880Y-539750D01*
X-4993640Y-555625D01*
X-4993640Y-635000D01*
X-4993640Y-555625D02*
X-4978400Y-539750D01*
X-4947920Y-539750D01*
X-4947920Y-508000D02*
X-5008880Y-508000D01*
X-5039360Y-476250D01*
X-5039360Y-444500D01*
X-5008880Y-412750D01*
X-4947920Y-412750D01*
X-4978400Y-508000D02*
X-4978400Y-412750D01*
X-4993640Y-365125D02*
X-4993640Y-285750D01*
X-4947920Y-254000D02*
X-5039360Y-254000D01*
X-5039360Y-174625D01*
X-5024120Y-158750D01*
X-5008880Y-158750D01*
X-4993640Y-174625D01*
X-4993640Y-254000D01*
X-4993640Y-174625D02*
X-4978400Y-158750D01*
X-4947920Y-158750D01*
X-4947920Y-127000D02*
X-5039360Y-127000D01*
X-5039360Y-47625D01*
X-5024120Y-31750D01*
X-5008880Y-31750D01*
X-4993640Y-47625D01*
X-4978400Y-31750D01*
X-4963160Y-31750D01*
X-4947920Y-47625D01*
X-4947920Y-127000D01*
X-4993640Y-127000D02*
X-4993640Y-47625D01*
X-4993640Y+15875D02*
X-4993640Y+95250D01*
X-4947920Y+127000D02*
X-5039360Y+127000D01*
X-5039360Y+206375D01*
X-5024120Y+222250D01*
X-5008880Y+222250D01*
X-4993640Y+206375D01*
X-4993640Y+127000D01*
X-4993640Y+206375D02*
X-4978400Y+222250D01*
X-4947920Y+222250D01*
X-4963160Y+349250D02*
X-4947920Y+333375D01*
X-4947920Y+285750D01*
X-4978400Y+254000D01*
X-5008880Y+254000D01*
X-5039360Y+285750D01*
X-5039360Y+333375D01*
X-5024120Y+349250D01*
X-5334000Y-3302000D02*
X-5080000Y-3302000D01*
X-5080000Y-1270000D01*
X-5334000Y-1270000D01*
X-5334000Y-3302000D01*
X-4978400Y-3048000D02*
X-4963160Y-3048000D01*
X-4947920Y-3032125D01*
X-4947920Y-2968625D01*
X-4963160Y-2952750D01*
X-5039360Y-2952750D01*
X-4993640Y-2905125D02*
X-4993640Y-2825750D01*
X-4947920Y-2794000D02*
X-5039360Y-2794000D01*
X-5039360Y-2714625D01*
X-5024120Y-2698750D01*
X-5008880Y-2698750D01*
X-4993640Y-2714625D01*
X-4993640Y-2794000D01*
X-4993640Y-2714625D02*
X-4978400Y-2698750D01*
X-4947920Y-2698750D01*
X-4947920Y-2667000D02*
X-5039360Y-2667000D01*
X-5039360Y-2603500D01*
X-5008880Y-2571750D01*
X-4978400Y-2571750D01*
X-4947920Y-2603500D01*
X-4947920Y-2667000D01*
X-4993640Y-2524125D02*
X-4993640Y-2444750D01*
X-4947920Y-2413000D02*
X-5039360Y-2413000D01*
X-4993640Y-2365375D01*
X-5039360Y-2317750D01*
X-4947920Y-2317750D01*
X-4947920Y-2190750D02*
X-4947920Y-2286000D01*
X-5039360Y-2286000D01*
X-5039360Y-2190750D01*
X-4993640Y-2286000D02*
X-4993640Y-2222500D01*
X-4947920Y-2159000D02*
X-5039360Y-2159000D01*
X-4993640Y-2111375D01*
X-5039360Y-2063750D01*
X-4947920Y-2063750D01*
X-4993640Y-2016125D02*
X-4993640Y-1936750D01*
X-4963160Y-1809750D02*
X-4947920Y-1825625D01*
X-4947920Y-1873250D01*
X-4978400Y-1905000D01*
X-5008880Y-1905000D01*
X-5039360Y-1873250D01*
X-5039360Y-1825625D01*
X-5024120Y-1809750D01*
X-4947920Y-1778000D02*
X-5039360Y-1778000D01*
X-5039360Y-1682750D02*
X-4947920Y-1682750D01*
X-4993640Y-1778000D02*
X-4993640Y-1682750D01*
X-5039360Y-1651000D02*
X-4947920Y-1651000D01*
X-5039360Y-1555750D02*
X-4993640Y-1603375D01*
X-4947920Y-1555750D01*
X-4993640Y-1651000D02*
X-4993640Y-1603375D01*
X-5334000Y-5334000D02*
X-5080000Y-5334000D01*
X-5080000Y-3302000D01*
X-5334000Y-3302000D01*
X-5334000Y-5334000D01*
X-4978400Y-4889500D02*
X-4963160Y-4889500D01*
X-4947920Y-4873625D01*
X-4947920Y-4810125D01*
X-4963160Y-4794250D01*
X-5039360Y-4794250D01*
X-4993640Y-4746625D02*
X-4993640Y-4667250D01*
X-4963160Y-4540250D02*
X-4947920Y-4556125D01*
X-4947920Y-4603750D01*
X-4978400Y-4635500D01*
X-5008880Y-4635500D01*
X-5039360Y-4603750D01*
X-5039360Y-4556125D01*
X-5024120Y-4540250D01*
X-4947920Y-4508500D02*
X-5039360Y-4508500D01*
X-5039360Y-4413250D02*
X-4947920Y-4413250D01*
X-4993640Y-4508500D02*
X-4993640Y-4413250D01*
X-5039360Y-4381500D02*
X-4947920Y-4381500D01*
X-5039360Y-4286250D02*
X-4993640Y-4333875D01*
X-4947920Y-4286250D01*
X-4993640Y-4381500D02*
X-4993640Y-4333875D01*
X-4993640Y-4238625D02*
X-4993640Y-4159250D01*
X-4947920Y-4127500D02*
X-5008880Y-4127500D01*
X-5039360Y-4095750D01*
X-5039360Y-4064000D01*
X-5008880Y-4032250D01*
X-4947920Y-4032250D01*
X-4978400Y-4127500D02*
X-4978400Y-4032250D01*
X-5039360Y-4000500D02*
X-4947920Y-4000500D01*
X-4947920Y-3905250D01*
X-5039360Y-3873500D02*
X-4963160Y-3873500D01*
X-4947920Y-3857625D01*
X-4947920Y-3794125D01*
X-4963160Y-3778250D01*
X-5039360Y-3778250D01*
X+5080000Y+2794000D02*
X+5334000Y+2794000D01*
X+5334000Y+4826000D01*
X+5080000Y+4826000D01*
X+5080000Y+2794000D01*
X+4927600Y+3302000D02*
X+4942840Y+3302000D01*
X+4958080Y+3317875D01*
X+4958080Y+3381375D01*
X+4942840Y+3397250D01*
X+4866640Y+3397250D01*
X+4912360Y+3444875D02*
X+4912360Y+3524250D01*
X+4958080Y+3556000D02*
X+4897120Y+3556000D01*
X+4866640Y+3587750D01*
X+4866640Y+3619500D01*
X+4897120Y+3651250D01*
X+4958080Y+3651250D01*
X+4927600Y+3556000D02*
X+4927600Y+3651250D01*
X+4866640Y+3683000D02*
X+4958080Y+3683000D01*
X+4958080Y+3778250D01*
X+4866640Y+3810000D02*
X+4942840Y+3810000D01*
X+4958080Y+3825875D01*
X+4958080Y+3889375D01*
X+4942840Y+3905250D01*
X+4866640Y+3905250D01*
X+4912360Y+3952875D02*
X+4912360Y+4032250D01*
X+4958080Y+4064000D02*
X+4866640Y+4064000D01*
X+4866640Y+4143375D01*
X+4881880Y+4159250D01*
X+4897120Y+4159250D01*
X+4912360Y+4143375D01*
X+4912360Y+4064000D01*
X+4912360Y+4143375D02*
X+4927600Y+4159250D01*
X+4958080Y+4159250D01*
X+4866640Y+4191000D02*
X+4866640Y+4286250D01*
X+4866640Y+4238625D02*
X+4958080Y+4238625D01*
X+5080000Y+762000D02*
X+5334000Y+762000D01*
X+5334000Y+2794000D01*
X+5080000Y+2794000D01*
X+5080000Y+762000D01*
X+4927600Y+825500D02*
X+4942840Y+825500D01*
X+4958080Y+841375D01*
X+4958080Y+904875D01*
X+4942840Y+920750D01*
X+4866640Y+920750D01*
X+4912360Y+968375D02*
X+4912360Y+1047750D01*
X+4958080Y+1079500D02*
X+4866640Y+1079500D01*
X+4866640Y+1158875D01*
X+4881880Y+1174750D01*
X+4897120Y+1174750D01*
X+4912360Y+1158875D01*
X+4912360Y+1079500D01*
X+4912360Y+1158875D02*
X+4927600Y+1174750D01*
X+4958080Y+1174750D01*
X+4866640Y+1222375D02*
X+4866640Y+1285875D01*
X+4866640Y+1254125D02*
X+4958080Y+1254125D01*
X+4958080Y+1222375D02*
X+4958080Y+1285875D01*
X+4912360Y+1349375D02*
X+4912360Y+1428750D01*
X+4958080Y+1460500D02*
X+4866640Y+1460500D01*
X+4866640Y+1539875D01*
X+4881880Y+1555750D01*
X+4897120Y+1555750D01*
X+4912360Y+1539875D01*
X+4912360Y+1460500D01*
X+4912360Y+1539875D02*
X+4927600Y+1555750D01*
X+4958080Y+1555750D01*
X+4958080Y+1587500D02*
X+4866640Y+1587500D01*
X+4866640Y+1682750D01*
X+4912360Y+1587500D02*
X+4912360Y+1651000D01*
X+4912360Y+1730375D02*
X+4912360Y+1809750D01*
X+4958080Y+1841500D02*
X+4866640Y+1841500D01*
X+4866640Y+1920875D01*
X+4881880Y+1936750D01*
X+4897120Y+1936750D01*
X+4912360Y+1920875D01*
X+4912360Y+1841500D01*
X+4912360Y+1920875D02*
X+4927600Y+1936750D01*
X+4958080Y+1936750D01*
X+4958080Y+1968500D02*
X+4897120Y+1968500D01*
X+4866640Y+2000250D01*
X+4866640Y+2032000D01*
X+4897120Y+2063750D01*
X+4958080Y+2063750D01*
X+4927600Y+1968500D02*
X+4927600Y+2063750D01*
X+4866640Y+2095500D02*
X+4958080Y+2095500D01*
X+4958080Y+2190750D01*
X+4912360Y+2238375D02*
X+4912360Y+2317750D01*
X+4958080Y+2349500D02*
X+4866640Y+2349500D01*
X+4866640Y+2428875D01*
X+4881880Y+2444750D01*
X+4897120Y+2444750D01*
X+4912360Y+2428875D01*
X+4912360Y+2349500D01*
X+4912360Y+2428875D02*
X+4927600Y+2444750D01*
X+4958080Y+2444750D01*
X+4958080Y+2476500D02*
X+4897120Y+2476500D01*
X+4866640Y+2508250D01*
X+4866640Y+2540000D01*
X+4897120Y+2571750D01*
X+4958080Y+2571750D01*
X+4927600Y+2476500D02*
X+4927600Y+2571750D01*
X+4958080Y+2603500D02*
X+4866640Y+2603500D01*
X+4866640Y+2698750D02*
X+4958080Y+2698750D01*
X+4912360Y+2603500D02*
X+4912360Y+2698750D01*
X+5080000Y-1270000D02*
X+5334000Y-1270000D01*
X+5334000Y+762000D01*
X+5080000Y+762000D01*
X+5080000Y-1270000D01*
X+4927600Y-1079500D02*
X+4942840Y-1079500D01*
X+4958080Y-1063625D01*
X+4958080Y-1000125D01*
X+4942840Y-984250D01*
X+4866640Y-984250D01*
X+4912360Y-936625D02*
X+4912360Y-857250D01*
X+4942840Y-825500D02*
X+4958080Y-809625D01*
X+4958080Y-746125D01*
X+4942840Y-730250D01*
X+4927600Y-730250D01*
X+4912360Y-746125D01*
X+4912360Y-809625D01*
X+4897120Y-825500D01*
X+4881880Y-825500D01*
X+4866640Y-809625D01*
X+4866640Y-746125D01*
X+4881880Y-730250D01*
X+4866640Y-682625D02*
X+4866640Y-619125D01*
X+4866640Y-650875D02*
X+4958080Y-650875D01*
X+4958080Y-682625D02*
X+4958080Y-619125D01*
X+4927600Y-508000D02*
X+4927600Y-476250D01*
X+4958080Y-476250D01*
X+4958080Y-539750D01*
X+4927600Y-571500D01*
X+4897120Y-571500D01*
X+4866640Y-539750D01*
X+4866640Y-492125D01*
X+4881880Y-476250D01*
X+4912360Y-428625D02*
X+4912360Y-349250D01*
X+4958080Y-317500D02*
X+4866640Y-317500D01*
X+4866640Y-254000D01*
X+4897120Y-222250D01*
X+4927600Y-222250D01*
X+4958080Y-254000D01*
X+4958080Y-317500D01*
X+4958080Y-95250D02*
X+4958080Y-190500D01*
X+4866640Y-190500D01*
X+4866640Y-95250D01*
X+4912360Y-190500D02*
X+4912360Y-127000D01*
X+4866640Y-63500D02*
X+4912360Y-63500D01*
X+4958080Y-15875D01*
X+4912360Y+31750D01*
X+4866640Y+31750D01*
X+4912360Y+79375D02*
X+4912360Y+158750D01*
X+4958080Y+190500D02*
X+4866640Y+190500D01*
X+4866640Y+269875D01*
X+4881880Y+285750D01*
X+4897120Y+285750D01*
X+4912360Y+269875D01*
X+4912360Y+190500D01*
X+4912360Y+269875D02*
X+4927600Y+285750D01*
X+4958080Y+285750D01*
X+4897120Y+317500D02*
X+4866640Y+349250D01*
X+4866640Y+381000D01*
X+4897120Y+412750D01*
X+4927600Y+412750D01*
X+4958080Y+381000D01*
X+4958080Y+349250D01*
X+4927600Y+317500D01*
X+4897120Y+317500D01*
X+4958080Y+444500D02*
X+4866640Y+444500D01*
X+4912360Y+492125D01*
X+4866640Y+539750D01*
X+4958080Y+539750D01*
X+5080000Y-3302000D02*
X+5334000Y-3302000D01*
X+5334000Y-1270000D01*
X+5080000Y-1270000D01*
X+5080000Y-3302000D01*
X+4927600Y-2857500D02*
X+4942840Y-2857500D01*
X+4958080Y-2841625D01*
X+4958080Y-2778125D01*
X+4942840Y-2762250D01*
X+4866640Y-2762250D01*
X+4912360Y-2714625D02*
X+4912360Y-2635250D01*
X+4958080Y-2603500D02*
X+4866640Y-2603500D01*
X+4866640Y-2524125D01*
X+4881880Y-2508250D01*
X+4897120Y-2508250D01*
X+4912360Y-2524125D01*
X+4912360Y-2603500D01*
X+4912360Y-2524125D02*
X+4927600Y-2508250D01*
X+4958080Y-2508250D01*
X+4958080Y-2476500D02*
X+4897120Y-2476500D01*
X+4866640Y-2444750D01*
X+4866640Y-2413000D01*
X+4897120Y-2381250D01*
X+4958080Y-2381250D01*
X+4927600Y-2476500D02*
X+4927600Y-2381250D01*
X+4958080Y-2349500D02*
X+4866640Y-2349500D01*
X+4912360Y-2301875D01*
X+4866640Y-2254250D01*
X+4958080Y-2254250D01*
X+4912360Y-2206625D02*
X+4912360Y-2127250D01*
X+4942840Y-2095500D02*
X+4958080Y-2079625D01*
X+4958080Y-2016125D01*
X+4942840Y-2000250D01*
X+4927600Y-2000250D01*
X+4912360Y-2016125D01*
X+4912360Y-2079625D01*
X+4897120Y-2095500D01*
X+4881880Y-2095500D01*
X+4866640Y-2079625D01*
X+4866640Y-2016125D01*
X+4881880Y-2000250D01*
X+4958080Y-1873250D02*
X+4958080Y-1968500D01*
X+4866640Y-1968500D01*
X+4866640Y-1873250D01*
X+4912360Y-1968500D02*
X+4912360Y-1905000D01*
X+4866640Y-1841500D02*
X+4958080Y-1841500D01*
X+4958080Y-1746250D01*
X+5080000Y-5334000D02*
X+5334000Y-5334000D01*
X+5334000Y-3302000D01*
X+5080000Y-3302000D01*
X+5080000Y-5334000D01*
X+4927600Y-4635500D02*
X+4942840Y-4635500D01*
X+4958080Y-4619625D01*
X+4958080Y-4556125D01*
X+4942840Y-4540250D01*
X+4866640Y-4540250D01*
X+4912360Y-4492625D02*
X+4912360Y-4413250D01*
X+4866640Y-4381500D02*
X+4912360Y-4381500D01*
X+4958080Y-4333875D01*
X+4912360Y-4286250D01*
X+4866640Y-4286250D01*
X+4942840Y-4159250D02*
X+4958080Y-4175125D01*
X+4958080Y-4222750D01*
X+4927600Y-4254500D01*
X+4897120Y-4254500D01*
X+4866640Y-4222750D01*
X+4866640Y-4175125D01*
X+4881880Y-4159250D01*
X+4942840Y-4032250D02*
X+4958080Y-4048125D01*
X+4958080Y-4095750D01*
X+4927600Y-4127500D01*
X+4897120Y-4127500D01*
X+4866640Y-4095750D01*
X+4866640Y-4048125D01*
X+4881880Y-4032250D01*
X-3175000Y+4318000D02*
X-3123248Y+4323080D01*
X-3075305Y+4337685D01*
X-3032125Y+4360862D01*
X-2994660Y+4391660D01*
X-2963862Y+4429125D01*
X-2940685Y+4472305D01*
X-2926080Y+4520248D01*
X-2921000Y+4572000D01*
X-3175000Y+4318000D02*
X-3227482Y+4323080D01*
X-3275766Y+4337685D01*
X-3318991Y+4360862D01*
X-3356292Y+4391660D01*
X-3386807Y+4429125D01*
X-3409672Y+4472305D01*
X-3424024Y+4520248D01*
X-3429000Y+4572000D01*
X-2921000Y+4572000D02*
X-2540000Y+4572000D01*
X-2540000Y+1524000D01*
X-3810000Y+1524000D01*
X-3810000Y+4572000D01*
X-3429000Y+4572000D01*
X-3365500Y+4612640D02*
X-3365500Y+4704080D01*
X-3317875Y+4658360D01*
X-3270250Y+4704080D01*
X-3270250Y+4612640D01*
X-3222625Y+4704080D02*
X-3159125Y+4704080D01*
X-3190875Y+4704080D02*
X-3190875Y+4612640D01*
X-3222625Y+4612640D02*
X-3159125Y+4612640D01*
X-3111500Y+4627880D02*
X-3111500Y+4688840D01*
X-3095625Y+4704080D01*
X-3032125Y+4704080D01*
X-3016250Y+4688840D01*
X-3016250Y+4627880D01*
X-3032125Y+4612640D01*
X-3095625Y+4612640D01*
X-3111500Y+4627880D01*
X-3111500Y+4612640D02*
X-3016250Y+4704080D01*
X-3175000Y+1016000D02*
X-3123248Y+1021080D01*
X-3075305Y+1035685D01*
X-3032125Y+1058862D01*
X-2994660Y+1089660D01*
X-2963862Y+1127125D01*
X-2940685Y+1170305D01*
X-2926080Y+1218248D01*
X-2921000Y+1270000D01*
X-3175000Y+1016000D02*
X-3227482Y+1021080D01*
X-3275766Y+1035685D01*
X-3318991Y+1058862D01*
X-3356292Y+1089660D01*
X-3386807Y+1127125D01*
X-3409672Y+1170305D01*
X-3424024Y+1218248D01*
X-3429000Y+1270000D01*
X-2921000Y+1270000D02*
X-2540000Y+1270000D01*
X-2540000Y-1778000D01*
X-3810000Y-1778000D01*
X-3810000Y+1270000D01*
X-3429000Y+1270000D01*
X-3365500Y+1310640D02*
X-3365500Y+1402080D01*
X-3317875Y+1356360D01*
X-3270250Y+1402080D01*
X-3270250Y+1310640D01*
X-3222625Y+1402080D02*
X-3159125Y+1402080D01*
X-3190875Y+1402080D02*
X-3190875Y+1310640D01*
X-3222625Y+1310640D02*
X-3159125Y+1310640D01*
X-3079750Y+1371600D02*
X-3048000Y+1402080D01*
X-3048000Y+1310640D01*
X-3175000Y-2286000D02*
X-3123248Y-2280920D01*
X-3075305Y-2266315D01*
X-3032125Y-2243138D01*
X-2994660Y-2212340D01*
X-2963862Y-2174875D01*
X-2940685Y-2131695D01*
X-2926080Y-2083752D01*
X-2921000Y-2032000D01*
X-3175000Y-2286000D02*
X-3227482Y-2280920D01*
X-3275766Y-2266315D01*
X-3318991Y-2243138D01*
X-3356292Y-2212340D01*
X-3386807Y-2174875D01*
X-3409672Y-2131695D01*
X-3424024Y-2083752D01*
X-3429000Y-2032000D01*
X-2921000Y-2032000D02*
X-2540000Y-2032000D01*
X-2540000Y-5080000D01*
X-3810000Y-5080000D01*
X-3810000Y-2032000D01*
X-3429000Y-2032000D01*
X-3365500Y-1991360D02*
X-3365500Y-1899920D01*
X-3317875Y-1945640D01*
X-3270250Y-1899920D01*
X-3270250Y-1991360D01*
X-3222625Y-1899920D02*
X-3159125Y-1899920D01*
X-3190875Y-1899920D02*
X-3190875Y-1991360D01*
X-3222625Y-1991360D02*
X-3159125Y-1991360D01*
X-3095625Y-1915160D02*
X-3079750Y-1899920D01*
X-3032125Y-1899920D01*
X-3016250Y-1915160D01*
X-3016250Y-1930400D01*
X-3032125Y-1945640D01*
X-3079750Y-1945640D01*
X-3095625Y-1960880D01*
X-3095625Y-1991360D01*
X-3016250Y-1991360D01*
X+0Y+4318000D02*
X+51752Y+4323080D01*
X+99695Y+4337685D01*
X+142875Y+4360862D01*
X+180340Y+4391660D01*
X+211138Y+4429125D01*
X+234315Y+4472305D01*
X+248920Y+4520248D01*
X+254000Y+4572000D01*
X+0Y+4318000D02*
X-52482Y+4323080D01*
X-100766Y+4337685D01*
X-143991Y+4360862D01*
X-181292Y+4391660D01*
X-211807Y+4429125D01*
X-234672Y+4472305D01*
X-249024Y+4520248D01*
X-254000Y+4572000D01*
X+254000Y+4572000D02*
X+635000Y+4572000D01*
X+635000Y+1524000D01*
X-635000Y+1524000D01*
X-635000Y+4572000D01*
X-254000Y+4572000D01*
X-190500Y+4358640D02*
X-190500Y+4450080D01*
X-142875Y+4404360D01*
X-95250Y+4450080D01*
X-95250Y+4358640D01*
X-47625Y+4450080D02*
X+15875Y+4450080D01*
X-15875Y+4450080D02*
X-15875Y+4358640D01*
X-47625Y+4358640D02*
X+15875Y+4358640D01*
X+79375Y+4434840D02*
X+95250Y+4450080D01*
X+142875Y+4450080D01*
X+158750Y+4434840D01*
X+158750Y+4419600D01*
X+142875Y+4404360D01*
X+158750Y+4389120D01*
X+158750Y+4373880D01*
X+142875Y+4358640D01*
X+95250Y+4358640D01*
X+79375Y+4373880D01*
X+111125Y+4404360D02*
X+142875Y+4404360D01*
X+0Y+1016000D02*
X+51752Y+1021080D01*
X+99695Y+1035685D01*
X+142875Y+1058862D01*
X+180340Y+1089660D01*
X+211138Y+1127125D01*
X+234315Y+1170305D01*
X+248920Y+1218248D01*
X+254000Y+1270000D01*
X+0Y+1016000D02*
X-52482Y+1021080D01*
X-100766Y+1035685D01*
X-143991Y+1058862D01*
X-181292Y+1089660D01*
X-211807Y+1127125D01*
X-234672Y+1170305D01*
X-249024Y+1218248D01*
X-254000Y+1270000D01*
X+254000Y+1270000D02*
X+635000Y+1270000D01*
X+635000Y-1778000D01*
X-635000Y-1778000D01*
X-635000Y+1270000D01*
X-254000Y+1270000D01*
X-190500Y+1310640D02*
X-190500Y+1402080D01*
X-142875Y+1356360D01*
X-95250Y+1402080D01*
X-95250Y+1310640D01*
X-47625Y+1402080D02*
X+15875Y+1402080D01*
X-15875Y+1402080D02*
X-15875Y+1310640D01*
X-47625Y+1310640D02*
X+15875Y+1310640D01*
X+158750Y+1341120D02*
X+63500Y+1341120D01*
X+127000Y+1402080D01*
X+127000Y+1310640D01*
X+0Y-2286000D02*
X+51752Y-2280920D01*
X+99695Y-2266315D01*
X+142875Y-2243138D01*
X+180340Y-2212340D01*
X+211138Y-2174875D01*
X+234315Y-2131695D01*
X+248920Y-2083752D01*
X+254000Y-2032000D01*
X+0Y-2286000D02*
X-52482Y-2280920D01*
X-100766Y-2266315D01*
X-143991Y-2243138D01*
X-181292Y-2212340D01*
X-211807Y-2174875D01*
X-234672Y-2131695D01*
X-249024Y-2083752D01*
X-254000Y-2032000D01*
X+254000Y-2032000D02*
X+635000Y-2032000D01*
X+635000Y-5080000D01*
X-635000Y-5080000D01*
X-635000Y-2032000D01*
X-254000Y-2032000D01*
X-190500Y-1991360D02*
X-190500Y-1899920D01*
X-142875Y-1945640D01*
X-95250Y-1899920D01*
X-95250Y-1991360D01*
X-47625Y-1899920D02*
X+15875Y-1899920D01*
X-15875Y-1899920D02*
X-15875Y-1991360D01*
X-47625Y-1991360D02*
X+15875Y-1991360D01*
X+158750Y-1899920D02*
X+79375Y-1899920D01*
X+79375Y-1930400D01*
X+142875Y-1930400D01*
X+158750Y-1945640D01*
X+158750Y-1976120D01*
X+142875Y-1991360D01*
X+95250Y-1991360D01*
X+79375Y-1976120D01*
X+3175000Y+4318000D02*
X+3226752Y+4323080D01*
X+3274695Y+4337685D01*
X+3317875Y+4360862D01*
X+3355340Y+4391660D01*
X+3386138Y+4429125D01*
X+3409315Y+4472305D01*
X+3423920Y+4520248D01*
X+3429000Y+4572000D01*
X+3175000Y+4318000D02*
X+3122518Y+4323080D01*
X+3074234Y+4337685D01*
X+3031009Y+4360862D01*
X+2993708Y+4391660D01*
X+2963193Y+4429125D01*
X+2940328Y+4472305D01*
X+2925976Y+4520248D01*
X+2921000Y+4572000D01*
X+3429000Y+4572000D02*
X+3810000Y+4572000D01*
X+3810000Y+1524000D01*
X+2540000Y+1524000D01*
X+2540000Y+4572000D01*
X+2921000Y+4572000D01*
X+2984500Y+4612640D02*
X+2984500Y+4704080D01*
X+3032125Y+4658360D01*
X+3079750Y+4704080D01*
X+3079750Y+4612640D01*
X+3127375Y+4704080D02*
X+3190875Y+4704080D01*
X+3159125Y+4704080D02*
X+3159125Y+4612640D01*
X+3127375Y+4612640D02*
X+3190875Y+4612640D01*
X+3333750Y+4688840D02*
X+3317875Y+4704080D01*
X+3270250Y+4704080D01*
X+3254375Y+4688840D01*
X+3254375Y+4627880D01*
X+3270250Y+4612640D01*
X+3317875Y+4612640D01*
X+3333750Y+4627880D01*
X+3333750Y+4643120D01*
X+3317875Y+4658360D01*
X+3254375Y+4658360D01*
X+3175000Y+1016000D02*
X+3226752Y+1021080D01*
X+3274695Y+1035685D01*
X+3317875Y+1058862D01*
X+3355340Y+1089660D01*
X+3386138Y+1127125D01*
X+3409315Y+1170305D01*
X+3423920Y+1218248D01*
X+3429000Y+1270000D01*
X+3175000Y+1016000D02*
X+3122518Y+1021080D01*
X+3074234Y+1035685D01*
X+3031009Y+1058862D01*
X+2993708Y+1089660D01*
X+2963193Y+1127125D01*
X+2940328Y+1170305D01*
X+2925976Y+1218248D01*
X+2921000Y+1270000D01*
X+3429000Y+1270000D02*
X+3810000Y+1270000D01*
X+3810000Y-1778000D01*
X+2540000Y-1778000D01*
X+2540000Y+1270000D01*
X+2921000Y+1270000D01*
X+2984500Y+1310640D02*
X+2984500Y+1402080D01*
X+3032125Y+1356360D01*
X+3079750Y+1402080D01*
X+3079750Y+1310640D01*
X+3127375Y+1402080D02*
X+3190875Y+1402080D01*
X+3159125Y+1402080D02*
X+3159125Y+1310640D01*
X+3127375Y+1310640D02*
X+3190875Y+1310640D01*
X+3254375Y+1402080D02*
X+3333750Y+1402080D01*
X+3333750Y+1386840D01*
X+3254375Y+1310640D01*
X+3175000Y-2286000D02*
X+3226752Y-2280920D01*
X+3274695Y-2266315D01*
X+3317875Y-2243138D01*
X+3355340Y-2212340D01*
X+3386138Y-2174875D01*
X+3409315Y-2131695D01*
X+3423920Y-2083752D01*
X+3429000Y-2032000D01*
X+3175000Y-2286000D02*
X+3122518Y-2280920D01*
X+3074234Y-2266315D01*
X+3031009Y-2243138D01*
X+2993708Y-2212340D01*
X+2963193Y-2174875D01*
X+2940328Y-2131695D01*
X+2925976Y-2083752D01*
X+2921000Y-2032000D01*
X+3429000Y-2032000D02*
X+3810000Y-2032000D01*
X+3810000Y-5080000D01*
X+2540000Y-5080000D01*
X+2540000Y-2032000D01*
X+2921000Y-2032000D01*
X+2984500Y-1991360D02*
X+2984500Y-1899920D01*
X+3032125Y-1945640D01*
X+3079750Y-1899920D01*
X+3079750Y-1991360D01*
X+3127375Y-1899920D02*
X+3190875Y-1899920D01*
X+3159125Y-1899920D02*
X+3159125Y-1991360D01*
X+3127375Y-1991360D02*
X+3190875Y-1991360D01*
X+3270250Y-1945640D02*
X+3254375Y-1930400D01*
X+3254375Y-1915160D01*
X+3270250Y-1899920D01*
X+3317875Y-1899920D01*
X+3333750Y-1915160D01*
X+3333750Y-1930400D01*
X+3317875Y-1945640D01*
X+3270250Y-1945640D01*
X+3254375Y-1960880D01*
X+3254375Y-1976120D01*
X+3270250Y-1991360D01*
X+3317875Y-1991360D01*
X+3333750Y-1976120D01*
X+3333750Y-1960880D01*
X+3317875Y-1945640D01*
M02*
