G04 PROTEUS GERBER X2 FILE*
%TF.GenerationSoftware,Labcenter,Proteus,8.13-SP0-Build31525*%
%TF.CreationDate,2022-07-18T16:04:25+00:00*%
%TF.FileFunction,Copper,L1,Top*%
%TF.FilePolarity,Positive*%
%TF.Part,Single*%
%TF.SameCoordinates,{a14ccd22-1d2d-4c41-ae0f-5237a1d864ee}*%
%FSLAX45Y45*%
%MOMM*%
G01*
%TA.AperFunction,Conductor*%
%ADD10C,0.254000*%
%TA.AperFunction,ViaPad*%
%ADD11C,0.762000*%
%TA.AperFunction,ComponentPad*%
%ADD12R,2.032000X2.032000*%
%TA.AperFunction,ComponentPad*%
%ADD13R,1.270000X1.270000*%
%ADD14C,1.270000*%
%TA.AperFunction,Profile*%
%ADD15C,0.203200*%
%TD.AperFunction*%
D10*
X-3175000Y+2794000D02*
X-3810000Y+2794000D01*
X-3937000Y+2667000D01*
X+2413000Y-635000D02*
X+2667000Y-635000D01*
X-762000Y-3937000D02*
X-889000Y-3810000D01*
X-3810000Y-3810000D01*
X-3937000Y-3937000D01*
X-762000Y+2667000D02*
X+381000Y+2667000D01*
X+508000Y+2540000D01*
X+2286000Y+2540000D01*
X+2413000Y+2667000D01*
X-762000Y-3937000D02*
X-444500Y-3937000D01*
X-317500Y-3810000D01*
X+2286000Y-3810000D01*
X+2413000Y-3937000D01*
X-3048000Y+2794000D02*
X-3175000Y+2794000D01*
X-2921000Y+2794000D02*
X-3048000Y+2794000D01*
X-762000Y+2667000D02*
X-889000Y+2794000D01*
X-2921000Y+2794000D01*
X-762000Y-635000D02*
X-889000Y-508000D01*
X-3810000Y-508000D01*
X-3937000Y-635000D01*
X-762000Y-635000D02*
X-635000Y-762000D01*
X+2286000Y-762000D01*
X+2413000Y-635000D01*
X+762000Y-127000D02*
X+1714500Y-127000D01*
X+1778000Y-190500D01*
X+1778000Y-444500D01*
X+1841500Y-508000D01*
X+3492500Y-508000D01*
X+3619500Y-381000D01*
X+762000Y+3175000D02*
X+869950Y+3175000D01*
X+933450Y+3111500D01*
X+2159000Y+3111500D01*
X+2222500Y+3048000D01*
X+3683000Y+3048000D01*
X+762000Y-3429000D02*
X+889000Y-3302000D01*
X+3365500Y-3302000D01*
X+3619500Y-381000D02*
X+3619500Y-190500D01*
X+3683000Y-127000D01*
X+3937000Y-127000D01*
X+3683000Y+3048000D02*
X+3810000Y+3175000D01*
X+3937000Y+3175000D01*
X+762000Y-127000D02*
X-190500Y-127000D01*
X-317500Y-254000D01*
X-1079500Y-254000D01*
X-1206500Y-127000D01*
X-2413000Y-127000D01*
X+762000Y-3429000D02*
X+63500Y-3429000D01*
X-63500Y-3556000D01*
X-952500Y-3556000D01*
X-1079500Y-3429000D01*
X-2413000Y-3429000D01*
X+762000Y+3175000D02*
X-381000Y+3175000D01*
X+3365500Y-3302000D02*
X+3492500Y-3429000D01*
X+3937000Y-3429000D01*
X+762000Y-2921000D02*
X+2159000Y-2920999D01*
X+2285999Y-2794000D01*
X+3302000Y-2794000D01*
X-127000Y+3619500D02*
X-190500Y+3556000D01*
X-2285999Y+3556000D01*
X-2413000Y+3683000D01*
X-2413000Y+3683001D01*
X+762000Y+381000D02*
X+1841500Y+381001D01*
X+1968501Y+254000D01*
X+3302000Y+254000D01*
X+3429000Y+381000D01*
X+762000Y+381001D02*
X+762000Y+381000D01*
X-317500Y+381001D01*
X-444501Y+254000D01*
X-1270000Y+254000D01*
X-1397001Y+381001D01*
X-2413000Y+381000D01*
X-2413000Y+381001D01*
X+762000Y+3683000D02*
X+1778000Y+3683001D01*
X+1905001Y+3556000D01*
X+3809999Y+3556000D01*
X+3937000Y+3683000D01*
X+3937000Y+3683001D01*
X+762000Y+3683001D02*
X+762000Y+3683000D01*
X+317500Y+3683001D01*
X+253999Y+3619500D01*
X+0Y+3619500D01*
X+3429000Y+381000D02*
X+3429001Y+381001D01*
X+3937000Y+381000D01*
X+3937000Y+381001D01*
X+762000Y-2920999D02*
X+762000Y-2921000D01*
X+711199Y-2971800D01*
X+0Y-2971800D01*
X-76200Y-3048000D01*
X-1714500Y-3048000D01*
X-1841500Y-2921000D01*
X+3302000Y-2794000D02*
X+3428999Y-2920999D01*
X+3937000Y-2921000D01*
X+3937000Y-2920999D01*
X-127000Y+3619500D02*
X+0Y+3619500D01*
X-762000Y-381000D02*
X-127000Y-381000D01*
X+0Y-254000D01*
X+1651000Y-254000D01*
X+1714500Y-317500D01*
X+1714500Y-571500D01*
X+1778000Y-635000D01*
X+1905000Y-635000D01*
X-762000Y+2921000D02*
X-635000Y+3048000D01*
X+825500Y+3048000D01*
X+952500Y+2921000D01*
X+2413000Y+2921000D01*
X-762000Y+2921000D02*
X-889000Y+3048000D01*
X-2730500Y+3048000D01*
X-2857500Y+3048000D02*
X-2984500Y+2921000D01*
X-3937000Y+2921000D01*
X-762000Y-381000D02*
X-1587500Y-381000D01*
X-1714500Y-254000D01*
X-3810000Y-254000D01*
X-3937000Y-381000D01*
X-762000Y-3683000D02*
X-1587500Y-3683000D01*
X-1714500Y-3556000D01*
X-3810000Y-3556000D01*
X-3937000Y-3683000D01*
X-2857500Y+3048000D02*
X-2730500Y+3048000D01*
X+2413000Y-381000D02*
X+2540000Y-254000D01*
X+2730500Y-254000D01*
X+2413000Y-381000D02*
X+1905000Y-381000D01*
X-762000Y-3683000D02*
X+508000Y-3683000D01*
X+635000Y-3556000D01*
X+1905000Y-3556000D01*
X+2413000Y-3683000D02*
X+2286000Y-3556000D01*
X+1905000Y-3556000D01*
X+2413000Y-3429000D02*
X+2603500Y-3619500D01*
X+2603500Y-4000500D01*
X+2540000Y-4064000D01*
X+190500Y-4064000D01*
X+825500Y+0D02*
X+952500Y+0D01*
X-762000Y-127000D02*
X-635000Y+0D01*
X+825500Y+0D01*
X-762000Y+3175000D02*
X-635000Y+3302000D01*
X+806450Y+3302000D01*
X+869950Y+3238500D01*
X+952500Y+3238500D01*
X+965200Y+3225800D01*
X+1079500Y+3225800D01*
X+1130300Y+3175000D01*
X+2413000Y+3175000D01*
X+2413000Y-127000D02*
X+2286000Y+0D01*
X+952500Y+0D01*
X-2667000Y+3302000D02*
X-3810000Y+3302000D01*
X-3937000Y+3175000D01*
X-2286000Y+3302000D02*
X-2667000Y+3302000D01*
X-762000Y+3175000D02*
X-889000Y+3302000D01*
X-2286000Y+3302000D01*
X-762000Y-127000D02*
X-889000Y+0D01*
X-3810000Y+0D01*
X-3937000Y-127000D01*
X-762000Y-3429000D02*
X-889000Y-3302000D01*
X-3810000Y-3302000D01*
X-3937000Y-3429000D01*
X-2540000Y+3683000D02*
X-2794000Y+3429000D01*
X-3937000Y+3429000D01*
X-762000Y-3175000D02*
X-2095500Y-3175000D01*
X-2222500Y-3048000D01*
X-3810000Y-3048000D01*
X-3937000Y-3175000D01*
X-762000Y+127000D02*
X-1778000Y+127000D01*
X-1905000Y+254000D01*
X-2603500Y+254000D01*
X-2730500Y+127000D01*
X-3937000Y+127000D01*
X-762000Y+127000D02*
X+317500Y+127000D01*
X+444500Y+254000D01*
X+1587500Y+254000D01*
X+1714500Y+127000D01*
X+2413000Y+127000D01*
X-762000Y+3429000D02*
X+381000Y+3429000D01*
X+508000Y+3556000D01*
X+952500Y+3556000D01*
X+1079500Y+3429000D01*
X+2413000Y+3429000D01*
X-762000Y-3175000D02*
X+63500Y-3175000D01*
X+190500Y-3048000D01*
X+2222500Y-3048000D01*
X+2286000Y-3048000D01*
X+2413000Y-3175000D01*
X-762000Y+3683000D02*
X-381000Y+3683000D01*
X-254000Y+3810000D01*
X+1968500Y+3810000D01*
X+2095500Y+3683000D01*
X+2413000Y+3683000D01*
X-762000Y+381000D02*
X-889000Y+508000D01*
X-3810000Y+508000D01*
X-3937000Y+381000D01*
X-762000Y-2921000D02*
X-1524000Y-2921000D01*
X-1651000Y-2794000D01*
X-3810000Y-2794000D01*
X-3937000Y-2921000D01*
X-762000Y+381000D02*
X-571500Y+381000D01*
X-444500Y+508000D01*
X+1968500Y+508000D01*
X+2095500Y+381000D01*
X+2413000Y+381000D01*
X-2032000Y+3810000D02*
X-3810000Y+3810000D01*
X-3937000Y+3683000D01*
X-1905000Y+3810000D02*
X-1778000Y+3810000D01*
X-762000Y-2921000D02*
X+508000Y-2921000D01*
X+635000Y-2794000D01*
X+1905000Y-2794000D01*
X-1905000Y+3810000D02*
X-2032000Y+3810000D01*
X+2095500Y-2794000D02*
X+1905000Y-2794000D01*
X-762000Y+3683000D02*
X-889000Y+3810000D01*
X-1778000Y+3810000D01*
X+1587500Y-2667000D02*
X+1714500Y-2667000D01*
X-762000Y+635000D02*
X-889000Y+762000D01*
X-3810000Y+762000D01*
X-3937000Y+635000D01*
X-1778000Y+4064000D02*
X-3810000Y+4064000D01*
X-3937000Y+3937000D01*
X-762000Y+3937000D02*
X-889000Y+4064000D01*
X-1778000Y+4064000D01*
X+1905000Y+762000D02*
X+2286000Y+762000D01*
X+2413000Y+635000D01*
X-762000Y+3937000D02*
X-635000Y+4064000D01*
X+1587500Y+4064000D01*
X+1714500Y+3937000D01*
X+2413000Y+3937000D01*
X-762000Y-2667000D02*
X-1206500Y-2667000D01*
X-1333500Y-2540000D01*
X-3810000Y-2540000D01*
X-3937000Y-2667000D01*
X-762000Y+635000D02*
X-635000Y+762000D01*
X+1905000Y+762000D01*
X-762000Y-2667000D02*
X+190500Y-2667000D01*
X+317500Y-2540000D01*
X+1079500Y-2540000D01*
X+1206500Y-2667000D01*
X+1587500Y-2667000D01*
X+1714500Y-2667000D02*
X+2413000Y-2667000D01*
X-762000Y-2413000D02*
X-635000Y-2286000D01*
X+1714500Y-2286000D01*
X+1714500Y-2413000D02*
X+1714500Y-2286000D01*
X+1714500Y-2413000D02*
X+2413000Y-2413000D01*
X+2857500Y+889000D02*
X+2413000Y+889000D01*
X-3937000Y+4191000D02*
X-3810000Y+4318000D01*
X-1397000Y+4318000D01*
X-762000Y+889000D02*
X+508000Y+889000D01*
X+635000Y+1016000D01*
X+1778000Y+1016000D01*
X-3937000Y+889000D02*
X-3810000Y+1016000D01*
X-889000Y+1016000D01*
X-762000Y+889000D01*
X-762000Y-2413000D02*
X-889000Y-2286000D01*
X-3810000Y-2286000D01*
X-3937000Y-2413000D01*
X-1143000Y+4953000D02*
X-1143000Y+4762500D01*
X-3619500Y+4762500D01*
X-3937000Y+4445000D01*
X-3238500Y+4445000D01*
X-3048000Y+4635500D01*
X-571500Y+4635500D01*
X-381000Y+4445000D01*
X+127000Y+4445000D01*
X+254000Y+4572000D01*
X+2286000Y+4572000D01*
X+2413000Y+4445000D01*
X-762000Y+1143000D02*
X+127000Y+1143000D01*
X+254000Y+1270000D01*
X+2286000Y+1270000D01*
X+2413000Y+1143000D01*
X-762000Y-2159000D02*
X-635000Y-2032000D01*
X+2286000Y-2032000D01*
X+2413000Y-2159000D01*
X-762000Y+1143000D02*
X-889000Y+1270000D01*
X-3810000Y+1270000D01*
X-3937000Y+1143000D01*
X+762000Y+4191000D02*
X+2159000Y+4191001D01*
X+2286001Y+4064000D01*
X+3175000Y+4064000D01*
X+3302000Y+3937000D01*
X+762000Y+889001D02*
X+762000Y+889000D01*
X+1968500Y+889001D01*
X+2095499Y+1016000D01*
X+3302000Y+1016000D01*
X+762000Y-2413000D02*
X+1270000Y-2412999D01*
X+1397001Y-2540000D01*
X+3238500Y-2540000D01*
X+762000Y+4191001D02*
X+762000Y+4191000D01*
X+635001Y+4318000D01*
X-952500Y+4318000D01*
X-1079499Y+4191001D01*
X-2413000Y+4191000D01*
X-2413000Y+4191001D01*
X+3302000Y+1016000D02*
X+3428999Y+889001D01*
X+3937000Y+889000D01*
X+3937000Y+889001D01*
X+762000Y-2412999D02*
X+762000Y-2413000D01*
X+190500Y-2412999D01*
X+63499Y-2540000D01*
X-952500Y-2540000D01*
X-1079501Y-2412999D01*
X-2413000Y-2413000D01*
X-2413000Y-2412999D01*
X+3238500Y-2540000D02*
X+3365501Y-2412999D01*
X+3937000Y-2413000D01*
X+3937000Y-2412999D01*
X+762000Y+635001D02*
X+762000Y+635000D01*
X+2095500Y+635001D01*
X+2222501Y+508000D01*
X+3365500Y+508000D01*
X+3302000Y-2286000D02*
X+4064000Y-2286000D01*
X+4127500Y-2349500D01*
X+4127500Y-2476499D01*
X+3937000Y-2667000D01*
X+3937000Y-2666999D01*
X+3365500Y+508000D02*
X+3492501Y+635001D01*
X+3937000Y+635000D01*
X+3937000Y+635001D01*
X+762000Y-2666999D02*
X+762000Y-2667000D01*
X+381000Y-2666999D01*
X+253999Y-2794000D01*
X-1333500Y-2794000D01*
X-1460501Y-2666999D01*
X-2413000Y-2667000D01*
X-2413000Y-2666999D01*
X+762000Y+3937000D02*
X+889000Y+3937001D01*
X+952501Y+3873500D01*
X+2159000Y+3873500D01*
X+2222500Y+3810000D01*
X+3809999Y+3810000D01*
X+3937000Y+3937000D01*
X+3937000Y+3937001D01*
X+762000Y+3937001D02*
X+762000Y+3937000D01*
X-444499Y+3937001D01*
X-571500Y+3810000D01*
X+3302000Y-2286000D02*
X+2159000Y-2286000D01*
X+2032000Y-2159000D01*
X+889000Y-2159000D01*
X+5207000Y+4191000D02*
X+4508500Y+4191000D01*
X+4445000Y+4127500D01*
X+4445000Y+2857500D01*
X+4381500Y+2794000D01*
X+3810000Y+2794000D01*
X+3746500Y+2730500D01*
X+3746500Y+2603500D01*
X+3937000Y+2413000D01*
X+5207000Y+3937000D02*
X+4635500Y+3937000D01*
X+4572000Y+3873500D01*
X+4572000Y+2730500D01*
X+4508500Y+2667000D01*
X+3937000Y+2667000D01*
X+4254500Y+2159000D02*
X+3937000Y+2159000D01*
X+1016000Y-5016500D02*
X+889000Y-5143500D01*
X-4699000Y-5143500D01*
X-4762500Y-5080000D01*
X-4762500Y-4762500D01*
X-4826000Y-4699000D01*
X-5207000Y-4699000D01*
X+1206500Y+2159000D02*
X+2413000Y+2159000D01*
X+1333500Y+1905000D02*
X+2413000Y+1905000D01*
X+1460500Y+1460500D02*
X+2794000Y+1460500D01*
X+2984500Y+1651000D01*
X+3937000Y+1651000D01*
X-3937000Y+2540000D02*
X-2540000Y+2540000D01*
X+1587500Y-508000D02*
X-635000Y-508000D01*
X+2984500Y-1016000D02*
X-1016000Y-1016000D01*
X-2540000Y+2159000D02*
X-3937000Y+2159000D01*
X+635000Y+4762500D02*
X+571500Y+4699000D01*
X-3492500Y+4699000D01*
X-3556000Y+4635500D01*
X+1333500Y+2794000D02*
X+254000Y+2794000D01*
X+1460500Y+2794000D02*
X+2476500Y+2794000D01*
X+2540000Y+2730500D01*
X+2540000Y+2349500D01*
X+2476500Y+2286000D01*
X-63500Y+2286000D01*
X-317500Y+2540000D01*
X-2286000Y+2540000D01*
X-2413000Y+2413000D01*
X-254000Y+4572000D02*
X-190500Y+4635500D01*
X+1841500Y+4635500D01*
X+1905000Y+4699000D01*
X+1905000Y+4953000D01*
X+889000Y-635000D02*
X+1587500Y-635000D01*
X+1079500Y+3302000D02*
X+4064000Y+3302000D01*
X+4127500Y+3365500D01*
X+4127500Y+4572000D01*
X+4064000Y+4635500D01*
X+2476500Y+4635500D01*
X+2413000Y+4699000D01*
X+2413000Y+4953000D01*
X-1778000Y-1270000D02*
X+1016000Y-1270000D01*
X-4191000Y-4953000D02*
X-4191000Y-3492500D01*
X-4254500Y-3429000D01*
X-5207000Y-3429000D01*
X-5207000Y-3175000D02*
X-4191000Y-3175000D01*
X-4127500Y-3238500D01*
X-4127500Y-4762500D01*
X-4064000Y-4826000D01*
X+127000Y-4826000D01*
X+254000Y-4953000D01*
X+762000Y-4953000D01*
X+1333500Y+2413000D02*
X+2413000Y+2413000D01*
X+63500Y-5016500D02*
X+41698Y-5038302D01*
X+41698Y-5080000D01*
X-4635500Y-5080000D01*
X-4699000Y-5016500D01*
X-4699000Y-4254500D01*
X-4762500Y-4191000D01*
X-5207000Y-4191000D01*
X-3937000Y-4064000D02*
X-444500Y-4064000D01*
X-317500Y-4191000D01*
X+762000Y-4191000D01*
X-4445000Y-4064000D02*
X-4572000Y-3937000D01*
X-5207000Y-3937000D01*
X-4318000Y-4572000D02*
X-4318000Y-3746500D01*
X-4381500Y-3683000D01*
X-5207000Y-3683000D01*
X-4000500Y-4572000D02*
X+635000Y-4572000D01*
X+762000Y-4445000D01*
X-4254500Y-2921000D02*
X-5207000Y-2921000D01*
X+2413000Y+1651000D02*
X+3683000Y+2921000D01*
X+3937000Y+2921000D01*
X+2413000Y-4953000D02*
X+2286000Y-4826000D01*
X+444500Y-4826000D01*
X+635000Y+1651000D02*
X+635000Y+1778000D01*
X+1460500Y+1778000D01*
X+3492500Y-4826000D02*
X+4826000Y-4826000D01*
X+4953000Y-4953000D01*
X+5207000Y-4953000D01*
X+635000Y+1651000D02*
X-762000Y+1651000D01*
X+3746500Y-1778000D02*
X+2540000Y-1778000D01*
X+2413000Y-1651000D01*
X-762000Y-1651000D02*
X+444500Y-1651000D01*
X+2413000Y+1651000D02*
X+1587500Y+1651000D01*
X+1460500Y+1778000D01*
X-4254500Y-2159000D02*
X-5207000Y-2159000D01*
X-4318000Y-2413000D02*
X-5207000Y-2413000D01*
X-4254500Y-2667000D02*
X-5207000Y-2667000D01*
X-5207000Y+889000D02*
X-4572000Y+889000D01*
X-4064000Y+1397000D01*
X+508000Y+1397000D01*
X+762000Y+1651000D01*
X-1143000Y+1905000D02*
X-1016000Y+2032000D01*
X+635000Y+2032000D01*
X+762000Y+1905000D01*
X-4191000Y+2032000D02*
X-2286000Y+2032000D01*
X-2286000Y+1905000D01*
X-4191000Y+635000D02*
X-5207000Y+635000D01*
X-4064000Y+1778000D02*
X-1841500Y+1778000D01*
X-1333500Y+2286000D01*
X-571500Y+2286000D01*
X-444500Y+2159000D01*
X+762000Y+2159000D01*
X-4064000Y+381000D02*
X-5207000Y+381000D01*
X+5016500Y-4699000D02*
X+3937000Y-4699000D01*
X+5207000Y+1143000D02*
X+4826000Y+1143000D01*
X+4762500Y+1079500D01*
X+4762500Y-4508500D01*
X+4699000Y-4572000D01*
X+2540000Y-4572000D01*
X+2413000Y-4699000D01*
X-2794000Y+254000D02*
X-4064000Y+254000D01*
X-4191000Y+127000D01*
X-5207000Y+127000D01*
X-4191000Y-127000D02*
X-5207000Y-127000D01*
X-5207000Y-381000D02*
X-4572000Y-381000D01*
X-4191000Y-762000D01*
X-889000Y-762000D01*
X-762000Y-889000D01*
X-762000Y-1143000D02*
X-1778000Y-1143000D01*
X-1905000Y-1016000D01*
X-4318000Y-1016000D01*
X-4699000Y-635000D01*
X-5207000Y-635000D01*
X-762000Y-1397000D02*
X-2095500Y-1397000D01*
X-2222500Y-1270000D01*
X-4508500Y-1270000D01*
X-4889500Y-889000D01*
X-5207000Y-889000D01*
X+762000Y-1651000D02*
X+635000Y-1778000D01*
X-4000500Y-1778000D01*
X-4445000Y-1333500D01*
X-4762500Y-1333500D01*
X-4953000Y-1143000D01*
X-5207000Y-1143000D01*
X-4445000Y-1524000D02*
X-4572000Y-1397000D01*
X-5207000Y-1397000D01*
X-4064000Y-1524000D02*
X+635000Y-1524000D01*
X+762000Y-1397000D01*
X-5207000Y-1651000D02*
X-4445000Y-1651000D01*
X-4254500Y-1841500D01*
X+1143000Y-1841500D01*
X+1206500Y-1778000D01*
X+1206500Y-1206500D01*
X+1143000Y-1143000D01*
X+762000Y-1143000D01*
X-190500Y-889000D02*
X+762000Y-889000D01*
X-4445000Y-1905000D02*
X-5207000Y-1905000D01*
X+2857500Y+762000D02*
X+4000500Y+762000D01*
X+4064000Y+825500D01*
X+4064000Y+1333500D01*
X+4127500Y+1397000D01*
X+5207000Y+1397000D01*
X+3111500Y+1460500D02*
X+3937000Y+1460500D01*
X+4127500Y+1651000D01*
X+5207000Y+1651000D01*
X+4953000Y+2286000D02*
X+4635500Y+1968500D01*
X+4254500Y+1968500D01*
X+4064000Y-889000D02*
X+4191000Y-889000D01*
X+4254500Y-825500D01*
X+4254500Y+1206500D01*
X+4318000Y+1270000D01*
X+4953000Y+1270000D01*
X-4635500Y+2413000D02*
X-5207000Y+2413000D01*
X-4635500Y+2540000D02*
X-4559300Y+2463800D01*
X-4559300Y+2222500D01*
X-4622800Y+2159000D01*
X-5207000Y+2159000D01*
X-2540000Y-3937000D02*
X-3365500Y-3937000D01*
X-5207000Y+1651000D02*
X-4762500Y+1651000D01*
X-4127500Y+2286000D01*
X-2349500Y+2286000D01*
X-2222500Y+2413000D01*
X-762000Y+2413000D01*
X-762000Y+2159000D02*
X-1016000Y+2159000D01*
X-1651000Y+1524000D01*
X-4445000Y+1524000D01*
X-4572000Y+1397000D01*
X-5207000Y+1397000D01*
X-762000Y+1905000D02*
X-1206500Y+1460500D01*
X-4383351Y+1460500D01*
X-4700851Y+1143000D01*
X-5207000Y+1143000D01*
X+4445000Y-762000D02*
X+4445000Y+1079500D01*
X+4559300Y+1193800D01*
X+5048250Y+1193800D01*
X+5048250Y+1346200D01*
X+4191000Y+1346200D01*
X+4127500Y+1282700D01*
X+4127500Y-698500D01*
X+4064000Y-762000D01*
X+2540000Y-762000D01*
X+2413000Y-889000D01*
X+4508500Y-1016000D02*
X+3873500Y-1016000D01*
X+3746500Y-1143000D01*
X+2413000Y-1143000D01*
X+2413000Y-1270000D02*
X+4635500Y-1270000D01*
X+4762500Y+3048000D02*
X+4762500Y+2730500D01*
X+4826000Y+2667000D01*
X+5207000Y+2667000D01*
X+4381500Y+2413000D02*
X+5207000Y+2413000D01*
X-4381500Y+4445000D02*
X-5207000Y+4445000D01*
X-4318000Y+4191000D02*
X-5207000Y+4191000D01*
X-4635500Y+3746500D02*
X-4191000Y+3746500D01*
X-5016500Y+2032000D02*
X-4572000Y+2032000D01*
X-4508500Y+2095500D01*
X-4508500Y+3365500D01*
X-4572000Y+3429000D01*
X-5207000Y+3429000D01*
X-4699000Y-4064000D02*
X-4572000Y-4191000D01*
X-4572000Y-4699000D01*
X-4635500Y+2921000D02*
X-5207000Y+2921000D01*
X-2032000Y-4318000D02*
X-4000500Y-4318000D01*
X-4064000Y-4254500D01*
X-4064000Y-2032000D01*
X+3937000Y+1143000D02*
X+3746500Y+1333500D01*
X-63500Y+1333500D01*
X-127000Y+1270000D01*
X+3937000Y-2159000D02*
X+3746500Y-1968500D01*
X-2222500Y-1968500D01*
X-2413000Y-2159000D01*
X+762000Y+4445000D02*
X+444500Y+4445000D01*
X+381000Y+4381500D01*
X-508000Y+4381500D01*
X-698500Y+4572000D01*
X-2286000Y+4572000D01*
X-2413000Y+4445000D01*
X+762000Y+4445000D02*
X+952500Y+4445000D01*
X+1079500Y+4318000D01*
X+3810000Y+4318000D01*
X+3937000Y+4445000D01*
X+1016000Y-4318000D02*
X+4000500Y-4318000D01*
X+4127500Y-4445000D01*
D11*
X-3175000Y+2794000D03*
X+2667000Y-635000D03*
X+3619500Y-381000D03*
X+3365500Y-3302000D03*
X+3683000Y+3048000D03*
X-381000Y+3175000D03*
X+0Y+3619500D03*
X-1841500Y-2921000D03*
X+3302000Y-2794000D03*
X+3429000Y+381000D03*
X-2730500Y+3048000D03*
X+2730500Y-254000D03*
X+1905000Y-381000D03*
X+1905000Y-635000D03*
X+190500Y-4064000D03*
X+952500Y+0D03*
X+952500Y+3238500D03*
X-2667000Y+3302000D03*
X-2540000Y+3683000D03*
X+2222500Y-3048000D03*
X-2032000Y+3810000D03*
X+2095500Y+381000D03*
X+2095500Y-2794000D03*
X+1714500Y-2667000D03*
X-1778000Y+4064000D03*
X+1905000Y+762000D03*
X+1714500Y-2286000D03*
X+2857500Y+889000D03*
X-1397000Y+4318000D03*
X+1778000Y+1016000D03*
X+3302000Y+3937000D03*
X+3238500Y-2540000D03*
X-952500Y+4318000D03*
X+3302000Y+1016000D03*
X-571500Y+3810000D03*
X+889000Y-2159000D03*
X+3302000Y-2286000D03*
X+3365500Y+508000D03*
X+4254500Y+2159000D03*
X+1016000Y-5016500D03*
X+1206500Y+2159000D03*
X+1333500Y+1905000D03*
X+1460500Y+1460500D03*
X-2540000Y+2540000D03*
X-3937000Y+2540000D03*
X-635000Y-508000D03*
X+1587500Y-508000D03*
X-1016000Y-1016000D03*
X+2984500Y-1016000D03*
X-2540000Y+2159000D03*
X-3556000Y+4635500D03*
X+635000Y+4762500D03*
X+254000Y+2794000D03*
X+1333500Y+2794000D03*
X+1460500Y+2794000D03*
X-254000Y+4572000D03*
X+1587500Y-635000D03*
X+889000Y-635000D03*
X+1079500Y+3302000D03*
X+1016000Y-1270000D03*
X-1778000Y-1270000D03*
X-4191000Y-4953000D03*
X+1333500Y+2413000D03*
X+63500Y-5016500D03*
X-3937000Y-4064000D03*
X-4445000Y-4064000D03*
X-4318000Y-4572000D03*
X-4000500Y-4572000D03*
X-4254500Y-2921000D03*
X+444500Y-4826000D03*
X+3492500Y-4826000D03*
X+3746500Y-1778000D03*
X+1460500Y+1778000D03*
X+635000Y+1651000D03*
X+444500Y-1651000D03*
X-4254500Y-2159000D03*
X-4318000Y-2413000D03*
X-4254500Y-2667000D03*
X-1143000Y+1905000D03*
X-2286000Y+1905000D03*
X-4191000Y+2032000D03*
X-4191000Y+635000D03*
X-4064000Y+1778000D03*
X-4064000Y+381000D03*
X+5016500Y-4699000D03*
X-2794000Y+254000D03*
X-4191000Y-127000D03*
X-4445000Y-1524000D03*
X-4064000Y-1524000D03*
X-190500Y-889000D03*
X-4445000Y-1905000D03*
X+2857500Y+762000D03*
X+3111500Y+1460500D03*
X+4254500Y+1968500D03*
X+4953000Y+2286000D03*
X+4953000Y+1270000D03*
X+4064000Y-889000D03*
X-4635500Y+2413000D03*
X-4635500Y+2540000D03*
X-3365500Y-3937000D03*
X-2540000Y-3937000D03*
X+4445000Y-762000D03*
X+4508500Y-1016000D03*
X+4635500Y-1270000D03*
X+2413000Y-1270000D03*
X+4762500Y+3048000D03*
X+4381500Y+2413000D03*
X-4381500Y+4445000D03*
X-4318000Y+4191000D03*
X-4191000Y+3746500D03*
X-4635500Y+3746500D03*
X-5016500Y+2032000D03*
X-4572000Y-4699000D03*
X-4699000Y-4064000D03*
X-4635500Y+2921000D03*
X-4064000Y-2032000D03*
X-2032000Y-4318000D03*
X-127000Y+1270000D03*
X+4127500Y-4445000D03*
X+1016000Y-4318000D03*
D12*
X-2921000Y+4953000D03*
X-2667000Y+4953000D03*
X-2413000Y+4953000D03*
X-2159000Y+4953000D03*
X-1905000Y+4953000D03*
X-1651000Y+4953000D03*
X-1397000Y+4953000D03*
X-1143000Y+4953000D03*
X-889000Y+4953000D03*
X-635000Y+4953000D03*
X-381000Y+4953000D03*
X-127000Y+4953000D03*
X+127000Y+4953000D03*
X+381000Y+4953000D03*
X+635000Y+4953000D03*
X+889000Y+4953000D03*
X+1143000Y+4953000D03*
X+1397000Y+4953000D03*
X+1651000Y+4953000D03*
X+1905000Y+4953000D03*
X+2159000Y+4953000D03*
X+2413000Y+4953000D03*
X+2667000Y+4953000D03*
X+2921000Y+4953000D03*
X+3175000Y+4953000D03*
X+3429000Y+4953000D03*
X+3683000Y+4953000D03*
X+3937000Y+4953000D03*
X+4191000Y+4953000D03*
X+4445000Y+4953000D03*
X+4699000Y+4953000D03*
X+4953000Y+4953000D03*
X-4953000Y+4953000D03*
X-4699000Y+4953000D03*
X-4445000Y+4953000D03*
X-4191000Y+4953000D03*
X-3937000Y+4953000D03*
X-3683000Y+4953000D03*
X-3429000Y+4953000D03*
X-3175000Y+4953000D03*
X-4953000Y-5461000D03*
X-4699000Y-5461000D03*
X-4445000Y-5461000D03*
X-4191000Y-5461000D03*
X-3937000Y-5461000D03*
X-3683000Y-5461000D03*
X-3429000Y-5461000D03*
X-3175000Y-5461000D03*
X-2921000Y-5461000D03*
X-2667000Y-5461000D03*
X-2413000Y-5461000D03*
X-2159000Y-5461000D03*
X-1905000Y-5461000D03*
X-1651000Y-5461000D03*
X-1397000Y-5461000D03*
X-1143000Y-5461000D03*
X-889000Y-5461000D03*
X-635000Y-5461000D03*
X-381000Y-5461000D03*
X-127000Y-5461000D03*
X+127000Y-5461000D03*
X+381000Y-5461000D03*
X+635000Y-5461000D03*
X+889000Y-5461000D03*
X+1143000Y-5461000D03*
X+1397000Y-5461000D03*
X+1651000Y-5461000D03*
X+1905000Y-5461000D03*
X+2159000Y-5461000D03*
X+2413000Y-5461000D03*
X+2667000Y-5461000D03*
X+2921000Y-5461000D03*
X+3175000Y-5461000D03*
X+3429000Y-5461000D03*
X+3683000Y-5461000D03*
X+3937000Y-5461000D03*
X+4191000Y-5461000D03*
X+4445000Y-5461000D03*
X+4699000Y-5461000D03*
X+4953000Y-5461000D03*
X-5207000Y+4699000D03*
X-5207000Y+4445000D03*
X-5207000Y+4191000D03*
X-5207000Y+3937000D03*
X-5207000Y+3683000D03*
X-5207000Y+3429000D03*
X-5207000Y+3175000D03*
X-5207000Y+2921000D03*
X-5207000Y+2667000D03*
X-5207000Y+2413000D03*
X-5207000Y+2159000D03*
X-5207000Y+1905000D03*
X-5207000Y+1651000D03*
X-5207000Y+1397000D03*
X-5207000Y+1143000D03*
X-5207000Y+889000D03*
X-5207000Y+635000D03*
X-5207000Y+381000D03*
X-5207000Y+127000D03*
X-5207000Y-127000D03*
X-5207000Y-381000D03*
X-5207000Y-635000D03*
X-5207000Y-889000D03*
X-5207000Y-1143000D03*
X-5207000Y-1397000D03*
X-5207000Y-1651000D03*
X-5207000Y-1905000D03*
X-5207000Y-2159000D03*
X-5207000Y-2413000D03*
X-5207000Y-2667000D03*
X-5207000Y-2921000D03*
X-5207000Y-3175000D03*
X-5207000Y-3429000D03*
X-5207000Y-3683000D03*
X-5207000Y-3937000D03*
X-5207000Y-4191000D03*
X-5207000Y-4445000D03*
X-5207000Y-4699000D03*
X-5207000Y-4953000D03*
X-5207000Y-5207000D03*
X+5207000Y+4699000D03*
X+5207000Y+4445000D03*
X+5207000Y+4191000D03*
X+5207000Y+3937000D03*
X+5207000Y+3683000D03*
X+5207000Y+3429000D03*
X+5207000Y+3175000D03*
X+5207000Y+2921000D03*
X+5207000Y+2667000D03*
X+5207000Y+2413000D03*
X+5207000Y+2159000D03*
X+5207000Y+1905000D03*
X+5207000Y+1651000D03*
X+5207000Y+1397000D03*
X+5207000Y+1143000D03*
X+5207000Y+889000D03*
X+5207000Y+635000D03*
X+5207000Y+381000D03*
X+5207000Y+127000D03*
X+5207000Y-127000D03*
X+5207000Y-381000D03*
X+5207000Y-635000D03*
X+5207000Y-889000D03*
X+5207000Y-1143000D03*
X+5207000Y-1397000D03*
X+5207000Y-1651000D03*
X+5207000Y-1905000D03*
X+5207000Y-2159000D03*
X+5207000Y-2413000D03*
X+5207000Y-2667000D03*
X+5207000Y-2921000D03*
X+5207000Y-3175000D03*
X+5207000Y-3429000D03*
X+5207000Y-3683000D03*
X+5207000Y-3937000D03*
X+5207000Y-4191000D03*
X+5207000Y-4445000D03*
X+5207000Y-4699000D03*
X+5207000Y-4953000D03*
X+5207000Y-5207000D03*
D13*
X-3937000Y+4445000D03*
D14*
X-3937000Y+4191000D03*
X-3937000Y+3937000D03*
X-3937000Y+3683000D03*
X-3937000Y+3429000D03*
X-3937000Y+3175000D03*
X-3937000Y+2921000D03*
X-3937000Y+2667000D03*
X-3937000Y+2413000D03*
X-3937000Y+2159000D03*
X-3937000Y+1905000D03*
X-3937000Y+1651000D03*
X-2413000Y+1651000D03*
X-2413000Y+1905000D03*
X-2413000Y+2159000D03*
X-2413000Y+2413000D03*
X-2413000Y+2667000D03*
X-2413000Y+2921000D03*
X-2413000Y+3175000D03*
X-2413000Y+3429000D03*
X-2413000Y+3683000D03*
X-2413000Y+3937000D03*
X-2413000Y+4191000D03*
X-2413000Y+4445000D03*
D13*
X-3937000Y+1143000D03*
D14*
X-3937000Y+889000D03*
X-3937000Y+635000D03*
X-3937000Y+381000D03*
X-3937000Y+127000D03*
X-3937000Y-127000D03*
X-3937000Y-381000D03*
X-3937000Y-635000D03*
X-3937000Y-889000D03*
X-3937000Y-1143000D03*
X-3937000Y-1397000D03*
X-3937000Y-1651000D03*
X-2413000Y-1651000D03*
X-2413000Y-1397000D03*
X-2413000Y-1143000D03*
X-2413000Y-889000D03*
X-2413000Y-635000D03*
X-2413000Y-381000D03*
X-2413000Y-127000D03*
X-2413000Y+127000D03*
X-2413000Y+381000D03*
X-2413000Y+635000D03*
X-2413000Y+889000D03*
X-2413000Y+1143000D03*
D13*
X-3937000Y-2159000D03*
D14*
X-3937000Y-2413000D03*
X-3937000Y-2667000D03*
X-3937000Y-2921000D03*
X-3937000Y-3175000D03*
X-3937000Y-3429000D03*
X-3937000Y-3683000D03*
X-3937000Y-3937000D03*
X-3937000Y-4191000D03*
X-3937000Y-4445000D03*
X-3937000Y-4699000D03*
X-3937000Y-4953000D03*
X-2413000Y-4953000D03*
X-2413000Y-4699000D03*
X-2413000Y-4445000D03*
X-2413000Y-4191000D03*
X-2413000Y-3937000D03*
X-2413000Y-3683000D03*
X-2413000Y-3429000D03*
X-2413000Y-3175000D03*
X-2413000Y-2921000D03*
X-2413000Y-2667000D03*
X-2413000Y-2413000D03*
X-2413000Y-2159000D03*
D13*
X-762000Y+4445000D03*
D14*
X-762000Y+4191000D03*
X-762000Y+3937000D03*
X-762000Y+3683000D03*
X-762000Y+3429000D03*
X-762000Y+3175000D03*
X-762000Y+2921000D03*
X-762000Y+2667000D03*
X-762000Y+2413000D03*
X-762000Y+2159000D03*
X-762000Y+1905000D03*
X-762000Y+1651000D03*
X+762000Y+1651000D03*
X+762000Y+1905000D03*
X+762000Y+2159000D03*
X+762000Y+2413000D03*
X+762000Y+2667000D03*
X+762000Y+2921000D03*
X+762000Y+3175000D03*
X+762000Y+3429000D03*
X+762000Y+3683000D03*
X+762000Y+3937000D03*
X+762000Y+4191000D03*
X+762000Y+4445000D03*
D13*
X-762000Y+1143000D03*
D14*
X-762000Y+889000D03*
X-762000Y+635000D03*
X-762000Y+381000D03*
X-762000Y+127000D03*
X-762000Y-127000D03*
X-762000Y-381000D03*
X-762000Y-635000D03*
X-762000Y-889000D03*
X-762000Y-1143000D03*
X-762000Y-1397000D03*
X-762000Y-1651000D03*
X+762000Y-1651000D03*
X+762000Y-1397000D03*
X+762000Y-1143000D03*
X+762000Y-889000D03*
X+762000Y-635000D03*
X+762000Y-381000D03*
X+762000Y-127000D03*
X+762000Y+127000D03*
X+762000Y+381000D03*
X+762000Y+635000D03*
X+762000Y+889000D03*
X+762000Y+1143000D03*
D13*
X-762000Y-2159000D03*
D14*
X-762000Y-2413000D03*
X-762000Y-2667000D03*
X-762000Y-2921000D03*
X-762000Y-3175000D03*
X-762000Y-3429000D03*
X-762000Y-3683000D03*
X-762000Y-3937000D03*
X-762000Y-4191000D03*
X-762000Y-4445000D03*
X-762000Y-4699000D03*
X-762000Y-4953000D03*
X+762000Y-4953000D03*
X+762000Y-4699000D03*
X+762000Y-4445000D03*
X+762000Y-4191000D03*
X+762000Y-3937000D03*
X+762000Y-3683000D03*
X+762000Y-3429000D03*
X+762000Y-3175000D03*
X+762000Y-2921000D03*
X+762000Y-2667000D03*
X+762000Y-2413000D03*
X+762000Y-2159000D03*
D13*
X+2413000Y+4445000D03*
D14*
X+2413000Y+4191000D03*
X+2413000Y+3937000D03*
X+2413000Y+3683000D03*
X+2413000Y+3429000D03*
X+2413000Y+3175000D03*
X+2413000Y+2921000D03*
X+2413000Y+2667000D03*
X+2413000Y+2413000D03*
X+2413000Y+2159000D03*
X+2413000Y+1905000D03*
X+2413000Y+1651000D03*
X+3937000Y+1651000D03*
X+3937000Y+1905000D03*
X+3937000Y+2159000D03*
X+3937000Y+2413000D03*
X+3937000Y+2667000D03*
X+3937000Y+2921000D03*
X+3937000Y+3175000D03*
X+3937000Y+3429000D03*
X+3937000Y+3683000D03*
X+3937000Y+3937000D03*
X+3937000Y+4191000D03*
X+3937000Y+4445000D03*
D13*
X+2413000Y+1143000D03*
D14*
X+2413000Y+889000D03*
X+2413000Y+635000D03*
X+2413000Y+381000D03*
X+2413000Y+127000D03*
X+2413000Y-127000D03*
X+2413000Y-381000D03*
X+2413000Y-635000D03*
X+2413000Y-889000D03*
X+2413000Y-1143000D03*
X+2413000Y-1397000D03*
X+2413000Y-1651000D03*
X+3937000Y-1651000D03*
X+3937000Y-1397000D03*
X+3937000Y-1143000D03*
X+3937000Y-889000D03*
X+3937000Y-635000D03*
X+3937000Y-381000D03*
X+3937000Y-127000D03*
X+3937000Y+127000D03*
X+3937000Y+381000D03*
X+3937000Y+635000D03*
X+3937000Y+889000D03*
X+3937000Y+1143000D03*
D13*
X+2413000Y-2159000D03*
D14*
X+2413000Y-2413000D03*
X+2413000Y-2667000D03*
X+2413000Y-2921000D03*
X+2413000Y-3175000D03*
X+2413000Y-3429000D03*
X+2413000Y-3683000D03*
X+2413000Y-3937000D03*
X+2413000Y-4191000D03*
X+2413000Y-4445000D03*
X+2413000Y-4699000D03*
X+2413000Y-4953000D03*
X+3937000Y-4953000D03*
X+3937000Y-4699000D03*
X+3937000Y-4445000D03*
X+3937000Y-4191000D03*
X+3937000Y-3937000D03*
X+3937000Y-3683000D03*
X+3937000Y-3429000D03*
X+3937000Y-3175000D03*
X+3937000Y-2921000D03*
X+3937000Y-2667000D03*
X+3937000Y-2413000D03*
X+3937000Y-2159000D03*
D15*
X-5461000Y-5715000D02*
X+5461000Y-5715000D01*
X+5461000Y+5207000D01*
X-5461000Y+5207000D01*
X-5461000Y-5715000D01*
M02*
