G04 PROTEUS GERBER X2 FILE*
%TF.GenerationSoftware,Labcenter,Proteus,8.13-SP0-Build31525*%
%TF.CreationDate,2022-07-18T17:11:33+00:00*%
%TF.FileFunction,AssemblyDrawing,Top*%
%TF.FilePolarity,Positive*%
%TF.Part,Single*%
%TF.SameCoordinates,{576ea621-ad59-411c-95cb-525281b3a317}*%
%FSLAX45Y45*%
%MOMM*%
G01*
%TA.AperFunction,Profile*%
%ADD15C,0.203200*%
%TA.AperFunction,Material*%
%ADD16C,0.203200*%
%ADD20C,0.812800*%
%ADD21C,0.177800*%
%ADD22C,0.154510*%
%ADD23C,0.123610*%
%ADD24C,0.142630*%
%ADD25C,0.508000*%
%ADD26C,0.437300*%
%ADD27C,0.353270*%
%TD.AperFunction*%
D15*
X-5461000Y-5715000D02*
X+5461000Y-5715000D01*
X+5461000Y+5207000D01*
X-5461000Y+5207000D01*
X-5461000Y-5715000D01*
D16*
X-3058160Y+4815840D02*
X-1005840Y+4815840D01*
X-1005840Y+5090160D01*
X-3058160Y+5090160D01*
X-3058160Y+4815840D01*
D20*
X-2921000Y+4953000D02*
X-2921000Y+4953000D01*
D21*
X-2263140Y+4935220D02*
X-2263140Y+4917440D01*
X-2243138Y+4899660D01*
X-2163128Y+4899660D01*
X-2143125Y+4917440D01*
X-2143125Y+5006340D01*
X-2083118Y+4953000D02*
X-1983105Y+4953000D01*
X-1943100Y+4899660D02*
X-1943100Y+4970780D01*
X-1903095Y+5006340D01*
X-1863090Y+5006340D01*
X-1823085Y+4970780D01*
X-1823085Y+4899660D01*
X-1943100Y+4935220D02*
X-1823085Y+4935220D01*
X-1663065Y+4917440D02*
X-1683068Y+4899660D01*
X-1743075Y+4899660D01*
X-1783080Y+4935220D01*
X-1783080Y+4970780D01*
X-1743075Y+5006340D01*
X-1683068Y+5006340D01*
X-1663065Y+4988560D01*
D16*
X-1026160Y+4815840D02*
X+1026160Y+4815840D01*
X+1026160Y+5090160D01*
X-1026160Y+5090160D01*
X-1026160Y+4815840D01*
D20*
X-889000Y+4953000D02*
X-889000Y+4953000D01*
D21*
X-471170Y+4935220D02*
X-471170Y+4917440D01*
X-451168Y+4899660D01*
X-371158Y+4899660D01*
X-351155Y+4917440D01*
X-351155Y+5006340D01*
X-291148Y+4953000D02*
X-191135Y+4953000D01*
X-151130Y+4899660D02*
X-151130Y+4970780D01*
X-111125Y+5006340D01*
X-71120Y+5006340D01*
X-31115Y+4970780D01*
X-31115Y+4899660D01*
X-151130Y+4935220D02*
X-31115Y+4935220D01*
X+128905Y+4917440D02*
X+108902Y+4899660D01*
X+48895Y+4899660D01*
X+8890Y+4935220D01*
X+8890Y+4970780D01*
X+48895Y+5006340D01*
X+108902Y+5006340D01*
X+128905Y+4988560D01*
X+188912Y+4953000D02*
X+288925Y+4953000D01*
X+328930Y+4899660D02*
X+328930Y+4970780D01*
X+368935Y+5006340D01*
X+408940Y+5006340D01*
X+448945Y+4970780D01*
X+448945Y+4899660D01*
X+328930Y+4935220D02*
X+448945Y+4935220D01*
X+488950Y+5006340D02*
X+608965Y+5006340D01*
X+548957Y+5006340D02*
X+548957Y+4899660D01*
D16*
X+1005840Y+4815840D02*
X+3058160Y+4815840D01*
X+3058160Y+5090160D01*
X+1005840Y+5090160D01*
X+1005840Y+4815840D01*
D20*
X+1143000Y+4953000D02*
X+1143000Y+4953000D01*
D21*
X+1800860Y+4935220D02*
X+1800860Y+4917440D01*
X+1820862Y+4899660D01*
X+1900872Y+4899660D01*
X+1920875Y+4917440D01*
X+1920875Y+5006340D01*
X+1980882Y+4953000D02*
X+2080895Y+4953000D01*
X+2120900Y+4899660D02*
X+2120900Y+4970780D01*
X+2160905Y+5006340D01*
X+2200910Y+5006340D01*
X+2240915Y+4970780D01*
X+2240915Y+4899660D01*
X+2120900Y+4935220D02*
X+2240915Y+4935220D01*
X+2280920Y+5006340D02*
X+2400935Y+5006340D01*
X+2340927Y+5006340D02*
X+2340927Y+4899660D01*
D16*
X+3037840Y+4815840D02*
X+5090160Y+4815840D01*
X+5090160Y+5090160D01*
X+3037840Y+5090160D01*
X+3037840Y+4815840D01*
D20*
X+3175000Y+4953000D02*
X+3175000Y+4953000D01*
D21*
X+3832860Y+4935220D02*
X+3832860Y+4917440D01*
X+3852862Y+4899660D01*
X+3932872Y+4899660D01*
X+3952875Y+4917440D01*
X+3952875Y+5006340D01*
X+4012882Y+4953000D02*
X+4112895Y+4953000D01*
X+4152900Y+4899660D02*
X+4152900Y+5006340D01*
X+4252912Y+5006340D01*
X+4272915Y+4988560D01*
X+4272915Y+4970780D01*
X+4252912Y+4953000D01*
X+4272915Y+4935220D01*
X+4272915Y+4917440D01*
X+4252912Y+4899660D01*
X+4152900Y+4899660D01*
X+4152900Y+4953000D02*
X+4252912Y+4953000D01*
X+4332922Y+5006340D02*
X+4412932Y+5006340D01*
X+4372927Y+5006340D02*
X+4372927Y+4899660D01*
X+4332922Y+4899660D02*
X+4412932Y+4899660D01*
D16*
X-5090160Y+4815840D02*
X-3037840Y+4815840D01*
X-3037840Y+5090160D01*
X-5090160Y+5090160D01*
X-5090160Y+4815840D01*
D20*
X-4953000Y+4953000D02*
X-4953000Y+4953000D01*
D21*
X-4615180Y+4935220D02*
X-4615180Y+4917440D01*
X-4595178Y+4899660D01*
X-4515168Y+4899660D01*
X-4495165Y+4917440D01*
X-4495165Y+5006340D01*
X-4435158Y+4953000D02*
X-4335145Y+4953000D01*
X-4275138Y+5006340D02*
X-4195128Y+5006340D01*
X-4235133Y+5006340D02*
X-4235133Y+4899660D01*
X-4275138Y+4899660D02*
X-4195128Y+4899660D01*
X-4135120Y+4899660D02*
X-4135120Y+5006340D01*
X-4015105Y+4899660D01*
X-4015105Y+5006340D01*
X-3955098Y+4953000D02*
X-3855085Y+4953000D01*
X-3815080Y+4970780D02*
X-3775075Y+5006340D01*
X-3735070Y+5006340D01*
X-3695065Y+4970780D01*
X-3695065Y+4935220D01*
X-3735070Y+4899660D01*
X-3775075Y+4899660D01*
X-3815080Y+4935220D01*
X-3815080Y+4970780D01*
X-3655060Y+5006340D02*
X-3655060Y+4917440D01*
X-3635058Y+4899660D01*
X-3555048Y+4899660D01*
X-3535045Y+4917440D01*
X-3535045Y+5006340D01*
X-3495040Y+5006340D02*
X-3375025Y+5006340D01*
X-3435033Y+5006340D02*
X-3435033Y+4899660D01*
D16*
X-5090160Y-5598160D02*
X-3037840Y-5598160D01*
X-3037840Y-5323840D01*
X-5090160Y-5323840D01*
X-5090160Y-5598160D01*
D20*
X-4953000Y-5461000D02*
X-4953000Y-5461000D01*
D21*
X-4695190Y-5478780D02*
X-4695190Y-5496560D01*
X-4675188Y-5514340D01*
X-4595178Y-5514340D01*
X-4575175Y-5496560D01*
X-4575175Y-5407660D01*
X-4515168Y-5461000D02*
X-4415155Y-5461000D01*
X-4375150Y-5514340D02*
X-4375150Y-5407660D01*
X-4275138Y-5407660D01*
X-4255135Y-5425440D01*
X-4255135Y-5443220D01*
X-4275138Y-5461000D01*
X-4255135Y-5478780D01*
X-4255135Y-5496560D01*
X-4275138Y-5514340D01*
X-4375150Y-5514340D01*
X-4375150Y-5461000D02*
X-4275138Y-5461000D01*
X-4215130Y-5514340D02*
X-4215130Y-5443220D01*
X-4175125Y-5407660D01*
X-4135120Y-5407660D01*
X-4095115Y-5443220D01*
X-4095115Y-5514340D01*
X-4215130Y-5478780D02*
X-4095115Y-5478780D01*
X-3955098Y-5407660D02*
X-4015105Y-5407660D01*
X-4015105Y-5514340D01*
X-3955098Y-5514340D01*
X-3895090Y-5496560D02*
X-3895090Y-5425440D01*
X-3875088Y-5407660D01*
X-3795078Y-5407660D01*
X-3775075Y-5425440D01*
X-3775075Y-5496560D01*
X-3795078Y-5514340D01*
X-3875088Y-5514340D01*
X-3895090Y-5496560D01*
X-3895090Y-5514340D02*
X-3775075Y-5407660D01*
X-3715068Y-5461000D02*
X-3615055Y-5461000D01*
X-3555048Y-5407660D02*
X-3455035Y-5407660D01*
X-3455035Y-5425440D01*
X-3555048Y-5514340D01*
X-3375025Y-5407660D02*
X-3315018Y-5407660D01*
X-3315018Y-5514340D01*
X-3375025Y-5514340D01*
D16*
X-3058160Y-5598160D02*
X-1005840Y-5598160D01*
X-1005840Y-5323840D01*
X-3058160Y-5323840D01*
X-3058160Y-5598160D01*
D20*
X-2921000Y-5461000D02*
X-2921000Y-5461000D01*
D21*
X-2743200Y-5478780D02*
X-2743200Y-5496560D01*
X-2723198Y-5514340D01*
X-2643188Y-5514340D01*
X-2623185Y-5496560D01*
X-2623185Y-5407660D01*
X-2563178Y-5461000D02*
X-2463165Y-5461000D01*
X-2423160Y-5514340D02*
X-2423160Y-5407660D01*
X-2323148Y-5407660D01*
X-2303145Y-5425440D01*
X-2303145Y-5443220D01*
X-2323148Y-5461000D01*
X-2303145Y-5478780D01*
X-2303145Y-5496560D01*
X-2323148Y-5514340D01*
X-2423160Y-5514340D01*
X-2423160Y-5461000D02*
X-2323148Y-5461000D01*
X-2263140Y-5514340D02*
X-2263140Y-5443220D01*
X-2223135Y-5407660D01*
X-2183130Y-5407660D01*
X-2143125Y-5443220D01*
X-2143125Y-5514340D01*
X-2263140Y-5478780D02*
X-2143125Y-5478780D01*
X-2003108Y-5407660D02*
X-2063115Y-5407660D01*
X-2063115Y-5514340D01*
X-2003108Y-5514340D01*
X-1903095Y-5461000D02*
X-1923098Y-5443220D01*
X-1923098Y-5425440D01*
X-1903095Y-5407660D01*
X-1843088Y-5407660D01*
X-1823085Y-5425440D01*
X-1823085Y-5443220D01*
X-1843088Y-5461000D01*
X-1903095Y-5461000D01*
X-1923098Y-5478780D01*
X-1923098Y-5496560D01*
X-1903095Y-5514340D01*
X-1843088Y-5514340D01*
X-1823085Y-5496560D01*
X-1823085Y-5478780D01*
X-1843088Y-5461000D01*
X-1763078Y-5461000D02*
X-1663065Y-5461000D01*
X-1583055Y-5443220D02*
X-1543050Y-5407660D01*
X-1543050Y-5514340D01*
X-1343025Y-5407660D02*
X-1443038Y-5407660D01*
X-1443038Y-5443220D01*
X-1363028Y-5443220D01*
X-1343025Y-5461000D01*
X-1343025Y-5496560D01*
X-1363028Y-5514340D01*
X-1423035Y-5514340D01*
X-1443038Y-5496560D01*
X-1263015Y-5407660D02*
X-1203008Y-5407660D01*
X-1203008Y-5514340D01*
X-1263015Y-5514340D01*
D16*
X-1026160Y-5598160D02*
X+1026160Y-5598160D01*
X+1026160Y-5323840D01*
X-1026160Y-5323840D01*
X-1026160Y-5598160D01*
D20*
X-889000Y-5461000D02*
X-889000Y-5461000D01*
D21*
X-231140Y-5478780D02*
X-231140Y-5496560D01*
X-211138Y-5514340D01*
X-131128Y-5514340D01*
X-111125Y-5496560D01*
X-111125Y-5407660D01*
X-51118Y-5461000D02*
X+48895Y-5461000D01*
X+88900Y-5514340D02*
X+88900Y-5407660D01*
X+188912Y-5407660D01*
X+208915Y-5425440D01*
X+208915Y-5443220D01*
X+188912Y-5461000D01*
X+208915Y-5478780D01*
X+208915Y-5496560D01*
X+188912Y-5514340D01*
X+88900Y-5514340D01*
X+88900Y-5461000D02*
X+188912Y-5461000D01*
X+248920Y-5514340D02*
X+248920Y-5407660D01*
X+328930Y-5407660D01*
X+368935Y-5443220D01*
X+368935Y-5478780D01*
X+328930Y-5514340D01*
X+248920Y-5514340D01*
D16*
X+1005840Y-5598160D02*
X+3058160Y-5598160D01*
X+3058160Y-5323840D01*
X+1005840Y-5323840D01*
X+1005840Y-5598160D01*
D20*
X+1143000Y-5461000D02*
X+1143000Y-5461000D01*
D21*
X+1400810Y-5478780D02*
X+1400810Y-5496560D01*
X+1420812Y-5514340D01*
X+1500822Y-5514340D01*
X+1520825Y-5496560D01*
X+1520825Y-5407660D01*
X+1580832Y-5461000D02*
X+1680845Y-5461000D01*
X+1720850Y-5514340D02*
X+1720850Y-5407660D01*
X+1820862Y-5407660D01*
X+1840865Y-5425440D01*
X+1840865Y-5443220D01*
X+1820862Y-5461000D01*
X+1840865Y-5478780D01*
X+1840865Y-5496560D01*
X+1820862Y-5514340D01*
X+1720850Y-5514340D01*
X+1720850Y-5461000D02*
X+1820862Y-5461000D01*
X+1880870Y-5407660D02*
X+1880870Y-5496560D01*
X+1900872Y-5514340D01*
X+1980882Y-5514340D01*
X+2000885Y-5496560D01*
X+2000885Y-5407660D01*
X+2140902Y-5407660D02*
X+2080895Y-5407660D01*
X+2080895Y-5514340D01*
X+2140902Y-5514340D01*
X+2200910Y-5496560D02*
X+2200910Y-5425440D01*
X+2220912Y-5407660D01*
X+2300922Y-5407660D01*
X+2320925Y-5425440D01*
X+2320925Y-5496560D01*
X+2300922Y-5514340D01*
X+2220912Y-5514340D01*
X+2200910Y-5496560D01*
X+2200910Y-5514340D02*
X+2320925Y-5407660D01*
X+2380932Y-5461000D02*
X+2480945Y-5461000D01*
X+2540952Y-5407660D02*
X+2640965Y-5407660D01*
X+2640965Y-5425440D01*
X+2540952Y-5514340D01*
X+2720975Y-5407660D02*
X+2780982Y-5407660D01*
X+2780982Y-5514340D01*
X+2720975Y-5514340D01*
D16*
X+3037840Y-5598160D02*
X+5090160Y-5598160D01*
X+5090160Y-5323840D01*
X+3037840Y-5323840D01*
X+3037840Y-5598160D01*
D20*
X+3175000Y-5461000D02*
X+3175000Y-5461000D01*
D21*
X+3352800Y-5478780D02*
X+3352800Y-5496560D01*
X+3372802Y-5514340D01*
X+3452812Y-5514340D01*
X+3472815Y-5496560D01*
X+3472815Y-5407660D01*
X+3532822Y-5461000D02*
X+3632835Y-5461000D01*
X+3672840Y-5514340D02*
X+3672840Y-5407660D01*
X+3772852Y-5407660D01*
X+3792855Y-5425440D01*
X+3792855Y-5443220D01*
X+3772852Y-5461000D01*
X+3792855Y-5478780D01*
X+3792855Y-5496560D01*
X+3772852Y-5514340D01*
X+3672840Y-5514340D01*
X+3672840Y-5461000D02*
X+3772852Y-5461000D01*
X+3832860Y-5407660D02*
X+3832860Y-5496560D01*
X+3852862Y-5514340D01*
X+3932872Y-5514340D01*
X+3952875Y-5496560D01*
X+3952875Y-5407660D01*
X+4092892Y-5407660D02*
X+4032885Y-5407660D01*
X+4032885Y-5514340D01*
X+4092892Y-5514340D01*
X+4192905Y-5461000D02*
X+4172902Y-5443220D01*
X+4172902Y-5425440D01*
X+4192905Y-5407660D01*
X+4252912Y-5407660D01*
X+4272915Y-5425440D01*
X+4272915Y-5443220D01*
X+4252912Y-5461000D01*
X+4192905Y-5461000D01*
X+4172902Y-5478780D01*
X+4172902Y-5496560D01*
X+4192905Y-5514340D01*
X+4252912Y-5514340D01*
X+4272915Y-5496560D01*
X+4272915Y-5478780D01*
X+4252912Y-5461000D01*
X+4332922Y-5461000D02*
X+4432935Y-5461000D01*
X+4512945Y-5443220D02*
X+4552950Y-5407660D01*
X+4552950Y-5514340D01*
X+4752975Y-5407660D02*
X+4652962Y-5407660D01*
X+4652962Y-5443220D01*
X+4732972Y-5443220D01*
X+4752975Y-5461000D01*
X+4752975Y-5496560D01*
X+4732972Y-5514340D01*
X+4672965Y-5514340D01*
X+4652962Y-5496560D01*
X+4832985Y-5407660D02*
X+4892992Y-5407660D01*
X+4892992Y-5514340D01*
X+4832985Y-5514340D01*
D16*
X-5344160Y+2783840D02*
X-5069840Y+2783840D01*
X-5069840Y+4836160D01*
X-5344160Y+4836160D01*
X-5344160Y+2783840D01*
D20*
X-5207000Y+4699000D02*
X-5207000Y+4699000D01*
D21*
X-5189220Y+2921000D02*
X-5171440Y+2921000D01*
X-5153660Y+2941002D01*
X-5153660Y+3021012D01*
X-5171440Y+3041015D01*
X-5260340Y+3041015D01*
X-5207000Y+3101022D02*
X-5207000Y+3201035D01*
X-5171440Y+3241040D02*
X-5153660Y+3261042D01*
X-5153660Y+3341052D01*
X-5171440Y+3361055D01*
X-5189220Y+3361055D01*
X-5207000Y+3341052D01*
X-5207000Y+3261042D01*
X-5224780Y+3241040D01*
X-5242560Y+3241040D01*
X-5260340Y+3261042D01*
X-5260340Y+3341052D01*
X-5242560Y+3361055D01*
X-5171440Y+3521075D02*
X-5153660Y+3501072D01*
X-5153660Y+3441065D01*
X-5189220Y+3401060D01*
X-5224780Y+3401060D01*
X-5260340Y+3441065D01*
X-5260340Y+3501072D01*
X-5242560Y+3521075D01*
X-5207000Y+3581082D02*
X-5207000Y+3681095D01*
X-5171440Y+3721100D02*
X-5153660Y+3741102D01*
X-5153660Y+3821112D01*
X-5171440Y+3841115D01*
X-5189220Y+3841115D01*
X-5207000Y+3821112D01*
X-5207000Y+3741102D01*
X-5224780Y+3721100D01*
X-5242560Y+3721100D01*
X-5260340Y+3741102D01*
X-5260340Y+3821112D01*
X-5242560Y+3841115D01*
X-5153660Y+3881120D02*
X-5260340Y+3881120D01*
X-5260340Y+3961130D01*
X-5224780Y+4001135D01*
X-5189220Y+4001135D01*
X-5153660Y+3961130D01*
X-5153660Y+3881120D01*
X-5207000Y+4061142D02*
X-5207000Y+4161155D01*
X-5171440Y+4201160D02*
X-5153660Y+4221162D01*
X-5153660Y+4301172D01*
X-5171440Y+4321175D01*
X-5189220Y+4321175D01*
X-5207000Y+4301172D01*
X-5207000Y+4221162D01*
X-5224780Y+4201160D01*
X-5242560Y+4201160D01*
X-5260340Y+4221162D01*
X-5260340Y+4301172D01*
X-5242560Y+4321175D01*
X-5171440Y+4361180D02*
X-5153660Y+4381182D01*
X-5153660Y+4461192D01*
X-5171440Y+4481195D01*
X-5189220Y+4481195D01*
X-5207000Y+4461192D01*
X-5207000Y+4381182D01*
X-5224780Y+4361180D01*
X-5242560Y+4361180D01*
X-5260340Y+4381182D01*
X-5260340Y+4461192D01*
X-5242560Y+4481195D01*
D16*
X-5344160Y+751840D02*
X-5069840Y+751840D01*
X-5069840Y+2804160D01*
X-5344160Y+2804160D01*
X-5344160Y+751840D01*
D20*
X-5207000Y+2667000D02*
X-5207000Y+2667000D01*
D21*
X-5189220Y+1129030D02*
X-5171440Y+1129030D01*
X-5153660Y+1149032D01*
X-5153660Y+1229042D01*
X-5171440Y+1249045D01*
X-5260340Y+1249045D01*
X-5207000Y+1309052D02*
X-5207000Y+1409065D01*
X-5153660Y+1449070D02*
X-5260340Y+1449070D01*
X-5260340Y+1549082D01*
X-5242560Y+1569085D01*
X-5224780Y+1569085D01*
X-5207000Y+1549082D01*
X-5207000Y+1449070D01*
X-5207000Y+1549082D02*
X-5189220Y+1569085D01*
X-5153660Y+1569085D01*
X-5153660Y+1609090D02*
X-5260340Y+1609090D01*
X-5260340Y+1709102D01*
X-5242560Y+1729105D01*
X-5224780Y+1729105D01*
X-5207000Y+1709102D01*
X-5207000Y+1609090D01*
X-5207000Y+1789112D02*
X-5207000Y+1889125D01*
X-5153660Y+1929130D02*
X-5260340Y+1929130D01*
X-5260340Y+2029142D01*
X-5242560Y+2049145D01*
X-5224780Y+2049145D01*
X-5207000Y+2029142D01*
X-5207000Y+1929130D01*
X-5207000Y+2029142D02*
X-5189220Y+2049145D01*
X-5153660Y+2049145D01*
X-5171440Y+2089150D02*
X-5153660Y+2109152D01*
X-5153660Y+2189162D01*
X-5171440Y+2209165D01*
X-5189220Y+2209165D01*
X-5207000Y+2189162D01*
X-5207000Y+2109152D01*
X-5224780Y+2089150D01*
X-5242560Y+2089150D01*
X-5260340Y+2109152D01*
X-5260340Y+2189162D01*
X-5242560Y+2209165D01*
D16*
X-5344160Y-1280160D02*
X-5069840Y-1280160D01*
X-5069840Y+772160D01*
X-5344160Y+772160D01*
X-5344160Y-1280160D01*
D20*
X-5207000Y+635000D02*
X-5207000Y+635000D01*
D21*
X-5189220Y-1143000D02*
X-5171440Y-1143000D01*
X-5153660Y-1122998D01*
X-5153660Y-1042988D01*
X-5171440Y-1022985D01*
X-5260340Y-1022985D01*
X-5207000Y-962978D02*
X-5207000Y-862965D01*
X-5153660Y-822960D02*
X-5260340Y-822960D01*
X-5260340Y-722948D01*
X-5242560Y-702945D01*
X-5224780Y-702945D01*
X-5207000Y-722948D01*
X-5207000Y-822960D01*
X-5207000Y-722948D02*
X-5189220Y-702945D01*
X-5153660Y-702945D01*
X-5153660Y-662940D02*
X-5224780Y-662940D01*
X-5260340Y-622935D01*
X-5260340Y-582930D01*
X-5224780Y-542925D01*
X-5153660Y-542925D01*
X-5189220Y-662940D02*
X-5189220Y-542925D01*
X-5207000Y-482918D02*
X-5207000Y-382905D01*
X-5153660Y-342900D02*
X-5260340Y-342900D01*
X-5260340Y-242888D01*
X-5242560Y-222885D01*
X-5224780Y-222885D01*
X-5207000Y-242888D01*
X-5207000Y-342900D01*
X-5207000Y-242888D02*
X-5189220Y-222885D01*
X-5153660Y-222885D01*
X-5153660Y-182880D02*
X-5260340Y-182880D01*
X-5260340Y-82868D01*
X-5242560Y-62865D01*
X-5224780Y-62865D01*
X-5207000Y-82868D01*
X-5189220Y-62865D01*
X-5171440Y-62865D01*
X-5153660Y-82868D01*
X-5153660Y-182880D01*
X-5207000Y-182880D02*
X-5207000Y-82868D01*
X-5207000Y-2858D02*
X-5207000Y+97155D01*
X-5153660Y+137160D02*
X-5260340Y+137160D01*
X-5260340Y+237172D01*
X-5242560Y+257175D01*
X-5224780Y+257175D01*
X-5207000Y+237172D01*
X-5207000Y+137160D01*
X-5207000Y+237172D02*
X-5189220Y+257175D01*
X-5153660Y+257175D01*
X-5171440Y+417195D02*
X-5153660Y+397192D01*
X-5153660Y+337185D01*
X-5189220Y+297180D01*
X-5224780Y+297180D01*
X-5260340Y+337185D01*
X-5260340Y+397192D01*
X-5242560Y+417195D01*
D16*
X-5344160Y-3312160D02*
X-5069840Y-3312160D01*
X-5069840Y-1259840D01*
X-5344160Y-1259840D01*
X-5344160Y-3312160D01*
D20*
X-5207000Y-1397000D02*
X-5207000Y-1397000D01*
D22*
X-5191548Y-3209284D02*
X-5176096Y-3209284D01*
X-5160645Y-3191901D01*
X-5160645Y-3122369D01*
X-5176096Y-3104986D01*
X-5253354Y-3104986D01*
X-5207000Y-3052837D02*
X-5207000Y-2965922D01*
X-5160645Y-2931156D02*
X-5253354Y-2931156D01*
X-5253354Y-2844241D01*
X-5237903Y-2826858D01*
X-5222451Y-2826858D01*
X-5207000Y-2844241D01*
X-5207000Y-2931156D01*
X-5207000Y-2844241D02*
X-5191548Y-2826858D01*
X-5160645Y-2826858D01*
X-5160645Y-2792092D02*
X-5253354Y-2792092D01*
X-5253354Y-2722560D01*
X-5222451Y-2687794D01*
X-5191548Y-2687794D01*
X-5160645Y-2722560D01*
X-5160645Y-2792092D01*
X-5207000Y-2635645D02*
X-5207000Y-2548730D01*
X-5160645Y-2513964D02*
X-5253354Y-2513964D01*
X-5207000Y-2461815D01*
X-5253354Y-2409666D01*
X-5160645Y-2409666D01*
X-5160645Y-2270602D02*
X-5160645Y-2374900D01*
X-5253354Y-2374900D01*
X-5253354Y-2270602D01*
X-5207000Y-2374900D02*
X-5207000Y-2305368D01*
X-5160645Y-2235836D02*
X-5253354Y-2235836D01*
X-5207000Y-2183687D01*
X-5253354Y-2131538D01*
X-5160645Y-2131538D01*
X-5207000Y-2079389D02*
X-5207000Y-1992474D01*
X-5176096Y-1853410D02*
X-5160645Y-1870793D01*
X-5160645Y-1922942D01*
X-5191548Y-1957708D01*
X-5222451Y-1957708D01*
X-5253354Y-1922942D01*
X-5253354Y-1870793D01*
X-5237903Y-1853410D01*
X-5160645Y-1818644D02*
X-5253354Y-1818644D01*
X-5253354Y-1714346D02*
X-5160645Y-1714346D01*
X-5207000Y-1818644D02*
X-5207000Y-1714346D01*
X-5253354Y-1679580D02*
X-5160645Y-1679580D01*
X-5253354Y-1575282D02*
X-5207000Y-1627431D01*
X-5160645Y-1575282D01*
X-5207000Y-1679580D02*
X-5207000Y-1627431D01*
D16*
X-5344160Y-5344160D02*
X-5069840Y-5344160D01*
X-5069840Y-3291840D01*
X-5344160Y-3291840D01*
X-5344160Y-5344160D01*
D20*
X-5207000Y-3429000D02*
X-5207000Y-3429000D01*
D21*
X-5189220Y-5126990D02*
X-5171440Y-5126990D01*
X-5153660Y-5106988D01*
X-5153660Y-5026978D01*
X-5171440Y-5006975D01*
X-5260340Y-5006975D01*
X-5207000Y-4946968D02*
X-5207000Y-4846955D01*
X-5171440Y-4686935D02*
X-5153660Y-4706938D01*
X-5153660Y-4766945D01*
X-5189220Y-4806950D01*
X-5224780Y-4806950D01*
X-5260340Y-4766945D01*
X-5260340Y-4706938D01*
X-5242560Y-4686935D01*
X-5153660Y-4646930D02*
X-5260340Y-4646930D01*
X-5260340Y-4526915D02*
X-5153660Y-4526915D01*
X-5207000Y-4646930D02*
X-5207000Y-4526915D01*
X-5260340Y-4486910D02*
X-5153660Y-4486910D01*
X-5260340Y-4366895D02*
X-5207000Y-4426903D01*
X-5153660Y-4366895D01*
X-5207000Y-4486910D02*
X-5207000Y-4426903D01*
X-5207000Y-4306888D02*
X-5207000Y-4206875D01*
X-5153660Y-4166870D02*
X-5224780Y-4166870D01*
X-5260340Y-4126865D01*
X-5260340Y-4086860D01*
X-5224780Y-4046855D01*
X-5153660Y-4046855D01*
X-5189220Y-4166870D02*
X-5189220Y-4046855D01*
X-5260340Y-4006850D02*
X-5153660Y-4006850D01*
X-5153660Y-3886835D01*
X-5260340Y-3846830D02*
X-5171440Y-3846830D01*
X-5153660Y-3826828D01*
X-5153660Y-3746818D01*
X-5171440Y-3726815D01*
X-5260340Y-3726815D01*
D16*
X+5069840Y+2783840D02*
X+5344160Y+2783840D01*
X+5344160Y+4836160D01*
X+5069840Y+4836160D01*
X+5069840Y+2783840D01*
D20*
X+5207000Y+4699000D02*
X+5207000Y+4699000D01*
D21*
X+5224780Y+3081020D02*
X+5242560Y+3081020D01*
X+5260340Y+3101022D01*
X+5260340Y+3181032D01*
X+5242560Y+3201035D01*
X+5153660Y+3201035D01*
X+5207000Y+3261042D02*
X+5207000Y+3361055D01*
X+5260340Y+3401060D02*
X+5189220Y+3401060D01*
X+5153660Y+3441065D01*
X+5153660Y+3481070D01*
X+5189220Y+3521075D01*
X+5260340Y+3521075D01*
X+5224780Y+3401060D02*
X+5224780Y+3521075D01*
X+5153660Y+3561080D02*
X+5260340Y+3561080D01*
X+5260340Y+3681095D01*
X+5153660Y+3721100D02*
X+5242560Y+3721100D01*
X+5260340Y+3741102D01*
X+5260340Y+3821112D01*
X+5242560Y+3841115D01*
X+5153660Y+3841115D01*
X+5207000Y+3901122D02*
X+5207000Y+4001135D01*
X+5260340Y+4041140D02*
X+5153660Y+4041140D01*
X+5153660Y+4141152D01*
X+5171440Y+4161155D01*
X+5189220Y+4161155D01*
X+5207000Y+4141152D01*
X+5207000Y+4041140D01*
X+5207000Y+4141152D02*
X+5224780Y+4161155D01*
X+5260340Y+4161155D01*
X+5153660Y+4201160D02*
X+5153660Y+4321175D01*
X+5153660Y+4261167D02*
X+5260340Y+4261167D01*
D16*
X+5069840Y+751840D02*
X+5344160Y+751840D01*
X+5344160Y+2804160D01*
X+5069840Y+2804160D01*
X+5069840Y+751840D01*
D20*
X+5207000Y+2667000D02*
X+5207000Y+2667000D01*
D23*
X+5219361Y+854718D02*
X+5231723Y+854718D01*
X+5244084Y+868624D01*
X+5244084Y+924249D01*
X+5231723Y+938156D01*
X+5169916Y+938156D01*
X+5207000Y+979875D02*
X+5207000Y+1049407D01*
X+5244084Y+1077220D02*
X+5169916Y+1077220D01*
X+5169916Y+1146751D01*
X+5182277Y+1160658D01*
X+5194639Y+1160658D01*
X+5207000Y+1146751D01*
X+5207000Y+1077220D01*
X+5207000Y+1146751D02*
X+5219361Y+1160658D01*
X+5244084Y+1160658D01*
X+5169916Y+1202377D02*
X+5169916Y+1258002D01*
X+5169916Y+1230190D02*
X+5244084Y+1230190D01*
X+5244084Y+1202377D02*
X+5244084Y+1258002D01*
X+5207000Y+1313628D02*
X+5207000Y+1383160D01*
X+5244084Y+1410973D02*
X+5169916Y+1410973D01*
X+5169916Y+1480504D01*
X+5182277Y+1494411D01*
X+5194639Y+1494411D01*
X+5207000Y+1480504D01*
X+5207000Y+1410973D01*
X+5207000Y+1480504D02*
X+5219361Y+1494411D01*
X+5244084Y+1494411D01*
X+5244084Y+1522224D02*
X+5169916Y+1522224D01*
X+5169916Y+1605662D01*
X+5207000Y+1522224D02*
X+5207000Y+1577849D01*
X+5207000Y+1647381D02*
X+5207000Y+1716913D01*
X+5244084Y+1744726D02*
X+5169916Y+1744726D01*
X+5169916Y+1814257D01*
X+5182277Y+1828164D01*
X+5194639Y+1828164D01*
X+5207000Y+1814257D01*
X+5207000Y+1744726D01*
X+5207000Y+1814257D02*
X+5219361Y+1828164D01*
X+5244084Y+1828164D01*
X+5244084Y+1855977D02*
X+5194639Y+1855977D01*
X+5169916Y+1883789D01*
X+5169916Y+1911602D01*
X+5194639Y+1939415D01*
X+5244084Y+1939415D01*
X+5219361Y+1855977D02*
X+5219361Y+1939415D01*
X+5169916Y+1967228D02*
X+5244084Y+1967228D01*
X+5244084Y+2050666D01*
X+5207000Y+2092385D02*
X+5207000Y+2161917D01*
X+5244084Y+2189730D02*
X+5169916Y+2189730D01*
X+5169916Y+2259261D01*
X+5182277Y+2273168D01*
X+5194639Y+2273168D01*
X+5207000Y+2259261D01*
X+5207000Y+2189730D01*
X+5207000Y+2259261D02*
X+5219361Y+2273168D01*
X+5244084Y+2273168D01*
X+5244084Y+2300981D02*
X+5194639Y+2300981D01*
X+5169916Y+2328793D01*
X+5169916Y+2356606D01*
X+5194639Y+2384419D01*
X+5244084Y+2384419D01*
X+5219361Y+2300981D02*
X+5219361Y+2384419D01*
X+5244084Y+2412232D02*
X+5169916Y+2412232D01*
X+5169916Y+2495670D02*
X+5244084Y+2495670D01*
X+5207000Y+2412232D02*
X+5207000Y+2495670D01*
D16*
X+5069840Y-1280160D02*
X+5344160Y-1280160D01*
X+5344160Y+772160D01*
X+5069840Y+772160D01*
X+5069840Y-1280160D01*
D20*
X+5207000Y+635000D02*
X+5207000Y+635000D01*
D24*
X+5221263Y-1177285D02*
X+5235526Y-1177285D01*
X+5249789Y-1161240D01*
X+5249789Y-1097056D01*
X+5235526Y-1081010D01*
X+5164211Y-1081010D01*
X+5207000Y-1032873D02*
X+5207000Y-952643D01*
X+5235526Y-920551D02*
X+5249789Y-904506D01*
X+5249789Y-840322D01*
X+5235526Y-824276D01*
X+5221263Y-824276D01*
X+5207000Y-840322D01*
X+5207000Y-904506D01*
X+5192737Y-920551D01*
X+5178474Y-920551D01*
X+5164211Y-904506D01*
X+5164211Y-840322D01*
X+5178474Y-824276D01*
X+5164211Y-776139D02*
X+5164211Y-711955D01*
X+5164211Y-744047D02*
X+5249789Y-744047D01*
X+5249789Y-776139D02*
X+5249789Y-711955D01*
X+5221263Y-599634D02*
X+5221263Y-567542D01*
X+5249789Y-567542D01*
X+5249789Y-631726D01*
X+5221263Y-663817D01*
X+5192737Y-663817D01*
X+5164211Y-631726D01*
X+5164211Y-583588D01*
X+5178474Y-567542D01*
X+5207000Y-519405D02*
X+5207000Y-439175D01*
X+5249789Y-407083D02*
X+5164211Y-407083D01*
X+5164211Y-342900D01*
X+5192737Y-310808D01*
X+5221263Y-310808D01*
X+5249789Y-342900D01*
X+5249789Y-407083D01*
X+5249789Y-182441D02*
X+5249789Y-278716D01*
X+5164211Y-278716D01*
X+5164211Y-182441D01*
X+5207000Y-278716D02*
X+5207000Y-214533D01*
X+5164211Y-150349D02*
X+5207000Y-150349D01*
X+5249789Y-102212D01*
X+5207000Y-54074D01*
X+5164211Y-54074D01*
X+5207000Y-5937D02*
X+5207000Y+74293D01*
X+5249789Y+106385D02*
X+5164211Y+106385D01*
X+5164211Y+186614D01*
X+5178474Y+202660D01*
X+5192737Y+202660D01*
X+5207000Y+186614D01*
X+5207000Y+106385D01*
X+5207000Y+186614D02*
X+5221263Y+202660D01*
X+5249789Y+202660D01*
X+5192737Y+234752D02*
X+5164211Y+266843D01*
X+5164211Y+298935D01*
X+5192737Y+331027D01*
X+5221263Y+331027D01*
X+5249789Y+298935D01*
X+5249789Y+266843D01*
X+5221263Y+234752D01*
X+5192737Y+234752D01*
X+5249789Y+363119D02*
X+5164211Y+363119D01*
X+5207000Y+411256D01*
X+5164211Y+459394D01*
X+5249789Y+459394D01*
D16*
X+5069840Y-3312160D02*
X+5344160Y-3312160D01*
X+5344160Y-1259840D01*
X+5069840Y-1259840D01*
X+5069840Y-3312160D01*
D20*
X+5207000Y-1397000D02*
X+5207000Y-1397000D01*
D21*
X+5224780Y-3094990D02*
X+5242560Y-3094990D01*
X+5260340Y-3074988D01*
X+5260340Y-2994978D01*
X+5242560Y-2974975D01*
X+5153660Y-2974975D01*
X+5207000Y-2914968D02*
X+5207000Y-2814955D01*
X+5260340Y-2774950D02*
X+5153660Y-2774950D01*
X+5153660Y-2674938D01*
X+5171440Y-2654935D01*
X+5189220Y-2654935D01*
X+5207000Y-2674938D01*
X+5207000Y-2774950D01*
X+5207000Y-2674938D02*
X+5224780Y-2654935D01*
X+5260340Y-2654935D01*
X+5260340Y-2614930D02*
X+5189220Y-2614930D01*
X+5153660Y-2574925D01*
X+5153660Y-2534920D01*
X+5189220Y-2494915D01*
X+5260340Y-2494915D01*
X+5224780Y-2614930D02*
X+5224780Y-2494915D01*
X+5260340Y-2454910D02*
X+5153660Y-2454910D01*
X+5207000Y-2394903D01*
X+5153660Y-2334895D01*
X+5260340Y-2334895D01*
X+5207000Y-2274888D02*
X+5207000Y-2174875D01*
X+5242560Y-2134870D02*
X+5260340Y-2114868D01*
X+5260340Y-2034858D01*
X+5242560Y-2014855D01*
X+5224780Y-2014855D01*
X+5207000Y-2034858D01*
X+5207000Y-2114868D01*
X+5189220Y-2134870D01*
X+5171440Y-2134870D01*
X+5153660Y-2114868D01*
X+5153660Y-2034858D01*
X+5171440Y-2014855D01*
X+5260340Y-1854835D02*
X+5260340Y-1974850D01*
X+5153660Y-1974850D01*
X+5153660Y-1854835D01*
X+5207000Y-1974850D02*
X+5207000Y-1894840D01*
X+5153660Y-1814830D02*
X+5260340Y-1814830D01*
X+5260340Y-1694815D01*
D16*
X+5069840Y-5344160D02*
X+5344160Y-5344160D01*
X+5344160Y-3291840D01*
X+5069840Y-3291840D01*
X+5069840Y-5344160D01*
D20*
X+5207000Y-3429000D02*
X+5207000Y-3429000D01*
D21*
X+5224780Y-4806950D02*
X+5242560Y-4806950D01*
X+5260340Y-4786948D01*
X+5260340Y-4706938D01*
X+5242560Y-4686935D01*
X+5153660Y-4686935D01*
X+5207000Y-4626928D02*
X+5207000Y-4526915D01*
X+5153660Y-4486910D02*
X+5207000Y-4486910D01*
X+5260340Y-4426903D01*
X+5207000Y-4366895D01*
X+5153660Y-4366895D01*
X+5242560Y-4206875D02*
X+5260340Y-4226878D01*
X+5260340Y-4286885D01*
X+5224780Y-4326890D01*
X+5189220Y-4326890D01*
X+5153660Y-4286885D01*
X+5153660Y-4226878D01*
X+5171440Y-4206875D01*
X+5242560Y-4046855D02*
X+5260340Y-4066858D01*
X+5260340Y-4126865D01*
X+5224780Y-4166870D01*
X+5189220Y-4166870D01*
X+5153660Y-4126865D01*
X+5153660Y-4066858D01*
X+5171440Y-4046855D01*
D16*
X-4127500Y+2148840D02*
X-3238500Y+2148840D01*
X-3238500Y+4201160D01*
X-4127500Y+4201160D01*
X-4127500Y+2148840D01*
D25*
X-4064000Y+4064000D02*
X-4064000Y+4064000D01*
D26*
X-3726730Y+2306576D02*
X-3814191Y+2404969D01*
X-3814191Y+2503362D01*
X-3726730Y+2601755D01*
X-3639270Y+2601755D01*
X-3551809Y+2503362D01*
X-3551809Y+2404969D01*
X-3639270Y+2306576D01*
X-3726730Y+2306576D01*
X-3814191Y+2700148D02*
X-3595539Y+2700148D01*
X-3551809Y+2749344D01*
X-3551809Y+2946130D01*
X-3595539Y+2995327D01*
X-3814191Y+2995327D01*
X-3814191Y+3093720D02*
X-3814191Y+3388899D01*
X-3814191Y+3241309D02*
X-3551809Y+3241309D01*
X-3595539Y+3487292D02*
X-3770461Y+3487292D01*
X-3814191Y+3536488D01*
X-3814191Y+3733274D01*
X-3770461Y+3782471D01*
X-3595539Y+3782471D01*
X-3551809Y+3733274D01*
X-3551809Y+3536488D01*
X-3595539Y+3487292D01*
X-3551809Y+3487292D02*
X-3814191Y+3782471D01*
D16*
X-2349500Y+2148840D02*
X-1460500Y+2148840D01*
X-1460500Y+4201160D01*
X-2349500Y+4201160D01*
X-2349500Y+2148840D01*
D25*
X-2286000Y+4064000D02*
X-2286000Y+4064000D01*
D26*
X-1948730Y+2306576D02*
X-2036191Y+2404969D01*
X-2036191Y+2503362D01*
X-1948730Y+2601755D01*
X-1861270Y+2601755D01*
X-1773809Y+2503362D01*
X-1773809Y+2404969D01*
X-1861270Y+2306576D01*
X-1948730Y+2306576D01*
X-2036191Y+2700148D02*
X-1817539Y+2700148D01*
X-1773809Y+2749344D01*
X-1773809Y+2946130D01*
X-1817539Y+2995327D01*
X-2036191Y+2995327D01*
X-2036191Y+3093720D02*
X-2036191Y+3388899D01*
X-2036191Y+3241309D02*
X-1773809Y+3241309D01*
X-1948730Y+3585685D02*
X-2036191Y+3684078D01*
X-1773809Y+3684078D01*
D16*
X-571500Y+2148840D02*
X+317500Y+2148840D01*
X+317500Y+4201160D01*
X-571500Y+4201160D01*
X-571500Y+2148840D01*
D25*
X-508000Y+4064000D02*
X-508000Y+4064000D01*
D26*
X-170730Y+2306576D02*
X-258191Y+2404969D01*
X-258191Y+2503362D01*
X-170730Y+2601755D01*
X-83270Y+2601755D01*
X+4191Y+2503362D01*
X+4191Y+2404969D01*
X-83270Y+2306576D01*
X-170730Y+2306576D01*
X-258191Y+2700148D02*
X-39539Y+2700148D01*
X+4191Y+2749344D01*
X+4191Y+2946130D01*
X-39539Y+2995327D01*
X-258191Y+2995327D01*
X-258191Y+3093720D02*
X-258191Y+3388899D01*
X-258191Y+3241309D02*
X+4191Y+3241309D01*
X-214461Y+3536488D02*
X-258191Y+3585685D01*
X-258191Y+3733274D01*
X-214461Y+3782471D01*
X-170730Y+3782471D01*
X-127000Y+3733274D01*
X-127000Y+3585685D01*
X-83270Y+3536488D01*
X+4191Y+3536488D01*
X+4191Y+3782471D01*
D16*
X+1206500Y+2148840D02*
X+2095500Y+2148840D01*
X+2095500Y+4201160D01*
X+1206500Y+4201160D01*
X+1206500Y+2148840D01*
D25*
X+1270000Y+4064000D02*
X+1270000Y+4064000D01*
D26*
X+1607270Y+2306576D02*
X+1519809Y+2404969D01*
X+1519809Y+2503362D01*
X+1607270Y+2601755D01*
X+1694730Y+2601755D01*
X+1782191Y+2503362D01*
X+1782191Y+2404969D01*
X+1694730Y+2306576D01*
X+1607270Y+2306576D01*
X+1519809Y+2700148D02*
X+1738461Y+2700148D01*
X+1782191Y+2749344D01*
X+1782191Y+2946130D01*
X+1738461Y+2995327D01*
X+1519809Y+2995327D01*
X+1519809Y+3093720D02*
X+1519809Y+3388899D01*
X+1519809Y+3241309D02*
X+1782191Y+3241309D01*
X+1563539Y+3536488D02*
X+1519809Y+3585685D01*
X+1519809Y+3733274D01*
X+1563539Y+3782471D01*
X+1607270Y+3782471D01*
X+1651000Y+3733274D01*
X+1694730Y+3782471D01*
X+1738461Y+3782471D01*
X+1782191Y+3733274D01*
X+1782191Y+3585685D01*
X+1738461Y+3536488D01*
X+1651000Y+3634881D02*
X+1651000Y+3733274D01*
D16*
X-4127500Y-137160D02*
X-3238500Y-137160D01*
X-3238500Y+1915160D01*
X-4127500Y+1915160D01*
X-4127500Y-137160D01*
D25*
X-4064000Y+1778000D02*
X-4064000Y+1778000D01*
D26*
X-3726730Y+20576D02*
X-3814191Y+118969D01*
X-3814191Y+217362D01*
X-3726730Y+315755D01*
X-3639270Y+315755D01*
X-3551809Y+217362D01*
X-3551809Y+118969D01*
X-3639270Y+20576D01*
X-3726730Y+20576D01*
X-3814191Y+414148D02*
X-3595539Y+414148D01*
X-3551809Y+463344D01*
X-3551809Y+660130D01*
X-3595539Y+709327D01*
X-3814191Y+709327D01*
X-3814191Y+807720D02*
X-3814191Y+1102899D01*
X-3814191Y+955309D02*
X-3551809Y+955309D01*
X-3814191Y+1496471D02*
X-3814191Y+1250488D01*
X-3726730Y+1250488D01*
X-3726730Y+1447274D01*
X-3683000Y+1496471D01*
X-3595539Y+1496471D01*
X-3551809Y+1447274D01*
X-3551809Y+1299685D01*
X-3595539Y+1250488D01*
D16*
X-2349500Y-137160D02*
X-1460500Y-137160D01*
X-1460500Y+1915160D01*
X-2349500Y+1915160D01*
X-2349500Y-137160D01*
D25*
X-2286000Y+1778000D02*
X-2286000Y+1778000D01*
D26*
X-1948730Y+20576D02*
X-2036191Y+118969D01*
X-2036191Y+217362D01*
X-1948730Y+315755D01*
X-1861270Y+315755D01*
X-1773809Y+217362D01*
X-1773809Y+118969D01*
X-1861270Y+20576D01*
X-1948730Y+20576D01*
X-2036191Y+414148D02*
X-1817539Y+414148D01*
X-1773809Y+463344D01*
X-1773809Y+660130D01*
X-1817539Y+709327D01*
X-2036191Y+709327D01*
X-2036191Y+807720D02*
X-2036191Y+1102899D01*
X-2036191Y+955309D02*
X-1773809Y+955309D01*
X-1992461Y+1496471D02*
X-2036191Y+1447274D01*
X-2036191Y+1299685D01*
X-1992461Y+1250488D01*
X-1817539Y+1250488D01*
X-1773809Y+1299685D01*
X-1773809Y+1447274D01*
X-1817539Y+1496471D01*
X-1861270Y+1496471D01*
X-1905000Y+1447274D01*
X-1905000Y+1250488D01*
D16*
X-571500Y-137160D02*
X+317500Y-137160D01*
X+317500Y+1915160D01*
X-571500Y+1915160D01*
X-571500Y-137160D01*
D25*
X-508000Y+1778000D02*
X-508000Y+1778000D01*
D26*
X-170730Y+20576D02*
X-258191Y+118969D01*
X-258191Y+217362D01*
X-170730Y+315755D01*
X-83270Y+315755D01*
X+4191Y+217362D01*
X+4191Y+118969D01*
X-83270Y+20576D01*
X-170730Y+20576D01*
X-258191Y+414148D02*
X-39539Y+414148D01*
X+4191Y+463344D01*
X+4191Y+660130D01*
X-39539Y+709327D01*
X-258191Y+709327D01*
X-258191Y+807720D02*
X-258191Y+1102899D01*
X-258191Y+955309D02*
X+4191Y+955309D01*
X-258191Y+1250488D02*
X-258191Y+1496471D01*
X-214461Y+1496471D01*
X+4191Y+1250488D01*
D16*
X+2984500Y-137160D02*
X+3873500Y-137160D01*
X+3873500Y+1915160D01*
X+2984500Y+1915160D01*
X+2984500Y-137160D01*
D25*
X+3048000Y+1778000D02*
X+3048000Y+1778000D01*
D26*
X+3385270Y+20576D02*
X+3297809Y+118969D01*
X+3297809Y+217362D01*
X+3385270Y+315755D01*
X+3472730Y+315755D01*
X+3560191Y+217362D01*
X+3560191Y+118969D01*
X+3472730Y+20576D01*
X+3385270Y+20576D01*
X+3297809Y+414148D02*
X+3516461Y+414148D01*
X+3560191Y+463344D01*
X+3560191Y+660130D01*
X+3516461Y+709327D01*
X+3297809Y+709327D01*
X+3297809Y+807720D02*
X+3297809Y+1102899D01*
X+3297809Y+955309D02*
X+3560191Y+955309D01*
X+3385270Y+1496471D02*
X+3429000Y+1447274D01*
X+3429000Y+1299685D01*
X+3385270Y+1250488D01*
X+3341539Y+1250488D01*
X+3297809Y+1299685D01*
X+3297809Y+1447274D01*
X+3341539Y+1496471D01*
X+3516461Y+1496471D01*
X+3560191Y+1447274D01*
X+3560191Y+1299685D01*
D16*
X-4127500Y-2423160D02*
X-3238500Y-2423160D01*
X-3238500Y-370840D01*
X-4127500Y-370840D01*
X-4127500Y-2423160D01*
D25*
X-4064000Y-508000D02*
X-4064000Y-508000D01*
D27*
X-3718327Y-2273155D02*
X-3788983Y-2193668D01*
X-3788983Y-2114180D01*
X-3718327Y-2034693D01*
X-3647672Y-2034693D01*
X-3577016Y-2114180D01*
X-3577016Y-2193668D01*
X-3647672Y-2273155D01*
X-3718327Y-2273155D01*
X-3788983Y-1955205D02*
X-3612344Y-1955205D01*
X-3577016Y-1915462D01*
X-3577016Y-1756487D01*
X-3612344Y-1716743D01*
X-3788983Y-1716743D01*
X-3788983Y-1637255D02*
X-3788983Y-1398793D01*
X-3788983Y-1518024D02*
X-3577016Y-1518024D01*
X-3718327Y-1239818D02*
X-3788983Y-1160330D01*
X-3577016Y-1160330D01*
X-3612344Y-1001355D02*
X-3753655Y-1001355D01*
X-3788983Y-961612D01*
X-3788983Y-802637D01*
X-3753655Y-762893D01*
X-3612344Y-762893D01*
X-3577016Y-802637D01*
X-3577016Y-961612D01*
X-3612344Y-1001355D01*
X-3577016Y-1001355D02*
X-3788983Y-762893D01*
D16*
X-2349500Y-2423160D02*
X-1460500Y-2423160D01*
X-1460500Y-370840D01*
X-2349500Y-370840D01*
X-2349500Y-2423160D01*
D25*
X-2286000Y-508000D02*
X-2286000Y-508000D01*
D27*
X-1940327Y-2273155D02*
X-2010983Y-2193668D01*
X-2010983Y-2114180D01*
X-1940327Y-2034693D01*
X-1869672Y-2034693D01*
X-1799016Y-2114180D01*
X-1799016Y-2193668D01*
X-1869672Y-2273155D01*
X-1940327Y-2273155D01*
X-2010983Y-1955205D02*
X-1834344Y-1955205D01*
X-1799016Y-1915462D01*
X-1799016Y-1756487D01*
X-1834344Y-1716743D01*
X-2010983Y-1716743D01*
X-2010983Y-1637255D02*
X-2010983Y-1398793D01*
X-2010983Y-1518024D02*
X-1799016Y-1518024D01*
X-1940327Y-1239818D02*
X-2010983Y-1160330D01*
X-1799016Y-1160330D01*
X-1940327Y-921868D02*
X-2010983Y-842380D01*
X-1799016Y-842380D01*
D16*
X+1206500Y-2423160D02*
X+2095500Y-2423160D01*
X+2095500Y-370840D01*
X+1206500Y-370840D01*
X+1206500Y-2423160D01*
D25*
X+1270000Y-508000D02*
X+1270000Y-508000D01*
D27*
X+1615673Y-2273155D02*
X+1545017Y-2193668D01*
X+1545017Y-2114180D01*
X+1615673Y-2034693D01*
X+1686328Y-2034693D01*
X+1756984Y-2114180D01*
X+1756984Y-2193668D01*
X+1686328Y-2273155D01*
X+1615673Y-2273155D01*
X+1545017Y-1955205D02*
X+1721656Y-1955205D01*
X+1756984Y-1915462D01*
X+1756984Y-1756487D01*
X+1721656Y-1716743D01*
X+1545017Y-1716743D01*
X+1545017Y-1637255D02*
X+1545017Y-1398793D01*
X+1545017Y-1518024D02*
X+1756984Y-1518024D01*
X+1615673Y-1239818D02*
X+1545017Y-1160330D01*
X+1756984Y-1160330D01*
X+1580345Y-961612D02*
X+1545017Y-921868D01*
X+1545017Y-802637D01*
X+1580345Y-762893D01*
X+1615673Y-762893D01*
X+1651000Y-802637D01*
X+1686328Y-762893D01*
X+1721656Y-762893D01*
X+1756984Y-802637D01*
X+1756984Y-921868D01*
X+1721656Y-961612D01*
X+1651000Y-882124D02*
X+1651000Y-802637D01*
D16*
X+2984500Y-2423160D02*
X+3873500Y-2423160D01*
X+3873500Y-370840D01*
X+2984500Y-370840D01*
X+2984500Y-2423160D01*
D25*
X+3048000Y-508000D02*
X+3048000Y-508000D01*
D27*
X+3393673Y-2273155D02*
X+3323017Y-2193668D01*
X+3323017Y-2114180D01*
X+3393673Y-2034693D01*
X+3464328Y-2034693D01*
X+3534984Y-2114180D01*
X+3534984Y-2193668D01*
X+3464328Y-2273155D01*
X+3393673Y-2273155D01*
X+3323017Y-1955205D02*
X+3499656Y-1955205D01*
X+3534984Y-1915462D01*
X+3534984Y-1756487D01*
X+3499656Y-1716743D01*
X+3323017Y-1716743D01*
X+3323017Y-1637255D02*
X+3323017Y-1398793D01*
X+3323017Y-1518024D02*
X+3534984Y-1518024D01*
X+3393673Y-1239818D02*
X+3323017Y-1160330D01*
X+3534984Y-1160330D01*
X+3464328Y-762893D02*
X+3464328Y-1001355D01*
X+3323017Y-842380D01*
X+3534984Y-842380D01*
D16*
X-4127500Y-4709160D02*
X-3238500Y-4709160D01*
X-3238500Y-2656840D01*
X-4127500Y-2656840D01*
X-4127500Y-4709160D01*
D25*
X-4064000Y-2794000D02*
X-4064000Y-2794000D01*
D27*
X-3718327Y-4559155D02*
X-3788983Y-4479668D01*
X-3788983Y-4400180D01*
X-3718327Y-4320693D01*
X-3647672Y-4320693D01*
X-3577016Y-4400180D01*
X-3577016Y-4479668D01*
X-3647672Y-4559155D01*
X-3718327Y-4559155D01*
X-3788983Y-4241205D02*
X-3612344Y-4241205D01*
X-3577016Y-4201462D01*
X-3577016Y-4042487D01*
X-3612344Y-4002743D01*
X-3788983Y-4002743D01*
X-3788983Y-3923255D02*
X-3788983Y-3684793D01*
X-3788983Y-3804024D02*
X-3577016Y-3804024D01*
X-3718327Y-3525818D02*
X-3788983Y-3446330D01*
X-3577016Y-3446330D01*
X-3788983Y-3048893D02*
X-3788983Y-3247612D01*
X-3718327Y-3247612D01*
X-3718327Y-3088637D01*
X-3683000Y-3048893D01*
X-3612344Y-3048893D01*
X-3577016Y-3088637D01*
X-3577016Y-3207868D01*
X-3612344Y-3247612D01*
D16*
X-571500Y-4709160D02*
X+317500Y-4709160D01*
X+317500Y-2656840D01*
X-571500Y-2656840D01*
X-571500Y-4709160D01*
D25*
X-508000Y-2794000D02*
X-508000Y-2794000D01*
D27*
X-162327Y-4559155D02*
X-232983Y-4479668D01*
X-232983Y-4400180D01*
X-162327Y-4320693D01*
X-91672Y-4320693D01*
X-21016Y-4400180D01*
X-21016Y-4479668D01*
X-91672Y-4559155D01*
X-162327Y-4559155D01*
X-232983Y-4241205D02*
X-56344Y-4241205D01*
X-21016Y-4201462D01*
X-21016Y-4042487D01*
X-56344Y-4002743D01*
X-232983Y-4002743D01*
X-232983Y-3923255D02*
X-232983Y-3684793D01*
X-232983Y-3804024D02*
X-21016Y-3804024D01*
X-162327Y-3525818D02*
X-232983Y-3446330D01*
X-21016Y-3446330D01*
X-232983Y-3247612D02*
X-232983Y-3048893D01*
X-197655Y-3048893D01*
X-21016Y-3247612D01*
D16*
X+1206500Y-4709160D02*
X+2095500Y-4709160D01*
X+2095500Y-2656840D01*
X+1206500Y-2656840D01*
X+1206500Y-4709160D01*
D25*
X+1270000Y-2794000D02*
X+1270000Y-2794000D01*
D27*
X+1615673Y-4559155D02*
X+1545017Y-4479668D01*
X+1545017Y-4400180D01*
X+1615673Y-4320693D01*
X+1686328Y-4320693D01*
X+1756984Y-4400180D01*
X+1756984Y-4479668D01*
X+1686328Y-4559155D01*
X+1615673Y-4559155D01*
X+1545017Y-4241205D02*
X+1721656Y-4241205D01*
X+1756984Y-4201462D01*
X+1756984Y-4042487D01*
X+1721656Y-4002743D01*
X+1545017Y-4002743D01*
X+1545017Y-3923255D02*
X+1545017Y-3684793D01*
X+1545017Y-3804024D02*
X+1756984Y-3804024D01*
X+1615673Y-3525818D02*
X+1545017Y-3446330D01*
X+1756984Y-3446330D01*
X+1651000Y-3207868D02*
X+1615673Y-3247612D01*
X+1580345Y-3247612D01*
X+1545017Y-3207868D01*
X+1545017Y-3088637D01*
X+1580345Y-3048893D01*
X+1615673Y-3048893D01*
X+1651000Y-3088637D01*
X+1651000Y-3207868D01*
X+1686328Y-3247612D01*
X+1721656Y-3247612D01*
X+1756984Y-3207868D01*
X+1756984Y-3088637D01*
X+1721656Y-3048893D01*
X+1686328Y-3048893D01*
X+1651000Y-3088637D01*
D16*
X+2984500Y-4709160D02*
X+3873500Y-4709160D01*
X+3873500Y-2656840D01*
X+2984500Y-2656840D01*
X+2984500Y-4709160D01*
D25*
X+3048000Y-2794000D02*
X+3048000Y-2794000D01*
D27*
X+3393673Y-4559155D02*
X+3323017Y-4479668D01*
X+3323017Y-4400180D01*
X+3393673Y-4320693D01*
X+3464328Y-4320693D01*
X+3534984Y-4400180D01*
X+3534984Y-4479668D01*
X+3464328Y-4559155D01*
X+3393673Y-4559155D01*
X+3323017Y-4241205D02*
X+3499656Y-4241205D01*
X+3534984Y-4201462D01*
X+3534984Y-4042487D01*
X+3499656Y-4002743D01*
X+3323017Y-4002743D01*
X+3323017Y-3923255D02*
X+3323017Y-3684793D01*
X+3323017Y-3804024D02*
X+3534984Y-3804024D01*
X+3393673Y-3525818D02*
X+3323017Y-3446330D01*
X+3534984Y-3446330D01*
X+3393673Y-3048893D02*
X+3429000Y-3088637D01*
X+3429000Y-3207868D01*
X+3393673Y-3247612D01*
X+3358345Y-3247612D01*
X+3323017Y-3207868D01*
X+3323017Y-3088637D01*
X+3358345Y-3048893D01*
X+3499656Y-3048893D01*
X+3534984Y-3088637D01*
X+3534984Y-3207868D01*
D16*
X+2984500Y+2148840D02*
X+3873500Y+2148840D01*
X+3873500Y+4201160D01*
X+2984500Y+4201160D01*
X+2984500Y+2148840D01*
D25*
X+3048000Y+4064000D02*
X+3048000Y+4064000D01*
D26*
X+3385270Y+2306576D02*
X+3297809Y+2404969D01*
X+3297809Y+2503362D01*
X+3385270Y+2601755D01*
X+3472730Y+2601755D01*
X+3560191Y+2503362D01*
X+3560191Y+2404969D01*
X+3472730Y+2306576D01*
X+3385270Y+2306576D01*
X+3297809Y+2700148D02*
X+3516461Y+2700148D01*
X+3560191Y+2749344D01*
X+3560191Y+2946130D01*
X+3516461Y+2995327D01*
X+3297809Y+2995327D01*
X+3297809Y+3093720D02*
X+3297809Y+3388899D01*
X+3297809Y+3241309D02*
X+3560191Y+3241309D01*
X+3472730Y+3782471D02*
X+3472730Y+3487292D01*
X+3297809Y+3684078D01*
X+3560191Y+3684078D01*
D16*
X+1206500Y-137160D02*
X+2095500Y-137160D01*
X+2095500Y+1915160D01*
X+1206500Y+1915160D01*
X+1206500Y-137160D01*
D25*
X+1270000Y+1778000D02*
X+1270000Y+1778000D01*
D26*
X+1607270Y+20576D02*
X+1519809Y+118969D01*
X+1519809Y+217362D01*
X+1607270Y+315755D01*
X+1694730Y+315755D01*
X+1782191Y+217362D01*
X+1782191Y+118969D01*
X+1694730Y+20576D01*
X+1607270Y+20576D01*
X+1519809Y+414148D02*
X+1738461Y+414148D01*
X+1782191Y+463344D01*
X+1782191Y+660130D01*
X+1738461Y+709327D01*
X+1519809Y+709327D01*
X+1519809Y+807720D02*
X+1519809Y+1102899D01*
X+1519809Y+955309D02*
X+1782191Y+955309D01*
X+1651000Y+1299685D02*
X+1607270Y+1250488D01*
X+1563539Y+1250488D01*
X+1519809Y+1299685D01*
X+1519809Y+1447274D01*
X+1563539Y+1496471D01*
X+1607270Y+1496471D01*
X+1651000Y+1447274D01*
X+1651000Y+1299685D01*
X+1694730Y+1250488D01*
X+1738461Y+1250488D01*
X+1782191Y+1299685D01*
X+1782191Y+1447274D01*
X+1738461Y+1496471D01*
X+1694730Y+1496471D01*
X+1651000Y+1447274D01*
D16*
X-571500Y-2423160D02*
X+317500Y-2423160D01*
X+317500Y-370840D01*
X-571500Y-370840D01*
X-571500Y-2423160D01*
D25*
X-508000Y-508000D02*
X-508000Y-508000D01*
D27*
X-162327Y-2273155D02*
X-232983Y-2193668D01*
X-232983Y-2114180D01*
X-162327Y-2034693D01*
X-91672Y-2034693D01*
X-21016Y-2114180D01*
X-21016Y-2193668D01*
X-91672Y-2273155D01*
X-162327Y-2273155D01*
X-232983Y-1955205D02*
X-56344Y-1955205D01*
X-21016Y-1915462D01*
X-21016Y-1756487D01*
X-56344Y-1716743D01*
X-232983Y-1716743D01*
X-232983Y-1637255D02*
X-232983Y-1398793D01*
X-232983Y-1518024D02*
X-21016Y-1518024D01*
X-162327Y-1239818D02*
X-232983Y-1160330D01*
X-21016Y-1160330D01*
X-197655Y-961612D02*
X-232983Y-921868D01*
X-232983Y-802637D01*
X-197655Y-762893D01*
X-162327Y-762893D01*
X-127000Y-802637D01*
X-127000Y-921868D01*
X-91672Y-961612D01*
X-21016Y-961612D01*
X-21016Y-762893D01*
D16*
X-2349500Y-4709160D02*
X-1460500Y-4709160D01*
X-1460500Y-2656840D01*
X-2349500Y-2656840D01*
X-2349500Y-4709160D01*
D25*
X-2286000Y-2794000D02*
X-2286000Y-2794000D01*
D27*
X-1940327Y-4559155D02*
X-2010983Y-4479668D01*
X-2010983Y-4400180D01*
X-1940327Y-4320693D01*
X-1869672Y-4320693D01*
X-1799016Y-4400180D01*
X-1799016Y-4479668D01*
X-1869672Y-4559155D01*
X-1940327Y-4559155D01*
X-2010983Y-4241205D02*
X-1834344Y-4241205D01*
X-1799016Y-4201462D01*
X-1799016Y-4042487D01*
X-1834344Y-4002743D01*
X-2010983Y-4002743D01*
X-2010983Y-3923255D02*
X-2010983Y-3684793D01*
X-2010983Y-3804024D02*
X-1799016Y-3804024D01*
X-1940327Y-3525818D02*
X-2010983Y-3446330D01*
X-1799016Y-3446330D01*
X-1975655Y-3048893D02*
X-2010983Y-3088637D01*
X-2010983Y-3207868D01*
X-1975655Y-3247612D01*
X-1834344Y-3247612D01*
X-1799016Y-3207868D01*
X-1799016Y-3088637D01*
X-1834344Y-3048893D01*
X-1869672Y-3048893D01*
X-1905000Y-3088637D01*
X-1905000Y-3247612D01*
M02*
