G04 PROTEUS GERBER X2 FILE*
%TF.GenerationSoftware,Labcenter,Proteus,8.13-SP0-Build31525*%
%TF.CreationDate,2022-07-18T17:11:33+00:00*%
%TF.FileFunction,Copper,L1,Top*%
%TF.FilePolarity,Positive*%
%TF.Part,Single*%
%TF.SameCoordinates,{576ea621-ad59-411c-95cb-525281b3a317}*%
%FSLAX45Y45*%
%MOMM*%
G01*
%TA.AperFunction,Conductor*%
%ADD10C,0.254000*%
%TA.AperFunction,ViaPad*%
%ADD11C,0.762000*%
%TA.AperFunction,ComponentPad*%
%ADD12R,2.032000X2.032000*%
%TA.AperFunction,ComponentPad*%
%ADD13R,1.270000X1.270000*%
%ADD14C,1.270000*%
%TA.AperFunction,Profile*%
%ADD15C,0.203200*%
%TD.AperFunction*%
D10*
X-1968500Y+3302000D02*
X-1841500Y+3429000D01*
X-1460500Y+3429000D01*
X-1333500Y+3556000D01*
X-698500Y+3556000D01*
X-1270000Y+4762500D02*
X-127000Y+4762500D01*
X-127000Y+4953000D01*
X-3175000Y+3302000D02*
X-3175000Y+3429000D01*
X-3619500Y+3429000D01*
X-3746500Y+3302000D01*
X-4064000Y+3302000D01*
X-4508500Y+4699000D02*
X-2222500Y+4699000D01*
X-2159000Y+4762500D01*
X-2159000Y+4953000D01*
X-4508500Y+3556000D02*
X-4064000Y+3556000D01*
X-2032000Y+4762500D02*
X-1397000Y+4762500D01*
X-1397000Y+4953000D01*
X+4508500Y-1778000D02*
X+3810000Y-1778000D01*
X-3175000Y-4699000D02*
X-3098800Y-4775200D01*
X+2286000Y-4775200D01*
X+2298700Y-4762500D01*
X+3111500Y-4762500D01*
X+3175000Y-4699000D01*
X-5016500Y-4699000D02*
X-3429000Y-4699000D01*
X+2794000Y-4953000D02*
X-4381500Y-4953000D01*
X-4508500Y-4826000D01*
X-4699000Y-4826000D01*
X-4826000Y-4953000D01*
X-5207000Y-4953000D01*
X+2540000Y-1460500D02*
X+2667000Y-1333500D01*
X+2667000Y-1079500D01*
X+2730500Y-1016000D01*
X+3048000Y-1016000D01*
X-4826000Y-5143500D02*
X-4806950Y-5124450D01*
X+1079500Y-5124450D01*
X+1098550Y-5143500D01*
X+2540000Y-5143500D01*
X+2667000Y+3175000D02*
X+1206500Y+3175000D01*
X+1079500Y+3048000D01*
X+254000Y+3048000D01*
X+2921000Y+3048000D02*
X+2222500Y+3048000D01*
X+2095500Y+2921000D01*
X+1206500Y+2921000D01*
X+1079500Y+2794000D01*
X+254000Y+2794000D01*
X-1270000Y+3429000D02*
X-63500Y+3429000D01*
X-381000Y+3048000D02*
X+127000Y+3048000D01*
X+254000Y+4762500D02*
X+1651000Y+4762500D01*
X+1651000Y+4953000D01*
X+889000Y+3429000D02*
X+127000Y+3429000D01*
X+0Y+3556000D01*
X-508000Y+3556000D01*
X+381000Y+4064000D02*
X+1143000Y+4064000D01*
X+2159000Y+3556000D02*
X+2159000Y+3429000D01*
X+1079500Y+3429000D01*
X+952500Y+3302000D01*
X+254000Y+3302000D01*
X-4953000Y-5270500D02*
X-4953000Y-5143500D01*
X-4876800Y-5067300D01*
X+2590800Y-5067300D01*
X+2667000Y-5143500D01*
X+4318000Y-5143500D01*
X-3048000Y-5270500D02*
X-2413000Y-5270500D01*
X-2413000Y-5461000D01*
X-3175000Y-3810000D02*
X-3111500Y-3873500D01*
X-2540000Y-3873500D01*
X-2476500Y-3937000D01*
X-2476500Y-4064000D01*
X-2476500Y-1778000D02*
X-3111500Y-1778000D01*
X-3175000Y-1524000D02*
X-3111500Y-1460500D01*
X-2476500Y-1460500D01*
X-2603500Y-1587500D02*
X-2476500Y-1587500D01*
X-2393950Y-1504950D01*
X-2393950Y-1460500D01*
X-2330450Y-1397000D01*
X-2159000Y-1397000D01*
X-2032000Y-5270500D02*
X-2286000Y-5270500D01*
X-1651000Y+1270000D02*
X-1651000Y+1587500D01*
X-1587500Y+1651000D01*
X-1270000Y+1651000D01*
X+1016000Y+3175000D02*
X-4508500Y+3175000D01*
X+3429000Y+4762500D02*
X+2032000Y+4762500D01*
X+4762500Y+3048000D02*
X+3810000Y+3048000D01*
X-4318000Y-4826000D02*
X-4267200Y-4876800D01*
X+3302000Y-4876800D01*
X+3378200Y-4953000D01*
X+4199145Y-4953000D01*
X+4580145Y-4572000D01*
X+4762500Y-4572000D01*
X+4635500Y+2794000D02*
X+3810000Y+2794000D01*
X-4572000Y-4953000D02*
X-4508500Y-5016500D01*
X+2667000Y-5016500D01*
X+2730500Y-5080000D01*
X+3873500Y-5080000D01*
X+3937000Y-5016500D01*
X+4508500Y-5016500D01*
X+4635500Y-4889500D01*
X-4064000Y-5270500D02*
X-3683000Y-5270500D01*
X-3683000Y-5461000D01*
X-3810000Y+762000D02*
X-4064000Y+762000D01*
X-2603500Y+1016000D02*
X-3302000Y+1016000D01*
X-952500Y-4445000D02*
X-901700Y-4495800D01*
X-615950Y-4495800D01*
X-615950Y-4648200D01*
X-825500Y-4648200D01*
X-838200Y-4635500D01*
X-1143000Y-4635500D01*
X-1206500Y-4572000D01*
X-1397000Y+1270000D02*
X-889000Y+1270000D01*
X-1016000Y+1016000D02*
X-1524000Y+1016000D01*
X-762000Y+762000D02*
X-1524000Y+762000D01*
X-190500Y+1016000D02*
X-317500Y+1143000D01*
X-1587500Y+1143000D01*
X-1651000Y+1079500D01*
X-1651000Y+635000D01*
X-1524000Y+508000D01*
X+127000Y+508000D02*
X-508000Y+508000D01*
X-254000Y+762000D02*
X+127000Y+762000D01*
X-508000Y+889000D02*
X+571500Y+889000D01*
X-127000Y+1270000D02*
X+0Y+1143000D01*
X+317500Y+1143000D01*
X+3238500Y-4953000D02*
X+2921000Y-4953000D01*
X+3937000Y-4826000D02*
X+3746500Y-4826000D01*
X+3683000Y-4762500D01*
X+3683000Y-4635500D01*
X+3492500Y-4445000D01*
X+2984500Y-4445000D01*
X+2857500Y-4318000D01*
X+2286000Y-4318000D01*
X+3238500Y+254000D02*
X+3365500Y+127000D01*
X+4889500Y+127000D01*
X+4191000Y-4127500D02*
X+5016500Y-4127500D01*
X+889000Y+1016000D02*
X+254000Y+1016000D01*
X+952500Y+762000D02*
X+254000Y+762000D01*
X+1079500Y+508000D02*
X+254000Y+508000D01*
X+4762500Y-4889500D02*
X+4965700Y-5092700D01*
X+4965700Y-5207000D01*
X+4868334Y-5304366D01*
X+2667000Y-5304366D01*
X+2667000Y-5461000D01*
X+3302000Y+3429000D02*
X+4635500Y+3429000D01*
X+2159000Y+2286000D02*
X+2730500Y+2286000D01*
X+2540000Y-1333500D02*
X+2540000Y-1016000D01*
X+2667000Y-889000D01*
X+2159000Y+1016000D02*
X+2921000Y+1016000D01*
X+381000Y-635000D02*
X+1524000Y-635000D01*
X-1651000Y-3937000D02*
X-127000Y-3937000D01*
X+0Y-4064000D01*
X+127000Y-4064000D01*
X-4699000Y-4191000D02*
X-2032000Y-4191000D01*
X-1905000Y-4318000D01*
X-1651000Y-4318000D01*
X+63500Y-3048000D02*
X-127000Y-3048000D01*
X-190500Y-3111500D01*
X-190500Y-3365500D01*
X-254000Y-3429000D01*
X-4445000Y-3429000D01*
X-4699000Y-3683000D01*
X-4953000Y-3683000D01*
X-5016500Y-3619500D01*
X-5016500Y-3175000D01*
X-5207000Y-3175000D01*
X+63500Y-889000D02*
X+317500Y-889000D01*
X+444500Y-1016000D01*
X+1270000Y-1016000D01*
X-508000Y-5207000D02*
X-530225Y-5184775D01*
X-4191000Y-5184775D01*
X-4276725Y-5270500D01*
X-4826000Y-5270500D01*
X+2032000Y-5270500D02*
X-254000Y-5270500D01*
X+2857500Y-4445000D02*
X+2032000Y-4445000D01*
X+1714500Y-4445000D02*
X-190500Y-4445000D01*
X-444500Y-4191000D01*
X-1778000Y-4191000D01*
X-2032000Y-3937000D01*
X-2393950Y-3937000D01*
X-2393950Y-4140200D01*
X-2540000Y-4140200D01*
X-2743200Y-3937000D01*
X-4191000Y-3937000D01*
X-4318000Y-4064000D01*
X-4826000Y-4064000D01*
X-4953000Y-4191000D01*
X-5207000Y-4191000D01*
X-5016500Y-3937000D02*
X-4572000Y-3937000D01*
X-4318000Y-3683000D01*
X-3111500Y-3683000D01*
X-2984500Y-3810000D01*
X-2603500Y-3810000D01*
X-2476500Y-3683000D01*
X+1587500Y-3683000D01*
X-381000Y-2032000D02*
X+0Y-2032000D01*
X+127000Y-1905000D01*
X+317500Y-1905000D01*
X+381000Y-1841500D01*
X+381000Y-1587500D01*
X+571500Y-1397000D01*
X+1333500Y-1397000D01*
X+1397000Y-1333500D01*
X+1397000Y-1079500D01*
X+1460500Y-1016000D01*
X+1524000Y-1016000D01*
X+1619250Y-1111250D01*
X+1619250Y-1206500D01*
X+1682750Y-1270000D01*
X+2032000Y-1270000D01*
X-4889500Y-3556000D02*
X-4254500Y-2921000D01*
X-2159000Y-2921000D01*
X-1905000Y-3175000D01*
X-381000Y-3175000D01*
X+127000Y-1397000D02*
X+317500Y-1397000D01*
X+444500Y-1270000D01*
X+1270000Y-1270000D01*
X-5016500Y-2540000D02*
X-4889500Y-2413000D01*
X+127000Y-2413000D01*
X+3937000Y-4191000D02*
X+4000500Y-4254500D01*
X+5067300Y-4254500D01*
X+5067300Y-4953000D01*
X+5207000Y-4953000D01*
X+63500Y-4699000D02*
X+381000Y-4699000D01*
X-1397000Y+3746500D02*
X-1460500Y+3683000D01*
X-2540000Y+3683000D01*
X-2667001Y+3810001D01*
X-3302000Y+3810000D01*
X-3302000Y+3810001D01*
X+1270000Y-4572000D02*
X+1397000Y-4699000D01*
X+2921000Y-4699000D01*
X+3048000Y-4572000D01*
X+254000Y+3810000D02*
X+126999Y+3683000D01*
X-1333500Y+3683000D01*
X-1397000Y+3746500D01*
X-1524000Y+1524001D02*
X-1524000Y+1524000D01*
X-698500Y+1524001D01*
X-571499Y+1397000D01*
X+0Y+1397000D01*
X+254000Y+3810001D02*
X+254000Y+3810000D01*
X+381001Y+3683000D01*
X+1587500Y+3683000D01*
X-508000Y+0D02*
X-1333500Y+0D01*
X-1460500Y-127000D01*
X-1714500Y-127000D01*
X-2286000Y-4572000D02*
X-2159000Y-4699000D01*
X-1714500Y-4699000D01*
X-3175000Y+1778000D02*
X-3162300Y+1790700D01*
X-2540000Y+1790700D01*
X-2400300Y+1651000D01*
X-2159000Y+1651000D01*
X-1714500Y-127000D02*
X-2159000Y-127000D01*
X-2286000Y+0D01*
X-1714500Y-825500D02*
X-1650999Y-761999D01*
X-1524000Y-762000D01*
X-1524000Y-761999D01*
X+3556000Y+3683000D02*
X+3682999Y+3683000D01*
X+3810000Y+3810000D01*
X+3810000Y+3810001D01*
X+2984500Y-1905000D02*
X+3429000Y-1905000D01*
X+3683000Y-2159000D01*
X+3937000Y-2159000D01*
X-1397000Y+3746500D02*
X-1397000Y+3810001D01*
X-1524000Y+3810000D01*
X-1524000Y+3810001D01*
X-4064000Y-4572000D02*
X-3492500Y-4572000D01*
X-3365500Y-4445000D01*
X-2603500Y-4445000D01*
X-2476500Y-4572000D01*
X-2286000Y-4572000D01*
X+3810000Y+1524001D02*
X+3810000Y+1524000D01*
X+3682999Y+1397000D01*
X+2857500Y+1397000D01*
X+2730499Y+1524001D01*
X+2032000Y+1524000D01*
X+2032000Y+1524001D01*
X-508000Y+2286000D02*
X-381000Y+2159000D01*
X+1143000Y+2159000D01*
X+1270000Y+2286000D01*
X-1524000Y-4699000D02*
X-1714500Y-4699000D01*
X+2032000Y+3810000D02*
X+2159001Y+3683000D01*
X+3556000Y+3683000D01*
X+3683000Y-762000D02*
X+3175000Y-762000D01*
X-3302000Y-3047999D02*
X-3302000Y-3048000D01*
X-3556000Y-3047999D01*
X-3556001Y-3048000D01*
X-3937000Y-3048000D01*
X+1270000Y-4572000D02*
X+1143000Y-4699000D01*
X+381000Y-4699000D01*
X-3873500Y-762000D02*
X-3873499Y-761999D01*
X-3302000Y-762000D01*
X-3302000Y-761999D01*
X-508000Y-4572000D02*
X-508000Y-4699000D01*
X-1524000Y-4699000D01*
X-3175000Y-2794000D02*
X-2413000Y-2794000D01*
X-508000Y-4572000D02*
X-381000Y-4699000D01*
X+63500Y-4699000D01*
X-3937000Y+2286000D02*
X-3492500Y+2286000D01*
X+2032000Y+3810001D02*
X+2032000Y+3810000D01*
X+1904999Y+3683000D01*
X+1587500Y+3683000D01*
X+254000Y-127000D02*
X+571500Y-127000D01*
X+698500Y+0D01*
X+1079500Y+0D01*
X-508000Y+0D02*
X-381000Y-127000D01*
X+127000Y-127000D01*
X-2286000Y+2286000D02*
X-2540000Y+2286000D01*
X-2603500Y+2222500D01*
X-3111500Y+2222500D01*
X-3175000Y+2286000D01*
X+1841500Y-2413000D02*
X+1397000Y-2413000D01*
X+1270000Y-2286000D01*
X-3873500Y-762000D02*
X-4000500Y-889000D01*
X-4191000Y-889000D01*
X-4254500Y-825500D01*
X-4254500Y-444500D01*
X-4191000Y-381000D01*
X-4064000Y-381000D01*
X+63500Y-635000D02*
X+254000Y-635000D01*
X+254000Y-762000D01*
X+254000Y-761999D01*
X+3048000Y-4572000D02*
X+3238500Y-4572000D01*
X+3365500Y-4699000D01*
X+3556000Y-4699000D01*
X+3632200Y-4775200D01*
X+3632200Y-4826000D01*
X+3708400Y-4902200D01*
X+4000500Y-4902200D01*
X+4064000Y-4838700D01*
X+4064000Y-4508500D01*
X+4000500Y-4445000D01*
X+3810000Y-4445000D01*
X+254000Y-1778000D02*
X-63500Y-1778000D01*
X-190500Y-1905000D01*
X-4699000Y-1905000D01*
X-4953000Y-2159000D01*
X-5207000Y-2159000D01*
X-4889500Y-2540000D02*
X-4762500Y-2667000D01*
X-4699000Y-2667000D01*
X-4572000Y-2540000D01*
X+444500Y-2540000D01*
X+508000Y-2476500D01*
X+508000Y-1841500D01*
X+571500Y-1778000D01*
X+1270000Y-1778000D01*
X+1841500Y-2159000D02*
X+1841500Y-1587500D01*
X+1778000Y-1524000D01*
X+1270000Y-1524000D01*
X+1968500Y-2413000D02*
X+1955799Y-2400299D01*
X+1924050Y-2400299D01*
X+1924050Y-2336800D01*
X+1524000Y-2336800D01*
X+1346200Y-2159000D01*
X+635000Y-2159000D01*
X+571500Y-2222500D01*
X+571500Y-2540000D01*
X+508000Y-2603500D01*
X-4318000Y-2603500D01*
X-4432300Y-2717800D01*
X-4953000Y-2717800D01*
X-5003800Y-2667000D01*
X-5207000Y-2667000D01*
X+1270000Y+3810000D02*
X+1397000Y+3937000D01*
X+2540000Y+3937000D01*
X+2667000Y+3810000D01*
X+3048000Y+3810000D01*
X-2286000Y+3810000D02*
X-1841500Y+3810000D01*
X-1714500Y+3937000D01*
X-1397000Y+3937000D01*
X-1270000Y+3810000D01*
X-508000Y+3810000D01*
X-4064000Y+3810000D02*
X-3937000Y+3937000D01*
X-2286000Y+3937000D01*
X-508000Y+3810000D02*
X-63500Y+3810000D01*
X+63500Y+3937000D01*
X+1143000Y+3937000D01*
X+1270000Y+3810000D01*
X-3873500Y-635000D02*
X-2730500Y-635000D01*
X-2603500Y-762000D01*
X-2286000Y-762000D01*
X-3048000Y+1524000D02*
X-3175000Y+1397000D01*
X-3810000Y+1397000D01*
X+127000Y+1397000D02*
X+0Y+1524000D01*
X-508000Y+1524000D01*
X-3810000Y+1397000D02*
X-3937000Y+1524000D01*
X-4064000Y+1524000D01*
X-3873500Y-635000D02*
X-4064000Y-635000D01*
X-4064000Y-762000D01*
X+1270000Y-762000D02*
X+1714500Y-762000D01*
X+1841500Y-635000D01*
X+2921000Y-635000D01*
X+3048000Y-762000D01*
X-2286000Y-3048000D02*
X-2730500Y-3048000D01*
X-2857500Y-3175000D01*
X-3937000Y-3175000D01*
X-4064000Y-3048000D01*
X+3048000Y-3048000D02*
X+2476500Y-3048000D01*
X+2349500Y-2921000D01*
X+1397000Y-2921000D01*
X+1270000Y-3048000D01*
X-3048000Y+1524000D02*
X-2286000Y+1524000D01*
X+952500Y+1524000D02*
X+698500Y+1524000D01*
X+571500Y+1397000D01*
X+127000Y+127000D02*
X+0Y+254000D01*
X-381000Y+254000D01*
X-3810000Y+1397000D02*
X-3873500Y+1333500D01*
X-3873500Y+1016000D01*
X-2286000Y+3810000D02*
X-2286000Y+3937000D01*
X-2032000Y+2413000D02*
X-1397000Y+2413000D01*
X-1270000Y+2286000D01*
X-3048000Y+2349500D02*
X-2857500Y+2349500D01*
X-2794000Y+2413000D01*
X+1270000Y-762000D02*
X+508000Y-762000D01*
X-508000Y-3048000D02*
X-1143000Y-3048000D01*
X-1270000Y-2921000D01*
X-1905000Y-2921000D01*
X-2032000Y-2794000D01*
X+1524000Y+1651000D02*
X+2159000Y+1651000D01*
X+2857500Y+1651000D02*
X+2159000Y+1651000D01*
X+1270000Y+1524000D02*
X+1397000Y+1651000D01*
X+1524000Y+1651000D01*
X+2857500Y+1651000D02*
X+2921000Y+1651000D01*
X+3048000Y+1524000D01*
X-4699000Y+4699000D02*
X-4603750Y+4794250D01*
X-4445000Y+4794250D01*
X-4445000Y+4953000D01*
X-4826000Y+3937000D02*
X-4762500Y+3873500D01*
X-4762500Y+2476500D01*
X-4699000Y+2413000D01*
X-3429000Y+2413000D01*
X-3302000Y+2286000D01*
X-4064000Y+4064000D02*
X-4265766Y+4265766D01*
X-4889500Y+4265766D01*
X-4953000Y+4329266D01*
X-4953000Y+4953000D01*
X-508000Y-2794000D02*
X-381000Y-2667000D01*
X+571500Y-2667000D01*
X+635000Y-2603500D01*
X+635000Y-2476500D01*
X+698500Y-2413000D01*
X+1143000Y-2413000D01*
X+1270000Y+4064000D02*
X+1397000Y+4191000D01*
X+2921000Y+4191000D01*
X+3048000Y+4064000D01*
X-2286000Y-508000D02*
X-2159000Y-381000D01*
X-1143000Y-381000D01*
X-1016000Y-508000D01*
X-508000Y-508000D01*
X-2286000Y-2794000D02*
X-2413000Y-2667000D01*
X-3365500Y-2667000D01*
X-3556000Y-2857500D01*
X-3746500Y-2857500D01*
X-3810000Y-2794000D01*
X-4064000Y-2794000D01*
X-508000Y+4064000D02*
X-381000Y+4191000D01*
X+1143000Y+4191000D01*
X+1270000Y+4064000D01*
X-3556000Y-381000D02*
X-3683000Y-508000D01*
X-4064000Y-508000D01*
X-4064000Y+4064000D02*
X-4254500Y+3873500D01*
X-4254500Y+3746500D01*
X-4191000Y+3683000D01*
X-4000500Y+3683000D01*
X-3937000Y+3619500D01*
X+1270000Y-508000D02*
X+1778000Y-508000D01*
X+1905000Y-381000D01*
X+2921000Y-381000D01*
X+3048000Y-508000D01*
X-508000Y-2794000D02*
X-635000Y-2667000D01*
X-2159000Y-2667000D01*
X-2286000Y-2794000D01*
X+3048000Y+1778000D02*
X+2921000Y+1905000D01*
X+1397000Y+1905000D01*
X+1270000Y+1778000D01*
X-4064000Y+1778000D02*
X-3956050Y+1885950D01*
X-2393950Y+1885950D01*
X-2286000Y+1778000D01*
X+1270000Y-508000D02*
X+508000Y-508000D01*
X+304800Y-304800D01*
X-304800Y-304800D01*
X-508000Y-508000D01*
X+1270000Y+1778000D02*
X+1016000Y+1778000D01*
X+889000Y+1905000D01*
X-381000Y+1905000D01*
X-508000Y+1778000D01*
X+1270000Y-2794000D02*
X+1397000Y-2667000D01*
X+2921000Y-2667000D01*
X+3048000Y-2794000D01*
X-2286000Y-508000D02*
X-2413000Y-381000D01*
X-3556000Y-381000D01*
X-508000Y+4064000D02*
X-1079500Y+4064000D01*
X-1143000Y+4127500D01*
X-2286000Y+4064000D02*
X-1714500Y+4064000D01*
X-3937000Y+3619500D02*
X-3937000Y+3492500D01*
X-4000500Y+3429000D01*
X-4572000Y+3429000D01*
X-4635500Y+3365500D01*
X-4635500Y+2984500D01*
X-4572000Y+2921000D01*
X-4000500Y+2921000D01*
X-3873500Y+2794000D01*
X-3746500Y+2794000D01*
X-3937000Y+3619500D02*
X-3873500Y+3683000D01*
X-2857500Y+3683000D01*
X-3302000Y+2540000D02*
X-2540000Y+2540000D01*
X-2413000Y+2413000D01*
X-2222500Y+2413000D01*
X-2095500Y+2286000D01*
X-1524000Y+2286000D01*
X-2159000Y-1016000D02*
X-2159000Y-1143000D01*
X-2540000Y-1143000D01*
X-2794000Y-1397000D01*
X-3429000Y-1397000D01*
X-381000Y-635000D02*
X-1905000Y-635000D01*
X-2032000Y-762000D01*
X-2159000Y-762000D01*
X+3810000Y+381000D02*
X-635000Y+381000D01*
X-3302000Y-2032000D02*
X-2476500Y-2032000D01*
X-2349500Y-2159000D01*
X-2222500Y-2159000D01*
X-2095500Y-2286000D01*
X-1524000Y-2286000D01*
X+254000Y-2286000D02*
X+127000Y-2159000D01*
X-635000Y-2159000D01*
X-762000Y-2032000D01*
X-1524000Y-2032000D01*
X+2032000Y-2286000D02*
X+1714500Y-2286000D01*
X+1651000Y-2222500D01*
X+1651000Y-1714500D01*
X+1587500Y-1651000D01*
X+508000Y-1651000D01*
X+444500Y-1714500D01*
X+444500Y-1968500D01*
X+381000Y-2032000D01*
X+254000Y-2032000D01*
X+3810000Y-2286000D02*
X+3365500Y-2286000D01*
X+3238500Y-2159000D01*
X+2794000Y-2159000D01*
X+2667000Y-2032000D01*
X+2032000Y-2032000D01*
X+3492500Y-4826000D02*
X-3238500Y-4826000D01*
X-3302000Y-4762500D01*
X-3302000Y-4572000D01*
X-1524000Y-4572000D02*
X-2095500Y-4572000D01*
X-2222500Y-4445000D01*
X-2413000Y-4445000D01*
X-2540000Y-4318000D01*
X-3302000Y-4318000D01*
X-1524000Y-4318000D02*
X-825500Y-4318000D01*
X-698500Y-4445000D01*
X-444500Y-4445000D01*
X-317500Y-4572000D01*
X+254000Y-4572000D01*
X+2032000Y-4572000D02*
X+1651000Y-4191000D01*
X+1206500Y-4191000D01*
X+1079500Y-4318000D01*
X+254000Y-4318000D01*
X+2032000Y-4318000D02*
X+2159000Y-4191000D01*
X+3429000Y-4191000D01*
X+3810000Y-4572000D01*
X-1524000Y+2540000D02*
X-762000Y+2540000D01*
X-635000Y+2413000D01*
X+127000Y+2413000D01*
X+254000Y+2286000D01*
X+2032000Y+2286000D02*
X+1905000Y+2413000D01*
X+571500Y+2413000D01*
X+444500Y+2540000D01*
X+254000Y+2540000D01*
X+2032000Y+2540000D02*
X+2667000Y+2540000D01*
X+2794000Y+2413000D01*
X+3683000Y+2413000D01*
X+3810000Y+2286000D01*
X+4064000Y+2540000D02*
X+3810000Y+2540000D01*
X-254000Y+1651000D02*
X+317500Y+1651000D01*
X+393700Y+1574800D01*
X+393700Y+1092200D01*
X+1016000Y+1092200D01*
X+1219200Y+889000D01*
X+3937000Y+889000D01*
X-1524000Y+889000D02*
X-762000Y+889000D01*
X-1905000Y+889000D02*
X-1905000Y+190500D01*
X-1968500Y+127000D01*
X-2476500Y+127000D01*
X-2603500Y+0D01*
X-3302000Y+0D01*
X-2286000Y+1143000D02*
X-2413000Y+1143000D01*
X-2413000Y+508000D01*
X-2476500Y+444500D01*
X-2730500Y+444500D01*
X-2921000Y+254000D01*
X-3302000Y+254000D01*
X-1968500Y+1143000D02*
X-1809750Y+984250D01*
X-1809750Y+63500D01*
X-1746250Y+0D01*
X-1524000Y+0D01*
X-1524000Y+254000D02*
X-952500Y+254000D01*
X-825500Y+127000D01*
X-444500Y+127000D01*
X-317500Y+0D01*
X+254000Y+0D01*
X+254000Y+254000D02*
X+381000Y+127000D01*
X+1905000Y+127000D01*
X+2032000Y+0D01*
X+3810000Y+0D02*
X+3238500Y+0D01*
X+3111500Y+127000D01*
X+2984500Y+127000D01*
X+2857500Y+254000D01*
X+2032000Y+254000D01*
X-4889500Y-1143000D02*
X-3175000Y-1143000D01*
X-3048000Y-1016000D01*
X-2286000Y-1016000D01*
X-2603500Y+1143000D02*
X-2527300Y+1066800D01*
X-2527300Y+698500D01*
X-2590800Y+635000D01*
X-4254500Y+635000D01*
X-4794250Y+1174750D01*
X-4965700Y+1174750D01*
X-4965700Y+952500D01*
X-4889500Y+876300D01*
X-4889500Y+698500D01*
X-4953000Y+635000D01*
X-5207000Y+635000D01*
X-762000Y+1016000D02*
X-635000Y+889000D01*
X-635000Y+762000D01*
X-711200Y+685800D01*
X-889000Y+685800D01*
X-914400Y+711200D01*
X-1270000Y+711200D01*
X-1333500Y+647700D01*
X-1333500Y+381000D01*
X-1397000Y+1397000D02*
X-889000Y+1397000D01*
X-762000Y+1270000D01*
X-5016500Y+1524000D02*
X-4381500Y+1524000D01*
X-4254500Y+1397000D01*
X-3956050Y+1397000D01*
X-3956050Y+939800D01*
X-3619500Y+939800D01*
X-3416300Y+1143000D01*
X-3238500Y+1143000D01*
X-2984500Y+1397000D01*
X-2095500Y+1397000D01*
X-5016500Y+762000D02*
X-5016500Y+1270000D01*
X-1206500Y+635000D02*
X+5207000Y+635000D01*
X+254000Y-381000D02*
X-190500Y-381000D01*
X-254000Y-444500D01*
X-254000Y-825500D01*
X-317500Y-889000D01*
X-1143000Y-889000D01*
X-1397000Y-1143000D01*
X-1778000Y-1143000D01*
X-1905000Y-1270000D01*
X+4254500Y-381000D02*
X+4191000Y-317500D01*
X+1587500Y-317500D01*
X+1524000Y-381000D01*
X+508000Y-381000D01*
X+5016500Y+508000D02*
X+4254500Y+508000D01*
X-1651000Y-3556000D02*
X-2286000Y-3556000D01*
X-1651000Y+1778000D02*
X-1841500Y+1778000D01*
X-1905000Y+1714500D01*
X-1905000Y+1219200D01*
X-2032000Y+1219200D01*
X-2095500Y+1155700D01*
X-2095500Y+889000D01*
X-2032000Y+825500D01*
X+444500Y+1778000D02*
X+444500Y+1206500D01*
X+508000Y+1143000D01*
X+5207000Y+1143000D01*
X-698500Y-1524000D02*
X-1524000Y-1524000D01*
X-4953000Y-190500D02*
X-3302000Y-190500D01*
X-3238500Y-254000D01*
X-1270000Y-254000D01*
X-1143000Y-127000D01*
X-698500Y-127000D01*
X-2286000Y+381000D02*
X-2540000Y+381000D01*
X-2794000Y+127000D01*
X-4826000Y+127000D01*
X-4953000Y+254000D01*
X-1651000Y-2032000D02*
X-2032000Y-2032000D01*
X-3556000Y-4445000D02*
X-4572000Y-4445000D01*
X-2667000Y-4572000D02*
X-3175000Y-4572000D01*
X-698500Y-4572000D02*
X-1016000Y-4572000D01*
X-1143000Y-4445000D01*
X-2032000Y-4445000D01*
X-2476500Y-2159000D02*
X-4826000Y-2159000D01*
X-635000Y-2286000D02*
X-762000Y-2286000D01*
X-889000Y-2159000D01*
X-2032000Y-2159000D01*
X+127000Y-1270000D02*
X+92074Y-1304926D01*
X-473074Y-1304926D01*
X-508000Y-1270000D01*
X+508000Y+0D02*
X+571500Y+63500D01*
X+825500Y+63500D01*
X+838200Y+76200D01*
X+1162050Y+76200D01*
X+1162050Y-76200D01*
X+952500Y-76200D01*
X+825500Y-203200D01*
X-508000Y-203200D01*
X-660400Y-50800D01*
X-1206500Y-50800D01*
X-1358900Y-203200D01*
X-2984500Y-203200D01*
X-3060700Y-127000D01*
X-4191000Y-127000D01*
X-4254500Y-63500D01*
X-4953000Y-63500D01*
X-5067300Y-177800D01*
X-5067300Y-889000D01*
X-5207000Y-889000D01*
X-3556000Y-2730500D02*
X-3619500Y-2667000D01*
X-4191000Y-2667000D01*
X-4318000Y-2794000D01*
X-4699000Y-2794000D01*
X-571500Y-1397000D02*
X-1968500Y-1397000D01*
X-2032000Y-1333500D01*
X-2032000Y-952500D01*
X-2095500Y-889000D01*
X-3556000Y-889000D01*
X-381000Y-1206500D02*
X-127000Y-1206500D01*
X+63501Y-1015999D01*
X+254000Y-1016000D01*
X+254000Y-1015999D01*
X-571500Y-381000D02*
X-889000Y-381000D01*
X-939800Y-330200D01*
X-3365500Y-330200D01*
X-3441700Y-254000D01*
X-4318000Y-254000D01*
X-5016500Y-952500D01*
X-5016500Y-1397000D01*
X-5207000Y-1397000D01*
X-4762500Y-2540000D02*
X-4711700Y-2489200D01*
X+304800Y-2489200D01*
X+381000Y-2413000D01*
X+254000Y-1524000D02*
X+107950Y-1670050D01*
X-4781550Y-1670050D01*
X-5016500Y-1905000D01*
X-5207000Y-1905000D01*
X-1778000Y+1651000D02*
X-1778000Y+1143000D01*
X-1714500Y+1079500D01*
X-1714500Y+127000D01*
X+1206500Y+1651000D02*
X+825500Y+1651000D01*
X+698500Y+1778000D01*
X+4953000Y+1397000D02*
X+4699000Y+1651000D01*
X+3302000Y+1651000D01*
X-1905000Y-5270500D02*
X-1873250Y-5302250D01*
X-444500Y-5302250D01*
X-336550Y-5194300D01*
X+2222500Y-5194300D01*
X+2264833Y-5236633D01*
X+4381500Y-5236633D01*
X+4411133Y-5207000D01*
X+4572000Y-5207000D01*
X-2794000Y-4064000D02*
X-3302000Y-4064000D01*
X+1778000Y+2222500D02*
X+1841500Y+2159000D01*
X+4953000Y+2159000D01*
X+5016500Y+2095500D01*
X+5016500Y+1905000D01*
X+5207000Y+1905000D01*
X+2286000Y+2921000D02*
X+4635500Y+2921000D01*
X+5016500Y+2540000D01*
X+381000Y+2286000D02*
X+1079500Y+2286000D01*
X-4826000Y-1333500D02*
X-4635500Y-1524000D01*
X-4445000Y-1524000D01*
X-4318000Y-1397000D01*
X-3810000Y-1397000D01*
X-3683000Y-1270000D01*
X-3302000Y-1270000D01*
X-3619500Y+1968500D02*
X-4889500Y+1968500D01*
X-3111500Y+508000D02*
X-2540000Y+508000D01*
X-2476500Y+571500D01*
X-2476500Y+1206500D01*
X-2540000Y+1270000D01*
X-2921000Y+1270000D01*
X-2984500Y+1206500D01*
X-3937000Y-1778000D02*
X-3302000Y-1778000D01*
X-4889500Y+1079500D02*
X-4826000Y+1016000D01*
X-4826000Y+444500D01*
X-4762500Y+381000D01*
X-4000500Y+381000D01*
X-2159000Y+254000D02*
X-2159000Y+1206500D01*
X-2095500Y+1270000D01*
X-2032000Y+1270000D01*
X-1968500Y+1333500D01*
X-1968500Y+1841500D01*
X-2073275Y+1946275D01*
X-3524250Y+1946275D01*
X-3524250Y+2044700D01*
X-4953000Y+2044700D01*
X-5016500Y+1981200D01*
X-5016500Y+1651000D01*
X-5207000Y+1651000D01*
X-2603500Y+889000D02*
X-4127500Y+889000D01*
X-4635500Y+1397000D01*
X-5207000Y+1397000D01*
X-4889500Y+1778000D02*
X-4762500Y+1651000D01*
X-2540000Y+1651000D01*
X+4953000Y+3683000D02*
X+4953000Y+4572000D01*
X+4889500Y+4635500D01*
X-4318000Y+4635500D01*
X-4381500Y+4572000D01*
X+4826000Y+3556000D02*
X+4826000Y+4254500D01*
X+4711700Y+4368800D01*
X-3886200Y+4368800D01*
X-3937000Y+4318000D01*
X+5016500Y+3302000D02*
X+4826000Y+3302000D01*
X+4730750Y+3397250D01*
X+4730750Y+4254500D01*
X+4667250Y+4318000D01*
X-3746500Y+4318000D01*
X-3810000Y+4254500D01*
X+1016000Y+2921000D02*
X-3873500Y+2921000D01*
X+4826000Y+3175000D02*
X+3429000Y+3175000D01*
X+3175000Y+3429000D01*
X+2286000Y+3429000D01*
X-2476500Y-3238500D02*
X-2539999Y-3301999D01*
X-3302000Y-3302000D01*
X-3302000Y-3301999D01*
X-2857500Y-3683000D02*
X-2730500Y-3683000D01*
X-2603500Y-3556000D01*
X-2476500Y-3556000D01*
X+4889500Y+2032000D02*
X+4813300Y+2108200D01*
X-1478309Y+2108200D01*
X-1478309Y+2120900D01*
X-1460500Y+2138709D01*
X-1460500Y+2159000D01*
X+2349500Y+2794000D02*
X+2794000Y+2794000D01*
X+2921000Y+2667000D01*
X+4318000Y+2667000D01*
X+4572000Y+2413000D01*
X+5207000Y+2413000D01*
X+635000Y+2540000D02*
X+1079500Y+2540000D01*
X-2857500Y-3556000D02*
X-3302000Y-3556000D01*
X+2603500Y+2667000D02*
X-4635500Y+2667000D01*
X-4699000Y+2730500D01*
X-4699000Y+3937000D01*
X-5016500Y+4254500D01*
X-5016500Y+4699000D01*
X-5207000Y+4699000D01*
X+3492500Y+1270000D02*
X+3810000Y+1270000D01*
X+3809999Y+1270000D01*
X+3810000Y+1270001D01*
X+3683000Y+4445000D02*
X-4826000Y+4445000D01*
X-4902200Y+4521200D01*
X-4902200Y+4622800D01*
X-4826000Y+4699000D01*
X+4254500Y+4508500D02*
X+4191000Y+4572000D01*
X-1016000Y+4572000D01*
X-1092200Y+4495800D01*
X-4749800Y+4495800D01*
X-4826000Y+4572000D01*
X+3937000Y+762000D02*
X+4254500Y+762000D01*
X+4064000Y+2032000D02*
X-1587500Y+2032000D01*
X-1714500Y+2159000D01*
X-4953000Y+2159000D01*
X-5016500Y+2222500D01*
X-5016500Y+3937000D01*
X-5207000Y+3937000D01*
X-4635500Y-1778000D02*
X-4064000Y-1778000D01*
X-4762500Y-1587500D02*
X-4381500Y-1587500D01*
X-4318000Y-1524000D01*
X-4064000Y-1524000D01*
X+2032000Y-3301999D02*
X+2032000Y-3302000D01*
X+2159001Y-3429000D01*
X+5207000Y-3429000D01*
X-635000Y-3556000D02*
X-1524000Y-3556000D01*
X+381000Y-3175000D02*
X+190500Y-3175000D01*
X-190500Y-3556000D01*
X-381000Y-3556000D01*
X+1270000Y-1143000D02*
X+381000Y-1143000D01*
X+4445000Y-2413000D02*
X+2603500Y-2413000D01*
X+2349500Y-2159000D01*
X+1924050Y-2159000D01*
X+1924050Y-1587500D01*
X+1809750Y-1473200D01*
X+1524000Y-1473200D01*
X+1460500Y-1409700D01*
X+1460500Y-1206500D01*
X+1524000Y-1143000D01*
X+5016500Y-1524000D02*
X+4889500Y-1651000D01*
X+4445000Y-1651000D01*
X-1016000Y-254000D02*
X+952500Y-254000D01*
X+1079500Y-127000D01*
X+4762500Y-127000D01*
X+5016500Y+127000D01*
X+5207000Y+127000D01*
X-1016000Y-3810000D02*
X-1524000Y-3810000D01*
X-635000Y-4064000D02*
X-1524000Y-4064000D01*
X+2540000Y+1397000D02*
X+698500Y+1397000D01*
X+5016500Y-762000D02*
X+4699000Y-762000D01*
X+4572000Y-635000D01*
X+3175000Y-635000D01*
X+1016000Y-4191000D02*
X-190500Y-4191000D01*
X-317500Y-4064000D01*
X-508000Y-4064000D01*
X+1206500Y-254000D02*
X+1282700Y-177800D01*
X+4826000Y-177800D01*
X+5029200Y-381000D01*
X+5207000Y-381000D01*
X-381000Y-3810000D02*
X-63500Y-3810000D01*
X+63500Y-3937000D01*
X+5016500Y-3937000D01*
X+1587500Y-3175000D02*
X+1079500Y-3175000D01*
X+825500Y-3429000D01*
X+127000Y-3429000D01*
X-76200Y-3632200D01*
X-431800Y-3632200D01*
X-508000Y-3556000D01*
X+2032000Y-1905000D02*
X+2730500Y-1905000D01*
X+2984500Y-1651000D01*
X+3429000Y-1651000D01*
X+3683000Y-1905000D01*
X+5207000Y-1905000D01*
X+5207000Y-2159000D02*
X+4889500Y-2159000D01*
X+4559300Y-2489200D01*
X+762000Y-2489200D01*
X+698500Y-2552700D01*
X+698500Y-2857500D01*
X+635000Y-2921000D01*
X-190500Y-2921000D01*
X-254000Y-2984500D01*
X-254000Y-3238500D01*
X-317500Y-3302000D01*
X-508000Y-3302000D01*
X+5207000Y-2413000D02*
X+5016500Y-2413000D01*
X+4889500Y-2540000D01*
X+825500Y-2540000D01*
X+762000Y-2603500D01*
X+762000Y-3175000D01*
X+635001Y-3301999D01*
X+254000Y-3302000D01*
X+254000Y-3301999D01*
X+1143000Y-2667000D02*
X+1206500Y-2603500D01*
X+3365500Y-2603500D01*
X+3429000Y-2667000D01*
X+5207000Y-2667000D01*
X+1143000Y-3556000D02*
X+254000Y-3556000D01*
X+1079500Y-3810000D02*
X+254000Y-3810000D01*
X+1397000Y-254000D02*
X+4572000Y-254000D01*
X+4953000Y-635000D01*
X+5207000Y-635000D01*
X+5016500Y-889000D02*
X+2857500Y-889000D01*
X+2730500Y-762000D01*
X+2476500Y-762000D01*
X+2349500Y-889000D01*
X+508000Y-889000D01*
X+1714500Y-1143000D02*
X+2095500Y-1143000D01*
X+2540000Y-1587500D01*
X+2667000Y-1587500D01*
X+2730500Y-1524000D01*
X+2730500Y-1206500D01*
X+2794000Y-1143000D01*
X+5207000Y-1143000D01*
X+1587500Y-1397000D02*
X+2159000Y-1397000D01*
X+2413000Y-1651000D01*
X+2730500Y-1651000D01*
X+2794000Y-1587500D01*
X+2794000Y-1460500D01*
X+2857500Y-1397000D01*
X+5207000Y-1397000D01*
X+4064000Y-3683000D02*
X+1905000Y-3683000D01*
X+1778000Y-3556000D01*
X+1270000Y-3556000D01*
X+4064000Y-2921000D02*
X+5207000Y-2921000D01*
X+5207000Y-3175000D02*
X+1905000Y-3175000D01*
X+1778000Y-3302000D01*
X+1270000Y-3302000D01*
X-4508500Y-1270000D02*
X-4064000Y-1270000D01*
X-4889500Y+2730500D02*
X-4889500Y+2349500D01*
X-4826000Y+2286000D01*
X-4508500Y+2286000D01*
X-4508500Y-1397000D02*
X-4667250Y-1238250D01*
X-4965700Y-1238250D01*
X-4965700Y-1079500D01*
X-4902200Y-1016000D01*
X-4064000Y-1016000D01*
X-4889500Y+2921000D02*
X-4889500Y+3810000D01*
X-3429000Y+2032000D02*
X-3492500Y+2095500D01*
X-5067300Y+2095500D01*
X-5067300Y+2667000D01*
X-5207000Y+2667000D01*
X+3810000Y-4318000D02*
X+4953000Y-4318000D01*
X+5016500Y-4381500D01*
X+5016500Y-5207000D01*
X+5207000Y-5207000D01*
X+3302000Y+1841500D02*
X+3175000Y+1968500D01*
X-571500Y+1968500D01*
X-635000Y+1905000D01*
X-1333500Y+4191000D02*
X-1270000Y+4254500D01*
X+3111500Y+4254500D01*
X+3175000Y+4191000D01*
X-1524000Y+4064000D02*
X-1651000Y+4191000D01*
X-3175000Y+4191000D01*
X-3302000Y+4064000D01*
X-635000Y+1905000D02*
X-635000Y+1714500D01*
X-571500Y+1651000D01*
X-444500Y+1651000D01*
X-317500Y+1778000D01*
X+254000Y+1778000D01*
X-889000Y+1968500D02*
X-698500Y+1968500D01*
X-635000Y+1905000D01*
X-1524000Y+4064000D02*
X-1333500Y+4064000D01*
X-1206500Y+3937000D01*
X-254000Y+3937000D01*
X-127000Y+4064000D01*
X+254000Y+4064000D01*
X-2222500Y-635000D02*
X-2476500Y-635000D01*
X-2603500Y-508000D01*
X-3302000Y-508000D01*
X-1524000Y-508000D02*
X-1968500Y-508000D01*
X-2095500Y-635000D01*
X-2222500Y-635000D01*
X+2032000Y-508000D02*
X+2794000Y-508000D01*
X-1524000Y+1778000D02*
X-1333500Y+1968500D01*
X-889000Y+1968500D01*
X-1524000Y-2794000D02*
X-762000Y-2794000D01*
X-635000Y-2921000D01*
X-444500Y-2921000D01*
X-317500Y-2794000D01*
X+254000Y-2794000D01*
X+2032000Y-2794000D02*
X+2667000Y-2794000D01*
X+2794000Y-2921000D01*
X+3683000Y-2921000D01*
X+3810000Y-2794000D01*
X-1524000Y+1778000D02*
X-1714500Y+1968500D01*
X-1841500Y+1968500D01*
X-2413000Y-2286000D02*
X-3175000Y-2286000D01*
X+3175000Y-508000D02*
X+3810000Y-508000D01*
X+3302000Y+1841500D02*
X+3175000Y+1714500D01*
X+3175000Y+1524000D01*
X+3302000Y+1841500D02*
X+3365500Y+1778000D01*
X+3810000Y+1778000D01*
X-1016000Y+127000D02*
X-1397000Y+127000D01*
X-1841500Y+1968500D02*
X-1905000Y+2032000D01*
X-3302000Y+2032000D01*
X+3556000Y+4064000D02*
X+3810000Y+4064000D01*
X-1524000Y+4064000D02*
X-1397000Y+4191000D01*
X-1333500Y+4191000D01*
X+3175000Y+4191000D02*
X+3175000Y+4000500D01*
X+3111500Y+3937000D01*
X+2921000Y+3937000D01*
X+2794000Y+4064000D01*
X+2032000Y+4064000D01*
X+3556000Y+4064000D02*
X+3365500Y+4254500D01*
X+3238500Y+4254500D01*
X+3175000Y+4191000D01*
X-1333500Y-1270000D02*
X-1187450Y-1123950D01*
X-254000Y-1123950D01*
X-190500Y-1060450D01*
X-190500Y-571500D01*
X-127000Y-508000D01*
X+254000Y-508000D01*
D11*
X-698500Y+3556000D03*
X-1968500Y+3302000D03*
X-1270000Y+4762500D03*
X-3175000Y+3302000D03*
X-4508500Y+4699000D03*
X-4508500Y+3556000D03*
X-2032000Y+4762500D03*
X+4508500Y-1778000D03*
X+3175000Y-4699000D03*
X-3175000Y-4699000D03*
X-3429000Y-4699000D03*
X-5016500Y-4699000D03*
X+2794000Y-4953000D03*
X+2540000Y-1460500D03*
X+2540000Y-5143500D03*
X-4826000Y-5143500D03*
X+2667000Y+3175000D03*
X+2921000Y+3048000D03*
X-63500Y+3429000D03*
X-1270000Y+3429000D03*
X+127000Y+3048000D03*
X-381000Y+3048000D03*
X+254000Y+4762500D03*
X+889000Y+3429000D03*
X+1143000Y+4064000D03*
X+381000Y+4064000D03*
X+2159000Y+3556000D03*
X+4318000Y-5143500D03*
X-4953000Y-5270500D03*
X-3048000Y-5270500D03*
X-2476500Y-4064000D03*
X-3175000Y-3810000D03*
X-3111500Y-1778000D03*
X-2476500Y-1778000D03*
X-2476500Y-1460500D03*
X-3175000Y-1524000D03*
X-2159000Y-1397000D03*
X-2603500Y-1587500D03*
X-2286000Y-5270500D03*
X-2032000Y-5270500D03*
X-1270000Y+1651000D03*
X-1651000Y+1270000D03*
X-4508500Y+3175000D03*
X+1016000Y+3175000D03*
X+2032000Y+4762500D03*
X+3429000Y+4762500D03*
X+4762500Y+3048000D03*
X+4762500Y-4572000D03*
X-4318000Y-4826000D03*
X+4635500Y+2794000D03*
X+4635500Y-4889500D03*
X-4572000Y-4953000D03*
X-4064000Y-5270500D03*
X-3810000Y+762000D03*
X-2603500Y+1016000D03*
X-1206500Y-4572000D03*
X-952500Y-4445000D03*
X-889000Y+1270000D03*
X-1397000Y+1270000D03*
X-1016000Y+1016000D03*
X-762000Y+762000D03*
X-190500Y+1016000D03*
X+127000Y+508000D03*
X+127000Y+762000D03*
X-254000Y+762000D03*
X+571500Y+889000D03*
X-508000Y+889000D03*
X+317500Y+1143000D03*
X-127000Y+1270000D03*
X+2921000Y-4953000D03*
X+3238500Y-4953000D03*
X+2286000Y-4318000D03*
X+3937000Y-4826000D03*
X+4889500Y+127000D03*
X+3238500Y+254000D03*
X+5016500Y-4127500D03*
X+4191000Y-4127500D03*
X+889000Y+1016000D03*
X+952500Y+762000D03*
X+1079500Y+508000D03*
X+4762500Y-4889500D03*
X+4635500Y+3429000D03*
X+3302000Y+3429000D03*
X+2730500Y+2286000D03*
X+2159000Y+2286000D03*
X+2667000Y-889000D03*
X+2540000Y-1333500D03*
X+2921000Y+1016000D03*
X+2159000Y+1016000D03*
X+1524000Y-635000D03*
X+381000Y-635000D03*
X+127000Y-4064000D03*
X-1651000Y-3937000D03*
X-1651000Y-4318000D03*
X-4699000Y-4191000D03*
X+63500Y-3048000D03*
X+63500Y-889000D03*
X-4826000Y-5270500D03*
X-508000Y-5207000D03*
X-254000Y-5270500D03*
X+2032000Y-5270500D03*
X+2032000Y-4445000D03*
X+2857500Y-4445000D03*
X+1714500Y-4445000D03*
X+1587500Y-3683000D03*
X-5016500Y-3937000D03*
X-381000Y-2032000D03*
X-381000Y-3175000D03*
X-4889500Y-3556000D03*
X+127000Y-1397000D03*
X+127000Y-2413000D03*
X-5016500Y-2540000D03*
X+3937000Y-4191000D03*
X+381000Y-4699000D03*
X-2159000Y+1651000D03*
X-3175000Y+1778000D03*
X-1714500Y-825500D03*
X+3937000Y-2159000D03*
X+2984500Y-1905000D03*
X-1714500Y-4699000D03*
X+3175000Y-762000D03*
X+3683000Y-762000D03*
X-2413000Y-2794000D03*
X-3175000Y-2794000D03*
X-3492500Y+2286000D03*
X-3937000Y+2286000D03*
X+1079500Y+0D03*
X-3175000Y+2286000D03*
X+1841500Y-2413000D03*
X-4064000Y-381000D03*
X+63500Y-635000D03*
X+254000Y-127000D03*
X-3873500Y-762000D03*
X-3937000Y-3048000D03*
X+3810000Y-4445000D03*
X+127000Y-127000D03*
X+0Y+1397000D03*
X+3556000Y+3683000D03*
X-1714500Y-127000D03*
X+1587500Y+3683000D03*
X-4889500Y-2540000D03*
X+1841500Y-2159000D03*
X+1968500Y-2413000D03*
X+571500Y+1397000D03*
X+952500Y+1524000D03*
X-381000Y+254000D03*
X-3873500Y+1016000D03*
X-1270000Y+2286000D03*
X-2032000Y+2413000D03*
X-2794000Y+2413000D03*
X-3048000Y+2349500D03*
X+508000Y-762000D03*
X-2032000Y-2794000D03*
X-3873500Y-635000D03*
X+127000Y+127000D03*
X+127000Y+1397000D03*
X-3048000Y+1524000D03*
X-4699000Y+4699000D03*
X-4826000Y+3937000D03*
X+1143000Y-2413000D03*
X-1143000Y+4127500D03*
X-1714500Y+4064000D03*
X-3746500Y+2794000D03*
X-2857500Y+3683000D03*
X-3556000Y-381000D03*
X-3429000Y-1397000D03*
X-2159000Y-1016000D03*
X-2159000Y-762000D03*
X-381000Y-635000D03*
X-635000Y+381000D03*
X+3810000Y+381000D03*
X+3492500Y-4826000D03*
X+4064000Y+2540000D03*
X+3937000Y+889000D03*
X-254000Y+1651000D03*
X-762000Y+889000D03*
X-1524000Y+889000D03*
X-1905000Y+889000D03*
X-2286000Y+1143000D03*
X-1968500Y+1143000D03*
X-4889500Y-1143000D03*
X-2603500Y+1143000D03*
X-1333500Y+381000D03*
X-762000Y+1016000D03*
X-762000Y+1270000D03*
X-1397000Y+1397000D03*
X-2095500Y+1397000D03*
X-5016500Y+1524000D03*
X-5016500Y+1270000D03*
X-5016500Y+762000D03*
X-1206500Y+635000D03*
X-1905000Y-1270000D03*
X+254000Y-381000D03*
X+508000Y-381000D03*
X+4254500Y-381000D03*
X+4254500Y+508000D03*
X+5016500Y+508000D03*
X-1651000Y-3556000D03*
X-2032000Y+825500D03*
X-1651000Y+1778000D03*
X+444500Y+1778000D03*
X-698500Y-1524000D03*
X-698500Y-127000D03*
X-4953000Y-190500D03*
X-4953000Y+254000D03*
X-2286000Y+381000D03*
X-2032000Y-2032000D03*
X-1651000Y-2032000D03*
X-4572000Y-4445000D03*
X-3556000Y-4445000D03*
X-3175000Y-4572000D03*
X-2667000Y-4572000D03*
X-2032000Y-4445000D03*
X-698500Y-4572000D03*
X-4826000Y-2159000D03*
X-2476500Y-2159000D03*
X-2032000Y-2159000D03*
X-635000Y-2286000D03*
X+127000Y-1270000D03*
X+508000Y+0D03*
X-4699000Y-2794000D03*
X-3556000Y-2730500D03*
X-3556000Y-889000D03*
X-571500Y-1397000D03*
X-381000Y-1206500D03*
X-571500Y-381000D03*
X+381000Y-2413000D03*
X-4762500Y-2540000D03*
X-1714500Y+127000D03*
X-1778000Y+1651000D03*
X+698500Y+1778000D03*
X+1206500Y+1651000D03*
X+3302000Y+1651000D03*
X+4953000Y+1397000D03*
X+4572000Y-5207000D03*
X-1905000Y-5270500D03*
X-2794000Y-4064000D03*
X+1778000Y+2222500D03*
X+5016500Y+2540000D03*
X+2286000Y+2921000D03*
X+1079500Y+2286000D03*
X+381000Y+2286000D03*
X-4826000Y-1333500D03*
X-4889500Y+1968500D03*
X-3619500Y+1968500D03*
X-2984500Y+1206500D03*
X-3111500Y+508000D03*
X-3937000Y-1778000D03*
X-4000500Y+381000D03*
X-4889500Y+1079500D03*
X-2159000Y+254000D03*
X-2603500Y+889000D03*
X-2540000Y+1651000D03*
X-4889500Y+1778000D03*
X-4381500Y+4572000D03*
X+4953000Y+3683000D03*
X-3937000Y+4318000D03*
X+4826000Y+3556000D03*
X-3810000Y+4254500D03*
X+5016500Y+3302000D03*
X-3873500Y+2921000D03*
X+1016000Y+2921000D03*
X+2286000Y+3429000D03*
X+4826000Y+3175000D03*
X-2476500Y-3238500D03*
X-2476500Y-3556000D03*
X-2857500Y-3683000D03*
X-1460500Y+2159000D03*
X+4889500Y+2032000D03*
X+2349500Y+2794000D03*
X+1079500Y+2540000D03*
X+635000Y+2540000D03*
X-2857500Y-3556000D03*
X+2603500Y+2667000D03*
X+3492500Y+1270000D03*
X-4826000Y+4699000D03*
X+3683000Y+4445000D03*
X-4826000Y+4572000D03*
X+4254500Y+4508500D03*
X+4254500Y+762000D03*
X+3937000Y+762000D03*
X+4064000Y+2032000D03*
X-4635500Y-1778000D03*
X-4762500Y-1587500D03*
X-635000Y-3556000D03*
X-381000Y-3556000D03*
X+381000Y-3175000D03*
X+381000Y-1143000D03*
X+1270000Y-1143000D03*
X+1524000Y-1143000D03*
X+4445000Y-2413000D03*
X+4445000Y-1651000D03*
X+5016500Y-1524000D03*
X-1016000Y-254000D03*
X-1016000Y-3810000D03*
X-635000Y-4064000D03*
X+698500Y+1397000D03*
X+2540000Y+1397000D03*
X+3175000Y-635000D03*
X+5016500Y-762000D03*
X+1016000Y-4191000D03*
X+1206500Y-254000D03*
X+5016500Y-3937000D03*
X-381000Y-3810000D03*
X+1587500Y-3175000D03*
X+2032000Y-1905000D03*
X+1143000Y-2667000D03*
X+1143000Y-3556000D03*
X+1079500Y-3810000D03*
X+1397000Y-254000D03*
X+508000Y-889000D03*
X+5016500Y-889000D03*
X+1714500Y-1143000D03*
X+1587500Y-1397000D03*
X+4064000Y-3683000D03*
X+4064000Y-2921000D03*
X-4508500Y-1270000D03*
X-4508500Y+2286000D03*
X-4889500Y+2730500D03*
X-4508500Y-1397000D03*
X-4889500Y+3810000D03*
X-4889500Y+2921000D03*
X-3429000Y+2032000D03*
X+2794000Y-508000D03*
X-3175000Y-2286000D03*
X-2413000Y-2286000D03*
X+3175000Y-508000D03*
X+3175000Y+1524000D03*
X-1397000Y+127000D03*
X-1016000Y+127000D03*
X-3302000Y+2032000D03*
X-1333500Y-1270000D03*
X+3556000Y+4064000D03*
X-2222500Y-635000D03*
D12*
X-2921000Y+4953000D03*
X-2667000Y+4953000D03*
X-2413000Y+4953000D03*
X-2159000Y+4953000D03*
X-1905000Y+4953000D03*
X-1651000Y+4953000D03*
X-1397000Y+4953000D03*
X-1143000Y+4953000D03*
X-889000Y+4953000D03*
X-635000Y+4953000D03*
X-381000Y+4953000D03*
X-127000Y+4953000D03*
X+127000Y+4953000D03*
X+381000Y+4953000D03*
X+635000Y+4953000D03*
X+889000Y+4953000D03*
X+1143000Y+4953000D03*
X+1397000Y+4953000D03*
X+1651000Y+4953000D03*
X+1905000Y+4953000D03*
X+2159000Y+4953000D03*
X+2413000Y+4953000D03*
X+2667000Y+4953000D03*
X+2921000Y+4953000D03*
X+3175000Y+4953000D03*
X+3429000Y+4953000D03*
X+3683000Y+4953000D03*
X+3937000Y+4953000D03*
X+4191000Y+4953000D03*
X+4445000Y+4953000D03*
X+4699000Y+4953000D03*
X+4953000Y+4953000D03*
X-4953000Y+4953000D03*
X-4699000Y+4953000D03*
X-4445000Y+4953000D03*
X-4191000Y+4953000D03*
X-3937000Y+4953000D03*
X-3683000Y+4953000D03*
X-3429000Y+4953000D03*
X-3175000Y+4953000D03*
X-4953000Y-5461000D03*
X-4699000Y-5461000D03*
X-4445000Y-5461000D03*
X-4191000Y-5461000D03*
X-3937000Y-5461000D03*
X-3683000Y-5461000D03*
X-3429000Y-5461000D03*
X-3175000Y-5461000D03*
X-2921000Y-5461000D03*
X-2667000Y-5461000D03*
X-2413000Y-5461000D03*
X-2159000Y-5461000D03*
X-1905000Y-5461000D03*
X-1651000Y-5461000D03*
X-1397000Y-5461000D03*
X-1143000Y-5461000D03*
X-889000Y-5461000D03*
X-635000Y-5461000D03*
X-381000Y-5461000D03*
X-127000Y-5461000D03*
X+127000Y-5461000D03*
X+381000Y-5461000D03*
X+635000Y-5461000D03*
X+889000Y-5461000D03*
X+1143000Y-5461000D03*
X+1397000Y-5461000D03*
X+1651000Y-5461000D03*
X+1905000Y-5461000D03*
X+2159000Y-5461000D03*
X+2413000Y-5461000D03*
X+2667000Y-5461000D03*
X+2921000Y-5461000D03*
X+3175000Y-5461000D03*
X+3429000Y-5461000D03*
X+3683000Y-5461000D03*
X+3937000Y-5461000D03*
X+4191000Y-5461000D03*
X+4445000Y-5461000D03*
X+4699000Y-5461000D03*
X+4953000Y-5461000D03*
X-5207000Y+4699000D03*
X-5207000Y+4445000D03*
X-5207000Y+4191000D03*
X-5207000Y+3937000D03*
X-5207000Y+3683000D03*
X-5207000Y+3429000D03*
X-5207000Y+3175000D03*
X-5207000Y+2921000D03*
X-5207000Y+2667000D03*
X-5207000Y+2413000D03*
X-5207000Y+2159000D03*
X-5207000Y+1905000D03*
X-5207000Y+1651000D03*
X-5207000Y+1397000D03*
X-5207000Y+1143000D03*
X-5207000Y+889000D03*
X-5207000Y+635000D03*
X-5207000Y+381000D03*
X-5207000Y+127000D03*
X-5207000Y-127000D03*
X-5207000Y-381000D03*
X-5207000Y-635000D03*
X-5207000Y-889000D03*
X-5207000Y-1143000D03*
X-5207000Y-1397000D03*
X-5207000Y-1651000D03*
X-5207000Y-1905000D03*
X-5207000Y-2159000D03*
X-5207000Y-2413000D03*
X-5207000Y-2667000D03*
X-5207000Y-2921000D03*
X-5207000Y-3175000D03*
X-5207000Y-3429000D03*
X-5207000Y-3683000D03*
X-5207000Y-3937000D03*
X-5207000Y-4191000D03*
X-5207000Y-4445000D03*
X-5207000Y-4699000D03*
X-5207000Y-4953000D03*
X-5207000Y-5207000D03*
X+5207000Y+4699000D03*
X+5207000Y+4445000D03*
X+5207000Y+4191000D03*
X+5207000Y+3937000D03*
X+5207000Y+3683000D03*
X+5207000Y+3429000D03*
X+5207000Y+3175000D03*
X+5207000Y+2921000D03*
X+5207000Y+2667000D03*
X+5207000Y+2413000D03*
X+5207000Y+2159000D03*
X+5207000Y+1905000D03*
X+5207000Y+1651000D03*
X+5207000Y+1397000D03*
X+5207000Y+1143000D03*
X+5207000Y+889000D03*
X+5207000Y+635000D03*
X+5207000Y+381000D03*
X+5207000Y+127000D03*
X+5207000Y-127000D03*
X+5207000Y-381000D03*
X+5207000Y-635000D03*
X+5207000Y-889000D03*
X+5207000Y-1143000D03*
X+5207000Y-1397000D03*
X+5207000Y-1651000D03*
X+5207000Y-1905000D03*
X+5207000Y-2159000D03*
X+5207000Y-2413000D03*
X+5207000Y-2667000D03*
X+5207000Y-2921000D03*
X+5207000Y-3175000D03*
X+5207000Y-3429000D03*
X+5207000Y-3683000D03*
X+5207000Y-3937000D03*
X+5207000Y-4191000D03*
X+5207000Y-4445000D03*
X+5207000Y-4699000D03*
X+5207000Y-4953000D03*
X+5207000Y-5207000D03*
D13*
X-4064000Y+4064000D03*
D14*
X-4064000Y+3810000D03*
X-4064000Y+3556000D03*
X-4064000Y+3302000D03*
X-4064000Y+3048000D03*
X-4064000Y+2794000D03*
X-4064000Y+2540000D03*
X-4064000Y+2286000D03*
X-3302000Y+2286000D03*
X-3302000Y+2540000D03*
X-3302000Y+2794000D03*
X-3302000Y+3048000D03*
X-3302000Y+3302000D03*
X-3302000Y+3556000D03*
X-3302000Y+3810000D03*
X-3302000Y+4064000D03*
D13*
X-2286000Y+4064000D03*
D14*
X-2286000Y+3810000D03*
X-2286000Y+3556000D03*
X-2286000Y+3302000D03*
X-2286000Y+3048000D03*
X-2286000Y+2794000D03*
X-2286000Y+2540000D03*
X-2286000Y+2286000D03*
X-1524000Y+2286000D03*
X-1524000Y+2540000D03*
X-1524000Y+2794000D03*
X-1524000Y+3048000D03*
X-1524000Y+3302000D03*
X-1524000Y+3556000D03*
X-1524000Y+3810000D03*
X-1524000Y+4064000D03*
D13*
X-508000Y+4064000D03*
D14*
X-508000Y+3810000D03*
X-508000Y+3556000D03*
X-508000Y+3302000D03*
X-508000Y+3048000D03*
X-508000Y+2794000D03*
X-508000Y+2540000D03*
X-508000Y+2286000D03*
X+254000Y+2286000D03*
X+254000Y+2540000D03*
X+254000Y+2794000D03*
X+254000Y+3048000D03*
X+254000Y+3302000D03*
X+254000Y+3556000D03*
X+254000Y+3810000D03*
X+254000Y+4064000D03*
D13*
X+1270000Y+4064000D03*
D14*
X+1270000Y+3810000D03*
X+1270000Y+3556000D03*
X+1270000Y+3302000D03*
X+1270000Y+3048000D03*
X+1270000Y+2794000D03*
X+1270000Y+2540000D03*
X+1270000Y+2286000D03*
X+2032000Y+2286000D03*
X+2032000Y+2540000D03*
X+2032000Y+2794000D03*
X+2032000Y+3048000D03*
X+2032000Y+3302000D03*
X+2032000Y+3556000D03*
X+2032000Y+3810000D03*
X+2032000Y+4064000D03*
D13*
X-4064000Y+1778000D03*
D14*
X-4064000Y+1524000D03*
X-4064000Y+1270000D03*
X-4064000Y+1016000D03*
X-4064000Y+762000D03*
X-4064000Y+508000D03*
X-4064000Y+254000D03*
X-4064000Y+0D03*
X-3302000Y+0D03*
X-3302000Y+254000D03*
X-3302000Y+508000D03*
X-3302000Y+762000D03*
X-3302000Y+1016000D03*
X-3302000Y+1270000D03*
X-3302000Y+1524000D03*
X-3302000Y+1778000D03*
D13*
X-2286000Y+1778000D03*
D14*
X-2286000Y+1524000D03*
X-2286000Y+1270000D03*
X-2286000Y+1016000D03*
X-2286000Y+762000D03*
X-2286000Y+508000D03*
X-2286000Y+254000D03*
X-2286000Y+0D03*
X-1524000Y+0D03*
X-1524000Y+254000D03*
X-1524000Y+508000D03*
X-1524000Y+762000D03*
X-1524000Y+1016000D03*
X-1524000Y+1270000D03*
X-1524000Y+1524000D03*
X-1524000Y+1778000D03*
D13*
X-508000Y+1778000D03*
D14*
X-508000Y+1524000D03*
X-508000Y+1270000D03*
X-508000Y+1016000D03*
X-508000Y+762000D03*
X-508000Y+508000D03*
X-508000Y+254000D03*
X-508000Y+0D03*
X+254000Y+0D03*
X+254000Y+254000D03*
X+254000Y+508000D03*
X+254000Y+762000D03*
X+254000Y+1016000D03*
X+254000Y+1270000D03*
X+254000Y+1524000D03*
X+254000Y+1778000D03*
D13*
X+3048000Y+1778000D03*
D14*
X+3048000Y+1524000D03*
X+3048000Y+1270000D03*
X+3048000Y+1016000D03*
X+3048000Y+762000D03*
X+3048000Y+508000D03*
X+3048000Y+254000D03*
X+3048000Y+0D03*
X+3810000Y+0D03*
X+3810000Y+254000D03*
X+3810000Y+508000D03*
X+3810000Y+762000D03*
X+3810000Y+1016000D03*
X+3810000Y+1270000D03*
X+3810000Y+1524000D03*
X+3810000Y+1778000D03*
D13*
X-4064000Y-508000D03*
D14*
X-4064000Y-762000D03*
X-4064000Y-1016000D03*
X-4064000Y-1270000D03*
X-4064000Y-1524000D03*
X-4064000Y-1778000D03*
X-4064000Y-2032000D03*
X-4064000Y-2286000D03*
X-3302000Y-2286000D03*
X-3302000Y-2032000D03*
X-3302000Y-1778000D03*
X-3302000Y-1524000D03*
X-3302000Y-1270000D03*
X-3302000Y-1016000D03*
X-3302000Y-762000D03*
X-3302000Y-508000D03*
D13*
X-2286000Y-508000D03*
D14*
X-2286000Y-762000D03*
X-2286000Y-1016000D03*
X-2286000Y-1270000D03*
X-2286000Y-1524000D03*
X-2286000Y-1778000D03*
X-2286000Y-2032000D03*
X-2286000Y-2286000D03*
X-1524000Y-2286000D03*
X-1524000Y-2032000D03*
X-1524000Y-1778000D03*
X-1524000Y-1524000D03*
X-1524000Y-1270000D03*
X-1524000Y-1016000D03*
X-1524000Y-762000D03*
X-1524000Y-508000D03*
D13*
X+1270000Y-508000D03*
D14*
X+1270000Y-762000D03*
X+1270000Y-1016000D03*
X+1270000Y-1270000D03*
X+1270000Y-1524000D03*
X+1270000Y-1778000D03*
X+1270000Y-2032000D03*
X+1270000Y-2286000D03*
X+2032000Y-2286000D03*
X+2032000Y-2032000D03*
X+2032000Y-1778000D03*
X+2032000Y-1524000D03*
X+2032000Y-1270000D03*
X+2032000Y-1016000D03*
X+2032000Y-762000D03*
X+2032000Y-508000D03*
D13*
X+3048000Y-508000D03*
D14*
X+3048000Y-762000D03*
X+3048000Y-1016000D03*
X+3048000Y-1270000D03*
X+3048000Y-1524000D03*
X+3048000Y-1778000D03*
X+3048000Y-2032000D03*
X+3048000Y-2286000D03*
X+3810000Y-2286000D03*
X+3810000Y-2032000D03*
X+3810000Y-1778000D03*
X+3810000Y-1524000D03*
X+3810000Y-1270000D03*
X+3810000Y-1016000D03*
X+3810000Y-762000D03*
X+3810000Y-508000D03*
D13*
X-4064000Y-2794000D03*
D14*
X-4064000Y-3048000D03*
X-4064000Y-3302000D03*
X-4064000Y-3556000D03*
X-4064000Y-3810000D03*
X-4064000Y-4064000D03*
X-4064000Y-4318000D03*
X-4064000Y-4572000D03*
X-3302000Y-4572000D03*
X-3302000Y-4318000D03*
X-3302000Y-4064000D03*
X-3302000Y-3810000D03*
X-3302000Y-3556000D03*
X-3302000Y-3302000D03*
X-3302000Y-3048000D03*
X-3302000Y-2794000D03*
D13*
X-508000Y-2794000D03*
D14*
X-508000Y-3048000D03*
X-508000Y-3302000D03*
X-508000Y-3556000D03*
X-508000Y-3810000D03*
X-508000Y-4064000D03*
X-508000Y-4318000D03*
X-508000Y-4572000D03*
X+254000Y-4572000D03*
X+254000Y-4318000D03*
X+254000Y-4064000D03*
X+254000Y-3810000D03*
X+254000Y-3556000D03*
X+254000Y-3302000D03*
X+254000Y-3048000D03*
X+254000Y-2794000D03*
D13*
X+1270000Y-2794000D03*
D14*
X+1270000Y-3048000D03*
X+1270000Y-3302000D03*
X+1270000Y-3556000D03*
X+1270000Y-3810000D03*
X+1270000Y-4064000D03*
X+1270000Y-4318000D03*
X+1270000Y-4572000D03*
X+2032000Y-4572000D03*
X+2032000Y-4318000D03*
X+2032000Y-4064000D03*
X+2032000Y-3810000D03*
X+2032000Y-3556000D03*
X+2032000Y-3302000D03*
X+2032000Y-3048000D03*
X+2032000Y-2794000D03*
D13*
X+3048000Y-2794000D03*
D14*
X+3048000Y-3048000D03*
X+3048000Y-3302000D03*
X+3048000Y-3556000D03*
X+3048000Y-3810000D03*
X+3048000Y-4064000D03*
X+3048000Y-4318000D03*
X+3048000Y-4572000D03*
X+3810000Y-4572000D03*
X+3810000Y-4318000D03*
X+3810000Y-4064000D03*
X+3810000Y-3810000D03*
X+3810000Y-3556000D03*
X+3810000Y-3302000D03*
X+3810000Y-3048000D03*
X+3810000Y-2794000D03*
D13*
X+3048000Y+4064000D03*
D14*
X+3048000Y+3810000D03*
X+3048000Y+3556000D03*
X+3048000Y+3302000D03*
X+3048000Y+3048000D03*
X+3048000Y+2794000D03*
X+3048000Y+2540000D03*
X+3048000Y+2286000D03*
X+3810000Y+2286000D03*
X+3810000Y+2540000D03*
X+3810000Y+2794000D03*
X+3810000Y+3048000D03*
X+3810000Y+3302000D03*
X+3810000Y+3556000D03*
X+3810000Y+3810000D03*
X+3810000Y+4064000D03*
D13*
X+1270000Y+1778000D03*
D14*
X+1270000Y+1524000D03*
X+1270000Y+1270000D03*
X+1270000Y+1016000D03*
X+1270000Y+762000D03*
X+1270000Y+508000D03*
X+1270000Y+254000D03*
X+1270000Y+0D03*
X+2032000Y+0D03*
X+2032000Y+254000D03*
X+2032000Y+508000D03*
X+2032000Y+762000D03*
X+2032000Y+1016000D03*
X+2032000Y+1270000D03*
X+2032000Y+1524000D03*
X+2032000Y+1778000D03*
D13*
X-508000Y-508000D03*
D14*
X-508000Y-762000D03*
X-508000Y-1016000D03*
X-508000Y-1270000D03*
X-508000Y-1524000D03*
X-508000Y-1778000D03*
X-508000Y-2032000D03*
X-508000Y-2286000D03*
X+254000Y-2286000D03*
X+254000Y-2032000D03*
X+254000Y-1778000D03*
X+254000Y-1524000D03*
X+254000Y-1270000D03*
X+254000Y-1016000D03*
X+254000Y-762000D03*
X+254000Y-508000D03*
D13*
X-2286000Y-2794000D03*
D14*
X-2286000Y-3048000D03*
X-2286000Y-3302000D03*
X-2286000Y-3556000D03*
X-2286000Y-3810000D03*
X-2286000Y-4064000D03*
X-2286000Y-4318000D03*
X-2286000Y-4572000D03*
X-1524000Y-4572000D03*
X-1524000Y-4318000D03*
X-1524000Y-4064000D03*
X-1524000Y-3810000D03*
X-1524000Y-3556000D03*
X-1524000Y-3302000D03*
X-1524000Y-3048000D03*
X-1524000Y-2794000D03*
D15*
X-5461000Y-5715000D02*
X+5461000Y-5715000D01*
X+5461000Y+5207000D01*
X-5461000Y+5207000D01*
X-5461000Y-5715000D01*
M02*
