G04 PROTEUS GERBER X2 FILE*
%TF.GenerationSoftware,Labcenter,Proteus,8.13-SP0-Build31525*%
%TF.CreationDate,2022-07-18T17:11:33+00:00*%
%TF.FileFunction,Copper,L2,Bot*%
%TF.FilePolarity,Positive*%
%TF.Part,Single*%
%TF.SameCoordinates,{576ea621-ad59-411c-95cb-525281b3a317}*%
%FSLAX45Y45*%
%MOMM*%
G01*
%TA.AperFunction,Conductor*%
%ADD10C,0.254000*%
%TA.AperFunction,ViaPad*%
%ADD11C,0.762000*%
%TA.AperFunction,ComponentPad*%
%ADD12R,2.032000X2.032000*%
%TA.AperFunction,ComponentPad*%
%ADD13R,1.270000X1.270000*%
%ADD14C,1.270000*%
%TA.AperFunction,Profile*%
%ADD15C,0.203200*%
%TD.AperFunction*%
D10*
X-4064000Y+2794000D02*
X-4191000Y+2921000D01*
X-4191000Y+3111500D01*
X-4127500Y+3175000D01*
X-3746500Y+3175000D01*
X-3683000Y+3238500D01*
X-3683000Y+4572000D01*
X-3619500Y+4635500D01*
X-2984500Y+4635500D01*
X-2921000Y+4699000D01*
X-2921000Y+4953000D01*
X-698500Y+3556000D02*
X-698500Y+3585868D01*
X-706732Y+3594100D01*
X-706732Y+3683000D01*
X-444500Y+3683000D01*
X-381000Y+3746500D01*
X-381000Y+4953000D01*
X-1968500Y+3302000D02*
X-2286000Y+3302000D01*
X-1270000Y+4762500D02*
X-1270000Y+4381500D01*
X-1333500Y+4318000D01*
X-1968500Y+4318000D01*
X-2032000Y+4254500D01*
X-2032000Y+3810000D01*
X-2286000Y+3556000D01*
X-2667000Y+4953000D02*
X-2667000Y+4572000D01*
X-2730500Y+4508500D01*
X-3556000Y+4508500D01*
X-3619500Y+4445000D01*
X-3619500Y+3111500D01*
X-3683000Y+3048000D01*
X-4064000Y+3048000D01*
X-3175000Y+3302000D02*
X-3175000Y+2984500D01*
X-3238500Y+2921000D01*
X-3429000Y+2921000D01*
X-3492500Y+2984500D01*
X-3492500Y+4381500D01*
X-3429000Y+4445000D01*
X-2476500Y+4445000D01*
X-2413000Y+4508500D01*
X-2413000Y+4953000D01*
X-4508500Y+3556000D02*
X-4508500Y+4699000D01*
X-3302000Y+3556001D02*
X-3302000Y+3556000D01*
X-3175000Y+3683001D01*
X-3175000Y+4127500D01*
X-3111500Y+4191000D01*
X-2349500Y+4191000D01*
X-2286000Y+4254500D01*
X-2286000Y+4381500D01*
X-1905000Y+4762500D01*
X-1905000Y+4953000D01*
X-3302000Y+3302000D02*
X-3175000Y+3429000D01*
X-2857500Y+3429000D01*
X-2349500Y+3937000D01*
X-2222500Y+3937000D01*
X-2159000Y+4000500D01*
X-2159000Y+4318000D01*
X-2095500Y+4381500D01*
X-1714500Y+4381500D01*
X-1651000Y+4445000D01*
X-1651000Y+4953000D01*
X-2032000Y+4762500D02*
X-2286000Y+4762500D01*
X-2349500Y+4699000D01*
X-2349500Y+4381500D01*
X-2424619Y+4306381D01*
X-3365500Y+4306381D01*
X-3429000Y+4242881D01*
X-3429000Y+3175000D01*
X-3302000Y+3048000D01*
X-3302000Y+2794000D02*
X-3175000Y+2794000D01*
X-2540000Y+3429000D01*
X-2032000Y+3429000D01*
X-1968500Y+3492500D01*
X-1968500Y+4191000D01*
X-1905000Y+4254500D01*
X-1206500Y+4254500D01*
X-1143000Y+4318000D01*
X-1143000Y+4953000D01*
X-889000Y+4953000D02*
X-889000Y+4000500D01*
X-952500Y+3937000D01*
X-1714500Y+3937000D01*
X-1778000Y+3873500D01*
X-1778000Y+3238500D01*
X-1841500Y+3175000D01*
X-2349500Y+3175000D01*
X-2413000Y+3111500D01*
X-2413000Y+2921000D01*
X-2286000Y+2794000D01*
X-635000Y+4953000D02*
X-635000Y+4064000D01*
X-1016000Y+3683000D01*
X-1651000Y+3683000D01*
X-1714500Y+3619500D01*
X-1714500Y+3111500D01*
X-1778000Y+3048000D01*
X-2286000Y+3048000D01*
X+5207000Y+4191000D02*
X+4572000Y+4191000D01*
X+4508500Y+4127500D01*
X+4508500Y-1460500D01*
X+4445000Y-1524000D01*
X+3810000Y-1524000D01*
X+4508500Y-1778000D02*
X+4559300Y-1727200D01*
X+4559300Y+3873500D01*
X+4622800Y+3937000D01*
X+5207000Y+3937000D01*
X+5207000Y+4445000D02*
X+4508500Y+4445000D01*
X+4445000Y+4381500D01*
X+4445000Y-1206500D01*
X+4381500Y-1270000D01*
X+3810000Y-1270000D01*
X+3175000Y-4699000D02*
X+3175000Y-4254500D01*
X+3111500Y-4191000D01*
X+2984500Y-4191000D01*
X+2921000Y-4127500D01*
X+2921000Y-2984500D01*
X+2984500Y-2921000D01*
X+3111500Y-2921000D01*
X+3175000Y-2857500D01*
X+3175000Y-1651000D01*
X+3048000Y-1524000D01*
X-3429000Y-4699000D02*
X-3175000Y-4699000D01*
X-5016500Y-4699000D02*
X-5016501Y-4699001D01*
X-5206999Y-4699001D01*
X-5207000Y-4699000D01*
X+2794000Y-4953000D02*
X+2730500Y-4889500D01*
X+2730500Y-1333500D01*
X+2794000Y-1270000D01*
X+3048000Y-1270000D01*
X+2540000Y-5143500D02*
X+2540000Y-1460500D01*
X-4826000Y-5143500D02*
X-5143500Y-5143500D01*
X-5207000Y-5207000D01*
X+5207000Y+4699000D02*
X+4445000Y+4699000D01*
X+4381500Y+4635500D01*
X+4381500Y-889000D01*
X+4254501Y-1015999D01*
X+3810000Y-1016000D01*
X+3810000Y-1015999D01*
X-1524000Y+3556001D02*
X-1524000Y+3556000D01*
X-1016000Y+3556001D01*
X-888999Y+3429000D01*
X-381000Y+3429000D01*
X-317500Y+3492500D01*
X-317500Y+4635500D01*
X-254000Y+4699000D01*
X+63500Y+4699000D01*
X+127000Y+4762500D01*
X+127000Y+4953000D01*
X+2667000Y+3175000D02*
X+2667000Y+4953000D01*
X+2921000Y+3048000D02*
X+2921000Y+4953000D01*
X+381000Y+4953000D02*
X+381000Y+4381500D01*
X+317500Y+4318000D01*
X-127000Y+4318000D01*
X-190500Y+4254500D01*
X-190500Y+3238500D01*
X-254000Y+3175000D01*
X-1397000Y+3175000D01*
X-1524000Y+3302000D01*
X-63500Y+3429000D02*
X-63500Y+4191000D01*
X+0Y+4254500D01*
X+381000Y+4254500D01*
X+444500Y+4318000D01*
X+444500Y+4572000D01*
X+635000Y+4762500D01*
X+635000Y+4953000D01*
X-1270000Y+3429000D02*
X-1587500Y+3429000D01*
X-1651000Y+3365500D01*
X-1651000Y+3175000D01*
X-1524000Y+3048000D01*
X-1524000Y+2794000D02*
X-1397000Y+2921000D01*
X-190500Y+2921000D01*
X-127000Y+2984500D01*
X-127000Y+3238500D01*
X+12700Y+3378200D01*
X+12700Y+4127500D01*
X+76200Y+4191000D01*
X+444500Y+4191000D01*
X+508000Y+4254500D01*
X+508000Y+4445000D01*
X+571500Y+4508500D01*
X+825500Y+4508500D01*
X+889000Y+4572000D01*
X+889000Y+4953000D01*
X+1143000Y+4953000D02*
X+1143000Y+4508500D01*
X+1079500Y+4445000D01*
X+698500Y+4445000D01*
X+635000Y+4381500D01*
X+635000Y+3492500D01*
X+571500Y+3429000D01*
X+127000Y+3429000D01*
X+63500Y+3365500D01*
X+63500Y+3238500D01*
X+0Y+3175000D01*
X+0Y+2857500D01*
X-63500Y+2794000D01*
X-508000Y+2794000D01*
X+127000Y+3048000D02*
X+127000Y+3175000D01*
X+635000Y+3175000D01*
X+698500Y+3238500D01*
X+698500Y+4318000D01*
X+762000Y+4381500D01*
X+1333500Y+4381500D01*
X+1397000Y+4445000D01*
X+1397000Y+4953000D01*
X-381000Y+3048000D02*
X-508000Y+3048000D01*
X+254000Y+4762500D02*
X+254000Y+4572000D01*
X+190500Y+4508500D01*
X-190500Y+4508500D01*
X-254000Y+4445000D01*
X-254000Y+3365500D01*
X-317500Y+3302000D01*
X-508000Y+3302000D01*
X+889000Y+3429000D02*
X+889000Y+4254500D01*
X+952500Y+4318000D01*
X+1841500Y+4318000D01*
X+1905000Y+4381500D01*
X+1905000Y+4953000D01*
X+1143000Y+4064000D02*
X+1143000Y+4191000D01*
X+2095500Y+4191000D01*
X+2159000Y+4254500D01*
X+2159000Y+4953000D01*
X+381000Y+4064000D02*
X+381000Y+3683001D01*
X+254000Y+3556000D01*
X+254000Y+3556001D01*
X+2159000Y+3556000D02*
X+2413000Y+3810000D01*
X+2413000Y+4953000D01*
X+4318000Y-5143500D02*
X+4318000Y-1714500D01*
X+4254500Y-1651000D01*
X+3683000Y-1651000D01*
X+3619500Y-1587500D01*
X+3619500Y-952500D01*
X+3683000Y-889000D01*
X+4064000Y-889000D01*
X+4127500Y-825500D01*
X+4127500Y+1206500D01*
X+4191000Y+1270000D01*
X+4191000Y+3492500D01*
X+4127499Y+3556001D01*
X+3810000Y+3556000D01*
X+3810000Y+3556001D01*
X-4953000Y-5270500D02*
X-4953000Y-5461000D01*
X-3048000Y-5270500D02*
X-3048000Y-3302000D01*
X-2984500Y-3238500D01*
X-2984500Y+698500D01*
X-3048000Y+762000D01*
X-3302000Y+762000D01*
X-2476500Y-4064000D02*
X-2349500Y-4191000D01*
X-2032000Y-4191000D01*
X-1955800Y-4267200D01*
X-1955800Y-4762500D01*
X-2159000Y-4965700D01*
X-2159000Y-5461000D01*
X-3111500Y-1778000D02*
X-3048000Y-1841500D01*
X-3048000Y-3175000D01*
X-3175000Y-3302000D01*
X-3175000Y-3810000D01*
X-2476500Y-1460500D02*
X-2476500Y-1778000D01*
X-3175000Y-1524000D02*
X-3175000Y+317500D01*
X-3238500Y+381000D01*
X-3302000Y+381000D01*
X-3302000Y+508000D01*
X-2159000Y-1397000D02*
X-2159000Y-1206500D01*
X-2222500Y-1143000D01*
X-2349500Y-1143000D01*
X-2413000Y-1079500D01*
X-2413000Y+381000D01*
X-2286000Y+508000D01*
X-2286000Y-5270500D02*
X-2743200Y-4813300D01*
X-2743200Y-4508500D01*
X-2603500Y-4368800D01*
X-2603500Y-1587500D01*
X-2032000Y-5270500D02*
X-1981200Y-5321300D01*
X-1981200Y-5384800D01*
X-1905000Y-5461000D01*
X-1651000Y-5461000D02*
X-1651000Y-5016500D01*
X-1841500Y-4826000D01*
X-1841500Y-4000500D01*
X-1905000Y-3937000D01*
X-2349500Y-3937000D01*
X-2413000Y-3873500D01*
X-2413000Y-3746500D01*
X-2349500Y-3683000D01*
X-1905000Y-3683000D01*
X-1828800Y-3606800D01*
X-1828800Y-1206500D01*
X-1905000Y-1130300D01*
X-1905000Y+571500D01*
X-1968500Y+635000D01*
X-2286000Y+635000D01*
X-2286000Y+762000D01*
X-1397000Y-5461000D02*
X-1397000Y-3810000D01*
X-1143000Y-3556000D01*
X-1143000Y+381000D01*
X-1130300Y+393700D01*
X-1130300Y+762000D01*
X-1333500Y+965200D01*
X-1333500Y+1079500D01*
X-1397000Y+1143000D01*
X-1651000Y+1143000D01*
X-1778000Y+1016000D01*
X-2286000Y+1016000D01*
X-1270000Y+1651000D02*
X-1270000Y+1016000D01*
X-1079500Y+825500D01*
X-1079500Y+317500D01*
X-1092200Y+304800D01*
X-1092200Y-3746500D01*
X-1333500Y-3987800D01*
X-1333500Y-5080000D01*
X-1143000Y-5270500D01*
X-1143000Y-5461000D01*
X-1651000Y+1270000D02*
X-2286000Y+1270000D01*
X-4508500Y+3175000D02*
X-4432300Y+3098800D01*
X-4432300Y-4445000D01*
X-4699000Y-4711700D01*
X-4699000Y-5461000D01*
X+2032000Y+4762500D02*
X+2032000Y+4318000D01*
X+1968500Y+4254500D01*
X+1079500Y+4254500D01*
X+1016000Y+4191000D01*
X+1016000Y+3175000D01*
X+3429000Y+4762500D02*
X+3429000Y+4318000D01*
X+3632200Y+4114800D01*
X+3632200Y+3365500D01*
X+3695700Y+3302000D01*
X+3810000Y+3302000D01*
X+4762500Y-4572000D02*
X+4762500Y+3048000D01*
X-4318000Y-4826000D02*
X-4445000Y-4953000D01*
X-4445000Y-5461000D01*
X+4635500Y-4889500D02*
X+4635500Y+2794000D01*
X-4572000Y-4953000D02*
X-4318000Y-4699000D01*
X-4254500Y-4699000D01*
X-4191000Y-4762500D01*
X-4191000Y-5461000D01*
X-3937000Y-5461000D02*
X-3937000Y-5270500D01*
X-3733800Y-5067300D01*
X-3733800Y+1016000D01*
X-3810000Y+1092200D01*
X-3956050Y+1092200D01*
X-3956050Y+615950D01*
X-4064000Y+508000D01*
X-3810000Y+762000D02*
X-3797300Y+749300D01*
X-3797300Y-4635500D01*
X-4064000Y-4902200D01*
X-4064000Y-5270500D01*
X-3429000Y-5461000D02*
X-3429000Y-5207000D01*
X-3683000Y-4953000D01*
X-3683000Y+1079500D01*
X-3746500Y+1143000D01*
X-4064000Y+1143000D01*
X-4064000Y+1016000D01*
X-3175000Y-5461000D02*
X-3175000Y-5143500D01*
X-3632200Y-4686300D01*
X-3632200Y+1206500D01*
X-3695700Y+1270000D01*
X-4064000Y+1270000D01*
X-2921000Y-5461000D02*
X-2921000Y-4572000D01*
X-2984500Y-4508500D01*
X-2984500Y-3365500D01*
X-2921000Y-3302000D01*
X-2921000Y+825500D01*
X-3175000Y+1079500D01*
X-3175000Y+1143001D01*
X-3302000Y+1270000D01*
X-3302000Y+1270001D01*
X-2603500Y+1016000D02*
X-2679700Y+939800D01*
X-2679700Y-4254500D01*
X-2794000Y-4368800D01*
X-2794000Y-5143500D01*
X-2667000Y-5270500D01*
X-2667000Y-5461000D01*
X-1206500Y-4572000D02*
X-1206500Y-4889500D01*
X-889000Y-5207000D01*
X-889000Y-5461000D01*
X-889000Y+1270000D02*
X-889000Y-4381500D01*
X-952500Y-4445000D01*
X-1397000Y+1270000D02*
X-1524000Y+1270000D01*
X-1523999Y+1270000D01*
X-1524000Y+1270001D01*
X-1016000Y+1016000D02*
X-952500Y+952500D01*
X-952500Y+635000D01*
X-939800Y+622300D01*
X-939800Y-4000500D01*
X-1079500Y-4140200D01*
X-1079500Y-4762500D01*
X-635000Y-5207000D01*
X-635000Y-5461000D01*
X-762000Y+762000D02*
X-825500Y+698500D01*
X-825500Y-4699000D01*
X-584200Y-4940300D01*
X-584200Y-5302250D01*
X-381000Y-5302250D01*
X-381000Y-5461000D01*
X-190500Y+1016000D02*
X-190500Y+889000D01*
X-171450Y+869950D01*
X-171450Y-5143894D01*
X-127000Y-5188344D01*
X-127000Y-5461000D01*
X+127000Y+762000D02*
X+127000Y+508000D01*
X-254000Y+762000D02*
X-317500Y+825500D01*
X-317500Y+1016000D01*
X-241300Y+1092200D01*
X-114300Y+1092200D01*
X-114300Y-4953000D01*
X+127000Y-5194300D01*
X+127000Y-5461000D01*
X+381000Y-5461000D02*
X+381000Y-4953000D01*
X+317500Y-4889500D01*
X+0Y-4889500D01*
X-63500Y-4826000D01*
X-63500Y+1143000D01*
X-317500Y+1143000D01*
X-381000Y+1079500D01*
X-381000Y+889000D01*
X-508000Y+762000D01*
X+571500Y+889000D02*
X+635000Y+825500D01*
X+635000Y-5461000D01*
X-508000Y+889000D02*
X-508000Y+1016000D01*
X+317500Y+1143000D02*
X+635000Y+1143000D01*
X+698500Y+1079500D01*
X+698500Y-5207000D01*
X+762000Y-5270500D01*
X+889000Y-5270500D01*
X+889000Y-5461000D01*
X-127000Y+1270000D02*
X-508000Y+1270000D01*
X+1143000Y-5461000D02*
X+1143000Y-5270500D01*
X+1079500Y-5207000D01*
X+825500Y-5207000D01*
X+762000Y-5143500D01*
X+762000Y+1206500D01*
X+698499Y+1270001D01*
X+254000Y+1270000D01*
X+254000Y+1270001D01*
X+2921000Y-4953000D02*
X+2781300Y-4813300D01*
X+2781300Y-1460500D01*
X+2844800Y-1397000D01*
X+3111500Y-1397000D01*
X+3175000Y-1333500D01*
X+3175000Y-1206500D01*
X+3111500Y-1143000D01*
X+2540000Y-1143000D01*
X+2463800Y-1066800D01*
X+2463800Y+1333500D01*
X+2400300Y+1397000D01*
X+1968500Y+1397000D01*
X+1905000Y+1333500D01*
X+1905000Y+889000D01*
X+2032000Y+762000D01*
X+3238500Y-4953000D02*
X+3365500Y-5080000D01*
X+3619500Y-5080000D01*
X+3683000Y-5143500D01*
X+3683000Y-5461000D01*
X+2286000Y-4318000D02*
X+2286000Y+444500D01*
X+2222500Y+508000D01*
X+2032000Y+508000D01*
X+3937000Y-4826000D02*
X+3937000Y-5461000D01*
X+3048000Y+508000D02*
X+3302000Y+508000D01*
X+3365500Y+444500D01*
X+3365500Y-4889500D01*
X+3429000Y-4953000D01*
X+3492500Y-4953000D01*
X+3746500Y-4699000D01*
X+4127500Y-4699000D01*
X+4191000Y-4762500D01*
X+4191000Y-5461000D01*
X+4889500Y+127000D02*
X+4838700Y+76200D01*
X+4838700Y-5016500D01*
X+4775200Y-5080000D01*
X+4508500Y-5080000D01*
X+4445000Y-5143500D01*
X+4445000Y-5461000D01*
X+3238500Y+254000D02*
X+3111500Y+381000D01*
X+2984500Y+381000D01*
X+2921000Y+444500D01*
X+2921000Y+635000D01*
X+3048000Y+762000D01*
X+5016500Y-4127500D02*
X+5016500Y-5207000D01*
X+4953000Y-5270500D01*
X+4699000Y-5270500D01*
X+4699000Y-5461000D01*
X+4191000Y-4127500D02*
X+4191000Y-1968500D01*
X+4127500Y-1905000D01*
X+3492500Y-1905000D01*
X+3429000Y-1841500D01*
X+3429000Y+635000D01*
X+3048000Y+1016000D01*
X+889000Y+1016000D02*
X+825500Y+952500D01*
X+825500Y-5080000D01*
X+889000Y-5143500D01*
X+1333500Y-5143500D01*
X+1397000Y-5207000D01*
X+1397000Y-5461000D01*
X+952500Y+762000D02*
X+889000Y+698500D01*
X+889000Y-5016500D01*
X+952500Y-5080000D01*
X+1587500Y-5080000D01*
X+1651000Y-5143500D01*
X+1651000Y-5461000D01*
X+1079500Y+508000D02*
X+1003300Y+431800D01*
X+1003300Y-3937000D01*
X+1143000Y-4076700D01*
X+1143000Y-4826000D01*
X+1241058Y-4924058D01*
X+1841500Y-4924058D01*
X+1905000Y-4987558D01*
X+1905000Y-5461000D01*
X+2159000Y-5461000D02*
X+2159000Y-4254500D01*
X+2222500Y-4191000D01*
X+2222500Y+317500D01*
X+2159000Y+381000D01*
X+1397000Y+381000D01*
X+1270000Y+508000D01*
X+1270000Y+762000D02*
X+1397000Y+635000D01*
X+2286000Y+635000D01*
X+2349500Y+571500D01*
X+2349500Y-3238500D01*
X+2413000Y-3302000D01*
X+2413000Y-5461000D01*
X+4635500Y+3429000D02*
X+4635500Y+2984500D01*
X+4711700Y+2908300D01*
X+4711700Y+1714500D01*
X+4686300Y+1689100D01*
X+4686300Y-4699000D01*
X+4762500Y-4775200D01*
X+4762500Y-4889500D01*
X+2730500Y+2286000D02*
X+2730500Y+2603500D01*
X+2794000Y+2667000D01*
X+3238500Y+2667000D01*
X+3302000Y+2730500D01*
X+3302000Y+3429000D01*
X+2159000Y+2286000D02*
X+2159000Y+2032000D01*
X+2095500Y+1968500D01*
X+1841500Y+1968500D01*
X+1778000Y+1905000D01*
X+1778000Y+1079500D01*
X+1714500Y+1016000D01*
X+1270000Y+1016000D01*
X+2667000Y-889000D02*
X+2667000Y+1524000D01*
X+2286000Y+1524000D01*
X+2222500Y+1587500D01*
X+2222500Y+1841500D01*
X+2159000Y+1905000D01*
X+1905000Y+1905000D01*
X+1841500Y+1841500D01*
X+1841500Y+952500D01*
X+1778000Y+889000D01*
X+1206500Y+889000D01*
X+1143000Y+952500D01*
X+1143000Y+1143000D01*
X+1270000Y+1270000D01*
X+2540000Y-1333500D02*
X+2616200Y-1409700D01*
X+2616200Y-5207000D01*
X+2679700Y-5270500D01*
X+2921000Y-5270500D01*
X+2921000Y-5461000D01*
X+2032000Y+1270001D02*
X+2032000Y+1270000D01*
X+2413000Y+889001D01*
X+2413000Y-1143000D01*
X+2476500Y-1206500D01*
X+2603500Y-1206500D01*
X+2667000Y-1270000D01*
X+2667000Y-5143500D01*
X+2730500Y-5207000D01*
X+3111500Y-5207000D01*
X+3175000Y-5270500D01*
X+3175000Y-5461000D01*
X+2921000Y+1016000D02*
X+2857500Y+952500D01*
X+2857500Y+190500D01*
X+2921000Y+127000D01*
X+3238500Y+127000D01*
X+3302000Y+63500D01*
X+3302000Y-4699000D01*
X+3111500Y-4889500D01*
X+3111500Y-4953000D01*
X+3429000Y-5270500D01*
X+3429000Y-5461000D01*
X+2159000Y+1016000D02*
X+2032000Y+1016000D01*
X+1524000Y-635000D02*
X+1904999Y-1015999D01*
X+2032000Y-1016000D01*
X+2032000Y-1015999D01*
X+127000Y-4064000D02*
X+127000Y-3937000D01*
X+444500Y-3937000D01*
X+508000Y-3873500D01*
X+508000Y-1079500D01*
X+381000Y-952500D01*
X+381000Y-635000D01*
X-1651000Y-4318000D02*
X-1651000Y-3937000D01*
X-4699000Y-4191000D02*
X-4699000Y-3492500D01*
X-4762500Y-3429000D01*
X-5207000Y-3429000D01*
X+63500Y-889000D02*
X+0Y-952500D01*
X+0Y-2984500D01*
X+63500Y-3048000D01*
X-4826000Y-5270500D02*
X-4749800Y-5194300D01*
X-4749800Y-4508500D01*
X-4813300Y-4445000D01*
X-5207000Y-4445000D01*
X-254000Y-5270500D02*
X-317500Y-5207000D01*
X-508000Y-5207000D01*
X+2032000Y-4445000D02*
X+1905000Y-4445000D01*
X+1905000Y-4635500D01*
X+2032000Y-4762500D01*
X+2032000Y-5270500D01*
X+2857500Y-4445000D02*
X+2857500Y-1841500D01*
X+2921000Y-1778000D01*
X+3048000Y-1778000D01*
X+1714500Y-4445000D02*
X+1714500Y-1841500D01*
X+1778000Y-1778000D01*
X+2032000Y-1778000D01*
X+1587500Y-3683000D02*
X+1663700Y-3606800D01*
X+1663700Y-1714500D01*
X+1727200Y-1651000D01*
X+1905000Y-1651000D01*
X+2032000Y-1524000D01*
X-5016500Y-3937000D02*
X-5016501Y-3937001D01*
X-5206999Y-3937001D01*
X-5207000Y-3937000D01*
X-381000Y-3175000D02*
X-381000Y-2032000D01*
X-4889500Y-3556000D02*
X-5016500Y-3683000D01*
X-5207000Y-3683000D01*
X+127000Y-2413000D02*
X+127000Y-1397000D01*
X-5016500Y-2540000D02*
X-5016500Y-2921000D01*
X-5207000Y-2921000D01*
X-3492500Y+2286000D02*
X-3365500Y+2159000D01*
X-3175000Y+2159000D01*
X-3175000Y+1778000D02*
X-3175000Y+2159000D01*
X+1270000Y-4572000D02*
X+1397000Y-4699000D01*
X+1778000Y-4699000D01*
X+1841500Y-4635500D01*
X+1841500Y-3238499D01*
X+2032000Y-3048000D01*
X+1270000Y+0D02*
X+1714500Y+0D01*
X+1807844Y-93344D01*
X+1807844Y-537843D01*
X+2032000Y-762000D01*
X+2032000Y-761999D01*
X+1270000Y+2286000D02*
X+1460500Y+2286000D01*
X+1524000Y+2349500D01*
X+1524000Y+3365500D01*
X+1587500Y+3429000D01*
X+1587500Y+3683000D01*
X-1524000Y-3048000D02*
X-1727200Y-2844799D01*
X-1727200Y-1587500D01*
X-1714500Y-1574800D01*
X-1714500Y-952500D01*
X+381000Y-4699000D02*
X+63500Y-4699000D01*
X+0Y-4635500D01*
X+0Y-3301999D01*
X+254000Y-3048000D01*
X+254000Y-3047999D01*
X+3683000Y-762000D02*
X+3683001Y-761999D01*
X+3810000Y-762000D01*
X+3810000Y-761999D01*
X+0Y+1397000D02*
X+0Y+0D01*
X+127000Y-127000D01*
X-4064000Y-4572000D02*
X-3937000Y-4445000D01*
X-3937000Y-3048000D01*
X-4064000Y-2286000D02*
X-3855244Y-2077244D01*
X-3855244Y-952500D01*
X-3873500Y-934244D01*
X-3873500Y-762000D01*
X+3810000Y+1524000D02*
X+3683000Y+1651001D01*
X+3683000Y+2222500D01*
X+3556000Y+2349500D01*
X-1524000Y+1524001D02*
X-1524000Y+1524000D01*
X-2032001Y+1524001D01*
X-2159000Y+1651000D01*
X-3175000Y+1778000D02*
X-3175000Y+1651001D01*
X-3302000Y+1524000D01*
X-3302000Y+1524001D01*
X-1714500Y-127000D02*
X-1714500Y-825500D01*
X+0Y+1397000D02*
X+127001Y+1524001D01*
X+254000Y+1524000D01*
X+254000Y+1524001D01*
X+3810000Y-3048000D02*
X+3937000Y-2920999D01*
X+3937000Y-2159000D01*
X+2984500Y-1905000D02*
X+2921000Y-1968500D01*
X+2921000Y-2159000D01*
X+3048000Y-2286000D01*
X-508000Y-4572000D02*
X-711200Y-4368800D01*
X-711200Y-2489200D01*
X-508000Y-2286000D01*
X-2286000Y+2286000D02*
X-1841500Y+2286000D01*
X-1714500Y+2413000D01*
X-635000Y+2413000D01*
X-508000Y+2286000D01*
X-1524000Y-3047999D02*
X-1524000Y-3048000D01*
X-1651000Y-3047999D01*
X-1727200Y-3124199D01*
X-1727200Y-4686300D01*
X-1714500Y-4699000D01*
X+3556000Y+3683000D02*
X+3556000Y+2349500D01*
X+3175000Y-762000D02*
X+3251200Y-685800D01*
X+3251200Y-203200D01*
X+3048000Y+0D01*
X+3683000Y-698500D02*
X+3683000Y-762000D01*
X+3810000Y+1524001D02*
X+3810000Y+1524000D01*
X+3683000Y+1397001D01*
X+3683000Y-698500D01*
X+3810000Y-3047999D02*
X+3810000Y-3048000D01*
X+3937000Y-3174999D01*
X+3937000Y-4064000D01*
X-2413000Y-2794000D02*
X-2413000Y-2540000D01*
X-2286000Y-2413000D01*
X-2286000Y-2286000D01*
X-3302000Y-3047999D02*
X-3302000Y-3048000D01*
X-3175000Y-2920999D01*
X-3175000Y-2794000D01*
X-4064000Y-2286000D02*
X-3937000Y-2413000D01*
X-3937000Y-3048000D01*
X-3175000Y+2286000D02*
X-3175000Y+2159000D01*
X-3937000Y+2286000D02*
X-4064000Y+2286000D01*
X+3556000Y+2349500D02*
X+3492500Y+2286000D01*
X+3048000Y+2286000D01*
X+1270000Y+0D02*
X+1270000Y-127000D01*
X+1301750Y-158750D01*
X+1301750Y-330200D01*
X+1143000Y-330200D01*
X+1079500Y-266700D01*
X+1079500Y+0D01*
X-1714500Y-952500D02*
X-1714500Y-825500D01*
X+127000Y-127000D02*
X+254000Y-127000D01*
X+2032000Y-3047999D02*
X+2032000Y-3048000D01*
X+1841500Y-2857499D01*
X+1841500Y-2413000D01*
X-4064000Y-381000D02*
X-4064000Y+0D01*
X+3937000Y-4191000D02*
X+3937000Y-4064000D01*
X+254000Y-127000D02*
X+63500Y-317500D01*
X+63500Y-635000D01*
X+3810000Y-4445000D02*
X+3937000Y-4445000D01*
X+3937000Y-4191000D01*
X-4889500Y-2540000D02*
X-5016500Y-2413000D01*
X-5207000Y-2413000D01*
X+1968500Y-2413000D02*
X+1924050Y-2368550D01*
X+1924050Y-2241550D01*
X+1841500Y-2159000D01*
X-508000Y-3048000D02*
X-635000Y-3175000D01*
X-635000Y-3365500D01*
X-571500Y-3429000D01*
X-381000Y-3429000D01*
X-304800Y-3352800D01*
X-304800Y-762000D01*
X-381000Y+254000D02*
X-304800Y+177800D01*
X-304800Y-762000D01*
X-4064000Y+3810000D02*
X-4254500Y+4000500D01*
X-4254500Y+4699000D01*
X-4349750Y+4794250D01*
X-4699000Y+4794250D01*
X-4699000Y+4953000D01*
X-304800Y-762000D02*
X-508000Y-762000D01*
X+1270000Y+3810000D02*
X+1397000Y+3683000D01*
X+1397000Y+2730500D01*
X+1333500Y+2667000D01*
X+1016000Y+2667000D01*
X+952500Y+2603500D01*
X+3048000Y-762000D02*
X+3238500Y-952500D01*
X+3238500Y-2984500D01*
X+3175000Y-3048000D01*
X+3048000Y-3048000D01*
X+127000Y+1397000D02*
X+127000Y+1079500D01*
X+50800Y+1003300D01*
X+50800Y+203200D01*
X+127000Y+127000D01*
X+127000Y+1397000D02*
X+571500Y+1397000D01*
X+1270000Y+1524000D02*
X+952500Y+1524000D01*
X-3873500Y-635000D02*
X-3873500Y-63500D01*
X-3895725Y-41275D01*
X-3895725Y+825500D01*
X-3873500Y+847725D01*
X-3873500Y+1016000D01*
X+952500Y+2603500D02*
X+952500Y+1524000D01*
X+952500Y+2603500D02*
X+889000Y+2667000D01*
X+571500Y+2667000D01*
X+508000Y+2603500D01*
X+508000Y+2222500D01*
X+444500Y+2159000D01*
X-1143000Y+2159000D01*
X-1270000Y+2286000D01*
X-2794000Y+2413000D02*
X-2032000Y+2413000D01*
X-3048000Y+1524000D02*
X-3048000Y+2349500D01*
X+127000Y+127000D02*
X+508000Y+127000D01*
X+584200Y+50800D01*
X+584200Y-685800D01*
X+508000Y-762000D01*
X-2286000Y-3048000D02*
X-2095500Y-3048000D01*
X-2032000Y-2984500D01*
X-2032000Y-2794000D01*
X-4826000Y+3937000D02*
X-4699000Y+4064000D01*
X-4699000Y+4699000D01*
X+1270000Y-2794000D02*
X+1270000Y-2540000D01*
X+1143000Y-2413000D01*
X-3556000Y-381000D02*
X-3556000Y+1333500D01*
X-3873500Y+1651000D01*
X-3873500Y+1778000D01*
X+1270000Y-508000D02*
X+1143000Y-635000D01*
X+1143000Y-2286000D01*
X+3048000Y+1778000D02*
X+2540000Y+1778000D01*
X+2476500Y+1841500D01*
X+2476500Y+2857500D01*
X+2540000Y+2921000D01*
X+3111500Y+2921000D01*
X+3175000Y+2984500D01*
X+3175000Y+3937000D01*
X+3048000Y+4064000D01*
X-1714500Y+4064000D02*
X-1587500Y+4191000D01*
X-1206500Y+4191000D01*
X-1143000Y+4127500D01*
X+1143000Y-2286000D02*
X+1143000Y-2413000D01*
X-4064000Y+1778000D02*
X-3873500Y+1778000D01*
X-3810000Y+1841500D01*
X-3810000Y+2730500D01*
X-3746500Y+2794000D01*
X-2286000Y+4064000D02*
X-2794000Y+4064000D01*
X-2863145Y+3994855D01*
X-2863145Y+3688645D01*
X-2857500Y+3683000D01*
X-3429000Y-1397000D02*
X-3429000Y-2159000D01*
X-3302000Y-2286000D01*
X-2159000Y-762000D02*
X-2159000Y-1016000D01*
X-635000Y+381000D02*
X-635000Y+190500D01*
X-571500Y+127000D01*
X-444500Y+127000D01*
X-381000Y+63500D01*
X-381000Y-635000D01*
X+3810000Y+381000D02*
X+3810000Y+254000D01*
X+3492500Y-4826000D02*
X+3492500Y-2349500D01*
X+3810000Y-2032000D01*
X+3937000Y+889000D02*
X+3987800Y+939800D01*
X+3987800Y+2463800D01*
X+4064000Y+2540000D01*
X-762000Y+889000D02*
X-685800Y+965200D01*
X-685800Y+1587500D01*
X-622300Y+1651000D01*
X-254000Y+1651000D01*
X-1905000Y+889000D02*
X-1524000Y+889000D01*
X-1968500Y+1143000D02*
X-2286000Y+1143000D01*
X-4889500Y-1143000D02*
X-4826000Y-1079500D01*
X-4826000Y+825500D01*
X-4889500Y+889000D01*
X-5207000Y+889000D01*
X-2603500Y+1143000D02*
X-2667000Y+1206500D01*
X-2667000Y+1778000D01*
X-2603500Y+1841500D01*
X-2476500Y+1841500D01*
X-2413000Y+1778000D01*
X-2413000Y+952500D01*
X-2349500Y+889000D01*
X-2222500Y+889000D01*
X-2032000Y+698500D01*
X-1841500Y+698500D01*
X-1778000Y+635000D01*
X-1778000Y+508000D01*
X-1631950Y+361950D01*
X-1631950Y-908049D01*
X-1524000Y-1016000D01*
X-1524000Y-1015999D01*
X-1333500Y+381000D02*
X-1312333Y+359833D01*
X-1312333Y-1193800D01*
X-1416050Y-1193800D01*
X-1416050Y-1270000D01*
X-1524000Y-1270000D01*
X-762000Y+1270000D02*
X-762000Y+1016000D01*
X-2095500Y+1397000D02*
X-1397000Y+1397000D01*
X-5016500Y+1270000D02*
X-5016500Y+1524000D01*
X-5016500Y+762000D02*
X-5016500Y+381000D01*
X-5207000Y+381000D01*
X-1206500Y+635000D02*
X-1206500Y+516467D01*
X-1198033Y+508000D01*
X-1198033Y-3175000D01*
X-1325032Y-3301999D01*
X-1524000Y-3302000D01*
X-1524000Y-3301999D01*
X-1905000Y-1270000D02*
X-1905000Y-3238500D01*
X-1968500Y-3302000D01*
X-2286000Y-3302000D01*
X+508000Y-381000D02*
X+254000Y-381000D01*
X+4254500Y+508000D02*
X+4254500Y-381000D01*
X+5016500Y+508000D02*
X+5016500Y+889000D01*
X+5207000Y+889000D01*
X-2032000Y+825500D02*
X-1968500Y+762000D01*
X-1714500Y+762000D01*
X-1587500Y+635000D01*
X-1460500Y+635000D01*
X-1257300Y+431800D01*
X-1257300Y-3111500D01*
X-1320800Y-3175000D01*
X-1587500Y-3175000D01*
X-1651000Y-3238500D01*
X-1651000Y-3556000D01*
X+444500Y+1778000D02*
X+317500Y+1905000D01*
X-1651000Y+1905000D01*
X-1651000Y+1778000D01*
X-698500Y-127000D02*
X-698500Y-1524000D01*
X-4953000Y-190500D02*
X-4953000Y+63500D01*
X-5016500Y+127000D01*
X-5207000Y+127000D01*
X-4953000Y+254000D02*
X-4876800Y+177800D01*
X-4876800Y-254000D01*
X-4940300Y-317500D01*
X-5048250Y-317500D01*
X-5048250Y-127000D01*
X-5207000Y-127000D01*
X-2032000Y-2032000D02*
X-1981200Y-1981200D01*
X-1981200Y+317500D01*
X-2044700Y+381000D01*
X-2286000Y+381000D01*
X-1651000Y-2032000D02*
X-1651000Y-1905000D01*
X-1524000Y-1778000D01*
X-4572000Y-4445000D02*
X-4572000Y-2222500D01*
X-4838700Y-1955800D01*
X-4838700Y-1460500D01*
X-4965700Y-1333500D01*
X-4965700Y-444500D01*
X-5029200Y-381000D01*
X-5207000Y-381000D01*
X-3175000Y-4572000D02*
X-3175000Y-4445000D01*
X-3556000Y-4445000D01*
X-2032000Y-4445000D02*
X-2540000Y-4445000D01*
X-2667000Y-4572000D01*
X-698500Y-4572000D02*
X-762000Y-4508500D01*
X-762000Y-1841500D01*
X-698500Y-1778000D01*
X-508000Y-1778000D01*
X-4826000Y-2159000D02*
X-4889500Y-2095500D01*
X-4889500Y-1524000D01*
X-5016500Y-1397000D01*
X-5016500Y-635000D01*
X-5207000Y-635000D01*
X-2032000Y-2159000D02*
X-2159000Y-2286000D01*
X-2159000Y-2857500D01*
X-2222500Y-2921000D01*
X-2476500Y-2921000D01*
X-2540000Y-2857500D01*
X-2540000Y-2222500D01*
X-2476500Y-2159000D01*
X-635000Y-2286000D02*
X-635000Y-1968500D01*
X-571500Y-1905000D01*
X-444500Y-1905000D01*
X-381000Y-1841500D01*
X-381000Y-1651000D01*
X-508000Y-1524000D01*
X+508000Y+0D02*
X+146050Y-361950D01*
X+146050Y-1016000D01*
X+127000Y-1035050D01*
X+127000Y-1270000D01*
X-4699000Y-2794000D02*
X-4635500Y-2730500D01*
X-4635500Y-2476500D01*
X-4953000Y-2159000D01*
X-4953000Y-1587500D01*
X-5067300Y-1473200D01*
X-5067300Y-1143000D01*
X-5207000Y-1143000D01*
X-3556000Y-889000D02*
X-3556000Y-2730500D01*
X-571500Y-1397000D02*
X-635000Y-1333500D01*
X-635000Y-1143000D01*
X-508000Y-1016000D01*
X-571500Y-381000D02*
X-635000Y-444500D01*
X-635000Y-825500D01*
X-571500Y-889000D01*
X-444500Y-889000D01*
X-381000Y-952500D01*
X-381000Y-1206500D01*
X+381000Y-2413000D02*
X+381000Y-1397000D01*
X+254000Y-1270000D01*
X-4762500Y-2540000D02*
X-5016500Y-2286000D01*
X-5016500Y-1651000D01*
X-5207000Y-1651000D01*
X-1714500Y+127000D02*
X-1841500Y+0D01*
X-1841500Y-1016000D01*
X-1778000Y-1079500D01*
X-1778000Y-3746500D01*
X-1841500Y-3810000D01*
X-2286000Y-3810000D01*
X+698500Y+1778000D02*
X+508000Y+1968500D01*
X-1714500Y+1968500D01*
X-1778000Y+1905000D01*
X-1778000Y+1651000D01*
X+3302000Y+1651000D02*
X+2413000Y+1651000D01*
X+2349500Y+1714500D01*
X+2349500Y+2349500D01*
X+2286000Y+2413000D01*
X+1714500Y+2413000D01*
X+1651000Y+2349500D01*
X+1651000Y+1714500D01*
X+1587500Y+1651000D01*
X+1206500Y+1651000D01*
X+4953000Y+1397000D02*
X+5207000Y+1397000D01*
X+4572000Y-5207000D02*
X+4826000Y-5207000D01*
X+4889500Y-5143500D01*
X+4889500Y+0D01*
X+5016500Y+127000D01*
X+4826000Y+317500D01*
X+4826000Y+1587500D01*
X+4889500Y+1651000D01*
X+5207000Y+1651000D01*
X-1905000Y-5270500D02*
X-1905000Y-4127500D01*
X-1968500Y-4064000D01*
X-2286000Y-4064000D01*
X+1778000Y+2222500D02*
X+1714500Y+2159000D01*
X+1714500Y+1460500D01*
X+1651000Y+1397000D01*
X+889000Y+1397000D01*
X+825500Y+1460500D01*
X+825500Y+1968500D01*
X+762000Y+2032000D01*
X-2667000Y+2032000D01*
X-2730500Y+1968500D01*
X-2730500Y-4000500D01*
X-2794000Y-4064000D01*
X+5016500Y+2540000D02*
X+5016500Y+2159000D01*
X+5207000Y+2159000D01*
X+1079500Y+2286000D02*
X+1270000Y+2095500D01*
X+1524000Y+2095500D01*
X+1587500Y+2159000D01*
X+1587500Y+2857500D01*
X+1651000Y+2921000D01*
X+2286000Y+2921000D01*
X+381000Y+2286000D02*
X+381000Y+2603500D01*
X+317500Y+2667000D01*
X-3683000Y+2667000D01*
X-3746500Y+2603500D01*
X-3746500Y+1905000D01*
X-3479800Y+1638300D01*
X-3479800Y-1143000D01*
X-3505200Y-1168400D01*
X-3505200Y-2413000D01*
X-3429000Y-2489200D01*
X-3429000Y-3683000D01*
X-3302000Y-3810000D01*
X-4826000Y-1333500D02*
X-4762500Y-1270000D01*
X-4762500Y+2349500D01*
X-4826000Y+2413000D01*
X-5207000Y+2413000D01*
X-4889500Y+1968500D02*
X-4889500Y+2095500D01*
X-4953000Y+2159000D01*
X-5207000Y+2159000D01*
X-2984500Y+1206500D02*
X-2921000Y+1270000D01*
X-2921000Y+2413000D01*
X-2984500Y+2476500D01*
X-3111500Y+2476500D01*
X-3175000Y+2413000D01*
X-3556000Y+2413000D01*
X-3619500Y+2349500D01*
X-3619500Y+1968500D01*
X-3111500Y+508000D02*
X-3048000Y+444500D01*
X-3048000Y-1587500D01*
X-3111500Y-1651000D01*
X-3175000Y-1651000D01*
X-3302000Y-1524000D01*
X-4000500Y+381000D02*
X-3956050Y+336550D01*
X-3956050Y-825500D01*
X-3937000Y-844550D01*
X-3937000Y-1778000D01*
X-4889500Y+1079500D02*
X-4889500Y+1587500D01*
X-5016500Y+1714500D01*
X-5016500Y+1905000D01*
X-5207000Y+1905000D01*
X-2159000Y+254000D02*
X-2032000Y+127000D01*
X-2032000Y-1714500D01*
X-2095500Y-1778000D01*
X-2286000Y-1778000D01*
X-2603500Y+889000D02*
X-2603500Y-1270000D01*
X-2540000Y-1333500D01*
X-2476500Y-1333500D01*
X-2286000Y-1524000D01*
X-2540000Y+1651000D02*
X-2476500Y+1587500D01*
X-2476500Y-1206500D01*
X-2413000Y-1270000D01*
X-2286000Y-1270000D01*
X-4889500Y+1778000D02*
X-4826000Y+1714500D01*
X-4826000Y+1587500D01*
X-4813300Y+1574800D01*
X-4813300Y+1016000D01*
X-4876800Y+952500D01*
X-4953000Y+952500D01*
X-5016500Y+1016000D01*
X-5016500Y+1143000D01*
X-5207000Y+1143000D01*
X-4381500Y+4572000D02*
X-4381500Y-3746500D01*
X-4064000Y-4064000D01*
X+4953000Y+3683000D02*
X+5207000Y+3683000D01*
X-3937000Y+4318000D02*
X-3937000Y+3746500D01*
X-4000500Y+3683000D01*
X-4254500Y+3683000D01*
X-4318000Y+3619500D01*
X-4318000Y-3556000D01*
X-4064000Y-3810000D01*
X+4826000Y+3556000D02*
X+4953000Y+3429000D01*
X+5207000Y+3429000D01*
X-3810000Y+4254500D02*
X-3810000Y+3492500D01*
X-3873500Y+3429000D01*
X-4191000Y+3429000D01*
X-4254500Y+3365500D01*
X-4254500Y-3365500D01*
X-4064000Y-3556000D01*
X+5016500Y+3302000D02*
X+5016500Y+3175000D01*
X+5207000Y+3175000D01*
X-3873500Y+2921000D02*
X-3873500Y+2730500D01*
X-3937000Y+2667000D01*
X-4127500Y+2667000D01*
X-4191000Y+2603500D01*
X-4191000Y-3175000D01*
X-4064000Y-3302000D01*
X+2286000Y+3429000D02*
X+1841500Y+3429000D01*
X+1778000Y+3492500D01*
X+1778000Y+3873500D01*
X+1714500Y+3937000D01*
X+1206500Y+3937000D01*
X+1143000Y+3873500D01*
X+1143000Y+3048000D01*
X+1016000Y+2921000D01*
X+4826000Y+3175000D02*
X+4953000Y+3048000D01*
X+4953000Y+2984500D01*
X+5016500Y+2921000D01*
X+5207000Y+2921000D01*
X-2476500Y-3556000D02*
X-2476500Y-3238500D01*
X-1460500Y+2159000D02*
X-2794000Y+2159000D01*
X-2857500Y+2095500D01*
X-2857500Y-3429000D01*
X-2933700Y-3505200D01*
X-2933700Y-3606800D01*
X-2857500Y-3683000D01*
X+4889500Y+2032000D02*
X+4889500Y+2603500D01*
X+4953000Y+2667000D01*
X+5207000Y+2667000D01*
X+1079500Y+2540000D02*
X+1206500Y+2413000D01*
X+1397000Y+2413000D01*
X+1460500Y+2476500D01*
X+1460500Y+3746500D01*
X+1524000Y+3810000D01*
X+1651000Y+3810000D01*
X+1714500Y+3746500D01*
X+1714500Y+3238500D01*
X+1778000Y+3175000D01*
X+2349500Y+3175000D01*
X+2413000Y+3111500D01*
X+2413000Y+2857500D01*
X+2349500Y+2794000D01*
X-2857500Y-3556000D02*
X-2794000Y-3492500D01*
X-2794000Y+2082800D01*
X+571500Y+2082800D01*
X+635000Y+2146300D01*
X+635000Y+2540000D01*
X+3492500Y+1270000D02*
X+3492500Y+1841500D01*
X+3429000Y+1905000D01*
X+2667000Y+1905000D01*
X+2603500Y+1968500D01*
X+2603500Y+2667000D01*
X-4826000Y+4699000D02*
X-5016500Y+4508500D01*
X-5016500Y+4445000D01*
X-5207000Y+4445000D01*
X+3683000Y+4445000D02*
X+3683000Y+3492500D01*
X+3746500Y+3429000D01*
X+3873500Y+3429000D01*
X+3937000Y+3365500D01*
X+3937000Y+1143000D01*
X+3810000Y+1016000D01*
X-4826000Y+4572000D02*
X-4826000Y+4254500D01*
X-4889500Y+4191000D01*
X-5207000Y+4191000D01*
X+4254500Y+762000D02*
X+4254500Y+4508500D01*
X+3937000Y+762000D02*
X+3810000Y+762000D01*
X+4064000Y+2032000D02*
X+4064000Y+762000D01*
X+3810000Y+508000D01*
X-4635500Y-1778000D02*
X-4635500Y+3619500D01*
X-4699000Y+3683000D01*
X-5207000Y+3683000D01*
X-4762500Y-1587500D02*
X-4699000Y-1524000D01*
X-4699000Y+3365500D01*
X-4762500Y+3429000D01*
X-5207000Y+3429000D01*
X-381000Y-3556000D02*
X-381000Y-3683000D01*
X-635000Y-3683000D01*
X-635000Y-3556000D01*
X+381000Y-1143000D02*
X+457200Y-1219200D01*
X+457200Y-3098800D01*
X+381000Y-3175000D01*
X+1524000Y-1143000D02*
X+1270000Y-1143000D01*
X+4445000Y-1651000D02*
X+4381500Y-1714500D01*
X+4381500Y-2349500D01*
X+4445000Y-2413000D01*
X+5016500Y-1524000D02*
X+4940300Y-1447800D01*
X+4940300Y-127000D01*
X+5067300Y+0D01*
X+5067300Y+381000D01*
X+5207000Y+381000D01*
X-1016000Y-3810000D02*
X-1016000Y-254000D01*
X+698500Y+1397000D02*
X+444500Y+1651000D01*
X+0Y+1651000D01*
X-254000Y+1397000D01*
X-571500Y+1397000D01*
X-635000Y+1333500D01*
X-635000Y+698500D01*
X-571500Y+635000D01*
X-317500Y+635000D01*
X-254000Y+571500D01*
X-254000Y-3873500D01*
X-317500Y-3937000D01*
X-635000Y-3937000D01*
X-635000Y-4064000D01*
X+3175000Y-635000D02*
X+2921000Y-635000D01*
X+2857500Y-698500D01*
X+2857500Y-952500D01*
X+2794000Y-1016000D01*
X+2540000Y-1016000D01*
X+2540000Y+1397000D01*
X+5016500Y-762000D02*
X+5016500Y-127000D01*
X+5207000Y-127000D01*
X+1206500Y-254000D02*
X+1162050Y-209550D01*
X+1162050Y+571500D01*
X+1098550Y+635000D01*
X+1016000Y+635000D01*
X+952500Y+571500D01*
X+952500Y-4127500D01*
X+1016000Y-4191000D01*
X+5016500Y-3937000D02*
X+5016500Y-1651000D01*
X+5207000Y-1651000D01*
X-381000Y-3810000D02*
X-508000Y-3810000D01*
X+2032000Y-1905000D02*
X+1841500Y-1905000D01*
X+1765300Y-1981200D01*
X+1765300Y-2794000D01*
X+1790700Y-2819400D01*
X+1790700Y-4508500D01*
X+1727200Y-4572000D01*
X+1587500Y-4572000D01*
X+1511300Y-4495800D01*
X+1511300Y-3251200D01*
X+1587500Y-3175000D01*
X+1143000Y-3556000D02*
X+1143000Y-2667000D01*
X+1397000Y-254000D02*
X+1397000Y-381000D01*
X+1143000Y-381000D01*
X+1060450Y-463550D01*
X+1060450Y-3683000D01*
X+1079500Y-3702050D01*
X+1079500Y-3810000D01*
X+508000Y-889000D02*
X+571500Y-952500D01*
X+571500Y-4000500D01*
X+508000Y-4064000D01*
X+254000Y-4064000D01*
X+5016500Y-889000D02*
X+5016501Y-888999D01*
X+5206999Y-888999D01*
X+5207000Y-889000D01*
X+1714500Y-1143000D02*
X+1714500Y-1460500D01*
X+1460500Y-1714500D01*
X+1460500Y-3873500D01*
X+1270000Y-4064000D01*
X+1587500Y-1397000D02*
X+1460500Y-1397000D01*
X+1397000Y-1460500D01*
X+1397000Y-3683000D01*
X+1270000Y-3810000D01*
X+4064000Y-2921000D02*
X+4064000Y-3683000D01*
X-4508500Y+2286000D02*
X-4508500Y-1270000D01*
X-4889500Y+2730500D02*
X-4762500Y+2857500D01*
X-4762500Y+3111500D01*
X-4826000Y+3175000D01*
X-5207000Y+3175000D01*
X-4889500Y+3810000D02*
X-4699000Y+3810000D01*
X-4584700Y+3695700D01*
X-4584700Y-1320800D01*
X-4508500Y-1397000D01*
X-4889500Y+2921000D02*
X-5207000Y+2921000D01*
X-3429000Y+2032000D02*
X-3429000Y-888999D01*
X-3302000Y-1016000D01*
X-3302000Y-1015999D01*
X+2794000Y-508000D02*
X+2794000Y-889000D01*
X+2717800Y-965200D01*
X+2590800Y-965200D01*
X+2590800Y+889000D01*
X+2616200Y+914400D01*
X+2616200Y+1473200D01*
X+2222500Y+1473200D01*
X+2159000Y+1536700D01*
X+2159000Y+1651000D01*
X+2032000Y+1778000D01*
X+3302000Y+1143000D02*
X+3556000Y+1143000D01*
X+3619500Y+1206500D01*
X+3619500Y+2032000D01*
X+3556000Y+2095500D01*
X+2984500Y+2095500D01*
X+2921000Y+2159000D01*
X+2921000Y+2349500D01*
X+2984500Y+2413000D01*
X+3365500Y+2413000D01*
X+3429000Y+2476500D01*
X+3429000Y+3937000D01*
X+3556000Y+4064000D01*
X+2032000Y-508000D02*
X+2159000Y-635000D01*
X+2159000Y-2667000D01*
X+2032000Y-2794000D01*
X+3810000Y-4318000D02*
X+3683000Y-4191000D01*
X+3683000Y-2921000D01*
X+3810000Y-2794000D01*
X-3175000Y-2286000D02*
X-3175000Y-2476500D01*
X-3302000Y-2603500D01*
X-3302000Y-2794000D01*
X-2222500Y-635000D02*
X-2082800Y-635000D01*
X-2082800Y-1587500D01*
X-2146300Y-1651000D01*
X-2393950Y-1651000D01*
X-2393950Y-2260599D01*
X-2413000Y-2260599D01*
X-2413000Y-2286000D01*
X+3175000Y-508000D02*
X+3175000Y-381000D01*
X+2921000Y-381000D01*
X+2794000Y-508000D01*
X+2794000Y-317500D02*
X+2794000Y-508000D01*
X+3175000Y+1206500D02*
X+3175000Y+1524000D01*
X+2794000Y+0D02*
X+2794000Y+1079500D01*
X+2857500Y+1143000D01*
X+3111500Y+1143000D01*
X+3175000Y+1206500D01*
X-1524000Y-508000D02*
X-1397000Y-381000D01*
X-1397000Y+127000D01*
X-1524000Y+1778000D02*
X-1206500Y+1778000D01*
X-1143000Y+1714500D01*
X-1143000Y+1016000D01*
X-1016000Y+889000D01*
X-1016000Y+127000D01*
X+2794000Y-317500D02*
X+2794000Y+0D01*
X-3302000Y+2032000D02*
X-3302000Y+1778000D01*
X-1524000Y-508000D02*
X-1397000Y-635000D01*
X-1397000Y-1079500D01*
X-1460500Y-1143000D01*
X-1587500Y-1143000D01*
X-1651000Y-1206500D01*
X-1651000Y-1333500D01*
X-1587500Y-1397000D01*
X-1460500Y-1397000D01*
X-1397000Y-1460500D01*
X+3302000Y+1143000D02*
X+3238500Y+1143000D01*
X+3175000Y+1206500D01*
X-1524000Y-2794000D02*
X-1397000Y-2667000D01*
X-1397000Y-1460500D01*
X-1333500Y-1397000D01*
X-1333500Y-1270000D01*
D11*
X-698500Y+3556000D03*
X-1968500Y+3302000D03*
X-1270000Y+4762500D03*
X-3175000Y+3302000D03*
X-4508500Y+4699000D03*
X-4508500Y+3556000D03*
X-2032000Y+4762500D03*
X+4508500Y-1778000D03*
X+3175000Y-4699000D03*
X-3175000Y-4699000D03*
X-3429000Y-4699000D03*
X-5016500Y-4699000D03*
X+2794000Y-4953000D03*
X+2540000Y-1460500D03*
X+2540000Y-5143500D03*
X-4826000Y-5143500D03*
X+2667000Y+3175000D03*
X+2921000Y+3048000D03*
X-63500Y+3429000D03*
X-1270000Y+3429000D03*
X+127000Y+3048000D03*
X-381000Y+3048000D03*
X+254000Y+4762500D03*
X+889000Y+3429000D03*
X+1143000Y+4064000D03*
X+381000Y+4064000D03*
X+2159000Y+3556000D03*
X+4318000Y-5143500D03*
X-4953000Y-5270500D03*
X-3048000Y-5270500D03*
X-2476500Y-4064000D03*
X-3175000Y-3810000D03*
X-3111500Y-1778000D03*
X-2476500Y-1778000D03*
X-2476500Y-1460500D03*
X-3175000Y-1524000D03*
X-2159000Y-1397000D03*
X-2603500Y-1587500D03*
X-2286000Y-5270500D03*
X-2032000Y-5270500D03*
X-1270000Y+1651000D03*
X-1651000Y+1270000D03*
X-4508500Y+3175000D03*
X+1016000Y+3175000D03*
X+2032000Y+4762500D03*
X+3429000Y+4762500D03*
X+4762500Y+3048000D03*
X+4762500Y-4572000D03*
X-4318000Y-4826000D03*
X+4635500Y+2794000D03*
X+4635500Y-4889500D03*
X-4572000Y-4953000D03*
X-4064000Y-5270500D03*
X-3810000Y+762000D03*
X-2603500Y+1016000D03*
X-1206500Y-4572000D03*
X-952500Y-4445000D03*
X-889000Y+1270000D03*
X-1397000Y+1270000D03*
X-1016000Y+1016000D03*
X-762000Y+762000D03*
X-190500Y+1016000D03*
X+127000Y+508000D03*
X+127000Y+762000D03*
X-254000Y+762000D03*
X+571500Y+889000D03*
X-508000Y+889000D03*
X+317500Y+1143000D03*
X-127000Y+1270000D03*
X+2921000Y-4953000D03*
X+3238500Y-4953000D03*
X+2286000Y-4318000D03*
X+3937000Y-4826000D03*
X+4889500Y+127000D03*
X+3238500Y+254000D03*
X+5016500Y-4127500D03*
X+4191000Y-4127500D03*
X+889000Y+1016000D03*
X+952500Y+762000D03*
X+1079500Y+508000D03*
X+4762500Y-4889500D03*
X+4635500Y+3429000D03*
X+3302000Y+3429000D03*
X+2730500Y+2286000D03*
X+2159000Y+2286000D03*
X+2667000Y-889000D03*
X+2540000Y-1333500D03*
X+2921000Y+1016000D03*
X+2159000Y+1016000D03*
X+1524000Y-635000D03*
X+381000Y-635000D03*
X+127000Y-4064000D03*
X-1651000Y-3937000D03*
X-1651000Y-4318000D03*
X-4699000Y-4191000D03*
X+63500Y-3048000D03*
X+63500Y-889000D03*
X-4826000Y-5270500D03*
X-508000Y-5207000D03*
X-254000Y-5270500D03*
X+2032000Y-5270500D03*
X+2032000Y-4445000D03*
X+2857500Y-4445000D03*
X+1714500Y-4445000D03*
X+1587500Y-3683000D03*
X-5016500Y-3937000D03*
X-381000Y-2032000D03*
X-381000Y-3175000D03*
X-4889500Y-3556000D03*
X+127000Y-1397000D03*
X+127000Y-2413000D03*
X-5016500Y-2540000D03*
X+3937000Y-4191000D03*
X+381000Y-4699000D03*
X-2159000Y+1651000D03*
X-3175000Y+1778000D03*
X-1714500Y-825500D03*
X+3937000Y-2159000D03*
X+2984500Y-1905000D03*
X-1714500Y-4699000D03*
X+3175000Y-762000D03*
X+3683000Y-762000D03*
X-2413000Y-2794000D03*
X-3175000Y-2794000D03*
X-3492500Y+2286000D03*
X-3937000Y+2286000D03*
X+1079500Y+0D03*
X-3175000Y+2286000D03*
X+1841500Y-2413000D03*
X-4064000Y-381000D03*
X+63500Y-635000D03*
X+254000Y-127000D03*
X-3873500Y-762000D03*
X-3937000Y-3048000D03*
X+3810000Y-4445000D03*
X+127000Y-127000D03*
X+0Y+1397000D03*
X+3556000Y+3683000D03*
X-1714500Y-127000D03*
X+1587500Y+3683000D03*
X-4889500Y-2540000D03*
X+1841500Y-2159000D03*
X+1968500Y-2413000D03*
X+571500Y+1397000D03*
X+952500Y+1524000D03*
X-381000Y+254000D03*
X-3873500Y+1016000D03*
X-1270000Y+2286000D03*
X-2032000Y+2413000D03*
X-2794000Y+2413000D03*
X-3048000Y+2349500D03*
X+508000Y-762000D03*
X-2032000Y-2794000D03*
X-3873500Y-635000D03*
X+127000Y+127000D03*
X+127000Y+1397000D03*
X-3048000Y+1524000D03*
X-4699000Y+4699000D03*
X-4826000Y+3937000D03*
X+1143000Y-2413000D03*
X-1143000Y+4127500D03*
X-1714500Y+4064000D03*
X-3746500Y+2794000D03*
X-2857500Y+3683000D03*
X-3556000Y-381000D03*
X-3429000Y-1397000D03*
X-2159000Y-1016000D03*
X-2159000Y-762000D03*
X-381000Y-635000D03*
X-635000Y+381000D03*
X+3810000Y+381000D03*
X+3492500Y-4826000D03*
X+4064000Y+2540000D03*
X+3937000Y+889000D03*
X-254000Y+1651000D03*
X-762000Y+889000D03*
X-1524000Y+889000D03*
X-1905000Y+889000D03*
X-2286000Y+1143000D03*
X-1968500Y+1143000D03*
X-4889500Y-1143000D03*
X-2603500Y+1143000D03*
X-1333500Y+381000D03*
X-762000Y+1016000D03*
X-762000Y+1270000D03*
X-1397000Y+1397000D03*
X-2095500Y+1397000D03*
X-5016500Y+1524000D03*
X-5016500Y+1270000D03*
X-5016500Y+762000D03*
X-1206500Y+635000D03*
X-1905000Y-1270000D03*
X+254000Y-381000D03*
X+508000Y-381000D03*
X+4254500Y-381000D03*
X+4254500Y+508000D03*
X+5016500Y+508000D03*
X-1651000Y-3556000D03*
X-2032000Y+825500D03*
X-1651000Y+1778000D03*
X+444500Y+1778000D03*
X-698500Y-1524000D03*
X-698500Y-127000D03*
X-4953000Y-190500D03*
X-4953000Y+254000D03*
X-2286000Y+381000D03*
X-2032000Y-2032000D03*
X-1651000Y-2032000D03*
X-4572000Y-4445000D03*
X-3556000Y-4445000D03*
X-3175000Y-4572000D03*
X-2667000Y-4572000D03*
X-2032000Y-4445000D03*
X-698500Y-4572000D03*
X-4826000Y-2159000D03*
X-2476500Y-2159000D03*
X-2032000Y-2159000D03*
X-635000Y-2286000D03*
X+127000Y-1270000D03*
X+508000Y+0D03*
X-4699000Y-2794000D03*
X-3556000Y-2730500D03*
X-3556000Y-889000D03*
X-571500Y-1397000D03*
X-381000Y-1206500D03*
X-571500Y-381000D03*
X+381000Y-2413000D03*
X-4762500Y-2540000D03*
X-1714500Y+127000D03*
X-1778000Y+1651000D03*
X+698500Y+1778000D03*
X+1206500Y+1651000D03*
X+3302000Y+1651000D03*
X+4953000Y+1397000D03*
X+4572000Y-5207000D03*
X-1905000Y-5270500D03*
X-2794000Y-4064000D03*
X+1778000Y+2222500D03*
X+5016500Y+2540000D03*
X+2286000Y+2921000D03*
X+1079500Y+2286000D03*
X+381000Y+2286000D03*
X-4826000Y-1333500D03*
X-4889500Y+1968500D03*
X-3619500Y+1968500D03*
X-2984500Y+1206500D03*
X-3111500Y+508000D03*
X-3937000Y-1778000D03*
X-4000500Y+381000D03*
X-4889500Y+1079500D03*
X-2159000Y+254000D03*
X-2603500Y+889000D03*
X-2540000Y+1651000D03*
X-4889500Y+1778000D03*
X-4381500Y+4572000D03*
X+4953000Y+3683000D03*
X-3937000Y+4318000D03*
X+4826000Y+3556000D03*
X-3810000Y+4254500D03*
X+5016500Y+3302000D03*
X-3873500Y+2921000D03*
X+1016000Y+2921000D03*
X+2286000Y+3429000D03*
X+4826000Y+3175000D03*
X-2476500Y-3238500D03*
X-2476500Y-3556000D03*
X-2857500Y-3683000D03*
X-1460500Y+2159000D03*
X+4889500Y+2032000D03*
X+2349500Y+2794000D03*
X+1079500Y+2540000D03*
X+635000Y+2540000D03*
X-2857500Y-3556000D03*
X+2603500Y+2667000D03*
X+3492500Y+1270000D03*
X-4826000Y+4699000D03*
X+3683000Y+4445000D03*
X-4826000Y+4572000D03*
X+4254500Y+4508500D03*
X+4254500Y+762000D03*
X+3937000Y+762000D03*
X+4064000Y+2032000D03*
X-4635500Y-1778000D03*
X-4762500Y-1587500D03*
X-635000Y-3556000D03*
X-381000Y-3556000D03*
X+381000Y-3175000D03*
X+381000Y-1143000D03*
X+1270000Y-1143000D03*
X+1524000Y-1143000D03*
X+4445000Y-2413000D03*
X+4445000Y-1651000D03*
X+5016500Y-1524000D03*
X-1016000Y-254000D03*
X-1016000Y-3810000D03*
X-635000Y-4064000D03*
X+698500Y+1397000D03*
X+2540000Y+1397000D03*
X+3175000Y-635000D03*
X+5016500Y-762000D03*
X+1016000Y-4191000D03*
X+1206500Y-254000D03*
X+5016500Y-3937000D03*
X-381000Y-3810000D03*
X+1587500Y-3175000D03*
X+2032000Y-1905000D03*
X+1143000Y-2667000D03*
X+1143000Y-3556000D03*
X+1079500Y-3810000D03*
X+1397000Y-254000D03*
X+508000Y-889000D03*
X+5016500Y-889000D03*
X+1714500Y-1143000D03*
X+1587500Y-1397000D03*
X+4064000Y-3683000D03*
X+4064000Y-2921000D03*
X-4508500Y-1270000D03*
X-4508500Y+2286000D03*
X-4889500Y+2730500D03*
X-4508500Y-1397000D03*
X-4889500Y+3810000D03*
X-4889500Y+2921000D03*
X-3429000Y+2032000D03*
X+2794000Y-508000D03*
X-3175000Y-2286000D03*
X-2413000Y-2286000D03*
X+3175000Y-508000D03*
X+3175000Y+1524000D03*
X-1397000Y+127000D03*
X-1016000Y+127000D03*
X-3302000Y+2032000D03*
X-1333500Y-1270000D03*
X+3556000Y+4064000D03*
X-2222500Y-635000D03*
D12*
X-2921000Y+4953000D03*
X-2667000Y+4953000D03*
X-2413000Y+4953000D03*
X-2159000Y+4953000D03*
X-1905000Y+4953000D03*
X-1651000Y+4953000D03*
X-1397000Y+4953000D03*
X-1143000Y+4953000D03*
X-889000Y+4953000D03*
X-635000Y+4953000D03*
X-381000Y+4953000D03*
X-127000Y+4953000D03*
X+127000Y+4953000D03*
X+381000Y+4953000D03*
X+635000Y+4953000D03*
X+889000Y+4953000D03*
X+1143000Y+4953000D03*
X+1397000Y+4953000D03*
X+1651000Y+4953000D03*
X+1905000Y+4953000D03*
X+2159000Y+4953000D03*
X+2413000Y+4953000D03*
X+2667000Y+4953000D03*
X+2921000Y+4953000D03*
X+3175000Y+4953000D03*
X+3429000Y+4953000D03*
X+3683000Y+4953000D03*
X+3937000Y+4953000D03*
X+4191000Y+4953000D03*
X+4445000Y+4953000D03*
X+4699000Y+4953000D03*
X+4953000Y+4953000D03*
X-4953000Y+4953000D03*
X-4699000Y+4953000D03*
X-4445000Y+4953000D03*
X-4191000Y+4953000D03*
X-3937000Y+4953000D03*
X-3683000Y+4953000D03*
X-3429000Y+4953000D03*
X-3175000Y+4953000D03*
X-4953000Y-5461000D03*
X-4699000Y-5461000D03*
X-4445000Y-5461000D03*
X-4191000Y-5461000D03*
X-3937000Y-5461000D03*
X-3683000Y-5461000D03*
X-3429000Y-5461000D03*
X-3175000Y-5461000D03*
X-2921000Y-5461000D03*
X-2667000Y-5461000D03*
X-2413000Y-5461000D03*
X-2159000Y-5461000D03*
X-1905000Y-5461000D03*
X-1651000Y-5461000D03*
X-1397000Y-5461000D03*
X-1143000Y-5461000D03*
X-889000Y-5461000D03*
X-635000Y-5461000D03*
X-381000Y-5461000D03*
X-127000Y-5461000D03*
X+127000Y-5461000D03*
X+381000Y-5461000D03*
X+635000Y-5461000D03*
X+889000Y-5461000D03*
X+1143000Y-5461000D03*
X+1397000Y-5461000D03*
X+1651000Y-5461000D03*
X+1905000Y-5461000D03*
X+2159000Y-5461000D03*
X+2413000Y-5461000D03*
X+2667000Y-5461000D03*
X+2921000Y-5461000D03*
X+3175000Y-5461000D03*
X+3429000Y-5461000D03*
X+3683000Y-5461000D03*
X+3937000Y-5461000D03*
X+4191000Y-5461000D03*
X+4445000Y-5461000D03*
X+4699000Y-5461000D03*
X+4953000Y-5461000D03*
X-5207000Y+4699000D03*
X-5207000Y+4445000D03*
X-5207000Y+4191000D03*
X-5207000Y+3937000D03*
X-5207000Y+3683000D03*
X-5207000Y+3429000D03*
X-5207000Y+3175000D03*
X-5207000Y+2921000D03*
X-5207000Y+2667000D03*
X-5207000Y+2413000D03*
X-5207000Y+2159000D03*
X-5207000Y+1905000D03*
X-5207000Y+1651000D03*
X-5207000Y+1397000D03*
X-5207000Y+1143000D03*
X-5207000Y+889000D03*
X-5207000Y+635000D03*
X-5207000Y+381000D03*
X-5207000Y+127000D03*
X-5207000Y-127000D03*
X-5207000Y-381000D03*
X-5207000Y-635000D03*
X-5207000Y-889000D03*
X-5207000Y-1143000D03*
X-5207000Y-1397000D03*
X-5207000Y-1651000D03*
X-5207000Y-1905000D03*
X-5207000Y-2159000D03*
X-5207000Y-2413000D03*
X-5207000Y-2667000D03*
X-5207000Y-2921000D03*
X-5207000Y-3175000D03*
X-5207000Y-3429000D03*
X-5207000Y-3683000D03*
X-5207000Y-3937000D03*
X-5207000Y-4191000D03*
X-5207000Y-4445000D03*
X-5207000Y-4699000D03*
X-5207000Y-4953000D03*
X-5207000Y-5207000D03*
X+5207000Y+4699000D03*
X+5207000Y+4445000D03*
X+5207000Y+4191000D03*
X+5207000Y+3937000D03*
X+5207000Y+3683000D03*
X+5207000Y+3429000D03*
X+5207000Y+3175000D03*
X+5207000Y+2921000D03*
X+5207000Y+2667000D03*
X+5207000Y+2413000D03*
X+5207000Y+2159000D03*
X+5207000Y+1905000D03*
X+5207000Y+1651000D03*
X+5207000Y+1397000D03*
X+5207000Y+1143000D03*
X+5207000Y+889000D03*
X+5207000Y+635000D03*
X+5207000Y+381000D03*
X+5207000Y+127000D03*
X+5207000Y-127000D03*
X+5207000Y-381000D03*
X+5207000Y-635000D03*
X+5207000Y-889000D03*
X+5207000Y-1143000D03*
X+5207000Y-1397000D03*
X+5207000Y-1651000D03*
X+5207000Y-1905000D03*
X+5207000Y-2159000D03*
X+5207000Y-2413000D03*
X+5207000Y-2667000D03*
X+5207000Y-2921000D03*
X+5207000Y-3175000D03*
X+5207000Y-3429000D03*
X+5207000Y-3683000D03*
X+5207000Y-3937000D03*
X+5207000Y-4191000D03*
X+5207000Y-4445000D03*
X+5207000Y-4699000D03*
X+5207000Y-4953000D03*
X+5207000Y-5207000D03*
D13*
X-4064000Y+4064000D03*
D14*
X-4064000Y+3810000D03*
X-4064000Y+3556000D03*
X-4064000Y+3302000D03*
X-4064000Y+3048000D03*
X-4064000Y+2794000D03*
X-4064000Y+2540000D03*
X-4064000Y+2286000D03*
X-3302000Y+2286000D03*
X-3302000Y+2540000D03*
X-3302000Y+2794000D03*
X-3302000Y+3048000D03*
X-3302000Y+3302000D03*
X-3302000Y+3556000D03*
X-3302000Y+3810000D03*
X-3302000Y+4064000D03*
D13*
X-2286000Y+4064000D03*
D14*
X-2286000Y+3810000D03*
X-2286000Y+3556000D03*
X-2286000Y+3302000D03*
X-2286000Y+3048000D03*
X-2286000Y+2794000D03*
X-2286000Y+2540000D03*
X-2286000Y+2286000D03*
X-1524000Y+2286000D03*
X-1524000Y+2540000D03*
X-1524000Y+2794000D03*
X-1524000Y+3048000D03*
X-1524000Y+3302000D03*
X-1524000Y+3556000D03*
X-1524000Y+3810000D03*
X-1524000Y+4064000D03*
D13*
X-508000Y+4064000D03*
D14*
X-508000Y+3810000D03*
X-508000Y+3556000D03*
X-508000Y+3302000D03*
X-508000Y+3048000D03*
X-508000Y+2794000D03*
X-508000Y+2540000D03*
X-508000Y+2286000D03*
X+254000Y+2286000D03*
X+254000Y+2540000D03*
X+254000Y+2794000D03*
X+254000Y+3048000D03*
X+254000Y+3302000D03*
X+254000Y+3556000D03*
X+254000Y+3810000D03*
X+254000Y+4064000D03*
D13*
X+1270000Y+4064000D03*
D14*
X+1270000Y+3810000D03*
X+1270000Y+3556000D03*
X+1270000Y+3302000D03*
X+1270000Y+3048000D03*
X+1270000Y+2794000D03*
X+1270000Y+2540000D03*
X+1270000Y+2286000D03*
X+2032000Y+2286000D03*
X+2032000Y+2540000D03*
X+2032000Y+2794000D03*
X+2032000Y+3048000D03*
X+2032000Y+3302000D03*
X+2032000Y+3556000D03*
X+2032000Y+3810000D03*
X+2032000Y+4064000D03*
D13*
X-4064000Y+1778000D03*
D14*
X-4064000Y+1524000D03*
X-4064000Y+1270000D03*
X-4064000Y+1016000D03*
X-4064000Y+762000D03*
X-4064000Y+508000D03*
X-4064000Y+254000D03*
X-4064000Y+0D03*
X-3302000Y+0D03*
X-3302000Y+254000D03*
X-3302000Y+508000D03*
X-3302000Y+762000D03*
X-3302000Y+1016000D03*
X-3302000Y+1270000D03*
X-3302000Y+1524000D03*
X-3302000Y+1778000D03*
D13*
X-2286000Y+1778000D03*
D14*
X-2286000Y+1524000D03*
X-2286000Y+1270000D03*
X-2286000Y+1016000D03*
X-2286000Y+762000D03*
X-2286000Y+508000D03*
X-2286000Y+254000D03*
X-2286000Y+0D03*
X-1524000Y+0D03*
X-1524000Y+254000D03*
X-1524000Y+508000D03*
X-1524000Y+762000D03*
X-1524000Y+1016000D03*
X-1524000Y+1270000D03*
X-1524000Y+1524000D03*
X-1524000Y+1778000D03*
D13*
X-508000Y+1778000D03*
D14*
X-508000Y+1524000D03*
X-508000Y+1270000D03*
X-508000Y+1016000D03*
X-508000Y+762000D03*
X-508000Y+508000D03*
X-508000Y+254000D03*
X-508000Y+0D03*
X+254000Y+0D03*
X+254000Y+254000D03*
X+254000Y+508000D03*
X+254000Y+762000D03*
X+254000Y+1016000D03*
X+254000Y+1270000D03*
X+254000Y+1524000D03*
X+254000Y+1778000D03*
D13*
X+3048000Y+1778000D03*
D14*
X+3048000Y+1524000D03*
X+3048000Y+1270000D03*
X+3048000Y+1016000D03*
X+3048000Y+762000D03*
X+3048000Y+508000D03*
X+3048000Y+254000D03*
X+3048000Y+0D03*
X+3810000Y+0D03*
X+3810000Y+254000D03*
X+3810000Y+508000D03*
X+3810000Y+762000D03*
X+3810000Y+1016000D03*
X+3810000Y+1270000D03*
X+3810000Y+1524000D03*
X+3810000Y+1778000D03*
D13*
X-4064000Y-508000D03*
D14*
X-4064000Y-762000D03*
X-4064000Y-1016000D03*
X-4064000Y-1270000D03*
X-4064000Y-1524000D03*
X-4064000Y-1778000D03*
X-4064000Y-2032000D03*
X-4064000Y-2286000D03*
X-3302000Y-2286000D03*
X-3302000Y-2032000D03*
X-3302000Y-1778000D03*
X-3302000Y-1524000D03*
X-3302000Y-1270000D03*
X-3302000Y-1016000D03*
X-3302000Y-762000D03*
X-3302000Y-508000D03*
D13*
X-2286000Y-508000D03*
D14*
X-2286000Y-762000D03*
X-2286000Y-1016000D03*
X-2286000Y-1270000D03*
X-2286000Y-1524000D03*
X-2286000Y-1778000D03*
X-2286000Y-2032000D03*
X-2286000Y-2286000D03*
X-1524000Y-2286000D03*
X-1524000Y-2032000D03*
X-1524000Y-1778000D03*
X-1524000Y-1524000D03*
X-1524000Y-1270000D03*
X-1524000Y-1016000D03*
X-1524000Y-762000D03*
X-1524000Y-508000D03*
D13*
X+1270000Y-508000D03*
D14*
X+1270000Y-762000D03*
X+1270000Y-1016000D03*
X+1270000Y-1270000D03*
X+1270000Y-1524000D03*
X+1270000Y-1778000D03*
X+1270000Y-2032000D03*
X+1270000Y-2286000D03*
X+2032000Y-2286000D03*
X+2032000Y-2032000D03*
X+2032000Y-1778000D03*
X+2032000Y-1524000D03*
X+2032000Y-1270000D03*
X+2032000Y-1016000D03*
X+2032000Y-762000D03*
X+2032000Y-508000D03*
D13*
X+3048000Y-508000D03*
D14*
X+3048000Y-762000D03*
X+3048000Y-1016000D03*
X+3048000Y-1270000D03*
X+3048000Y-1524000D03*
X+3048000Y-1778000D03*
X+3048000Y-2032000D03*
X+3048000Y-2286000D03*
X+3810000Y-2286000D03*
X+3810000Y-2032000D03*
X+3810000Y-1778000D03*
X+3810000Y-1524000D03*
X+3810000Y-1270000D03*
X+3810000Y-1016000D03*
X+3810000Y-762000D03*
X+3810000Y-508000D03*
D13*
X-4064000Y-2794000D03*
D14*
X-4064000Y-3048000D03*
X-4064000Y-3302000D03*
X-4064000Y-3556000D03*
X-4064000Y-3810000D03*
X-4064000Y-4064000D03*
X-4064000Y-4318000D03*
X-4064000Y-4572000D03*
X-3302000Y-4572000D03*
X-3302000Y-4318000D03*
X-3302000Y-4064000D03*
X-3302000Y-3810000D03*
X-3302000Y-3556000D03*
X-3302000Y-3302000D03*
X-3302000Y-3048000D03*
X-3302000Y-2794000D03*
D13*
X-508000Y-2794000D03*
D14*
X-508000Y-3048000D03*
X-508000Y-3302000D03*
X-508000Y-3556000D03*
X-508000Y-3810000D03*
X-508000Y-4064000D03*
X-508000Y-4318000D03*
X-508000Y-4572000D03*
X+254000Y-4572000D03*
X+254000Y-4318000D03*
X+254000Y-4064000D03*
X+254000Y-3810000D03*
X+254000Y-3556000D03*
X+254000Y-3302000D03*
X+254000Y-3048000D03*
X+254000Y-2794000D03*
D13*
X+1270000Y-2794000D03*
D14*
X+1270000Y-3048000D03*
X+1270000Y-3302000D03*
X+1270000Y-3556000D03*
X+1270000Y-3810000D03*
X+1270000Y-4064000D03*
X+1270000Y-4318000D03*
X+1270000Y-4572000D03*
X+2032000Y-4572000D03*
X+2032000Y-4318000D03*
X+2032000Y-4064000D03*
X+2032000Y-3810000D03*
X+2032000Y-3556000D03*
X+2032000Y-3302000D03*
X+2032000Y-3048000D03*
X+2032000Y-2794000D03*
D13*
X+3048000Y-2794000D03*
D14*
X+3048000Y-3048000D03*
X+3048000Y-3302000D03*
X+3048000Y-3556000D03*
X+3048000Y-3810000D03*
X+3048000Y-4064000D03*
X+3048000Y-4318000D03*
X+3048000Y-4572000D03*
X+3810000Y-4572000D03*
X+3810000Y-4318000D03*
X+3810000Y-4064000D03*
X+3810000Y-3810000D03*
X+3810000Y-3556000D03*
X+3810000Y-3302000D03*
X+3810000Y-3048000D03*
X+3810000Y-2794000D03*
D13*
X+3048000Y+4064000D03*
D14*
X+3048000Y+3810000D03*
X+3048000Y+3556000D03*
X+3048000Y+3302000D03*
X+3048000Y+3048000D03*
X+3048000Y+2794000D03*
X+3048000Y+2540000D03*
X+3048000Y+2286000D03*
X+3810000Y+2286000D03*
X+3810000Y+2540000D03*
X+3810000Y+2794000D03*
X+3810000Y+3048000D03*
X+3810000Y+3302000D03*
X+3810000Y+3556000D03*
X+3810000Y+3810000D03*
X+3810000Y+4064000D03*
D13*
X+1270000Y+1778000D03*
D14*
X+1270000Y+1524000D03*
X+1270000Y+1270000D03*
X+1270000Y+1016000D03*
X+1270000Y+762000D03*
X+1270000Y+508000D03*
X+1270000Y+254000D03*
X+1270000Y+0D03*
X+2032000Y+0D03*
X+2032000Y+254000D03*
X+2032000Y+508000D03*
X+2032000Y+762000D03*
X+2032000Y+1016000D03*
X+2032000Y+1270000D03*
X+2032000Y+1524000D03*
X+2032000Y+1778000D03*
D13*
X-508000Y-508000D03*
D14*
X-508000Y-762000D03*
X-508000Y-1016000D03*
X-508000Y-1270000D03*
X-508000Y-1524000D03*
X-508000Y-1778000D03*
X-508000Y-2032000D03*
X-508000Y-2286000D03*
X+254000Y-2286000D03*
X+254000Y-2032000D03*
X+254000Y-1778000D03*
X+254000Y-1524000D03*
X+254000Y-1270000D03*
X+254000Y-1016000D03*
X+254000Y-762000D03*
X+254000Y-508000D03*
D13*
X-2286000Y-2794000D03*
D14*
X-2286000Y-3048000D03*
X-2286000Y-3302000D03*
X-2286000Y-3556000D03*
X-2286000Y-3810000D03*
X-2286000Y-4064000D03*
X-2286000Y-4318000D03*
X-2286000Y-4572000D03*
X-1524000Y-4572000D03*
X-1524000Y-4318000D03*
X-1524000Y-4064000D03*
X-1524000Y-3810000D03*
X-1524000Y-3556000D03*
X-1524000Y-3302000D03*
X-1524000Y-3048000D03*
X-1524000Y-2794000D03*
D15*
X-5461000Y-5715000D02*
X+5461000Y-5715000D01*
X+5461000Y+5207000D01*
X-5461000Y+5207000D01*
X-5461000Y-5715000D01*
M02*
