G04 PROTEUS GERBER X2 FILE*
%TF.GenerationSoftware,Labcenter,Proteus,8.13-SP0-Build31525*%
%TF.CreationDate,2022-07-18T17:11:33+00:00*%
%TF.FileFunction,Legend,Top*%
%TF.FilePolarity,Positive*%
%TF.Part,Single*%
%TF.SameCoordinates,{576ea621-ad59-411c-95cb-525281b3a317}*%
%FSLAX45Y45*%
%MOMM*%
G01*
%TA.AperFunction,Profile*%
%ADD15C,0.203200*%
%TA.AperFunction,Material*%
%ADD16C,0.203200*%
%TD.AperFunction*%
D15*
X-5461000Y-5715000D02*
X+5461000Y-5715000D01*
X+5461000Y+5207000D01*
X-5461000Y+5207000D01*
X-5461000Y-5715000D01*
D16*
X-3048000Y+4826000D02*
X-1016000Y+4826000D01*
X-1016000Y+5080000D01*
X-3048000Y+5080000D01*
X-3048000Y+4826000D01*
X-2286000Y+4643120D02*
X-2286000Y+4627880D01*
X-2270125Y+4612640D01*
X-2206625Y+4612640D01*
X-2190750Y+4627880D01*
X-2190750Y+4704080D01*
X-2143125Y+4658360D02*
X-2063750Y+4658360D01*
X-2032000Y+4612640D02*
X-2032000Y+4673600D01*
X-2000250Y+4704080D01*
X-1968500Y+4704080D01*
X-1936750Y+4673600D01*
X-1936750Y+4612640D01*
X-2032000Y+4643120D02*
X-1936750Y+4643120D01*
X-1809750Y+4627880D02*
X-1825625Y+4612640D01*
X-1873250Y+4612640D01*
X-1905000Y+4643120D01*
X-1905000Y+4673600D01*
X-1873250Y+4704080D01*
X-1825625Y+4704080D01*
X-1809750Y+4688840D01*
X-1016000Y+4826000D02*
X+1016000Y+4826000D01*
X+1016000Y+5080000D01*
X-1016000Y+5080000D01*
X-1016000Y+4826000D01*
X-444500Y+4643120D02*
X-444500Y+4627880D01*
X-428625Y+4612640D01*
X-365125Y+4612640D01*
X-349250Y+4627880D01*
X-349250Y+4704080D01*
X-301625Y+4658360D02*
X-222250Y+4658360D01*
X-190500Y+4612640D02*
X-190500Y+4673600D01*
X-158750Y+4704080D01*
X-127000Y+4704080D01*
X-95250Y+4673600D01*
X-95250Y+4612640D01*
X-190500Y+4643120D02*
X-95250Y+4643120D01*
X+31750Y+4627880D02*
X+15875Y+4612640D01*
X-31750Y+4612640D01*
X-63500Y+4643120D01*
X-63500Y+4673600D01*
X-31750Y+4704080D01*
X+15875Y+4704080D01*
X+31750Y+4688840D01*
X+79375Y+4658360D02*
X+158750Y+4658360D01*
X+190500Y+4612640D02*
X+190500Y+4673600D01*
X+222250Y+4704080D01*
X+254000Y+4704080D01*
X+285750Y+4673600D01*
X+285750Y+4612640D01*
X+190500Y+4643120D02*
X+285750Y+4643120D01*
X+317500Y+4704080D02*
X+412750Y+4704080D01*
X+365125Y+4704080D02*
X+365125Y+4612640D01*
X+1016000Y+4826000D02*
X+3048000Y+4826000D01*
X+3048000Y+5080000D01*
X+1016000Y+5080000D01*
X+1016000Y+4826000D01*
X+1778000Y+4643120D02*
X+1778000Y+4627880D01*
X+1793875Y+4612640D01*
X+1857375Y+4612640D01*
X+1873250Y+4627880D01*
X+1873250Y+4704080D01*
X+1920875Y+4658360D02*
X+2000250Y+4658360D01*
X+2032000Y+4612640D02*
X+2032000Y+4673600D01*
X+2063750Y+4704080D01*
X+2095500Y+4704080D01*
X+2127250Y+4673600D01*
X+2127250Y+4612640D01*
X+2032000Y+4643120D02*
X+2127250Y+4643120D01*
X+2159000Y+4704080D02*
X+2254250Y+4704080D01*
X+2206625Y+4704080D02*
X+2206625Y+4612640D01*
X+3048000Y+4826000D02*
X+5080000Y+4826000D01*
X+5080000Y+5080000D01*
X+3048000Y+5080000D01*
X+3048000Y+4826000D01*
X+3810000Y+4643120D02*
X+3810000Y+4627880D01*
X+3825875Y+4612640D01*
X+3889375Y+4612640D01*
X+3905250Y+4627880D01*
X+3905250Y+4704080D01*
X+3952875Y+4658360D02*
X+4032250Y+4658360D01*
X+4064000Y+4612640D02*
X+4064000Y+4704080D01*
X+4143375Y+4704080D01*
X+4159250Y+4688840D01*
X+4159250Y+4673600D01*
X+4143375Y+4658360D01*
X+4159250Y+4643120D01*
X+4159250Y+4627880D01*
X+4143375Y+4612640D01*
X+4064000Y+4612640D01*
X+4064000Y+4658360D02*
X+4143375Y+4658360D01*
X+4206875Y+4704080D02*
X+4270375Y+4704080D01*
X+4238625Y+4704080D02*
X+4238625Y+4612640D01*
X+4206875Y+4612640D02*
X+4270375Y+4612640D01*
X-5080000Y+4826000D02*
X-3048000Y+4826000D01*
X-3048000Y+5080000D01*
X-5080000Y+5080000D01*
X-5080000Y+4826000D01*
X-4572000Y+4643120D02*
X-4572000Y+4627880D01*
X-4556125Y+4612640D01*
X-4492625Y+4612640D01*
X-4476750Y+4627880D01*
X-4476750Y+4704080D01*
X-4429125Y+4658360D02*
X-4349750Y+4658360D01*
X-4302125Y+4704080D02*
X-4238625Y+4704080D01*
X-4270375Y+4704080D02*
X-4270375Y+4612640D01*
X-4302125Y+4612640D02*
X-4238625Y+4612640D01*
X-4191000Y+4612640D02*
X-4191000Y+4704080D01*
X-4095750Y+4612640D01*
X-4095750Y+4704080D01*
X-4048125Y+4658360D02*
X-3968750Y+4658360D01*
X-3937000Y+4673600D02*
X-3905250Y+4704080D01*
X-3873500Y+4704080D01*
X-3841750Y+4673600D01*
X-3841750Y+4643120D01*
X-3873500Y+4612640D01*
X-3905250Y+4612640D01*
X-3937000Y+4643120D01*
X-3937000Y+4673600D01*
X-3810000Y+4704080D02*
X-3810000Y+4627880D01*
X-3794125Y+4612640D01*
X-3730625Y+4612640D01*
X-3714750Y+4627880D01*
X-3714750Y+4704080D01*
X-3683000Y+4704080D02*
X-3587750Y+4704080D01*
X-3635375Y+4704080D02*
X-3635375Y+4612640D01*
X-5080000Y-5588000D02*
X-3048000Y-5588000D01*
X-3048000Y-5334000D01*
X-5080000Y-5334000D01*
X-5080000Y-5588000D01*
X-4635500Y-5262880D02*
X-4635500Y-5278120D01*
X-4619625Y-5293360D01*
X-4556125Y-5293360D01*
X-4540250Y-5278120D01*
X-4540250Y-5201920D01*
X-4492625Y-5247640D02*
X-4413250Y-5247640D01*
X-4381500Y-5293360D02*
X-4381500Y-5201920D01*
X-4302125Y-5201920D01*
X-4286250Y-5217160D01*
X-4286250Y-5232400D01*
X-4302125Y-5247640D01*
X-4286250Y-5262880D01*
X-4286250Y-5278120D01*
X-4302125Y-5293360D01*
X-4381500Y-5293360D01*
X-4381500Y-5247640D02*
X-4302125Y-5247640D01*
X-4254500Y-5293360D02*
X-4254500Y-5232400D01*
X-4222750Y-5201920D01*
X-4191000Y-5201920D01*
X-4159250Y-5232400D01*
X-4159250Y-5293360D01*
X-4254500Y-5262880D02*
X-4159250Y-5262880D01*
X-4048125Y-5201920D02*
X-4095750Y-5201920D01*
X-4095750Y-5293360D01*
X-4048125Y-5293360D01*
X-4000500Y-5278120D02*
X-4000500Y-5217160D01*
X-3984625Y-5201920D01*
X-3921125Y-5201920D01*
X-3905250Y-5217160D01*
X-3905250Y-5278120D01*
X-3921125Y-5293360D01*
X-3984625Y-5293360D01*
X-4000500Y-5278120D01*
X-4000500Y-5293360D02*
X-3905250Y-5201920D01*
X-3857625Y-5247640D02*
X-3778250Y-5247640D01*
X-3730625Y-5201920D02*
X-3651250Y-5201920D01*
X-3651250Y-5217160D01*
X-3730625Y-5293360D01*
X-3587750Y-5201920D02*
X-3540125Y-5201920D01*
X-3540125Y-5293360D01*
X-3587750Y-5293360D01*
X-3048000Y-5588000D02*
X-1016000Y-5588000D01*
X-1016000Y-5334000D01*
X-3048000Y-5334000D01*
X-3048000Y-5588000D01*
X-2667000Y-5262880D02*
X-2667000Y-5278120D01*
X-2651125Y-5293360D01*
X-2587625Y-5293360D01*
X-2571750Y-5278120D01*
X-2571750Y-5201920D01*
X-2524125Y-5247640D02*
X-2444750Y-5247640D01*
X-2413000Y-5293360D02*
X-2413000Y-5201920D01*
X-2333625Y-5201920D01*
X-2317750Y-5217160D01*
X-2317750Y-5232400D01*
X-2333625Y-5247640D01*
X-2317750Y-5262880D01*
X-2317750Y-5278120D01*
X-2333625Y-5293360D01*
X-2413000Y-5293360D01*
X-2413000Y-5247640D02*
X-2333625Y-5247640D01*
X-2286000Y-5293360D02*
X-2286000Y-5232400D01*
X-2254250Y-5201920D01*
X-2222500Y-5201920D01*
X-2190750Y-5232400D01*
X-2190750Y-5293360D01*
X-2286000Y-5262880D02*
X-2190750Y-5262880D01*
X-2079625Y-5201920D02*
X-2127250Y-5201920D01*
X-2127250Y-5293360D01*
X-2079625Y-5293360D01*
X-2000250Y-5247640D02*
X-2016125Y-5232400D01*
X-2016125Y-5217160D01*
X-2000250Y-5201920D01*
X-1952625Y-5201920D01*
X-1936750Y-5217160D01*
X-1936750Y-5232400D01*
X-1952625Y-5247640D01*
X-2000250Y-5247640D01*
X-2016125Y-5262880D01*
X-2016125Y-5278120D01*
X-2000250Y-5293360D01*
X-1952625Y-5293360D01*
X-1936750Y-5278120D01*
X-1936750Y-5262880D01*
X-1952625Y-5247640D01*
X-1889125Y-5247640D02*
X-1809750Y-5247640D01*
X-1746250Y-5232400D02*
X-1714500Y-5201920D01*
X-1714500Y-5293360D01*
X-1555750Y-5201920D02*
X-1635125Y-5201920D01*
X-1635125Y-5232400D01*
X-1571625Y-5232400D01*
X-1555750Y-5247640D01*
X-1555750Y-5278120D01*
X-1571625Y-5293360D01*
X-1619250Y-5293360D01*
X-1635125Y-5278120D01*
X-1492250Y-5201920D02*
X-1444625Y-5201920D01*
X-1444625Y-5293360D01*
X-1492250Y-5293360D01*
X-1016000Y-5588000D02*
X+1016000Y-5588000D01*
X+1016000Y-5334000D01*
X-1016000Y-5334000D01*
X-1016000Y-5588000D01*
X-254000Y-5262880D02*
X-254000Y-5278120D01*
X-238125Y-5293360D01*
X-174625Y-5293360D01*
X-158750Y-5278120D01*
X-158750Y-5201920D01*
X-111125Y-5247640D02*
X-31750Y-5247640D01*
X+0Y-5293360D02*
X+0Y-5201920D01*
X+79375Y-5201920D01*
X+95250Y-5217160D01*
X+95250Y-5232400D01*
X+79375Y-5247640D01*
X+95250Y-5262880D01*
X+95250Y-5278120D01*
X+79375Y-5293360D01*
X+0Y-5293360D01*
X+0Y-5247640D02*
X+79375Y-5247640D01*
X+127000Y-5293360D02*
X+127000Y-5201920D01*
X+190500Y-5201920D01*
X+222250Y-5232400D01*
X+222250Y-5262880D01*
X+190500Y-5293360D01*
X+127000Y-5293360D01*
X+1016000Y-5588000D02*
X+3048000Y-5588000D01*
X+3048000Y-5334000D01*
X+1016000Y-5334000D01*
X+1016000Y-5588000D01*
X+1460500Y-5262880D02*
X+1460500Y-5278120D01*
X+1476375Y-5293360D01*
X+1539875Y-5293360D01*
X+1555750Y-5278120D01*
X+1555750Y-5201920D01*
X+1603375Y-5247640D02*
X+1682750Y-5247640D01*
X+1714500Y-5293360D02*
X+1714500Y-5201920D01*
X+1793875Y-5201920D01*
X+1809750Y-5217160D01*
X+1809750Y-5232400D01*
X+1793875Y-5247640D01*
X+1809750Y-5262880D01*
X+1809750Y-5278120D01*
X+1793875Y-5293360D01*
X+1714500Y-5293360D01*
X+1714500Y-5247640D02*
X+1793875Y-5247640D01*
X+1841500Y-5201920D02*
X+1841500Y-5278120D01*
X+1857375Y-5293360D01*
X+1920875Y-5293360D01*
X+1936750Y-5278120D01*
X+1936750Y-5201920D01*
X+2047875Y-5201920D02*
X+2000250Y-5201920D01*
X+2000250Y-5293360D01*
X+2047875Y-5293360D01*
X+2095500Y-5278120D02*
X+2095500Y-5217160D01*
X+2111375Y-5201920D01*
X+2174875Y-5201920D01*
X+2190750Y-5217160D01*
X+2190750Y-5278120D01*
X+2174875Y-5293360D01*
X+2111375Y-5293360D01*
X+2095500Y-5278120D01*
X+2095500Y-5293360D02*
X+2190750Y-5201920D01*
X+2238375Y-5247640D02*
X+2317750Y-5247640D01*
X+2365375Y-5201920D02*
X+2444750Y-5201920D01*
X+2444750Y-5217160D01*
X+2365375Y-5293360D01*
X+2508250Y-5201920D02*
X+2555875Y-5201920D01*
X+2555875Y-5293360D01*
X+2508250Y-5293360D01*
X+3048000Y-5588000D02*
X+5080000Y-5588000D01*
X+5080000Y-5334000D01*
X+3048000Y-5334000D01*
X+3048000Y-5588000D01*
X+3429000Y-5262880D02*
X+3429000Y-5278120D01*
X+3444875Y-5293360D01*
X+3508375Y-5293360D01*
X+3524250Y-5278120D01*
X+3524250Y-5201920D01*
X+3571875Y-5247640D02*
X+3651250Y-5247640D01*
X+3683000Y-5293360D02*
X+3683000Y-5201920D01*
X+3762375Y-5201920D01*
X+3778250Y-5217160D01*
X+3778250Y-5232400D01*
X+3762375Y-5247640D01*
X+3778250Y-5262880D01*
X+3778250Y-5278120D01*
X+3762375Y-5293360D01*
X+3683000Y-5293360D01*
X+3683000Y-5247640D02*
X+3762375Y-5247640D01*
X+3810000Y-5201920D02*
X+3810000Y-5278120D01*
X+3825875Y-5293360D01*
X+3889375Y-5293360D01*
X+3905250Y-5278120D01*
X+3905250Y-5201920D01*
X+4016375Y-5201920D02*
X+3968750Y-5201920D01*
X+3968750Y-5293360D01*
X+4016375Y-5293360D01*
X+4095750Y-5247640D02*
X+4079875Y-5232400D01*
X+4079875Y-5217160D01*
X+4095750Y-5201920D01*
X+4143375Y-5201920D01*
X+4159250Y-5217160D01*
X+4159250Y-5232400D01*
X+4143375Y-5247640D01*
X+4095750Y-5247640D01*
X+4079875Y-5262880D01*
X+4079875Y-5278120D01*
X+4095750Y-5293360D01*
X+4143375Y-5293360D01*
X+4159250Y-5278120D01*
X+4159250Y-5262880D01*
X+4143375Y-5247640D01*
X+4206875Y-5247640D02*
X+4286250Y-5247640D01*
X+4349750Y-5232400D02*
X+4381500Y-5201920D01*
X+4381500Y-5293360D01*
X+4540250Y-5201920D02*
X+4460875Y-5201920D01*
X+4460875Y-5232400D01*
X+4524375Y-5232400D01*
X+4540250Y-5247640D01*
X+4540250Y-5278120D01*
X+4524375Y-5293360D01*
X+4476750Y-5293360D01*
X+4460875Y-5278120D01*
X+4603750Y-5201920D02*
X+4651375Y-5201920D01*
X+4651375Y-5293360D01*
X+4603750Y-5293360D01*
X-5334000Y+2794000D02*
X-5080000Y+2794000D01*
X-5080000Y+4826000D01*
X-5334000Y+4826000D01*
X-5334000Y+2794000D01*
X-4978400Y+3175000D02*
X-4963160Y+3175000D01*
X-4947920Y+3190875D01*
X-4947920Y+3254375D01*
X-4963160Y+3270250D01*
X-5039360Y+3270250D01*
X-4993640Y+3317875D02*
X-4993640Y+3397250D01*
X-4963160Y+3429000D02*
X-4947920Y+3444875D01*
X-4947920Y+3508375D01*
X-4963160Y+3524250D01*
X-4978400Y+3524250D01*
X-4993640Y+3508375D01*
X-4993640Y+3444875D01*
X-5008880Y+3429000D01*
X-5024120Y+3429000D01*
X-5039360Y+3444875D01*
X-5039360Y+3508375D01*
X-5024120Y+3524250D01*
X-4963160Y+3651250D02*
X-4947920Y+3635375D01*
X-4947920Y+3587750D01*
X-4978400Y+3556000D01*
X-5008880Y+3556000D01*
X-5039360Y+3587750D01*
X-5039360Y+3635375D01*
X-5024120Y+3651250D01*
X-4993640Y+3698875D02*
X-4993640Y+3778250D01*
X-4963160Y+3810000D02*
X-4947920Y+3825875D01*
X-4947920Y+3889375D01*
X-4963160Y+3905250D01*
X-4978400Y+3905250D01*
X-4993640Y+3889375D01*
X-4993640Y+3825875D01*
X-5008880Y+3810000D01*
X-5024120Y+3810000D01*
X-5039360Y+3825875D01*
X-5039360Y+3889375D01*
X-5024120Y+3905250D01*
X-4947920Y+3937000D02*
X-5039360Y+3937000D01*
X-5039360Y+4000500D01*
X-5008880Y+4032250D01*
X-4978400Y+4032250D01*
X-4947920Y+4000500D01*
X-4947920Y+3937000D01*
X-4993640Y+4079875D02*
X-4993640Y+4159250D01*
X-4963160Y+4191000D02*
X-4947920Y+4206875D01*
X-4947920Y+4270375D01*
X-4963160Y+4286250D01*
X-4978400Y+4286250D01*
X-4993640Y+4270375D01*
X-4993640Y+4206875D01*
X-5008880Y+4191000D01*
X-5024120Y+4191000D01*
X-5039360Y+4206875D01*
X-5039360Y+4270375D01*
X-5024120Y+4286250D01*
X-4963160Y+4318000D02*
X-4947920Y+4333875D01*
X-4947920Y+4397375D01*
X-4963160Y+4413250D01*
X-4978400Y+4413250D01*
X-4993640Y+4397375D01*
X-4993640Y+4333875D01*
X-5008880Y+4318000D01*
X-5024120Y+4318000D01*
X-5039360Y+4333875D01*
X-5039360Y+4397375D01*
X-5024120Y+4413250D01*
X-5334000Y+762000D02*
X-5080000Y+762000D01*
X-5080000Y+2794000D01*
X-5334000Y+2794000D01*
X-5334000Y+762000D01*
X-4978400Y+1333500D02*
X-4963160Y+1333500D01*
X-4947920Y+1349375D01*
X-4947920Y+1412875D01*
X-4963160Y+1428750D01*
X-5039360Y+1428750D01*
X-4993640Y+1476375D02*
X-4993640Y+1555750D01*
X-4947920Y+1587500D02*
X-5039360Y+1587500D01*
X-5039360Y+1666875D01*
X-5024120Y+1682750D01*
X-5008880Y+1682750D01*
X-4993640Y+1666875D01*
X-4993640Y+1587500D01*
X-4993640Y+1666875D02*
X-4978400Y+1682750D01*
X-4947920Y+1682750D01*
X-4947920Y+1714500D02*
X-5039360Y+1714500D01*
X-5039360Y+1793875D01*
X-5024120Y+1809750D01*
X-5008880Y+1809750D01*
X-4993640Y+1793875D01*
X-4993640Y+1714500D01*
X-4993640Y+1857375D02*
X-4993640Y+1936750D01*
X-4947920Y+1968500D02*
X-5039360Y+1968500D01*
X-5039360Y+2047875D01*
X-5024120Y+2063750D01*
X-5008880Y+2063750D01*
X-4993640Y+2047875D01*
X-4993640Y+1968500D01*
X-4993640Y+2047875D02*
X-4978400Y+2063750D01*
X-4947920Y+2063750D01*
X-4963160Y+2095500D02*
X-4947920Y+2111375D01*
X-4947920Y+2174875D01*
X-4963160Y+2190750D01*
X-4978400Y+2190750D01*
X-4993640Y+2174875D01*
X-4993640Y+2111375D01*
X-5008880Y+2095500D01*
X-5024120Y+2095500D01*
X-5039360Y+2111375D01*
X-5039360Y+2174875D01*
X-5024120Y+2190750D01*
X-5334000Y-1270000D02*
X-5080000Y-1270000D01*
X-5080000Y+762000D01*
X-5334000Y+762000D01*
X-5334000Y-1270000D01*
X-4978400Y-889000D02*
X-4963160Y-889000D01*
X-4947920Y-873125D01*
X-4947920Y-809625D01*
X-4963160Y-793750D01*
X-5039360Y-793750D01*
X-4993640Y-746125D02*
X-4993640Y-666750D01*
X-4947920Y-635000D02*
X-5039360Y-635000D01*
X-5039360Y-555625D01*
X-5024120Y-539750D01*
X-5008880Y-539750D01*
X-4993640Y-555625D01*
X-4993640Y-635000D01*
X-4993640Y-555625D02*
X-4978400Y-539750D01*
X-4947920Y-539750D01*
X-4947920Y-508000D02*
X-5008880Y-508000D01*
X-5039360Y-476250D01*
X-5039360Y-444500D01*
X-5008880Y-412750D01*
X-4947920Y-412750D01*
X-4978400Y-508000D02*
X-4978400Y-412750D01*
X-4993640Y-365125D02*
X-4993640Y-285750D01*
X-4947920Y-254000D02*
X-5039360Y-254000D01*
X-5039360Y-174625D01*
X-5024120Y-158750D01*
X-5008880Y-158750D01*
X-4993640Y-174625D01*
X-4993640Y-254000D01*
X-4993640Y-174625D02*
X-4978400Y-158750D01*
X-4947920Y-158750D01*
X-4947920Y-127000D02*
X-5039360Y-127000D01*
X-5039360Y-47625D01*
X-5024120Y-31750D01*
X-5008880Y-31750D01*
X-4993640Y-47625D01*
X-4978400Y-31750D01*
X-4963160Y-31750D01*
X-4947920Y-47625D01*
X-4947920Y-127000D01*
X-4993640Y-127000D02*
X-4993640Y-47625D01*
X-4993640Y+15875D02*
X-4993640Y+95250D01*
X-4947920Y+127000D02*
X-5039360Y+127000D01*
X-5039360Y+206375D01*
X-5024120Y+222250D01*
X-5008880Y+222250D01*
X-4993640Y+206375D01*
X-4993640Y+127000D01*
X-4993640Y+206375D02*
X-4978400Y+222250D01*
X-4947920Y+222250D01*
X-4963160Y+349250D02*
X-4947920Y+333375D01*
X-4947920Y+285750D01*
X-4978400Y+254000D01*
X-5008880Y+254000D01*
X-5039360Y+285750D01*
X-5039360Y+333375D01*
X-5024120Y+349250D01*
X-5334000Y-3302000D02*
X-5080000Y-3302000D01*
X-5080000Y-1270000D01*
X-5334000Y-1270000D01*
X-5334000Y-3302000D01*
X-4978400Y-3048000D02*
X-4963160Y-3048000D01*
X-4947920Y-3032125D01*
X-4947920Y-2968625D01*
X-4963160Y-2952750D01*
X-5039360Y-2952750D01*
X-4993640Y-2905125D02*
X-4993640Y-2825750D01*
X-4947920Y-2794000D02*
X-5039360Y-2794000D01*
X-5039360Y-2714625D01*
X-5024120Y-2698750D01*
X-5008880Y-2698750D01*
X-4993640Y-2714625D01*
X-4993640Y-2794000D01*
X-4993640Y-2714625D02*
X-4978400Y-2698750D01*
X-4947920Y-2698750D01*
X-4947920Y-2667000D02*
X-5039360Y-2667000D01*
X-5039360Y-2603500D01*
X-5008880Y-2571750D01*
X-4978400Y-2571750D01*
X-4947920Y-2603500D01*
X-4947920Y-2667000D01*
X-4993640Y-2524125D02*
X-4993640Y-2444750D01*
X-4947920Y-2413000D02*
X-5039360Y-2413000D01*
X-4993640Y-2365375D01*
X-5039360Y-2317750D01*
X-4947920Y-2317750D01*
X-4947920Y-2190750D02*
X-4947920Y-2286000D01*
X-5039360Y-2286000D01*
X-5039360Y-2190750D01*
X-4993640Y-2286000D02*
X-4993640Y-2222500D01*
X-4947920Y-2159000D02*
X-5039360Y-2159000D01*
X-4993640Y-2111375D01*
X-5039360Y-2063750D01*
X-4947920Y-2063750D01*
X-4993640Y-2016125D02*
X-4993640Y-1936750D01*
X-4963160Y-1809750D02*
X-4947920Y-1825625D01*
X-4947920Y-1873250D01*
X-4978400Y-1905000D01*
X-5008880Y-1905000D01*
X-5039360Y-1873250D01*
X-5039360Y-1825625D01*
X-5024120Y-1809750D01*
X-4947920Y-1778000D02*
X-5039360Y-1778000D01*
X-5039360Y-1682750D02*
X-4947920Y-1682750D01*
X-4993640Y-1778000D02*
X-4993640Y-1682750D01*
X-5039360Y-1651000D02*
X-4947920Y-1651000D01*
X-5039360Y-1555750D02*
X-4993640Y-1603375D01*
X-4947920Y-1555750D01*
X-4993640Y-1651000D02*
X-4993640Y-1603375D01*
X-5334000Y-5334000D02*
X-5080000Y-5334000D01*
X-5080000Y-3302000D01*
X-5334000Y-3302000D01*
X-5334000Y-5334000D01*
X-4978400Y-4889500D02*
X-4963160Y-4889500D01*
X-4947920Y-4873625D01*
X-4947920Y-4810125D01*
X-4963160Y-4794250D01*
X-5039360Y-4794250D01*
X-4993640Y-4746625D02*
X-4993640Y-4667250D01*
X-4963160Y-4540250D02*
X-4947920Y-4556125D01*
X-4947920Y-4603750D01*
X-4978400Y-4635500D01*
X-5008880Y-4635500D01*
X-5039360Y-4603750D01*
X-5039360Y-4556125D01*
X-5024120Y-4540250D01*
X-4947920Y-4508500D02*
X-5039360Y-4508500D01*
X-5039360Y-4413250D02*
X-4947920Y-4413250D01*
X-4993640Y-4508500D02*
X-4993640Y-4413250D01*
X-5039360Y-4381500D02*
X-4947920Y-4381500D01*
X-5039360Y-4286250D02*
X-4993640Y-4333875D01*
X-4947920Y-4286250D01*
X-4993640Y-4381500D02*
X-4993640Y-4333875D01*
X-4993640Y-4238625D02*
X-4993640Y-4159250D01*
X-4947920Y-4127500D02*
X-5008880Y-4127500D01*
X-5039360Y-4095750D01*
X-5039360Y-4064000D01*
X-5008880Y-4032250D01*
X-4947920Y-4032250D01*
X-4978400Y-4127500D02*
X-4978400Y-4032250D01*
X-5039360Y-4000500D02*
X-4947920Y-4000500D01*
X-4947920Y-3905250D01*
X-5039360Y-3873500D02*
X-4963160Y-3873500D01*
X-4947920Y-3857625D01*
X-4947920Y-3794125D01*
X-4963160Y-3778250D01*
X-5039360Y-3778250D01*
X+5080000Y+2794000D02*
X+5334000Y+2794000D01*
X+5334000Y+4826000D01*
X+5080000Y+4826000D01*
X+5080000Y+2794000D01*
X+4927600Y+3302000D02*
X+4942840Y+3302000D01*
X+4958080Y+3317875D01*
X+4958080Y+3381375D01*
X+4942840Y+3397250D01*
X+4866640Y+3397250D01*
X+4912360Y+3444875D02*
X+4912360Y+3524250D01*
X+4958080Y+3556000D02*
X+4897120Y+3556000D01*
X+4866640Y+3587750D01*
X+4866640Y+3619500D01*
X+4897120Y+3651250D01*
X+4958080Y+3651250D01*
X+4927600Y+3556000D02*
X+4927600Y+3651250D01*
X+4866640Y+3683000D02*
X+4958080Y+3683000D01*
X+4958080Y+3778250D01*
X+4866640Y+3810000D02*
X+4942840Y+3810000D01*
X+4958080Y+3825875D01*
X+4958080Y+3889375D01*
X+4942840Y+3905250D01*
X+4866640Y+3905250D01*
X+4912360Y+3952875D02*
X+4912360Y+4032250D01*
X+4958080Y+4064000D02*
X+4866640Y+4064000D01*
X+4866640Y+4143375D01*
X+4881880Y+4159250D01*
X+4897120Y+4159250D01*
X+4912360Y+4143375D01*
X+4912360Y+4064000D01*
X+4912360Y+4143375D02*
X+4927600Y+4159250D01*
X+4958080Y+4159250D01*
X+4866640Y+4191000D02*
X+4866640Y+4286250D01*
X+4866640Y+4238625D02*
X+4958080Y+4238625D01*
X+5080000Y+762000D02*
X+5334000Y+762000D01*
X+5334000Y+2794000D01*
X+5080000Y+2794000D01*
X+5080000Y+762000D01*
X+4927600Y+825500D02*
X+4942840Y+825500D01*
X+4958080Y+841375D01*
X+4958080Y+904875D01*
X+4942840Y+920750D01*
X+4866640Y+920750D01*
X+4912360Y+968375D02*
X+4912360Y+1047750D01*
X+4958080Y+1079500D02*
X+4866640Y+1079500D01*
X+4866640Y+1158875D01*
X+4881880Y+1174750D01*
X+4897120Y+1174750D01*
X+4912360Y+1158875D01*
X+4912360Y+1079500D01*
X+4912360Y+1158875D02*
X+4927600Y+1174750D01*
X+4958080Y+1174750D01*
X+4866640Y+1222375D02*
X+4866640Y+1285875D01*
X+4866640Y+1254125D02*
X+4958080Y+1254125D01*
X+4958080Y+1222375D02*
X+4958080Y+1285875D01*
X+4912360Y+1349375D02*
X+4912360Y+1428750D01*
X+4958080Y+1460500D02*
X+4866640Y+1460500D01*
X+4866640Y+1539875D01*
X+4881880Y+1555750D01*
X+4897120Y+1555750D01*
X+4912360Y+1539875D01*
X+4912360Y+1460500D01*
X+4912360Y+1539875D02*
X+4927600Y+1555750D01*
X+4958080Y+1555750D01*
X+4958080Y+1587500D02*
X+4866640Y+1587500D01*
X+4866640Y+1682750D01*
X+4912360Y+1587500D02*
X+4912360Y+1651000D01*
X+4912360Y+1730375D02*
X+4912360Y+1809750D01*
X+4958080Y+1841500D02*
X+4866640Y+1841500D01*
X+4866640Y+1920875D01*
X+4881880Y+1936750D01*
X+4897120Y+1936750D01*
X+4912360Y+1920875D01*
X+4912360Y+1841500D01*
X+4912360Y+1920875D02*
X+4927600Y+1936750D01*
X+4958080Y+1936750D01*
X+4958080Y+1968500D02*
X+4897120Y+1968500D01*
X+4866640Y+2000250D01*
X+4866640Y+2032000D01*
X+4897120Y+2063750D01*
X+4958080Y+2063750D01*
X+4927600Y+1968500D02*
X+4927600Y+2063750D01*
X+4866640Y+2095500D02*
X+4958080Y+2095500D01*
X+4958080Y+2190750D01*
X+4912360Y+2238375D02*
X+4912360Y+2317750D01*
X+4958080Y+2349500D02*
X+4866640Y+2349500D01*
X+4866640Y+2428875D01*
X+4881880Y+2444750D01*
X+4897120Y+2444750D01*
X+4912360Y+2428875D01*
X+4912360Y+2349500D01*
X+4912360Y+2428875D02*
X+4927600Y+2444750D01*
X+4958080Y+2444750D01*
X+4958080Y+2476500D02*
X+4897120Y+2476500D01*
X+4866640Y+2508250D01*
X+4866640Y+2540000D01*
X+4897120Y+2571750D01*
X+4958080Y+2571750D01*
X+4927600Y+2476500D02*
X+4927600Y+2571750D01*
X+4958080Y+2603500D02*
X+4866640Y+2603500D01*
X+4866640Y+2698750D02*
X+4958080Y+2698750D01*
X+4912360Y+2603500D02*
X+4912360Y+2698750D01*
X+5080000Y-1270000D02*
X+5334000Y-1270000D01*
X+5334000Y+762000D01*
X+5080000Y+762000D01*
X+5080000Y-1270000D01*
X+4927600Y-1079500D02*
X+4942840Y-1079500D01*
X+4958080Y-1063625D01*
X+4958080Y-1000125D01*
X+4942840Y-984250D01*
X+4866640Y-984250D01*
X+4912360Y-936625D02*
X+4912360Y-857250D01*
X+4942840Y-825500D02*
X+4958080Y-809625D01*
X+4958080Y-746125D01*
X+4942840Y-730250D01*
X+4927600Y-730250D01*
X+4912360Y-746125D01*
X+4912360Y-809625D01*
X+4897120Y-825500D01*
X+4881880Y-825500D01*
X+4866640Y-809625D01*
X+4866640Y-746125D01*
X+4881880Y-730250D01*
X+4866640Y-682625D02*
X+4866640Y-619125D01*
X+4866640Y-650875D02*
X+4958080Y-650875D01*
X+4958080Y-682625D02*
X+4958080Y-619125D01*
X+4927600Y-508000D02*
X+4927600Y-476250D01*
X+4958080Y-476250D01*
X+4958080Y-539750D01*
X+4927600Y-571500D01*
X+4897120Y-571500D01*
X+4866640Y-539750D01*
X+4866640Y-492125D01*
X+4881880Y-476250D01*
X+4912360Y-428625D02*
X+4912360Y-349250D01*
X+4958080Y-317500D02*
X+4866640Y-317500D01*
X+4866640Y-254000D01*
X+4897120Y-222250D01*
X+4927600Y-222250D01*
X+4958080Y-254000D01*
X+4958080Y-317500D01*
X+4958080Y-95250D02*
X+4958080Y-190500D01*
X+4866640Y-190500D01*
X+4866640Y-95250D01*
X+4912360Y-190500D02*
X+4912360Y-127000D01*
X+4866640Y-63500D02*
X+4912360Y-63500D01*
X+4958080Y-15875D01*
X+4912360Y+31750D01*
X+4866640Y+31750D01*
X+4912360Y+79375D02*
X+4912360Y+158750D01*
X+4958080Y+190500D02*
X+4866640Y+190500D01*
X+4866640Y+269875D01*
X+4881880Y+285750D01*
X+4897120Y+285750D01*
X+4912360Y+269875D01*
X+4912360Y+190500D01*
X+4912360Y+269875D02*
X+4927600Y+285750D01*
X+4958080Y+285750D01*
X+4897120Y+317500D02*
X+4866640Y+349250D01*
X+4866640Y+381000D01*
X+4897120Y+412750D01*
X+4927600Y+412750D01*
X+4958080Y+381000D01*
X+4958080Y+349250D01*
X+4927600Y+317500D01*
X+4897120Y+317500D01*
X+4958080Y+444500D02*
X+4866640Y+444500D01*
X+4912360Y+492125D01*
X+4866640Y+539750D01*
X+4958080Y+539750D01*
X+5080000Y-3302000D02*
X+5334000Y-3302000D01*
X+5334000Y-1270000D01*
X+5080000Y-1270000D01*
X+5080000Y-3302000D01*
X+4927600Y-2857500D02*
X+4942840Y-2857500D01*
X+4958080Y-2841625D01*
X+4958080Y-2778125D01*
X+4942840Y-2762250D01*
X+4866640Y-2762250D01*
X+4912360Y-2714625D02*
X+4912360Y-2635250D01*
X+4958080Y-2603500D02*
X+4866640Y-2603500D01*
X+4866640Y-2524125D01*
X+4881880Y-2508250D01*
X+4897120Y-2508250D01*
X+4912360Y-2524125D01*
X+4912360Y-2603500D01*
X+4912360Y-2524125D02*
X+4927600Y-2508250D01*
X+4958080Y-2508250D01*
X+4958080Y-2476500D02*
X+4897120Y-2476500D01*
X+4866640Y-2444750D01*
X+4866640Y-2413000D01*
X+4897120Y-2381250D01*
X+4958080Y-2381250D01*
X+4927600Y-2476500D02*
X+4927600Y-2381250D01*
X+4958080Y-2349500D02*
X+4866640Y-2349500D01*
X+4912360Y-2301875D01*
X+4866640Y-2254250D01*
X+4958080Y-2254250D01*
X+4912360Y-2206625D02*
X+4912360Y-2127250D01*
X+4942840Y-2095500D02*
X+4958080Y-2079625D01*
X+4958080Y-2016125D01*
X+4942840Y-2000250D01*
X+4927600Y-2000250D01*
X+4912360Y-2016125D01*
X+4912360Y-2079625D01*
X+4897120Y-2095500D01*
X+4881880Y-2095500D01*
X+4866640Y-2079625D01*
X+4866640Y-2016125D01*
X+4881880Y-2000250D01*
X+4958080Y-1873250D02*
X+4958080Y-1968500D01*
X+4866640Y-1968500D01*
X+4866640Y-1873250D01*
X+4912360Y-1968500D02*
X+4912360Y-1905000D01*
X+4866640Y-1841500D02*
X+4958080Y-1841500D01*
X+4958080Y-1746250D01*
X+5080000Y-5334000D02*
X+5334000Y-5334000D01*
X+5334000Y-3302000D01*
X+5080000Y-3302000D01*
X+5080000Y-5334000D01*
X+4927600Y-4635500D02*
X+4942840Y-4635500D01*
X+4958080Y-4619625D01*
X+4958080Y-4556125D01*
X+4942840Y-4540250D01*
X+4866640Y-4540250D01*
X+4912360Y-4492625D02*
X+4912360Y-4413250D01*
X+4866640Y-4381500D02*
X+4912360Y-4381500D01*
X+4958080Y-4333875D01*
X+4912360Y-4286250D01*
X+4866640Y-4286250D01*
X+4942840Y-4159250D02*
X+4958080Y-4175125D01*
X+4958080Y-4222750D01*
X+4927600Y-4254500D01*
X+4897120Y-4254500D01*
X+4866640Y-4222750D01*
X+4866640Y-4175125D01*
X+4881880Y-4159250D01*
X+4942840Y-4032250D02*
X+4958080Y-4048125D01*
X+4958080Y-4095750D01*
X+4927600Y-4127500D01*
X+4897120Y-4127500D01*
X+4866640Y-4095750D01*
X+4866640Y-4048125D01*
X+4881880Y-4032250D01*
X-3937000Y+4191000D02*
X-3810000Y+4191000D01*
X-3683000Y+4064000D02*
X-3657124Y+4066436D01*
X-3633152Y+4073485D01*
X-3611562Y+4084762D01*
X-3592830Y+4099878D01*
X-3577431Y+4118446D01*
X-3565842Y+4140081D01*
X-3558540Y+4164394D01*
X-3556000Y+4191000D01*
X-3683000Y+4064000D02*
X-3709606Y+4066436D01*
X-3733919Y+4073485D01*
X-3755554Y+4084762D01*
X-3774122Y+4099878D01*
X-3789238Y+4118446D01*
X-3800515Y+4140081D01*
X-3807564Y+4164394D01*
X-3810000Y+4191000D01*
X-3556000Y+4191000D02*
X-3429000Y+4191000D01*
X-3937000Y+2159000D02*
X-3429000Y+2159000D01*
X-3937000Y+4191000D02*
X-3937000Y+2159000D01*
X-3429000Y+2159000D02*
X-3429000Y+4191000D01*
X-3937000Y+4292600D02*
X-3905250Y+4323080D01*
X-3873500Y+4323080D01*
X-3841750Y+4292600D01*
X-3841750Y+4262120D01*
X-3873500Y+4231640D01*
X-3905250Y+4231640D01*
X-3937000Y+4262120D01*
X-3937000Y+4292600D01*
X-3810000Y+4323080D02*
X-3810000Y+4246880D01*
X-3794125Y+4231640D01*
X-3730625Y+4231640D01*
X-3714750Y+4246880D01*
X-3714750Y+4323080D01*
X-3683000Y+4323080D02*
X-3587750Y+4323080D01*
X-3635375Y+4323080D02*
X-3635375Y+4231640D01*
X-3556000Y+4246880D02*
X-3556000Y+4307840D01*
X-3540125Y+4323080D01*
X-3476625Y+4323080D01*
X-3460750Y+4307840D01*
X-3460750Y+4246880D01*
X-3476625Y+4231640D01*
X-3540125Y+4231640D01*
X-3556000Y+4246880D01*
X-3556000Y+4231640D02*
X-3460750Y+4323080D01*
X-2159000Y+4191000D02*
X-2032000Y+4191000D01*
X-1905000Y+4064000D02*
X-1879124Y+4066436D01*
X-1855152Y+4073485D01*
X-1833562Y+4084762D01*
X-1814830Y+4099878D01*
X-1799431Y+4118446D01*
X-1787842Y+4140081D01*
X-1780540Y+4164394D01*
X-1778000Y+4191000D01*
X-1905000Y+4064000D02*
X-1931606Y+4066436D01*
X-1955919Y+4073485D01*
X-1977554Y+4084762D01*
X-1996122Y+4099878D01*
X-2011238Y+4118446D01*
X-2022515Y+4140081D01*
X-2029564Y+4164394D01*
X-2032000Y+4191000D01*
X-1778000Y+4191000D02*
X-1651000Y+4191000D01*
X-2159000Y+2159000D02*
X-1651000Y+2159000D01*
X-2159000Y+4191000D02*
X-2159000Y+2159000D01*
X-1651000Y+2159000D02*
X-1651000Y+4191000D01*
X-2159000Y+4292600D02*
X-2127250Y+4323080D01*
X-2095500Y+4323080D01*
X-2063750Y+4292600D01*
X-2063750Y+4262120D01*
X-2095500Y+4231640D01*
X-2127250Y+4231640D01*
X-2159000Y+4262120D01*
X-2159000Y+4292600D01*
X-2032000Y+4323080D02*
X-2032000Y+4246880D01*
X-2016125Y+4231640D01*
X-1952625Y+4231640D01*
X-1936750Y+4246880D01*
X-1936750Y+4323080D01*
X-1905000Y+4323080D02*
X-1809750Y+4323080D01*
X-1857375Y+4323080D02*
X-1857375Y+4231640D01*
X-1746250Y+4292600D02*
X-1714500Y+4323080D01*
X-1714500Y+4231640D01*
X-381000Y+4191000D02*
X-254000Y+4191000D01*
X-127000Y+4064000D02*
X-101124Y+4066436D01*
X-77152Y+4073485D01*
X-55562Y+4084762D01*
X-36830Y+4099878D01*
X-21431Y+4118446D01*
X-9842Y+4140081D01*
X-2540Y+4164394D01*
X+0Y+4191000D01*
X-127000Y+4064000D02*
X-153606Y+4066436D01*
X-177919Y+4073485D01*
X-199554Y+4084762D01*
X-218122Y+4099878D01*
X-233238Y+4118446D01*
X-244515Y+4140081D01*
X-251564Y+4164394D01*
X-254000Y+4191000D01*
X+0Y+4191000D02*
X+127000Y+4191000D01*
X-381000Y+2159000D02*
X+127000Y+2159000D01*
X-381000Y+4191000D02*
X-381000Y+2159000D01*
X+127000Y+2159000D02*
X+127000Y+4191000D01*
X-381000Y+4292600D02*
X-349250Y+4323080D01*
X-317500Y+4323080D01*
X-285750Y+4292600D01*
X-285750Y+4262120D01*
X-317500Y+4231640D01*
X-349250Y+4231640D01*
X-381000Y+4262120D01*
X-381000Y+4292600D01*
X-254000Y+4323080D02*
X-254000Y+4246880D01*
X-238125Y+4231640D01*
X-174625Y+4231640D01*
X-158750Y+4246880D01*
X-158750Y+4323080D01*
X-127000Y+4323080D02*
X-31750Y+4323080D01*
X-79375Y+4323080D02*
X-79375Y+4231640D01*
X+15875Y+4307840D02*
X+31750Y+4323080D01*
X+79375Y+4323080D01*
X+95250Y+4307840D01*
X+95250Y+4292600D01*
X+79375Y+4277360D01*
X+31750Y+4277360D01*
X+15875Y+4262120D01*
X+15875Y+4231640D01*
X+95250Y+4231640D01*
X+1397000Y+4191000D02*
X+1524000Y+4191000D01*
X+1651000Y+4064000D02*
X+1676876Y+4066436D01*
X+1700848Y+4073485D01*
X+1722438Y+4084762D01*
X+1741170Y+4099878D01*
X+1756569Y+4118446D01*
X+1768158Y+4140081D01*
X+1775460Y+4164394D01*
X+1778000Y+4191000D01*
X+1651000Y+4064000D02*
X+1624394Y+4066436D01*
X+1600081Y+4073485D01*
X+1578446Y+4084762D01*
X+1559878Y+4099878D01*
X+1544762Y+4118446D01*
X+1533485Y+4140081D01*
X+1526436Y+4164394D01*
X+1524000Y+4191000D01*
X+1778000Y+4191000D02*
X+1905000Y+4191000D01*
X+1397000Y+2159000D02*
X+1905000Y+2159000D01*
X+1397000Y+4191000D02*
X+1397000Y+2159000D01*
X+1905000Y+2159000D02*
X+1905000Y+4191000D01*
X+1397000Y+4292600D02*
X+1428750Y+4323080D01*
X+1460500Y+4323080D01*
X+1492250Y+4292600D01*
X+1492250Y+4262120D01*
X+1460500Y+4231640D01*
X+1428750Y+4231640D01*
X+1397000Y+4262120D01*
X+1397000Y+4292600D01*
X+1524000Y+4323080D02*
X+1524000Y+4246880D01*
X+1539875Y+4231640D01*
X+1603375Y+4231640D01*
X+1619250Y+4246880D01*
X+1619250Y+4323080D01*
X+1651000Y+4323080D02*
X+1746250Y+4323080D01*
X+1698625Y+4323080D02*
X+1698625Y+4231640D01*
X+1793875Y+4307840D02*
X+1809750Y+4323080D01*
X+1857375Y+4323080D01*
X+1873250Y+4307840D01*
X+1873250Y+4292600D01*
X+1857375Y+4277360D01*
X+1873250Y+4262120D01*
X+1873250Y+4246880D01*
X+1857375Y+4231640D01*
X+1809750Y+4231640D01*
X+1793875Y+4246880D01*
X+1825625Y+4277360D02*
X+1857375Y+4277360D01*
X-3937000Y+1905000D02*
X-3810000Y+1905000D01*
X-3683000Y+1778000D02*
X-3657124Y+1780436D01*
X-3633152Y+1787485D01*
X-3611562Y+1798762D01*
X-3592830Y+1813878D01*
X-3577431Y+1832446D01*
X-3565842Y+1854081D01*
X-3558540Y+1878394D01*
X-3556000Y+1905000D01*
X-3683000Y+1778000D02*
X-3709606Y+1780436D01*
X-3733919Y+1787485D01*
X-3755554Y+1798762D01*
X-3774122Y+1813878D01*
X-3789238Y+1832446D01*
X-3800515Y+1854081D01*
X-3807564Y+1878394D01*
X-3810000Y+1905000D01*
X-3556000Y+1905000D02*
X-3429000Y+1905000D01*
X-3937000Y-127000D02*
X-3429000Y-127000D01*
X-3937000Y+1905000D02*
X-3937000Y-127000D01*
X-3429000Y-127000D02*
X-3429000Y+1905000D01*
X-3937000Y+2006600D02*
X-3905250Y+2037080D01*
X-3873500Y+2037080D01*
X-3841750Y+2006600D01*
X-3841750Y+1976120D01*
X-3873500Y+1945640D01*
X-3905250Y+1945640D01*
X-3937000Y+1976120D01*
X-3937000Y+2006600D01*
X-3810000Y+2037080D02*
X-3810000Y+1960880D01*
X-3794125Y+1945640D01*
X-3730625Y+1945640D01*
X-3714750Y+1960880D01*
X-3714750Y+2037080D01*
X-3683000Y+2037080D02*
X-3587750Y+2037080D01*
X-3635375Y+2037080D02*
X-3635375Y+1945640D01*
X-3460750Y+2037080D02*
X-3540125Y+2037080D01*
X-3540125Y+2006600D01*
X-3476625Y+2006600D01*
X-3460750Y+1991360D01*
X-3460750Y+1960880D01*
X-3476625Y+1945640D01*
X-3524250Y+1945640D01*
X-3540125Y+1960880D01*
X-2159000Y+1905000D02*
X-2032000Y+1905000D01*
X-1905000Y+1778000D02*
X-1879124Y+1780436D01*
X-1855152Y+1787485D01*
X-1833562Y+1798762D01*
X-1814830Y+1813878D01*
X-1799431Y+1832446D01*
X-1787842Y+1854081D01*
X-1780540Y+1878394D01*
X-1778000Y+1905000D01*
X-1905000Y+1778000D02*
X-1931606Y+1780436D01*
X-1955919Y+1787485D01*
X-1977554Y+1798762D01*
X-1996122Y+1813878D01*
X-2011238Y+1832446D01*
X-2022515Y+1854081D01*
X-2029564Y+1878394D01*
X-2032000Y+1905000D01*
X-1778000Y+1905000D02*
X-1651000Y+1905000D01*
X-2159000Y-127000D02*
X-1651000Y-127000D01*
X-2159000Y+1905000D02*
X-2159000Y-127000D01*
X-1651000Y-127000D02*
X-1651000Y+1905000D01*
X-2159000Y+2006600D02*
X-2127250Y+2037080D01*
X-2095500Y+2037080D01*
X-2063750Y+2006600D01*
X-2063750Y+1976120D01*
X-2095500Y+1945640D01*
X-2127250Y+1945640D01*
X-2159000Y+1976120D01*
X-2159000Y+2006600D01*
X-2032000Y+2037080D02*
X-2032000Y+1960880D01*
X-2016125Y+1945640D01*
X-1952625Y+1945640D01*
X-1936750Y+1960880D01*
X-1936750Y+2037080D01*
X-1905000Y+2037080D02*
X-1809750Y+2037080D01*
X-1857375Y+2037080D02*
X-1857375Y+1945640D01*
X-1682750Y+2021840D02*
X-1698625Y+2037080D01*
X-1746250Y+2037080D01*
X-1762125Y+2021840D01*
X-1762125Y+1960880D01*
X-1746250Y+1945640D01*
X-1698625Y+1945640D01*
X-1682750Y+1960880D01*
X-1682750Y+1976120D01*
X-1698625Y+1991360D01*
X-1762125Y+1991360D01*
X-381000Y+1905000D02*
X-254000Y+1905000D01*
X-127000Y+1778000D02*
X-101124Y+1780436D01*
X-77152Y+1787485D01*
X-55562Y+1798762D01*
X-36830Y+1813878D01*
X-21431Y+1832446D01*
X-9842Y+1854081D01*
X-2540Y+1878394D01*
X+0Y+1905000D01*
X-127000Y+1778000D02*
X-153606Y+1780436D01*
X-177919Y+1787485D01*
X-199554Y+1798762D01*
X-218122Y+1813878D01*
X-233238Y+1832446D01*
X-244515Y+1854081D01*
X-251564Y+1878394D01*
X-254000Y+1905000D01*
X+0Y+1905000D02*
X+127000Y+1905000D01*
X-381000Y-127000D02*
X+127000Y-127000D01*
X-381000Y+1905000D02*
X-381000Y-127000D01*
X+127000Y-127000D02*
X+127000Y+1905000D01*
X-381000Y+2006600D02*
X-349250Y+2037080D01*
X-317500Y+2037080D01*
X-285750Y+2006600D01*
X-285750Y+1976120D01*
X-317500Y+1945640D01*
X-349250Y+1945640D01*
X-381000Y+1976120D01*
X-381000Y+2006600D01*
X-254000Y+2037080D02*
X-254000Y+1960880D01*
X-238125Y+1945640D01*
X-174625Y+1945640D01*
X-158750Y+1960880D01*
X-158750Y+2037080D01*
X-127000Y+2037080D02*
X-31750Y+2037080D01*
X-79375Y+2037080D02*
X-79375Y+1945640D01*
X+15875Y+2037080D02*
X+95250Y+2037080D01*
X+95250Y+2021840D01*
X+15875Y+1945640D01*
X+3175000Y+1905000D02*
X+3302000Y+1905000D01*
X+3429000Y+1778000D02*
X+3454876Y+1780436D01*
X+3478848Y+1787485D01*
X+3500438Y+1798762D01*
X+3519170Y+1813878D01*
X+3534569Y+1832446D01*
X+3546158Y+1854081D01*
X+3553460Y+1878394D01*
X+3556000Y+1905000D01*
X+3429000Y+1778000D02*
X+3402394Y+1780436D01*
X+3378081Y+1787485D01*
X+3356446Y+1798762D01*
X+3337878Y+1813878D01*
X+3322762Y+1832446D01*
X+3311485Y+1854081D01*
X+3304436Y+1878394D01*
X+3302000Y+1905000D01*
X+3556000Y+1905000D02*
X+3683000Y+1905000D01*
X+3175000Y-127000D02*
X+3683000Y-127000D01*
X+3175000Y+1905000D02*
X+3175000Y-127000D01*
X+3683000Y-127000D02*
X+3683000Y+1905000D01*
X+3175000Y+2006600D02*
X+3206750Y+2037080D01*
X+3238500Y+2037080D01*
X+3270250Y+2006600D01*
X+3270250Y+1976120D01*
X+3238500Y+1945640D01*
X+3206750Y+1945640D01*
X+3175000Y+1976120D01*
X+3175000Y+2006600D01*
X+3302000Y+2037080D02*
X+3302000Y+1960880D01*
X+3317875Y+1945640D01*
X+3381375Y+1945640D01*
X+3397250Y+1960880D01*
X+3397250Y+2037080D01*
X+3429000Y+2037080D02*
X+3524250Y+2037080D01*
X+3476625Y+2037080D02*
X+3476625Y+1945640D01*
X+3651250Y+2006600D02*
X+3635375Y+1991360D01*
X+3587750Y+1991360D01*
X+3571875Y+2006600D01*
X+3571875Y+2021840D01*
X+3587750Y+2037080D01*
X+3635375Y+2037080D01*
X+3651250Y+2021840D01*
X+3651250Y+1960880D01*
X+3635375Y+1945640D01*
X+3587750Y+1945640D01*
X-3937000Y-381000D02*
X-3810000Y-381000D01*
X-3683000Y-508000D02*
X-3657124Y-505564D01*
X-3633152Y-498515D01*
X-3611562Y-487238D01*
X-3592830Y-472122D01*
X-3577431Y-453554D01*
X-3565842Y-431919D01*
X-3558540Y-407606D01*
X-3556000Y-381000D01*
X-3683000Y-508000D02*
X-3709606Y-505564D01*
X-3733919Y-498515D01*
X-3755554Y-487238D01*
X-3774122Y-472122D01*
X-3789238Y-453554D01*
X-3800515Y-431919D01*
X-3807564Y-407606D01*
X-3810000Y-381000D01*
X-3556000Y-381000D02*
X-3429000Y-381000D01*
X-3937000Y-2413000D02*
X-3429000Y-2413000D01*
X-3937000Y-381000D02*
X-3937000Y-2413000D01*
X-3429000Y-2413000D02*
X-3429000Y-381000D01*
X-4000500Y-279400D02*
X-3968750Y-248920D01*
X-3937000Y-248920D01*
X-3905250Y-279400D01*
X-3905250Y-309880D01*
X-3937000Y-340360D01*
X-3968750Y-340360D01*
X-4000500Y-309880D01*
X-4000500Y-279400D01*
X-3873500Y-248920D02*
X-3873500Y-325120D01*
X-3857625Y-340360D01*
X-3794125Y-340360D01*
X-3778250Y-325120D01*
X-3778250Y-248920D01*
X-3746500Y-248920D02*
X-3651250Y-248920D01*
X-3698875Y-248920D02*
X-3698875Y-340360D01*
X-3587750Y-279400D02*
X-3556000Y-248920D01*
X-3556000Y-340360D01*
X-3492500Y-325120D02*
X-3492500Y-264160D01*
X-3476625Y-248920D01*
X-3413125Y-248920D01*
X-3397250Y-264160D01*
X-3397250Y-325120D01*
X-3413125Y-340360D01*
X-3476625Y-340360D01*
X-3492500Y-325120D01*
X-3492500Y-340360D02*
X-3397250Y-248920D01*
X-2159000Y-381000D02*
X-2032000Y-381000D01*
X-1905000Y-508000D02*
X-1879124Y-505564D01*
X-1855152Y-498515D01*
X-1833562Y-487238D01*
X-1814830Y-472122D01*
X-1799431Y-453554D01*
X-1787842Y-431919D01*
X-1780540Y-407606D01*
X-1778000Y-381000D01*
X-1905000Y-508000D02*
X-1931606Y-505564D01*
X-1955919Y-498515D01*
X-1977554Y-487238D01*
X-1996122Y-472122D01*
X-2011238Y-453554D01*
X-2022515Y-431919D01*
X-2029564Y-407606D01*
X-2032000Y-381000D01*
X-1778000Y-381000D02*
X-1651000Y-381000D01*
X-2159000Y-2413000D02*
X-1651000Y-2413000D01*
X-2159000Y-381000D02*
X-2159000Y-2413000D01*
X-1651000Y-2413000D02*
X-1651000Y-381000D01*
X-2222500Y-279400D02*
X-2190750Y-248920D01*
X-2159000Y-248920D01*
X-2127250Y-279400D01*
X-2127250Y-309880D01*
X-2159000Y-340360D01*
X-2190750Y-340360D01*
X-2222500Y-309880D01*
X-2222500Y-279400D01*
X-2095500Y-248920D02*
X-2095500Y-325120D01*
X-2079625Y-340360D01*
X-2016125Y-340360D01*
X-2000250Y-325120D01*
X-2000250Y-248920D01*
X-1968500Y-248920D02*
X-1873250Y-248920D01*
X-1920875Y-248920D02*
X-1920875Y-340360D01*
X-1809750Y-279400D02*
X-1778000Y-248920D01*
X-1778000Y-340360D01*
X-1682750Y-279400D02*
X-1651000Y-248920D01*
X-1651000Y-340360D01*
X+1397000Y-381000D02*
X+1524000Y-381000D01*
X+1651000Y-508000D02*
X+1676876Y-505564D01*
X+1700848Y-498515D01*
X+1722438Y-487238D01*
X+1741170Y-472122D01*
X+1756569Y-453554D01*
X+1768158Y-431919D01*
X+1775460Y-407606D01*
X+1778000Y-381000D01*
X+1651000Y-508000D02*
X+1624394Y-505564D01*
X+1600081Y-498515D01*
X+1578446Y-487238D01*
X+1559878Y-472122D01*
X+1544762Y-453554D01*
X+1533485Y-431919D01*
X+1526436Y-407606D01*
X+1524000Y-381000D01*
X+1778000Y-381000D02*
X+1905000Y-381000D01*
X+1397000Y-2413000D02*
X+1905000Y-2413000D01*
X+1397000Y-381000D02*
X+1397000Y-2413000D01*
X+1905000Y-2413000D02*
X+1905000Y-381000D01*
X+1333500Y-279400D02*
X+1365250Y-248920D01*
X+1397000Y-248920D01*
X+1428750Y-279400D01*
X+1428750Y-309880D01*
X+1397000Y-340360D01*
X+1365250Y-340360D01*
X+1333500Y-309880D01*
X+1333500Y-279400D01*
X+1460500Y-248920D02*
X+1460500Y-325120D01*
X+1476375Y-340360D01*
X+1539875Y-340360D01*
X+1555750Y-325120D01*
X+1555750Y-248920D01*
X+1587500Y-248920D02*
X+1682750Y-248920D01*
X+1635125Y-248920D02*
X+1635125Y-340360D01*
X+1746250Y-279400D02*
X+1778000Y-248920D01*
X+1778000Y-340360D01*
X+1857375Y-264160D02*
X+1873250Y-248920D01*
X+1920875Y-248920D01*
X+1936750Y-264160D01*
X+1936750Y-279400D01*
X+1920875Y-294640D01*
X+1936750Y-309880D01*
X+1936750Y-325120D01*
X+1920875Y-340360D01*
X+1873250Y-340360D01*
X+1857375Y-325120D01*
X+1889125Y-294640D02*
X+1920875Y-294640D01*
X+3175000Y-381000D02*
X+3302000Y-381000D01*
X+3429000Y-508000D02*
X+3454876Y-505564D01*
X+3478848Y-498515D01*
X+3500438Y-487238D01*
X+3519170Y-472122D01*
X+3534569Y-453554D01*
X+3546158Y-431919D01*
X+3553460Y-407606D01*
X+3556000Y-381000D01*
X+3429000Y-508000D02*
X+3402394Y-505564D01*
X+3378081Y-498515D01*
X+3356446Y-487238D01*
X+3337878Y-472122D01*
X+3322762Y-453554D01*
X+3311485Y-431919D01*
X+3304436Y-407606D01*
X+3302000Y-381000D01*
X+3556000Y-381000D02*
X+3683000Y-381000D01*
X+3175000Y-2413000D02*
X+3683000Y-2413000D01*
X+3175000Y-381000D02*
X+3175000Y-2413000D01*
X+3683000Y-2413000D02*
X+3683000Y-381000D01*
X+3111500Y-279400D02*
X+3143250Y-248920D01*
X+3175000Y-248920D01*
X+3206750Y-279400D01*
X+3206750Y-309880D01*
X+3175000Y-340360D01*
X+3143250Y-340360D01*
X+3111500Y-309880D01*
X+3111500Y-279400D01*
X+3238500Y-248920D02*
X+3238500Y-325120D01*
X+3254375Y-340360D01*
X+3317875Y-340360D01*
X+3333750Y-325120D01*
X+3333750Y-248920D01*
X+3365500Y-248920D02*
X+3460750Y-248920D01*
X+3413125Y-248920D02*
X+3413125Y-340360D01*
X+3524250Y-279400D02*
X+3556000Y-248920D01*
X+3556000Y-340360D01*
X+3714750Y-309880D02*
X+3619500Y-309880D01*
X+3683000Y-248920D01*
X+3683000Y-340360D01*
X-3937000Y-2667000D02*
X-3810000Y-2667000D01*
X-3683000Y-2794000D02*
X-3657124Y-2791564D01*
X-3633152Y-2784515D01*
X-3611562Y-2773238D01*
X-3592830Y-2758122D01*
X-3577431Y-2739554D01*
X-3565842Y-2717919D01*
X-3558540Y-2693606D01*
X-3556000Y-2667000D01*
X-3683000Y-2794000D02*
X-3709606Y-2791564D01*
X-3733919Y-2784515D01*
X-3755554Y-2773238D01*
X-3774122Y-2758122D01*
X-3789238Y-2739554D01*
X-3800515Y-2717919D01*
X-3807564Y-2693606D01*
X-3810000Y-2667000D01*
X-3556000Y-2667000D02*
X-3429000Y-2667000D01*
X-3937000Y-4699000D02*
X-3429000Y-4699000D01*
X-3937000Y-2667000D02*
X-3937000Y-4699000D01*
X-3429000Y-4699000D02*
X-3429000Y-2667000D01*
X-4000500Y-2565400D02*
X-3968750Y-2534920D01*
X-3937000Y-2534920D01*
X-3905250Y-2565400D01*
X-3905250Y-2595880D01*
X-3937000Y-2626360D01*
X-3968750Y-2626360D01*
X-4000500Y-2595880D01*
X-4000500Y-2565400D01*
X-3873500Y-2534920D02*
X-3873500Y-2611120D01*
X-3857625Y-2626360D01*
X-3794125Y-2626360D01*
X-3778250Y-2611120D01*
X-3778250Y-2534920D01*
X-3746500Y-2534920D02*
X-3651250Y-2534920D01*
X-3698875Y-2534920D02*
X-3698875Y-2626360D01*
X-3587750Y-2565400D02*
X-3556000Y-2534920D01*
X-3556000Y-2626360D01*
X-3397250Y-2534920D02*
X-3476625Y-2534920D01*
X-3476625Y-2565400D01*
X-3413125Y-2565400D01*
X-3397250Y-2580640D01*
X-3397250Y-2611120D01*
X-3413125Y-2626360D01*
X-3460750Y-2626360D01*
X-3476625Y-2611120D01*
X-381000Y-2667000D02*
X-254000Y-2667000D01*
X-127000Y-2794000D02*
X-101124Y-2791564D01*
X-77152Y-2784515D01*
X-55562Y-2773238D01*
X-36830Y-2758122D01*
X-21431Y-2739554D01*
X-9842Y-2717919D01*
X-2540Y-2693606D01*
X+0Y-2667000D01*
X-127000Y-2794000D02*
X-153606Y-2791564D01*
X-177919Y-2784515D01*
X-199554Y-2773238D01*
X-218122Y-2758122D01*
X-233238Y-2739554D01*
X-244515Y-2717919D01*
X-251564Y-2693606D01*
X-254000Y-2667000D01*
X+0Y-2667000D02*
X+127000Y-2667000D01*
X-381000Y-4699000D02*
X+127000Y-4699000D01*
X-381000Y-2667000D02*
X-381000Y-4699000D01*
X+127000Y-4699000D02*
X+127000Y-2667000D01*
X-444500Y-2565400D02*
X-412750Y-2534920D01*
X-381000Y-2534920D01*
X-349250Y-2565400D01*
X-349250Y-2595880D01*
X-381000Y-2626360D01*
X-412750Y-2626360D01*
X-444500Y-2595880D01*
X-444500Y-2565400D01*
X-317500Y-2534920D02*
X-317500Y-2611120D01*
X-301625Y-2626360D01*
X-238125Y-2626360D01*
X-222250Y-2611120D01*
X-222250Y-2534920D01*
X-190500Y-2534920D02*
X-95250Y-2534920D01*
X-142875Y-2534920D02*
X-142875Y-2626360D01*
X-31750Y-2565400D02*
X+0Y-2534920D01*
X+0Y-2626360D01*
X+79375Y-2534920D02*
X+158750Y-2534920D01*
X+158750Y-2550160D01*
X+79375Y-2626360D01*
X+1397000Y-2667000D02*
X+1524000Y-2667000D01*
X+1651000Y-2794000D02*
X+1676876Y-2791564D01*
X+1700848Y-2784515D01*
X+1722438Y-2773238D01*
X+1741170Y-2758122D01*
X+1756569Y-2739554D01*
X+1768158Y-2717919D01*
X+1775460Y-2693606D01*
X+1778000Y-2667000D01*
X+1651000Y-2794000D02*
X+1624394Y-2791564D01*
X+1600081Y-2784515D01*
X+1578446Y-2773238D01*
X+1559878Y-2758122D01*
X+1544762Y-2739554D01*
X+1533485Y-2717919D01*
X+1526436Y-2693606D01*
X+1524000Y-2667000D01*
X+1778000Y-2667000D02*
X+1905000Y-2667000D01*
X+1397000Y-4699000D02*
X+1905000Y-4699000D01*
X+1397000Y-2667000D02*
X+1397000Y-4699000D01*
X+1905000Y-4699000D02*
X+1905000Y-2667000D01*
X+1333500Y-2565400D02*
X+1365250Y-2534920D01*
X+1397000Y-2534920D01*
X+1428750Y-2565400D01*
X+1428750Y-2595880D01*
X+1397000Y-2626360D01*
X+1365250Y-2626360D01*
X+1333500Y-2595880D01*
X+1333500Y-2565400D01*
X+1460500Y-2534920D02*
X+1460500Y-2611120D01*
X+1476375Y-2626360D01*
X+1539875Y-2626360D01*
X+1555750Y-2611120D01*
X+1555750Y-2534920D01*
X+1587500Y-2534920D02*
X+1682750Y-2534920D01*
X+1635125Y-2534920D02*
X+1635125Y-2626360D01*
X+1746250Y-2565400D02*
X+1778000Y-2534920D01*
X+1778000Y-2626360D01*
X+1873250Y-2580640D02*
X+1857375Y-2565400D01*
X+1857375Y-2550160D01*
X+1873250Y-2534920D01*
X+1920875Y-2534920D01*
X+1936750Y-2550160D01*
X+1936750Y-2565400D01*
X+1920875Y-2580640D01*
X+1873250Y-2580640D01*
X+1857375Y-2595880D01*
X+1857375Y-2611120D01*
X+1873250Y-2626360D01*
X+1920875Y-2626360D01*
X+1936750Y-2611120D01*
X+1936750Y-2595880D01*
X+1920875Y-2580640D01*
X+3175000Y-2667000D02*
X+3302000Y-2667000D01*
X+3429000Y-2794000D02*
X+3454876Y-2791564D01*
X+3478848Y-2784515D01*
X+3500438Y-2773238D01*
X+3519170Y-2758122D01*
X+3534569Y-2739554D01*
X+3546158Y-2717919D01*
X+3553460Y-2693606D01*
X+3556000Y-2667000D01*
X+3429000Y-2794000D02*
X+3402394Y-2791564D01*
X+3378081Y-2784515D01*
X+3356446Y-2773238D01*
X+3337878Y-2758122D01*
X+3322762Y-2739554D01*
X+3311485Y-2717919D01*
X+3304436Y-2693606D01*
X+3302000Y-2667000D01*
X+3556000Y-2667000D02*
X+3683000Y-2667000D01*
X+3175000Y-4699000D02*
X+3683000Y-4699000D01*
X+3175000Y-2667000D02*
X+3175000Y-4699000D01*
X+3683000Y-4699000D02*
X+3683000Y-2667000D01*
X+3111500Y-2565400D02*
X+3143250Y-2534920D01*
X+3175000Y-2534920D01*
X+3206750Y-2565400D01*
X+3206750Y-2595880D01*
X+3175000Y-2626360D01*
X+3143250Y-2626360D01*
X+3111500Y-2595880D01*
X+3111500Y-2565400D01*
X+3238500Y-2534920D02*
X+3238500Y-2611120D01*
X+3254375Y-2626360D01*
X+3317875Y-2626360D01*
X+3333750Y-2611120D01*
X+3333750Y-2534920D01*
X+3365500Y-2534920D02*
X+3460750Y-2534920D01*
X+3413125Y-2534920D02*
X+3413125Y-2626360D01*
X+3524250Y-2565400D02*
X+3556000Y-2534920D01*
X+3556000Y-2626360D01*
X+3714750Y-2565400D02*
X+3698875Y-2580640D01*
X+3651250Y-2580640D01*
X+3635375Y-2565400D01*
X+3635375Y-2550160D01*
X+3651250Y-2534920D01*
X+3698875Y-2534920D01*
X+3714750Y-2550160D01*
X+3714750Y-2611120D01*
X+3698875Y-2626360D01*
X+3651250Y-2626360D01*
X+3175000Y+4191000D02*
X+3302000Y+4191000D01*
X+3429000Y+4064000D02*
X+3454876Y+4066436D01*
X+3478848Y+4073485D01*
X+3500438Y+4084762D01*
X+3519170Y+4099878D01*
X+3534569Y+4118446D01*
X+3546158Y+4140081D01*
X+3553460Y+4164394D01*
X+3556000Y+4191000D01*
X+3429000Y+4064000D02*
X+3402394Y+4066436D01*
X+3378081Y+4073485D01*
X+3356446Y+4084762D01*
X+3337878Y+4099878D01*
X+3322762Y+4118446D01*
X+3311485Y+4140081D01*
X+3304436Y+4164394D01*
X+3302000Y+4191000D01*
X+3556000Y+4191000D02*
X+3683000Y+4191000D01*
X+3175000Y+2159000D02*
X+3683000Y+2159000D01*
X+3175000Y+4191000D02*
X+3175000Y+2159000D01*
X+3683000Y+2159000D02*
X+3683000Y+4191000D01*
X+3175000Y+4292600D02*
X+3206750Y+4323080D01*
X+3238500Y+4323080D01*
X+3270250Y+4292600D01*
X+3270250Y+4262120D01*
X+3238500Y+4231640D01*
X+3206750Y+4231640D01*
X+3175000Y+4262120D01*
X+3175000Y+4292600D01*
X+3302000Y+4323080D02*
X+3302000Y+4246880D01*
X+3317875Y+4231640D01*
X+3381375Y+4231640D01*
X+3397250Y+4246880D01*
X+3397250Y+4323080D01*
X+3429000Y+4323080D02*
X+3524250Y+4323080D01*
X+3476625Y+4323080D02*
X+3476625Y+4231640D01*
X+3651250Y+4262120D02*
X+3556000Y+4262120D01*
X+3619500Y+4323080D01*
X+3619500Y+4231640D01*
X+1397000Y+1905000D02*
X+1524000Y+1905000D01*
X+1651000Y+1778000D02*
X+1676876Y+1780436D01*
X+1700848Y+1787485D01*
X+1722438Y+1798762D01*
X+1741170Y+1813878D01*
X+1756569Y+1832446D01*
X+1768158Y+1854081D01*
X+1775460Y+1878394D01*
X+1778000Y+1905000D01*
X+1651000Y+1778000D02*
X+1624394Y+1780436D01*
X+1600081Y+1787485D01*
X+1578446Y+1798762D01*
X+1559878Y+1813878D01*
X+1544762Y+1832446D01*
X+1533485Y+1854081D01*
X+1526436Y+1878394D01*
X+1524000Y+1905000D01*
X+1778000Y+1905000D02*
X+1905000Y+1905000D01*
X+1397000Y-127000D02*
X+1905000Y-127000D01*
X+1397000Y+1905000D02*
X+1397000Y-127000D01*
X+1905000Y-127000D02*
X+1905000Y+1905000D01*
X+1397000Y+2006600D02*
X+1428750Y+2037080D01*
X+1460500Y+2037080D01*
X+1492250Y+2006600D01*
X+1492250Y+1976120D01*
X+1460500Y+1945640D01*
X+1428750Y+1945640D01*
X+1397000Y+1976120D01*
X+1397000Y+2006600D01*
X+1524000Y+2037080D02*
X+1524000Y+1960880D01*
X+1539875Y+1945640D01*
X+1603375Y+1945640D01*
X+1619250Y+1960880D01*
X+1619250Y+2037080D01*
X+1651000Y+2037080D02*
X+1746250Y+2037080D01*
X+1698625Y+2037080D02*
X+1698625Y+1945640D01*
X+1809750Y+1991360D02*
X+1793875Y+2006600D01*
X+1793875Y+2021840D01*
X+1809750Y+2037080D01*
X+1857375Y+2037080D01*
X+1873250Y+2021840D01*
X+1873250Y+2006600D01*
X+1857375Y+1991360D01*
X+1809750Y+1991360D01*
X+1793875Y+1976120D01*
X+1793875Y+1960880D01*
X+1809750Y+1945640D01*
X+1857375Y+1945640D01*
X+1873250Y+1960880D01*
X+1873250Y+1976120D01*
X+1857375Y+1991360D01*
X-381000Y-381000D02*
X-254000Y-381000D01*
X-127000Y-508000D02*
X-101124Y-505564D01*
X-77152Y-498515D01*
X-55562Y-487238D01*
X-36830Y-472122D01*
X-21431Y-453554D01*
X-9842Y-431919D01*
X-2540Y-407606D01*
X+0Y-381000D01*
X-127000Y-508000D02*
X-153606Y-505564D01*
X-177919Y-498515D01*
X-199554Y-487238D01*
X-218122Y-472122D01*
X-233238Y-453554D01*
X-244515Y-431919D01*
X-251564Y-407606D01*
X-254000Y-381000D01*
X+0Y-381000D02*
X+127000Y-381000D01*
X-381000Y-2413000D02*
X+127000Y-2413000D01*
X-381000Y-381000D02*
X-381000Y-2413000D01*
X+127000Y-2413000D02*
X+127000Y-381000D01*
X-444500Y-279400D02*
X-412750Y-248920D01*
X-381000Y-248920D01*
X-349250Y-279400D01*
X-349250Y-309880D01*
X-381000Y-340360D01*
X-412750Y-340360D01*
X-444500Y-309880D01*
X-444500Y-279400D01*
X-317500Y-248920D02*
X-317500Y-325120D01*
X-301625Y-340360D01*
X-238125Y-340360D01*
X-222250Y-325120D01*
X-222250Y-248920D01*
X-190500Y-248920D02*
X-95250Y-248920D01*
X-142875Y-248920D02*
X-142875Y-340360D01*
X-31750Y-279400D02*
X+0Y-248920D01*
X+0Y-340360D01*
X+79375Y-264160D02*
X+95250Y-248920D01*
X+142875Y-248920D01*
X+158750Y-264160D01*
X+158750Y-279400D01*
X+142875Y-294640D01*
X+95250Y-294640D01*
X+79375Y-309880D01*
X+79375Y-340360D01*
X+158750Y-340360D01*
X-2159000Y-2667000D02*
X-2032000Y-2667000D01*
X-1905000Y-2794000D02*
X-1879124Y-2791564D01*
X-1855152Y-2784515D01*
X-1833562Y-2773238D01*
X-1814830Y-2758122D01*
X-1799431Y-2739554D01*
X-1787842Y-2717919D01*
X-1780540Y-2693606D01*
X-1778000Y-2667000D01*
X-1905000Y-2794000D02*
X-1931606Y-2791564D01*
X-1955919Y-2784515D01*
X-1977554Y-2773238D01*
X-1996122Y-2758122D01*
X-2011238Y-2739554D01*
X-2022515Y-2717919D01*
X-2029564Y-2693606D01*
X-2032000Y-2667000D01*
X-1778000Y-2667000D02*
X-1651000Y-2667000D01*
X-2159000Y-4699000D02*
X-1651000Y-4699000D01*
X-2159000Y-2667000D02*
X-2159000Y-4699000D01*
X-1651000Y-4699000D02*
X-1651000Y-2667000D01*
X-2222500Y-2565400D02*
X-2190750Y-2534920D01*
X-2159000Y-2534920D01*
X-2127250Y-2565400D01*
X-2127250Y-2595880D01*
X-2159000Y-2626360D01*
X-2190750Y-2626360D01*
X-2222500Y-2595880D01*
X-2222500Y-2565400D01*
X-2095500Y-2534920D02*
X-2095500Y-2611120D01*
X-2079625Y-2626360D01*
X-2016125Y-2626360D01*
X-2000250Y-2611120D01*
X-2000250Y-2534920D01*
X-1968500Y-2534920D02*
X-1873250Y-2534920D01*
X-1920875Y-2534920D02*
X-1920875Y-2626360D01*
X-1809750Y-2565400D02*
X-1778000Y-2534920D01*
X-1778000Y-2626360D01*
X-1619250Y-2550160D02*
X-1635125Y-2534920D01*
X-1682750Y-2534920D01*
X-1698625Y-2550160D01*
X-1698625Y-2611120D01*
X-1682750Y-2626360D01*
X-1635125Y-2626360D01*
X-1619250Y-2611120D01*
X-1619250Y-2595880D01*
X-1635125Y-2580640D01*
X-1698625Y-2580640D01*
M02*
