G04 PROTEUS GERBER X2 FILE*
%TF.GenerationSoftware,Labcenter,Proteus,8.13-SP0-Build31525*%
%TF.CreationDate,2022-07-18T16:48:07+00:00*%
%TF.FileFunction,Plated,1,2,PTH*%
%TF.FilePolarity,Positive*%
%TF.Part,Single*%
%TF.SameCoordinates,{41493df7-e33e-458f-ac9c-d164e56dbbe3}*%
%FSLAX45Y45*%
%MOMM*%
G01*
%TA.AperFunction,ViaDrill*%
%ADD27C,0.381000*%
%TA.AperFunction,ComponentDrill*%
%ADD28C,1.016000*%
%TA.AperFunction,ComponentDrill*%
%ADD29C,0.762000*%
%TD.AperFunction*%
D27*
X-571500Y+1270000D03*
X-2667000Y+635000D03*
X-444500Y+1333500D03*
X-2476500Y+889000D03*
X-3048000Y+0D03*
X-2159000Y-1778000D03*
X-127000Y-1968500D03*
X-2540000Y-762000D03*
X-762000Y-1333500D03*
X-1460500Y-1016000D03*
X-1587500Y-889000D03*
X-1587500Y+0D03*
X-1905000Y-1524000D03*
X-3111500Y-3302000D03*
X-2286000Y-4191000D03*
X+1778000Y-508000D03*
X+2921000Y-1143000D03*
X+3175000Y-1524000D03*
X+2540000Y+2159000D03*
X+2540000Y+1905000D03*
X+2730500Y+1524000D03*
X+508000Y+2667000D03*
X+508000Y+4191000D03*
X-4445000Y+4318000D03*
X-4000500Y+2794000D03*
X-1587500Y+2540000D03*
X-254000Y+2286000D03*
X-254000Y+3048000D03*
X-2349500Y+1905000D03*
X-2222500Y+2540000D03*
X-2349500Y+3048000D03*
X-2413000Y-2921000D03*
X-2159000Y-3429000D03*
X-1905000Y-5016500D03*
X-4191000Y-3429000D03*
X-3175000Y-2667000D03*
X-3937000Y-2667000D03*
X-3302000Y-889000D03*
X-3048000Y-1651000D03*
X-3302000Y-3429000D03*
X-3937000Y-4064000D03*
X-2222500Y+2667000D03*
X-2921000Y+2032000D03*
X-3302000Y+2032000D03*
X-3238500Y+1333500D03*
X-3873500Y+1333500D03*
X-3810000Y-4762500D03*
X-3429000Y-4762500D03*
X-3937000Y-2540000D03*
X-4254500Y-635000D03*
X-4318000Y+762000D03*
X-2921000Y-4762500D03*
X+762000Y-4762500D03*
X+825500Y-1651000D03*
X+825500Y+762000D03*
X-3556000Y-2413000D03*
X-4508500Y-2540000D03*
X+0Y+3937000D03*
X-1460500Y+762000D03*
X-1460500Y-2286000D03*
X+127000Y+889000D03*
X+2222500Y+635000D03*
X+3873500Y+1270000D03*
X+254000Y+1270000D03*
X+3429000Y+1270000D03*
X+635000Y+635000D03*
X-635000Y-2667000D03*
X+635000Y-1524000D03*
X+317500Y-2667000D03*
X-762000Y+254000D03*
X-762000Y+635000D03*
X-1651000Y+3810000D03*
X-1333500Y+3810000D03*
X-1333500Y+4635500D03*
X+1968500Y+4699000D03*
X+1841500Y+127000D03*
X+3302000Y+0D03*
X-889000Y+3048000D03*
X-508000Y+2794000D03*
X-1016000Y+2032000D03*
X-508000Y+2032000D03*
X+3429000Y+1397000D03*
X-317500Y+1333500D03*
X-508000Y-2921000D03*
X+190500Y-3175000D03*
X+190500Y-1460500D03*
X-63500Y-1460500D03*
X-571500Y-254000D03*
X-762000Y-5143500D03*
X-254000Y+2540000D03*
X+698500Y+1651000D03*
X+1397000Y+1651000D03*
X+3556000Y+1651000D03*
X-254000Y-2540000D03*
X-698500Y-508000D03*
X+508000Y-2540000D03*
X-254000Y+254000D03*
X+0Y-4953000D03*
X+3873500Y-762000D03*
X-889000Y-762000D03*
X-508000Y-3810000D03*
X+635000Y-127000D03*
X-1460500Y-2413000D03*
X-1016000Y-4635500D03*
X-1460500Y-1587500D03*
X-3937000Y-4318000D03*
X+4318000Y+889000D03*
X-1651000Y-1397000D03*
X-1143000Y-1587500D03*
X-4191000Y+3937000D03*
X-4762500Y+3937000D03*
X-4572000Y+4318000D03*
X-3175000Y+3937000D03*
X-4508500Y+4064000D03*
X+2857500Y+3937000D03*
X-4508500Y+1143000D03*
X-4508500Y+1651000D03*
X+254000Y+1651000D03*
X-3619500Y+4635500D03*
X-4889500Y+4635500D03*
X+508000Y+2032000D03*
X-190500Y+1841500D03*
X-1651000Y+889000D03*
X-3429000Y+4635500D03*
X-3746500Y+2667000D03*
X-3302000Y+1905000D03*
X-4953000Y-1905000D03*
X-508000Y-2286000D03*
X-5016500Y+698500D03*
X-4191000Y-1778000D03*
X-1778000Y-2159000D03*
X+2159000Y+4572000D03*
X+4000500Y+4445000D03*
X+2032000Y+4318000D03*
X+2540000Y+889000D03*
X+4445000Y-2730500D03*
X+4191000Y-2730500D03*
X-2921000Y+1016000D03*
D28*
X-2921000Y+4953000D03*
X-2667000Y+4953000D03*
X-2413000Y+4953000D03*
X-2159000Y+4953000D03*
X-1905000Y+4953000D03*
X-1651000Y+4953000D03*
X-1397000Y+4953000D03*
X-1143000Y+4953000D03*
X-889000Y+4953000D03*
X-635000Y+4953000D03*
X-381000Y+4953000D03*
X-127000Y+4953000D03*
X+127000Y+4953000D03*
X+381000Y+4953000D03*
X+635000Y+4953000D03*
X+889000Y+4953000D03*
X+1143000Y+4953000D03*
X+1397000Y+4953000D03*
X+1651000Y+4953000D03*
X+1905000Y+4953000D03*
X+2159000Y+4953000D03*
X+2413000Y+4953000D03*
X+2667000Y+4953000D03*
X+2921000Y+4953000D03*
X+3175000Y+4953000D03*
X+3429000Y+4953000D03*
X+3683000Y+4953000D03*
X+3937000Y+4953000D03*
X+4191000Y+4953000D03*
X+4445000Y+4953000D03*
X+4699000Y+4953000D03*
X+4953000Y+4953000D03*
X-4953000Y+4953000D03*
X-4699000Y+4953000D03*
X-4445000Y+4953000D03*
X-4191000Y+4953000D03*
X-3937000Y+4953000D03*
X-3683000Y+4953000D03*
X-3429000Y+4953000D03*
X-3175000Y+4953000D03*
X-4953000Y-5461000D03*
X-4699000Y-5461000D03*
X-4445000Y-5461000D03*
X-4191000Y-5461000D03*
X-3937000Y-5461000D03*
X-3683000Y-5461000D03*
X-3429000Y-5461000D03*
X-3175000Y-5461000D03*
X-2921000Y-5461000D03*
X-2667000Y-5461000D03*
X-2413000Y-5461000D03*
X-2159000Y-5461000D03*
X-1905000Y-5461000D03*
X-1651000Y-5461000D03*
X-1397000Y-5461000D03*
X-1143000Y-5461000D03*
X-889000Y-5461000D03*
X-635000Y-5461000D03*
X-381000Y-5461000D03*
X-127000Y-5461000D03*
X+127000Y-5461000D03*
X+381000Y-5461000D03*
X+635000Y-5461000D03*
X+889000Y-5461000D03*
X+1143000Y-5461000D03*
X+1397000Y-5461000D03*
X+1651000Y-5461000D03*
X+1905000Y-5461000D03*
X+2159000Y-5461000D03*
X+2413000Y-5461000D03*
X+2667000Y-5461000D03*
X+2921000Y-5461000D03*
X+3175000Y-5461000D03*
X+3429000Y-5461000D03*
X+3683000Y-5461000D03*
X+3937000Y-5461000D03*
X+4191000Y-5461000D03*
X+4445000Y-5461000D03*
X+4699000Y-5461000D03*
X+4953000Y-5461000D03*
X-5207000Y+4699000D03*
X-5207000Y+4445000D03*
X-5207000Y+4191000D03*
X-5207000Y+3937000D03*
X-5207000Y+3683000D03*
X-5207000Y+3429000D03*
X-5207000Y+3175000D03*
X-5207000Y+2921000D03*
X-5207000Y+2667000D03*
X-5207000Y+2413000D03*
X-5207000Y+2159000D03*
X-5207000Y+1905000D03*
X-5207000Y+1651000D03*
X-5207000Y+1397000D03*
X-5207000Y+1143000D03*
X-5207000Y+889000D03*
X-5207000Y+635000D03*
X-5207000Y+381000D03*
X-5207000Y+127000D03*
X-5207000Y-127000D03*
X-5207000Y-381000D03*
X-5207000Y-635000D03*
X-5207000Y-889000D03*
X-5207000Y-1143000D03*
X-5207000Y-1397000D03*
X-5207000Y-1651000D03*
X-5207000Y-1905000D03*
X-5207000Y-2159000D03*
X-5207000Y-2413000D03*
X-5207000Y-2667000D03*
X-5207000Y-2921000D03*
X-5207000Y-3175000D03*
X-5207000Y-3429000D03*
X-5207000Y-3683000D03*
X-5207000Y-3937000D03*
X-5207000Y-4191000D03*
X-5207000Y-4445000D03*
X-5207000Y-4699000D03*
X-5207000Y-4953000D03*
X-5207000Y-5207000D03*
X+5207000Y+4699000D03*
X+5207000Y+4445000D03*
X+5207000Y+4191000D03*
X+5207000Y+3937000D03*
X+5207000Y+3683000D03*
X+5207000Y+3429000D03*
X+5207000Y+3175000D03*
X+5207000Y+2921000D03*
X+5207000Y+2667000D03*
X+5207000Y+2413000D03*
X+5207000Y+2159000D03*
X+5207000Y+1905000D03*
X+5207000Y+1651000D03*
X+5207000Y+1397000D03*
X+5207000Y+1143000D03*
X+5207000Y+889000D03*
X+5207000Y+635000D03*
X+5207000Y+381000D03*
X+5207000Y+127000D03*
X+5207000Y-127000D03*
X+5207000Y-381000D03*
X+5207000Y-635000D03*
X+5207000Y-889000D03*
X+5207000Y-1143000D03*
X+5207000Y-1397000D03*
X+5207000Y-1651000D03*
X+5207000Y-1905000D03*
X+5207000Y-2159000D03*
X+5207000Y-2413000D03*
X+5207000Y-2667000D03*
X+5207000Y-2921000D03*
X+5207000Y-3175000D03*
X+5207000Y-3429000D03*
X+5207000Y-3683000D03*
X+5207000Y-3937000D03*
X+5207000Y-4191000D03*
X+5207000Y-4445000D03*
X+5207000Y-4699000D03*
X+5207000Y-4953000D03*
X+5207000Y-5207000D03*
D29*
X-2667000Y+4064000D03*
X-2667000Y+3810000D03*
X-2667000Y+3556000D03*
X-2667000Y+3302000D03*
X-2667000Y+3048000D03*
X-2667000Y+2794000D03*
X-2667000Y+2540000D03*
X-2667000Y+2286000D03*
X-2667000Y+2032000D03*
X-2667000Y+1778000D03*
X-1905000Y+1778000D03*
X-1905000Y+2032000D03*
X-1905000Y+2286000D03*
X-1905000Y+2540000D03*
X-1905000Y+2794000D03*
X-1905000Y+3048000D03*
X-1905000Y+3302000D03*
X-1905000Y+3556000D03*
X-1905000Y+3810000D03*
X-1905000Y+4064000D03*
X-4191000Y+4064000D03*
X-4191000Y+3810000D03*
X-4191000Y+3556000D03*
X-4191000Y+3302000D03*
X-4191000Y+3048000D03*
X-4191000Y+2794000D03*
X-4191000Y+2540000D03*
X-4191000Y+2286000D03*
X-4191000Y+2032000D03*
X-4191000Y+1778000D03*
X-3429000Y+1778000D03*
X-3429000Y+2032000D03*
X-3429000Y+2286000D03*
X-3429000Y+2540000D03*
X-3429000Y+2794000D03*
X-3429000Y+3048000D03*
X-3429000Y+3302000D03*
X-3429000Y+3556000D03*
X-3429000Y+3810000D03*
X-3429000Y+4064000D03*
X-1143000Y+4064000D03*
X-1143000Y+3810000D03*
X-1143000Y+3556000D03*
X-1143000Y+3302000D03*
X-1143000Y+3048000D03*
X-1143000Y+2794000D03*
X-1143000Y+2540000D03*
X-1143000Y+2286000D03*
X-1143000Y+2032000D03*
X-1143000Y+1778000D03*
X-381000Y+1778000D03*
X-381000Y+2032000D03*
X-381000Y+2286000D03*
X-381000Y+2540000D03*
X-381000Y+2794000D03*
X-381000Y+3048000D03*
X-381000Y+3302000D03*
X-381000Y+3556000D03*
X-381000Y+3810000D03*
X-381000Y+4064000D03*
X-2667000Y+1016000D03*
X-2667000Y+762000D03*
X-2667000Y+508000D03*
X-2667000Y+254000D03*
X-2667000Y+0D03*
X-2667000Y-254000D03*
X-2667000Y-508000D03*
X-2667000Y-762000D03*
X-2667000Y-1016000D03*
X-2667000Y-1270000D03*
X-1905000Y-1270000D03*
X-1905000Y-1016000D03*
X-1905000Y-762000D03*
X-1905000Y-508000D03*
X-1905000Y-254000D03*
X-1905000Y+0D03*
X-1905000Y+254000D03*
X-1905000Y+508000D03*
X-1905000Y+762000D03*
X-1905000Y+1016000D03*
X-4191000Y+1016000D03*
X-4191000Y+762000D03*
X-4191000Y+508000D03*
X-4191000Y+254000D03*
X-4191000Y+0D03*
X-4191000Y-254000D03*
X-4191000Y-508000D03*
X-4191000Y-762000D03*
X-4191000Y-1016000D03*
X-4191000Y-1270000D03*
X-3429000Y-1270000D03*
X-3429000Y-1016000D03*
X-3429000Y-762000D03*
X-3429000Y-508000D03*
X-3429000Y-254000D03*
X-3429000Y+0D03*
X-3429000Y+254000D03*
X-3429000Y+508000D03*
X-3429000Y+762000D03*
X-3429000Y+1016000D03*
X-1143000Y+1016000D03*
X-1143000Y+762000D03*
X-1143000Y+508000D03*
X-1143000Y+254000D03*
X-1143000Y+0D03*
X-1143000Y-254000D03*
X-1143000Y-508000D03*
X-1143000Y-762000D03*
X-1143000Y-1016000D03*
X-1143000Y-1270000D03*
X-381000Y-1270000D03*
X-381000Y-1016000D03*
X-381000Y-762000D03*
X-381000Y-508000D03*
X-381000Y-254000D03*
X-381000Y+0D03*
X-381000Y+254000D03*
X-381000Y+508000D03*
X-381000Y+762000D03*
X-381000Y+1016000D03*
X+1905000Y+4064000D03*
X+1905000Y+3810000D03*
X+1905000Y+3556000D03*
X+1905000Y+3302000D03*
X+1905000Y+3048000D03*
X+1905000Y+2794000D03*
X+1905000Y+2540000D03*
X+1905000Y+2286000D03*
X+1905000Y+2032000D03*
X+1905000Y+1778000D03*
X+2667000Y+1778000D03*
X+2667000Y+2032000D03*
X+2667000Y+2286000D03*
X+2667000Y+2540000D03*
X+2667000Y+2794000D03*
X+2667000Y+3048000D03*
X+2667000Y+3302000D03*
X+2667000Y+3556000D03*
X+2667000Y+3810000D03*
X+2667000Y+4064000D03*
X+381000Y+4064000D03*
X+381000Y+3810000D03*
X+381000Y+3556000D03*
X+381000Y+3302000D03*
X+381000Y+3048000D03*
X+381000Y+2794000D03*
X+381000Y+2540000D03*
X+381000Y+2286000D03*
X+381000Y+2032000D03*
X+381000Y+1778000D03*
X+1143000Y+1778000D03*
X+1143000Y+2032000D03*
X+1143000Y+2286000D03*
X+1143000Y+2540000D03*
X+1143000Y+2794000D03*
X+1143000Y+3048000D03*
X+1143000Y+3302000D03*
X+1143000Y+3556000D03*
X+1143000Y+3810000D03*
X+1143000Y+4064000D03*
X+3429000Y+4064000D03*
X+3429000Y+3810000D03*
X+3429000Y+3556000D03*
X+3429000Y+3302000D03*
X+3429000Y+3048000D03*
X+3429000Y+2794000D03*
X+3429000Y+2540000D03*
X+3429000Y+2286000D03*
X+3429000Y+2032000D03*
X+3429000Y+1778000D03*
X+4191000Y+1778000D03*
X+4191000Y+2032000D03*
X+4191000Y+2286000D03*
X+4191000Y+2540000D03*
X+4191000Y+2794000D03*
X+4191000Y+3048000D03*
X+4191000Y+3302000D03*
X+4191000Y+3556000D03*
X+4191000Y+3810000D03*
X+4191000Y+4064000D03*
X+2032000Y+1016000D03*
X+2032000Y+762000D03*
X+2032000Y+508000D03*
X+2032000Y+254000D03*
X+2032000Y+0D03*
X+2032000Y-254000D03*
X+2032000Y-508000D03*
X+2032000Y-762000D03*
X+2032000Y-1016000D03*
X+2032000Y-1270000D03*
X+2794000Y-1270000D03*
X+2794000Y-1016000D03*
X+2794000Y-762000D03*
X+2794000Y-508000D03*
X+2794000Y-254000D03*
X+2794000Y+0D03*
X+2794000Y+254000D03*
X+2794000Y+508000D03*
X+2794000Y+762000D03*
X+2794000Y+1016000D03*
X+381000Y+1016000D03*
X+381000Y+762000D03*
X+381000Y+508000D03*
X+381000Y+254000D03*
X+381000Y+0D03*
X+381000Y-254000D03*
X+381000Y-508000D03*
X+381000Y-762000D03*
X+381000Y-1016000D03*
X+381000Y-1270000D03*
X+1143000Y-1270000D03*
X+1143000Y-1016000D03*
X+1143000Y-762000D03*
X+1143000Y-508000D03*
X+1143000Y-254000D03*
X+1143000Y+0D03*
X+1143000Y+254000D03*
X+1143000Y+508000D03*
X+1143000Y+762000D03*
X+1143000Y+1016000D03*
X+3429000Y+1016000D03*
X+3429000Y+762000D03*
X+3429000Y+508000D03*
X+3429000Y+254000D03*
X+3429000Y+0D03*
X+3429000Y-254000D03*
X+3429000Y-508000D03*
X+3429000Y-762000D03*
X+3429000Y-1016000D03*
X+3429000Y-1270000D03*
X+4191000Y-1270000D03*
X+4191000Y-1016000D03*
X+4191000Y-762000D03*
X+4191000Y-508000D03*
X+4191000Y-254000D03*
X+4191000Y+0D03*
X+4191000Y+254000D03*
X+4191000Y+508000D03*
X+4191000Y+762000D03*
X+4191000Y+1016000D03*
X-2667000Y-2032000D03*
X-2667000Y-2286000D03*
X-2667000Y-2540000D03*
X-2667000Y-2794000D03*
X-2667000Y-3048000D03*
X-2667000Y-3302000D03*
X-2667000Y-3556000D03*
X-2667000Y-3810000D03*
X-2667000Y-4064000D03*
X-2667000Y-4318000D03*
X-1905000Y-4318000D03*
X-1905000Y-4064000D03*
X-1905000Y-3810000D03*
X-1905000Y-3556000D03*
X-1905000Y-3302000D03*
X-1905000Y-3048000D03*
X-1905000Y-2794000D03*
X-1905000Y-2540000D03*
X-1905000Y-2286000D03*
X-1905000Y-2032000D03*
X-4191000Y-2032000D03*
X-4191000Y-2286000D03*
X-4191000Y-2540000D03*
X-4191000Y-2794000D03*
X-4191000Y-3048000D03*
X-4191000Y-3302000D03*
X-4191000Y-3556000D03*
X-4191000Y-3810000D03*
X-4191000Y-4064000D03*
X-4191000Y-4318000D03*
X-3429000Y-4318000D03*
X-3429000Y-4064000D03*
X-3429000Y-3810000D03*
X-3429000Y-3556000D03*
X-3429000Y-3302000D03*
X-3429000Y-3048000D03*
X-3429000Y-2794000D03*
X-3429000Y-2540000D03*
X-3429000Y-2286000D03*
X-3429000Y-2032000D03*
X-1143000Y-2032000D03*
X-1143000Y-2286000D03*
X-1143000Y-2540000D03*
X-1143000Y-2794000D03*
X-1143000Y-3048000D03*
X-1143000Y-3302000D03*
X-1143000Y-3556000D03*
X-1143000Y-3810000D03*
X-1143000Y-4064000D03*
X-1143000Y-4318000D03*
X-381000Y-4318000D03*
X-381000Y-4064000D03*
X-381000Y-3810000D03*
X-381000Y-3556000D03*
X-381000Y-3302000D03*
X-381000Y-3048000D03*
X-381000Y-2794000D03*
X-381000Y-2540000D03*
X-381000Y-2286000D03*
X-381000Y-2032000D03*
M02*
