G04 PROTEUS GERBER X2 FILE*
%TF.GenerationSoftware,Labcenter,Proteus,8.13-SP0-Build31525*%
%TF.CreationDate,2022-07-18T16:44:16+00:00*%
%TF.FileFunction,Plated,1,2,PTH*%
%TF.FilePolarity,Positive*%
%TF.Part,Single*%
%TF.SameCoordinates,{5cd33fac-9818-4aa8-8d23-16ed7fe0303d}*%
%FSLAX45Y45*%
%MOMM*%
G01*
%TA.AperFunction,ViaDrill*%
%ADD27C,0.381000*%
%TA.AperFunction,ComponentDrill*%
%ADD28C,1.016000*%
%TA.AperFunction,ComponentDrill*%
%ADD29C,0.762000*%
%TD.AperFunction*%
D27*
X-254000Y+63500D03*
X-2857500Y+63500D03*
X-1587500Y-952500D03*
X-698500Y-1016000D03*
X-3048000Y-63500D03*
X-381000Y-63500D03*
X-2349500Y-3302000D03*
X-2032000Y-3302000D03*
X-2540000Y-3048000D03*
X-2032000Y-3048000D03*
X-635000Y-3683000D03*
X-3302000Y-3683000D03*
X-1651000Y-3175000D03*
X-3429000Y-3175000D03*
X-2095500Y+1651000D03*
X-2222500Y+1143000D03*
X-381000Y+1143000D03*
X-1778000Y+889000D03*
X+2667000Y+2159000D03*
X+2794000Y+1016000D03*
X+2794000Y-952500D03*
X+2857500Y-3619500D03*
X+4191000Y-3619500D03*
X+254000Y-825500D03*
X-3683000Y-1397000D03*
X-63500Y-1397000D03*
X-3746500Y-1778000D03*
X+0Y-1651000D03*
X-3746500Y-1905000D03*
X+254000Y-3937000D03*
X-3937000Y-3937000D03*
X-3873500Y-2286000D03*
X-4191000Y-2159000D03*
X-4064000Y-4699000D03*
X-4064000Y-3175000D03*
X+508000Y+1143000D03*
X-3810000Y-2667000D03*
X+444500Y+571500D03*
X-3175000Y-2921000D03*
X-4064000Y-2921000D03*
X+2984500Y+444500D03*
X-1333500Y-3302000D03*
X-2413000Y-3556000D03*
X+2984500Y-1270000D03*
X-1270000Y+444500D03*
X+3556000Y+0D03*
X+825500Y-4699000D03*
X-508000Y-1524000D03*
X+825500Y-317500D03*
X-635000Y-317500D03*
X+3683000Y+127000D03*
X-762000Y-1778000D03*
X+698500Y-4953000D03*
X-762000Y-190500D03*
X+825500Y-190500D03*
X+952500Y-4318000D03*
X+4000500Y-2032000D03*
X+4000500Y-1651000D03*
X+2984500Y-1524000D03*
X-825500Y-2032000D03*
X+1016000Y-1968500D03*
X+0Y-2413000D03*
X-698500Y-2286000D03*
X+3048000Y-2286000D03*
X-1651000Y+317500D03*
X+444500Y+63500D03*
X+2667000Y+444500D03*
X+444500Y+444500D03*
X+3937000Y-2540000D03*
X+3937000Y-635000D03*
X+2667000Y-635000D03*
X+571500Y-3873500D03*
X+3619500Y-3873500D03*
X-1016000Y-3302000D03*
X+3810000Y+1270000D03*
X+571500Y-3492500D03*
X+3429000Y-4953000D03*
X+381000Y-3619500D03*
X-2413000Y+1016000D03*
X-3556000Y+127000D03*
X-5016500Y+127000D03*
X-508000Y+190500D03*
X-5016500Y-127000D03*
X-4191000Y-317500D03*
X-5016500Y-317500D03*
X+952500Y-571500D03*
X+2159000Y-1143000D03*
D28*
X-2921000Y+4953000D03*
X-2667000Y+4953000D03*
X-2413000Y+4953000D03*
X-2159000Y+4953000D03*
X-1905000Y+4953000D03*
X-1651000Y+4953000D03*
X-1397000Y+4953000D03*
X-1143000Y+4953000D03*
X-889000Y+4953000D03*
X-635000Y+4953000D03*
X-381000Y+4953000D03*
X-127000Y+4953000D03*
X+127000Y+4953000D03*
X+381000Y+4953000D03*
X+635000Y+4953000D03*
X+889000Y+4953000D03*
X+1143000Y+4953000D03*
X+1397000Y+4953000D03*
X+1651000Y+4953000D03*
X+1905000Y+4953000D03*
X+2159000Y+4953000D03*
X+2413000Y+4953000D03*
X+2667000Y+4953000D03*
X+2921000Y+4953000D03*
X+3175000Y+4953000D03*
X+3429000Y+4953000D03*
X+3683000Y+4953000D03*
X+3937000Y+4953000D03*
X+4191000Y+4953000D03*
X+4445000Y+4953000D03*
X+4699000Y+4953000D03*
X+4953000Y+4953000D03*
X-4953000Y+4953000D03*
X-4699000Y+4953000D03*
X-4445000Y+4953000D03*
X-4191000Y+4953000D03*
X-3937000Y+4953000D03*
X-3683000Y+4953000D03*
X-3429000Y+4953000D03*
X-3175000Y+4953000D03*
X-4953000Y-5461000D03*
X-4699000Y-5461000D03*
X-4445000Y-5461000D03*
X-4191000Y-5461000D03*
X-3937000Y-5461000D03*
X-3683000Y-5461000D03*
X-3429000Y-5461000D03*
X-3175000Y-5461000D03*
X-2921000Y-5461000D03*
X-2667000Y-5461000D03*
X-2413000Y-5461000D03*
X-2159000Y-5461000D03*
X-1905000Y-5461000D03*
X-1651000Y-5461000D03*
X-1397000Y-5461000D03*
X-1143000Y-5461000D03*
X-889000Y-5461000D03*
X-635000Y-5461000D03*
X-381000Y-5461000D03*
X-127000Y-5461000D03*
X+127000Y-5461000D03*
X+381000Y-5461000D03*
X+635000Y-5461000D03*
X+889000Y-5461000D03*
X+1143000Y-5461000D03*
X+1397000Y-5461000D03*
X+1651000Y-5461000D03*
X+1905000Y-5461000D03*
X+2159000Y-5461000D03*
X+2413000Y-5461000D03*
X+2667000Y-5461000D03*
X+2921000Y-5461000D03*
X+3175000Y-5461000D03*
X+3429000Y-5461000D03*
X+3683000Y-5461000D03*
X+3937000Y-5461000D03*
X+4191000Y-5461000D03*
X+4445000Y-5461000D03*
X+4699000Y-5461000D03*
X+4953000Y-5461000D03*
X-5207000Y+4699000D03*
X-5207000Y+4445000D03*
X-5207000Y+4191000D03*
X-5207000Y+3937000D03*
X-5207000Y+3683000D03*
X-5207000Y+3429000D03*
X-5207000Y+3175000D03*
X-5207000Y+2921000D03*
X-5207000Y+2667000D03*
X-5207000Y+2413000D03*
X-5207000Y+2159000D03*
X-5207000Y+1905000D03*
X-5207000Y+1651000D03*
X-5207000Y+1397000D03*
X-5207000Y+1143000D03*
X-5207000Y+889000D03*
X-5207000Y+635000D03*
X-5207000Y+381000D03*
X-5207000Y+127000D03*
X-5207000Y-127000D03*
X-5207000Y-381000D03*
X-5207000Y-635000D03*
X-5207000Y-889000D03*
X-5207000Y-1143000D03*
X-5207000Y-1397000D03*
X-5207000Y-1651000D03*
X-5207000Y-1905000D03*
X-5207000Y-2159000D03*
X-5207000Y-2413000D03*
X-5207000Y-2667000D03*
X-5207000Y-2921000D03*
X-5207000Y-3175000D03*
X-5207000Y-3429000D03*
X-5207000Y-3683000D03*
X-5207000Y-3937000D03*
X-5207000Y-4191000D03*
X-5207000Y-4445000D03*
X-5207000Y-4699000D03*
X-5207000Y-4953000D03*
X-5207000Y-5207000D03*
X+5207000Y+4699000D03*
X+5207000Y+4445000D03*
X+5207000Y+4191000D03*
X+5207000Y+3937000D03*
X+5207000Y+3683000D03*
X+5207000Y+3429000D03*
X+5207000Y+3175000D03*
X+5207000Y+2921000D03*
X+5207000Y+2667000D03*
X+5207000Y+2413000D03*
X+5207000Y+2159000D03*
X+5207000Y+1905000D03*
X+5207000Y+1651000D03*
X+5207000Y+1397000D03*
X+5207000Y+1143000D03*
X+5207000Y+889000D03*
X+5207000Y+635000D03*
X+5207000Y+381000D03*
X+5207000Y+127000D03*
X+5207000Y-127000D03*
X+5207000Y-381000D03*
X+5207000Y-635000D03*
X+5207000Y-889000D03*
X+5207000Y-1143000D03*
X+5207000Y-1397000D03*
X+5207000Y-1651000D03*
X+5207000Y-1905000D03*
X+5207000Y-2159000D03*
X+5207000Y-2413000D03*
X+5207000Y-2667000D03*
X+5207000Y-2921000D03*
X+5207000Y-3175000D03*
X+5207000Y-3429000D03*
X+5207000Y-3683000D03*
X+5207000Y-3937000D03*
X+5207000Y-4191000D03*
X+5207000Y-4445000D03*
X+5207000Y-4699000D03*
X+5207000Y-4953000D03*
X+5207000Y-5207000D03*
D29*
X-4191000Y+3048000D03*
X-4191000Y+2794000D03*
X-4191000Y+2540000D03*
X-4191000Y+2286000D03*
X-4191000Y+2032000D03*
X-4191000Y+1778000D03*
X-4191000Y+1524000D03*
X-4191000Y+1270000D03*
X-4191000Y+1016000D03*
X-4191000Y+762000D03*
X-3429000Y+762000D03*
X-3429000Y+1016000D03*
X-3429000Y+1270000D03*
X-3429000Y+1524000D03*
X-3429000Y+1778000D03*
X-3429000Y+2032000D03*
X-3429000Y+2286000D03*
X-3429000Y+2540000D03*
X-3429000Y+2794000D03*
X-3429000Y+3048000D03*
X-1143000Y+3048000D03*
X-1143000Y+2794000D03*
X-1143000Y+2540000D03*
X-1143000Y+2286000D03*
X-1143000Y+2032000D03*
X-1143000Y+1778000D03*
X-1143000Y+1524000D03*
X-1143000Y+1270000D03*
X-1143000Y+1016000D03*
X-1143000Y+762000D03*
X-381000Y+762000D03*
X-381000Y+1016000D03*
X-381000Y+1270000D03*
X-381000Y+1524000D03*
X-381000Y+1778000D03*
X-381000Y+2032000D03*
X-381000Y+2286000D03*
X-381000Y+2540000D03*
X-381000Y+2794000D03*
X-381000Y+3048000D03*
X-2667000Y+3048000D03*
X-2667000Y+2794000D03*
X-2667000Y+2540000D03*
X-2667000Y+2286000D03*
X-2667000Y+2032000D03*
X-2667000Y+1778000D03*
X-2667000Y+1524000D03*
X-2667000Y+1270000D03*
X-2667000Y+1016000D03*
X-2667000Y+762000D03*
X-1905000Y+762000D03*
X-1905000Y+1016000D03*
X-1905000Y+1270000D03*
X-1905000Y+1524000D03*
X-1905000Y+1778000D03*
X-1905000Y+2032000D03*
X-1905000Y+2286000D03*
X-1905000Y+2540000D03*
X-1905000Y+2794000D03*
X-1905000Y+3048000D03*
X-2667000Y-1016000D03*
X-2667000Y-1270000D03*
X-2667000Y-1524000D03*
X-2667000Y-1778000D03*
X-2667000Y-2032000D03*
X-2667000Y-2286000D03*
X-2667000Y-2540000D03*
X-2667000Y-2794000D03*
X-2667000Y-3048000D03*
X-2667000Y-3302000D03*
X-1905000Y-3302000D03*
X-1905000Y-3048000D03*
X-1905000Y-2794000D03*
X-1905000Y-2540000D03*
X-1905000Y-2286000D03*
X-1905000Y-2032000D03*
X-1905000Y-1778000D03*
X-1905000Y-1524000D03*
X-1905000Y-1270000D03*
X-1905000Y-1016000D03*
X-4191000Y-1016000D03*
X-4191000Y-1270000D03*
X-4191000Y-1524000D03*
X-4191000Y-1778000D03*
X-4191000Y-2032000D03*
X-4191000Y-2286000D03*
X-4191000Y-2540000D03*
X-4191000Y-2794000D03*
X-4191000Y-3048000D03*
X-4191000Y-3302000D03*
X-3429000Y-3302000D03*
X-3429000Y-3048000D03*
X-3429000Y-2794000D03*
X-3429000Y-2540000D03*
X-3429000Y-2286000D03*
X-3429000Y-2032000D03*
X-3429000Y-1778000D03*
X-3429000Y-1524000D03*
X-3429000Y-1270000D03*
X-3429000Y-1016000D03*
X-1143000Y-1016000D03*
X-1143000Y-1270000D03*
X-1143000Y-1524000D03*
X-1143000Y-1778000D03*
X-1143000Y-2032000D03*
X-1143000Y-2286000D03*
X-1143000Y-2540000D03*
X-1143000Y-2794000D03*
X-1143000Y-3048000D03*
X-1143000Y-3302000D03*
X-381000Y-3302000D03*
X-381000Y-3048000D03*
X-381000Y-2794000D03*
X-381000Y-2540000D03*
X-381000Y-2286000D03*
X-381000Y-2032000D03*
X-381000Y-1778000D03*
X-381000Y-1524000D03*
X-381000Y-1270000D03*
X-381000Y-1016000D03*
X+1905000Y+3048000D03*
X+1905000Y+2794000D03*
X+1905000Y+2540000D03*
X+1905000Y+2286000D03*
X+1905000Y+2032000D03*
X+1905000Y+1778000D03*
X+1905000Y+1524000D03*
X+1905000Y+1270000D03*
X+1905000Y+1016000D03*
X+1905000Y+762000D03*
X+2667000Y+762000D03*
X+2667000Y+1016000D03*
X+2667000Y+1270000D03*
X+2667000Y+1524000D03*
X+2667000Y+1778000D03*
X+2667000Y+2032000D03*
X+2667000Y+2286000D03*
X+2667000Y+2540000D03*
X+2667000Y+2794000D03*
X+2667000Y+3048000D03*
X+381000Y+3048000D03*
X+381000Y+2794000D03*
X+381000Y+2540000D03*
X+381000Y+2286000D03*
X+381000Y+2032000D03*
X+381000Y+1778000D03*
X+381000Y+1524000D03*
X+381000Y+1270000D03*
X+381000Y+1016000D03*
X+381000Y+762000D03*
X+1143000Y+762000D03*
X+1143000Y+1016000D03*
X+1143000Y+1270000D03*
X+1143000Y+1524000D03*
X+1143000Y+1778000D03*
X+1143000Y+2032000D03*
X+1143000Y+2286000D03*
X+1143000Y+2540000D03*
X+1143000Y+2794000D03*
X+1143000Y+3048000D03*
X+3429000Y+3048000D03*
X+3429000Y+2794000D03*
X+3429000Y+2540000D03*
X+3429000Y+2286000D03*
X+3429000Y+2032000D03*
X+3429000Y+1778000D03*
X+3429000Y+1524000D03*
X+3429000Y+1270000D03*
X+3429000Y+1016000D03*
X+3429000Y+762000D03*
X+4191000Y+762000D03*
X+4191000Y+1016000D03*
X+4191000Y+1270000D03*
X+4191000Y+1524000D03*
X+4191000Y+1778000D03*
X+4191000Y+2032000D03*
X+4191000Y+2286000D03*
X+4191000Y+2540000D03*
X+4191000Y+2794000D03*
X+4191000Y+3048000D03*
X+1905000Y-1016000D03*
X+1905000Y-1270000D03*
X+1905000Y-1524000D03*
X+1905000Y-1778000D03*
X+1905000Y-2032000D03*
X+1905000Y-2286000D03*
X+1905000Y-2540000D03*
X+1905000Y-2794000D03*
X+1905000Y-3048000D03*
X+1905000Y-3302000D03*
X+2667000Y-3302000D03*
X+2667000Y-3048000D03*
X+2667000Y-2794000D03*
X+2667000Y-2540000D03*
X+2667000Y-2286000D03*
X+2667000Y-2032000D03*
X+2667000Y-1778000D03*
X+2667000Y-1524000D03*
X+2667000Y-1270000D03*
X+2667000Y-1016000D03*
X+381000Y-1016000D03*
X+381000Y-1270000D03*
X+381000Y-1524000D03*
X+381000Y-1778000D03*
X+381000Y-2032000D03*
X+381000Y-2286000D03*
X+381000Y-2540000D03*
X+381000Y-2794000D03*
X+381000Y-3048000D03*
X+381000Y-3302000D03*
X+1143000Y-3302000D03*
X+1143000Y-3048000D03*
X+1143000Y-2794000D03*
X+1143000Y-2540000D03*
X+1143000Y-2286000D03*
X+1143000Y-2032000D03*
X+1143000Y-1778000D03*
X+1143000Y-1524000D03*
X+1143000Y-1270000D03*
X+1143000Y-1016000D03*
X+3429000Y-1016000D03*
X+3429000Y-1270000D03*
X+3429000Y-1524000D03*
X+3429000Y-1778000D03*
X+3429000Y-2032000D03*
X+3429000Y-2286000D03*
X+3429000Y-2540000D03*
X+3429000Y-2794000D03*
X+3429000Y-3048000D03*
X+3429000Y-3302000D03*
X+4191000Y-3302000D03*
X+4191000Y-3048000D03*
X+4191000Y-2794000D03*
X+4191000Y-2540000D03*
X+4191000Y-2286000D03*
X+4191000Y-2032000D03*
X+4191000Y-1778000D03*
X+4191000Y-1524000D03*
X+4191000Y-1270000D03*
X+4191000Y-1016000D03*
M02*
