G04 PROTEUS GERBER X2 FILE*
%TF.GenerationSoftware,Labcenter,Proteus,8.13-SP0-Build31525*%
%TF.CreationDate,2022-07-18T16:44:16+00:00*%
%TF.FileFunction,Legend,Top*%
%TF.FilePolarity,Positive*%
%TF.Part,Single*%
%TF.SameCoordinates,{5cd33fac-9818-4aa8-8d23-16ed7fe0303d}*%
%FSLAX45Y45*%
%MOMM*%
G01*
%TA.AperFunction,Profile*%
%ADD15C,0.203200*%
%TA.AperFunction,Material*%
%ADD16C,0.203200*%
%TD.AperFunction*%
D15*
X-5461000Y-5715000D02*
X+5461000Y-5715000D01*
X+5461000Y+5207000D01*
X-5461000Y+5207000D01*
X-5461000Y-5715000D01*
D16*
X-3048000Y+4826000D02*
X-1016000Y+4826000D01*
X-1016000Y+5080000D01*
X-3048000Y+5080000D01*
X-3048000Y+4826000D01*
X-2286000Y+4643120D02*
X-2286000Y+4627880D01*
X-2270125Y+4612640D01*
X-2206625Y+4612640D01*
X-2190750Y+4627880D01*
X-2190750Y+4704080D01*
X-2143125Y+4658360D02*
X-2063750Y+4658360D01*
X-2032000Y+4612640D02*
X-2032000Y+4673600D01*
X-2000250Y+4704080D01*
X-1968500Y+4704080D01*
X-1936750Y+4673600D01*
X-1936750Y+4612640D01*
X-2032000Y+4643120D02*
X-1936750Y+4643120D01*
X-1809750Y+4627880D02*
X-1825625Y+4612640D01*
X-1873250Y+4612640D01*
X-1905000Y+4643120D01*
X-1905000Y+4673600D01*
X-1873250Y+4704080D01*
X-1825625Y+4704080D01*
X-1809750Y+4688840D01*
X-1016000Y+4826000D02*
X+1016000Y+4826000D01*
X+1016000Y+5080000D01*
X-1016000Y+5080000D01*
X-1016000Y+4826000D01*
X-444500Y+4643120D02*
X-444500Y+4627880D01*
X-428625Y+4612640D01*
X-365125Y+4612640D01*
X-349250Y+4627880D01*
X-349250Y+4704080D01*
X-301625Y+4658360D02*
X-222250Y+4658360D01*
X-190500Y+4612640D02*
X-190500Y+4673600D01*
X-158750Y+4704080D01*
X-127000Y+4704080D01*
X-95250Y+4673600D01*
X-95250Y+4612640D01*
X-190500Y+4643120D02*
X-95250Y+4643120D01*
X+31750Y+4627880D02*
X+15875Y+4612640D01*
X-31750Y+4612640D01*
X-63500Y+4643120D01*
X-63500Y+4673600D01*
X-31750Y+4704080D01*
X+15875Y+4704080D01*
X+31750Y+4688840D01*
X+79375Y+4658360D02*
X+158750Y+4658360D01*
X+190500Y+4612640D02*
X+190500Y+4673600D01*
X+222250Y+4704080D01*
X+254000Y+4704080D01*
X+285750Y+4673600D01*
X+285750Y+4612640D01*
X+190500Y+4643120D02*
X+285750Y+4643120D01*
X+317500Y+4704080D02*
X+412750Y+4704080D01*
X+365125Y+4704080D02*
X+365125Y+4612640D01*
X+1016000Y+4826000D02*
X+3048000Y+4826000D01*
X+3048000Y+5080000D01*
X+1016000Y+5080000D01*
X+1016000Y+4826000D01*
X+1778000Y+4643120D02*
X+1778000Y+4627880D01*
X+1793875Y+4612640D01*
X+1857375Y+4612640D01*
X+1873250Y+4627880D01*
X+1873250Y+4704080D01*
X+1920875Y+4658360D02*
X+2000250Y+4658360D01*
X+2032000Y+4612640D02*
X+2032000Y+4673600D01*
X+2063750Y+4704080D01*
X+2095500Y+4704080D01*
X+2127250Y+4673600D01*
X+2127250Y+4612640D01*
X+2032000Y+4643120D02*
X+2127250Y+4643120D01*
X+2159000Y+4704080D02*
X+2254250Y+4704080D01*
X+2206625Y+4704080D02*
X+2206625Y+4612640D01*
X+3048000Y+4826000D02*
X+5080000Y+4826000D01*
X+5080000Y+5080000D01*
X+3048000Y+5080000D01*
X+3048000Y+4826000D01*
X+3810000Y+4643120D02*
X+3810000Y+4627880D01*
X+3825875Y+4612640D01*
X+3889375Y+4612640D01*
X+3905250Y+4627880D01*
X+3905250Y+4704080D01*
X+3952875Y+4658360D02*
X+4032250Y+4658360D01*
X+4064000Y+4612640D02*
X+4064000Y+4704080D01*
X+4143375Y+4704080D01*
X+4159250Y+4688840D01*
X+4159250Y+4673600D01*
X+4143375Y+4658360D01*
X+4159250Y+4643120D01*
X+4159250Y+4627880D01*
X+4143375Y+4612640D01*
X+4064000Y+4612640D01*
X+4064000Y+4658360D02*
X+4143375Y+4658360D01*
X+4206875Y+4704080D02*
X+4270375Y+4704080D01*
X+4238625Y+4704080D02*
X+4238625Y+4612640D01*
X+4206875Y+4612640D02*
X+4270375Y+4612640D01*
X-5080000Y+4826000D02*
X-3048000Y+4826000D01*
X-3048000Y+5080000D01*
X-5080000Y+5080000D01*
X-5080000Y+4826000D01*
X-4572000Y+4643120D02*
X-4572000Y+4627880D01*
X-4556125Y+4612640D01*
X-4492625Y+4612640D01*
X-4476750Y+4627880D01*
X-4476750Y+4704080D01*
X-4429125Y+4658360D02*
X-4349750Y+4658360D01*
X-4302125Y+4704080D02*
X-4238625Y+4704080D01*
X-4270375Y+4704080D02*
X-4270375Y+4612640D01*
X-4302125Y+4612640D02*
X-4238625Y+4612640D01*
X-4191000Y+4612640D02*
X-4191000Y+4704080D01*
X-4095750Y+4612640D01*
X-4095750Y+4704080D01*
X-4048125Y+4658360D02*
X-3968750Y+4658360D01*
X-3937000Y+4673600D02*
X-3905250Y+4704080D01*
X-3873500Y+4704080D01*
X-3841750Y+4673600D01*
X-3841750Y+4643120D01*
X-3873500Y+4612640D01*
X-3905250Y+4612640D01*
X-3937000Y+4643120D01*
X-3937000Y+4673600D01*
X-3810000Y+4704080D02*
X-3810000Y+4627880D01*
X-3794125Y+4612640D01*
X-3730625Y+4612640D01*
X-3714750Y+4627880D01*
X-3714750Y+4704080D01*
X-3683000Y+4704080D02*
X-3587750Y+4704080D01*
X-3635375Y+4704080D02*
X-3635375Y+4612640D01*
X-5080000Y-5588000D02*
X-3048000Y-5588000D01*
X-3048000Y-5334000D01*
X-5080000Y-5334000D01*
X-5080000Y-5588000D01*
X-4635500Y-5262880D02*
X-4635500Y-5278120D01*
X-4619625Y-5293360D01*
X-4556125Y-5293360D01*
X-4540250Y-5278120D01*
X-4540250Y-5201920D01*
X-4492625Y-5247640D02*
X-4413250Y-5247640D01*
X-4381500Y-5293360D02*
X-4381500Y-5201920D01*
X-4302125Y-5201920D01*
X-4286250Y-5217160D01*
X-4286250Y-5232400D01*
X-4302125Y-5247640D01*
X-4286250Y-5262880D01*
X-4286250Y-5278120D01*
X-4302125Y-5293360D01*
X-4381500Y-5293360D01*
X-4381500Y-5247640D02*
X-4302125Y-5247640D01*
X-4254500Y-5293360D02*
X-4254500Y-5232400D01*
X-4222750Y-5201920D01*
X-4191000Y-5201920D01*
X-4159250Y-5232400D01*
X-4159250Y-5293360D01*
X-4254500Y-5262880D02*
X-4159250Y-5262880D01*
X-4048125Y-5201920D02*
X-4095750Y-5201920D01*
X-4095750Y-5293360D01*
X-4048125Y-5293360D01*
X-4000500Y-5278120D02*
X-4000500Y-5217160D01*
X-3984625Y-5201920D01*
X-3921125Y-5201920D01*
X-3905250Y-5217160D01*
X-3905250Y-5278120D01*
X-3921125Y-5293360D01*
X-3984625Y-5293360D01*
X-4000500Y-5278120D01*
X-4000500Y-5293360D02*
X-3905250Y-5201920D01*
X-3857625Y-5247640D02*
X-3778250Y-5247640D01*
X-3730625Y-5201920D02*
X-3651250Y-5201920D01*
X-3651250Y-5217160D01*
X-3730625Y-5293360D01*
X-3587750Y-5201920D02*
X-3540125Y-5201920D01*
X-3540125Y-5293360D01*
X-3587750Y-5293360D01*
X-3048000Y-5588000D02*
X-1016000Y-5588000D01*
X-1016000Y-5334000D01*
X-3048000Y-5334000D01*
X-3048000Y-5588000D01*
X-2667000Y-5262880D02*
X-2667000Y-5278120D01*
X-2651125Y-5293360D01*
X-2587625Y-5293360D01*
X-2571750Y-5278120D01*
X-2571750Y-5201920D01*
X-2524125Y-5247640D02*
X-2444750Y-5247640D01*
X-2413000Y-5293360D02*
X-2413000Y-5201920D01*
X-2333625Y-5201920D01*
X-2317750Y-5217160D01*
X-2317750Y-5232400D01*
X-2333625Y-5247640D01*
X-2317750Y-5262880D01*
X-2317750Y-5278120D01*
X-2333625Y-5293360D01*
X-2413000Y-5293360D01*
X-2413000Y-5247640D02*
X-2333625Y-5247640D01*
X-2286000Y-5293360D02*
X-2286000Y-5232400D01*
X-2254250Y-5201920D01*
X-2222500Y-5201920D01*
X-2190750Y-5232400D01*
X-2190750Y-5293360D01*
X-2286000Y-5262880D02*
X-2190750Y-5262880D01*
X-2079625Y-5201920D02*
X-2127250Y-5201920D01*
X-2127250Y-5293360D01*
X-2079625Y-5293360D01*
X-2000250Y-5247640D02*
X-2016125Y-5232400D01*
X-2016125Y-5217160D01*
X-2000250Y-5201920D01*
X-1952625Y-5201920D01*
X-1936750Y-5217160D01*
X-1936750Y-5232400D01*
X-1952625Y-5247640D01*
X-2000250Y-5247640D01*
X-2016125Y-5262880D01*
X-2016125Y-5278120D01*
X-2000250Y-5293360D01*
X-1952625Y-5293360D01*
X-1936750Y-5278120D01*
X-1936750Y-5262880D01*
X-1952625Y-5247640D01*
X-1889125Y-5247640D02*
X-1809750Y-5247640D01*
X-1746250Y-5232400D02*
X-1714500Y-5201920D01*
X-1714500Y-5293360D01*
X-1555750Y-5201920D02*
X-1635125Y-5201920D01*
X-1635125Y-5232400D01*
X-1571625Y-5232400D01*
X-1555750Y-5247640D01*
X-1555750Y-5278120D01*
X-1571625Y-5293360D01*
X-1619250Y-5293360D01*
X-1635125Y-5278120D01*
X-1492250Y-5201920D02*
X-1444625Y-5201920D01*
X-1444625Y-5293360D01*
X-1492250Y-5293360D01*
X-1016000Y-5588000D02*
X+1016000Y-5588000D01*
X+1016000Y-5334000D01*
X-1016000Y-5334000D01*
X-1016000Y-5588000D01*
X-254000Y-5262880D02*
X-254000Y-5278120D01*
X-238125Y-5293360D01*
X-174625Y-5293360D01*
X-158750Y-5278120D01*
X-158750Y-5201920D01*
X-111125Y-5247640D02*
X-31750Y-5247640D01*
X+0Y-5293360D02*
X+0Y-5201920D01*
X+79375Y-5201920D01*
X+95250Y-5217160D01*
X+95250Y-5232400D01*
X+79375Y-5247640D01*
X+95250Y-5262880D01*
X+95250Y-5278120D01*
X+79375Y-5293360D01*
X+0Y-5293360D01*
X+0Y-5247640D02*
X+79375Y-5247640D01*
X+127000Y-5293360D02*
X+127000Y-5201920D01*
X+190500Y-5201920D01*
X+222250Y-5232400D01*
X+222250Y-5262880D01*
X+190500Y-5293360D01*
X+127000Y-5293360D01*
X+1016000Y-5588000D02*
X+3048000Y-5588000D01*
X+3048000Y-5334000D01*
X+1016000Y-5334000D01*
X+1016000Y-5588000D01*
X+1460500Y-5262880D02*
X+1460500Y-5278120D01*
X+1476375Y-5293360D01*
X+1539875Y-5293360D01*
X+1555750Y-5278120D01*
X+1555750Y-5201920D01*
X+1603375Y-5247640D02*
X+1682750Y-5247640D01*
X+1714500Y-5293360D02*
X+1714500Y-5201920D01*
X+1793875Y-5201920D01*
X+1809750Y-5217160D01*
X+1809750Y-5232400D01*
X+1793875Y-5247640D01*
X+1809750Y-5262880D01*
X+1809750Y-5278120D01*
X+1793875Y-5293360D01*
X+1714500Y-5293360D01*
X+1714500Y-5247640D02*
X+1793875Y-5247640D01*
X+1841500Y-5201920D02*
X+1841500Y-5278120D01*
X+1857375Y-5293360D01*
X+1920875Y-5293360D01*
X+1936750Y-5278120D01*
X+1936750Y-5201920D01*
X+2047875Y-5201920D02*
X+2000250Y-5201920D01*
X+2000250Y-5293360D01*
X+2047875Y-5293360D01*
X+2095500Y-5278120D02*
X+2095500Y-5217160D01*
X+2111375Y-5201920D01*
X+2174875Y-5201920D01*
X+2190750Y-5217160D01*
X+2190750Y-5278120D01*
X+2174875Y-5293360D01*
X+2111375Y-5293360D01*
X+2095500Y-5278120D01*
X+2095500Y-5293360D02*
X+2190750Y-5201920D01*
X+2238375Y-5247640D02*
X+2317750Y-5247640D01*
X+2365375Y-5201920D02*
X+2444750Y-5201920D01*
X+2444750Y-5217160D01*
X+2365375Y-5293360D01*
X+2508250Y-5201920D02*
X+2555875Y-5201920D01*
X+2555875Y-5293360D01*
X+2508250Y-5293360D01*
X+3048000Y-5588000D02*
X+5080000Y-5588000D01*
X+5080000Y-5334000D01*
X+3048000Y-5334000D01*
X+3048000Y-5588000D01*
X+3429000Y-5262880D02*
X+3429000Y-5278120D01*
X+3444875Y-5293360D01*
X+3508375Y-5293360D01*
X+3524250Y-5278120D01*
X+3524250Y-5201920D01*
X+3571875Y-5247640D02*
X+3651250Y-5247640D01*
X+3683000Y-5293360D02*
X+3683000Y-5201920D01*
X+3762375Y-5201920D01*
X+3778250Y-5217160D01*
X+3778250Y-5232400D01*
X+3762375Y-5247640D01*
X+3778250Y-5262880D01*
X+3778250Y-5278120D01*
X+3762375Y-5293360D01*
X+3683000Y-5293360D01*
X+3683000Y-5247640D02*
X+3762375Y-5247640D01*
X+3810000Y-5201920D02*
X+3810000Y-5278120D01*
X+3825875Y-5293360D01*
X+3889375Y-5293360D01*
X+3905250Y-5278120D01*
X+3905250Y-5201920D01*
X+4016375Y-5201920D02*
X+3968750Y-5201920D01*
X+3968750Y-5293360D01*
X+4016375Y-5293360D01*
X+4095750Y-5247640D02*
X+4079875Y-5232400D01*
X+4079875Y-5217160D01*
X+4095750Y-5201920D01*
X+4143375Y-5201920D01*
X+4159250Y-5217160D01*
X+4159250Y-5232400D01*
X+4143375Y-5247640D01*
X+4095750Y-5247640D01*
X+4079875Y-5262880D01*
X+4079875Y-5278120D01*
X+4095750Y-5293360D01*
X+4143375Y-5293360D01*
X+4159250Y-5278120D01*
X+4159250Y-5262880D01*
X+4143375Y-5247640D01*
X+4206875Y-5247640D02*
X+4286250Y-5247640D01*
X+4349750Y-5232400D02*
X+4381500Y-5201920D01*
X+4381500Y-5293360D01*
X+4540250Y-5201920D02*
X+4460875Y-5201920D01*
X+4460875Y-5232400D01*
X+4524375Y-5232400D01*
X+4540250Y-5247640D01*
X+4540250Y-5278120D01*
X+4524375Y-5293360D01*
X+4476750Y-5293360D01*
X+4460875Y-5278120D01*
X+4603750Y-5201920D02*
X+4651375Y-5201920D01*
X+4651375Y-5293360D01*
X+4603750Y-5293360D01*
X-5334000Y+2794000D02*
X-5080000Y+2794000D01*
X-5080000Y+4826000D01*
X-5334000Y+4826000D01*
X-5334000Y+2794000D01*
X-4978400Y+3175000D02*
X-4963160Y+3175000D01*
X-4947920Y+3190875D01*
X-4947920Y+3254375D01*
X-4963160Y+3270250D01*
X-5039360Y+3270250D01*
X-4993640Y+3317875D02*
X-4993640Y+3397250D01*
X-4963160Y+3429000D02*
X-4947920Y+3444875D01*
X-4947920Y+3508375D01*
X-4963160Y+3524250D01*
X-4978400Y+3524250D01*
X-4993640Y+3508375D01*
X-4993640Y+3444875D01*
X-5008880Y+3429000D01*
X-5024120Y+3429000D01*
X-5039360Y+3444875D01*
X-5039360Y+3508375D01*
X-5024120Y+3524250D01*
X-4963160Y+3651250D02*
X-4947920Y+3635375D01*
X-4947920Y+3587750D01*
X-4978400Y+3556000D01*
X-5008880Y+3556000D01*
X-5039360Y+3587750D01*
X-5039360Y+3635375D01*
X-5024120Y+3651250D01*
X-4993640Y+3698875D02*
X-4993640Y+3778250D01*
X-4963160Y+3810000D02*
X-4947920Y+3825875D01*
X-4947920Y+3889375D01*
X-4963160Y+3905250D01*
X-4978400Y+3905250D01*
X-4993640Y+3889375D01*
X-4993640Y+3825875D01*
X-5008880Y+3810000D01*
X-5024120Y+3810000D01*
X-5039360Y+3825875D01*
X-5039360Y+3889375D01*
X-5024120Y+3905250D01*
X-4947920Y+3937000D02*
X-5039360Y+3937000D01*
X-5039360Y+4000500D01*
X-5008880Y+4032250D01*
X-4978400Y+4032250D01*
X-4947920Y+4000500D01*
X-4947920Y+3937000D01*
X-4993640Y+4079875D02*
X-4993640Y+4159250D01*
X-4963160Y+4191000D02*
X-4947920Y+4206875D01*
X-4947920Y+4270375D01*
X-4963160Y+4286250D01*
X-4978400Y+4286250D01*
X-4993640Y+4270375D01*
X-4993640Y+4206875D01*
X-5008880Y+4191000D01*
X-5024120Y+4191000D01*
X-5039360Y+4206875D01*
X-5039360Y+4270375D01*
X-5024120Y+4286250D01*
X-4963160Y+4318000D02*
X-4947920Y+4333875D01*
X-4947920Y+4397375D01*
X-4963160Y+4413250D01*
X-4978400Y+4413250D01*
X-4993640Y+4397375D01*
X-4993640Y+4333875D01*
X-5008880Y+4318000D01*
X-5024120Y+4318000D01*
X-5039360Y+4333875D01*
X-5039360Y+4397375D01*
X-5024120Y+4413250D01*
X-5334000Y+762000D02*
X-5080000Y+762000D01*
X-5080000Y+2794000D01*
X-5334000Y+2794000D01*
X-5334000Y+762000D01*
X-4978400Y+1333500D02*
X-4963160Y+1333500D01*
X-4947920Y+1349375D01*
X-4947920Y+1412875D01*
X-4963160Y+1428750D01*
X-5039360Y+1428750D01*
X-4993640Y+1476375D02*
X-4993640Y+1555750D01*
X-4947920Y+1587500D02*
X-5039360Y+1587500D01*
X-5039360Y+1666875D01*
X-5024120Y+1682750D01*
X-5008880Y+1682750D01*
X-4993640Y+1666875D01*
X-4993640Y+1587500D01*
X-4993640Y+1666875D02*
X-4978400Y+1682750D01*
X-4947920Y+1682750D01*
X-4947920Y+1714500D02*
X-5039360Y+1714500D01*
X-5039360Y+1793875D01*
X-5024120Y+1809750D01*
X-5008880Y+1809750D01*
X-4993640Y+1793875D01*
X-4993640Y+1714500D01*
X-4993640Y+1857375D02*
X-4993640Y+1936750D01*
X-4947920Y+1968500D02*
X-5039360Y+1968500D01*
X-5039360Y+2047875D01*
X-5024120Y+2063750D01*
X-5008880Y+2063750D01*
X-4993640Y+2047875D01*
X-4993640Y+1968500D01*
X-4993640Y+2047875D02*
X-4978400Y+2063750D01*
X-4947920Y+2063750D01*
X-4963160Y+2095500D02*
X-4947920Y+2111375D01*
X-4947920Y+2174875D01*
X-4963160Y+2190750D01*
X-4978400Y+2190750D01*
X-4993640Y+2174875D01*
X-4993640Y+2111375D01*
X-5008880Y+2095500D01*
X-5024120Y+2095500D01*
X-5039360Y+2111375D01*
X-5039360Y+2174875D01*
X-5024120Y+2190750D01*
X-5334000Y-1270000D02*
X-5080000Y-1270000D01*
X-5080000Y+762000D01*
X-5334000Y+762000D01*
X-5334000Y-1270000D01*
X-4978400Y-889000D02*
X-4963160Y-889000D01*
X-4947920Y-873125D01*
X-4947920Y-809625D01*
X-4963160Y-793750D01*
X-5039360Y-793750D01*
X-4993640Y-746125D02*
X-4993640Y-666750D01*
X-4947920Y-635000D02*
X-5039360Y-635000D01*
X-5039360Y-555625D01*
X-5024120Y-539750D01*
X-5008880Y-539750D01*
X-4993640Y-555625D01*
X-4993640Y-635000D01*
X-4993640Y-555625D02*
X-4978400Y-539750D01*
X-4947920Y-539750D01*
X-4947920Y-508000D02*
X-5008880Y-508000D01*
X-5039360Y-476250D01*
X-5039360Y-444500D01*
X-5008880Y-412750D01*
X-4947920Y-412750D01*
X-4978400Y-508000D02*
X-4978400Y-412750D01*
X-4993640Y-365125D02*
X-4993640Y-285750D01*
X-4947920Y-254000D02*
X-5039360Y-254000D01*
X-5039360Y-174625D01*
X-5024120Y-158750D01*
X-5008880Y-158750D01*
X-4993640Y-174625D01*
X-4993640Y-254000D01*
X-4993640Y-174625D02*
X-4978400Y-158750D01*
X-4947920Y-158750D01*
X-4947920Y-127000D02*
X-5039360Y-127000D01*
X-5039360Y-47625D01*
X-5024120Y-31750D01*
X-5008880Y-31750D01*
X-4993640Y-47625D01*
X-4978400Y-31750D01*
X-4963160Y-31750D01*
X-4947920Y-47625D01*
X-4947920Y-127000D01*
X-4993640Y-127000D02*
X-4993640Y-47625D01*
X-4993640Y+15875D02*
X-4993640Y+95250D01*
X-4947920Y+127000D02*
X-5039360Y+127000D01*
X-5039360Y+206375D01*
X-5024120Y+222250D01*
X-5008880Y+222250D01*
X-4993640Y+206375D01*
X-4993640Y+127000D01*
X-4993640Y+206375D02*
X-4978400Y+222250D01*
X-4947920Y+222250D01*
X-4963160Y+349250D02*
X-4947920Y+333375D01*
X-4947920Y+285750D01*
X-4978400Y+254000D01*
X-5008880Y+254000D01*
X-5039360Y+285750D01*
X-5039360Y+333375D01*
X-5024120Y+349250D01*
X-5334000Y-3302000D02*
X-5080000Y-3302000D01*
X-5080000Y-1270000D01*
X-5334000Y-1270000D01*
X-5334000Y-3302000D01*
X-4978400Y-3048000D02*
X-4963160Y-3048000D01*
X-4947920Y-3032125D01*
X-4947920Y-2968625D01*
X-4963160Y-2952750D01*
X-5039360Y-2952750D01*
X-4993640Y-2905125D02*
X-4993640Y-2825750D01*
X-4947920Y-2794000D02*
X-5039360Y-2794000D01*
X-5039360Y-2714625D01*
X-5024120Y-2698750D01*
X-5008880Y-2698750D01*
X-4993640Y-2714625D01*
X-4993640Y-2794000D01*
X-4993640Y-2714625D02*
X-4978400Y-2698750D01*
X-4947920Y-2698750D01*
X-4947920Y-2667000D02*
X-5039360Y-2667000D01*
X-5039360Y-2603500D01*
X-5008880Y-2571750D01*
X-4978400Y-2571750D01*
X-4947920Y-2603500D01*
X-4947920Y-2667000D01*
X-4993640Y-2524125D02*
X-4993640Y-2444750D01*
X-4947920Y-2413000D02*
X-5039360Y-2413000D01*
X-4993640Y-2365375D01*
X-5039360Y-2317750D01*
X-4947920Y-2317750D01*
X-4947920Y-2190750D02*
X-4947920Y-2286000D01*
X-5039360Y-2286000D01*
X-5039360Y-2190750D01*
X-4993640Y-2286000D02*
X-4993640Y-2222500D01*
X-4947920Y-2159000D02*
X-5039360Y-2159000D01*
X-4993640Y-2111375D01*
X-5039360Y-2063750D01*
X-4947920Y-2063750D01*
X-4993640Y-2016125D02*
X-4993640Y-1936750D01*
X-4963160Y-1809750D02*
X-4947920Y-1825625D01*
X-4947920Y-1873250D01*
X-4978400Y-1905000D01*
X-5008880Y-1905000D01*
X-5039360Y-1873250D01*
X-5039360Y-1825625D01*
X-5024120Y-1809750D01*
X-4947920Y-1778000D02*
X-5039360Y-1778000D01*
X-5039360Y-1682750D02*
X-4947920Y-1682750D01*
X-4993640Y-1778000D02*
X-4993640Y-1682750D01*
X-5039360Y-1651000D02*
X-4947920Y-1651000D01*
X-5039360Y-1555750D02*
X-4993640Y-1603375D01*
X-4947920Y-1555750D01*
X-4993640Y-1651000D02*
X-4993640Y-1603375D01*
X-5334000Y-5334000D02*
X-5080000Y-5334000D01*
X-5080000Y-3302000D01*
X-5334000Y-3302000D01*
X-5334000Y-5334000D01*
X-4978400Y-4889500D02*
X-4963160Y-4889500D01*
X-4947920Y-4873625D01*
X-4947920Y-4810125D01*
X-4963160Y-4794250D01*
X-5039360Y-4794250D01*
X-4993640Y-4746625D02*
X-4993640Y-4667250D01*
X-4963160Y-4540250D02*
X-4947920Y-4556125D01*
X-4947920Y-4603750D01*
X-4978400Y-4635500D01*
X-5008880Y-4635500D01*
X-5039360Y-4603750D01*
X-5039360Y-4556125D01*
X-5024120Y-4540250D01*
X-4947920Y-4508500D02*
X-5039360Y-4508500D01*
X-5039360Y-4413250D02*
X-4947920Y-4413250D01*
X-4993640Y-4508500D02*
X-4993640Y-4413250D01*
X-5039360Y-4381500D02*
X-4947920Y-4381500D01*
X-5039360Y-4286250D02*
X-4993640Y-4333875D01*
X-4947920Y-4286250D01*
X-4993640Y-4381500D02*
X-4993640Y-4333875D01*
X-4993640Y-4238625D02*
X-4993640Y-4159250D01*
X-4947920Y-4127500D02*
X-5008880Y-4127500D01*
X-5039360Y-4095750D01*
X-5039360Y-4064000D01*
X-5008880Y-4032250D01*
X-4947920Y-4032250D01*
X-4978400Y-4127500D02*
X-4978400Y-4032250D01*
X-5039360Y-4000500D02*
X-4947920Y-4000500D01*
X-4947920Y-3905250D01*
X-5039360Y-3873500D02*
X-4963160Y-3873500D01*
X-4947920Y-3857625D01*
X-4947920Y-3794125D01*
X-4963160Y-3778250D01*
X-5039360Y-3778250D01*
X+5080000Y+2794000D02*
X+5334000Y+2794000D01*
X+5334000Y+4826000D01*
X+5080000Y+4826000D01*
X+5080000Y+2794000D01*
X+4927600Y+3302000D02*
X+4942840Y+3302000D01*
X+4958080Y+3317875D01*
X+4958080Y+3381375D01*
X+4942840Y+3397250D01*
X+4866640Y+3397250D01*
X+4912360Y+3444875D02*
X+4912360Y+3524250D01*
X+4958080Y+3556000D02*
X+4897120Y+3556000D01*
X+4866640Y+3587750D01*
X+4866640Y+3619500D01*
X+4897120Y+3651250D01*
X+4958080Y+3651250D01*
X+4927600Y+3556000D02*
X+4927600Y+3651250D01*
X+4866640Y+3683000D02*
X+4958080Y+3683000D01*
X+4958080Y+3778250D01*
X+4866640Y+3810000D02*
X+4942840Y+3810000D01*
X+4958080Y+3825875D01*
X+4958080Y+3889375D01*
X+4942840Y+3905250D01*
X+4866640Y+3905250D01*
X+4912360Y+3952875D02*
X+4912360Y+4032250D01*
X+4958080Y+4064000D02*
X+4866640Y+4064000D01*
X+4866640Y+4143375D01*
X+4881880Y+4159250D01*
X+4897120Y+4159250D01*
X+4912360Y+4143375D01*
X+4912360Y+4064000D01*
X+4912360Y+4143375D02*
X+4927600Y+4159250D01*
X+4958080Y+4159250D01*
X+4866640Y+4191000D02*
X+4866640Y+4286250D01*
X+4866640Y+4238625D02*
X+4958080Y+4238625D01*
X+5080000Y+762000D02*
X+5334000Y+762000D01*
X+5334000Y+2794000D01*
X+5080000Y+2794000D01*
X+5080000Y+762000D01*
X+4927600Y+825500D02*
X+4942840Y+825500D01*
X+4958080Y+841375D01*
X+4958080Y+904875D01*
X+4942840Y+920750D01*
X+4866640Y+920750D01*
X+4912360Y+968375D02*
X+4912360Y+1047750D01*
X+4958080Y+1079500D02*
X+4866640Y+1079500D01*
X+4866640Y+1158875D01*
X+4881880Y+1174750D01*
X+4897120Y+1174750D01*
X+4912360Y+1158875D01*
X+4912360Y+1079500D01*
X+4912360Y+1158875D02*
X+4927600Y+1174750D01*
X+4958080Y+1174750D01*
X+4866640Y+1222375D02*
X+4866640Y+1285875D01*
X+4866640Y+1254125D02*
X+4958080Y+1254125D01*
X+4958080Y+1222375D02*
X+4958080Y+1285875D01*
X+4912360Y+1349375D02*
X+4912360Y+1428750D01*
X+4958080Y+1460500D02*
X+4866640Y+1460500D01*
X+4866640Y+1539875D01*
X+4881880Y+1555750D01*
X+4897120Y+1555750D01*
X+4912360Y+1539875D01*
X+4912360Y+1460500D01*
X+4912360Y+1539875D02*
X+4927600Y+1555750D01*
X+4958080Y+1555750D01*
X+4958080Y+1587500D02*
X+4866640Y+1587500D01*
X+4866640Y+1682750D01*
X+4912360Y+1587500D02*
X+4912360Y+1651000D01*
X+4912360Y+1730375D02*
X+4912360Y+1809750D01*
X+4958080Y+1841500D02*
X+4866640Y+1841500D01*
X+4866640Y+1920875D01*
X+4881880Y+1936750D01*
X+4897120Y+1936750D01*
X+4912360Y+1920875D01*
X+4912360Y+1841500D01*
X+4912360Y+1920875D02*
X+4927600Y+1936750D01*
X+4958080Y+1936750D01*
X+4958080Y+1968500D02*
X+4897120Y+1968500D01*
X+4866640Y+2000250D01*
X+4866640Y+2032000D01*
X+4897120Y+2063750D01*
X+4958080Y+2063750D01*
X+4927600Y+1968500D02*
X+4927600Y+2063750D01*
X+4866640Y+2095500D02*
X+4958080Y+2095500D01*
X+4958080Y+2190750D01*
X+4912360Y+2238375D02*
X+4912360Y+2317750D01*
X+4958080Y+2349500D02*
X+4866640Y+2349500D01*
X+4866640Y+2428875D01*
X+4881880Y+2444750D01*
X+4897120Y+2444750D01*
X+4912360Y+2428875D01*
X+4912360Y+2349500D01*
X+4912360Y+2428875D02*
X+4927600Y+2444750D01*
X+4958080Y+2444750D01*
X+4958080Y+2476500D02*
X+4897120Y+2476500D01*
X+4866640Y+2508250D01*
X+4866640Y+2540000D01*
X+4897120Y+2571750D01*
X+4958080Y+2571750D01*
X+4927600Y+2476500D02*
X+4927600Y+2571750D01*
X+4958080Y+2603500D02*
X+4866640Y+2603500D01*
X+4866640Y+2698750D02*
X+4958080Y+2698750D01*
X+4912360Y+2603500D02*
X+4912360Y+2698750D01*
X+5080000Y-1270000D02*
X+5334000Y-1270000D01*
X+5334000Y+762000D01*
X+5080000Y+762000D01*
X+5080000Y-1270000D01*
X+4927600Y-1079500D02*
X+4942840Y-1079500D01*
X+4958080Y-1063625D01*
X+4958080Y-1000125D01*
X+4942840Y-984250D01*
X+4866640Y-984250D01*
X+4912360Y-936625D02*
X+4912360Y-857250D01*
X+4942840Y-825500D02*
X+4958080Y-809625D01*
X+4958080Y-746125D01*
X+4942840Y-730250D01*
X+4927600Y-730250D01*
X+4912360Y-746125D01*
X+4912360Y-809625D01*
X+4897120Y-825500D01*
X+4881880Y-825500D01*
X+4866640Y-809625D01*
X+4866640Y-746125D01*
X+4881880Y-730250D01*
X+4866640Y-682625D02*
X+4866640Y-619125D01*
X+4866640Y-650875D02*
X+4958080Y-650875D01*
X+4958080Y-682625D02*
X+4958080Y-619125D01*
X+4927600Y-508000D02*
X+4927600Y-476250D01*
X+4958080Y-476250D01*
X+4958080Y-539750D01*
X+4927600Y-571500D01*
X+4897120Y-571500D01*
X+4866640Y-539750D01*
X+4866640Y-492125D01*
X+4881880Y-476250D01*
X+4912360Y-428625D02*
X+4912360Y-349250D01*
X+4958080Y-317500D02*
X+4866640Y-317500D01*
X+4866640Y-254000D01*
X+4897120Y-222250D01*
X+4927600Y-222250D01*
X+4958080Y-254000D01*
X+4958080Y-317500D01*
X+4958080Y-95250D02*
X+4958080Y-190500D01*
X+4866640Y-190500D01*
X+4866640Y-95250D01*
X+4912360Y-190500D02*
X+4912360Y-127000D01*
X+4866640Y-63500D02*
X+4912360Y-63500D01*
X+4958080Y-15875D01*
X+4912360Y+31750D01*
X+4866640Y+31750D01*
X+4912360Y+79375D02*
X+4912360Y+158750D01*
X+4958080Y+190500D02*
X+4866640Y+190500D01*
X+4866640Y+269875D01*
X+4881880Y+285750D01*
X+4897120Y+285750D01*
X+4912360Y+269875D01*
X+4912360Y+190500D01*
X+4912360Y+269875D02*
X+4927600Y+285750D01*
X+4958080Y+285750D01*
X+4897120Y+317500D02*
X+4866640Y+349250D01*
X+4866640Y+381000D01*
X+4897120Y+412750D01*
X+4927600Y+412750D01*
X+4958080Y+381000D01*
X+4958080Y+349250D01*
X+4927600Y+317500D01*
X+4897120Y+317500D01*
X+4958080Y+444500D02*
X+4866640Y+444500D01*
X+4912360Y+492125D01*
X+4866640Y+539750D01*
X+4958080Y+539750D01*
X+5080000Y-3302000D02*
X+5334000Y-3302000D01*
X+5334000Y-1270000D01*
X+5080000Y-1270000D01*
X+5080000Y-3302000D01*
X+4927600Y-2857500D02*
X+4942840Y-2857500D01*
X+4958080Y-2841625D01*
X+4958080Y-2778125D01*
X+4942840Y-2762250D01*
X+4866640Y-2762250D01*
X+4912360Y-2714625D02*
X+4912360Y-2635250D01*
X+4958080Y-2603500D02*
X+4866640Y-2603500D01*
X+4866640Y-2524125D01*
X+4881880Y-2508250D01*
X+4897120Y-2508250D01*
X+4912360Y-2524125D01*
X+4912360Y-2603500D01*
X+4912360Y-2524125D02*
X+4927600Y-2508250D01*
X+4958080Y-2508250D01*
X+4958080Y-2476500D02*
X+4897120Y-2476500D01*
X+4866640Y-2444750D01*
X+4866640Y-2413000D01*
X+4897120Y-2381250D01*
X+4958080Y-2381250D01*
X+4927600Y-2476500D02*
X+4927600Y-2381250D01*
X+4958080Y-2349500D02*
X+4866640Y-2349500D01*
X+4912360Y-2301875D01*
X+4866640Y-2254250D01*
X+4958080Y-2254250D01*
X+4912360Y-2206625D02*
X+4912360Y-2127250D01*
X+4942840Y-2095500D02*
X+4958080Y-2079625D01*
X+4958080Y-2016125D01*
X+4942840Y-2000250D01*
X+4927600Y-2000250D01*
X+4912360Y-2016125D01*
X+4912360Y-2079625D01*
X+4897120Y-2095500D01*
X+4881880Y-2095500D01*
X+4866640Y-2079625D01*
X+4866640Y-2016125D01*
X+4881880Y-2000250D01*
X+4958080Y-1873250D02*
X+4958080Y-1968500D01*
X+4866640Y-1968500D01*
X+4866640Y-1873250D01*
X+4912360Y-1968500D02*
X+4912360Y-1905000D01*
X+4866640Y-1841500D02*
X+4958080Y-1841500D01*
X+4958080Y-1746250D01*
X+5080000Y-5334000D02*
X+5334000Y-5334000D01*
X+5334000Y-3302000D01*
X+5080000Y-3302000D01*
X+5080000Y-5334000D01*
X+4927600Y-4635500D02*
X+4942840Y-4635500D01*
X+4958080Y-4619625D01*
X+4958080Y-4556125D01*
X+4942840Y-4540250D01*
X+4866640Y-4540250D01*
X+4912360Y-4492625D02*
X+4912360Y-4413250D01*
X+4866640Y-4381500D02*
X+4912360Y-4381500D01*
X+4958080Y-4333875D01*
X+4912360Y-4286250D01*
X+4866640Y-4286250D01*
X+4942840Y-4159250D02*
X+4958080Y-4175125D01*
X+4958080Y-4222750D01*
X+4927600Y-4254500D01*
X+4897120Y-4254500D01*
X+4866640Y-4222750D01*
X+4866640Y-4175125D01*
X+4881880Y-4159250D01*
X+4942840Y-4032250D02*
X+4958080Y-4048125D01*
X+4958080Y-4095750D01*
X+4927600Y-4127500D01*
X+4897120Y-4127500D01*
X+4866640Y-4095750D01*
X+4866640Y-4048125D01*
X+4881880Y-4032250D01*
X-4064000Y+3175000D02*
X-3937000Y+3175000D01*
X-3810000Y+3048000D02*
X-3784124Y+3050436D01*
X-3760152Y+3057485D01*
X-3738562Y+3068762D01*
X-3719830Y+3083878D01*
X-3704431Y+3102446D01*
X-3692842Y+3124081D01*
X-3685540Y+3148394D01*
X-3683000Y+3175000D01*
X-3810000Y+3048000D02*
X-3836606Y+3050436D01*
X-3860919Y+3057485D01*
X-3882554Y+3068762D01*
X-3901122Y+3083878D01*
X-3916238Y+3102446D01*
X-3927515Y+3124081D01*
X-3934564Y+3148394D01*
X-3937000Y+3175000D01*
X-3683000Y+3175000D02*
X-3556000Y+3175000D01*
X-4064000Y+635000D02*
X-3556000Y+635000D01*
X-4064000Y+3175000D02*
X-4064000Y+635000D01*
X-3556000Y+3175000D02*
X-3556000Y+635000D01*
X-4000500Y+3215640D02*
X-4000500Y+3307080D01*
X-3921125Y+3307080D01*
X-3905250Y+3291840D01*
X-3905250Y+3276600D01*
X-3921125Y+3261360D01*
X-4000500Y+3261360D01*
X-3921125Y+3261360D02*
X-3905250Y+3246120D01*
X-3905250Y+3215640D01*
X-3873500Y+3215640D02*
X-3873500Y+3276600D01*
X-3841750Y+3307080D01*
X-3810000Y+3307080D01*
X-3778250Y+3276600D01*
X-3778250Y+3215640D01*
X-3873500Y+3246120D02*
X-3778250Y+3246120D01*
X-3746500Y+3215640D02*
X-3746500Y+3276600D01*
X-3714750Y+3307080D01*
X-3683000Y+3307080D01*
X-3651250Y+3276600D01*
X-3651250Y+3215640D01*
X-3746500Y+3246120D02*
X-3651250Y+3246120D01*
X-1016000Y+3175000D02*
X-889000Y+3175000D01*
X-762000Y+3048000D02*
X-736124Y+3050436D01*
X-712152Y+3057485D01*
X-690562Y+3068762D01*
X-671830Y+3083878D01*
X-656431Y+3102446D01*
X-644842Y+3124081D01*
X-637540Y+3148394D01*
X-635000Y+3175000D01*
X-762000Y+3048000D02*
X-788606Y+3050436D01*
X-812919Y+3057485D01*
X-834554Y+3068762D01*
X-853122Y+3083878D01*
X-868238Y+3102446D01*
X-879515Y+3124081D01*
X-886564Y+3148394D01*
X-889000Y+3175000D01*
X-635000Y+3175000D02*
X-508000Y+3175000D01*
X-1016000Y+635000D02*
X-508000Y+635000D01*
X-1016000Y+3175000D02*
X-1016000Y+635000D01*
X-508000Y+3175000D02*
X-508000Y+635000D01*
X-952500Y+3215640D02*
X-952500Y+3307080D01*
X-873125Y+3307080D01*
X-857250Y+3291840D01*
X-857250Y+3276600D01*
X-873125Y+3261360D01*
X-952500Y+3261360D01*
X-873125Y+3261360D02*
X-857250Y+3246120D01*
X-857250Y+3215640D01*
X-825500Y+3215640D02*
X-825500Y+3276600D01*
X-793750Y+3307080D01*
X-762000Y+3307080D01*
X-730250Y+3276600D01*
X-730250Y+3215640D01*
X-825500Y+3246120D02*
X-730250Y+3246120D01*
X-698500Y+3215640D02*
X-698500Y+3307080D01*
X-635000Y+3307080D01*
X-603250Y+3276600D01*
X-603250Y+3246120D01*
X-635000Y+3215640D01*
X-698500Y+3215640D01*
X-2540000Y+3175000D02*
X-2413000Y+3175000D01*
X-2286000Y+3048000D02*
X-2260124Y+3050436D01*
X-2236152Y+3057485D01*
X-2214562Y+3068762D01*
X-2195830Y+3083878D01*
X-2180431Y+3102446D01*
X-2168842Y+3124081D01*
X-2161540Y+3148394D01*
X-2159000Y+3175000D01*
X-2286000Y+3048000D02*
X-2312606Y+3050436D01*
X-2336919Y+3057485D01*
X-2358554Y+3068762D01*
X-2377122Y+3083878D01*
X-2392238Y+3102446D01*
X-2403515Y+3124081D01*
X-2410564Y+3148394D01*
X-2413000Y+3175000D01*
X-2159000Y+3175000D02*
X-2032000Y+3175000D01*
X-2540000Y+635000D02*
X-2032000Y+635000D01*
X-2540000Y+3175000D02*
X-2540000Y+635000D01*
X-2032000Y+3175000D02*
X-2032000Y+635000D01*
X-2413000Y+3215640D02*
X-2413000Y+3307080D01*
X-2333625Y+3307080D01*
X-2317750Y+3291840D01*
X-2317750Y+3276600D01*
X-2333625Y+3261360D01*
X-2413000Y+3261360D01*
X-2333625Y+3261360D02*
X-2317750Y+3246120D01*
X-2317750Y+3215640D01*
X-2286000Y+3215640D02*
X-2286000Y+3276600D01*
X-2254250Y+3307080D01*
X-2222500Y+3307080D01*
X-2190750Y+3276600D01*
X-2190750Y+3215640D01*
X-2286000Y+3246120D02*
X-2190750Y+3246120D01*
X-2540000Y-889000D02*
X-2413000Y-889000D01*
X-2286000Y-1016000D02*
X-2260124Y-1013564D01*
X-2236152Y-1006515D01*
X-2214562Y-995238D01*
X-2195830Y-980122D01*
X-2180431Y-961554D01*
X-2168842Y-939919D01*
X-2161540Y-915606D01*
X-2159000Y-889000D01*
X-2286000Y-1016000D02*
X-2312606Y-1013564D01*
X-2336919Y-1006515D01*
X-2358554Y-995238D01*
X-2377122Y-980122D01*
X-2392238Y-961554D01*
X-2403515Y-939919D01*
X-2410564Y-915606D01*
X-2413000Y-889000D01*
X-2159000Y-889000D02*
X-2032000Y-889000D01*
X-2540000Y-3429000D02*
X-2032000Y-3429000D01*
X-2540000Y-889000D02*
X-2540000Y-3429000D01*
X-2032000Y-889000D02*
X-2032000Y-3429000D01*
X-2413000Y-848360D02*
X-2413000Y-756920D01*
X-2333625Y-756920D01*
X-2317750Y-772160D01*
X-2317750Y-787400D01*
X-2333625Y-802640D01*
X-2413000Y-802640D01*
X-2333625Y-802640D02*
X-2317750Y-817880D01*
X-2317750Y-848360D01*
X-2286000Y-848360D02*
X-2286000Y-756920D01*
X-2206625Y-756920D01*
X-2190750Y-772160D01*
X-2190750Y-787400D01*
X-2206625Y-802640D01*
X-2190750Y-817880D01*
X-2190750Y-833120D01*
X-2206625Y-848360D01*
X-2286000Y-848360D01*
X-2286000Y-802640D02*
X-2206625Y-802640D01*
X-4064000Y-889000D02*
X-3937000Y-889000D01*
X-3810000Y-1016000D02*
X-3784124Y-1013564D01*
X-3760152Y-1006515D01*
X-3738562Y-995238D01*
X-3719830Y-980122D01*
X-3704431Y-961554D01*
X-3692842Y-939919D01*
X-3685540Y-915606D01*
X-3683000Y-889000D01*
X-3810000Y-1016000D02*
X-3836606Y-1013564D01*
X-3860919Y-1006515D01*
X-3882554Y-995238D01*
X-3901122Y-980122D01*
X-3916238Y-961554D01*
X-3927515Y-939919D01*
X-3934564Y-915606D01*
X-3937000Y-889000D01*
X-3683000Y-889000D02*
X-3556000Y-889000D01*
X-4064000Y-3429000D02*
X-3556000Y-3429000D01*
X-4064000Y-889000D02*
X-4064000Y-3429000D01*
X-3556000Y-889000D02*
X-3556000Y-3429000D01*
X-4000500Y-848360D02*
X-4000500Y-756920D01*
X-3921125Y-756920D01*
X-3905250Y-772160D01*
X-3905250Y-787400D01*
X-3921125Y-802640D01*
X-4000500Y-802640D01*
X-3921125Y-802640D02*
X-3905250Y-817880D01*
X-3905250Y-848360D01*
X-3873500Y-848360D02*
X-3873500Y-756920D01*
X-3794125Y-756920D01*
X-3778250Y-772160D01*
X-3778250Y-787400D01*
X-3794125Y-802640D01*
X-3778250Y-817880D01*
X-3778250Y-833120D01*
X-3794125Y-848360D01*
X-3873500Y-848360D01*
X-3873500Y-802640D02*
X-3794125Y-802640D01*
X-3746500Y-848360D02*
X-3746500Y-787400D01*
X-3714750Y-756920D01*
X-3683000Y-756920D01*
X-3651250Y-787400D01*
X-3651250Y-848360D01*
X-3746500Y-817880D02*
X-3651250Y-817880D01*
X-1016000Y-889000D02*
X-889000Y-889000D01*
X-762000Y-1016000D02*
X-736124Y-1013564D01*
X-712152Y-1006515D01*
X-690562Y-995238D01*
X-671830Y-980122D01*
X-656431Y-961554D01*
X-644842Y-939919D01*
X-637540Y-915606D01*
X-635000Y-889000D01*
X-762000Y-1016000D02*
X-788606Y-1013564D01*
X-812919Y-1006515D01*
X-834554Y-995238D01*
X-853122Y-980122D01*
X-868238Y-961554D01*
X-879515Y-939919D01*
X-886564Y-915606D01*
X-889000Y-889000D01*
X-635000Y-889000D02*
X-508000Y-889000D01*
X-1016000Y-3429000D02*
X-508000Y-3429000D01*
X-1016000Y-889000D02*
X-1016000Y-3429000D01*
X-508000Y-889000D02*
X-508000Y-3429000D01*
X-952500Y-848360D02*
X-952500Y-756920D01*
X-873125Y-756920D01*
X-857250Y-772160D01*
X-857250Y-787400D01*
X-873125Y-802640D01*
X-952500Y-802640D01*
X-873125Y-802640D02*
X-857250Y-817880D01*
X-857250Y-848360D01*
X-825500Y-848360D02*
X-825500Y-756920D01*
X-746125Y-756920D01*
X-730250Y-772160D01*
X-730250Y-787400D01*
X-746125Y-802640D01*
X-730250Y-817880D01*
X-730250Y-833120D01*
X-746125Y-848360D01*
X-825500Y-848360D01*
X-825500Y-802640D02*
X-746125Y-802640D01*
X-698500Y-848360D02*
X-698500Y-756920D01*
X-635000Y-756920D01*
X-603250Y-787400D01*
X-603250Y-817880D01*
X-635000Y-848360D01*
X-698500Y-848360D01*
X+2032000Y+3175000D02*
X+2159000Y+3175000D01*
X+2286000Y+3048000D02*
X+2311876Y+3050436D01*
X+2335848Y+3057485D01*
X+2357438Y+3068762D01*
X+2376170Y+3083878D01*
X+2391569Y+3102446D01*
X+2403158Y+3124081D01*
X+2410460Y+3148394D01*
X+2413000Y+3175000D01*
X+2286000Y+3048000D02*
X+2259394Y+3050436D01*
X+2235081Y+3057485D01*
X+2213446Y+3068762D01*
X+2194878Y+3083878D01*
X+2179762Y+3102446D01*
X+2168485Y+3124081D01*
X+2161436Y+3148394D01*
X+2159000Y+3175000D01*
X+2413000Y+3175000D02*
X+2540000Y+3175000D01*
X+2032000Y+635000D02*
X+2540000Y+635000D01*
X+2032000Y+3175000D02*
X+2032000Y+635000D01*
X+2540000Y+3175000D02*
X+2540000Y+635000D01*
X+2159000Y+3215640D02*
X+2159000Y+3307080D01*
X+2238375Y+3307080D01*
X+2254250Y+3291840D01*
X+2254250Y+3276600D01*
X+2238375Y+3261360D01*
X+2159000Y+3261360D01*
X+2238375Y+3261360D02*
X+2254250Y+3246120D01*
X+2254250Y+3215640D01*
X+2381250Y+3230880D02*
X+2365375Y+3215640D01*
X+2317750Y+3215640D01*
X+2286000Y+3246120D01*
X+2286000Y+3276600D01*
X+2317750Y+3307080D01*
X+2365375Y+3307080D01*
X+2381250Y+3291840D01*
X+508000Y+3175000D02*
X+635000Y+3175000D01*
X+762000Y+3048000D02*
X+787876Y+3050436D01*
X+811848Y+3057485D01*
X+833438Y+3068762D01*
X+852170Y+3083878D01*
X+867569Y+3102446D01*
X+879158Y+3124081D01*
X+886460Y+3148394D01*
X+889000Y+3175000D01*
X+762000Y+3048000D02*
X+735394Y+3050436D01*
X+711081Y+3057485D01*
X+689446Y+3068762D01*
X+670878Y+3083878D01*
X+655762Y+3102446D01*
X+644485Y+3124081D01*
X+637436Y+3148394D01*
X+635000Y+3175000D01*
X+889000Y+3175000D02*
X+1016000Y+3175000D01*
X+508000Y+635000D02*
X+1016000Y+635000D01*
X+508000Y+3175000D02*
X+508000Y+635000D01*
X+1016000Y+3175000D02*
X+1016000Y+635000D01*
X+571500Y+3215640D02*
X+571500Y+3307080D01*
X+650875Y+3307080D01*
X+666750Y+3291840D01*
X+666750Y+3276600D01*
X+650875Y+3261360D01*
X+571500Y+3261360D01*
X+650875Y+3261360D02*
X+666750Y+3246120D01*
X+666750Y+3215640D01*
X+793750Y+3230880D02*
X+777875Y+3215640D01*
X+730250Y+3215640D01*
X+698500Y+3246120D01*
X+698500Y+3276600D01*
X+730250Y+3307080D01*
X+777875Y+3307080D01*
X+793750Y+3291840D01*
X+825500Y+3215640D02*
X+825500Y+3276600D01*
X+857250Y+3307080D01*
X+889000Y+3307080D01*
X+920750Y+3276600D01*
X+920750Y+3215640D01*
X+825500Y+3246120D02*
X+920750Y+3246120D01*
X+3556000Y+3175000D02*
X+3683000Y+3175000D01*
X+3810000Y+3048000D02*
X+3835876Y+3050436D01*
X+3859848Y+3057485D01*
X+3881438Y+3068762D01*
X+3900170Y+3083878D01*
X+3915569Y+3102446D01*
X+3927158Y+3124081D01*
X+3934460Y+3148394D01*
X+3937000Y+3175000D01*
X+3810000Y+3048000D02*
X+3783394Y+3050436D01*
X+3759081Y+3057485D01*
X+3737446Y+3068762D01*
X+3718878Y+3083878D01*
X+3703762Y+3102446D01*
X+3692485Y+3124081D01*
X+3685436Y+3148394D01*
X+3683000Y+3175000D01*
X+3937000Y+3175000D02*
X+4064000Y+3175000D01*
X+3556000Y+635000D02*
X+4064000Y+635000D01*
X+3556000Y+3175000D02*
X+3556000Y+635000D01*
X+4064000Y+3175000D02*
X+4064000Y+635000D01*
X+3619500Y+3215640D02*
X+3619500Y+3307080D01*
X+3698875Y+3307080D01*
X+3714750Y+3291840D01*
X+3714750Y+3276600D01*
X+3698875Y+3261360D01*
X+3619500Y+3261360D01*
X+3698875Y+3261360D02*
X+3714750Y+3246120D01*
X+3714750Y+3215640D01*
X+3841750Y+3230880D02*
X+3825875Y+3215640D01*
X+3778250Y+3215640D01*
X+3746500Y+3246120D01*
X+3746500Y+3276600D01*
X+3778250Y+3307080D01*
X+3825875Y+3307080D01*
X+3841750Y+3291840D01*
X+3873500Y+3215640D02*
X+3873500Y+3307080D01*
X+3937000Y+3307080D01*
X+3968750Y+3276600D01*
X+3968750Y+3246120D01*
X+3937000Y+3215640D01*
X+3873500Y+3215640D01*
X+2032000Y-889000D02*
X+2159000Y-889000D01*
X+2286000Y-1016000D02*
X+2311876Y-1013564D01*
X+2335848Y-1006515D01*
X+2357438Y-995238D01*
X+2376170Y-980122D01*
X+2391569Y-961554D01*
X+2403158Y-939919D01*
X+2410460Y-915606D01*
X+2413000Y-889000D01*
X+2286000Y-1016000D02*
X+2259394Y-1013564D01*
X+2235081Y-1006515D01*
X+2213446Y-995238D01*
X+2194878Y-980122D01*
X+2179762Y-961554D01*
X+2168485Y-939919D01*
X+2161436Y-915606D01*
X+2159000Y-889000D01*
X+2413000Y-889000D02*
X+2540000Y-889000D01*
X+2032000Y-3429000D02*
X+2540000Y-3429000D01*
X+2032000Y-889000D02*
X+2032000Y-3429000D01*
X+2540000Y-889000D02*
X+2540000Y-3429000D01*
X+2159000Y-848360D02*
X+2159000Y-756920D01*
X+2238375Y-756920D01*
X+2254250Y-772160D01*
X+2254250Y-787400D01*
X+2238375Y-802640D01*
X+2159000Y-802640D01*
X+2238375Y-802640D02*
X+2254250Y-817880D01*
X+2254250Y-848360D01*
X+2286000Y-848360D02*
X+2286000Y-756920D01*
X+2349500Y-756920D01*
X+2381250Y-787400D01*
X+2381250Y-817880D01*
X+2349500Y-848360D01*
X+2286000Y-848360D01*
X+508000Y-889000D02*
X+635000Y-889000D01*
X+762000Y-1016000D02*
X+787876Y-1013564D01*
X+811848Y-1006515D01*
X+833438Y-995238D01*
X+852170Y-980122D01*
X+867569Y-961554D01*
X+879158Y-939919D01*
X+886460Y-915606D01*
X+889000Y-889000D01*
X+762000Y-1016000D02*
X+735394Y-1013564D01*
X+711081Y-1006515D01*
X+689446Y-995238D01*
X+670878Y-980122D01*
X+655762Y-961554D01*
X+644485Y-939919D01*
X+637436Y-915606D01*
X+635000Y-889000D01*
X+889000Y-889000D02*
X+1016000Y-889000D01*
X+508000Y-3429000D02*
X+1016000Y-3429000D01*
X+508000Y-889000D02*
X+508000Y-3429000D01*
X+1016000Y-889000D02*
X+1016000Y-3429000D01*
X+571500Y-848360D02*
X+571500Y-756920D01*
X+650875Y-756920D01*
X+666750Y-772160D01*
X+666750Y-787400D01*
X+650875Y-802640D01*
X+571500Y-802640D01*
X+650875Y-802640D02*
X+666750Y-817880D01*
X+666750Y-848360D01*
X+698500Y-848360D02*
X+698500Y-756920D01*
X+762000Y-756920D01*
X+793750Y-787400D01*
X+793750Y-817880D01*
X+762000Y-848360D01*
X+698500Y-848360D01*
X+825500Y-848360D02*
X+825500Y-787400D01*
X+857250Y-756920D01*
X+889000Y-756920D01*
X+920750Y-787400D01*
X+920750Y-848360D01*
X+825500Y-817880D02*
X+920750Y-817880D01*
X+3556000Y-889000D02*
X+3683000Y-889000D01*
X+3810000Y-1016000D02*
X+3835876Y-1013564D01*
X+3859848Y-1006515D01*
X+3881438Y-995238D01*
X+3900170Y-980122D01*
X+3915569Y-961554D01*
X+3927158Y-939919D01*
X+3934460Y-915606D01*
X+3937000Y-889000D01*
X+3810000Y-1016000D02*
X+3783394Y-1013564D01*
X+3759081Y-1006515D01*
X+3737446Y-995238D01*
X+3718878Y-980122D01*
X+3703762Y-961554D01*
X+3692485Y-939919D01*
X+3685436Y-915606D01*
X+3683000Y-889000D01*
X+3937000Y-889000D02*
X+4064000Y-889000D01*
X+3556000Y-3429000D02*
X+4064000Y-3429000D01*
X+3556000Y-889000D02*
X+3556000Y-3429000D01*
X+4064000Y-889000D02*
X+4064000Y-3429000D01*
X+3619500Y-848360D02*
X+3619500Y-756920D01*
X+3698875Y-756920D01*
X+3714750Y-772160D01*
X+3714750Y-787400D01*
X+3698875Y-802640D01*
X+3619500Y-802640D01*
X+3698875Y-802640D02*
X+3714750Y-817880D01*
X+3714750Y-848360D01*
X+3746500Y-848360D02*
X+3746500Y-756920D01*
X+3810000Y-756920D01*
X+3841750Y-787400D01*
X+3841750Y-817880D01*
X+3810000Y-848360D01*
X+3746500Y-848360D01*
X+3873500Y-848360D02*
X+3873500Y-756920D01*
X+3937000Y-756920D01*
X+3968750Y-787400D01*
X+3968750Y-817880D01*
X+3937000Y-848360D01*
X+3873500Y-848360D01*
M02*
