G04 PROTEUS GERBER X2 FILE*
%TF.GenerationSoftware,Labcenter,Proteus,8.13-SP0-Build31525*%
%TF.CreationDate,2022-07-18T16:40:46+00:00*%
%TF.FileFunction,Copper,L1,Top*%
%TF.FilePolarity,Positive*%
%TF.Part,Single*%
%TF.SameCoordinates,{e24a2c9c-2edf-4d0d-b778-41e989ec9892}*%
%FSLAX45Y45*%
%MOMM*%
G01*
%TA.AperFunction,Conductor*%
%ADD10C,0.254000*%
%TA.AperFunction,ViaPad*%
%ADD11C,0.762000*%
%TA.AperFunction,ComponentPad*%
%ADD12R,2.032000X2.032000*%
%TA.AperFunction,ComponentPad*%
%ADD13R,1.270000X1.270000*%
%ADD14C,1.270000*%
%TA.AperFunction,Profile*%
%ADD15C,0.203200*%
%TD.AperFunction*%
D10*
X-2667000Y-2412999D02*
X-2667000Y-2413000D01*
X-2476500Y-2412999D01*
X-2222501Y-2159000D01*
X-1397000Y-2159000D01*
X-2667000Y-2540000D02*
X-2667000Y-2667000D01*
X-1651000Y-2667000D01*
X-1778000Y-2921000D02*
X-2667000Y-2921000D01*
X-2667000Y-3175000D02*
X-2794000Y-3175000D01*
X-2857500Y-3238500D01*
X-2857500Y-3746500D01*
X-2794000Y-3810000D01*
X-2222500Y-3810000D01*
X-2095500Y-3937000D01*
X-1397000Y-3937000D01*
X-2667000Y-3429000D02*
X-2095500Y-3429000D01*
X-1714500Y-3810000D01*
X-762000Y-3810000D01*
X-635000Y-3937000D01*
X-2667000Y-3683000D02*
X-2794000Y-3556000D01*
X-2794000Y-3365500D01*
X-2730500Y-3302000D01*
X-762000Y-3302000D01*
X-635000Y-3175000D01*
X-2667000Y-3937000D02*
X-2921000Y-3937000D01*
X-2984500Y-3873500D01*
X-2984500Y-3111500D01*
X-2921000Y-3048000D01*
X-762000Y-3048000D01*
X-635000Y-2921000D01*
X-2667000Y-4064000D02*
X-889000Y-4064000D01*
X-2413000Y-2540000D02*
X-2159000Y-2286000D01*
X+63500Y-2286000D01*
X+317500Y-2540000D01*
X+635000Y-2540000D01*
X-3111500Y+254000D02*
X-2984500Y+381000D01*
X-2413000Y+381000D01*
X-2159000Y-2540000D02*
X-317500Y-2540000D01*
X-63500Y-2794000D01*
X+635000Y-2794000D01*
X-2159000Y+635000D02*
X-3492500Y+635000D01*
X-3556000Y+571500D01*
X-3556000Y+127000D01*
X-3429000Y+0D01*
X-2032000Y-2794000D02*
X-3492500Y-2794000D01*
X-3556000Y-2730500D01*
X-3556000Y-381000D01*
X-3429000Y-254000D01*
X-2032000Y-2794000D02*
X-571500Y-2794000D01*
X-317500Y-3048000D01*
X+635000Y-3048000D01*
X-1714500Y-4445000D02*
X-1790700Y-4521200D01*
X-2032000Y-4521200D01*
X-2057400Y-4495800D01*
X-2971800Y-4495800D01*
X-3048000Y-4572000D01*
X-1714500Y-4445000D02*
X-1651000Y-4381500D01*
X-1397000Y-4381500D01*
X-1206500Y-4191000D01*
X-825500Y-4191000D01*
X-698500Y-4064000D01*
X-444500Y-4064000D01*
X-63500Y-3683000D01*
X+762000Y-3683000D01*
X+825500Y-3619500D01*
X+825500Y-3492500D01*
X+635000Y-3302000D01*
X-3810000Y-4889500D02*
X-1397000Y-4889500D01*
X-1587500Y-3683000D02*
X-1460500Y-3556000D01*
X+635000Y-3556000D01*
X-1206500Y-4318000D02*
X-254000Y-4318000D01*
X+254000Y-3810000D01*
X+635000Y-3810000D01*
X-1143000Y-1143000D02*
X-3302000Y-1143000D01*
X-3429000Y-1016000D01*
X-3810000Y-2413000D02*
X-3810000Y+2603500D01*
X-3746500Y+2667000D01*
X-3365500Y+2667000D01*
X-3302000Y+2730500D01*
X-3302000Y+3175000D01*
X-3429000Y+3302000D01*
X-4318000Y-2540000D02*
X-4318000Y+2984500D01*
X-4254500Y+3048000D01*
X-3429000Y+3048000D01*
X-3937000Y-2921000D02*
X-3937000Y+2730500D01*
X-3873500Y+2794000D01*
X-3429000Y+2794000D01*
X-3429000Y-3429000D02*
X-3619500Y-3238500D01*
X-3619500Y+1841500D01*
X-3556000Y+1905000D01*
X-3365500Y+1905000D01*
X-3302000Y+1968500D01*
X-3302000Y+2159000D01*
X-3429000Y+2286000D01*
X-3429000Y-3683000D02*
X-3683000Y-3429000D01*
X-3683000Y+1968500D01*
X-3619500Y+2032000D01*
X-3429000Y+2032000D01*
X-2921000Y-4762500D02*
X+762000Y-4762500D01*
X-2794000Y-2286000D02*
X-2540000Y-2286000D01*
X-2286000Y-2032000D01*
X+254000Y-2032000D01*
X+508000Y-2286000D01*
X+635000Y-2286000D01*
X+635000Y+762000D02*
X+1079500Y+762000D01*
X+1206500Y+635000D01*
X+2032000Y+635000D01*
X+2159000Y+508000D01*
X+2667000Y+508000D01*
X-889000Y-5270500D02*
X+1016000Y-5270500D01*
X+762000Y+3556000D02*
X+1079500Y+3556000D01*
X+1206500Y+3429000D01*
X+1674711Y+3429000D01*
X+1674711Y+3517900D01*
X+1651000Y+3541611D01*
X+1651000Y+3556000D01*
X+508000Y+1651000D02*
X+190500Y+1651000D01*
X+635000Y+3302000D02*
X+762000Y+3175000D01*
X+1524000Y+3175000D01*
X+1905000Y+2794000D01*
X+2667000Y+2794000D01*
X+635000Y+508000D02*
X+762000Y+381000D01*
X+1587500Y+381000D01*
X+1714500Y+254000D01*
X+2667000Y+254000D01*
X+254000Y+381000D02*
X-1016000Y+381000D01*
X+635000Y+508000D02*
X+254000Y+508000D01*
X+635000Y+254000D02*
X+1143000Y+254000D01*
X+1270000Y+127000D01*
X+2730500Y+127000D01*
X+2794000Y+63500D01*
X+2794000Y-381000D01*
X+2667000Y-508000D01*
X+635000Y+3048000D02*
X+825500Y+3048000D01*
X+952500Y+2921000D01*
X+1524000Y+2921000D01*
X+1905000Y+2540000D01*
X+2667000Y+2540000D01*
X+635000Y+0D02*
X+762000Y-127000D01*
X+2413000Y-127000D01*
X+2540000Y-254000D01*
X-63500Y+2794000D02*
X+635000Y+2794000D01*
X+3429000Y-762000D02*
X+4064000Y-762000D01*
X+4127500Y-825500D01*
X+4127500Y-1460500D01*
X+4051300Y-1536700D01*
X+203200Y-1536700D01*
X+127000Y-1460500D01*
X+3048000Y-635000D02*
X+2794000Y-635000D01*
X+3048000Y-635000D02*
X+3175000Y-508000D01*
X+3429000Y-508000D01*
X+635000Y-508000D02*
X+1143000Y-508000D01*
X+1270000Y-635000D01*
X+2794000Y-635000D01*
X+952500Y+2032000D02*
X+635000Y+2032000D01*
X+3429000Y+2794000D02*
X+3048000Y+2794000D01*
X+2984500Y+2730500D01*
X+2984500Y+2476500D01*
X+2921000Y+2413000D01*
X+952500Y+2413000D01*
X+952500Y+1778000D02*
X+635000Y+1778000D01*
X+952500Y+1524000D02*
X+1079500Y+1397000D01*
X+3111500Y+1397000D01*
X+3175000Y+1460500D01*
X+3175000Y+1905000D01*
X+3810000Y+4635500D02*
X+4381500Y+4635500D01*
X+4445000Y+4699000D01*
X+4445000Y+4953000D01*
X+4318000Y+0D02*
X+3429000Y+0D01*
X+4572000Y+889000D02*
X+4445001Y+762001D01*
X+3429000Y+762000D01*
X+3429000Y+762001D01*
X-1397000Y+3302000D02*
X-1270000Y+3429000D01*
X+698500Y+3429000D01*
X+825499Y+3302001D01*
X+1397000Y+3302000D01*
X+1397000Y+3302001D01*
X-1397000Y+3302000D02*
X-2667000Y+3302000D01*
X-2666999Y+3302000D01*
X-2667000Y+3302001D01*
X+2413000Y-2667000D02*
X+1143000Y-2667000D01*
X+3683000Y-2857500D02*
X+1651000Y-2857500D01*
X-1397000Y-254000D02*
X-1270000Y-127000D01*
X+63500Y-127000D01*
X+317500Y+127000D01*
X+825500Y+127000D01*
X+952500Y+0D01*
X+1397000Y+0D01*
X-1397000Y-254000D02*
X-2286000Y-254000D01*
X-2540000Y+0D01*
X-2667000Y+0D01*
X-1397000Y-889000D02*
X-2730500Y-889000D01*
X-2794000Y-825500D01*
X-2794000Y-381000D01*
X-2667000Y-254000D01*
X+1524000Y-762000D02*
X+1841500Y-762000D01*
X+2222500Y-1143000D01*
X+3683000Y-1143000D01*
X+3937000Y-1397000D01*
X-1397000Y-889000D02*
X+1524000Y-889000D01*
X-254000Y-381000D02*
X-2540000Y-381000D01*
X-2667000Y-508000D01*
X-254000Y-381000D02*
X+1270000Y-381000D01*
X+1397000Y-508000D01*
X-635000Y-1016000D02*
X-254000Y-1016000D01*
X-254000Y-5143500D02*
X+4127500Y-5143500D01*
X+4191000Y-5207000D01*
X+4191000Y-5461000D01*
X-635000Y-508000D02*
X-762000Y-635000D01*
X-2540000Y-635000D01*
X-2667000Y-762000D01*
X+0Y-635000D02*
X+254000Y-635000D01*
X+4445000Y-5016500D02*
X+254000Y-5016500D01*
X-635000Y-508000D02*
X-508000Y-635000D01*
X+0Y-635000D01*
X+254000Y-635000D02*
X+1016000Y-635000D01*
X+1143000Y-762000D01*
X+1397000Y-762000D01*
X-635000Y+254000D02*
X-762000Y+127000D01*
X-2857500Y+127000D01*
X-2921000Y+63500D01*
X-2921000Y-952500D01*
X-2857500Y-1016000D01*
X-2667000Y-1016000D01*
X+4699000Y-2540000D02*
X+1587500Y-2540000D01*
X+1397000Y-1143000D02*
X-571500Y-1143000D01*
X+1587500Y-2413000D02*
X+317500Y-2413000D01*
X+63500Y-2159000D01*
X-508000Y-2159000D01*
X-635000Y-1397000D02*
X-2540000Y-1397000D01*
X-2667000Y-1270000D01*
X-1079500Y+2921000D02*
X+762000Y+2921000D01*
X-1397000Y+3048000D02*
X-2667000Y+3048000D01*
X+1079500Y+3048000D02*
X+1397000Y+3048000D01*
X-1397000Y+2540000D02*
X-1270000Y+2667000D01*
X+1270000Y+2667000D01*
X+1397000Y+2794000D01*
X-1397000Y+2540000D02*
X-1651000Y+2794000D01*
X-2667000Y+2794000D01*
X+2286000Y-2984500D02*
X+2275331Y-2995169D01*
X+1661669Y-2995169D01*
X+1651000Y-2984500D01*
X-1397000Y+2032000D02*
X-1143000Y+2032000D01*
X-762000Y+2413000D01*
X+698500Y+2413000D01*
X+825500Y+2540000D01*
X+1397000Y+2540000D01*
X-1397000Y+2032000D02*
X-2159000Y+2032000D01*
X-2667000Y+2540000D01*
X+2540000Y-4826000D02*
X+2526944Y-4812944D01*
X+1918056Y-4812944D01*
X+1905000Y-4826000D01*
X-635000Y+2032000D02*
X-762000Y+2032000D01*
X-889000Y+1905000D01*
X-2286000Y+1905000D01*
X-2667000Y+2286000D01*
X+1587500Y+1905000D02*
X+1587500Y+2095500D01*
X+1397000Y+2286000D01*
X+1587500Y+1905000D02*
X-635000Y+1905000D01*
X-635000Y+2032000D02*
X-635000Y+1905000D01*
X-635000Y+2540000D02*
X-1079500Y+2540000D01*
X-1206500Y+2413000D01*
X-1841500Y+2413000D01*
X-2095500Y+2667000D01*
X-2730500Y+2667000D01*
X-2794000Y+2603500D01*
X-2794000Y+2159000D01*
X-2667000Y+2032000D01*
X-635000Y+2286000D02*
X-508000Y+2159000D01*
X+1270000Y+2159000D01*
X+1397000Y+2032000D01*
X-635000Y+2794000D02*
X-1206500Y+2794000D01*
X-1333500Y+2921000D01*
X-2857500Y+2921000D01*
X-2921000Y+2857500D01*
X-2921000Y+2032000D01*
X-2667000Y+1778000D01*
X+1524000Y+1778000D02*
X+2032000Y+1778000D01*
X-635000Y+3302001D02*
X-635000Y+3302000D01*
X-762001Y+3175000D01*
X-2476500Y+3175000D01*
X+1397000Y+1524000D02*
X+2159000Y+1524000D01*
X-1397000Y+508000D02*
X-1270000Y+635000D01*
X+825500Y+635000D01*
X+952499Y+508001D01*
X+1397000Y+508000D01*
X-1397000Y+508000D02*
X-2413000Y+508000D01*
X-2413001Y+508001D01*
X-2667000Y+508000D01*
X-2667000Y+508001D01*
X+1397000Y+508001D02*
X+1397000Y+508000D01*
X+1841500Y+508001D01*
X+1968501Y+381000D01*
X+2857500Y+381000D01*
X+2921000Y+317500D01*
X+2921000Y-381000D01*
X-1397000Y+254000D02*
X-2667000Y+254000D01*
X+2032000Y-4699000D02*
X+3429000Y-4699000D01*
X+2032000Y-4572000D02*
X-1079500Y-4572000D01*
X+1397000Y-4064000D02*
X+4889500Y-4064000D01*
X+4953000Y-4127500D01*
X+4953000Y-4889500D01*
X+5016500Y-4953000D01*
X+5207000Y-4953000D01*
X+1397000Y-2794000D02*
X+1270000Y-2921000D01*
X-190500Y-2921000D01*
X-444500Y-2667000D01*
X-635000Y-2667000D01*
X+2667000Y-1270000D02*
X+2476500Y-1460500D01*
X+1397000Y-1460500D01*
X+635000Y+1524000D02*
X+762000Y+1651000D01*
X+2413000Y+1651000D01*
X+635000Y-1270000D02*
X+825500Y-1460500D01*
X+1397000Y-1460500D01*
X+635000Y-1270000D02*
X+63500Y-1270000D01*
X-190500Y-1524000D01*
X-3175000Y-1524000D01*
X-3429000Y-1270000D01*
X-1397000Y-4191000D02*
X-1524000Y-4318000D01*
X-3302000Y-4318000D01*
X-3429000Y-4191000D01*
X-1397000Y-3683000D02*
X-635000Y-3683000D01*
X+1397000Y-4064000D02*
X+635000Y-4064000D01*
X-1397000Y+1524000D02*
X-1524000Y+1651000D01*
X-3302000Y+1651000D01*
X-3429000Y+1524000D01*
X-1397000Y+1524000D02*
X-1270000Y+1397000D01*
X+508000Y+1397000D01*
X+635000Y+1524000D01*
X+2413000Y+1651000D02*
X+2540000Y+1651000D01*
X+2667000Y+1524000D01*
X-4191000Y+4254500D02*
X-4190479Y+4253979D01*
X-1651521Y+4253979D01*
X-1651000Y+4254500D01*
X+1397000Y-2032000D02*
X+4953000Y-2031999D01*
X+5016500Y-1968499D01*
X+5016500Y+635000D01*
X+5207000Y+635000D01*
X+1397000Y-2031999D02*
X+1397000Y-2032000D01*
X+1016001Y-2031999D01*
X+1016000Y-2032000D01*
X+1016000Y-1778000D02*
X+635000Y-1778000D01*
X+5207000Y+889000D02*
X+5016500Y+889000D01*
X+4953000Y+825500D01*
X+4953000Y-1587500D01*
X+4889500Y-1651000D01*
X-1143000Y-1651000D01*
X-1397000Y-1905000D01*
X-2857500Y-1841500D02*
X-2603500Y-1587500D01*
X+4826000Y-1587500D01*
X+4889500Y-1524000D01*
X+4889500Y+1079500D01*
X+4953000Y+1143000D01*
X+5207000Y+1143000D01*
X-2857500Y-1841500D02*
X-2794000Y-1905000D01*
X-2794000Y-2031999D01*
X-2667000Y-2159000D01*
X-2667000Y-2158999D01*
X-2857500Y-1841500D02*
X-2921000Y-1905000D01*
X-3429000Y-1905000D01*
X+3429000Y+1524000D02*
X+3556000Y+1397000D01*
X+5207000Y+1397000D01*
X+4318000Y+1651000D02*
X+5207000Y+1651000D01*
X+4318000Y+3556000D02*
X+3937000Y+3937000D01*
X+2794000Y+3937000D01*
X+2667000Y+3810000D01*
X+2730500Y+1651000D02*
X+3048000Y+1968500D01*
X+3048000Y+2603500D01*
X+3111500Y+2667000D01*
X+4762500Y+2667000D01*
X+4889500Y+2540000D01*
X+5207000Y+3683000D02*
X+4762500Y+3683000D01*
X+4445000Y+4000500D01*
X-3556000Y+4000500D01*
X-3619500Y+3937000D01*
X-3619500Y+3492500D01*
X-3556000Y+3429000D01*
X-2794001Y+3429000D01*
X-2667000Y+3556000D01*
X-2667000Y+3556001D01*
X+2286000Y+3429000D02*
X+5207000Y+3429000D01*
X+635000Y+3810000D02*
X+762000Y+3683000D01*
X+1841500Y+3683000D01*
X+2349500Y+3175000D01*
X+5207000Y+3175000D01*
X-1397000Y+3810000D02*
X-1524000Y+3683000D01*
X-3302000Y+3683000D01*
X-3429000Y+3810000D01*
X-1397000Y+3810000D02*
X-1270000Y+3683000D01*
X-1079500Y+3683000D01*
X-952500Y+3683000D02*
X-1079500Y+3683000D01*
X-508000Y+3683000D02*
X-952500Y+3683000D01*
X+635000Y+3810000D02*
X+508000Y+3683000D01*
X-508000Y+3683000D01*
X-2794000Y+1206500D02*
X+4445000Y+1206500D01*
X+4762500Y+635000D02*
X+2413000Y+635000D01*
X+2285999Y+762001D01*
X+1397000Y+762000D01*
X+1397000Y+762001D01*
X-1397000Y+1016000D02*
X-1524000Y+889000D01*
X-3302000Y+889000D01*
X-3429000Y+1016000D01*
X+635000Y+1333500D02*
X+3238500Y+1333500D01*
X+3302000Y+1397000D01*
X+3302000Y+2349500D01*
X+3365500Y+2413000D01*
X+5207000Y+2413000D01*
X-889000Y+889000D02*
X-762000Y+889000D01*
X-952500Y+889000D02*
X-889000Y+889000D01*
X-1397000Y+1016000D02*
X-1270000Y+889000D01*
X-952500Y+889000D01*
X-508000Y+889000D02*
X-762000Y+889000D01*
X+635000Y+1016000D02*
X+508000Y+889000D01*
X-508000Y+889000D01*
X-2540000Y-4572000D02*
X-1651000Y-4572000D01*
X-1524000Y-4445000D01*
X+4699000Y-4445000D01*
X+4826000Y-4572000D01*
X+1270000Y-2159000D02*
X+1016000Y-2159000D01*
X+762000Y-1905000D01*
X-635000Y-1905000D01*
X-635000Y+1016000D02*
X-508000Y+1143000D01*
X+1270000Y+1143000D01*
X+1397000Y+1016000D01*
X+1524000Y+1143000D01*
X+3302000Y+1143000D01*
X+3429000Y+1016000D01*
X-635000Y+3810000D02*
X-762000Y+3937000D01*
X-2540000Y+3937000D01*
X-2667000Y+3810000D01*
X-635000Y+1016000D02*
X-889000Y+1016000D01*
X-1016000Y+1143000D01*
X-2540000Y+1143000D01*
X-2667000Y+1016000D01*
X+1397000Y+3810000D02*
X+2349500Y+3810000D01*
X+2476500Y+3683000D01*
X+3302000Y+3683000D01*
X+3429000Y+3810000D01*
X+1270000Y-2159000D02*
X+4826000Y-2159000D01*
D11*
X-1651000Y-2667000D03*
X-2667000Y-2540000D03*
X-1778000Y-2921000D03*
X-889000Y-4064000D03*
X-2667000Y-4064000D03*
X-2413000Y+381000D03*
X-3111500Y+254000D03*
X-2413000Y-2540000D03*
X-2159000Y+635000D03*
X-2159000Y-2540000D03*
X-2032000Y-2794000D03*
X-3048000Y-4572000D03*
X-1714500Y-4445000D03*
X-1397000Y-4889500D03*
X-3810000Y-4889500D03*
X-1587500Y-3683000D03*
X-1143000Y-1143000D03*
X-1206500Y-4318000D03*
X-3810000Y-2413000D03*
X-4318000Y-2540000D03*
X-3937000Y-2921000D03*
X+762000Y-4762500D03*
X-2921000Y-4762500D03*
X-2794000Y-2286000D03*
X+1016000Y-5270500D03*
X-889000Y-5270500D03*
X+1651000Y+3556000D03*
X+762000Y+3556000D03*
X+190500Y+1651000D03*
X+508000Y+1651000D03*
X-1016000Y+381000D03*
X+254000Y+381000D03*
X+254000Y+508000D03*
X+2540000Y-254000D03*
X-63500Y+2794000D03*
X+127000Y-1460500D03*
X+2794000Y-635000D03*
X+952500Y+2413000D03*
X+952500Y+2032000D03*
X+952500Y+1778000D03*
X+3175000Y+1905000D03*
X+952500Y+1524000D03*
X+3810000Y+4635500D03*
X+4318000Y+0D03*
X+4572000Y+889000D03*
X+1143000Y-2667000D03*
X+2413000Y-2667000D03*
X+1651000Y-2857500D03*
X+3683000Y-2857500D03*
X+3937000Y-1397000D03*
X+1524000Y-762000D03*
X+1524000Y-889000D03*
X-1397000Y-889000D03*
X-254000Y-1016000D03*
X-254000Y-5143500D03*
X-254000Y-381000D03*
X+254000Y-635000D03*
X+254000Y-5016500D03*
X+4445000Y-5016500D03*
X+1587500Y-2540000D03*
X+4699000Y-2540000D03*
X-571500Y-1143000D03*
X+1397000Y-1143000D03*
X-508000Y-2159000D03*
X+1587500Y-2413000D03*
X-635000Y-1397000D03*
X+762000Y+2921000D03*
X-1079500Y+2921000D03*
X+1079500Y+3048000D03*
X+1651000Y-2984500D03*
X+2286000Y-2984500D03*
X+1905000Y-4826000D03*
X+2540000Y-4826000D03*
X+1587500Y+1905000D03*
X+2032000Y+1778000D03*
X+1524000Y+1778000D03*
X-2476500Y+3175000D03*
X+2159000Y+1524000D03*
X+2921000Y-381000D03*
X+3429000Y-4699000D03*
X+2032000Y-4699000D03*
X-1079500Y-4572000D03*
X+2032000Y-4572000D03*
X+1397000Y-1460500D03*
X+2413000Y+1651000D03*
X-1651000Y+4254500D03*
X-4191000Y+4254500D03*
X+1016000Y-2032000D03*
X+1016000Y-1778000D03*
X+4318000Y+1651000D03*
X+4318000Y+3556000D03*
X+4889500Y+2540000D03*
X+2730500Y+1651000D03*
X+2286000Y+3429000D03*
X+4445000Y+1206500D03*
X-2794000Y+1206500D03*
X+4762500Y+635000D03*
X+635000Y+1333500D03*
X+4826000Y-4572000D03*
X-2540000Y-4572000D03*
X+4826000Y-2159000D03*
X+1270000Y-2159000D03*
D12*
X-2921000Y+4953000D03*
X-2667000Y+4953000D03*
X-2413000Y+4953000D03*
X-2159000Y+4953000D03*
X-1905000Y+4953000D03*
X-1651000Y+4953000D03*
X-1397000Y+4953000D03*
X-1143000Y+4953000D03*
X-889000Y+4953000D03*
X-635000Y+4953000D03*
X-381000Y+4953000D03*
X-127000Y+4953000D03*
X+127000Y+4953000D03*
X+381000Y+4953000D03*
X+635000Y+4953000D03*
X+889000Y+4953000D03*
X+1143000Y+4953000D03*
X+1397000Y+4953000D03*
X+1651000Y+4953000D03*
X+1905000Y+4953000D03*
X+2159000Y+4953000D03*
X+2413000Y+4953000D03*
X+2667000Y+4953000D03*
X+2921000Y+4953000D03*
X+3175000Y+4953000D03*
X+3429000Y+4953000D03*
X+3683000Y+4953000D03*
X+3937000Y+4953000D03*
X+4191000Y+4953000D03*
X+4445000Y+4953000D03*
X+4699000Y+4953000D03*
X+4953000Y+4953000D03*
X-4953000Y+4953000D03*
X-4699000Y+4953000D03*
X-4445000Y+4953000D03*
X-4191000Y+4953000D03*
X-3937000Y+4953000D03*
X-3683000Y+4953000D03*
X-3429000Y+4953000D03*
X-3175000Y+4953000D03*
X-4953000Y-5461000D03*
X-4699000Y-5461000D03*
X-4445000Y-5461000D03*
X-4191000Y-5461000D03*
X-3937000Y-5461000D03*
X-3683000Y-5461000D03*
X-3429000Y-5461000D03*
X-3175000Y-5461000D03*
X-2921000Y-5461000D03*
X-2667000Y-5461000D03*
X-2413000Y-5461000D03*
X-2159000Y-5461000D03*
X-1905000Y-5461000D03*
X-1651000Y-5461000D03*
X-1397000Y-5461000D03*
X-1143000Y-5461000D03*
X-889000Y-5461000D03*
X-635000Y-5461000D03*
X-381000Y-5461000D03*
X-127000Y-5461000D03*
X+127000Y-5461000D03*
X+381000Y-5461000D03*
X+635000Y-5461000D03*
X+889000Y-5461000D03*
X+1143000Y-5461000D03*
X+1397000Y-5461000D03*
X+1651000Y-5461000D03*
X+1905000Y-5461000D03*
X+2159000Y-5461000D03*
X+2413000Y-5461000D03*
X+2667000Y-5461000D03*
X+2921000Y-5461000D03*
X+3175000Y-5461000D03*
X+3429000Y-5461000D03*
X+3683000Y-5461000D03*
X+3937000Y-5461000D03*
X+4191000Y-5461000D03*
X+4445000Y-5461000D03*
X+4699000Y-5461000D03*
X+4953000Y-5461000D03*
X-5207000Y+4699000D03*
X-5207000Y+4445000D03*
X-5207000Y+4191000D03*
X-5207000Y+3937000D03*
X-5207000Y+3683000D03*
X-5207000Y+3429000D03*
X-5207000Y+3175000D03*
X-5207000Y+2921000D03*
X-5207000Y+2667000D03*
X-5207000Y+2413000D03*
X-5207000Y+2159000D03*
X-5207000Y+1905000D03*
X-5207000Y+1651000D03*
X-5207000Y+1397000D03*
X-5207000Y+1143000D03*
X-5207000Y+889000D03*
X-5207000Y+635000D03*
X-5207000Y+381000D03*
X-5207000Y+127000D03*
X-5207000Y-127000D03*
X-5207000Y-381000D03*
X-5207000Y-635000D03*
X-5207000Y-889000D03*
X-5207000Y-1143000D03*
X-5207000Y-1397000D03*
X-5207000Y-1651000D03*
X-5207000Y-1905000D03*
X-5207000Y-2159000D03*
X-5207000Y-2413000D03*
X-5207000Y-2667000D03*
X-5207000Y-2921000D03*
X-5207000Y-3175000D03*
X-5207000Y-3429000D03*
X-5207000Y-3683000D03*
X-5207000Y-3937000D03*
X-5207000Y-4191000D03*
X-5207000Y-4445000D03*
X-5207000Y-4699000D03*
X-5207000Y-4953000D03*
X-5207000Y-5207000D03*
X+5207000Y+4699000D03*
X+5207000Y+4445000D03*
X+5207000Y+4191000D03*
X+5207000Y+3937000D03*
X+5207000Y+3683000D03*
X+5207000Y+3429000D03*
X+5207000Y+3175000D03*
X+5207000Y+2921000D03*
X+5207000Y+2667000D03*
X+5207000Y+2413000D03*
X+5207000Y+2159000D03*
X+5207000Y+1905000D03*
X+5207000Y+1651000D03*
X+5207000Y+1397000D03*
X+5207000Y+1143000D03*
X+5207000Y+889000D03*
X+5207000Y+635000D03*
X+5207000Y+381000D03*
X+5207000Y+127000D03*
X+5207000Y-127000D03*
X+5207000Y-381000D03*
X+5207000Y-635000D03*
X+5207000Y-889000D03*
X+5207000Y-1143000D03*
X+5207000Y-1397000D03*
X+5207000Y-1651000D03*
X+5207000Y-1905000D03*
X+5207000Y-2159000D03*
X+5207000Y-2413000D03*
X+5207000Y-2667000D03*
X+5207000Y-2921000D03*
X+5207000Y-3175000D03*
X+5207000Y-3429000D03*
X+5207000Y-3683000D03*
X+5207000Y-3937000D03*
X+5207000Y-4191000D03*
X+5207000Y-4445000D03*
X+5207000Y-4699000D03*
X+5207000Y-4953000D03*
X+5207000Y-5207000D03*
D13*
X-3429000Y+3810000D03*
D14*
X-3429000Y+3556000D03*
X-3429000Y+3302000D03*
X-3429000Y+3048000D03*
X-3429000Y+2794000D03*
X-3429000Y+2540000D03*
X-3429000Y+2286000D03*
X-3429000Y+2032000D03*
X-3429000Y+1778000D03*
X-3429000Y+1524000D03*
X-2667000Y+1524000D03*
X-2667000Y+1778000D03*
X-2667000Y+2032000D03*
X-2667000Y+2286000D03*
X-2667000Y+2540000D03*
X-2667000Y+2794000D03*
X-2667000Y+3048000D03*
X-2667000Y+3302000D03*
X-2667000Y+3556000D03*
X-2667000Y+3810000D03*
D13*
X-3429000Y+1016000D03*
D14*
X-3429000Y+762000D03*
X-3429000Y+508000D03*
X-3429000Y+254000D03*
X-3429000Y+0D03*
X-3429000Y-254000D03*
X-3429000Y-508000D03*
X-3429000Y-762000D03*
X-3429000Y-1016000D03*
X-3429000Y-1270000D03*
X-2667000Y-1270000D03*
X-2667000Y-1016000D03*
X-2667000Y-762000D03*
X-2667000Y-508000D03*
X-2667000Y-254000D03*
X-2667000Y+0D03*
X-2667000Y+254000D03*
X-2667000Y+508000D03*
X-2667000Y+762000D03*
X-2667000Y+1016000D03*
D13*
X-1397000Y+3810000D03*
D14*
X-1397000Y+3556000D03*
X-1397000Y+3302000D03*
X-1397000Y+3048000D03*
X-1397000Y+2794000D03*
X-1397000Y+2540000D03*
X-1397000Y+2286000D03*
X-1397000Y+2032000D03*
X-1397000Y+1778000D03*
X-1397000Y+1524000D03*
X-635000Y+1524000D03*
X-635000Y+1778000D03*
X-635000Y+2032000D03*
X-635000Y+2286000D03*
X-635000Y+2540000D03*
X-635000Y+2794000D03*
X-635000Y+3048000D03*
X-635000Y+3302000D03*
X-635000Y+3556000D03*
X-635000Y+3810000D03*
D13*
X-1397000Y+1016000D03*
D14*
X-1397000Y+762000D03*
X-1397000Y+508000D03*
X-1397000Y+254000D03*
X-1397000Y+0D03*
X-1397000Y-254000D03*
X-1397000Y-508000D03*
X-1397000Y-762000D03*
X-1397000Y-1016000D03*
X-1397000Y-1270000D03*
X-635000Y-1270000D03*
X-635000Y-1016000D03*
X-635000Y-762000D03*
X-635000Y-508000D03*
X-635000Y-254000D03*
X-635000Y+0D03*
X-635000Y+254000D03*
X-635000Y+508000D03*
X-635000Y+762000D03*
X-635000Y+1016000D03*
D13*
X+635000Y+3810000D03*
D14*
X+635000Y+3556000D03*
X+635000Y+3302000D03*
X+635000Y+3048000D03*
X+635000Y+2794000D03*
X+635000Y+2540000D03*
X+635000Y+2286000D03*
X+635000Y+2032000D03*
X+635000Y+1778000D03*
X+635000Y+1524000D03*
X+1397000Y+1524000D03*
X+1397000Y+1778000D03*
X+1397000Y+2032000D03*
X+1397000Y+2286000D03*
X+1397000Y+2540000D03*
X+1397000Y+2794000D03*
X+1397000Y+3048000D03*
X+1397000Y+3302000D03*
X+1397000Y+3556000D03*
X+1397000Y+3810000D03*
D13*
X+635000Y+1016000D03*
D14*
X+635000Y+762000D03*
X+635000Y+508000D03*
X+635000Y+254000D03*
X+635000Y+0D03*
X+635000Y-254000D03*
X+635000Y-508000D03*
X+635000Y-762000D03*
X+635000Y-1016000D03*
X+635000Y-1270000D03*
X+1397000Y-1270000D03*
X+1397000Y-1016000D03*
X+1397000Y-762000D03*
X+1397000Y-508000D03*
X+1397000Y-254000D03*
X+1397000Y+0D03*
X+1397000Y+254000D03*
X+1397000Y+508000D03*
X+1397000Y+762000D03*
X+1397000Y+1016000D03*
D13*
X-3429000Y-1905000D03*
D14*
X-3429000Y-2159000D03*
X-3429000Y-2413000D03*
X-3429000Y-2667000D03*
X-3429000Y-2921000D03*
X-3429000Y-3175000D03*
X-3429000Y-3429000D03*
X-3429000Y-3683000D03*
X-3429000Y-3937000D03*
X-3429000Y-4191000D03*
X-2667000Y-4191000D03*
X-2667000Y-3937000D03*
X-2667000Y-3683000D03*
X-2667000Y-3429000D03*
X-2667000Y-3175000D03*
X-2667000Y-2921000D03*
X-2667000Y-2667000D03*
X-2667000Y-2413000D03*
X-2667000Y-2159000D03*
X-2667000Y-1905000D03*
D13*
X+635000Y-1778000D03*
D14*
X+635000Y-2032000D03*
X+635000Y-2286000D03*
X+635000Y-2540000D03*
X+635000Y-2794000D03*
X+635000Y-3048000D03*
X+635000Y-3302000D03*
X+635000Y-3556000D03*
X+635000Y-3810000D03*
X+635000Y-4064000D03*
X+1397000Y-4064000D03*
X+1397000Y-3810000D03*
X+1397000Y-3556000D03*
X+1397000Y-3302000D03*
X+1397000Y-3048000D03*
X+1397000Y-2794000D03*
X+1397000Y-2540000D03*
X+1397000Y-2286000D03*
X+1397000Y-2032000D03*
X+1397000Y-1778000D03*
D13*
X-1397000Y-1905000D03*
D14*
X-1397000Y-2159000D03*
X-1397000Y-2413000D03*
X-1397000Y-2667000D03*
X-1397000Y-2921000D03*
X-1397000Y-3175000D03*
X-1397000Y-3429000D03*
X-1397000Y-3683000D03*
X-1397000Y-3937000D03*
X-1397000Y-4191000D03*
X-635000Y-4191000D03*
X-635000Y-3937000D03*
X-635000Y-3683000D03*
X-635000Y-3429000D03*
X-635000Y-3175000D03*
X-635000Y-2921000D03*
X-635000Y-2667000D03*
X-635000Y-2413000D03*
X-635000Y-2159000D03*
X-635000Y-1905000D03*
D13*
X+2667000Y+3810000D03*
D14*
X+2667000Y+3556000D03*
X+2667000Y+3302000D03*
X+2667000Y+3048000D03*
X+2667000Y+2794000D03*
X+2667000Y+2540000D03*
X+2667000Y+2286000D03*
X+2667000Y+2032000D03*
X+2667000Y+1778000D03*
X+2667000Y+1524000D03*
X+3429000Y+1524000D03*
X+3429000Y+1778000D03*
X+3429000Y+2032000D03*
X+3429000Y+2286000D03*
X+3429000Y+2540000D03*
X+3429000Y+2794000D03*
X+3429000Y+3048000D03*
X+3429000Y+3302000D03*
X+3429000Y+3556000D03*
X+3429000Y+3810000D03*
D13*
X+2667000Y+1016000D03*
D14*
X+2667000Y+762000D03*
X+2667000Y+508000D03*
X+2667000Y+254000D03*
X+2667000Y+0D03*
X+2667000Y-254000D03*
X+2667000Y-508000D03*
X+2667000Y-762000D03*
X+2667000Y-1016000D03*
X+2667000Y-1270000D03*
X+3429000Y-1270000D03*
X+3429000Y-1016000D03*
X+3429000Y-762000D03*
X+3429000Y-508000D03*
X+3429000Y-254000D03*
X+3429000Y+0D03*
X+3429000Y+254000D03*
X+3429000Y+508000D03*
X+3429000Y+762000D03*
X+3429000Y+1016000D03*
D15*
X-5461000Y-5715000D02*
X+5461000Y-5715000D01*
X+5461000Y+5207000D01*
X-5461000Y+5207000D01*
X-5461000Y-5715000D01*
M02*
