G04 PROTEUS GERBER X2 FILE*
%TF.GenerationSoftware,Labcenter,Proteus,8.13-SP0-Build31525*%
%TF.CreationDate,2022-07-18T16:40:46+00:00*%
%TF.FileFunction,Plated,1,2,PTH*%
%TF.FilePolarity,Positive*%
%TF.Part,Single*%
%TF.SameCoordinates,{e24a2c9c-2edf-4d0d-b778-41e989ec9892}*%
%FSLAX45Y45*%
%MOMM*%
G01*
%TA.AperFunction,ViaDrill*%
%ADD28C,0.381000*%
%TA.AperFunction,ComponentDrill*%
%ADD29C,1.016000*%
%TA.AperFunction,ComponentDrill*%
%ADD72C,0.762000*%
%TD.AperFunction*%
D28*
X-1651000Y-2667000D03*
X-2667000Y-2540000D03*
X-1778000Y-2921000D03*
X-889000Y-4064000D03*
X-2667000Y-4064000D03*
X-2413000Y+381000D03*
X-3111500Y+254000D03*
X-2413000Y-2540000D03*
X-2159000Y+635000D03*
X-2159000Y-2540000D03*
X-2032000Y-2794000D03*
X-3048000Y-4572000D03*
X-1714500Y-4445000D03*
X-1397000Y-4889500D03*
X-3810000Y-4889500D03*
X-1587500Y-3683000D03*
X-1143000Y-1143000D03*
X-1206500Y-4318000D03*
X-3810000Y-2413000D03*
X-4318000Y-2540000D03*
X-3937000Y-2921000D03*
X+762000Y-4762500D03*
X-2921000Y-4762500D03*
X-2794000Y-2286000D03*
X+1016000Y-5270500D03*
X-889000Y-5270500D03*
X+1651000Y+3556000D03*
X+762000Y+3556000D03*
X+190500Y+1651000D03*
X+508000Y+1651000D03*
X-1016000Y+381000D03*
X+254000Y+381000D03*
X+254000Y+508000D03*
X+2540000Y-254000D03*
X-63500Y+2794000D03*
X+127000Y-1460500D03*
X+2794000Y-635000D03*
X+952500Y+2413000D03*
X+952500Y+2032000D03*
X+952500Y+1778000D03*
X+3175000Y+1905000D03*
X+952500Y+1524000D03*
X+3810000Y+4635500D03*
X+4318000Y+0D03*
X+4572000Y+889000D03*
X+1143000Y-2667000D03*
X+2413000Y-2667000D03*
X+1651000Y-2857500D03*
X+3683000Y-2857500D03*
X+3937000Y-1397000D03*
X+1524000Y-762000D03*
X+1524000Y-889000D03*
X-1397000Y-889000D03*
X-254000Y-1016000D03*
X-254000Y-5143500D03*
X-254000Y-381000D03*
X+254000Y-635000D03*
X+254000Y-5016500D03*
X+4445000Y-5016500D03*
X+1587500Y-2540000D03*
X+4699000Y-2540000D03*
X-571500Y-1143000D03*
X+1397000Y-1143000D03*
X-508000Y-2159000D03*
X+1587500Y-2413000D03*
X-635000Y-1397000D03*
X+762000Y+2921000D03*
X-1079500Y+2921000D03*
X+1079500Y+3048000D03*
X+1651000Y-2984500D03*
X+2286000Y-2984500D03*
X+1905000Y-4826000D03*
X+2540000Y-4826000D03*
X+1587500Y+1905000D03*
X+2032000Y+1778000D03*
X+1524000Y+1778000D03*
X-2476500Y+3175000D03*
X+2159000Y+1524000D03*
X+2921000Y-381000D03*
X+3429000Y-4699000D03*
X+2032000Y-4699000D03*
X-1079500Y-4572000D03*
X+2032000Y-4572000D03*
X+1397000Y-1460500D03*
X+2413000Y+1651000D03*
X-1651000Y+4254500D03*
X-4191000Y+4254500D03*
X+1016000Y-2032000D03*
X+1016000Y-1778000D03*
X+4318000Y+1651000D03*
X+4318000Y+3556000D03*
X+4889500Y+2540000D03*
X+2730500Y+1651000D03*
X+2286000Y+3429000D03*
X+4445000Y+1206500D03*
X-2794000Y+1206500D03*
X+4762500Y+635000D03*
X+635000Y+1333500D03*
X+4826000Y-4572000D03*
X-2540000Y-4572000D03*
X+4826000Y-2159000D03*
X+1270000Y-2159000D03*
D29*
X-2921000Y+4953000D03*
X-2667000Y+4953000D03*
X-2413000Y+4953000D03*
X-2159000Y+4953000D03*
X-1905000Y+4953000D03*
X-1651000Y+4953000D03*
X-1397000Y+4953000D03*
X-1143000Y+4953000D03*
X-889000Y+4953000D03*
X-635000Y+4953000D03*
X-381000Y+4953000D03*
X-127000Y+4953000D03*
X+127000Y+4953000D03*
X+381000Y+4953000D03*
X+635000Y+4953000D03*
X+889000Y+4953000D03*
X+1143000Y+4953000D03*
X+1397000Y+4953000D03*
X+1651000Y+4953000D03*
X+1905000Y+4953000D03*
X+2159000Y+4953000D03*
X+2413000Y+4953000D03*
X+2667000Y+4953000D03*
X+2921000Y+4953000D03*
X+3175000Y+4953000D03*
X+3429000Y+4953000D03*
X+3683000Y+4953000D03*
X+3937000Y+4953000D03*
X+4191000Y+4953000D03*
X+4445000Y+4953000D03*
X+4699000Y+4953000D03*
X+4953000Y+4953000D03*
X-4953000Y+4953000D03*
X-4699000Y+4953000D03*
X-4445000Y+4953000D03*
X-4191000Y+4953000D03*
X-3937000Y+4953000D03*
X-3683000Y+4953000D03*
X-3429000Y+4953000D03*
X-3175000Y+4953000D03*
X-4953000Y-5461000D03*
X-4699000Y-5461000D03*
X-4445000Y-5461000D03*
X-4191000Y-5461000D03*
X-3937000Y-5461000D03*
X-3683000Y-5461000D03*
X-3429000Y-5461000D03*
X-3175000Y-5461000D03*
X-2921000Y-5461000D03*
X-2667000Y-5461000D03*
X-2413000Y-5461000D03*
X-2159000Y-5461000D03*
X-1905000Y-5461000D03*
X-1651000Y-5461000D03*
X-1397000Y-5461000D03*
X-1143000Y-5461000D03*
X-889000Y-5461000D03*
X-635000Y-5461000D03*
X-381000Y-5461000D03*
X-127000Y-5461000D03*
X+127000Y-5461000D03*
X+381000Y-5461000D03*
X+635000Y-5461000D03*
X+889000Y-5461000D03*
X+1143000Y-5461000D03*
X+1397000Y-5461000D03*
X+1651000Y-5461000D03*
X+1905000Y-5461000D03*
X+2159000Y-5461000D03*
X+2413000Y-5461000D03*
X+2667000Y-5461000D03*
X+2921000Y-5461000D03*
X+3175000Y-5461000D03*
X+3429000Y-5461000D03*
X+3683000Y-5461000D03*
X+3937000Y-5461000D03*
X+4191000Y-5461000D03*
X+4445000Y-5461000D03*
X+4699000Y-5461000D03*
X+4953000Y-5461000D03*
X-5207000Y+4699000D03*
X-5207000Y+4445000D03*
X-5207000Y+4191000D03*
X-5207000Y+3937000D03*
X-5207000Y+3683000D03*
X-5207000Y+3429000D03*
X-5207000Y+3175000D03*
X-5207000Y+2921000D03*
X-5207000Y+2667000D03*
X-5207000Y+2413000D03*
X-5207000Y+2159000D03*
X-5207000Y+1905000D03*
X-5207000Y+1651000D03*
X-5207000Y+1397000D03*
X-5207000Y+1143000D03*
X-5207000Y+889000D03*
X-5207000Y+635000D03*
X-5207000Y+381000D03*
X-5207000Y+127000D03*
X-5207000Y-127000D03*
X-5207000Y-381000D03*
X-5207000Y-635000D03*
X-5207000Y-889000D03*
X-5207000Y-1143000D03*
X-5207000Y-1397000D03*
X-5207000Y-1651000D03*
X-5207000Y-1905000D03*
X-5207000Y-2159000D03*
X-5207000Y-2413000D03*
X-5207000Y-2667000D03*
X-5207000Y-2921000D03*
X-5207000Y-3175000D03*
X-5207000Y-3429000D03*
X-5207000Y-3683000D03*
X-5207000Y-3937000D03*
X-5207000Y-4191000D03*
X-5207000Y-4445000D03*
X-5207000Y-4699000D03*
X-5207000Y-4953000D03*
X-5207000Y-5207000D03*
X+5207000Y+4699000D03*
X+5207000Y+4445000D03*
X+5207000Y+4191000D03*
X+5207000Y+3937000D03*
X+5207000Y+3683000D03*
X+5207000Y+3429000D03*
X+5207000Y+3175000D03*
X+5207000Y+2921000D03*
X+5207000Y+2667000D03*
X+5207000Y+2413000D03*
X+5207000Y+2159000D03*
X+5207000Y+1905000D03*
X+5207000Y+1651000D03*
X+5207000Y+1397000D03*
X+5207000Y+1143000D03*
X+5207000Y+889000D03*
X+5207000Y+635000D03*
X+5207000Y+381000D03*
X+5207000Y+127000D03*
X+5207000Y-127000D03*
X+5207000Y-381000D03*
X+5207000Y-635000D03*
X+5207000Y-889000D03*
X+5207000Y-1143000D03*
X+5207000Y-1397000D03*
X+5207000Y-1651000D03*
X+5207000Y-1905000D03*
X+5207000Y-2159000D03*
X+5207000Y-2413000D03*
X+5207000Y-2667000D03*
X+5207000Y-2921000D03*
X+5207000Y-3175000D03*
X+5207000Y-3429000D03*
X+5207000Y-3683000D03*
X+5207000Y-3937000D03*
X+5207000Y-4191000D03*
X+5207000Y-4445000D03*
X+5207000Y-4699000D03*
X+5207000Y-4953000D03*
X+5207000Y-5207000D03*
D72*
X-3429000Y+3810000D03*
X-3429000Y+3556000D03*
X-3429000Y+3302000D03*
X-3429000Y+3048000D03*
X-3429000Y+2794000D03*
X-3429000Y+2540000D03*
X-3429000Y+2286000D03*
X-3429000Y+2032000D03*
X-3429000Y+1778000D03*
X-3429000Y+1524000D03*
X-2667000Y+1524000D03*
X-2667000Y+1778000D03*
X-2667000Y+2032000D03*
X-2667000Y+2286000D03*
X-2667000Y+2540000D03*
X-2667000Y+2794000D03*
X-2667000Y+3048000D03*
X-2667000Y+3302000D03*
X-2667000Y+3556000D03*
X-2667000Y+3810000D03*
X-3429000Y+1016000D03*
X-3429000Y+762000D03*
X-3429000Y+508000D03*
X-3429000Y+254000D03*
X-3429000Y+0D03*
X-3429000Y-254000D03*
X-3429000Y-508000D03*
X-3429000Y-762000D03*
X-3429000Y-1016000D03*
X-3429000Y-1270000D03*
X-2667000Y-1270000D03*
X-2667000Y-1016000D03*
X-2667000Y-762000D03*
X-2667000Y-508000D03*
X-2667000Y-254000D03*
X-2667000Y+0D03*
X-2667000Y+254000D03*
X-2667000Y+508000D03*
X-2667000Y+762000D03*
X-2667000Y+1016000D03*
X-1397000Y+3810000D03*
X-1397000Y+3556000D03*
X-1397000Y+3302000D03*
X-1397000Y+3048000D03*
X-1397000Y+2794000D03*
X-1397000Y+2540000D03*
X-1397000Y+2286000D03*
X-1397000Y+2032000D03*
X-1397000Y+1778000D03*
X-1397000Y+1524000D03*
X-635000Y+1524000D03*
X-635000Y+1778000D03*
X-635000Y+2032000D03*
X-635000Y+2286000D03*
X-635000Y+2540000D03*
X-635000Y+2794000D03*
X-635000Y+3048000D03*
X-635000Y+3302000D03*
X-635000Y+3556000D03*
X-635000Y+3810000D03*
X-1397000Y+1016000D03*
X-1397000Y+762000D03*
X-1397000Y+508000D03*
X-1397000Y+254000D03*
X-1397000Y+0D03*
X-1397000Y-254000D03*
X-1397000Y-508000D03*
X-1397000Y-762000D03*
X-1397000Y-1016000D03*
X-1397000Y-1270000D03*
X-635000Y-1270000D03*
X-635000Y-1016000D03*
X-635000Y-762000D03*
X-635000Y-508000D03*
X-635000Y-254000D03*
X-635000Y+0D03*
X-635000Y+254000D03*
X-635000Y+508000D03*
X-635000Y+762000D03*
X-635000Y+1016000D03*
X+635000Y+3810000D03*
X+635000Y+3556000D03*
X+635000Y+3302000D03*
X+635000Y+3048000D03*
X+635000Y+2794000D03*
X+635000Y+2540000D03*
X+635000Y+2286000D03*
X+635000Y+2032000D03*
X+635000Y+1778000D03*
X+635000Y+1524000D03*
X+1397000Y+1524000D03*
X+1397000Y+1778000D03*
X+1397000Y+2032000D03*
X+1397000Y+2286000D03*
X+1397000Y+2540000D03*
X+1397000Y+2794000D03*
X+1397000Y+3048000D03*
X+1397000Y+3302000D03*
X+1397000Y+3556000D03*
X+1397000Y+3810000D03*
X+635000Y+1016000D03*
X+635000Y+762000D03*
X+635000Y+508000D03*
X+635000Y+254000D03*
X+635000Y+0D03*
X+635000Y-254000D03*
X+635000Y-508000D03*
X+635000Y-762000D03*
X+635000Y-1016000D03*
X+635000Y-1270000D03*
X+1397000Y-1270000D03*
X+1397000Y-1016000D03*
X+1397000Y-762000D03*
X+1397000Y-508000D03*
X+1397000Y-254000D03*
X+1397000Y+0D03*
X+1397000Y+254000D03*
X+1397000Y+508000D03*
X+1397000Y+762000D03*
X+1397000Y+1016000D03*
X-3429000Y-1905000D03*
X-3429000Y-2159000D03*
X-3429000Y-2413000D03*
X-3429000Y-2667000D03*
X-3429000Y-2921000D03*
X-3429000Y-3175000D03*
X-3429000Y-3429000D03*
X-3429000Y-3683000D03*
X-3429000Y-3937000D03*
X-3429000Y-4191000D03*
X-2667000Y-4191000D03*
X-2667000Y-3937000D03*
X-2667000Y-3683000D03*
X-2667000Y-3429000D03*
X-2667000Y-3175000D03*
X-2667000Y-2921000D03*
X-2667000Y-2667000D03*
X-2667000Y-2413000D03*
X-2667000Y-2159000D03*
X-2667000Y-1905000D03*
X+635000Y-1778000D03*
X+635000Y-2032000D03*
X+635000Y-2286000D03*
X+635000Y-2540000D03*
X+635000Y-2794000D03*
X+635000Y-3048000D03*
X+635000Y-3302000D03*
X+635000Y-3556000D03*
X+635000Y-3810000D03*
X+635000Y-4064000D03*
X+1397000Y-4064000D03*
X+1397000Y-3810000D03*
X+1397000Y-3556000D03*
X+1397000Y-3302000D03*
X+1397000Y-3048000D03*
X+1397000Y-2794000D03*
X+1397000Y-2540000D03*
X+1397000Y-2286000D03*
X+1397000Y-2032000D03*
X+1397000Y-1778000D03*
X-1397000Y-1905000D03*
X-1397000Y-2159000D03*
X-1397000Y-2413000D03*
X-1397000Y-2667000D03*
X-1397000Y-2921000D03*
X-1397000Y-3175000D03*
X-1397000Y-3429000D03*
X-1397000Y-3683000D03*
X-1397000Y-3937000D03*
X-1397000Y-4191000D03*
X-635000Y-4191000D03*
X-635000Y-3937000D03*
X-635000Y-3683000D03*
X-635000Y-3429000D03*
X-635000Y-3175000D03*
X-635000Y-2921000D03*
X-635000Y-2667000D03*
X-635000Y-2413000D03*
X-635000Y-2159000D03*
X-635000Y-1905000D03*
X+2667000Y+3810000D03*
X+2667000Y+3556000D03*
X+2667000Y+3302000D03*
X+2667000Y+3048000D03*
X+2667000Y+2794000D03*
X+2667000Y+2540000D03*
X+2667000Y+2286000D03*
X+2667000Y+2032000D03*
X+2667000Y+1778000D03*
X+2667000Y+1524000D03*
X+3429000Y+1524000D03*
X+3429000Y+1778000D03*
X+3429000Y+2032000D03*
X+3429000Y+2286000D03*
X+3429000Y+2540000D03*
X+3429000Y+2794000D03*
X+3429000Y+3048000D03*
X+3429000Y+3302000D03*
X+3429000Y+3556000D03*
X+3429000Y+3810000D03*
X+2667000Y+1016000D03*
X+2667000Y+762000D03*
X+2667000Y+508000D03*
X+2667000Y+254000D03*
X+2667000Y+0D03*
X+2667000Y-254000D03*
X+2667000Y-508000D03*
X+2667000Y-762000D03*
X+2667000Y-1016000D03*
X+2667000Y-1270000D03*
X+3429000Y-1270000D03*
X+3429000Y-1016000D03*
X+3429000Y-762000D03*
X+3429000Y-508000D03*
X+3429000Y-254000D03*
X+3429000Y+0D03*
X+3429000Y+254000D03*
X+3429000Y+508000D03*
X+3429000Y+762000D03*
X+3429000Y+1016000D03*
M02*
