G04 PROTEUS GERBER X2 FILE*
%TF.GenerationSoftware,Labcenter,Proteus,8.13-SP0-Build31525*%
%TF.CreationDate,2022-07-18T16:44:16+00:00*%
%TF.FileFunction,Copper,L1,Top*%
%TF.FilePolarity,Positive*%
%TF.Part,Single*%
%TF.SameCoordinates,{5cd33fac-9818-4aa8-8d23-16ed7fe0303d}*%
%FSLAX45Y45*%
%MOMM*%
G01*
%TA.AperFunction,Conductor*%
%ADD10C,0.254000*%
%TA.AperFunction,ViaPad*%
%ADD11C,0.762000*%
%TA.AperFunction,ComponentPad*%
%ADD12R,2.032000X2.032000*%
%TA.AperFunction,ComponentPad*%
%ADD13R,1.270000X1.270000*%
%ADD14C,1.270000*%
%TA.AperFunction,Profile*%
%ADD15C,0.203200*%
%TD.AperFunction*%
D10*
X-2857500Y+63500D02*
X-254000Y+63500D01*
X-2667000Y-1524000D02*
X-3175000Y-1524000D01*
X-3175001Y-1523999D01*
X-3429000Y-1524000D01*
X-3429000Y-1523999D01*
X-698500Y-1016000D02*
X-825500Y-889000D01*
X-1524000Y-889000D01*
X-1587500Y-952500D01*
X-2667000Y-2286000D02*
X-2794000Y-2286000D01*
X-3048000Y-2032000D01*
X-3429000Y-2032000D01*
X-381000Y-63500D02*
X-3048000Y-63500D01*
X-2032000Y-3302000D02*
X-2349500Y-3302000D01*
X-2032000Y-3048000D02*
X-2540000Y-3048000D01*
X-3302000Y-3683000D02*
X-635000Y-3683000D01*
X-3429000Y-3175000D02*
X-1651000Y-3175000D01*
X-2667000Y+2540000D02*
X-2540000Y+2667000D01*
X-507999Y+2667000D01*
X-381000Y+2540000D01*
X-381000Y+2540001D01*
X-2667000Y+2540000D02*
X-3175000Y+2540000D01*
X-3175001Y+2540001D01*
X-3429000Y+2540000D01*
X-3429000Y+2540001D01*
X-2667000Y+2032000D02*
X-2540000Y+2159000D01*
X-508000Y+2159000D01*
X-381000Y+2286000D01*
X-2667000Y+2286000D02*
X-3429000Y+2286000D01*
X-2667000Y+1778000D02*
X-2540000Y+1905000D01*
X-508000Y+1905000D01*
X-381000Y+2032000D01*
X-2667000Y+1778000D02*
X-3048000Y+1778000D01*
X-3302000Y+2032000D01*
X-3429000Y+2032000D01*
X-2095500Y+1651000D02*
X-508000Y+1651000D01*
X-381000Y+1524000D01*
X-2095500Y+1651000D02*
X-3302000Y+1651000D01*
X-3429000Y+1524000D01*
X-1905000Y+1524000D02*
X-1778000Y+1397000D01*
X-508000Y+1397000D01*
X-381000Y+1270000D01*
X-1905000Y+1524000D02*
X-2032000Y+1397000D01*
X-3302000Y+1397000D01*
X-3429000Y+1270000D01*
X-381000Y+1143000D02*
X-2222500Y+1143000D01*
X-1778000Y+889000D02*
X-3302000Y+889000D01*
X-3429000Y+762000D01*
X-1778000Y+889000D02*
X-508000Y+889000D01*
X-381000Y+762000D01*
X+1905000Y+2540000D02*
X+2032000Y+2667000D01*
X+4064001Y+2667000D01*
X+4191000Y+2540000D01*
X+4191000Y+2540001D01*
X+1905000Y+2540000D02*
X+1143000Y+2540000D01*
X+1143001Y+2540000D01*
X+1143000Y+2540001D01*
X+1905000Y+2286000D02*
X+2032000Y+2413000D01*
X+4064000Y+2413000D01*
X+4191000Y+2286000D01*
X+1905000Y+2286000D02*
X+1143000Y+2286000D01*
X+1905000Y+1778000D02*
X+2032000Y+1905000D01*
X+4064000Y+1905000D01*
X+4191000Y+2032000D01*
X+1905000Y+1778000D02*
X+1524000Y+1778000D01*
X+1270000Y+2032000D01*
X+1143000Y+2032000D01*
X+1905000Y+1016000D02*
X+2413000Y+1016000D01*
X+2540000Y+1143000D01*
X+4318000Y+1143000D01*
X+4381500Y+1206500D01*
X+4381500Y+1714500D01*
X+4318000Y+1778000D01*
X+4191000Y+1778000D01*
X+2667000Y+1270000D02*
X+2794000Y+1397000D01*
X+4064000Y+1397000D01*
X+4191000Y+1524000D01*
X+2667000Y+1270000D02*
X+2349500Y+1270000D01*
X+2222500Y+1143000D01*
X+1079500Y+1143000D01*
X+1016000Y+1206500D01*
X+1016000Y+1397000D01*
X+1143000Y+1524000D01*
X+2667000Y+1524000D02*
X+2794000Y+1651000D01*
X+4254500Y+1651000D01*
X+4318000Y+1587500D01*
X+4318000Y+1397000D01*
X+4191000Y+1270000D01*
X+2667000Y+1524000D02*
X+2222500Y+1524000D01*
X+2095500Y+1397000D01*
X+1270000Y+1397000D01*
X+1143000Y+1270000D01*
X+2667000Y+2159000D02*
X+4445000Y+2159000D01*
X+4508500Y+2095500D01*
X+4508500Y+1079500D01*
X+4445000Y+1016000D01*
X+4191000Y+1016000D01*
X+2667000Y+2159000D02*
X+952500Y+2159000D01*
X+889000Y+2095500D01*
X+889000Y+1079500D01*
X+952500Y+1016000D01*
X+1143000Y+1016000D01*
X+2794000Y+1016000D02*
X+2921000Y+889000D01*
X+4064000Y+889000D01*
X+4191000Y+762000D01*
X+2794000Y-952500D02*
X+2857500Y-889000D01*
X+3556001Y-889000D01*
X+4191000Y-1524000D01*
X+4191000Y-1523999D01*
X+1905000Y-1778000D02*
X+2032000Y-1651000D01*
X+3492500Y-1651000D01*
X+3619500Y-1778000D01*
X+4191000Y-1778000D01*
X+1905000Y-1778000D02*
X+1143000Y-1778000D01*
X+1905000Y-2286000D02*
X+2032000Y-2159000D01*
X+4064000Y-2159000D01*
X+4191000Y-2032000D01*
X+1905000Y-2286000D02*
X+1524000Y-2286000D01*
X+1270000Y-2032000D01*
X+1143000Y-2032000D01*
X+1905000Y-2794000D02*
X+2032000Y-2921000D01*
X+4318000Y-2921000D01*
X+4381500Y-2857500D01*
X+4381500Y-2349500D01*
X+4318000Y-2286000D01*
X+4191000Y-2286000D01*
X+2667000Y-2794000D02*
X+2794000Y-2667000D01*
X+4064000Y-2667000D01*
X+4191000Y-2540000D01*
X+2667000Y-2540000D02*
X+3175000Y-2540000D01*
X+3302000Y-2413000D01*
X+4254500Y-2413000D01*
X+4318000Y-2476500D01*
X+4318000Y-2667000D01*
X+4191000Y-2794000D01*
X+2667000Y-2540000D02*
X+2286000Y-2540000D01*
X+2159000Y-2667000D01*
X+1270000Y-2667000D01*
X+1143000Y-2794000D01*
X+2667000Y-2032000D02*
X+2794000Y-1905000D01*
X+4445000Y-1905000D01*
X+4508500Y-1968500D01*
X+4508500Y-2984500D01*
X+4445000Y-3048000D01*
X+4191000Y-3048000D01*
X+4191000Y-3619500D02*
X+2857500Y-3619500D01*
X-4191000Y-1270000D02*
X-4318000Y-1143000D01*
X-4318000Y-825500D01*
X-4254500Y-762000D01*
X+190500Y-762000D01*
X+254000Y-825500D01*
X-4191000Y-1524000D02*
X-4064000Y-1397000D01*
X-3683000Y-1397000D01*
X-63500Y-1397000D02*
X+63500Y-1524000D01*
X+381000Y-1524000D01*
X-63500Y-1397000D02*
X-3683000Y-1397000D01*
X+0Y-1651000D02*
X-3619500Y-1651000D01*
X-3746500Y-1778000D01*
X+0Y-1651000D02*
X+254000Y-1651000D01*
X+381000Y-1778000D01*
X-4191000Y-1778000D02*
X-3746500Y-1778000D01*
X+381000Y-2032000D02*
X+254000Y-1905000D01*
X-3746500Y-1905000D01*
X-4191000Y-2032000D02*
X-3873500Y-2032000D01*
X-3746500Y-1905000D01*
X-3937000Y-3937000D02*
X+254000Y-3937000D01*
X-4191000Y-2159000D02*
X-4000500Y-2159000D01*
X-3873500Y-2286000D01*
X+381000Y-2540000D02*
X-190500Y-2540000D01*
X-317500Y-2413000D01*
X-3556000Y-2413000D01*
X-3683000Y-2540000D01*
X-4064000Y-4699000D02*
X-4050813Y-4685813D01*
X-3759687Y-4685813D01*
X-3683000Y-4762500D01*
X-3683000Y-5461000D01*
X-4191000Y-2540000D02*
X-3683000Y-2540000D01*
X-4191000Y-2540000D02*
X-4381500Y-2730500D01*
X-4381500Y-3111500D01*
X-4318000Y-3175000D01*
X-4064000Y-3175000D01*
X+508000Y+1143000D02*
X+508000Y+1397000D01*
X+381000Y+1524000D01*
X+381000Y-2794000D02*
X+254000Y-2667000D01*
X-3810000Y-2667000D01*
X-3937000Y-2794000D01*
X-4191000Y-2794000D01*
X-3175000Y-2921000D02*
X+254000Y-2921000D01*
X+381000Y-3048000D01*
X-4064000Y-2921000D02*
X-3175000Y-2921000D01*
X-4191000Y+1016000D02*
X-4318000Y+889000D01*
X-4318000Y+635000D01*
X-4254500Y+571500D01*
X+444500Y+571500D01*
X-4064000Y-2921000D02*
X-4191000Y-3048000D01*
X-1270000Y+444500D02*
X-1143000Y+317500D01*
X+2857500Y+317500D01*
X+2984500Y+444500D01*
X-2413000Y-3556000D02*
X-1397000Y-3556000D01*
X-1333500Y-3492500D01*
X-1333500Y-3302000D01*
X+2984500Y-1270000D02*
X+3429000Y-1270000D01*
X+825500Y-317500D02*
X+901700Y-393700D01*
X+3797300Y-393700D01*
X+3873500Y-317500D01*
X+3873500Y-63500D01*
X+3810000Y+0D01*
X+3556000Y+0D01*
X-635000Y-317500D02*
X+825500Y-317500D01*
X+825500Y-4699000D02*
X+807995Y-4681495D01*
X-553995Y-4681495D01*
X-635000Y-4762500D01*
X-635000Y-5461000D01*
X-508000Y-1524000D02*
X-1143000Y-1524000D01*
X+825500Y-190500D02*
X+1143000Y+127000D01*
X+3683000Y+127000D01*
X+825500Y-190500D02*
X-762000Y-190500D01*
X-762000Y-1778000D02*
X-1143000Y-1778000D01*
X+698500Y-4953000D02*
X-317500Y-4953000D01*
X-381000Y-5016500D01*
X-381000Y-5461000D01*
X+952500Y-4318000D02*
X+952500Y-5080000D01*
X+889000Y-5143500D01*
X-63500Y-5143500D01*
X-127000Y-5207000D01*
X-127000Y-5461000D01*
X+1016000Y-1968500D02*
X+1016000Y-1460500D01*
X+1079500Y-1397000D01*
X+2857500Y-1397000D01*
X+2984500Y-1524000D01*
X+4000500Y-2032000D02*
X+3429000Y-2032000D01*
X+2984500Y-1524000D02*
X+3175000Y-1524000D01*
X+3302000Y-1397000D01*
X+3619500Y-1397000D01*
X+3873500Y-1651000D01*
X+4000500Y-1651000D01*
X-825500Y-2032000D02*
X-1143000Y-2032000D01*
X+1016000Y-1968500D02*
X+825500Y-2159000D01*
X-698500Y-2159000D01*
X-825500Y-2032000D01*
X+3048000Y-2286000D02*
X+2921000Y-2413000D01*
X+0Y-2413000D01*
X-1143000Y-2286000D02*
X-698500Y-2286000D01*
X+3048000Y-2286000D02*
X+3429000Y-2286000D01*
X+444500Y+63500D02*
X+241300Y+266700D01*
X-571500Y+266700D01*
X-584200Y+254000D01*
X-1587500Y+254000D01*
X-1651000Y+317500D01*
X+444500Y+444500D02*
X+2667000Y+444500D01*
X+3937000Y-2540000D02*
X+3429000Y-2540000D01*
X+2667000Y-635000D02*
X+2794000Y-508000D01*
X+3810000Y-508000D01*
X+3937000Y-635000D01*
X+381000Y-3746500D02*
X+381000Y-3810000D01*
X+444500Y-3873500D01*
X+571500Y-3873500D01*
X+3619500Y-3873500D02*
X+571500Y-3873500D01*
X+381000Y-3746500D02*
X+317500Y-3746500D01*
X+177800Y-3606800D01*
X-901700Y-3606800D01*
X-1016000Y-3492500D01*
X-1016000Y-3302000D01*
X+3810000Y+1270000D02*
X+3429000Y+1270000D01*
X+3429000Y-3048000D02*
X+3619500Y-3238500D01*
X+3619500Y-3429000D01*
X+3556000Y-3492500D01*
X+571500Y-3492500D01*
X-1143000Y-3048000D02*
X-698500Y-3048000D01*
X-635000Y-3111500D01*
X-635000Y-3429000D01*
X-571500Y-3492500D01*
X+571500Y-3492500D01*
X-2667000Y-3302000D02*
X-2540000Y-3429000D01*
X-1651000Y-3429000D01*
X-1397000Y-3175000D01*
X-1270000Y-3175000D01*
X-1143000Y-3302000D01*
X-2667000Y-3302000D02*
X-2794000Y-3429000D01*
X-4064000Y-3429000D01*
X-4191000Y-3302000D01*
X-1143000Y+762000D02*
X-1016000Y+635000D01*
X+254000Y+635000D01*
X+381000Y+762000D01*
X-2667000Y+762000D02*
X-2794000Y+635000D01*
X-4064000Y+635000D01*
X-4191000Y+762000D01*
X+1905000Y-3302000D02*
X+1778000Y-3175000D01*
X+508000Y-3175000D01*
X+381000Y-3302000D01*
X-1143000Y+762000D02*
X-1270000Y+635000D01*
X-2540000Y+635000D01*
X-2667000Y+762000D01*
X+3429000Y-4953000D02*
X+5207000Y-4953000D01*
X-1143000Y-3302000D02*
X-1016000Y-3175000D01*
X-825500Y-3175000D01*
X-762000Y-3238500D01*
X-762000Y-3492500D01*
X-698500Y-3556000D01*
X+317500Y-3556000D01*
X+381000Y-3619500D01*
X+1905000Y+762000D02*
X+1778000Y+889000D01*
X+508000Y+889000D01*
X+381000Y+762000D01*
X+1905000Y+762000D02*
X+2032000Y+635000D01*
X+3302000Y+635000D01*
X+3429000Y+762000D01*
X+1905000Y-3302000D02*
X+2032000Y-3429000D01*
X+3302000Y-3429000D01*
X+3429000Y-3302000D01*
X-3429000Y+2794001D02*
X-3429000Y+2794000D01*
X-3556001Y+2667000D01*
X-4572000Y+2667000D01*
X-4656107Y+2582893D01*
X-4656107Y+952500D01*
X-4719607Y+889000D01*
X-5207000Y+889000D01*
X-381000Y+2794001D02*
X-381000Y+2794000D01*
X-254000Y+2667001D01*
X-254000Y+2476500D01*
X-317500Y+2413000D01*
X-4508500Y+2413000D01*
X-4572000Y+2349500D01*
X-4572000Y+698500D01*
X-4635500Y+635000D01*
X-5207000Y+635000D01*
X-2413000Y+1016000D02*
X-2540000Y+1143000D01*
X-4381500Y+1143000D01*
X-4445000Y+1079500D01*
X-4445000Y+444500D01*
X-4508500Y+381000D01*
X-5207000Y+381000D01*
X-2667000Y+3048000D02*
X-2540000Y+2921000D01*
X-1651000Y+2921000D01*
X-1143000Y+3048000D02*
X-1270000Y+2921000D01*
X-1651000Y+2921000D01*
X-5016500Y+127000D02*
X-3556000Y+127000D01*
X-5016500Y-127000D02*
X-3492500Y-127000D01*
X-3175000Y+190500D01*
X-508000Y+190500D01*
X-2667000Y-1016000D02*
X-2540000Y-1143000D01*
X-1270000Y-1143000D01*
X-1143000Y-1016000D01*
X-2667000Y-1016000D02*
X-2794000Y-1016000D01*
X-2921000Y-1143000D01*
X-4064000Y-1143000D01*
X-4191000Y-1016000D01*
X-5016500Y-317500D02*
X-4191000Y-317500D01*
X+1905000Y+3048000D02*
X+1778000Y+2921000D01*
X+508000Y+2921000D01*
X+381000Y+3048000D01*
X+1905000Y+3048000D02*
X+2032000Y+2921000D01*
X+2413000Y+2921000D01*
X+2476500Y+2921000D02*
X+2413000Y+2921000D01*
X+2540000Y+2921000D02*
X+2476500Y+2921000D01*
X+2540000Y+2921000D02*
X+3302000Y+2921000D01*
X+3429000Y+3048000D01*
X+952500Y-571500D02*
X-4826000Y-571500D01*
X-4889500Y-635000D01*
X-4889500Y-1333500D01*
X-4953000Y-1397000D01*
X-5207000Y-1397000D01*
X+4191000Y-1269999D02*
X+4191000Y-1270000D01*
X+4318000Y-1142999D01*
X+4318000Y-825500D01*
X+4254500Y-762000D01*
X+825500Y-762000D01*
X+698500Y-635000D01*
X-4508500Y-635000D01*
X-4621872Y-748372D01*
X-4621872Y-1587500D01*
X-4685372Y-1651000D01*
X-5207000Y-1651000D01*
X+381000Y-1016000D02*
X+381000Y-762000D01*
X+317500Y-698500D01*
X-4445000Y-698500D01*
X-4508500Y-762000D01*
X-4508500Y-1841500D01*
X-4572000Y-1905000D01*
X-5207000Y-1905000D01*
X+1905000Y-1016000D02*
X+1778000Y-889000D01*
X+508000Y-889000D01*
X+381000Y-1016000D01*
X+2159000Y-1143000D02*
X+3302000Y-1143000D01*
X+3429000Y-1016000D01*
X+1905000Y-1016000D02*
X+2032000Y-1016000D01*
X+2159000Y-1143000D01*
X-1905000Y-1016000D02*
X-1714500Y-825500D01*
X-571500Y-825500D01*
X-381000Y-1016000D01*
X-1905000Y-1016000D02*
X-2032000Y-889000D01*
X-3302000Y-889000D01*
X-3429000Y-1016000D01*
X-381000Y+3048000D02*
X-508000Y+3175000D01*
X-1778000Y+3175000D01*
X-1905000Y+3048000D01*
X-2032000Y+3175000D01*
X-3302000Y+3175000D01*
X-3429000Y+3048000D01*
X+2667000Y+3048000D02*
X+2476500Y+3238500D01*
X+1333500Y+3238500D01*
X+1143000Y+3048000D01*
X-381000Y-1016000D02*
X-254000Y-1143000D01*
X+1016000Y-1143000D01*
X+1143000Y-1016000D01*
X+2667000Y-1016000D02*
X+2667000Y-889000D01*
X+2730500Y-825500D01*
X+4000500Y-825500D01*
X+4191000Y-1016000D01*
D11*
X-254000Y+63500D03*
X-2857500Y+63500D03*
X-1587500Y-952500D03*
X-698500Y-1016000D03*
X-3048000Y-63500D03*
X-381000Y-63500D03*
X-2349500Y-3302000D03*
X-2032000Y-3302000D03*
X-2540000Y-3048000D03*
X-2032000Y-3048000D03*
X-635000Y-3683000D03*
X-3302000Y-3683000D03*
X-1651000Y-3175000D03*
X-3429000Y-3175000D03*
X-2095500Y+1651000D03*
X-2222500Y+1143000D03*
X-381000Y+1143000D03*
X-1778000Y+889000D03*
X+2667000Y+2159000D03*
X+2794000Y+1016000D03*
X+2794000Y-952500D03*
X+2857500Y-3619500D03*
X+4191000Y-3619500D03*
X+254000Y-825500D03*
X-3683000Y-1397000D03*
X-63500Y-1397000D03*
X-3746500Y-1778000D03*
X+0Y-1651000D03*
X-3746500Y-1905000D03*
X+254000Y-3937000D03*
X-3937000Y-3937000D03*
X-3873500Y-2286000D03*
X-4191000Y-2159000D03*
X-4064000Y-4699000D03*
X-4064000Y-3175000D03*
X+508000Y+1143000D03*
X-3810000Y-2667000D03*
X+444500Y+571500D03*
X-3175000Y-2921000D03*
X-4064000Y-2921000D03*
X+2984500Y+444500D03*
X-1333500Y-3302000D03*
X-2413000Y-3556000D03*
X+2984500Y-1270000D03*
X-1270000Y+444500D03*
X+3556000Y+0D03*
X+825500Y-4699000D03*
X-508000Y-1524000D03*
X+825500Y-317500D03*
X-635000Y-317500D03*
X+3683000Y+127000D03*
X-762000Y-1778000D03*
X+698500Y-4953000D03*
X-762000Y-190500D03*
X+825500Y-190500D03*
X+952500Y-4318000D03*
X+4000500Y-2032000D03*
X+4000500Y-1651000D03*
X+2984500Y-1524000D03*
X-825500Y-2032000D03*
X+1016000Y-1968500D03*
X+0Y-2413000D03*
X-698500Y-2286000D03*
X+3048000Y-2286000D03*
X-1651000Y+317500D03*
X+444500Y+63500D03*
X+2667000Y+444500D03*
X+444500Y+444500D03*
X+3937000Y-2540000D03*
X+3937000Y-635000D03*
X+2667000Y-635000D03*
X+571500Y-3873500D03*
X+3619500Y-3873500D03*
X-1016000Y-3302000D03*
X+3810000Y+1270000D03*
X+571500Y-3492500D03*
X+3429000Y-4953000D03*
X+381000Y-3619500D03*
X-2413000Y+1016000D03*
X-3556000Y+127000D03*
X-5016500Y+127000D03*
X-508000Y+190500D03*
X-5016500Y-127000D03*
X-4191000Y-317500D03*
X-5016500Y-317500D03*
X+952500Y-571500D03*
X+2159000Y-1143000D03*
D12*
X-2921000Y+4953000D03*
X-2667000Y+4953000D03*
X-2413000Y+4953000D03*
X-2159000Y+4953000D03*
X-1905000Y+4953000D03*
X-1651000Y+4953000D03*
X-1397000Y+4953000D03*
X-1143000Y+4953000D03*
X-889000Y+4953000D03*
X-635000Y+4953000D03*
X-381000Y+4953000D03*
X-127000Y+4953000D03*
X+127000Y+4953000D03*
X+381000Y+4953000D03*
X+635000Y+4953000D03*
X+889000Y+4953000D03*
X+1143000Y+4953000D03*
X+1397000Y+4953000D03*
X+1651000Y+4953000D03*
X+1905000Y+4953000D03*
X+2159000Y+4953000D03*
X+2413000Y+4953000D03*
X+2667000Y+4953000D03*
X+2921000Y+4953000D03*
X+3175000Y+4953000D03*
X+3429000Y+4953000D03*
X+3683000Y+4953000D03*
X+3937000Y+4953000D03*
X+4191000Y+4953000D03*
X+4445000Y+4953000D03*
X+4699000Y+4953000D03*
X+4953000Y+4953000D03*
X-4953000Y+4953000D03*
X-4699000Y+4953000D03*
X-4445000Y+4953000D03*
X-4191000Y+4953000D03*
X-3937000Y+4953000D03*
X-3683000Y+4953000D03*
X-3429000Y+4953000D03*
X-3175000Y+4953000D03*
X-4953000Y-5461000D03*
X-4699000Y-5461000D03*
X-4445000Y-5461000D03*
X-4191000Y-5461000D03*
X-3937000Y-5461000D03*
X-3683000Y-5461000D03*
X-3429000Y-5461000D03*
X-3175000Y-5461000D03*
X-2921000Y-5461000D03*
X-2667000Y-5461000D03*
X-2413000Y-5461000D03*
X-2159000Y-5461000D03*
X-1905000Y-5461000D03*
X-1651000Y-5461000D03*
X-1397000Y-5461000D03*
X-1143000Y-5461000D03*
X-889000Y-5461000D03*
X-635000Y-5461000D03*
X-381000Y-5461000D03*
X-127000Y-5461000D03*
X+127000Y-5461000D03*
X+381000Y-5461000D03*
X+635000Y-5461000D03*
X+889000Y-5461000D03*
X+1143000Y-5461000D03*
X+1397000Y-5461000D03*
X+1651000Y-5461000D03*
X+1905000Y-5461000D03*
X+2159000Y-5461000D03*
X+2413000Y-5461000D03*
X+2667000Y-5461000D03*
X+2921000Y-5461000D03*
X+3175000Y-5461000D03*
X+3429000Y-5461000D03*
X+3683000Y-5461000D03*
X+3937000Y-5461000D03*
X+4191000Y-5461000D03*
X+4445000Y-5461000D03*
X+4699000Y-5461000D03*
X+4953000Y-5461000D03*
X-5207000Y+4699000D03*
X-5207000Y+4445000D03*
X-5207000Y+4191000D03*
X-5207000Y+3937000D03*
X-5207000Y+3683000D03*
X-5207000Y+3429000D03*
X-5207000Y+3175000D03*
X-5207000Y+2921000D03*
X-5207000Y+2667000D03*
X-5207000Y+2413000D03*
X-5207000Y+2159000D03*
X-5207000Y+1905000D03*
X-5207000Y+1651000D03*
X-5207000Y+1397000D03*
X-5207000Y+1143000D03*
X-5207000Y+889000D03*
X-5207000Y+635000D03*
X-5207000Y+381000D03*
X-5207000Y+127000D03*
X-5207000Y-127000D03*
X-5207000Y-381000D03*
X-5207000Y-635000D03*
X-5207000Y-889000D03*
X-5207000Y-1143000D03*
X-5207000Y-1397000D03*
X-5207000Y-1651000D03*
X-5207000Y-1905000D03*
X-5207000Y-2159000D03*
X-5207000Y-2413000D03*
X-5207000Y-2667000D03*
X-5207000Y-2921000D03*
X-5207000Y-3175000D03*
X-5207000Y-3429000D03*
X-5207000Y-3683000D03*
X-5207000Y-3937000D03*
X-5207000Y-4191000D03*
X-5207000Y-4445000D03*
X-5207000Y-4699000D03*
X-5207000Y-4953000D03*
X-5207000Y-5207000D03*
X+5207000Y+4699000D03*
X+5207000Y+4445000D03*
X+5207000Y+4191000D03*
X+5207000Y+3937000D03*
X+5207000Y+3683000D03*
X+5207000Y+3429000D03*
X+5207000Y+3175000D03*
X+5207000Y+2921000D03*
X+5207000Y+2667000D03*
X+5207000Y+2413000D03*
X+5207000Y+2159000D03*
X+5207000Y+1905000D03*
X+5207000Y+1651000D03*
X+5207000Y+1397000D03*
X+5207000Y+1143000D03*
X+5207000Y+889000D03*
X+5207000Y+635000D03*
X+5207000Y+381000D03*
X+5207000Y+127000D03*
X+5207000Y-127000D03*
X+5207000Y-381000D03*
X+5207000Y-635000D03*
X+5207000Y-889000D03*
X+5207000Y-1143000D03*
X+5207000Y-1397000D03*
X+5207000Y-1651000D03*
X+5207000Y-1905000D03*
X+5207000Y-2159000D03*
X+5207000Y-2413000D03*
X+5207000Y-2667000D03*
X+5207000Y-2921000D03*
X+5207000Y-3175000D03*
X+5207000Y-3429000D03*
X+5207000Y-3683000D03*
X+5207000Y-3937000D03*
X+5207000Y-4191000D03*
X+5207000Y-4445000D03*
X+5207000Y-4699000D03*
X+5207000Y-4953000D03*
X+5207000Y-5207000D03*
D13*
X-4191000Y+3048000D03*
D14*
X-4191000Y+2794000D03*
X-4191000Y+2540000D03*
X-4191000Y+2286000D03*
X-4191000Y+2032000D03*
X-4191000Y+1778000D03*
X-4191000Y+1524000D03*
X-4191000Y+1270000D03*
X-4191000Y+1016000D03*
X-4191000Y+762000D03*
X-3429000Y+762000D03*
X-3429000Y+1016000D03*
X-3429000Y+1270000D03*
X-3429000Y+1524000D03*
X-3429000Y+1778000D03*
X-3429000Y+2032000D03*
X-3429000Y+2286000D03*
X-3429000Y+2540000D03*
X-3429000Y+2794000D03*
X-3429000Y+3048000D03*
D13*
X-1143000Y+3048000D03*
D14*
X-1143000Y+2794000D03*
X-1143000Y+2540000D03*
X-1143000Y+2286000D03*
X-1143000Y+2032000D03*
X-1143000Y+1778000D03*
X-1143000Y+1524000D03*
X-1143000Y+1270000D03*
X-1143000Y+1016000D03*
X-1143000Y+762000D03*
X-381000Y+762000D03*
X-381000Y+1016000D03*
X-381000Y+1270000D03*
X-381000Y+1524000D03*
X-381000Y+1778000D03*
X-381000Y+2032000D03*
X-381000Y+2286000D03*
X-381000Y+2540000D03*
X-381000Y+2794000D03*
X-381000Y+3048000D03*
D13*
X-2667000Y+3048000D03*
D14*
X-2667000Y+2794000D03*
X-2667000Y+2540000D03*
X-2667000Y+2286000D03*
X-2667000Y+2032000D03*
X-2667000Y+1778000D03*
X-2667000Y+1524000D03*
X-2667000Y+1270000D03*
X-2667000Y+1016000D03*
X-2667000Y+762000D03*
X-1905000Y+762000D03*
X-1905000Y+1016000D03*
X-1905000Y+1270000D03*
X-1905000Y+1524000D03*
X-1905000Y+1778000D03*
X-1905000Y+2032000D03*
X-1905000Y+2286000D03*
X-1905000Y+2540000D03*
X-1905000Y+2794000D03*
X-1905000Y+3048000D03*
D13*
X-2667000Y-1016000D03*
D14*
X-2667000Y-1270000D03*
X-2667000Y-1524000D03*
X-2667000Y-1778000D03*
X-2667000Y-2032000D03*
X-2667000Y-2286000D03*
X-2667000Y-2540000D03*
X-2667000Y-2794000D03*
X-2667000Y-3048000D03*
X-2667000Y-3302000D03*
X-1905000Y-3302000D03*
X-1905000Y-3048000D03*
X-1905000Y-2794000D03*
X-1905000Y-2540000D03*
X-1905000Y-2286000D03*
X-1905000Y-2032000D03*
X-1905000Y-1778000D03*
X-1905000Y-1524000D03*
X-1905000Y-1270000D03*
X-1905000Y-1016000D03*
D13*
X-4191000Y-1016000D03*
D14*
X-4191000Y-1270000D03*
X-4191000Y-1524000D03*
X-4191000Y-1778000D03*
X-4191000Y-2032000D03*
X-4191000Y-2286000D03*
X-4191000Y-2540000D03*
X-4191000Y-2794000D03*
X-4191000Y-3048000D03*
X-4191000Y-3302000D03*
X-3429000Y-3302000D03*
X-3429000Y-3048000D03*
X-3429000Y-2794000D03*
X-3429000Y-2540000D03*
X-3429000Y-2286000D03*
X-3429000Y-2032000D03*
X-3429000Y-1778000D03*
X-3429000Y-1524000D03*
X-3429000Y-1270000D03*
X-3429000Y-1016000D03*
D13*
X-1143000Y-1016000D03*
D14*
X-1143000Y-1270000D03*
X-1143000Y-1524000D03*
X-1143000Y-1778000D03*
X-1143000Y-2032000D03*
X-1143000Y-2286000D03*
X-1143000Y-2540000D03*
X-1143000Y-2794000D03*
X-1143000Y-3048000D03*
X-1143000Y-3302000D03*
X-381000Y-3302000D03*
X-381000Y-3048000D03*
X-381000Y-2794000D03*
X-381000Y-2540000D03*
X-381000Y-2286000D03*
X-381000Y-2032000D03*
X-381000Y-1778000D03*
X-381000Y-1524000D03*
X-381000Y-1270000D03*
X-381000Y-1016000D03*
D13*
X+1905000Y+3048000D03*
D14*
X+1905000Y+2794000D03*
X+1905000Y+2540000D03*
X+1905000Y+2286000D03*
X+1905000Y+2032000D03*
X+1905000Y+1778000D03*
X+1905000Y+1524000D03*
X+1905000Y+1270000D03*
X+1905000Y+1016000D03*
X+1905000Y+762000D03*
X+2667000Y+762000D03*
X+2667000Y+1016000D03*
X+2667000Y+1270000D03*
X+2667000Y+1524000D03*
X+2667000Y+1778000D03*
X+2667000Y+2032000D03*
X+2667000Y+2286000D03*
X+2667000Y+2540000D03*
X+2667000Y+2794000D03*
X+2667000Y+3048000D03*
D13*
X+381000Y+3048000D03*
D14*
X+381000Y+2794000D03*
X+381000Y+2540000D03*
X+381000Y+2286000D03*
X+381000Y+2032000D03*
X+381000Y+1778000D03*
X+381000Y+1524000D03*
X+381000Y+1270000D03*
X+381000Y+1016000D03*
X+381000Y+762000D03*
X+1143000Y+762000D03*
X+1143000Y+1016000D03*
X+1143000Y+1270000D03*
X+1143000Y+1524000D03*
X+1143000Y+1778000D03*
X+1143000Y+2032000D03*
X+1143000Y+2286000D03*
X+1143000Y+2540000D03*
X+1143000Y+2794000D03*
X+1143000Y+3048000D03*
D13*
X+3429000Y+3048000D03*
D14*
X+3429000Y+2794000D03*
X+3429000Y+2540000D03*
X+3429000Y+2286000D03*
X+3429000Y+2032000D03*
X+3429000Y+1778000D03*
X+3429000Y+1524000D03*
X+3429000Y+1270000D03*
X+3429000Y+1016000D03*
X+3429000Y+762000D03*
X+4191000Y+762000D03*
X+4191000Y+1016000D03*
X+4191000Y+1270000D03*
X+4191000Y+1524000D03*
X+4191000Y+1778000D03*
X+4191000Y+2032000D03*
X+4191000Y+2286000D03*
X+4191000Y+2540000D03*
X+4191000Y+2794000D03*
X+4191000Y+3048000D03*
D13*
X+1905000Y-1016000D03*
D14*
X+1905000Y-1270000D03*
X+1905000Y-1524000D03*
X+1905000Y-1778000D03*
X+1905000Y-2032000D03*
X+1905000Y-2286000D03*
X+1905000Y-2540000D03*
X+1905000Y-2794000D03*
X+1905000Y-3048000D03*
X+1905000Y-3302000D03*
X+2667000Y-3302000D03*
X+2667000Y-3048000D03*
X+2667000Y-2794000D03*
X+2667000Y-2540000D03*
X+2667000Y-2286000D03*
X+2667000Y-2032000D03*
X+2667000Y-1778000D03*
X+2667000Y-1524000D03*
X+2667000Y-1270000D03*
X+2667000Y-1016000D03*
D13*
X+381000Y-1016000D03*
D14*
X+381000Y-1270000D03*
X+381000Y-1524000D03*
X+381000Y-1778000D03*
X+381000Y-2032000D03*
X+381000Y-2286000D03*
X+381000Y-2540000D03*
X+381000Y-2794000D03*
X+381000Y-3048000D03*
X+381000Y-3302000D03*
X+1143000Y-3302000D03*
X+1143000Y-3048000D03*
X+1143000Y-2794000D03*
X+1143000Y-2540000D03*
X+1143000Y-2286000D03*
X+1143000Y-2032000D03*
X+1143000Y-1778000D03*
X+1143000Y-1524000D03*
X+1143000Y-1270000D03*
X+1143000Y-1016000D03*
D13*
X+3429000Y-1016000D03*
D14*
X+3429000Y-1270000D03*
X+3429000Y-1524000D03*
X+3429000Y-1778000D03*
X+3429000Y-2032000D03*
X+3429000Y-2286000D03*
X+3429000Y-2540000D03*
X+3429000Y-2794000D03*
X+3429000Y-3048000D03*
X+3429000Y-3302000D03*
X+4191000Y-3302000D03*
X+4191000Y-3048000D03*
X+4191000Y-2794000D03*
X+4191000Y-2540000D03*
X+4191000Y-2286000D03*
X+4191000Y-2032000D03*
X+4191000Y-1778000D03*
X+4191000Y-1524000D03*
X+4191000Y-1270000D03*
X+4191000Y-1016000D03*
D15*
X-5461000Y-5715000D02*
X+5461000Y-5715000D01*
X+5461000Y+5207000D01*
X-5461000Y+5207000D01*
X-5461000Y-5715000D01*
M02*
