G04 PROTEUS GERBER X2 FILE*
%TF.GenerationSoftware,Labcenter,Proteus,8.13-SP0-Build31525*%
%TF.CreationDate,2022-07-18T16:48:07+00:00*%
%TF.FileFunction,Copper,L1,Top*%
%TF.FilePolarity,Positive*%
%TF.Part,Single*%
%TF.SameCoordinates,{41493df7-e33e-458f-ac9c-d164e56dbbe3}*%
%FSLAX45Y45*%
%MOMM*%
G01*
%TA.AperFunction,Conductor*%
%ADD10C,0.254000*%
%TA.AperFunction,ViaPad*%
%ADD11C,0.762000*%
%TA.AperFunction,ComponentPad*%
%ADD12R,2.032000X2.032000*%
%TA.AperFunction,ComponentPad*%
%ADD13R,1.270000X1.270000*%
%ADD14C,1.270000*%
%TA.AperFunction,Profile*%
%ADD15C,0.203200*%
%TD.AperFunction*%
D10*
X-2667000Y+635000D02*
X-2296743Y+635000D01*
X-2233243Y+698500D01*
X-2233243Y+1195757D01*
X-2159000Y+1270000D01*
X-571500Y+1270000D01*
X-2667000Y+508000D02*
X-3429000Y+508000D01*
X-3428999Y+508000D01*
X-3429000Y+508001D01*
X-2476500Y+889000D02*
X-2476500Y+1333500D01*
X-2413000Y+1397000D01*
X-508000Y+1397000D01*
X-444500Y+1333500D01*
X-2667000Y+254000D02*
X-3429000Y+254000D01*
X-2667000Y-254000D02*
X-2984500Y-254000D01*
X-3048000Y-190500D01*
X-3048000Y+0D01*
X-2667000Y-1016000D02*
X-2540000Y-1143000D01*
X-1587500Y-1143000D01*
X-1524000Y-1206500D01*
X-1524000Y-1397000D01*
X-1460500Y-1460500D01*
X-762000Y-1460500D01*
X-444500Y-1143000D01*
X+63500Y-1143000D01*
X+317500Y-889000D01*
X+444500Y-889000D01*
X+508000Y-825500D01*
X+508000Y-190500D01*
X+444500Y-127000D01*
X+254000Y-127000D01*
X+127000Y-254000D01*
X-381000Y-254000D01*
X-127000Y-1968500D02*
X-127000Y-1841500D01*
X-190500Y-1778000D01*
X-2159000Y-1778000D01*
X-1905000Y-762000D02*
X-2540000Y-762000D01*
X-1460500Y-1016000D02*
X-1460500Y-1333500D01*
X-1397000Y-1397000D01*
X-825500Y-1397000D01*
X-762000Y-1333500D01*
X-1587500Y-889000D02*
X-1460500Y-889000D01*
X-1206500Y-1143000D01*
X-1079500Y-1143000D01*
X-952500Y-1016000D01*
X-381000Y-1016000D01*
X-1905000Y+0D02*
X-1587500Y+0D01*
X-1905000Y-1524000D02*
X-1651000Y-1524000D01*
X-1638300Y-1511300D01*
X-495300Y-1511300D01*
X-381000Y-1397000D01*
X-381000Y-1270000D01*
X-2032000Y-1524000D02*
X-1905000Y-1524000D01*
X-2032000Y-1524000D02*
X-3175000Y-1524000D01*
X-3429000Y-1270000D01*
X-2667000Y-2540000D02*
X-2540000Y-2667000D01*
X-1079500Y-2667000D01*
X-952499Y-2539999D01*
X-381000Y-2540000D01*
X-381000Y-2539999D01*
X-2667000Y-2540000D02*
X-3175000Y-2540000D01*
X-3175001Y-2539999D01*
X-3429000Y-2540000D01*
X-3429000Y-2539999D01*
X-2667000Y-2794000D02*
X-2159000Y-2794000D01*
X-2032000Y-2921000D01*
X-952500Y-2921000D01*
X-825500Y-2794000D01*
X-381000Y-2794000D01*
X-2667000Y-2794000D02*
X-3429000Y-2794000D01*
X-2667000Y-3302000D02*
X-2540000Y-3175000D01*
X-698500Y-3175000D01*
X-571500Y-3048000D01*
X-381000Y-3048000D01*
X-2667000Y-3302000D02*
X-2921000Y-3048000D01*
X-3429000Y-3048000D01*
X-2667000Y-4064000D02*
X-2159000Y-4064000D01*
X-2032000Y-3937000D01*
X-254000Y-3937000D01*
X-190500Y-3873500D01*
X-190500Y-3365500D01*
X-254000Y-3302000D01*
X-381000Y-3302000D01*
X-3111500Y-3302000D02*
X-3429000Y-3302000D01*
X-1905000Y-3810000D02*
X-2413000Y-3810000D01*
X-2540000Y-3937000D01*
X-3556000Y-3937000D01*
X-3619500Y-3873500D01*
X-3619500Y-3746500D01*
X-3429000Y-3556000D01*
X-1905000Y-3810000D02*
X-1778000Y-3683000D01*
X-508000Y-3683000D01*
X-381000Y-3556000D01*
X-1905000Y-3556000D02*
X-1778000Y-3429000D01*
X-317500Y-3429000D01*
X-254000Y-3492500D01*
X-254000Y-3683000D01*
X-381000Y-3810000D01*
X-1905000Y-3556000D02*
X-2032000Y-3556000D01*
X-2159000Y-3683000D01*
X-3302000Y-3683000D01*
X-3429000Y-3810000D01*
X-2032000Y-4191000D02*
X-508000Y-4191000D01*
X-381000Y-4064000D01*
X-2032000Y-4191000D02*
X-2286000Y-4191000D01*
X-2794000Y-4191000D01*
X-2921000Y-4064000D01*
X-3429000Y-4064000D01*
X-3429000Y-4318000D02*
X-3238500Y-4508500D01*
X-571500Y-4508500D01*
X-381000Y-4318000D01*
X+2032000Y+508000D02*
X+2159000Y+381000D01*
X+4063999Y+381000D01*
X+4191000Y+508000D01*
X+4191000Y+508001D01*
X+2032000Y+508000D02*
X+1397000Y+508000D01*
X+1396999Y+508001D01*
X+1143000Y+508000D01*
X+1143000Y+508001D01*
X+2032000Y+254000D02*
X+2159000Y+127000D01*
X+4064000Y+127000D01*
X+4191000Y+254000D01*
X+2032000Y+254000D02*
X+1143000Y+254000D01*
X+2032000Y-508000D02*
X+2222500Y-508000D01*
X+2349500Y-635000D01*
X+2857500Y-635000D01*
X+3365500Y-127000D01*
X+4064000Y-127000D01*
X+4191000Y+0D01*
X+2032000Y-254000D02*
X+1714500Y-254000D01*
X+1460500Y+0D01*
X+1143000Y+0D01*
X+2032000Y-762000D02*
X+1651000Y-762000D01*
X+1143000Y-254000D01*
X+2794000Y-762000D02*
X+3175000Y-762000D01*
X+3302000Y-635000D01*
X+4064000Y-635000D01*
X+4191000Y-508000D01*
X+2794000Y-762000D02*
X+2222500Y-762000D01*
X+2095500Y-635000D01*
X+1746873Y-635000D01*
X+1746873Y-546100D01*
X+1778000Y-514973D01*
X+1778000Y-508000D01*
X+2794000Y-508000D02*
X+2603500Y-508000D01*
X+2476500Y-381000D01*
X+1587500Y-381000D01*
X+1333500Y-127000D01*
X+1079500Y-127000D01*
X+1016000Y-190500D01*
X+1016000Y-635000D01*
X+1143000Y-762000D01*
X+2794000Y-508000D02*
X+2794000Y-254000D01*
X+2921000Y-1143000D02*
X+1270000Y-1143000D01*
X+1143000Y-1016000D01*
X+2921000Y-1143000D02*
X+4064000Y-1143000D01*
X+4191000Y-1016000D01*
X+3175000Y-1524000D02*
X+3937000Y-1524000D01*
X+4191000Y-1270000D01*
X+3048000Y-1524000D02*
X+1397000Y-1524000D01*
X+1143000Y-1270000D01*
X+3048000Y-1524000D02*
X+3175000Y-1524000D01*
X+1905000Y+3556000D02*
X+2032000Y+3429000D01*
X+4063999Y+3429000D01*
X+4191000Y+3556000D01*
X+4191000Y+3556001D01*
X+1905000Y+3556000D02*
X+1397000Y+3556000D01*
X+1396999Y+3556001D01*
X+1143000Y+3556000D01*
X+1143000Y+3556001D01*
X+1905000Y+3302000D02*
X+2032000Y+3175000D01*
X+4064000Y+3175000D01*
X+4191000Y+3302000D01*
X+1905000Y+3302000D02*
X+1143000Y+3302000D01*
X+1905000Y+2794000D02*
X+2032000Y+2921000D01*
X+4064000Y+2921000D01*
X+4191000Y+3048000D01*
X+1905000Y+2794000D02*
X+1778000Y+2921000D01*
X+1270000Y+2921000D01*
X+1143000Y+3048000D01*
X+1143000Y+2794000D02*
X+1270000Y+2667000D01*
X+3746500Y+2667000D01*
X+3873500Y+2794000D01*
X+4191000Y+2794000D01*
X+2667000Y+2286000D02*
X+2794000Y+2159000D01*
X+4254500Y+2159000D01*
X+4318000Y+2222500D01*
X+4318000Y+2413000D01*
X+4191000Y+2540000D01*
X+2667000Y+2286000D02*
X+2540000Y+2413000D01*
X+1270000Y+2413000D01*
X+1143000Y+2540000D01*
X+2667000Y+2540000D02*
X+3048000Y+2540000D01*
X+3175000Y+2413000D01*
X+4064000Y+2413000D01*
X+4191000Y+2286000D01*
X+2540000Y+2159000D02*
X+1270000Y+2159000D01*
X+1143000Y+2286000D01*
X+2540000Y+1905000D02*
X+3683000Y+1905000D01*
X+3810000Y+2032000D01*
X+4191000Y+2032000D01*
X+2540000Y+1905000D02*
X+1270000Y+1905000D01*
X+1143000Y+2032000D01*
X+2730500Y+1524000D02*
X+3937000Y+1524000D01*
X+4191000Y+1778000D01*
X+2730500Y+1524000D02*
X+1397000Y+1524000D01*
X+1143000Y+1778000D01*
X-2667000Y+3556000D02*
X-3175000Y+3556000D01*
X-3175001Y+3556001D01*
X-3429000Y+3556000D01*
X-3429000Y+3556001D01*
X-2667000Y+3302000D02*
X-3429000Y+3302000D01*
X-2667000Y+2794000D02*
X-3048000Y+2794000D01*
X-3302000Y+3048000D01*
X-3429000Y+3048000D01*
X+508000Y+2667000D02*
X+0Y+2667000D01*
X-127000Y+2794000D01*
X-381000Y+2794000D01*
X-4445000Y+4318000D02*
X+381000Y+4318000D01*
X+508000Y+4191000D01*
X-3429000Y+2794000D02*
X-4000500Y+2794000D01*
X-1905000Y+2540000D02*
X-1587500Y+2540000D01*
X-254000Y+3048000D02*
X+127000Y+3048000D01*
X+254000Y+2921000D01*
X+711200Y+2921000D01*
X+774700Y+2857500D01*
X+774700Y+1574800D01*
X+603250Y+1574800D01*
X+603250Y+2063750D01*
X+508000Y+2159000D01*
X-127000Y+2159000D01*
X-254000Y+2286000D01*
X-2349500Y+1905000D02*
X-508000Y+1905000D01*
X-381000Y+1778000D01*
X-2349500Y+1905000D02*
X-2921000Y+1905000D01*
X-3048000Y+1778000D01*
X-3429000Y+1778000D01*
X-2349500Y+3048000D02*
X-2349500Y+2667000D01*
X-2222500Y+2540000D01*
X-4191000Y+3810000D02*
X-4318000Y+3937000D01*
X-4318000Y+4191000D01*
X-4254500Y+4254500D01*
X-63500Y+4254500D01*
X+381000Y+3810000D01*
X-4191000Y+254000D02*
X-4064000Y+127000D01*
X+254000Y+127000D01*
X+381000Y+254000D01*
X-4191000Y-2794000D02*
X-4064000Y-2921000D01*
X-2413000Y-2921000D01*
X-4191000Y+0D02*
X-4064000Y-127000D01*
X-3302000Y-127000D01*
X-3098800Y+76200D01*
X-2950938Y+76200D01*
X-2747738Y-127000D01*
X-63500Y-127000D01*
X+63500Y+0D01*
X+381000Y+0D01*
X-4191000Y-3048000D02*
X-4064000Y-3175000D01*
X-3048000Y-3175000D01*
X-2794000Y-3429000D01*
X-2159000Y-3429000D01*
X-4191000Y-254000D02*
X-4064000Y-381000D01*
X+254000Y-381000D01*
X+381000Y-254000D01*
X-4191000Y-3429000D02*
X-4064000Y-3429000D01*
X-4000500Y-3492500D01*
X-4000500Y-3873500D01*
X-4064000Y-3937000D01*
X-4254500Y-3937000D01*
X-4318000Y-4000500D01*
X-4318000Y-4953000D01*
X-4254500Y-5016500D01*
X-1905000Y-5016500D01*
X-4191000Y-3556000D02*
X-4381500Y-3556000D01*
X-4445000Y-3619500D01*
X-4445000Y-5143500D01*
X-4381500Y-5207000D01*
X-1714500Y-5207000D01*
X-1651000Y-5270500D01*
X-1651000Y-5461000D01*
X-4191000Y-508000D02*
X-3873500Y-508000D01*
X-3746500Y-635000D01*
X+254000Y-635000D01*
X+381000Y-508000D01*
X-4191000Y-3810000D02*
X-4318000Y-3810000D01*
X-4381500Y-3873500D01*
X-4381500Y-5080000D01*
X-4318000Y-5143500D01*
X-1460500Y-5143500D01*
X-1397000Y-5207000D01*
X-1397000Y-5461000D01*
X-3302000Y-889000D02*
X-1841500Y-889000D01*
X-1714500Y-762000D01*
X-1333500Y-762000D01*
X-1206500Y-889000D01*
X-190500Y-889000D01*
X-63500Y-762000D01*
X+381000Y-762000D01*
X-3302000Y-889000D02*
X-4064000Y-889000D01*
X-4191000Y-762000D01*
X-3937000Y-2667000D02*
X-3175000Y-2667000D01*
X-4191000Y-4064000D02*
X-4064000Y-4191000D01*
X-4064000Y-4826000D01*
X-4000500Y-4889500D01*
X-1206500Y-4889500D01*
X-1143000Y-4953000D01*
X-1143000Y-5461000D01*
X-3048000Y-1651000D02*
X-4254500Y-1651000D01*
X-4318000Y-1587500D01*
X-4318000Y-1143000D01*
X-4191000Y-1016000D01*
X-3048000Y-1651000D02*
X-2032000Y-1651000D01*
X-1968500Y-1714500D01*
X+444500Y-1714500D01*
X+508000Y-1651000D01*
X+508000Y-1143000D01*
X+381000Y-1016000D01*
X-3937000Y-4064000D02*
X-3937000Y-3492500D01*
X-3873500Y-3429000D01*
X-3302000Y-3429000D01*
X-4191000Y+3556000D02*
X-4064000Y+3683000D01*
X+254000Y+3683000D01*
X+381000Y+3556000D01*
X-4191000Y+3302000D02*
X-4064000Y+3429000D01*
X+254000Y+3429000D01*
X+381000Y+3302000D01*
X-4191000Y+3048000D02*
X-4064000Y+3175000D01*
X+254000Y+3175000D01*
X+381000Y+3048000D01*
X-2222500Y+2667000D02*
X-1968500Y+2921000D01*
X-1079500Y+2921000D01*
X-1016000Y+2984500D01*
X-1016000Y+3060700D01*
X-952500Y+3124200D01*
X-825500Y+3124200D01*
X-622300Y+2921000D01*
X-63500Y+2921000D01*
X+63500Y+2794000D01*
X+381000Y+2794000D01*
X-3302000Y+2032000D02*
X-2921000Y+2032000D01*
X-3873500Y+1333500D02*
X-3238500Y+1333500D01*
X-4191000Y+2540000D02*
X-3683000Y+2540000D01*
X-3556000Y+2667000D01*
X-2540000Y+2667000D01*
X-2336800Y+2463800D01*
X-2171700Y+2463800D01*
X-1968500Y+2667000D01*
X-190500Y+2667000D01*
X-63500Y+2540000D01*
X+381000Y+2540000D01*
X-4191000Y+2286000D02*
X-4064000Y+2413000D01*
X-127000Y+2413000D01*
X+0Y+2286000D01*
X+381000Y+2286000D01*
X-3429000Y-4762500D02*
X-3810000Y-4762500D01*
X-4191000Y+2032000D02*
X-4064000Y+2159000D01*
X-317500Y+2159000D01*
X-190500Y+2032000D01*
X+381000Y+2032000D01*
X-3937000Y-2540000D02*
X-4064000Y-2413000D01*
X-4572000Y-2413000D01*
X-4635500Y-2476500D01*
X-4635500Y-5257800D01*
X-4572000Y-5321300D01*
X-3175000Y-5321300D01*
X-3175000Y-5461000D01*
X-4318000Y+762000D02*
X-4318000Y-571500D01*
X-4254500Y-635000D01*
X+762000Y-4762500D02*
X-2921000Y-4762500D01*
X+825500Y+762000D02*
X+825500Y-1651000D01*
X-4191000Y-2286000D02*
X-3683000Y-2286000D01*
X-3556000Y-2413000D01*
X-4508500Y-2730500D02*
X-4508500Y-5207000D01*
X-4445000Y-5270500D01*
X-2667000Y-5270500D01*
X-2667000Y-5461000D01*
X-4508500Y-2730500D02*
X-4508500Y-2540000D01*
X-4191000Y+508000D02*
X-4064000Y+381000D01*
X-254000Y+381000D01*
X-127000Y+508000D01*
X+381000Y+508000D01*
X-4508500Y-2540000D02*
X-4191000Y-2540000D01*
X+2222500Y+635000D02*
X+1587500Y+635000D01*
X+1333500Y+889000D01*
X+127000Y+889000D01*
X-1143000Y+762000D02*
X-1016000Y+889000D01*
X+127000Y+889000D01*
X+2222500Y+635000D02*
X+3302000Y+635000D01*
X+3429000Y+762000D01*
X+0Y+3937000D02*
X-1016000Y+3937000D01*
X-1143000Y+3810000D01*
X-1143000Y+762000D02*
X-1460500Y+762000D01*
X-1143000Y-2286000D02*
X-1460500Y-2286000D01*
X-1143000Y+508000D02*
X-1270000Y+635000D01*
X-1968500Y+635000D01*
X-2032000Y+698500D01*
X-2032000Y+1143000D01*
X-1968500Y+1206500D01*
X-762000Y+1206500D01*
X-698500Y+1143000D01*
X+0Y+1143000D01*
X+127000Y+1270000D01*
X+254000Y+1270000D01*
X+3429000Y+1270000D02*
X+3873500Y+1270000D01*
X+3429000Y+1270000D02*
X+254000Y+1270000D01*
X-762000Y+635000D02*
X+635000Y+635000D01*
X-508000Y-2667000D02*
X-635000Y-2667000D01*
X-889000Y-2667000D01*
X-1016000Y-2794000D01*
X-1143000Y-2794000D01*
X+635000Y+508000D02*
X+762000Y+381000D01*
X+762000Y-1397000D01*
X+635000Y-1524000D01*
X-508000Y-2667000D02*
X+317500Y-2667000D01*
X-762000Y+254000D02*
X-1143000Y+254000D01*
X+635000Y+508000D02*
X+635000Y+635000D01*
X-1333500Y+3810000D02*
X-1651000Y+3810000D01*
X+1968500Y+4699000D02*
X+1956388Y+4686888D01*
X+1956388Y+4635500D01*
X-1333500Y+4635500D01*
X+3302000Y+0D02*
X+2984500Y+0D01*
X+2857500Y-127000D01*
X+1888227Y-127000D01*
X+1824727Y-63500D01*
X+1824727Y+110227D01*
X+1841500Y+127000D01*
X-508000Y-2921000D02*
X-635000Y-2921000D01*
X-762000Y-3048000D01*
X-1143000Y-3048000D01*
X-508000Y+2794000D02*
X-635000Y+2794000D01*
X-889000Y+3048000D01*
X-508000Y+2032000D02*
X-1016000Y+2032000D01*
X-317500Y+1333500D02*
X-254000Y+1397000D01*
X+3429000Y+1397000D01*
X+190500Y-3175000D02*
X-508000Y-3175000D01*
X-635000Y-3302000D01*
X-1143000Y-3302000D01*
X-63500Y-1460500D02*
X+190500Y-1460500D01*
X-571500Y-254000D02*
X-1143000Y-254000D01*
X+4318000Y-444500D02*
X+4318000Y-2476500D01*
X+4254500Y-2540000D01*
X+508000Y-2540000D01*
X+4318000Y-444500D02*
X+4508500Y-254000D01*
X+4508500Y+2603500D01*
X+4445000Y+2667000D01*
X+4064000Y+2667000D01*
X+3937000Y+2540000D01*
X+3429000Y+2540000D01*
X+3429000Y-508000D02*
X+3556000Y-381000D01*
X+4254500Y-381000D01*
X+4318000Y-444500D01*
X+381000Y-5461000D02*
X+381000Y-5207000D01*
X+317500Y-5143500D01*
X-762000Y-5143500D01*
X+698500Y+1651000D02*
X+698500Y+2349500D01*
X+635000Y+2413000D01*
X+254000Y+2413000D01*
X+190500Y+2476500D01*
X-190500Y+2476500D01*
X-254000Y+2540000D01*
X+3556000Y+1651000D02*
X+3505200Y+1600200D01*
X+2476500Y+1600200D01*
X+2463800Y+1587500D01*
X+1406795Y+1587500D01*
X+1406795Y+1641205D01*
X+1397000Y+1651000D01*
X+508000Y-2540000D02*
X-254000Y-2540000D01*
X-698500Y-508000D02*
X-1143000Y-508000D01*
X+635000Y-127000D02*
X+635000Y+317500D01*
X+571500Y+381000D01*
X+127000Y+381000D01*
X+0Y+254000D01*
X-254000Y+254000D01*
X+0Y-4953000D02*
X+571500Y-4953000D01*
X+635000Y-5016500D01*
X+635000Y-5461000D01*
X+3429000Y-762000D02*
X+3873500Y-762000D01*
X-889000Y-762000D02*
X-1143000Y-762000D01*
X-508000Y-3810000D02*
X-1143000Y-3810000D01*
X+3429000Y-1016000D02*
X+3302000Y-889000D01*
X+1016000Y-889000D01*
X+952500Y-952500D01*
X+952500Y-2349500D01*
X+889000Y-2413000D01*
X-1460500Y-2413000D01*
X-1016000Y-4635500D02*
X+825500Y-4635500D01*
X+889000Y-4699000D01*
X+889000Y-5461000D01*
X-1143000Y-1587500D02*
X-1460500Y-1587500D01*
X+381000Y-1270000D02*
X+381000Y-1524000D01*
X+317500Y-1587500D01*
X-1143000Y-1587500D01*
X-1143000Y+1778000D02*
X-1016000Y+1651000D01*
X+0Y+1651000D01*
X+127000Y+1778000D01*
X+381000Y+1778000D01*
X-2667000Y+1778000D02*
X-2794000Y+1651000D01*
X-4064000Y+1651000D01*
X-4191000Y+1778000D01*
X-2667000Y-4318000D02*
X-3111500Y-4318000D01*
X-3238500Y-4191000D01*
X-3810000Y-4191000D01*
X-3937000Y-4318000D01*
X+3429000Y+1778000D02*
X+3873500Y+1778000D01*
X+4000500Y+1905000D01*
X+4254500Y+1905000D01*
X+4318000Y+1841500D01*
X+4318000Y+889000D01*
X-2667000Y-1270000D02*
X-2540000Y-1397000D01*
X-1651000Y-1397000D01*
X-3556000Y-1143000D02*
X-2921000Y-1143000D01*
X-3556000Y-1143000D02*
X-4064000Y-1143000D01*
X-4191000Y-1270000D01*
X+2032000Y-1270000D02*
X+2159000Y-1397000D01*
X+2413000Y-1397000D01*
X-2667000Y+1778000D02*
X-2540000Y+1651000D01*
X-1270000Y+1651000D01*
X-1143000Y+1778000D01*
X+1905000Y+1778000D02*
X+2032000Y+1651000D01*
X+3302000Y+1651000D01*
X+3429000Y+1778000D01*
X+2413000Y-1397000D02*
X+3302000Y-1397000D01*
X+3429000Y-1270000D01*
X-2667000Y-1270000D02*
X-2794000Y-1143000D01*
X-2921000Y-1143000D01*
X-2667000Y-4318000D02*
X-2540000Y-4445000D01*
X-1270000Y-4445000D01*
X-1143000Y-4318000D01*
X-4191000Y+3937000D02*
X-4064000Y+3937000D01*
X-3937001Y+3810001D01*
X-3429000Y+3810000D01*
X-3429000Y+3810001D01*
X-4762500Y+3937000D02*
X-4762500Y+2476500D01*
X-4826000Y+2413000D01*
X-5207000Y+2413000D01*
X-4572000Y+4318000D02*
X-4572000Y+4191000D01*
X-4635500Y+4127500D01*
X-4635500Y+2222500D01*
X-4699000Y+2159000D01*
X-5207000Y+2159000D01*
X-3048000Y+3937000D02*
X-3175000Y+3937000D01*
X-4191000Y+4064000D02*
X-3683000Y+4064000D01*
X-3556000Y+3937000D01*
X-3175000Y+3937000D01*
X-2667000Y+4064000D02*
X-2921000Y+4064000D01*
X-3048000Y+3937000D01*
X-4508500Y+4064000D02*
X-4508500Y+1968500D01*
X-4572000Y+1905000D01*
X-5207000Y+1905000D01*
X-2667000Y+4064000D02*
X-2540000Y+3937000D01*
X-1778000Y+3937000D01*
X-1270000Y+3937000D01*
X-1143000Y+4064000D01*
X-5207000Y+1651000D02*
X-4699000Y+1651000D01*
X-4572000Y+1524000D01*
X+825500Y+1524000D01*
X+825500Y+3746500D01*
X+889001Y+3810001D01*
X+1143000Y+3810000D01*
X+1143000Y+3810001D01*
X-5207000Y+1397000D02*
X-4064000Y+1397000D01*
X-4000500Y+1460500D01*
X+889000Y+1460500D01*
X+889000Y+3619500D01*
X+952500Y+3683000D01*
X+4063999Y+3683000D01*
X+4191000Y+3810000D01*
X+4191000Y+3810001D01*
X+2540000Y+3937000D02*
X+2857500Y+3937000D01*
X+1905000Y+4064000D02*
X+1778000Y+3937000D01*
X+508000Y+3937000D01*
X+381000Y+4064000D01*
X-4508500Y+1143000D02*
X-5207000Y+1143000D01*
X+254000Y+1651000D02*
X+190500Y+1587500D01*
X-4445000Y+1587500D01*
X-4508500Y+1651000D01*
X+1905000Y+4064000D02*
X+2032000Y+3937000D01*
X+2286000Y+3937000D01*
X+2413000Y+3937000D02*
X+2286000Y+3937000D01*
X+2540000Y+3937000D02*
X+2413000Y+3937000D01*
X+2857500Y+3937000D02*
X+3302000Y+3937000D01*
X+3429000Y+4064000D01*
X-4889500Y+4635500D02*
X-3619500Y+4635500D01*
X-190500Y+1841500D02*
X-127000Y+1905000D01*
X+508000Y+1905000D01*
X+508000Y+2032000D01*
X-2667000Y+1016000D02*
X-2794000Y+1143000D01*
X-4064000Y+1143000D01*
X-4191000Y+1016000D01*
X-1651000Y+889000D02*
X-1270000Y+889000D01*
X-1143000Y+1016000D01*
X-3429000Y+4635500D02*
X-3556000Y+4762500D01*
X-4953000Y+4762500D01*
X-5016500Y+4699000D01*
X-5016500Y+3937000D01*
X-5207000Y+3937000D01*
X-3302000Y+1905000D02*
X-4254500Y+1905000D01*
X-4318000Y+1968500D01*
X-4318000Y+2603500D01*
X-4254500Y+2667000D01*
X-3746500Y+2667000D01*
X-508000Y-2286000D02*
X-508000Y-2159000D01*
X-317500Y-2159000D01*
X-254000Y-2095500D01*
X-254000Y-1917700D01*
X-317500Y-1854200D01*
X-3492500Y-1854200D01*
X-3543300Y-1905000D01*
X-4953000Y-1905000D01*
X-4191000Y-1778000D02*
X-4953000Y-1778000D01*
X-5016500Y-1714500D01*
X-5016500Y+698500D01*
X-2667000Y-2032000D02*
X-2794000Y-2159000D01*
X-4064000Y-2159000D01*
X-4191000Y-2032000D01*
X-1778000Y-2159000D02*
X-1524000Y-2159000D01*
X-2667000Y-2032000D02*
X-2540000Y-2159000D01*
X-1778000Y-2159000D01*
X-1524000Y-2159000D02*
X-1270000Y-2159000D01*
X-1143000Y-2032000D01*
X+2159000Y+4572000D02*
X+2095500Y+4508500D01*
X-4889500Y+4508500D01*
X-4953000Y+4445000D01*
X-4953000Y+3238500D01*
X-5016500Y+3175000D01*
X-5207000Y+3175000D01*
X+4000500Y+4445000D02*
X-4826000Y+4445000D01*
X-4889500Y+4381500D01*
X-4889500Y+2984500D01*
X-4953000Y+2921000D01*
X-5207000Y+2921000D01*
X+2032000Y+4318000D02*
X+1955800Y+4394200D01*
X-4762500Y+4394200D01*
X-4838700Y+4318000D01*
X-4838700Y+2781300D01*
X-4953000Y+2667000D01*
X-5207000Y+2667000D01*
X+2540000Y+889000D02*
X+2667000Y+889000D01*
X+2032000Y+1016000D02*
X+2159000Y+889000D01*
X+2540000Y+889000D01*
X+2667000Y+889000D02*
X+3302000Y+889000D01*
X+3429000Y+1016000D01*
X+4191000Y-2730500D02*
X+4445000Y-2730500D01*
X+2794000Y+1016000D02*
X+2667000Y+1143000D01*
X+1270000Y+1143000D01*
X+1143000Y+1016000D01*
X-381000Y+1016000D02*
X+127000Y+1016000D01*
X+254000Y+1143000D01*
X+825500Y+1143000D01*
X+952500Y+1016000D01*
X+1143000Y+1016000D01*
X-1905000Y+1016000D02*
X-1778000Y+1143000D01*
X-889000Y+1143000D01*
X-762000Y+1016000D01*
X-381000Y+1016000D01*
X-1905000Y+4064000D02*
X-1778000Y+4191000D01*
X-508000Y+4191000D01*
X-381000Y+4064000D01*
X-1905000Y+4064000D02*
X-2032000Y+4064000D01*
X-2159000Y+4191000D01*
X-3302000Y+4191000D01*
X-3429000Y+4064000D01*
X-1905000Y-2032000D02*
X-2032000Y-1905000D01*
X-3302000Y-1905000D01*
X-3429000Y-2032000D01*
X+2667000Y+4064000D02*
X+2794000Y+4191000D01*
X+4064000Y+4191000D01*
X+4191000Y+4064000D01*
X-1905000Y-2032000D02*
X-1524000Y-2032000D01*
X-1397000Y-1905000D01*
X-508000Y-1905000D01*
X-381000Y-2032000D01*
X+2667000Y+4064000D02*
X+2159000Y+4064000D01*
X+2032000Y+4191000D01*
X+1270000Y+4191000D01*
X+1143000Y+4064000D01*
X+2794000Y+1016000D02*
X+2984500Y+1016000D01*
X+3111500Y+1143000D01*
X+4064000Y+1143000D01*
X+4191000Y+1016000D01*
X-2921000Y+1016000D02*
X-3429000Y+1016000D01*
D11*
X-571500Y+1270000D03*
X-2667000Y+635000D03*
X-444500Y+1333500D03*
X-2476500Y+889000D03*
X-3048000Y+0D03*
X-2159000Y-1778000D03*
X-127000Y-1968500D03*
X-2540000Y-762000D03*
X-762000Y-1333500D03*
X-1460500Y-1016000D03*
X-1587500Y-889000D03*
X-1587500Y+0D03*
X-1905000Y-1524000D03*
X-3111500Y-3302000D03*
X-2286000Y-4191000D03*
X+1778000Y-508000D03*
X+2921000Y-1143000D03*
X+3175000Y-1524000D03*
X+2540000Y+2159000D03*
X+2540000Y+1905000D03*
X+2730500Y+1524000D03*
X+508000Y+2667000D03*
X+508000Y+4191000D03*
X-4445000Y+4318000D03*
X-4000500Y+2794000D03*
X-1587500Y+2540000D03*
X-254000Y+2286000D03*
X-254000Y+3048000D03*
X-2349500Y+1905000D03*
X-2222500Y+2540000D03*
X-2349500Y+3048000D03*
X-2413000Y-2921000D03*
X-2159000Y-3429000D03*
X-1905000Y-5016500D03*
X-4191000Y-3429000D03*
X-3175000Y-2667000D03*
X-3937000Y-2667000D03*
X-3302000Y-889000D03*
X-3048000Y-1651000D03*
X-3302000Y-3429000D03*
X-3937000Y-4064000D03*
X-2222500Y+2667000D03*
X-2921000Y+2032000D03*
X-3302000Y+2032000D03*
X-3238500Y+1333500D03*
X-3873500Y+1333500D03*
X-3810000Y-4762500D03*
X-3429000Y-4762500D03*
X-3937000Y-2540000D03*
X-4254500Y-635000D03*
X-4318000Y+762000D03*
X-2921000Y-4762500D03*
X+762000Y-4762500D03*
X+825500Y-1651000D03*
X+825500Y+762000D03*
X-3556000Y-2413000D03*
X-4508500Y-2540000D03*
X+0Y+3937000D03*
X-1460500Y+762000D03*
X-1460500Y-2286000D03*
X+127000Y+889000D03*
X+2222500Y+635000D03*
X+3873500Y+1270000D03*
X+254000Y+1270000D03*
X+3429000Y+1270000D03*
X+635000Y+635000D03*
X-635000Y-2667000D03*
X+635000Y-1524000D03*
X+317500Y-2667000D03*
X-762000Y+254000D03*
X-762000Y+635000D03*
X-1651000Y+3810000D03*
X-1333500Y+3810000D03*
X-1333500Y+4635500D03*
X+1968500Y+4699000D03*
X+1841500Y+127000D03*
X+3302000Y+0D03*
X-889000Y+3048000D03*
X-508000Y+2794000D03*
X-1016000Y+2032000D03*
X-508000Y+2032000D03*
X+3429000Y+1397000D03*
X-317500Y+1333500D03*
X-508000Y-2921000D03*
X+190500Y-3175000D03*
X+190500Y-1460500D03*
X-63500Y-1460500D03*
X-571500Y-254000D03*
X-762000Y-5143500D03*
X-254000Y+2540000D03*
X+698500Y+1651000D03*
X+1397000Y+1651000D03*
X+3556000Y+1651000D03*
X-254000Y-2540000D03*
X-698500Y-508000D03*
X+508000Y-2540000D03*
X-254000Y+254000D03*
X+0Y-4953000D03*
X+3873500Y-762000D03*
X-889000Y-762000D03*
X-508000Y-3810000D03*
X+635000Y-127000D03*
X-1460500Y-2413000D03*
X-1016000Y-4635500D03*
X-1460500Y-1587500D03*
X-3937000Y-4318000D03*
X+4318000Y+889000D03*
X-1651000Y-1397000D03*
X-1143000Y-1587500D03*
X-4191000Y+3937000D03*
X-4762500Y+3937000D03*
X-4572000Y+4318000D03*
X-3175000Y+3937000D03*
X-4508500Y+4064000D03*
X+2857500Y+3937000D03*
X-4508500Y+1143000D03*
X-4508500Y+1651000D03*
X+254000Y+1651000D03*
X-3619500Y+4635500D03*
X-4889500Y+4635500D03*
X+508000Y+2032000D03*
X-190500Y+1841500D03*
X-1651000Y+889000D03*
X-3429000Y+4635500D03*
X-3746500Y+2667000D03*
X-3302000Y+1905000D03*
X-4953000Y-1905000D03*
X-508000Y-2286000D03*
X-5016500Y+698500D03*
X-4191000Y-1778000D03*
X-1778000Y-2159000D03*
X+2159000Y+4572000D03*
X+4000500Y+4445000D03*
X+2032000Y+4318000D03*
X+2540000Y+889000D03*
X+4445000Y-2730500D03*
X+4191000Y-2730500D03*
X-2921000Y+1016000D03*
D12*
X-2921000Y+4953000D03*
X-2667000Y+4953000D03*
X-2413000Y+4953000D03*
X-2159000Y+4953000D03*
X-1905000Y+4953000D03*
X-1651000Y+4953000D03*
X-1397000Y+4953000D03*
X-1143000Y+4953000D03*
X-889000Y+4953000D03*
X-635000Y+4953000D03*
X-381000Y+4953000D03*
X-127000Y+4953000D03*
X+127000Y+4953000D03*
X+381000Y+4953000D03*
X+635000Y+4953000D03*
X+889000Y+4953000D03*
X+1143000Y+4953000D03*
X+1397000Y+4953000D03*
X+1651000Y+4953000D03*
X+1905000Y+4953000D03*
X+2159000Y+4953000D03*
X+2413000Y+4953000D03*
X+2667000Y+4953000D03*
X+2921000Y+4953000D03*
X+3175000Y+4953000D03*
X+3429000Y+4953000D03*
X+3683000Y+4953000D03*
X+3937000Y+4953000D03*
X+4191000Y+4953000D03*
X+4445000Y+4953000D03*
X+4699000Y+4953000D03*
X+4953000Y+4953000D03*
X-4953000Y+4953000D03*
X-4699000Y+4953000D03*
X-4445000Y+4953000D03*
X-4191000Y+4953000D03*
X-3937000Y+4953000D03*
X-3683000Y+4953000D03*
X-3429000Y+4953000D03*
X-3175000Y+4953000D03*
X-4953000Y-5461000D03*
X-4699000Y-5461000D03*
X-4445000Y-5461000D03*
X-4191000Y-5461000D03*
X-3937000Y-5461000D03*
X-3683000Y-5461000D03*
X-3429000Y-5461000D03*
X-3175000Y-5461000D03*
X-2921000Y-5461000D03*
X-2667000Y-5461000D03*
X-2413000Y-5461000D03*
X-2159000Y-5461000D03*
X-1905000Y-5461000D03*
X-1651000Y-5461000D03*
X-1397000Y-5461000D03*
X-1143000Y-5461000D03*
X-889000Y-5461000D03*
X-635000Y-5461000D03*
X-381000Y-5461000D03*
X-127000Y-5461000D03*
X+127000Y-5461000D03*
X+381000Y-5461000D03*
X+635000Y-5461000D03*
X+889000Y-5461000D03*
X+1143000Y-5461000D03*
X+1397000Y-5461000D03*
X+1651000Y-5461000D03*
X+1905000Y-5461000D03*
X+2159000Y-5461000D03*
X+2413000Y-5461000D03*
X+2667000Y-5461000D03*
X+2921000Y-5461000D03*
X+3175000Y-5461000D03*
X+3429000Y-5461000D03*
X+3683000Y-5461000D03*
X+3937000Y-5461000D03*
X+4191000Y-5461000D03*
X+4445000Y-5461000D03*
X+4699000Y-5461000D03*
X+4953000Y-5461000D03*
X-5207000Y+4699000D03*
X-5207000Y+4445000D03*
X-5207000Y+4191000D03*
X-5207000Y+3937000D03*
X-5207000Y+3683000D03*
X-5207000Y+3429000D03*
X-5207000Y+3175000D03*
X-5207000Y+2921000D03*
X-5207000Y+2667000D03*
X-5207000Y+2413000D03*
X-5207000Y+2159000D03*
X-5207000Y+1905000D03*
X-5207000Y+1651000D03*
X-5207000Y+1397000D03*
X-5207000Y+1143000D03*
X-5207000Y+889000D03*
X-5207000Y+635000D03*
X-5207000Y+381000D03*
X-5207000Y+127000D03*
X-5207000Y-127000D03*
X-5207000Y-381000D03*
X-5207000Y-635000D03*
X-5207000Y-889000D03*
X-5207000Y-1143000D03*
X-5207000Y-1397000D03*
X-5207000Y-1651000D03*
X-5207000Y-1905000D03*
X-5207000Y-2159000D03*
X-5207000Y-2413000D03*
X-5207000Y-2667000D03*
X-5207000Y-2921000D03*
X-5207000Y-3175000D03*
X-5207000Y-3429000D03*
X-5207000Y-3683000D03*
X-5207000Y-3937000D03*
X-5207000Y-4191000D03*
X-5207000Y-4445000D03*
X-5207000Y-4699000D03*
X-5207000Y-4953000D03*
X-5207000Y-5207000D03*
X+5207000Y+4699000D03*
X+5207000Y+4445000D03*
X+5207000Y+4191000D03*
X+5207000Y+3937000D03*
X+5207000Y+3683000D03*
X+5207000Y+3429000D03*
X+5207000Y+3175000D03*
X+5207000Y+2921000D03*
X+5207000Y+2667000D03*
X+5207000Y+2413000D03*
X+5207000Y+2159000D03*
X+5207000Y+1905000D03*
X+5207000Y+1651000D03*
X+5207000Y+1397000D03*
X+5207000Y+1143000D03*
X+5207000Y+889000D03*
X+5207000Y+635000D03*
X+5207000Y+381000D03*
X+5207000Y+127000D03*
X+5207000Y-127000D03*
X+5207000Y-381000D03*
X+5207000Y-635000D03*
X+5207000Y-889000D03*
X+5207000Y-1143000D03*
X+5207000Y-1397000D03*
X+5207000Y-1651000D03*
X+5207000Y-1905000D03*
X+5207000Y-2159000D03*
X+5207000Y-2413000D03*
X+5207000Y-2667000D03*
X+5207000Y-2921000D03*
X+5207000Y-3175000D03*
X+5207000Y-3429000D03*
X+5207000Y-3683000D03*
X+5207000Y-3937000D03*
X+5207000Y-4191000D03*
X+5207000Y-4445000D03*
X+5207000Y-4699000D03*
X+5207000Y-4953000D03*
X+5207000Y-5207000D03*
D13*
X-2667000Y+4064000D03*
D14*
X-2667000Y+3810000D03*
X-2667000Y+3556000D03*
X-2667000Y+3302000D03*
X-2667000Y+3048000D03*
X-2667000Y+2794000D03*
X-2667000Y+2540000D03*
X-2667000Y+2286000D03*
X-2667000Y+2032000D03*
X-2667000Y+1778000D03*
X-1905000Y+1778000D03*
X-1905000Y+2032000D03*
X-1905000Y+2286000D03*
X-1905000Y+2540000D03*
X-1905000Y+2794000D03*
X-1905000Y+3048000D03*
X-1905000Y+3302000D03*
X-1905000Y+3556000D03*
X-1905000Y+3810000D03*
X-1905000Y+4064000D03*
D13*
X-4191000Y+4064000D03*
D14*
X-4191000Y+3810000D03*
X-4191000Y+3556000D03*
X-4191000Y+3302000D03*
X-4191000Y+3048000D03*
X-4191000Y+2794000D03*
X-4191000Y+2540000D03*
X-4191000Y+2286000D03*
X-4191000Y+2032000D03*
X-4191000Y+1778000D03*
X-3429000Y+1778000D03*
X-3429000Y+2032000D03*
X-3429000Y+2286000D03*
X-3429000Y+2540000D03*
X-3429000Y+2794000D03*
X-3429000Y+3048000D03*
X-3429000Y+3302000D03*
X-3429000Y+3556000D03*
X-3429000Y+3810000D03*
X-3429000Y+4064000D03*
D13*
X-1143000Y+4064000D03*
D14*
X-1143000Y+3810000D03*
X-1143000Y+3556000D03*
X-1143000Y+3302000D03*
X-1143000Y+3048000D03*
X-1143000Y+2794000D03*
X-1143000Y+2540000D03*
X-1143000Y+2286000D03*
X-1143000Y+2032000D03*
X-1143000Y+1778000D03*
X-381000Y+1778000D03*
X-381000Y+2032000D03*
X-381000Y+2286000D03*
X-381000Y+2540000D03*
X-381000Y+2794000D03*
X-381000Y+3048000D03*
X-381000Y+3302000D03*
X-381000Y+3556000D03*
X-381000Y+3810000D03*
X-381000Y+4064000D03*
D13*
X-2667000Y+1016000D03*
D14*
X-2667000Y+762000D03*
X-2667000Y+508000D03*
X-2667000Y+254000D03*
X-2667000Y+0D03*
X-2667000Y-254000D03*
X-2667000Y-508000D03*
X-2667000Y-762000D03*
X-2667000Y-1016000D03*
X-2667000Y-1270000D03*
X-1905000Y-1270000D03*
X-1905000Y-1016000D03*
X-1905000Y-762000D03*
X-1905000Y-508000D03*
X-1905000Y-254000D03*
X-1905000Y+0D03*
X-1905000Y+254000D03*
X-1905000Y+508000D03*
X-1905000Y+762000D03*
X-1905000Y+1016000D03*
D13*
X-4191000Y+1016000D03*
D14*
X-4191000Y+762000D03*
X-4191000Y+508000D03*
X-4191000Y+254000D03*
X-4191000Y+0D03*
X-4191000Y-254000D03*
X-4191000Y-508000D03*
X-4191000Y-762000D03*
X-4191000Y-1016000D03*
X-4191000Y-1270000D03*
X-3429000Y-1270000D03*
X-3429000Y-1016000D03*
X-3429000Y-762000D03*
X-3429000Y-508000D03*
X-3429000Y-254000D03*
X-3429000Y+0D03*
X-3429000Y+254000D03*
X-3429000Y+508000D03*
X-3429000Y+762000D03*
X-3429000Y+1016000D03*
D13*
X-1143000Y+1016000D03*
D14*
X-1143000Y+762000D03*
X-1143000Y+508000D03*
X-1143000Y+254000D03*
X-1143000Y+0D03*
X-1143000Y-254000D03*
X-1143000Y-508000D03*
X-1143000Y-762000D03*
X-1143000Y-1016000D03*
X-1143000Y-1270000D03*
X-381000Y-1270000D03*
X-381000Y-1016000D03*
X-381000Y-762000D03*
X-381000Y-508000D03*
X-381000Y-254000D03*
X-381000Y+0D03*
X-381000Y+254000D03*
X-381000Y+508000D03*
X-381000Y+762000D03*
X-381000Y+1016000D03*
D13*
X+1905000Y+4064000D03*
D14*
X+1905000Y+3810000D03*
X+1905000Y+3556000D03*
X+1905000Y+3302000D03*
X+1905000Y+3048000D03*
X+1905000Y+2794000D03*
X+1905000Y+2540000D03*
X+1905000Y+2286000D03*
X+1905000Y+2032000D03*
X+1905000Y+1778000D03*
X+2667000Y+1778000D03*
X+2667000Y+2032000D03*
X+2667000Y+2286000D03*
X+2667000Y+2540000D03*
X+2667000Y+2794000D03*
X+2667000Y+3048000D03*
X+2667000Y+3302000D03*
X+2667000Y+3556000D03*
X+2667000Y+3810000D03*
X+2667000Y+4064000D03*
D13*
X+381000Y+4064000D03*
D14*
X+381000Y+3810000D03*
X+381000Y+3556000D03*
X+381000Y+3302000D03*
X+381000Y+3048000D03*
X+381000Y+2794000D03*
X+381000Y+2540000D03*
X+381000Y+2286000D03*
X+381000Y+2032000D03*
X+381000Y+1778000D03*
X+1143000Y+1778000D03*
X+1143000Y+2032000D03*
X+1143000Y+2286000D03*
X+1143000Y+2540000D03*
X+1143000Y+2794000D03*
X+1143000Y+3048000D03*
X+1143000Y+3302000D03*
X+1143000Y+3556000D03*
X+1143000Y+3810000D03*
X+1143000Y+4064000D03*
D13*
X+3429000Y+4064000D03*
D14*
X+3429000Y+3810000D03*
X+3429000Y+3556000D03*
X+3429000Y+3302000D03*
X+3429000Y+3048000D03*
X+3429000Y+2794000D03*
X+3429000Y+2540000D03*
X+3429000Y+2286000D03*
X+3429000Y+2032000D03*
X+3429000Y+1778000D03*
X+4191000Y+1778000D03*
X+4191000Y+2032000D03*
X+4191000Y+2286000D03*
X+4191000Y+2540000D03*
X+4191000Y+2794000D03*
X+4191000Y+3048000D03*
X+4191000Y+3302000D03*
X+4191000Y+3556000D03*
X+4191000Y+3810000D03*
X+4191000Y+4064000D03*
D13*
X+2032000Y+1016000D03*
D14*
X+2032000Y+762000D03*
X+2032000Y+508000D03*
X+2032000Y+254000D03*
X+2032000Y+0D03*
X+2032000Y-254000D03*
X+2032000Y-508000D03*
X+2032000Y-762000D03*
X+2032000Y-1016000D03*
X+2032000Y-1270000D03*
X+2794000Y-1270000D03*
X+2794000Y-1016000D03*
X+2794000Y-762000D03*
X+2794000Y-508000D03*
X+2794000Y-254000D03*
X+2794000Y+0D03*
X+2794000Y+254000D03*
X+2794000Y+508000D03*
X+2794000Y+762000D03*
X+2794000Y+1016000D03*
D13*
X+381000Y+1016000D03*
D14*
X+381000Y+762000D03*
X+381000Y+508000D03*
X+381000Y+254000D03*
X+381000Y+0D03*
X+381000Y-254000D03*
X+381000Y-508000D03*
X+381000Y-762000D03*
X+381000Y-1016000D03*
X+381000Y-1270000D03*
X+1143000Y-1270000D03*
X+1143000Y-1016000D03*
X+1143000Y-762000D03*
X+1143000Y-508000D03*
X+1143000Y-254000D03*
X+1143000Y+0D03*
X+1143000Y+254000D03*
X+1143000Y+508000D03*
X+1143000Y+762000D03*
X+1143000Y+1016000D03*
D13*
X+3429000Y+1016000D03*
D14*
X+3429000Y+762000D03*
X+3429000Y+508000D03*
X+3429000Y+254000D03*
X+3429000Y+0D03*
X+3429000Y-254000D03*
X+3429000Y-508000D03*
X+3429000Y-762000D03*
X+3429000Y-1016000D03*
X+3429000Y-1270000D03*
X+4191000Y-1270000D03*
X+4191000Y-1016000D03*
X+4191000Y-762000D03*
X+4191000Y-508000D03*
X+4191000Y-254000D03*
X+4191000Y+0D03*
X+4191000Y+254000D03*
X+4191000Y+508000D03*
X+4191000Y+762000D03*
X+4191000Y+1016000D03*
D13*
X-2667000Y-2032000D03*
D14*
X-2667000Y-2286000D03*
X-2667000Y-2540000D03*
X-2667000Y-2794000D03*
X-2667000Y-3048000D03*
X-2667000Y-3302000D03*
X-2667000Y-3556000D03*
X-2667000Y-3810000D03*
X-2667000Y-4064000D03*
X-2667000Y-4318000D03*
X-1905000Y-4318000D03*
X-1905000Y-4064000D03*
X-1905000Y-3810000D03*
X-1905000Y-3556000D03*
X-1905000Y-3302000D03*
X-1905000Y-3048000D03*
X-1905000Y-2794000D03*
X-1905000Y-2540000D03*
X-1905000Y-2286000D03*
X-1905000Y-2032000D03*
D13*
X-4191000Y-2032000D03*
D14*
X-4191000Y-2286000D03*
X-4191000Y-2540000D03*
X-4191000Y-2794000D03*
X-4191000Y-3048000D03*
X-4191000Y-3302000D03*
X-4191000Y-3556000D03*
X-4191000Y-3810000D03*
X-4191000Y-4064000D03*
X-4191000Y-4318000D03*
X-3429000Y-4318000D03*
X-3429000Y-4064000D03*
X-3429000Y-3810000D03*
X-3429000Y-3556000D03*
X-3429000Y-3302000D03*
X-3429000Y-3048000D03*
X-3429000Y-2794000D03*
X-3429000Y-2540000D03*
X-3429000Y-2286000D03*
X-3429000Y-2032000D03*
D13*
X-1143000Y-2032000D03*
D14*
X-1143000Y-2286000D03*
X-1143000Y-2540000D03*
X-1143000Y-2794000D03*
X-1143000Y-3048000D03*
X-1143000Y-3302000D03*
X-1143000Y-3556000D03*
X-1143000Y-3810000D03*
X-1143000Y-4064000D03*
X-1143000Y-4318000D03*
X-381000Y-4318000D03*
X-381000Y-4064000D03*
X-381000Y-3810000D03*
X-381000Y-3556000D03*
X-381000Y-3302000D03*
X-381000Y-3048000D03*
X-381000Y-2794000D03*
X-381000Y-2540000D03*
X-381000Y-2286000D03*
X-381000Y-2032000D03*
D15*
X-5461000Y-5715000D02*
X+5461000Y-5715000D01*
X+5461000Y+5207000D01*
X-5461000Y+5207000D01*
X-5461000Y-5715000D01*
M02*
